<?xml version="1.0" encoding="UTF-8" standalone="no"?>
<!DOCTYPE svg PUBLIC "-//W3C//DTD SVG 1.1//EN"
 "http://www.w3.org/Graphics/SVG/1.1/DTD/svg11.dtd">
<!-- Generated by graphviz version 2.42.3 (0)
 -->
<!-- Title: CMake Pages: 1 -->
<svg width="1828pt" height="1322pt"
 viewBox="0.00 0.00 1828.00 1322.00" xmlns="http://www.w3.org/2000/svg" xmlns:xlink="http://www.w3.org/1999/xlink">
<g id="graph0" class="graph" transform="scale(1 1) rotate(0) translate(4 1318)">
<title>CMake</title>
<polygon fill="white" stroke="transparent" points="-4,4 -4,-1318 1824,-1318 1824,4 -4,4"/>
<g id="clust1" class="cluster">
<title>clusterPrerequisite</title>
<polygon fill="none" stroke="black" points="8,-917 8,-1183 364,-1183 364,-917 8,-917"/>
<text text-anchor="middle" x="186" y="-1167.8" font-family="Times,serif" font-size="14.00">Prerequisite</text>
</g>
<g id="clust2" class="cluster">
<title>clusterOR</title>
<polygon fill="none" stroke="royalblue" points="372,-8 372,-1306 1812,-1306 1812,-8 372,-8"/>
<text text-anchor="middle" x="1092" y="-1290.8" font-family="Times,serif" font-size="14.00">OR&#45;Tools (CMake)</text>
</g>
<g id="clust3" class="cluster">
<title>clusterDeps</title>
<polygon fill="none" stroke="grey" points="380,-567 380,-1275 1804,-1275 1804,-567 380,-567"/>
<text text-anchor="middle" x="1092" y="-1259.8" font-family="Times,serif" font-size="14.00">Dependencies</text>
<text text-anchor="middle" x="1092" y="-1244.8" font-family="Times,serif" font-size="14.00">(&#45;DBUILD_DEPS=ON)</text>
</g>
<g id="clust4" class="cluster">
<title>clusterZLIB</title>
<polygon fill="none" stroke="royalblue" points="904,-1108 904,-1183 1136,-1183 1136,-1108 904,-1108"/>
<text text-anchor="middle" x="1020" y="-1167.8" font-family="Times,serif" font-size="14.00">madler/zlib.git + cmake patch</text>
</g>
<g id="clust5" class="cluster">
<title>clusterAbsl</title>
<polygon fill="none" stroke="royalblue" points="1144,-1108 1144,-1183 1303,-1183 1303,-1108 1144,-1108"/>
<text text-anchor="middle" x="1223.5" y="-1167.8" font-family="Times,serif" font-size="14.00">abseil/abseil&#45;cpp.git</text>
</g>
<g id="clust6" class="cluster">
<title>clusterGFlags</title>
<polygon fill="none" stroke="royalblue" points="1311,-1108 1311,-1183 1442,-1183 1442,-1108 1311,-1108"/>
<text text-anchor="middle" x="1376.5" y="-1167.8" font-family="Times,serif" font-size="14.00">gflags/gflags.git</text>
</g>
<g id="clust7" class="cluster">
<title>clusterGLog</title>
<polygon fill="none" stroke="royalblue" points="1450,-1108 1450,-1183 1573,-1183 1573,-1108 1450,-1108"/>
<text text-anchor="middle" x="1511.5" y="-1167.8" font-family="Times,serif" font-size="14.00">google/glog.git</text>
</g>
<g id="clust8" class="cluster">
<title>clusterProtobuf</title>
<polygon fill="none" stroke="royalblue" points="1581,-1108 1581,-1183 1796,-1183 1796,-1108 1581,-1108"/>
<text text-anchor="middle" x="1688.5" y="-1167.8" font-family="Times,serif" font-size="14.00">protocolbuffers/protobuf.git</text>
</g>
<g id="clust9" class="cluster">
<title>clusterCoinOR</title>
<polygon fill="none" stroke="royalblue" points="488,-575 488,-1229 896,-1229 896,-575 488,-575"/>
<text text-anchor="middle" x="692" y="-1213.8" font-family="Times,serif" font-size="14.00">Coin&#45;OR Solver</text>
<text text-anchor="middle" x="692" y="-1198.8" font-family="Times,serif" font-size="14.00">(&#45;DUSE_COINOR=ON)</text>
</g>
<g id="clust10" class="cluster">
<title>clusterCoinUtils</title>
<polygon fill="none" stroke="royalblue" points="704,-1108 704,-1183 859,-1183 859,-1108 704,-1108"/>
<text text-anchor="middle" x="781.5" y="-1167.8" font-family="Times,serif" font-size="14.00">mizux/CoinUtils.git</text>
</g>
<g id="clust11" class="cluster">
<title>clusterOsi</title>
<polygon fill="none" stroke="royalblue" points="747,-1013 747,-1088 858,-1088 858,-1013 747,-1013"/>
<text text-anchor="middle" x="802.5" y="-1072.8" font-family="Times,serif" font-size="14.00">mizux/Osi.git</text>
</g>
<g id="clust12" class="cluster">
<title>clusterClp</title>
<polygon fill="none" stroke="royalblue" points="528,-844 528,-993 796,-993 796,-844 528,-844"/>
<text text-anchor="middle" x="662" y="-977.8" font-family="Times,serif" font-size="14.00">mizux/Clp.git</text>
</g>
<g id="clust13" class="cluster">
<title>clusterCgl</title>
<polygon fill="none" stroke="royalblue" points="726,-750 726,-825 838,-825 838,-750 726,-750"/>
<text text-anchor="middle" x="782" y="-809.8" font-family="Times,serif" font-size="14.00">mizux/Cgl.git</text>
</g>
<g id="clust14" class="cluster">
<title>clusterCbc</title>
<polygon fill="none" stroke="royalblue" points="614,-583 614,-731 888,-731 888,-583 614,-583"/>
<text text-anchor="middle" x="751" y="-715.8" font-family="Times,serif" font-size="14.00">mizux/Cbc.git</text>
</g>
<g id="clust15" class="cluster">
<title>clusterCXX</title>
<polygon fill="none" stroke="royalblue" points="680,-131 680,-550 910,-550 910,-131 680,-131"/>
<text text-anchor="middle" x="795" y="-534.8" font-family="Times,serif" font-size="14.00">C++</text>
<text text-anchor="middle" x="795" y="-519.8" font-family="Times,serif" font-size="14.00">(&#45;DBUILD_CXX=ON)</text>
</g>
<g id="clust16" class="cluster">
<title>clusterCXXTest</title>
<polygon fill="none" stroke="black" points="688,-139 688,-229 902,-229 902,-139 688,-139"/>
<text text-anchor="middle" x="795" y="-213.8" font-family="Times,serif" font-size="14.00">Examples</text>
<text text-anchor="middle" x="795" y="-198.8" font-family="Times,serif" font-size="14.00">(&#45;DENABLE_TESTING=ON)</text>
</g>
<g id="clust17" class="cluster">
<title>clusterPython</title>
<polygon fill="none" stroke="gold" points="918,-16 918,-427 1148,-427 1148,-16 918,-16"/>
<text text-anchor="middle" x="1033" y="-411.8" font-family="Times,serif" font-size="14.00">Python</text>
<text text-anchor="middle" x="1033" y="-396.8" font-family="Times,serif" font-size="14.00">(&#45;DBUILD_PYTHON=ON)</text>
</g>
<g id="clust18" class="cluster">
<title>clusterPythonTest</title>
<polygon fill="none" stroke="black" points="926,-24 926,-114 1140,-114 1140,-24 926,-24"/>
<text text-anchor="middle" x="1033" y="-98.8" font-family="Times,serif" font-size="14.00">Examples</text>
<text text-anchor="middle" x="1033" y="-83.8" font-family="Times,serif" font-size="14.00">(&#45;DENABLE_TESTING=ON)</text>
</g>
<g id="clust19" class="cluster">
<title>clusterJava</title>
<polygon fill="none" stroke="crimson" points="1183,-16 1183,-427 1413,-427 1413,-16 1183,-16"/>
<text text-anchor="middle" x="1298" y="-411.8" font-family="Times,serif" font-size="14.00">Java</text>
<text text-anchor="middle" x="1298" y="-396.8" font-family="Times,serif" font-size="14.00">(&#45;DBUILD_JAVA=ON)</text>
</g>
<g id="clust20" class="cluster">
<title>clusterJavaTest</title>
<polygon fill="none" stroke="black" points="1191,-24 1191,-114 1405,-114 1405,-24 1191,-24"/>
<text text-anchor="middle" x="1298" y="-98.8" font-family="Times,serif" font-size="14.00">Examples</text>
<text text-anchor="middle" x="1298" y="-83.8" font-family="Times,serif" font-size="14.00">(&#45;DENABLE_TESTING=ON)</text>
</g>
<g id="clust21" class="cluster">
<title>clusterNet</title>
<polygon fill="none" stroke="forestgreen" points="1428,-16 1428,-427 1804,-427 1804,-16 1428,-16"/>
<text text-anchor="middle" x="1616" y="-411.8" font-family="Times,serif" font-size="14.00">.Net</text>
<text text-anchor="middle" x="1616" y="-396.8" font-family="Times,serif" font-size="14.00">(&#45;DBUILD_DOTNET=ON)</text>
</g>
<g id="clust22" class="cluster">
<title>clusterNetTest</title>
<polygon fill="none" stroke="black" points="1479,-24 1479,-114 1693,-114 1693,-24 1479,-24"/>
<text text-anchor="middle" x="1586" y="-98.8" font-family="Times,serif" font-size="14.00">Examples</text>
<text text-anchor="middle" x="1586" y="-83.8" font-family="Times,serif" font-size="14.00">(&#45;DENABLE_TESTING=ON)</text>
</g>
<!-- CM -->
<g id="node1" class="node">
<title>CM</title>
<path fill="none" stroke="royalblue" d="M180,-1152C180,-1152 138,-1152 138,-1152 132,-1152 126,-1146 126,-1140 126,-1140 126,-1128 126,-1128 126,-1122 132,-1116 138,-1116 138,-1116 180,-1116 180,-1116 186,-1116 192,-1122 192,-1128 192,-1128 192,-1140 192,-1140 192,-1146 186,-1152 180,-1152"/>
<text text-anchor="middle" x="159" y="-1130.3" font-family="Times,serif" font-size="14.00">CMake</text>
</g>
<!-- SWIG -->
<g id="node2" class="node">
<title>SWIG</title>
<path fill="none" stroke="chocolate" d="M177.5,-1058C177.5,-1058 140.5,-1058 140.5,-1058 134.5,-1058 128.5,-1052 128.5,-1046 128.5,-1046 128.5,-1032 128.5,-1032 128.5,-1026 134.5,-1020 140.5,-1020 140.5,-1020 177.5,-1020 177.5,-1020 183.5,-1020 189.5,-1026 189.5,-1032 189.5,-1032 189.5,-1046 189.5,-1046 189.5,-1052 183.5,-1058 177.5,-1058"/>
<text text-anchor="middle" x="159" y="-1042.8" font-family="Times,serif" font-size="14.00">Swig</text>
<text text-anchor="middle" x="159" y="-1027.8" font-family="Times,serif" font-size="14.00">(Unix)</text>
</g>
<!-- CM&#45;&gt;SWIG -->
<g id="edge1" class="edge">
<title>CM&#45;&gt;SWIG</title>
</g>
<!-- PY -->
<g id="node3" class="node">
<title>PY</title>
<path fill="none" stroke="gold" d="M71.5,-963C71.5,-963 28.5,-963 28.5,-963 22.5,-963 16.5,-957 16.5,-951 16.5,-951 16.5,-937 16.5,-937 16.5,-931 22.5,-925 28.5,-925 28.5,-925 71.5,-925 71.5,-925 77.5,-925 83.5,-931 83.5,-937 83.5,-937 83.5,-951 83.5,-951 83.5,-957 77.5,-963 71.5,-963"/>
<text text-anchor="middle" x="50" y="-947.8" font-family="Times,serif" font-size="14.00">Python</text>
<text text-anchor="middle" x="50" y="-932.8" font-family="Times,serif" font-size="14.00">(3.5+)</text>
</g>
<!-- SWIG&#45;&gt;PY -->
<g id="edge2" class="edge">
<title>SWIG&#45;&gt;PY</title>
</g>
<!-- Java -->
<g id="node4" class="node">
<title>Java</title>
<path fill="none" stroke="indigo" d="M204,-963C204,-963 114,-963 114,-963 108,-963 102,-957 102,-951 102,-951 102,-937 102,-937 102,-931 108,-925 114,-925 114,-925 204,-925 204,-925 210,-925 216,-931 216,-937 216,-937 216,-951 216,-951 216,-957 210,-963 204,-963"/>
<text text-anchor="middle" x="159" y="-947.8" font-family="Times,serif" font-size="14.00">Java</text>
<text text-anchor="middle" x="159" y="-932.8" font-family="Times,serif" font-size="14.00">(openJDK 8+)</text>
</g>
<!-- SWIG&#45;&gt;Java -->
<g id="edge3" class="edge">
<title>SWIG&#45;&gt;Java</title>
</g>
<!-- Dotnet -->
<g id="node5" class="node">
<title>Dotnet</title>
<path fill="none" stroke="forestgreen" d="M344,-963C344,-963 246,-963 246,-963 240,-963 234,-957 234,-951 234,-951 234,-937 234,-937 234,-931 240,-925 246,-925 246,-925 344,-925 344,-925 350,-925 356,-931 356,-937 356,-937 356,-951 356,-951 356,-957 350,-963 344,-963"/>
<text text-anchor="middle" x="295" y="-947.8" font-family="Times,serif" font-size="14.00">.Net Core SDK</text>
<text text-anchor="middle" x="295" y="-932.8" font-family="Times,serif" font-size="14.00">(3.0.101)</text>
</g>
<!-- SWIG&#45;&gt;Dotnet -->
<g id="edge4" class="edge">
<title>SWIG&#45;&gt;Dotnet</title>
</g>
<!-- ZLIB -->
<g id="node6" class="node">
<title>ZLIB</title>
<path fill="royalblue" stroke="royalblue" d="M995.5,-1152C995.5,-1152 924.5,-1152 924.5,-1152 918.5,-1152 912.5,-1146 912.5,-1140 912.5,-1140 912.5,-1128 912.5,-1128 912.5,-1122 918.5,-1116 924.5,-1116 924.5,-1116 995.5,-1116 995.5,-1116 1001.5,-1116 1007.5,-1122 1007.5,-1128 1007.5,-1128 1007.5,-1140 1007.5,-1140 1007.5,-1146 1001.5,-1152 995.5,-1152"/>
<text text-anchor="middle" x="960" y="-1130.3" font-family="Times,serif" font-size="14.00">ZLIB::ZLIB</text>
</g>
<!-- OR_SRC -->
<g id="node21" class="node">
<title>OR_SRC</title>
<polygon fill="royalblue" stroke="royalblue" points="896,-504 796,-504 796,-468 902,-468 902,-498 896,-504"/>
<polyline fill="none" stroke="royalblue" points="896,-504 896,-498 "/>
<polyline fill="none" stroke="royalblue" points="902,-498 896,-498 "/>
<text text-anchor="middle" x="849" y="-482.3" font-family="Times,serif" font-size="14.00">OR&#45;Tools src</text>
</g>
<!-- ZLIB&#45;&gt;OR_SRC -->
<g id="edge23" class="edge">
<title>ZLIB&#45;&gt;OR_SRC</title>
<path fill="none" stroke="black" d="M951.9,-1115.95C943.95,-1097.61 933,-1067.4 933,-1040 933,-1040 933,-1040 933,-608 933,-568.77 902.84,-533.11 878.66,-510.83"/>
<polygon fill="black" stroke="black" points="880.87,-508.1 871.07,-504.07 876.22,-513.33 880.87,-508.1"/>
</g>
<!-- Absl -->
<g id="node7" class="node">
<title>Absl</title>
<path fill="royalblue" stroke="royalblue" d="M1238,-1152C1238,-1152 1164,-1152 1164,-1152 1158,-1152 1152,-1146 1152,-1140 1152,-1140 1152,-1128 1152,-1128 1152,-1122 1158,-1116 1164,-1116 1164,-1116 1238,-1116 1238,-1116 1244,-1116 1250,-1122 1250,-1128 1250,-1128 1250,-1140 1250,-1140 1250,-1146 1244,-1152 1238,-1152"/>
<text text-anchor="middle" x="1201" y="-1130.3" font-family="Times,serif" font-size="14.00">absl::absl_*</text>
</g>
<!-- Absl&#45;&gt;OR_SRC -->
<g id="edge24" class="edge">
<title>Absl&#45;&gt;OR_SRC</title>
<path fill="none" stroke="black" d="M1155.85,-1115.96C1125.12,-1101.1 1090,-1076.2 1090,-1040 1090,-1040 1090,-1040 1090,-608 1090,-528.46 983.86,-501.2 912.45,-491.86"/>
<polygon fill="black" stroke="black" points="912.54,-488.35 902.19,-490.61 911.69,-495.3 912.54,-488.35"/>
</g>
<!-- GFlags -->
<g id="node8" class="node">
<title>GFlags</title>
<path fill="royalblue" stroke="royalblue" d="M1417.5,-1152C1417.5,-1152 1330.5,-1152 1330.5,-1152 1324.5,-1152 1318.5,-1146 1318.5,-1140 1318.5,-1140 1318.5,-1128 1318.5,-1128 1318.5,-1122 1324.5,-1116 1330.5,-1116 1330.5,-1116 1417.5,-1116 1417.5,-1116 1423.5,-1116 1429.5,-1122 1429.5,-1128 1429.5,-1128 1429.5,-1140 1429.5,-1140 1429.5,-1146 1423.5,-1152 1417.5,-1152"/>
<text text-anchor="middle" x="1374" y="-1130.3" font-family="Times,serif" font-size="14.00">gflags::gflags</text>
</g>
<!-- GFlags&#45;&gt;OR_SRC -->
<g id="edge26" class="edge">
<title>GFlags&#45;&gt;OR_SRC</title>
<path fill="none" stroke="black" d="M1323.53,-1115.94C1291.1,-1101.43 1255,-1076.97 1255,-1040 1255,-1040 1255,-1040 1255,-608 1255,-537.32 1026.15,-504.57 912.08,-492.63"/>
<polygon fill="black" stroke="black" points="912.38,-489.14 902.08,-491.61 911.67,-496.11 912.38,-489.14"/>
</g>
<!-- GLog -->
<g id="node9" class="node">
<title>GLog</title>
<path fill="royalblue" stroke="royalblue" d="M1533.5,-1152C1533.5,-1152 1470.5,-1152 1470.5,-1152 1464.5,-1152 1458.5,-1146 1458.5,-1140 1458.5,-1140 1458.5,-1128 1458.5,-1128 1458.5,-1122 1464.5,-1116 1470.5,-1116 1470.5,-1116 1533.5,-1116 1533.5,-1116 1539.5,-1116 1545.5,-1122 1545.5,-1128 1545.5,-1128 1545.5,-1140 1545.5,-1140 1545.5,-1146 1539.5,-1152 1533.5,-1152"/>
<text text-anchor="middle" x="1502" y="-1130.3" font-family="Times,serif" font-size="14.00">glog::glog</text>
</g>
<!-- GLog&#45;&gt;OR_SRC -->
<g id="edge27" class="edge">
<title>GLog&#45;&gt;OR_SRC</title>
<path fill="none" stroke="black" d="M1467.9,-1115.86C1430.59,-1095.95 1376,-1062.91 1376,-1040 1376,-1040 1376,-1040 1376,-608 1376,-513.9 1052.79,-492.98 912.6,-488.33"/>
<polygon fill="black" stroke="black" points="912.54,-484.82 902.43,-488.01 912.32,-491.82 912.54,-484.82"/>
</g>
<!-- Protobuf -->
<g id="node10" class="node">
<title>Protobuf</title>
<path fill="royalblue" stroke="royalblue" d="M1743.5,-1152C1743.5,-1152 1600.5,-1152 1600.5,-1152 1594.5,-1152 1588.5,-1146 1588.5,-1140 1588.5,-1140 1588.5,-1128 1588.5,-1128 1588.5,-1122 1594.5,-1116 1600.5,-1116 1600.5,-1116 1743.5,-1116 1743.5,-1116 1749.5,-1116 1755.5,-1122 1755.5,-1128 1755.5,-1128 1755.5,-1140 1755.5,-1140 1755.5,-1146 1749.5,-1152 1743.5,-1152"/>
<text text-anchor="middle" x="1672" y="-1130.3" font-family="Times,serif" font-size="14.00">protobuf::libprotobuf</text>
</g>
<!-- Protobuf&#45;&gt;OR_SRC -->
<g id="edge25" class="edge">
<title>Protobuf&#45;&gt;OR_SRC</title>
<path fill="none" stroke="black" d="M1645.77,-1115.69C1624.14,-1099.11 1597,-1071.94 1597,-1040 1597,-1040 1597,-1040 1597,-608 1597,-538.88 1092.85,-501.7 912.34,-490.6"/>
<polygon fill="black" stroke="black" points="912.39,-487.1 902.19,-489.98 911.96,-494.08 912.39,-487.1"/>
</g>
<!-- CoinUtils -->
<g id="node11" class="node">
<title>CoinUtils</title>
<path fill="royalblue" stroke="royalblue" d="M831.5,-1152C831.5,-1152 730.5,-1152 730.5,-1152 724.5,-1152 718.5,-1146 718.5,-1140 718.5,-1140 718.5,-1128 718.5,-1128 718.5,-1122 724.5,-1116 730.5,-1116 730.5,-1116 831.5,-1116 831.5,-1116 837.5,-1116 843.5,-1122 843.5,-1128 843.5,-1128 843.5,-1140 843.5,-1140 843.5,-1146 837.5,-1152 831.5,-1152"/>
<text text-anchor="middle" x="781" y="-1130.3" font-family="Times,serif" font-size="14.00">Coin::CoinUtils</text>
</g>
<!-- Osi -->
<g id="node12" class="node">
<title>Osi</title>
<path fill="royalblue" stroke="royalblue" d="M831.5,-1057C831.5,-1057 774.5,-1057 774.5,-1057 768.5,-1057 762.5,-1051 762.5,-1045 762.5,-1045 762.5,-1033 762.5,-1033 762.5,-1027 768.5,-1021 774.5,-1021 774.5,-1021 831.5,-1021 831.5,-1021 837.5,-1021 843.5,-1027 843.5,-1033 843.5,-1033 843.5,-1045 843.5,-1045 843.5,-1051 837.5,-1057 831.5,-1057"/>
<text text-anchor="middle" x="803" y="-1035.3" font-family="Times,serif" font-size="14.00">Coin::Osi</text>
</g>
<!-- CoinUtils&#45;&gt;Osi -->
<g id="edge5" class="edge">
<title>CoinUtils&#45;&gt;Osi</title>
<path fill="none" stroke="black" d="M785.04,-1115.94C788.27,-1102.26 792.87,-1082.81 796.61,-1067.02"/>
<polygon fill="black" stroke="black" points="800.02,-1067.8 798.92,-1057.26 793.21,-1066.19 800.02,-1067.8"/>
</g>
<!-- Clp -->
<g id="node13" class="node">
<title>Clp</title>
<path fill="royalblue" stroke="royalblue" d="M707,-962C707,-962 649,-962 649,-962 643,-962 637,-956 637,-950 637,-950 637,-938 637,-938 637,-932 643,-926 649,-926 649,-926 707,-926 707,-926 713,-926 719,-932 719,-938 719,-938 719,-950 719,-950 719,-956 713,-962 707,-962"/>
<text text-anchor="middle" x="678" y="-940.3" font-family="Times,serif" font-size="14.00">Coin::Clp</text>
</g>
<!-- CoinUtils&#45;&gt;Clp -->
<g id="edge6" class="edge">
<title>CoinUtils&#45;&gt;Clp</title>
<path fill="none" stroke="black" d="M752.66,-1115.98C745.5,-1110.63 738.33,-1104.2 733,-1097 704.65,-1058.7 689.71,-1004.33 682.86,-972.07"/>
<polygon fill="black" stroke="black" points="686.25,-971.14 680.85,-962.02 679.39,-972.52 686.25,-971.14"/>
</g>
<!-- OsiClp -->
<g id="node14" class="node">
<title>OsiClp</title>
<path fill="royalblue" stroke="royalblue" d="M775.5,-888C775.5,-888 694.5,-888 694.5,-888 688.5,-888 682.5,-882 682.5,-876 682.5,-876 682.5,-864 682.5,-864 682.5,-858 688.5,-852 694.5,-852 694.5,-852 775.5,-852 775.5,-852 781.5,-852 787.5,-858 787.5,-864 787.5,-864 787.5,-876 787.5,-876 787.5,-882 781.5,-888 775.5,-888"/>
<text text-anchor="middle" x="735" y="-866.3" font-family="Times,serif" font-size="14.00">Coin::OsiClp</text>
</g>
<!-- CoinUtils&#45;&gt;OsiClp -->
<g id="edge8" class="edge">
<title>CoinUtils&#45;&gt;OsiClp</title>
<path fill="none" stroke="black" d="M761.58,-1115.6C754.37,-1107.92 746.98,-1098.3 743,-1088 729.92,-1054.18 731.98,-948.64 733.81,-898.28"/>
<polygon fill="black" stroke="black" points="737.32,-898.26 734.21,-888.13 730.32,-897.99 737.32,-898.26"/>
</g>
<!-- Cgl -->
<g id="node16" class="node">
<title>Cgl</title>
<path fill="royalblue" stroke="royalblue" d="M811,-794C811,-794 753,-794 753,-794 747,-794 741,-788 741,-782 741,-782 741,-770 741,-770 741,-764 747,-758 753,-758 753,-758 811,-758 811,-758 817,-758 823,-764 823,-770 823,-770 823,-782 823,-782 823,-788 817,-794 811,-794"/>
<text text-anchor="middle" x="782" y="-772.3" font-family="Times,serif" font-size="14.00">Coin::Cgl</text>
</g>
<!-- CoinUtils&#45;&gt;Cgl -->
<g id="edge12" class="edge">
<title>CoinUtils&#45;&gt;Cgl</title>
<path fill="none" stroke="black" d="M829.36,-1115.79C841.91,-1109.03 854.11,-1099.95 862,-1088 873.82,-1070.1 867,-1061.45 867,-1040 867,-1040 867,-1040 867,-869 867,-839.88 843.75,-816.06 821.57,-799.95"/>
<polygon fill="black" stroke="black" points="823.39,-796.96 813.17,-794.16 819.42,-802.72 823.39,-796.96"/>
</g>
<!-- Cbc -->
<g id="node17" class="node">
<title>Cbc</title>
<path fill="royalblue" stroke="royalblue" d="M740.5,-700C740.5,-700 679.5,-700 679.5,-700 673.5,-700 667.5,-694 667.5,-688 667.5,-688 667.5,-676 667.5,-676 667.5,-670 673.5,-664 679.5,-664 679.5,-664 740.5,-664 740.5,-664 746.5,-664 752.5,-670 752.5,-676 752.5,-676 752.5,-688 752.5,-688 752.5,-694 746.5,-700 740.5,-700"/>
<text text-anchor="middle" x="710" y="-678.3" font-family="Times,serif" font-size="14.00">Coin::Cbc</text>
</g>
<!-- CoinUtils&#45;&gt;Cbc -->
<g id="edge15" class="edge">
<title>CoinUtils&#45;&gt;Cbc</title>
<path fill="none" stroke="black" d="M737.11,-1115.96C729.76,-1113.22 722.18,-1110.48 715,-1108 619.06,-1074.9 497,-1141.49 497,-1040 497,-1040 497,-1040 497,-775 497,-705.36 594.13,-687.82 657.21,-683.77"/>
<polygon fill="black" stroke="black" points="657.61,-687.26 667.41,-683.22 657.23,-680.27 657.61,-687.26"/>
</g>
<!-- OsiCbc -->
<g id="node18" class="node">
<title>OsiCbc</title>
<path fill="royalblue" stroke="royalblue" d="M868,-627C868,-627 784,-627 784,-627 778,-627 772,-621 772,-615 772,-615 772,-603 772,-603 772,-597 778,-591 784,-591 784,-591 868,-591 868,-591 874,-591 880,-597 880,-603 880,-603 880,-615 880,-615 880,-621 874,-627 868,-627"/>
<text text-anchor="middle" x="826" y="-605.3" font-family="Times,serif" font-size="14.00">Coin::OsiCbc</text>
</g>
<!-- CoinUtils&#45;&gt;OsiCbc -->
<g id="edge19" class="edge">
<title>CoinUtils&#45;&gt;OsiCbc</title>
<path fill="none" stroke="black" d="M824.9,-1115.86C836.69,-1110.5 849.16,-1104.11 860,-1097 883.44,-1081.63 887,-1068.03 887,-1040 887,-1040 887,-1040 887,-681 887,-662.25 874.61,-645.98 861,-633.77"/>
<polygon fill="black" stroke="black" points="862.86,-630.76 852.93,-627.05 858.38,-636.14 862.86,-630.76"/>
</g>
<!-- Osi&#45;&gt;Clp -->
<g id="edge7" class="edge">
<title>Osi&#45;&gt;Clp</title>
<path fill="none" stroke="black" d="M780.07,-1020.94C760.2,-1006.16 731.26,-984.62 709.26,-968.26"/>
<polygon fill="black" stroke="black" points="711.32,-965.43 701.2,-962.26 707.14,-971.04 711.32,-965.43"/>
</g>
<!-- Osi&#45;&gt;OsiClp -->
<g id="edge9" class="edge">
<title>Osi&#45;&gt;OsiClp</title>
<path fill="none" stroke="black" d="M795.98,-1020.76C784.12,-991.63 760.04,-932.49 745.94,-897.88"/>
<polygon fill="black" stroke="black" points="749.1,-896.34 742.08,-888.4 742.61,-898.98 749.1,-896.34"/>
</g>
<!-- Osi&#45;&gt;Cgl -->
<g id="edge13" class="edge">
<title>Osi&#45;&gt;Cgl</title>
<path fill="none" stroke="black" d="M808.17,-1020.95C809.73,-1015.01 811.23,-1008.27 812,-1002 820.58,-932.3 826.67,-912.67 812,-844 809,-829.94 802.81,-815.25 796.83,-803.23"/>
<polygon fill="black" stroke="black" points="799.87,-801.48 792.15,-794.22 793.66,-804.71 799.87,-801.48"/>
</g>
<!-- Osi&#45;&gt;Cbc -->
<g id="edge16" class="edge">
<title>Osi&#45;&gt;Cbc</title>
<path fill="none" stroke="black" d="M803.91,-1020.9C806.12,-976.06 810.87,-857.62 800,-844 777.74,-816.11 745.21,-852.1 722,-825 694.82,-793.26 698.28,-741.59 703.78,-710.1"/>
<polygon fill="black" stroke="black" points="707.23,-710.74 705.69,-700.26 700.35,-709.41 707.23,-710.74"/>
</g>
<!-- Osi&#45;&gt;OsiCbc -->
<g id="edge20" class="edge">
<title>Osi&#45;&gt;OsiCbc</title>
<path fill="none" stroke="black" d="M816.68,-1020.96C829.6,-1003.13 847,-973.76 847,-945 847,-945 847,-945 847,-681 847,-665.84 842.54,-649.58 837.74,-636.45"/>
<polygon fill="black" stroke="black" points="840.97,-635.12 834.06,-627.09 834.46,-637.68 840.97,-635.12"/>
</g>
<!-- Clp&#45;&gt;OsiClp -->
<g id="edge10" class="edge">
<title>Clp&#45;&gt;OsiClp</title>
<path fill="none" stroke="black" d="M691.51,-925.94C698.5,-917.1 707.18,-906.14 714.95,-896.33"/>
<polygon fill="black" stroke="black" points="717.73,-898.45 721.19,-888.44 712.24,-894.11 717.73,-898.45"/>
</g>
<!-- ClpSolver -->
<g id="node15" class="node">
<title>ClpSolver</title>
<path fill="royalblue" stroke="royalblue" d="M652,-888C652,-888 548,-888 548,-888 542,-888 536,-882 536,-876 536,-876 536,-864 536,-864 536,-858 542,-852 548,-852 548,-852 652,-852 652,-852 658,-852 664,-858 664,-864 664,-864 664,-876 664,-876 664,-882 658,-888 652,-888"/>
<text text-anchor="middle" x="600" y="-866.3" font-family="Times,serif" font-size="14.00">Coin::ClpSolver</text>
</g>
<!-- Clp&#45;&gt;ClpSolver -->
<g id="edge11" class="edge">
<title>Clp&#45;&gt;ClpSolver</title>
<path fill="none" stroke="black" d="M659.52,-925.94C649.58,-916.77 637.17,-905.31 626.25,-895.23"/>
<polygon fill="black" stroke="black" points="628.34,-892.4 618.62,-888.19 623.6,-897.54 628.34,-892.4"/>
</g>
<!-- Clp&#45;&gt;Cbc -->
<g id="edge17" class="edge">
<title>Clp&#45;&gt;Cbc</title>
<path fill="none" stroke="black" d="M636.92,-940.53C601.28,-935.95 551.64,-923.2 527,-888 515.79,-871.98 518.94,-861.82 527,-844 555.87,-780.15 623.96,-731.54 668.45,-705.17"/>
<polygon fill="black" stroke="black" points="670.4,-708.08 677.29,-700.04 666.88,-702.03 670.4,-708.08"/>
</g>
<!-- OsiClp&#45;&gt;Cgl -->
<g id="edge14" class="edge">
<title>OsiClp&#45;&gt;Cgl</title>
<path fill="none" stroke="black" d="M743.84,-851.7C750.8,-838.07 760.61,-818.86 768.55,-803.34"/>
<polygon fill="black" stroke="black" points="771.77,-804.72 773.2,-794.23 765.53,-801.54 771.77,-804.72"/>
</g>
<!-- ClpSolver&#45;&gt;OR_SRC -->
<g id="edge28" class="edge">
<title>ClpSolver&#45;&gt;OR_SRC</title>
<path fill="none" stroke="black" d="M546.05,-851.99C513,-837.83 477,-813.93 477,-777 477,-777 477,-777 477,-608 477,-543.85 679.56,-508.49 785.74,-494.36"/>
<polygon fill="black" stroke="black" points="786.24,-497.82 795.7,-493.06 785.33,-490.88 786.24,-497.82"/>
</g>
<!-- Cgl&#45;&gt;Cbc -->
<g id="edge18" class="edge">
<title>Cgl&#45;&gt;Cbc</title>
<path fill="none" stroke="black" d="M768.46,-757.7C757.6,-743.82 742.19,-724.14 729.93,-708.46"/>
<polygon fill="black" stroke="black" points="732.4,-705.94 723.48,-700.23 726.89,-710.26 732.4,-705.94"/>
</g>
<!-- Cbc&#45;&gt;OsiCbc -->
<g id="edge21" class="edge">
<title>Cbc&#45;&gt;OsiCbc</title>
<path fill="none" stroke="black" d="M737.78,-663.99C753.17,-654.58 772.48,-642.76 789.12,-632.57"/>
<polygon fill="black" stroke="black" points="791.34,-635.32 798.04,-627.11 787.68,-629.35 791.34,-635.32"/>
</g>
<!-- CbcSolver -->
<g id="node19" class="node">
<title>CbcSolver</title>
<path fill="royalblue" stroke="royalblue" d="M741.5,-627C741.5,-627 634.5,-627 634.5,-627 628.5,-627 622.5,-621 622.5,-615 622.5,-615 622.5,-603 622.5,-603 622.5,-597 628.5,-591 634.5,-591 634.5,-591 741.5,-591 741.5,-591 747.5,-591 753.5,-597 753.5,-603 753.5,-603 753.5,-615 753.5,-615 753.5,-621 747.5,-627 741.5,-627"/>
<text text-anchor="middle" x="688" y="-605.3" font-family="Times,serif" font-size="14.00">Coin::CbcSolver</text>
</g>
<!-- Cbc&#45;&gt;CbcSolver -->
<g id="edge22" class="edge">
<title>Cbc&#45;&gt;CbcSolver</title>
<path fill="none" stroke="black" d="M704.67,-663.81C702.16,-655.7 699.1,-645.84 696.3,-636.78"/>
<polygon fill="black" stroke="black" points="699.58,-635.54 693.28,-627.03 692.89,-637.62 699.58,-635.54"/>
</g>
<!-- CbcSolver&#45;&gt;OR_SRC -->
<g id="edge29" class="edge">
<title>CbcSolver&#45;&gt;OR_SRC</title>
<path fill="none" stroke="black" d="M710.73,-590.92C738.81,-569.81 786.73,-533.8 818.13,-510.2"/>
<polygon fill="black" stroke="black" points="820.24,-512.99 826.13,-504.19 816.03,-507.4 820.24,-512.99"/>
</g>
<!-- SWIG_WIN -->
<g id="node20" class="node">
<title>SWIG_WIN</title>
<path fill="royalblue" stroke="chocolate" d="M468,-1153C468,-1153 400,-1153 400,-1153 394,-1153 388,-1147 388,-1141 388,-1141 388,-1127 388,-1127 388,-1121 394,-1115 400,-1115 400,-1115 468,-1115 468,-1115 474,-1115 480,-1121 480,-1127 480,-1127 480,-1141 480,-1141 480,-1147 474,-1153 468,-1153"/>
<text text-anchor="middle" x="434" y="-1137.8" font-family="Times,serif" font-size="14.00">swigwin</text>
<text text-anchor="middle" x="434" y="-1122.8" font-family="Times,serif" font-size="14.00">(Windows)</text>
</g>
<!-- OR_CPP -->
<g id="node22" class="node">
<title>OR_CPP</title>
<path fill="royalblue" stroke="royalblue" d="M888.5,-381C888.5,-381 787.5,-381 787.5,-381 781.5,-381 775.5,-375 775.5,-369 775.5,-369 775.5,-357 775.5,-357 775.5,-351 781.5,-345 787.5,-345 787.5,-345 888.5,-345 888.5,-345 894.5,-345 900.5,-351 900.5,-357 900.5,-357 900.5,-369 900.5,-369 900.5,-375 894.5,-381 888.5,-381"/>
<text text-anchor="middle" x="838" y="-359.3" font-family="Times,serif" font-size="14.00">ortools::ortools</text>
</g>
<!-- OR_SRC&#45;&gt;OR_CPP -->
<g id="edge30" class="edge">
<title>OR_SRC&#45;&gt;OR_CPP</title>
<path fill="none" stroke="black" d="M847.45,-467.92C845.64,-448.04 842.63,-414.92 840.49,-391.42"/>
<polygon fill="black" stroke="black" points="843.97,-391.03 839.58,-381.38 837,-391.66 843.97,-391.03"/>
</g>
<!-- OR_WPY -->
<g id="node25" class="node">
<title>OR_WPY</title>
<polygon fill="gold" stroke="gold" points="1098,-381 926,-381 926,-345 1104,-345 1104,-375 1098,-381"/>
<polyline fill="none" stroke="gold" points="1098,-381 1098,-375 "/>
<polyline fill="none" stroke="gold" points="1104,-375 1098,-375 "/>
<text text-anchor="middle" x="1015" y="-359.3" font-family="Times,serif" font-size="14.00">C++ Python wrappers</text>
</g>
<!-- OR_SRC&#45;&gt;OR_WPY -->
<g id="edge33" class="edge">
<title>OR_SRC&#45;&gt;OR_WPY</title>
<path fill="none" stroke="chocolate" d="M872.43,-467.92C901.39,-446.81 950.8,-410.8 983.18,-387.2"/>
<polygon fill="chocolate" stroke="chocolate" points="985.4,-389.91 991.42,-381.19 981.28,-384.25 985.4,-389.91"/>
<text text-anchor="middle" x="934" y="-438.8" font-family="Times,serif" font-size="14.00">swig</text>
</g>
<!-- OR_PY -->
<g id="node26" class="node">
<title>OR_PY</title>
<polygon fill="gold" stroke="gold" points="1098.5,-293 1003.5,-293 1003.5,-257 1104.5,-257 1104.5,-287 1098.5,-293"/>
<polyline fill="none" stroke="gold" points="1098.5,-293 1098.5,-287 "/>
<polyline fill="none" stroke="gold" points="1104.5,-287 1098.5,-287 "/>
<text text-anchor="middle" x="1054" y="-271.3" font-family="Times,serif" font-size="14.00">Python files</text>
</g>
<!-- OR_SRC&#45;&gt;OR_PY -->
<g id="edge34" class="edge">
<title>OR_SRC&#45;&gt;OR_PY</title>
<path fill="none" stroke="chocolate" d="M902.06,-481.03C971.39,-474.61 1087.05,-459.27 1113,-427 1135.84,-398.6 1125.62,-379.19 1113,-345 1106.72,-327.98 1094.15,-312.32 1082.23,-300.23"/>
<polygon fill="chocolate" stroke="chocolate" points="1084.57,-297.62 1074.95,-293.19 1079.7,-302.65 1084.57,-297.62"/>
<text text-anchor="middle" x="1143" y="-359.3" font-family="Times,serif" font-size="14.00">swig</text>
</g>
<!-- OR_WJAVA -->
<g id="node29" class="node">
<title>OR_WJAVA</title>
<polygon fill="crimson" stroke="crimson" points="1344,-381 1192,-381 1192,-345 1350,-345 1350,-375 1344,-381"/>
<polyline fill="none" stroke="crimson" points="1344,-381 1344,-375 "/>
<polyline fill="none" stroke="crimson" points="1350,-375 1344,-375 "/>
<text text-anchor="middle" x="1271" y="-359.3" font-family="Times,serif" font-size="14.00">C++ Java wrappers</text>
</g>
<!-- OR_SRC&#45;&gt;OR_WJAVA -->
<g id="edge38" class="edge">
<title>OR_SRC&#45;&gt;OR_WJAVA</title>
<path fill="none" stroke="chocolate" d="M902.07,-481.77C974.9,-476.82 1101.75,-466.2 1145,-450 1182.88,-435.81 1220.41,-407.94 1244.53,-387.77"/>
<polygon fill="chocolate" stroke="chocolate" points="1246.83,-390.4 1252.17,-381.25 1242.29,-385.07 1246.83,-390.4"/>
<text text-anchor="middle" x="1192" y="-438.8" font-family="Times,serif" font-size="14.00">swig</text>
</g>
<!-- OR_JAVA -->
<g id="node30" class="node">
<title>OR_JAVA</title>
<polygon fill="crimson" stroke="crimson" points="1357,-293 1283,-293 1283,-257 1363,-257 1363,-287 1357,-293"/>
<polyline fill="none" stroke="crimson" points="1357,-293 1357,-287 "/>
<polyline fill="none" stroke="crimson" points="1363,-287 1357,-287 "/>
<text text-anchor="middle" x="1323" y="-271.3" font-family="Times,serif" font-size="14.00">Java files</text>
</g>
<!-- OR_SRC&#45;&gt;OR_JAVA -->
<g id="edge39" class="edge">
<title>OR_SRC&#45;&gt;OR_JAVA</title>
<path fill="none" stroke="chocolate" d="M902.21,-482.97C1026.89,-477.66 1329.65,-461.33 1359,-427 1389.41,-391.42 1361.99,-334.62 1341.21,-301.77"/>
<polygon fill="chocolate" stroke="chocolate" points="1343.99,-299.62 1335.58,-293.17 1338.13,-303.46 1343.99,-299.62"/>
<text text-anchor="middle" x="1389" y="-359.3" font-family="Times,serif" font-size="14.00">swig</text>
</g>
<!-- OR_WNET -->
<g id="node33" class="node">
<title>OR_WNET</title>
<polygon fill="forestgreen" stroke="forestgreen" points="1590,-381 1438,-381 1438,-345 1596,-345 1596,-375 1590,-381"/>
<polyline fill="none" stroke="forestgreen" points="1590,-381 1590,-375 "/>
<polyline fill="none" stroke="forestgreen" points="1596,-375 1590,-375 "/>
<text text-anchor="middle" x="1517" y="-359.3" font-family="Times,serif" font-size="14.00">C++ .Net wrappers</text>
</g>
<!-- OR_SRC&#45;&gt;OR_WNET -->
<g id="edge43" class="edge">
<title>OR_SRC&#45;&gt;OR_WNET</title>
<path fill="none" stroke="chocolate" d="M902.22,-485.12C1020.48,-484.81 1301.74,-480.74 1391,-450 1429.47,-436.75 1467.15,-408.43 1491.13,-387.9"/>
<polygon fill="chocolate" stroke="chocolate" points="1493.49,-390.48 1498.71,-381.27 1488.88,-385.21 1493.49,-390.48"/>
<text text-anchor="middle" x="1438" y="-438.8" font-family="Times,serif" font-size="14.00">swig</text>
</g>
<!-- OR_NET -->
<g id="node34" class="node">
<title>OR_NET</title>
<polygon fill="forestgreen" stroke="forestgreen" points="1511.5,-293 1436.5,-293 1436.5,-257 1517.5,-257 1517.5,-287 1511.5,-293"/>
<polyline fill="none" stroke="forestgreen" points="1511.5,-293 1511.5,-287 "/>
<polyline fill="none" stroke="forestgreen" points="1517.5,-287 1511.5,-287 "/>
<text text-anchor="middle" x="1477" y="-271.3" font-family="Times,serif" font-size="14.00">.Net files</text>
</g>
<!-- OR_SRC&#45;&gt;OR_NET -->
<g id="edge44" class="edge">
<title>OR_SRC&#45;&gt;OR_NET</title>
<path fill="none" stroke="chocolate" d="M902.26,-485.15C1066.92,-485.05 1559.48,-480.25 1605,-427 1628.68,-399.3 1623.68,-376.29 1605,-345 1595.99,-329.91 1558.91,-310.82 1526.96,-296.55"/>
<polygon fill="chocolate" stroke="chocolate" points="1528.24,-293.29 1517.68,-292.47 1525.43,-299.7 1528.24,-293.29"/>
<text text-anchor="middle" x="1637" y="-359.3" font-family="Times,serif" font-size="14.00">swig</text>
</g>
<!-- PKG_CPP -->
<g id="node23" class="node">
<title>PKG_CPP</title>
<polygon fill="royalblue" stroke="royalblue" points="901.5,-293 776.5,-293 772.5,-289 772.5,-257 897.5,-257 901.5,-261 901.5,-293"/>
<polyline fill="none" stroke="royalblue" points="897.5,-289 772.5,-289 "/>
<polyline fill="none" stroke="royalblue" points="897.5,-289 897.5,-257 "/>
<polyline fill="none" stroke="royalblue" points="897.5,-289 901.5,-293 "/>
<text text-anchor="middle" x="837" y="-271.3" font-family="Times,serif" font-size="14.00">CMake Package</text>
</g>
<!-- OR_CPP&#45;&gt;PKG_CPP -->
<g id="edge31" class="edge">
<title>OR_CPP&#45;&gt;PKG_CPP</title>
<path fill="none" stroke="dimgrey" stroke-dasharray="1,5" d="M837.8,-344.6C837.66,-332.75 837.47,-316.82 837.32,-303.29"/>
<polygon fill="dimgrey" stroke="dimgrey" points="840.81,-303.04 837.2,-293.08 833.82,-303.12 840.81,-303.04"/>
<text text-anchor="middle" x="852" y="-315.8" font-family="Times,serif" font-size="14.00">WIP</text>
</g>
<!-- EX_CPP -->
<g id="node24" class="node">
<title>EX_CPP</title>
<path fill="royalblue" stroke="royalblue" d="M882,-183C882,-183 792,-183 792,-183 786,-183 780,-177 780,-171 780,-171 780,-159 780,-159 780,-153 786,-147 792,-147 792,-147 882,-147 882,-147 888,-147 894,-153 894,-159 894,-159 894,-171 894,-171 894,-177 888,-183 882,-183"/>
<text text-anchor="middle" x="837" y="-161.3" font-family="Times,serif" font-size="14.00">C++ samples</text>
</g>
<!-- PKG_CPP&#45;&gt;EX_CPP -->
<g id="edge32" class="edge">
<title>PKG_CPP&#45;&gt;EX_CPP</title>
<path fill="none" stroke="black" d="M837,-256.65C837,-239.56 837,-213.22 837,-193.32"/>
<polygon fill="black" stroke="black" points="840.5,-193.31 837,-183.31 833.5,-193.31 840.5,-193.31"/>
</g>
<!-- OR_WPY&#45;&gt;OR_PY -->
<g id="edge35" class="edge">
<title>OR_WPY&#45;&gt;OR_PY</title>
<path fill="none" stroke="black" d="M1022.89,-344.6C1028.37,-332.51 1035.78,-316.18 1041.99,-302.49"/>
<polygon fill="black" stroke="black" points="1045.31,-303.64 1046.25,-293.08 1038.93,-300.75 1045.31,-303.64"/>
</g>
<!-- PKG_PY -->
<g id="node27" class="node">
<title>PKG_PY</title>
<polygon fill="gold" stroke="gold" points="1116,-183 996,-183 992,-179 992,-147 1112,-147 1116,-151 1116,-183"/>
<polyline fill="none" stroke="gold" points="1112,-179 992,-179 "/>
<polyline fill="none" stroke="gold" points="1112,-179 1112,-147 "/>
<polyline fill="none" stroke="gold" points="1112,-179 1116,-183 "/>
<text text-anchor="middle" x="1054" y="-161.3" font-family="Times,serif" font-size="14.00">Wheel package</text>
</g>
<!-- OR_PY&#45;&gt;PKG_PY -->
<g id="edge36" class="edge">
<title>OR_PY&#45;&gt;PKG_PY</title>
<path fill="none" stroke="gold" d="M1054,-256.65C1054,-239.56 1054,-213.22 1054,-193.32"/>
<polygon fill="gold" stroke="gold" points="1057.5,-193.31 1054,-183.31 1050.5,-193.31 1057.5,-193.31"/>
</g>
<!-- EX_PY -->
<g id="node28" class="node">
<title>EX_PY</title>
<path fill="gold" stroke="gold" d="M1107,-68C1107,-68 1001,-68 1001,-68 995,-68 989,-62 989,-56 989,-56 989,-44 989,-44 989,-38 995,-32 1001,-32 1001,-32 1107,-32 1107,-32 1113,-32 1119,-38 1119,-44 1119,-44 1119,-56 1119,-56 1119,-62 1113,-68 1107,-68"/>
<text text-anchor="middle" x="1054" y="-46.3" font-family="Times,serif" font-size="14.00">Python samples</text>
</g>
<!-- PKG_PY&#45;&gt;EX_PY -->
<g id="edge37" class="edge">
<title>PKG_PY&#45;&gt;EX_PY</title>
<path fill="none" stroke="black" d="M1054,-146.84C1054,-128.67 1054,-99.72 1054,-78.39"/>
<polygon fill="black" stroke="black" points="1057.5,-78.32 1054,-68.32 1050.5,-78.32 1057.5,-78.32"/>
</g>
<!-- OR_WJAVA&#45;&gt;OR_JAVA -->
<g id="edge40" class="edge">
<title>OR_WJAVA&#45;&gt;OR_JAVA</title>
<path fill="none" stroke="black" d="M1281.52,-344.6C1288.97,-332.28 1299.09,-315.55 1307.46,-301.7"/>
<polygon fill="black" stroke="black" points="1310.49,-303.45 1312.67,-293.08 1304.5,-299.83 1310.49,-303.45"/>
</g>
<!-- PKG_JAVA -->
<g id="node31" class="node">
<title>PKG_JAVA</title>
<polygon fill="crimson" stroke="crimson" points="1387,-183 1263,-183 1259,-179 1259,-147 1383,-147 1387,-151 1387,-183"/>
<polyline fill="none" stroke="crimson" points="1383,-179 1259,-179 "/>
<polyline fill="none" stroke="crimson" points="1383,-179 1383,-147 "/>
<polyline fill="none" stroke="crimson" points="1383,-179 1387,-183 "/>
<text text-anchor="middle" x="1323" y="-161.3" font-family="Times,serif" font-size="14.00">Maven package</text>
</g>
<!-- OR_JAVA&#45;&gt;PKG_JAVA -->
<g id="edge41" class="edge">
<title>OR_JAVA&#45;&gt;PKG_JAVA</title>
<path fill="none" stroke="crimson" d="M1323,-256.65C1323,-239.56 1323,-213.22 1323,-193.32"/>
<polygon fill="crimson" stroke="crimson" points="1326.5,-193.31 1323,-183.31 1319.5,-193.31 1326.5,-193.31"/>
</g>
<!-- EX_JAVA -->
<g id="node32" class="node">
<title>EX_JAVA</title>
<path fill="crimson" stroke="crimson" d="M1366,-68C1366,-68 1280,-68 1280,-68 1274,-68 1268,-62 1268,-56 1268,-56 1268,-44 1268,-44 1268,-38 1274,-32 1280,-32 1280,-32 1366,-32 1366,-32 1372,-32 1378,-38 1378,-44 1378,-44 1378,-56 1378,-56 1378,-62 1372,-68 1366,-68"/>
<text text-anchor="middle" x="1323" y="-46.3" font-family="Times,serif" font-size="14.00">Java samples</text>
</g>
<!-- PKG_JAVA&#45;&gt;EX_JAVA -->
<g id="edge42" class="edge">
<title>PKG_JAVA&#45;&gt;EX_JAVA</title>
<path fill="none" stroke="black" d="M1323,-146.84C1323,-128.67 1323,-99.72 1323,-78.39"/>
<polygon fill="black" stroke="black" points="1326.5,-78.32 1323,-68.32 1319.5,-78.32 1326.5,-78.32"/>
</g>
<!-- OR_WNET&#45;&gt;OR_NET -->
<g id="edge45" class="edge">
<title>OR_WNET&#45;&gt;OR_NET</title>
<path fill="none" stroke="black" d="M1508.91,-344.6C1503.28,-332.51 1495.69,-316.18 1489.32,-302.49"/>
<polygon fill="black" stroke="black" points="1492.34,-300.68 1484.95,-293.08 1485.99,-303.63 1492.34,-300.68"/>
</g>
<!-- PKG_NET_RT -->
<g id="node35" class="node">
<title>PKG_NET_RT</title>
<polygon fill="forestgreen" stroke="forestgreen" points="1796,-294 1540,-294 1536,-290 1536,-256 1792,-256 1796,-260 1796,-294"/>
<polyline fill="none" stroke="forestgreen" points="1792,-290 1536,-290 "/>
<polyline fill="none" stroke="forestgreen" points="1792,-290 1792,-256 "/>
<polyline fill="none" stroke="forestgreen" points="1792,-290 1796,-294 "/>
<text text-anchor="middle" x="1666" y="-278.8" font-family="Times,serif" font-size="14.00">Nuget runtime package</text>
<text text-anchor="middle" x="1666" y="-263.8" font-family="Times,serif" font-size="14.00">Google.OrTools.runtime.rid.nupkg</text>
</g>
<!-- OR_WNET&#45;&gt;PKG_NET_RT -->
<g id="edge46" class="edge">
<title>OR_WNET&#45;&gt;PKG_NET_RT</title>
<path fill="none" stroke="black" d="M1546.79,-344.8C1569.49,-331.71 1600.96,-313.54 1625.87,-299.17"/>
<polygon fill="black" stroke="black" points="1627.81,-302.09 1634.72,-294.06 1624.31,-296.02 1627.81,-302.09"/>
</g>
<!-- PKG_NET -->
<g id="node36" class="node">
<title>PKG_NET</title>
<polygon fill="forestgreen" stroke="forestgreen" points="1671,-184 1501,-184 1497,-180 1497,-146 1667,-146 1671,-150 1671,-184"/>
<polyline fill="none" stroke="forestgreen" points="1667,-180 1497,-180 "/>
<polyline fill="none" stroke="forestgreen" points="1667,-180 1667,-146 "/>
<polyline fill="none" stroke="forestgreen" points="1667,-180 1671,-184 "/>
<text text-anchor="middle" x="1584" y="-168.8" font-family="Times,serif" font-size="14.00">Nuget package</text>
<text text-anchor="middle" x="1584" y="-153.8" font-family="Times,serif" font-size="14.00">Google.OrTools.nupkg</text>
</g>
<!-- OR_NET&#45;&gt;PKG_NET -->
<g id="edge47" class="edge">
<title>OR_NET&#45;&gt;PKG_NET</title>
<path fill="none" stroke="black" d="M1494.19,-256.65C1511.69,-238.99 1538.99,-211.43 1558.9,-191.33"/>
<polygon fill="black" stroke="black" points="1561.59,-193.6 1566.14,-184.03 1556.61,-188.67 1561.59,-193.6"/>
</g>
<!-- PKG_NET_RT&#45;&gt;PKG_NET -->
<g id="edge48" class="edge">
<title>PKG_NET_RT&#45;&gt;PKG_NET</title>
<path fill="none" stroke="forestgreen" d="M1652.09,-255.68C1638.88,-238.27 1618.86,-211.92 1603.95,-192.28"/>
<polygon fill="forestgreen" stroke="forestgreen" points="1606.54,-189.9 1597.7,-184.05 1600.96,-194.13 1606.54,-189.9"/>
</g>
<!-- EX_NET -->
<g id="node37" class="node">
<title>EX_NET</title>
<path fill="forestgreen" stroke="forestgreen" d="M1627,-68C1627,-68 1541,-68 1541,-68 1535,-68 1529,-62 1529,-56 1529,-56 1529,-44 1529,-44 1529,-38 1535,-32 1541,-32 1541,-32 1627,-32 1627,-32 1633,-32 1639,-38 1639,-44 1639,-44 1639,-56 1639,-56 1639,-62 1633,-68 1627,-68"/>
<text text-anchor="middle" x="1584" y="-46.3" font-family="Times,serif" font-size="14.00">.Net samples</text>
</g>
<!-- PKG_NET&#45;&gt;EX_NET -->
<g id="edge49" class="edge">
<title>PKG_NET&#45;&gt;EX_NET</title>
<path fill="none" stroke="black" d="M1584,-145.84C1584,-127.57 1584,-99.16 1584,-78.19"/>
<polygon fill="black" stroke="black" points="1587.5,-78 1584,-68 1580.5,-78 1587.5,-78"/>
</g>
</g>
</svg>
