<?xml version="1.0" encoding="UTF-8" standalone="no"?>
<!DOCTYPE svg PUBLIC "-//W3C//DTD SVG 1.1//EN"
 "http://www.w3.org/Graphics/SVG/1.1/DTD/svg11.dtd">
<!-- Generated by graphviz version 2.43.0 (0)
 -->
<!-- Title: CMake Pages: 1 -->
<svg width="1522pt" height="1338pt"
 viewBox="0.00 0.00 1522.00 1338.00" xmlns="http://www.w3.org/2000/svg" xmlns:xlink="http://www.w3.org/1999/xlink">
<g id="graph0" class="graph" transform="scale(1 1) rotate(0) translate(4 1334)">
<title>CMake</title>
<polygon fill="white" stroke="transparent" points="-4,4 -4,-1334 1518,-1334 1518,4 -4,4"/>
<g id="clust1" class="cluster">
<title>clusterPrerequisite</title>
<polygon fill="none" stroke="black" points="8,-860 8,-1199 364,-1199 364,-860 8,-860"/>
<text text-anchor="middle" x="186" y="-1183.8" font-family="Times,serif" font-size="14.00">Prerequisite</text>
</g>
<g id="clust2" class="cluster">
<title>clusterOR</title>
<polygon fill="none" stroke="royalblue" points="372,-8 372,-1322 1500,-1322 1500,-8 372,-8"/>
<text text-anchor="middle" x="936" y="-1306.8" font-family="Times,serif" font-size="14.00">OR&#45;Tools (CMake)</text>
</g>
<g id="clust3" class="cluster">
<title>clusterDeps</title>
<polygon fill="none" stroke="grey" points="380,-583 380,-1291 1460,-1291 1460,-583 380,-583"/>
<text text-anchor="middle" x="920" y="-1275.8" font-family="Times,serif" font-size="14.00">Dependencies</text>
<text text-anchor="middle" x="920" y="-1260.8" font-family="Times,serif" font-size="14.00">(&#45;DBUILD_DEPS=ON)</text>
</g>
<g id="clust4" class="cluster">
<title>clusterZLIB</title>
<polygon fill="none" stroke="royalblue" points="922,-1124 922,-1199 1154,-1199 1154,-1124 922,-1124"/>
<text text-anchor="middle" x="1038" y="-1183.8" font-family="Times,serif" font-size="14.00">madler/zlib.git + cmake patch</text>
</g>
<g id="clust5" class="cluster">
<title>clusterAbsl</title>
<polygon fill="none" stroke="royalblue" points="1162,-1124 1162,-1199 1321,-1199 1321,-1124 1162,-1124"/>
<text text-anchor="middle" x="1241.5" y="-1183.8" font-family="Times,serif" font-size="14.00">abseil/abseil&#45;cpp.git</text>
</g>
<g id="clust6" class="cluster">
<title>clusterGLog</title>
<polygon fill="none" stroke="royalblue" points="1329,-1124 1329,-1199 1452,-1199 1452,-1124 1329,-1124"/>
<text text-anchor="middle" x="1390.5" y="-1183.8" font-family="Times,serif" font-size="14.00">google/glog.git</text>
</g>
<g id="clust7" class="cluster">
<title>clusterProtobuf</title>
<polygon fill="none" stroke="royalblue" points="922,-1029 922,-1104 1138,-1104 1138,-1029 922,-1029"/>
<text text-anchor="middle" x="1030" y="-1088.8" font-family="Times,serif" font-size="14.00">protocolbuffers/protobuf.git</text>
</g>
<g id="clust8" class="cluster">
<title>clusterCoinOR</title>
<polygon fill="none" stroke="royalblue" points="488,-591 488,-1245 914,-1245 914,-591 488,-591"/>
<text text-anchor="middle" x="701" y="-1229.8" font-family="Times,serif" font-size="14.00">Coin&#45;OR Solver</text>
<text text-anchor="middle" x="701" y="-1214.8" font-family="Times,serif" font-size="14.00">(&#45;DUSE_COINOR=ON)</text>
</g>
<g id="clust9" class="cluster">
<title>clusterCoinUtils</title>
<polygon fill="none" stroke="royalblue" points="506,-1124 506,-1199 661,-1199 661,-1124 506,-1124"/>
<text text-anchor="middle" x="583.5" y="-1183.8" font-family="Times,serif" font-size="14.00">mizux/CoinUtils.git</text>
</g>
<g id="clust10" class="cluster">
<title>clusterOsi</title>
<polygon fill="none" stroke="royalblue" points="557,-1029 557,-1104 668,-1104 668,-1029 557,-1029"/>
<text text-anchor="middle" x="612.5" y="-1088.8" font-family="Times,serif" font-size="14.00">mizux/Osi.git</text>
</g>
<g id="clust11" class="cluster">
<title>clusterClp</title>
<polygon fill="none" stroke="royalblue" points="588,-860 588,-1009 856,-1009 856,-860 588,-860"/>
<text text-anchor="middle" x="722" y="-993.8" font-family="Times,serif" font-size="14.00">mizux/Clp.git</text>
</g>
<g id="clust12" class="cluster">
<title>clusterCgl</title>
<polygon fill="none" stroke="royalblue" points="526,-766 526,-841 638,-841 638,-766 526,-766"/>
<text text-anchor="middle" x="582" y="-825.8" font-family="Times,serif" font-size="14.00">mizux/Cgl.git</text>
</g>
<g id="clust13" class="cluster">
<title>clusterCbc</title>
<polygon fill="none" stroke="royalblue" points="503,-599 503,-747 777,-747 777,-599 503,-599"/>
<text text-anchor="middle" x="640" y="-731.8" font-family="Times,serif" font-size="14.00">mizux/Cbc.git</text>
</g>
<g id="clust14" class="cluster">
<title>clusterCXX</title>
<polygon fill="none" stroke="royalblue" points="380,-131 380,-566 596,-566 596,-131 380,-131"/>
<text text-anchor="middle" x="488" y="-550.8" font-family="Times,serif" font-size="14.00">C++</text>
<text text-anchor="middle" x="488" y="-535.8" font-family="Times,serif" font-size="14.00">(&#45;DBUILD_CXX=ON)</text>
</g>
<g id="clust15" class="cluster">
<title>clusterCXXTest</title>
<polygon fill="none" stroke="black" points="388,-139 388,-229 588,-229 588,-139 388,-139"/>
<text text-anchor="middle" x="488" y="-213.8" font-family="Times,serif" font-size="14.00">Examples</text>
<text text-anchor="middle" x="488" y="-198.8" font-family="Times,serif" font-size="14.00">(&#45;DBUILD_TESTING=ON)</text>
</g>
<g id="clust16" class="cluster">
<title>clusterPython</title>
<polygon fill="none" stroke="gold" points="604,-16 604,-441 820,-441 820,-16 604,-16"/>
<text text-anchor="middle" x="712" y="-425.8" font-family="Times,serif" font-size="14.00">Python</text>
<text text-anchor="middle" x="712" y="-410.8" font-family="Times,serif" font-size="14.00">(&#45;DBUILD_PYTHON=ON)</text>
</g>
<g id="clust17" class="cluster">
<title>clusterPythonTest</title>
<polygon fill="none" stroke="black" points="612,-24 612,-114 812,-114 812,-24 612,-24"/>
<text text-anchor="middle" x="712" y="-98.8" font-family="Times,serif" font-size="14.00">Examples</text>
<text text-anchor="middle" x="712" y="-83.8" font-family="Times,serif" font-size="14.00">(&#45;DBUILD_TESTING=ON)</text>
</g>
<g id="clust18" class="cluster">
<title>clusterJava</title>
<polygon fill="none" stroke="crimson" points="869,-16 869,-441 1085,-441 1085,-16 869,-16"/>
<text text-anchor="middle" x="977" y="-425.8" font-family="Times,serif" font-size="14.00">Java</text>
<text text-anchor="middle" x="977" y="-410.8" font-family="Times,serif" font-size="14.00">(&#45;DBUILD_JAVA=ON)</text>
</g>
<g id="clust19" class="cluster">
<title>clusterJavaTest</title>
<polygon fill="none" stroke="black" points="877,-24 877,-114 1077,-114 1077,-24 877,-24"/>
<text text-anchor="middle" x="977" y="-98.8" font-family="Times,serif" font-size="14.00">Examples</text>
<text text-anchor="middle" x="977" y="-83.8" font-family="Times,serif" font-size="14.00">(&#45;DBUILD_TESTING=ON)</text>
</g>
<g id="clust20" class="cluster">
<title>clusterNet</title>
<polygon fill="none" stroke="darkviolet" points="1114,-16 1114,-441 1492,-441 1492,-16 1114,-16"/>
<text text-anchor="middle" x="1303" y="-425.8" font-family="Times,serif" font-size="14.00">.Net</text>
<text text-anchor="middle" x="1303" y="-410.8" font-family="Times,serif" font-size="14.00">(&#45;DBUILD_DOTNET=ON)</text>
</g>
<g id="clust21" class="cluster">
<title>clusterNetTest</title>
<polygon fill="none" stroke="black" points="1216,-24 1216,-114 1416,-114 1416,-24 1216,-24"/>
<text text-anchor="middle" x="1316" y="-98.8" font-family="Times,serif" font-size="14.00">Examples</text>
<text text-anchor="middle" x="1316" y="-83.8" font-family="Times,serif" font-size="14.00">(&#45;DBUILD_TESTING=ON)</text>
</g>
<!-- CM -->
<g id="node1" class="node">
<title>CM</title>
<polygon fill="royalblue" stroke="black" points="192,-1168 130,-1168 126,-1164 126,-1132 188,-1132 192,-1136 192,-1168"/>
<polyline fill="none" stroke="black" points="188,-1164 126,-1164 "/>
<polyline fill="none" stroke="black" points="188,-1164 188,-1132 "/>
<polyline fill="none" stroke="black" points="188,-1164 192,-1168 "/>
<text text-anchor="middle" x="159" y="-1146.3" font-family="Times,serif" font-size="14.00">CMake</text>
</g>
<!-- SWIG -->
<g id="node2" class="node">
<title>SWIG</title>
<polygon fill="chocolate" stroke="black" points="189.5,-1074 132.5,-1074 128.5,-1070 128.5,-1036 185.5,-1036 189.5,-1040 189.5,-1074"/>
<polyline fill="none" stroke="black" points="185.5,-1070 128.5,-1070 "/>
<polyline fill="none" stroke="black" points="185.5,-1070 185.5,-1036 "/>
<polyline fill="none" stroke="black" points="185.5,-1070 189.5,-1074 "/>
<text text-anchor="middle" x="159" y="-1058.8" font-family="Times,serif" font-size="14.00">Swig</text>
<text text-anchor="middle" x="159" y="-1043.8" font-family="Times,serif" font-size="14.00">(Unix)</text>
</g>
<!-- CM&#45;&gt;SWIG -->
<g id="edge1" class="edge">
<title>CM&#45;&gt;SWIG</title>
</g>
<!-- PY -->
<g id="node3" class="node">
<title>PY</title>
<polygon fill="gold" stroke="black" points="83.5,-979 20.5,-979 16.5,-975 16.5,-941 79.5,-941 83.5,-945 83.5,-979"/>
<polyline fill="none" stroke="black" points="79.5,-975 16.5,-975 "/>
<polyline fill="none" stroke="black" points="79.5,-975 79.5,-941 "/>
<polyline fill="none" stroke="black" points="79.5,-975 83.5,-979 "/>
<text text-anchor="middle" x="50" y="-963.8" font-family="Times,serif" font-size="14.00">Python</text>
<text text-anchor="middle" x="50" y="-948.8" font-family="Times,serif" font-size="14.00">(3.6+)</text>
</g>
<!-- SWIG&#45;&gt;PY -->
<g id="edge2" class="edge">
<title>SWIG&#45;&gt;PY</title>
</g>
<!-- JV -->
<g id="node4" class="node">
<title>JV</title>
<polygon fill="crimson" stroke="black" points="216,-979 106,-979 102,-975 102,-941 212,-941 216,-945 216,-979"/>
<polyline fill="none" stroke="black" points="212,-975 102,-975 "/>
<polyline fill="none" stroke="black" points="212,-975 212,-941 "/>
<polyline fill="none" stroke="black" points="212,-975 216,-979 "/>
<text text-anchor="middle" x="159" y="-963.8" font-family="Times,serif" font-size="14.00">Java</text>
<text text-anchor="middle" x="159" y="-948.8" font-family="Times,serif" font-size="14.00">(openJDK 8+)</text>
</g>
<!-- SWIG&#45;&gt;JV -->
<g id="edge3" class="edge">
<title>SWIG&#45;&gt;JV</title>
</g>
<!-- DN -->
<g id="node5" class="node">
<title>DN</title>
<polygon fill="darkviolet" stroke="black" points="356,-979 238,-979 234,-975 234,-941 352,-941 356,-945 356,-979"/>
<polyline fill="none" stroke="black" points="352,-975 234,-975 "/>
<polyline fill="none" stroke="black" points="352,-975 352,-941 "/>
<polyline fill="none" stroke="black" points="352,-975 356,-979 "/>
<text text-anchor="middle" x="295" y="-963.8" font-family="Times,serif" font-size="14.00">.Net Core SDK</text>
<text text-anchor="middle" x="295" y="-948.8" font-family="Times,serif" font-size="14.00">(3.1)</text>
</g>
<!-- SWIG&#45;&gt;DN -->
<g id="edge4" class="edge">
<title>SWIG&#45;&gt;DN</title>
</g>
<!-- FS -->
<g id="node6" class="node">
<title>FS</title>
<polygon fill="darkviolet" stroke="black" points="332,-904 262,-904 258,-900 258,-868 328,-868 332,-872 332,-904"/>
<polyline fill="none" stroke="black" points="328,-900 258,-900 "/>
<polyline fill="none" stroke="black" points="328,-900 328,-868 "/>
<polyline fill="none" stroke="black" points="328,-900 332,-904 "/>
<text text-anchor="middle" x="295" y="-882.3" font-family="Times,serif" font-size="14.00">.Net F#</text>
</g>
<!-- DN&#45;&gt;FS -->
<g id="edge5" class="edge">
<title>DN&#45;&gt;FS</title>
</g>
<!-- ZLIB -->
<g id="node7" class="node">
<title>ZLIB</title>
<path fill="royalblue" stroke="royalblue" d="M1119.5,-1168C1119.5,-1168 1048.5,-1168 1048.5,-1168 1042.5,-1168 1036.5,-1162 1036.5,-1156 1036.5,-1156 1036.5,-1144 1036.5,-1144 1036.5,-1138 1042.5,-1132 1048.5,-1132 1048.5,-1132 1119.5,-1132 1119.5,-1132 1125.5,-1132 1131.5,-1138 1131.5,-1144 1131.5,-1144 1131.5,-1156 1131.5,-1156 1131.5,-1162 1125.5,-1168 1119.5,-1168"/>
<text text-anchor="middle" x="1084" y="-1146.3" font-family="Times,serif" font-size="14.00">ZLIB::ZLIB</text>
</g>
<!-- Protobuf -->
<g id="node10" class="node">
<title>Protobuf</title>
<path fill="royalblue" stroke="royalblue" d="M1116.5,-1073C1116.5,-1073 973.5,-1073 973.5,-1073 967.5,-1073 961.5,-1067 961.5,-1061 961.5,-1061 961.5,-1049 961.5,-1049 961.5,-1043 967.5,-1037 973.5,-1037 973.5,-1037 1116.5,-1037 1116.5,-1037 1122.5,-1037 1128.5,-1043 1128.5,-1049 1128.5,-1049 1128.5,-1061 1128.5,-1061 1128.5,-1067 1122.5,-1073 1116.5,-1073"/>
<text text-anchor="middle" x="1045" y="-1051.3" font-family="Times,serif" font-size="14.00">protobuf::libprotobuf</text>
</g>
<!-- ZLIB&#45;&gt;Protobuf -->
<g id="edge6" class="edge">
<title>ZLIB&#45;&gt;Protobuf</title>
<path fill="none" stroke="black" d="M1076.85,-1131.94C1071.06,-1118.13 1062.8,-1098.44 1056.14,-1082.57"/>
<polygon fill="black" stroke="black" points="1059.33,-1081.13 1052.24,-1073.26 1052.88,-1083.84 1059.33,-1081.13"/>
</g>
<!-- OR_SRC -->
<g id="node21" class="node">
<title>OR_SRC</title>
<polygon fill="royalblue" stroke="black" points="588,-520 585,-524 564,-524 561,-520 482,-520 482,-482 588,-482 588,-520"/>
<text text-anchor="middle" x="535" y="-504.8" font-family="Times,serif" font-size="14.00">OR&#45;Tools src</text>
<text text-anchor="middle" x="535" y="-489.8" font-family="Times,serif" font-size="14.00">ortools/...</text>
</g>
<!-- ZLIB&#45;&gt;OR_SRC -->
<g id="edge27" class="edge">
<title>ZLIB&#45;&gt;OR_SRC</title>
<path fill="none" stroke="black" d="M1115.16,-1131.86C1125.4,-1124.63 1135.75,-1115.25 1142,-1104 1152.42,-1085.25 1147,-1077.45 1147,-1056 1147,-1056 1147,-1056 1147,-624 1147,-513.06 755.34,-501.54 598.66,-501.38"/>
<polygon fill="black" stroke="black" points="598.24,-497.88 588.24,-501.38 598.24,-504.88 598.24,-497.88"/>
</g>
<!-- Absl -->
<g id="node8" class="node">
<title>Absl</title>
<path fill="royalblue" stroke="royalblue" d="M1256,-1168C1256,-1168 1182,-1168 1182,-1168 1176,-1168 1170,-1162 1170,-1156 1170,-1156 1170,-1144 1170,-1144 1170,-1138 1176,-1132 1182,-1132 1182,-1132 1256,-1132 1256,-1132 1262,-1132 1268,-1138 1268,-1144 1268,-1144 1268,-1156 1268,-1156 1268,-1162 1262,-1168 1256,-1168"/>
<text text-anchor="middle" x="1219" y="-1146.3" font-family="Times,serif" font-size="14.00">absl::absl_*</text>
</g>
<!-- Absl&#45;&gt;Protobuf -->
<g id="edge7" class="edge">
<title>Absl&#45;&gt;Protobuf</title>
<path fill="none" stroke="black" d="M1187.09,-1131.94C1158.72,-1116.78 1117.09,-1094.53 1086.22,-1078.03"/>
<polygon fill="black" stroke="black" points="1087.48,-1074.73 1077.01,-1073.11 1084.18,-1080.91 1087.48,-1074.73"/>
</g>
<!-- Absl&#45;&gt;OR_SRC -->
<g id="edge28" class="edge">
<title>Absl&#45;&gt;OR_SRC</title>
<path fill="none" stroke="black" d="M1211.2,-1131.92C1203.54,-1113.56 1193,-1083.33 1193,-1056 1193,-1056 1193,-1056 1193,-624 1193,-584.31 1157.94,-581.67 1119,-574 931.36,-537.04 705.84,-515.63 598.19,-506.8"/>
<polygon fill="black" stroke="black" points="598.4,-503.3 588.15,-505.98 597.83,-510.28 598.4,-503.3"/>
</g>
<!-- GLog -->
<g id="node9" class="node">
<title>GLog</title>
<path fill="royalblue" stroke="royalblue" d="M1412.5,-1168C1412.5,-1168 1349.5,-1168 1349.5,-1168 1343.5,-1168 1337.5,-1162 1337.5,-1156 1337.5,-1156 1337.5,-1144 1337.5,-1144 1337.5,-1138 1343.5,-1132 1349.5,-1132 1349.5,-1132 1412.5,-1132 1412.5,-1132 1418.5,-1132 1424.5,-1138 1424.5,-1144 1424.5,-1144 1424.5,-1156 1424.5,-1156 1424.5,-1162 1418.5,-1168 1412.5,-1168"/>
<text text-anchor="middle" x="1381" y="-1146.3" font-family="Times,serif" font-size="14.00">glog::glog</text>
</g>
<!-- GLog&#45;&gt;OR_SRC -->
<g id="edge30" class="edge">
<title>GLog&#45;&gt;OR_SRC</title>
<path fill="none" stroke="black" d="M1356.57,-1131.7C1336.03,-1114.94 1310,-1087.49 1310,-1056 1310,-1056 1310,-1056 1310,-624 1310,-552.15 783.46,-515.86 598.39,-505.32"/>
<polygon fill="black" stroke="black" points="598.45,-501.82 588.27,-504.75 598.06,-508.81 598.45,-501.82"/>
</g>
<!-- Protobuf&#45;&gt;OR_SRC -->
<g id="edge29" class="edge">
<title>Protobuf&#45;&gt;OR_SRC</title>
<path fill="none" stroke="black" d="M961.12,-1053.91C867.62,-1051.95 712.63,-1043.15 584,-1009 533.62,-995.63 477,-1013.12 477,-961 477,-961 477,-961 477,-624 477,-588.28 497.53,-551.88 514.16,-528.26"/>
<polygon fill="black" stroke="black" points="517,-530.3 520.06,-520.15 511.34,-526.17 517,-530.3"/>
</g>
<!-- CoinUtils -->
<g id="node11" class="node">
<title>CoinUtils</title>
<path fill="royalblue" stroke="royalblue" d="M633.5,-1168C633.5,-1168 532.5,-1168 532.5,-1168 526.5,-1168 520.5,-1162 520.5,-1156 520.5,-1156 520.5,-1144 520.5,-1144 520.5,-1138 526.5,-1132 532.5,-1132 532.5,-1132 633.5,-1132 633.5,-1132 639.5,-1132 645.5,-1138 645.5,-1144 645.5,-1144 645.5,-1156 645.5,-1156 645.5,-1162 639.5,-1168 633.5,-1168"/>
<text text-anchor="middle" x="583" y="-1146.3" font-family="Times,serif" font-size="14.00">Coin::CoinUtils</text>
</g>
<!-- Osi -->
<g id="node12" class="node">
<title>Osi</title>
<path fill="royalblue" stroke="royalblue" d="M635.5,-1073C635.5,-1073 578.5,-1073 578.5,-1073 572.5,-1073 566.5,-1067 566.5,-1061 566.5,-1061 566.5,-1049 566.5,-1049 566.5,-1043 572.5,-1037 578.5,-1037 578.5,-1037 635.5,-1037 635.5,-1037 641.5,-1037 647.5,-1043 647.5,-1049 647.5,-1049 647.5,-1061 647.5,-1061 647.5,-1067 641.5,-1073 635.5,-1073"/>
<text text-anchor="middle" x="607" y="-1051.3" font-family="Times,serif" font-size="14.00">Coin::Osi</text>
</g>
<!-- CoinUtils&#45;&gt;Osi -->
<g id="edge8" class="edge">
<title>CoinUtils&#45;&gt;Osi</title>
<path fill="none" stroke="black" d="M587.4,-1131.94C590.93,-1118.26 595.95,-1098.81 600.03,-1083.02"/>
<polygon fill="black" stroke="black" points="603.43,-1083.82 602.54,-1073.26 596.66,-1082.07 603.43,-1083.82"/>
</g>
<!-- Clp -->
<g id="node13" class="node">
<title>Clp</title>
<path fill="royalblue" stroke="royalblue" d="M666,-978C666,-978 608,-978 608,-978 602,-978 596,-972 596,-966 596,-966 596,-954 596,-954 596,-948 602,-942 608,-942 608,-942 666,-942 666,-942 672,-942 678,-948 678,-954 678,-954 678,-966 678,-966 678,-972 672,-978 666,-978"/>
<text text-anchor="middle" x="637" y="-956.3" font-family="Times,serif" font-size="14.00">Coin::Clp</text>
</g>
<!-- CoinUtils&#45;&gt;Clp -->
<g id="edge9" class="edge">
<title>CoinUtils&#45;&gt;Clp</title>
<path fill="none" stroke="black" d="M568.09,-1131.86C562.17,-1123.94 556.05,-1114.06 553,-1104 543.34,-1072.1 538.65,-1059.09 553,-1029 561.94,-1010.25 578.86,-995 595.18,-983.73"/>
<polygon fill="black" stroke="black" points="597.17,-986.61 603.62,-978.2 593.33,-980.76 597.17,-986.61"/>
</g>
<!-- OsiClp -->
<g id="node14" class="node">
<title>OsiClp</title>
<path fill="royalblue" stroke="royalblue" d="M835.5,-904C835.5,-904 754.5,-904 754.5,-904 748.5,-904 742.5,-898 742.5,-892 742.5,-892 742.5,-880 742.5,-880 742.5,-874 748.5,-868 754.5,-868 754.5,-868 835.5,-868 835.5,-868 841.5,-868 847.5,-874 847.5,-880 847.5,-880 847.5,-892 847.5,-892 847.5,-898 841.5,-904 835.5,-904"/>
<text text-anchor="middle" x="795" y="-882.3" font-family="Times,serif" font-size="14.00">Coin::OsiClp</text>
</g>
<!-- CoinUtils&#45;&gt;OsiClp -->
<g id="edge11" class="edge">
<title>CoinUtils&#45;&gt;OsiClp</title>
<path fill="none" stroke="black" d="M645.63,-1140.29C714.12,-1127.05 820.69,-1094.71 870,-1018 893.48,-981.47 855.15,-937.35 825.18,-910.77"/>
<polygon fill="black" stroke="black" points="827.26,-907.94 817.4,-904.08 822.7,-913.25 827.26,-907.94"/>
</g>
<!-- Cgl -->
<g id="node16" class="node">
<title>Cgl</title>
<path fill="royalblue" stroke="royalblue" d="M606,-810C606,-810 548,-810 548,-810 542,-810 536,-804 536,-798 536,-798 536,-786 536,-786 536,-780 542,-774 548,-774 548,-774 606,-774 606,-774 612,-774 618,-780 618,-786 618,-786 618,-798 618,-798 618,-804 612,-810 606,-810"/>
<text text-anchor="middle" x="577" y="-788.3" font-family="Times,serif" font-size="14.00">Coin::Cgl</text>
</g>
<!-- CoinUtils&#45;&gt;Cgl -->
<g id="edge15" class="edge">
<title>CoinUtils&#45;&gt;Cgl</title>
<path fill="none" stroke="black" d="M561.02,-1131.98C541.82,-1115.02 517,-1087.08 517,-1056 517,-1056 517,-1056 517,-885 517,-859.04 533.97,-834.67 549.86,-817.54"/>
<polygon fill="black" stroke="black" points="552.54,-819.8 557.02,-810.2 547.53,-814.92 552.54,-819.8"/>
</g>
<!-- Cbc -->
<g id="node17" class="node">
<title>Cbc</title>
<path fill="royalblue" stroke="royalblue" d="M607.5,-716C607.5,-716 546.5,-716 546.5,-716 540.5,-716 534.5,-710 534.5,-704 534.5,-704 534.5,-692 534.5,-692 534.5,-686 540.5,-680 546.5,-680 546.5,-680 607.5,-680 607.5,-680 613.5,-680 619.5,-686 619.5,-692 619.5,-692 619.5,-704 619.5,-704 619.5,-710 613.5,-716 607.5,-716"/>
<text text-anchor="middle" x="577" y="-694.3" font-family="Times,serif" font-size="14.00">Coin::Cbc</text>
</g>
<!-- CoinUtils&#45;&gt;Cbc -->
<g id="edge18" class="edge">
<title>CoinUtils&#45;&gt;Cbc</title>
<path fill="none" stroke="black" d="M546.57,-1131.94C534.49,-1124.77 521.86,-1115.41 513,-1104 499.2,-1086.24 497,-1078.49 497,-1056 497,-1056 497,-1056 497,-791 497,-762.6 518.98,-738.69 539.9,-722.37"/>
<polygon fill="black" stroke="black" points="542.17,-725.05 548.12,-716.28 538,-719.43 542.17,-725.05"/>
</g>
<!-- OsiCbc -->
<g id="node18" class="node">
<title>OsiCbc</title>
<path fill="royalblue" stroke="royalblue" d="M757,-643C757,-643 673,-643 673,-643 667,-643 661,-637 661,-631 661,-631 661,-619 661,-619 661,-613 667,-607 673,-607 673,-607 757,-607 757,-607 763,-607 769,-613 769,-619 769,-619 769,-631 769,-631 769,-637 763,-643 757,-643"/>
<text text-anchor="middle" x="715" y="-621.3" font-family="Times,serif" font-size="14.00">Coin::OsiCbc</text>
</g>
<!-- CoinUtils&#45;&gt;OsiCbc -->
<g id="edge22" class="edge">
<title>CoinUtils&#45;&gt;OsiCbc</title>
<path fill="none" stroke="black" d="M645.85,-1143.69C739.56,-1134.02 905,-1109.39 905,-1056 905,-1056 905,-1056 905,-697 905,-669.53 834.41,-649.17 779.28,-637.46"/>
<polygon fill="black" stroke="black" points="779.69,-633.97 769.19,-635.37 778.28,-640.82 779.69,-633.97"/>
</g>
<!-- Osi&#45;&gt;Clp -->
<g id="edge10" class="edge">
<title>Osi&#45;&gt;Clp</title>
<path fill="none" stroke="black" d="M612.5,-1036.94C616.92,-1023.26 623.19,-1003.81 628.28,-988.02"/>
<polygon fill="black" stroke="black" points="631.69,-988.86 631.43,-978.26 625.03,-986.71 631.69,-988.86"/>
</g>
<!-- Osi&#45;&gt;OsiClp -->
<g id="edge12" class="edge">
<title>Osi&#45;&gt;OsiClp</title>
<path fill="none" stroke="black" d="M643.27,-1036.9C657.58,-1029.33 673.73,-1019.71 687,-1009 722.59,-980.26 756.31,-939.15 776.33,-912.76"/>
<polygon fill="black" stroke="black" points="779.38,-914.52 782.57,-904.42 773.78,-910.32 779.38,-914.52"/>
</g>
<!-- Osi&#45;&gt;Cgl -->
<g id="edge16" class="edge">
<title>Osi&#45;&gt;Cgl</title>
<path fill="none" stroke="black" d="M596.4,-1036.63C591.9,-1028.51 587.01,-1018.54 584,-1009 563.43,-943.8 568.6,-861.98 573.28,-820.24"/>
<polygon fill="black" stroke="black" points="576.79,-820.39 574.51,-810.05 569.84,-819.56 576.79,-820.39"/>
</g>
<!-- Osi&#45;&gt;Cbc -->
<g id="edge19" class="edge">
<title>Osi&#45;&gt;Cbc</title>
<path fill="none" stroke="black" d="M588.13,-1036.66C580.61,-1028.85 572.45,-1019.12 567,-1009 530.34,-940.95 532.09,-917.64 522,-841 517.65,-807.95 510.77,-797.38 522,-766 527.74,-749.96 539.16,-735 550.11,-723.31"/>
<polygon fill="black" stroke="black" points="552.67,-725.71 557.18,-716.12 547.67,-720.8 552.67,-725.71"/>
</g>
<!-- Osi&#45;&gt;OsiCbc -->
<g id="edge23" class="edge">
<title>Osi&#45;&gt;OsiCbc</title>
<path fill="none" stroke="black" d="M647.59,-1047.11C718.64,-1035 858.25,-1011 860,-1009 906.61,-955.79 867,-920.74 867,-850 867,-850 867,-850 867,-697 867,-655.83 820.66,-638.48 779.16,-631.19"/>
<polygon fill="black" stroke="black" points="779.44,-627.7 769.02,-629.59 778.35,-634.61 779.44,-627.7"/>
</g>
<!-- Clp&#45;&gt;OsiClp -->
<g id="edge13" class="edge">
<title>Clp&#45;&gt;OsiClp</title>
<path fill="none" stroke="black" d="M674.44,-941.94C696.6,-931.84 724.85,-918.97 748.43,-908.22"/>
<polygon fill="black" stroke="black" points="749.9,-911.4 757.55,-904.07 747,-905.03 749.9,-911.4"/>
</g>
<!-- ClpSolver -->
<g id="node15" class="node">
<title>ClpSolver</title>
<path fill="royalblue" stroke="royalblue" d="M712,-904C712,-904 608,-904 608,-904 602,-904 596,-898 596,-892 596,-892 596,-880 596,-880 596,-874 602,-868 608,-868 608,-868 712,-868 712,-868 718,-868 724,-874 724,-880 724,-880 724,-892 724,-892 724,-898 718,-904 712,-904"/>
<text text-anchor="middle" x="660" y="-882.3" font-family="Times,serif" font-size="14.00">Coin::ClpSolver</text>
</g>
<!-- Clp&#45;&gt;ClpSolver -->
<g id="edge14" class="edge">
<title>Clp&#45;&gt;ClpSolver</title>
<path fill="none" stroke="black" d="M642.45,-941.94C645.1,-933.63 648.36,-923.44 651.34,-914.11"/>
<polygon fill="black" stroke="black" points="654.72,-915.03 654.43,-904.44 648.05,-912.9 654.72,-915.03"/>
</g>
<!-- Clp&#45;&gt;Cbc -->
<g id="edge20" class="edge">
<title>Clp&#45;&gt;Cbc</title>
<path fill="none" stroke="black" d="M615.17,-941.88C604.49,-932.08 592.72,-918.8 587,-904 579.95,-885.76 575.65,-875.93 587,-860 602.01,-838.94 626.99,-862.06 642,-841 661.34,-813.85 654.52,-796.89 642,-766 635.19,-749.21 621.94,-734.31 609.16,-722.84"/>
<polygon fill="black" stroke="black" points="611.21,-719.99 601.33,-716.17 606.67,-725.32 611.21,-719.99"/>
</g>
<!-- OsiClp&#45;&gt;Cgl -->
<g id="edge17" class="edge">
<title>OsiClp&#45;&gt;Cgl</title>
<path fill="none" stroke="black" d="M754.51,-867.91C718.52,-852.73 665.79,-830.47 627.15,-814.16"/>
<polygon fill="black" stroke="black" points="628.22,-810.82 617.65,-810.15 625.5,-817.27 628.22,-810.82"/>
</g>
<!-- ClpSolver&#45;&gt;OR_SRC -->
<g id="edge31" class="edge">
<title>ClpSolver&#45;&gt;OR_SRC</title>
<path fill="none" stroke="black" d="M710.16,-867.91C786.98,-841.7 925,-794.41 925,-793 925,-793 925,-793 925,-624 925,-556.32 708.37,-521.76 598.02,-508.54"/>
<polygon fill="black" stroke="black" points="598.34,-505.05 588,-507.36 597.53,-512.01 598.34,-505.05"/>
</g>
<!-- Cgl&#45;&gt;Cbc -->
<g id="edge21" class="edge">
<title>Cgl&#45;&gt;Cbc</title>
<path fill="none" stroke="black" d="M577,-773.7C577,-760.46 577,-741.95 577,-726.66"/>
<polygon fill="black" stroke="black" points="580.5,-726.23 577,-716.23 573.5,-726.23 580.5,-726.23"/>
</g>
<!-- Cbc&#45;&gt;OsiCbc -->
<g id="edge24" class="edge">
<title>Cbc&#45;&gt;OsiCbc</title>
<path fill="none" stroke="black" d="M610.05,-679.99C628.86,-670.32 652.61,-658.1 672.76,-647.73"/>
<polygon fill="black" stroke="black" points="674.45,-650.8 681.74,-643.11 671.24,-644.58 674.45,-650.8"/>
</g>
<!-- CbcSolver -->
<g id="node19" class="node">
<title>CbcSolver</title>
<path fill="royalblue" stroke="royalblue" d="M630.5,-643C630.5,-643 523.5,-643 523.5,-643 517.5,-643 511.5,-637 511.5,-631 511.5,-631 511.5,-619 511.5,-619 511.5,-613 517.5,-607 523.5,-607 523.5,-607 630.5,-607 630.5,-607 636.5,-607 642.5,-613 642.5,-619 642.5,-619 642.5,-631 642.5,-631 642.5,-637 636.5,-643 630.5,-643"/>
<text text-anchor="middle" x="577" y="-621.3" font-family="Times,serif" font-size="14.00">Coin::CbcSolver</text>
</g>
<!-- Cbc&#45;&gt;CbcSolver -->
<g id="edge25" class="edge">
<title>Cbc&#45;&gt;CbcSolver</title>
<path fill="none" stroke="black" d="M577,-679.81C577,-671.79 577,-662.05 577,-653.07"/>
<polygon fill="black" stroke="black" points="580.5,-653.03 577,-643.03 573.5,-653.03 580.5,-653.03"/>
</g>
<!-- CbcSolver&#45;&gt;OR_SRC -->
<g id="edge32" class="edge">
<title>CbcSolver&#45;&gt;OR_SRC</title>
<path fill="none" stroke="black" d="M571.07,-606.78C564.19,-586.78 552.73,-553.51 544.58,-529.82"/>
<polygon fill="black" stroke="black" points="547.87,-528.64 541.31,-520.33 541.26,-530.92 547.87,-528.64"/>
</g>
<!-- SWIG_WIN -->
<g id="node20" class="node">
<title>SWIG_WIN</title>
<path fill="royalblue" stroke="chocolate" d="M468,-1169C468,-1169 400,-1169 400,-1169 394,-1169 388,-1163 388,-1157 388,-1157 388,-1143 388,-1143 388,-1137 394,-1131 400,-1131 400,-1131 468,-1131 468,-1131 474,-1131 480,-1137 480,-1143 480,-1143 480,-1157 480,-1157 480,-1163 474,-1169 468,-1169"/>
<text text-anchor="middle" x="434" y="-1153.8" font-family="Times,serif" font-size="14.00">swigwin</text>
<text text-anchor="middle" x="434" y="-1138.8" font-family="Times,serif" font-size="14.00">(Windows)</text>
</g>
<!-- OR_CPP -->
<g id="node22" class="node">
<title>OR_CPP</title>
<path fill="royalblue" stroke="black" d="M574.5,-395C574.5,-395 473.5,-395 473.5,-395 467.5,-395 461.5,-389 461.5,-383 461.5,-383 461.5,-371 461.5,-371 461.5,-365 467.5,-359 473.5,-359 473.5,-359 574.5,-359 574.5,-359 580.5,-359 586.5,-365 586.5,-371 586.5,-371 586.5,-383 586.5,-383 586.5,-389 580.5,-395 574.5,-395"/>
<text text-anchor="middle" x="524" y="-373.3" font-family="Times,serif" font-size="14.00">ortools::ortools</text>
</g>
<!-- OR_SRC&#45;&gt;OR_CPP -->
<g id="edge33" class="edge">
<title>OR_SRC&#45;&gt;OR_CPP</title>
<path fill="none" stroke="black" d="M533.38,-482C531.55,-461.77 528.57,-428.69 526.46,-405.28"/>
<polygon fill="black" stroke="black" points="529.94,-404.93 525.56,-395.29 522.97,-405.56 529.94,-404.93"/>
</g>
<!-- OR_WPY -->
<g id="node25" class="node">
<title>OR_WPY</title>
<polygon fill="gold" stroke="black" points="784,-395 612,-395 612,-359 790,-359 790,-389 784,-395"/>
<polyline fill="none" stroke="black" points="784,-395 784,-389 "/>
<polyline fill="none" stroke="black" points="790,-389 784,-389 "/>
<text text-anchor="middle" x="701" y="-373.3" font-family="Times,serif" font-size="14.00">C++ Python wrappers</text>
</g>
<!-- OR_SRC&#45;&gt;OR_WPY -->
<g id="edge36" class="edge">
<title>OR_SRC&#45;&gt;OR_WPY</title>
<path fill="none" stroke="chocolate" d="M559.49,-482C588.72,-460.52 637.63,-424.57 669.61,-401.07"/>
<polygon fill="chocolate" stroke="chocolate" points="671.76,-403.83 677.75,-395.09 667.62,-398.19 671.76,-403.83"/>
<text text-anchor="middle" x="620" y="-452.8" font-family="Times,serif" font-size="14.00">swig</text>
</g>
<!-- OR_PY -->
<g id="node26" class="node">
<title>OR_PY</title>
<polygon fill="gold" stroke="black" points="745.5,-307 650.5,-307 650.5,-271 751.5,-271 751.5,-301 745.5,-307"/>
<polyline fill="none" stroke="black" points="745.5,-307 745.5,-301 "/>
<polyline fill="none" stroke="black" points="751.5,-301 745.5,-301 "/>
<text text-anchor="middle" x="701" y="-285.3" font-family="Times,serif" font-size="14.00">Python files</text>
</g>
<!-- OR_SRC&#45;&gt;OR_PY -->
<g id="edge37" class="edge">
<title>OR_SRC&#45;&gt;OR_PY</title>
<path fill="none" stroke="chocolate" d="M588.07,-495.82C657.41,-489.13 773.09,-473.34 799,-441 821.79,-412.56 815.79,-391.35 799,-359 788.49,-338.75 769.01,-323.19 750.17,-312.02"/>
<polygon fill="chocolate" stroke="chocolate" points="751.73,-308.88 741.3,-307.04 748.31,-314.99 751.73,-308.88"/>
<text text-anchor="middle" x="830" y="-373.3" font-family="Times,serif" font-size="14.00">swig</text>
</g>
<!-- OR_WJAVA -->
<g id="node29" class="node">
<title>OR_WJAVA</title>
<polygon fill="crimson" stroke="black" points="1030,-395 878,-395 878,-359 1036,-359 1036,-389 1030,-395"/>
<polyline fill="none" stroke="black" points="1030,-395 1030,-389 "/>
<polyline fill="none" stroke="black" points="1036,-389 1030,-389 "/>
<text text-anchor="middle" x="957" y="-373.3" font-family="Times,serif" font-size="14.00">C++ Java wrappers</text>
</g>
<!-- OR_SRC&#45;&gt;OR_WJAVA -->
<g id="edge41" class="edge">
<title>OR_SRC&#45;&gt;OR_WJAVA</title>
<path fill="none" stroke="chocolate" d="M588.07,-496.57C660.91,-491.36 787.76,-480.27 831,-464 868.86,-449.75 906.39,-421.89 930.51,-401.74"/>
<polygon fill="chocolate" stroke="chocolate" points="932.82,-404.37 938.16,-395.23 928.28,-399.04 932.82,-404.37"/>
<text text-anchor="middle" x="878" y="-452.8" font-family="Times,serif" font-size="14.00">swig</text>
</g>
<!-- OR_JAVA -->
<g id="node30" class="node">
<title>OR_JAVA</title>
<polygon fill="crimson" stroke="black" points="1012.5,-307 937.5,-307 937.5,-271 1018.5,-271 1018.5,-301 1012.5,-307"/>
<polyline fill="none" stroke="black" points="1012.5,-307 1012.5,-301 "/>
<polyline fill="none" stroke="black" points="1018.5,-301 1012.5,-301 "/>
<text text-anchor="middle" x="978" y="-285.3" font-family="Times,serif" font-size="14.00">Java files</text>
</g>
<!-- OR_SRC&#45;&gt;OR_JAVA -->
<g id="edge42" class="edge">
<title>OR_SRC&#45;&gt;OR_JAVA</title>
<path fill="none" stroke="chocolate" d="M588.21,-497.86C712.89,-492.29 1015.64,-475.34 1045,-441 1068.68,-413.3 1058.7,-392.77 1045,-359 1037.81,-341.28 1023.65,-325.61 1010.19,-313.69"/>
<polygon fill="chocolate" stroke="chocolate" points="1012.3,-310.9 1002.4,-307.13 1007.79,-316.25 1012.3,-310.9"/>
<text text-anchor="middle" x="1076" y="-373.3" font-family="Times,serif" font-size="14.00">swig</text>
</g>
<!-- OR_WNET -->
<g id="node33" class="node">
<title>OR_WNET</title>
<polygon fill="darkviolet" stroke="black" points="1326,-395 1174,-395 1174,-359 1332,-359 1332,-389 1326,-395"/>
<polyline fill="none" stroke="black" points="1326,-395 1326,-389 "/>
<polyline fill="none" stroke="black" points="1332,-389 1326,-389 "/>
<text text-anchor="middle" x="1253" y="-373.3" font-family="Times,serif" font-size="14.00">C++ .Net wrappers</text>
</g>
<!-- OR_SRC&#45;&gt;OR_WNET -->
<g id="edge46" class="edge">
<title>OR_SRC&#45;&gt;OR_WNET</title>
<path fill="none" stroke="chocolate" d="M588.38,-499.07C706.32,-496.6 985.88,-488.28 1077,-464 1128.73,-450.21 1183.4,-420.86 1217.83,-400.3"/>
<polygon fill="chocolate" stroke="chocolate" points="1219.81,-403.19 1226.55,-395.02 1216.19,-397.2 1219.81,-403.19"/>
<text text-anchor="middle" x="1134" y="-452.8" font-family="Times,serif" font-size="14.00">swig</text>
</g>
<!-- OR_NET -->
<g id="node34" class="node">
<title>OR_NET</title>
<polygon fill="darkviolet" stroke="black" points="1478,-307 1402,-307 1402,-271 1484,-271 1484,-301 1478,-307"/>
<polyline fill="none" stroke="black" points="1478,-307 1478,-301 "/>
<polyline fill="none" stroke="black" points="1484,-301 1478,-301 "/>
<text text-anchor="middle" x="1443" y="-285.3" font-family="Times,serif" font-size="14.00">.Net files</text>
</g>
<!-- OR_SRC&#45;&gt;OR_NET -->
<g id="edge47" class="edge">
<title>OR_SRC&#45;&gt;OR_NET</title>
<path fill="none" stroke="chocolate" d="M588.09,-498.92C757.38,-495.08 1277.04,-480.2 1341,-441 1388.38,-411.96 1418.76,-351.68 1433.17,-316.7"/>
<polygon fill="chocolate" stroke="chocolate" points="1436.53,-317.72 1436.97,-307.14 1430.02,-315.14 1436.53,-317.72"/>
<text text-anchor="middle" x="1428" y="-373.3" font-family="Times,serif" font-size="14.00">swig</text>
</g>
<!-- PKG_CPP -->
<g id="node23" class="node">
<title>PKG_CPP</title>
<polygon fill="royalblue" stroke="black" points="587.5,-307 462.5,-307 458.5,-303 458.5,-271 583.5,-271 587.5,-275 587.5,-307"/>
<polyline fill="none" stroke="black" points="583.5,-303 458.5,-303 "/>
<polyline fill="none" stroke="black" points="583.5,-303 583.5,-271 "/>
<polyline fill="none" stroke="black" points="583.5,-303 587.5,-307 "/>
<text text-anchor="middle" x="523" y="-285.3" font-family="Times,serif" font-size="14.00">CMake Package</text>
</g>
<!-- OR_CPP&#45;&gt;PKG_CPP -->
<g id="edge34" class="edge">
<title>OR_CPP&#45;&gt;PKG_CPP</title>
<path fill="none" stroke="royalblue" d="M523.8,-358.6C523.66,-346.75 523.47,-330.82 523.32,-317.29"/>
<polygon fill="royalblue" stroke="royalblue" points="526.81,-317.04 523.2,-307.08 519.82,-317.12 526.81,-317.04"/>
<text text-anchor="middle" x="545.5" y="-329.8" font-family="Times,serif" font-size="14.00">install</text>
</g>
<!-- EX_CPP -->
<g id="node24" class="node">
<title>EX_CPP</title>
<path fill="royalblue" stroke="black" d="M568,-183C568,-183 478,-183 478,-183 472,-183 466,-177 466,-171 466,-171 466,-159 466,-159 466,-153 472,-147 478,-147 478,-147 568,-147 568,-147 574,-147 580,-153 580,-159 580,-159 580,-171 580,-171 580,-177 574,-183 568,-183"/>
<text text-anchor="middle" x="523" y="-161.3" font-family="Times,serif" font-size="14.00">C++ samples</text>
</g>
<!-- PKG_CPP&#45;&gt;EX_CPP -->
<g id="edge26" class="edge">
<title>PKG_CPP&#45;&gt;EX_CPP</title>
<path fill="none" stroke="black" d="M523,-270.78C523,-250.62 523,-216.96 523,-193.25"/>
<polygon fill="black" stroke="black" points="526.5,-193.13 523,-183.13 519.5,-193.13 526.5,-193.13"/>
</g>
<!-- OR_WPY&#45;&gt;OR_PY -->
<g id="edge38" class="edge">
<title>OR_WPY&#45;&gt;OR_PY</title>
<path fill="none" stroke="black" d="M701,-358.6C701,-346.75 701,-330.82 701,-317.29"/>
<polygon fill="black" stroke="black" points="704.5,-317.08 701,-307.08 697.5,-317.08 704.5,-317.08"/>
</g>
<!-- PKG_PY -->
<g id="node27" class="node">
<title>PKG_PY</title>
<polygon fill="gold" stroke="black" points="758,-183 638,-183 634,-179 634,-147 754,-147 758,-151 758,-183"/>
<polyline fill="none" stroke="black" points="754,-179 634,-179 "/>
<polyline fill="none" stroke="black" points="754,-179 754,-147 "/>
<polyline fill="none" stroke="black" points="754,-179 758,-183 "/>
<text text-anchor="middle" x="696" y="-161.3" font-family="Times,serif" font-size="14.00">Wheel package</text>
</g>
<!-- OR_PY&#45;&gt;PKG_PY -->
<g id="edge39" class="edge">
<title>OR_PY&#45;&gt;PKG_PY</title>
<path fill="none" stroke="gold" d="M700.29,-270.78C699.47,-250.62 698.09,-216.96 697.12,-193.25"/>
<polygon fill="gold" stroke="gold" points="700.61,-192.98 696.7,-183.13 693.61,-193.27 700.61,-192.98"/>
<text text-anchor="middle" x="757" y="-240.8" font-family="Times,serif" font-size="14.00">python setup.py</text>
</g>
<!-- EX_PY -->
<g id="node28" class="node">
<title>EX_PY</title>
<path fill="gold" stroke="black" d="M749,-68C749,-68 643,-68 643,-68 637,-68 631,-62 631,-56 631,-56 631,-44 631,-44 631,-38 637,-32 643,-32 643,-32 749,-32 749,-32 755,-32 761,-38 761,-44 761,-44 761,-56 761,-56 761,-62 755,-68 749,-68"/>
<text text-anchor="middle" x="696" y="-46.3" font-family="Times,serif" font-size="14.00">Python samples</text>
</g>
<!-- PKG_PY&#45;&gt;EX_PY -->
<g id="edge35" class="edge">
<title>PKG_PY&#45;&gt;EX_PY</title>
<path fill="none" stroke="black" d="M696,-146.84C696,-128.67 696,-99.72 696,-78.39"/>
<polygon fill="black" stroke="black" points="699.5,-78.32 696,-68.32 692.5,-78.32 699.5,-78.32"/>
</g>
<!-- OR_WJAVA&#45;&gt;OR_JAVA -->
<g id="edge43" class="edge">
<title>OR_WJAVA&#45;&gt;OR_JAVA</title>
<path fill="none" stroke="black" d="M961.25,-358.6C964.17,-346.63 968.11,-330.5 971.43,-316.89"/>
<polygon fill="black" stroke="black" points="974.86,-317.63 973.83,-307.08 968.06,-315.97 974.86,-317.63"/>
</g>
<!-- PKG_JAVA -->
<g id="node31" class="node">
<title>PKG_JAVA</title>
<polygon fill="crimson" stroke="black" points="1042,-183 918,-183 914,-179 914,-147 1038,-147 1042,-151 1042,-183"/>
<polyline fill="none" stroke="black" points="1038,-179 914,-179 "/>
<polyline fill="none" stroke="black" points="1038,-179 1038,-147 "/>
<polyline fill="none" stroke="black" points="1038,-179 1042,-183 "/>
<text text-anchor="middle" x="978" y="-161.3" font-family="Times,serif" font-size="14.00">Maven package</text>
</g>
<!-- OR_JAVA&#45;&gt;PKG_JAVA -->
<g id="edge44" class="edge">
<title>OR_JAVA&#45;&gt;PKG_JAVA</title>
<path fill="none" stroke="crimson" stroke-dasharray="1,5" d="M978,-270.78C978,-250.62 978,-216.96 978,-193.25"/>
<polygon fill="crimson" stroke="crimson" points="981.5,-193.13 978,-183.13 974.5,-193.13 981.5,-193.13"/>
<text text-anchor="middle" x="1024" y="-240.8" font-family="Times,serif" font-size="14.00">maven (WIP)</text>
</g>
<!-- EX_JAVA -->
<g id="node32" class="node">
<title>EX_JAVA</title>
<path fill="crimson" stroke="black" d="M1021,-68C1021,-68 935,-68 935,-68 929,-68 923,-62 923,-56 923,-56 923,-44 923,-44 923,-38 929,-32 935,-32 935,-32 1021,-32 1021,-32 1027,-32 1033,-38 1033,-44 1033,-44 1033,-56 1033,-56 1033,-62 1027,-68 1021,-68"/>
<text text-anchor="middle" x="978" y="-46.3" font-family="Times,serif" font-size="14.00">Java samples</text>
</g>
<!-- PKG_JAVA&#45;&gt;EX_JAVA -->
<g id="edge40" class="edge">
<title>PKG_JAVA&#45;&gt;EX_JAVA</title>
<path fill="none" stroke="black" d="M978,-146.84C978,-128.67 978,-99.72 978,-78.39"/>
<polygon fill="black" stroke="black" points="981.5,-78.32 978,-68.32 974.5,-78.32 981.5,-78.32"/>
</g>
<!-- OR_WNET&#45;&gt;OR_NET -->
<g id="edge48" class="edge">
<title>OR_WNET&#45;&gt;OR_NET</title>
<path fill="none" stroke="black" d="M1320.25,-358.93C1335.93,-353.98 1352.33,-347.99 1367,-341 1382.89,-333.43 1399.25,-322.87 1412.71,-313.32"/>
<polygon fill="black" stroke="black" points="1415.06,-315.94 1421.09,-307.23 1410.95,-310.27 1415.06,-315.94"/>
</g>
<!-- PKG_NET_RT -->
<g id="node35" class="node">
<title>PKG_NET_RT</title>
<polygon fill="darkviolet" stroke="black" points="1383.5,-308 1126.5,-308 1122.5,-304 1122.5,-270 1379.5,-270 1383.5,-274 1383.5,-308"/>
<polyline fill="none" stroke="black" points="1379.5,-304 1122.5,-304 "/>
<polyline fill="none" stroke="black" points="1379.5,-304 1379.5,-270 "/>
<polyline fill="none" stroke="black" points="1379.5,-304 1383.5,-308 "/>
<text text-anchor="middle" x="1253" y="-292.8" font-family="Times,serif" font-size="14.00">Nuget runtime package</text>
<text text-anchor="middle" x="1253" y="-277.8" font-family="Times,serif" font-size="14.00">Google.OrTools.runtime.rid.nupkg</text>
</g>
<!-- OR_WNET&#45;&gt;PKG_NET_RT -->
<g id="edge49" class="edge">
<title>OR_WNET&#45;&gt;PKG_NET_RT</title>
<path fill="none" stroke="darkviolet" d="M1253,-358.6C1253,-347.06 1253,-331.65 1253,-318.36"/>
<polygon fill="darkviolet" stroke="darkviolet" points="1256.5,-318.27 1253,-308.27 1249.5,-318.27 1256.5,-318.27"/>
<text text-anchor="middle" x="1308" y="-329.8" font-family="Times,serif" font-size="14.00">dotnet package</text>
</g>
<!-- PKG_NET -->
<g id="node36" class="node">
<title>PKG_NET</title>
<polygon fill="darkviolet" stroke="black" points="1400.5,-184 1229.5,-184 1225.5,-180 1225.5,-146 1396.5,-146 1400.5,-150 1400.5,-184"/>
<polyline fill="none" stroke="black" points="1396.5,-180 1225.5,-180 "/>
<polyline fill="none" stroke="black" points="1396.5,-180 1396.5,-146 "/>
<polyline fill="none" stroke="black" points="1396.5,-180 1400.5,-184 "/>
<text text-anchor="middle" x="1313" y="-168.8" font-family="Times,serif" font-size="14.00">Nuget package</text>
<text text-anchor="middle" x="1313" y="-153.8" font-family="Times,serif" font-size="14.00">Google.OrTools.nupkg</text>
</g>
<!-- OR_NET&#45;&gt;PKG_NET -->
<g id="edge51" class="edge">
<title>OR_NET&#45;&gt;PKG_NET</title>
<path fill="none" stroke="darkviolet" d="M1424.65,-270.78C1402.58,-250.06 1365.33,-215.11 1339.99,-191.32"/>
<polygon fill="darkviolet" stroke="darkviolet" points="1342.22,-188.62 1332.53,-184.33 1337.43,-193.72 1342.22,-188.62"/>
<text text-anchor="middle" x="1459" y="-240.8" font-family="Times,serif" font-size="14.00">dotnet package</text>
</g>
<!-- PKG_NET_RT&#45;&gt;PKG_NET -->
<g id="edge50" class="edge">
<title>PKG_NET_RT&#45;&gt;PKG_NET</title>
<path fill="none" stroke="darkviolet" d="M1261.85,-270C1271.82,-249.73 1288.13,-216.56 1299.65,-193.14"/>
<polygon fill="darkviolet" stroke="darkviolet" points="1302.84,-194.59 1304.11,-184.08 1296.56,-191.5 1302.84,-194.59"/>
</g>
<!-- EX_NET -->
<g id="node37" class="node">
<title>EX_NET</title>
<path fill="darkviolet" stroke="black" d="M1356,-68C1356,-68 1270,-68 1270,-68 1264,-68 1258,-62 1258,-56 1258,-56 1258,-44 1258,-44 1258,-38 1264,-32 1270,-32 1270,-32 1356,-32 1356,-32 1362,-32 1368,-38 1368,-44 1368,-44 1368,-56 1368,-56 1368,-62 1362,-68 1356,-68"/>
<text text-anchor="middle" x="1313" y="-46.3" font-family="Times,serif" font-size="14.00">.Net samples</text>
</g>
<!-- PKG_NET&#45;&gt;EX_NET -->
<g id="edge45" class="edge">
<title>PKG_NET&#45;&gt;EX_NET</title>
<path fill="none" stroke="black" d="M1313,-145.84C1313,-127.57 1313,-99.16 1313,-78.19"/>
<polygon fill="black" stroke="black" points="1316.5,-78 1313,-68 1309.5,-78 1316.5,-78"/>
</g>
</g>
</svg>
