<?xml version="1.0" encoding="UTF-8" standalone="no"?>
<!DOCTYPE svg PUBLIC "-//W3C//DTD SVG 1.1//EN"
 "http://www.w3.org/Graphics/SVG/1.1/DTD/svg11.dtd">
<!-- Generated by graphviz version 2.44.1 (0)
 -->
<!-- Title: CMake Pages: 1 -->
<svg width="1520pt" height="1338pt"
 viewBox="0.00 0.00 1520.00 1338.00" xmlns="http://www.w3.org/2000/svg" xmlns:xlink="http://www.w3.org/1999/xlink">
<g id="graph0" class="graph" transform="scale(1 1) rotate(0) translate(4 1334)">
<title>CMake</title>
<polygon fill="white" stroke="transparent" points="-4,4 -4,-1334 1516,-1334 1516,4 -4,4"/>
<g id="clust1" class="cluster">
<title>clusterPrerequisite</title>
<polygon fill="none" stroke="black" points="8,-860 8,-1199 364,-1199 364,-860 8,-860"/>
<text text-anchor="middle" x="186" y="-1183.8" font-family="Times,serif" font-size="14.00">Prerequisite</text>
</g>
<g id="clust2" class="cluster">
<title>clusterOR</title>
<polygon fill="none" stroke="royalblue" points="372,-8 372,-1322 1498,-1322 1498,-8 372,-8"/>
<text text-anchor="middle" x="935" y="-1306.8" font-family="Times,serif" font-size="14.00">OR&#45;Tools (CMake)</text>
</g>
<g id="clust3" class="cluster">
<title>clusterDeps</title>
<polygon fill="none" stroke="grey" points="380,-583 380,-1291 1311,-1291 1311,-583 380,-583"/>
<text text-anchor="middle" x="845.5" y="-1275.8" font-family="Times,serif" font-size="14.00">Dependencies</text>
<text text-anchor="middle" x="845.5" y="-1260.8" font-family="Times,serif" font-size="14.00">(&#45;DBUILD_DEPS=ON)</text>
</g>
<g id="clust4" class="cluster">
<title>clusterZLIB</title>
<polygon fill="none" stroke="royalblue" points="904,-1124 904,-1199 1136,-1199 1136,-1124 904,-1124"/>
<text text-anchor="middle" x="1020" y="-1183.8" font-family="Times,serif" font-size="14.00">madler/zlib.git + cmake patch</text>
</g>
<g id="clust5" class="cluster">
<title>clusterAbsl</title>
<polygon fill="none" stroke="royalblue" points="1144,-1124 1144,-1199 1303,-1199 1303,-1124 1144,-1124"/>
<text text-anchor="middle" x="1223.5" y="-1183.8" font-family="Times,serif" font-size="14.00">abseil/abseil&#45;cpp.git</text>
</g>
<g id="clust6" class="cluster">
<title>clusterProtobuf</title>
<polygon fill="none" stroke="royalblue" points="904,-1029 904,-1104 1119,-1104 1119,-1029 904,-1029"/>
<text text-anchor="middle" x="1011.5" y="-1088.8" font-family="Times,serif" font-size="14.00">protocolbuffers/protobuf.git</text>
</g>
<g id="clust7" class="cluster">
<title>clusterCoinOR</title>
<polygon fill="none" stroke="royalblue" points="488,-591 488,-1245 896,-1245 896,-591 488,-591"/>
<text text-anchor="middle" x="692" y="-1229.8" font-family="Times,serif" font-size="14.00">Coin&#45;OR Solver</text>
<text text-anchor="middle" x="692" y="-1214.8" font-family="Times,serif" font-size="14.00">(&#45;DUSE_COINOR=ON)</text>
</g>
<g id="clust8" class="cluster">
<title>clusterCoinUtils</title>
<polygon fill="none" stroke="royalblue" points="730,-1124 730,-1199 885,-1199 885,-1124 730,-1124"/>
<text text-anchor="middle" x="807.5" y="-1183.8" font-family="Times,serif" font-size="14.00">mizux/CoinUtils.git</text>
</g>
<g id="clust9" class="cluster">
<title>clusterOsi</title>
<polygon fill="none" stroke="royalblue" points="747,-1029 747,-1104 858,-1104 858,-1029 747,-1029"/>
<text text-anchor="middle" x="802.5" y="-1088.8" font-family="Times,serif" font-size="14.00">mizux/Osi.git</text>
</g>
<g id="clust10" class="cluster">
<title>clusterClp</title>
<polygon fill="none" stroke="royalblue" points="528,-860 528,-1009 796,-1009 796,-860 528,-860"/>
<text text-anchor="middle" x="662" y="-993.8" font-family="Times,serif" font-size="14.00">mizux/Clp.git</text>
</g>
<g id="clust11" class="cluster">
<title>clusterCgl</title>
<polygon fill="none" stroke="royalblue" points="726,-766 726,-841 838,-841 838,-766 726,-766"/>
<text text-anchor="middle" x="782" y="-825.8" font-family="Times,serif" font-size="14.00">mizux/Cgl.git</text>
</g>
<g id="clust12" class="cluster">
<title>clusterCbc</title>
<polygon fill="none" stroke="royalblue" points="614,-599 614,-747 888,-747 888,-599 614,-599"/>
<text text-anchor="middle" x="751" y="-731.8" font-family="Times,serif" font-size="14.00">mizux/Cbc.git</text>
</g>
<g id="clust13" class="cluster">
<title>clusterCXX</title>
<polygon fill="none" stroke="royalblue" points="380,-131 380,-566 596,-566 596,-131 380,-131"/>
<text text-anchor="middle" x="488" y="-550.8" font-family="Times,serif" font-size="14.00">C++</text>
<text text-anchor="middle" x="488" y="-535.8" font-family="Times,serif" font-size="14.00">(&#45;DBUILD_CXX=ON)</text>
</g>
<g id="clust14" class="cluster">
<title>clusterCXXTest</title>
<polygon fill="none" stroke="black" points="388,-139 388,-229 588,-229 588,-139 388,-139"/>
<text text-anchor="middle" x="488" y="-213.8" font-family="Times,serif" font-size="14.00">Examples</text>
<text text-anchor="middle" x="488" y="-198.8" font-family="Times,serif" font-size="14.00">(&#45;DBUILD_TESTING=ON)</text>
</g>
<g id="clust15" class="cluster">
<title>clusterPython</title>
<polygon fill="none" stroke="gold" points="604,-16 604,-441 820,-441 820,-16 604,-16"/>
<text text-anchor="middle" x="712" y="-425.8" font-family="Times,serif" font-size="14.00">Python</text>
<text text-anchor="middle" x="712" y="-410.8" font-family="Times,serif" font-size="14.00">(&#45;DBUILD_PYTHON=ON)</text>
</g>
<g id="clust16" class="cluster">
<title>clusterPythonTest</title>
<polygon fill="none" stroke="black" points="612,-24 612,-114 812,-114 812,-24 612,-24"/>
<text text-anchor="middle" x="712" y="-98.8" font-family="Times,serif" font-size="14.00">Examples</text>
<text text-anchor="middle" x="712" y="-83.8" font-family="Times,serif" font-size="14.00">(&#45;DBUILD_TESTING=ON)</text>
</g>
<g id="clust17" class="cluster">
<title>clusterJava</title>
<polygon fill="none" stroke="crimson" points="869,-16 869,-441 1085,-441 1085,-16 869,-16"/>
<text text-anchor="middle" x="977" y="-425.8" font-family="Times,serif" font-size="14.00">Java</text>
<text text-anchor="middle" x="977" y="-410.8" font-family="Times,serif" font-size="14.00">(&#45;DBUILD_JAVA=ON)</text>
</g>
<g id="clust18" class="cluster">
<title>clusterJavaTest</title>
<polygon fill="none" stroke="black" points="877,-24 877,-114 1077,-114 1077,-24 877,-24"/>
<text text-anchor="middle" x="977" y="-98.8" font-family="Times,serif" font-size="14.00">Examples</text>
<text text-anchor="middle" x="977" y="-83.8" font-family="Times,serif" font-size="14.00">(&#45;DBUILD_TESTING=ON)</text>
</g>
<g id="clust19" class="cluster">
<title>clusterNet</title>
<polygon fill="none" stroke="darkviolet" points="1114,-16 1114,-441 1490,-441 1490,-16 1114,-16"/>
<text text-anchor="middle" x="1302" y="-425.8" font-family="Times,serif" font-size="14.00">.Net</text>
<text text-anchor="middle" x="1302" y="-410.8" font-family="Times,serif" font-size="14.00">(&#45;DBUILD_DOTNET=ON)</text>
</g>
<g id="clust20" class="cluster">
<title>clusterNetTest</title>
<polygon fill="none" stroke="black" points="1216,-24 1216,-114 1416,-114 1416,-24 1216,-24"/>
<text text-anchor="middle" x="1316" y="-98.8" font-family="Times,serif" font-size="14.00">Examples</text>
<text text-anchor="middle" x="1316" y="-83.8" font-family="Times,serif" font-size="14.00">(&#45;DBUILD_TESTING=ON)</text>
</g>
<!-- CM -->
<g id="node1" class="node">
<title>CM</title>
<polygon fill="royalblue" stroke="black" points="223,-1168 161,-1168 157,-1164 157,-1132 219,-1132 223,-1136 223,-1168"/>
<polyline fill="none" stroke="black" points="219,-1164 157,-1164 "/>
<polyline fill="none" stroke="black" points="219,-1164 219,-1132 "/>
<polyline fill="none" stroke="black" points="219,-1164 223,-1168 "/>
<text text-anchor="middle" x="190" y="-1146.3" font-family="Times,serif" font-size="14.00">CMake</text>
</g>
<!-- SWIG -->
<g id="node2" class="node">
<title>SWIG</title>
<polygon fill="chocolate" stroke="black" points="220.5,-1074 163.5,-1074 159.5,-1070 159.5,-1036 216.5,-1036 220.5,-1040 220.5,-1074"/>
<polyline fill="none" stroke="black" points="216.5,-1070 159.5,-1070 "/>
<polyline fill="none" stroke="black" points="216.5,-1070 216.5,-1036 "/>
<polyline fill="none" stroke="black" points="216.5,-1070 220.5,-1074 "/>
<text text-anchor="middle" x="190" y="-1058.8" font-family="Times,serif" font-size="14.00">Swig</text>
<text text-anchor="middle" x="190" y="-1043.8" font-family="Times,serif" font-size="14.00">(Unix)</text>
</g>
<!-- CM&#45;&gt;SWIG -->
<g id="edge1" class="edge">
<title>CM&#45;&gt;SWIG</title>
</g>
<!-- PY -->
<g id="node3" class="node">
<title>PY</title>
<polygon fill="gold" stroke="black" points="223.5,-979 160.5,-979 156.5,-975 156.5,-941 219.5,-941 223.5,-945 223.5,-979"/>
<polyline fill="none" stroke="black" points="219.5,-975 156.5,-975 "/>
<polyline fill="none" stroke="black" points="219.5,-975 219.5,-941 "/>
<polyline fill="none" stroke="black" points="219.5,-975 223.5,-979 "/>
<text text-anchor="middle" x="190" y="-963.8" font-family="Times,serif" font-size="14.00">Python</text>
<text text-anchor="middle" x="190" y="-948.8" font-family="Times,serif" font-size="14.00">(3.6+)</text>
</g>
<!-- SWIG&#45;&gt;PY -->
<g id="edge2" class="edge">
<title>SWIG&#45;&gt;PY</title>
</g>
<!-- JV -->
<g id="node4" class="node">
<title>JV</title>
<polygon fill="crimson" stroke="black" points="356,-979 246,-979 242,-975 242,-941 352,-941 356,-945 356,-979"/>
<polyline fill="none" stroke="black" points="352,-975 242,-975 "/>
<polyline fill="none" stroke="black" points="352,-975 352,-941 "/>
<polyline fill="none" stroke="black" points="352,-975 356,-979 "/>
<text text-anchor="middle" x="299" y="-963.8" font-family="Times,serif" font-size="14.00">Java</text>
<text text-anchor="middle" x="299" y="-948.8" font-family="Times,serif" font-size="14.00">(openJDK 8+)</text>
</g>
<!-- SWIG&#45;&gt;JV -->
<g id="edge3" class="edge">
<title>SWIG&#45;&gt;JV</title>
</g>
<!-- DN -->
<g id="node5" class="node">
<title>DN</title>
<polygon fill="darkviolet" stroke="black" points="138,-979 20,-979 16,-975 16,-941 134,-941 138,-945 138,-979"/>
<polyline fill="none" stroke="black" points="134,-975 16,-975 "/>
<polyline fill="none" stroke="black" points="134,-975 134,-941 "/>
<polyline fill="none" stroke="black" points="134,-975 138,-979 "/>
<text text-anchor="middle" x="77" y="-963.8" font-family="Times,serif" font-size="14.00">.Net Core SDK</text>
<text text-anchor="middle" x="77" y="-948.8" font-family="Times,serif" font-size="14.00">(3.1)</text>
</g>
<!-- SWIG&#45;&gt;DN -->
<g id="edge4" class="edge">
<title>SWIG&#45;&gt;DN</title>
</g>
<!-- FS -->
<g id="node6" class="node">
<title>FS</title>
<polygon fill="darkviolet" stroke="black" points="114,-904 44,-904 40,-900 40,-868 110,-868 114,-872 114,-904"/>
<polyline fill="none" stroke="black" points="110,-900 40,-900 "/>
<polyline fill="none" stroke="black" points="110,-900 110,-868 "/>
<polyline fill="none" stroke="black" points="110,-900 114,-904 "/>
<text text-anchor="middle" x="77" y="-882.3" font-family="Times,serif" font-size="14.00">.Net F#</text>
</g>
<!-- DN&#45;&gt;FS -->
<g id="edge5" class="edge">
<title>DN&#45;&gt;FS</title>
</g>
<!-- ZLIB -->
<g id="node7" class="node">
<title>ZLIB</title>
<path fill="royalblue" stroke="royalblue" d="M1102.5,-1168C1102.5,-1168 1031.5,-1168 1031.5,-1168 1025.5,-1168 1019.5,-1162 1019.5,-1156 1019.5,-1156 1019.5,-1144 1019.5,-1144 1019.5,-1138 1025.5,-1132 1031.5,-1132 1031.5,-1132 1102.5,-1132 1102.5,-1132 1108.5,-1132 1114.5,-1138 1114.5,-1144 1114.5,-1144 1114.5,-1156 1114.5,-1156 1114.5,-1162 1108.5,-1168 1102.5,-1168"/>
<text text-anchor="middle" x="1067" y="-1146.3" font-family="Times,serif" font-size="14.00">ZLIB::ZLIB</text>
</g>
<!-- Protobuf -->
<g id="node9" class="node">
<title>Protobuf</title>
<path fill="royalblue" stroke="royalblue" d="M1097.5,-1073C1097.5,-1073 954.5,-1073 954.5,-1073 948.5,-1073 942.5,-1067 942.5,-1061 942.5,-1061 942.5,-1049 942.5,-1049 942.5,-1043 948.5,-1037 954.5,-1037 954.5,-1037 1097.5,-1037 1097.5,-1037 1103.5,-1037 1109.5,-1043 1109.5,-1049 1109.5,-1049 1109.5,-1061 1109.5,-1061 1109.5,-1067 1103.5,-1073 1097.5,-1073"/>
<text text-anchor="middle" x="1026" y="-1051.3" font-family="Times,serif" font-size="14.00">protobuf::libprotobuf</text>
</g>
<!-- ZLIB&#45;&gt;Protobuf -->
<g id="edge6" class="edge">
<title>ZLIB&#45;&gt;Protobuf</title>
<path fill="none" stroke="black" d="M1059.48,-1131.94C1053.39,-1118.13 1044.71,-1098.44 1037.71,-1082.57"/>
<polygon fill="black" stroke="black" points="1040.85,-1081 1033.61,-1073.26 1034.44,-1083.83 1040.85,-1081"/>
</g>
<!-- OR_SRC -->
<g id="node20" class="node">
<title>OR_SRC</title>
<polygon fill="royalblue" stroke="black" points="588,-520 585,-524 564,-524 561,-520 482,-520 482,-482 588,-482 588,-520"/>
<text text-anchor="middle" x="535" y="-504.8" font-family="Times,serif" font-size="14.00">OR&#45;Tools src</text>
<text text-anchor="middle" x="535" y="-489.8" font-family="Times,serif" font-size="14.00">ortools/...</text>
</g>
<!-- ZLIB&#45;&gt;OR_SRC -->
<g id="edge27" class="edge">
<title>ZLIB&#45;&gt;OR_SRC</title>
<path fill="none" stroke="black" d="M1096.81,-1131.87C1106.79,-1124.58 1116.91,-1115.17 1123,-1104 1133.26,-1085.16 1128,-1077.45 1128,-1056 1128,-1056 1128,-1056 1128,-624 1128,-516.76 751.21,-502.97 598.32,-501.78"/>
<polygon fill="black" stroke="black" points="598.17,-498.28 588.15,-501.72 598.12,-505.28 598.17,-498.28"/>
</g>
<!-- Absl -->
<g id="node8" class="node">
<title>Absl</title>
<path fill="royalblue" stroke="royalblue" d="M1238,-1168C1238,-1168 1164,-1168 1164,-1168 1158,-1168 1152,-1162 1152,-1156 1152,-1156 1152,-1144 1152,-1144 1152,-1138 1158,-1132 1164,-1132 1164,-1132 1238,-1132 1238,-1132 1244,-1132 1250,-1138 1250,-1144 1250,-1144 1250,-1156 1250,-1156 1250,-1162 1244,-1168 1238,-1168"/>
<text text-anchor="middle" x="1201" y="-1146.3" font-family="Times,serif" font-size="14.00">absl::absl_*</text>
</g>
<!-- Absl&#45;&gt;Protobuf -->
<g id="edge7" class="edge">
<title>Absl&#45;&gt;Protobuf</title>
<path fill="none" stroke="black" d="M1168.9,-1131.94C1140.25,-1116.72 1098.14,-1094.34 1067.05,-1077.82"/>
<polygon fill="black" stroke="black" points="1068.66,-1074.71 1058.19,-1073.11 1065.38,-1080.89 1068.66,-1074.71"/>
</g>
<!-- Absl&#45;&gt;OR_SRC -->
<g id="edge28" class="edge">
<title>Absl&#45;&gt;OR_SRC</title>
<path fill="none" stroke="black" d="M1192.9,-1131.95C1184.95,-1113.61 1174,-1083.4 1174,-1056 1174,-1056 1174,-1056 1174,-624 1174,-583.94 1138.32,-581.68 1099,-574 918.98,-538.84 703.16,-516.79 598.34,-507.34"/>
<polygon fill="black" stroke="black" points="598.52,-503.84 588.25,-506.44 597.9,-510.81 598.52,-503.84"/>
</g>
<!-- Protobuf&#45;&gt;OR_SRC -->
<g id="edge29" class="edge">
<title>Protobuf&#45;&gt;OR_SRC</title>
<path fill="none" stroke="black" d="M1006.35,-1036.9C988.86,-1019.67 966,-991.36 966,-961 966,-961 966,-961 966,-624 966,-548.53 718.25,-517.37 598.42,-506.71"/>
<polygon fill="black" stroke="black" points="598.55,-503.21 588.28,-505.83 597.94,-510.18 598.55,-503.21"/>
</g>
<!-- CoinUtils -->
<g id="node10" class="node">
<title>CoinUtils</title>
<path fill="royalblue" stroke="royalblue" d="M854.5,-1168C854.5,-1168 753.5,-1168 753.5,-1168 747.5,-1168 741.5,-1162 741.5,-1156 741.5,-1156 741.5,-1144 741.5,-1144 741.5,-1138 747.5,-1132 753.5,-1132 753.5,-1132 854.5,-1132 854.5,-1132 860.5,-1132 866.5,-1138 866.5,-1144 866.5,-1144 866.5,-1156 866.5,-1156 866.5,-1162 860.5,-1168 854.5,-1168"/>
<text text-anchor="middle" x="804" y="-1146.3" font-family="Times,serif" font-size="14.00">Coin::CoinUtils</text>
</g>
<!-- Osi -->
<g id="node11" class="node">
<title>Osi</title>
<path fill="royalblue" stroke="royalblue" d="M834.5,-1073C834.5,-1073 777.5,-1073 777.5,-1073 771.5,-1073 765.5,-1067 765.5,-1061 765.5,-1061 765.5,-1049 765.5,-1049 765.5,-1043 771.5,-1037 777.5,-1037 777.5,-1037 834.5,-1037 834.5,-1037 840.5,-1037 846.5,-1043 846.5,-1049 846.5,-1049 846.5,-1061 846.5,-1061 846.5,-1067 840.5,-1073 834.5,-1073"/>
<text text-anchor="middle" x="806" y="-1051.3" font-family="Times,serif" font-size="14.00">Coin::Osi</text>
</g>
<!-- CoinUtils&#45;&gt;Osi -->
<g id="edge8" class="edge">
<title>CoinUtils&#45;&gt;Osi</title>
<path fill="none" stroke="black" d="M804.37,-1131.94C804.66,-1118.39 805.07,-1099.18 805.41,-1083.47"/>
<polygon fill="black" stroke="black" points="808.91,-1083.34 805.63,-1073.26 801.91,-1083.19 808.91,-1083.34"/>
</g>
<!-- Clp -->
<g id="node12" class="node">
<title>Clp</title>
<path fill="royalblue" stroke="royalblue" d="M707,-978C707,-978 649,-978 649,-978 643,-978 637,-972 637,-966 637,-966 637,-954 637,-954 637,-948 643,-942 649,-942 649,-942 707,-942 707,-942 713,-942 719,-948 719,-954 719,-954 719,-966 719,-966 719,-972 713,-978 707,-978"/>
<text text-anchor="middle" x="678" y="-956.3" font-family="Times,serif" font-size="14.00">Coin::Clp</text>
</g>
<!-- CoinUtils&#45;&gt;Clp -->
<g id="edge9" class="edge">
<title>CoinUtils&#45;&gt;Clp</title>
<path fill="none" stroke="black" d="M757.64,-1131.9C748.57,-1126.9 739.78,-1120.66 733,-1113 701.26,-1077.12 687.39,-1021.51 681.68,-988.43"/>
<polygon fill="black" stroke="black" points="685.07,-987.46 680.04,-978.14 678.15,-988.56 685.07,-987.46"/>
</g>
<!-- OsiClp -->
<g id="node13" class="node">
<title>OsiClp</title>
<path fill="royalblue" stroke="royalblue" d="M775.5,-904C775.5,-904 694.5,-904 694.5,-904 688.5,-904 682.5,-898 682.5,-892 682.5,-892 682.5,-880 682.5,-880 682.5,-874 688.5,-868 694.5,-868 694.5,-868 775.5,-868 775.5,-868 781.5,-868 787.5,-874 787.5,-880 787.5,-880 787.5,-892 787.5,-892 787.5,-898 781.5,-904 775.5,-904"/>
<text text-anchor="middle" x="735" y="-882.3" font-family="Times,serif" font-size="14.00">Coin::OsiClp</text>
</g>
<!-- CoinUtils&#45;&gt;OsiClp -->
<g id="edge11" class="edge">
<title>CoinUtils&#45;&gt;OsiClp</title>
<path fill="none" stroke="black" d="M770.18,-1131.98C759.59,-1124.86 749.09,-1115.52 743,-1104 726.02,-1071.86 730.08,-965 733.12,-914.23"/>
<polygon fill="black" stroke="black" points="736.63,-914.22 733.76,-904.02 729.64,-913.78 736.63,-914.22"/>
</g>
<!-- Cgl -->
<g id="node15" class="node">
<title>Cgl</title>
<path fill="royalblue" stroke="royalblue" d="M811,-810C811,-810 753,-810 753,-810 747,-810 741,-804 741,-798 741,-798 741,-786 741,-786 741,-780 747,-774 753,-774 753,-774 811,-774 811,-774 817,-774 823,-780 823,-786 823,-786 823,-798 823,-798 823,-804 817,-810 811,-810"/>
<text text-anchor="middle" x="782" y="-788.3" font-family="Times,serif" font-size="14.00">Coin::Cgl</text>
</g>
<!-- CoinUtils&#45;&gt;Cgl -->
<g id="edge15" class="edge">
<title>CoinUtils&#45;&gt;Cgl</title>
<path fill="none" stroke="black" d="M835.16,-1131.86C845.4,-1124.63 855.75,-1115.25 862,-1104 872.42,-1085.25 867,-1077.45 867,-1056 867,-1056 867,-1056 867,-885 867,-855.88 843.75,-832.06 821.57,-815.95"/>
<polygon fill="black" stroke="black" points="823.39,-812.96 813.17,-810.16 819.42,-818.72 823.39,-812.96"/>
</g>
<!-- Cbc -->
<g id="node16" class="node">
<title>Cbc</title>
<path fill="royalblue" stroke="royalblue" d="M740.5,-716C740.5,-716 679.5,-716 679.5,-716 673.5,-716 667.5,-710 667.5,-704 667.5,-704 667.5,-692 667.5,-692 667.5,-686 673.5,-680 679.5,-680 679.5,-680 740.5,-680 740.5,-680 746.5,-680 752.5,-686 752.5,-692 752.5,-692 752.5,-704 752.5,-704 752.5,-710 746.5,-716 740.5,-716"/>
<text text-anchor="middle" x="710" y="-694.3" font-family="Times,serif" font-size="14.00">Coin::Cbc</text>
</g>
<!-- CoinUtils&#45;&gt;Cbc -->
<g id="edge18" class="edge">
<title>CoinUtils&#45;&gt;Cbc</title>
<path fill="none" stroke="black" d="M760.52,-1131.92C753.05,-1129.16 745.33,-1126.42 738,-1124 632.31,-1089.14 497,-1167.29 497,-1056 497,-1056 497,-1056 497,-791 497,-721.36 594.13,-703.82 657.21,-699.77"/>
<polygon fill="black" stroke="black" points="657.61,-703.26 667.41,-699.22 657.23,-696.27 657.61,-703.26"/>
</g>
<!-- OsiCbc -->
<g id="node17" class="node">
<title>OsiCbc</title>
<path fill="royalblue" stroke="royalblue" d="M868,-643C868,-643 784,-643 784,-643 778,-643 772,-637 772,-631 772,-631 772,-619 772,-619 772,-613 778,-607 784,-607 784,-607 868,-607 868,-607 874,-607 880,-613 880,-619 880,-619 880,-631 880,-631 880,-637 874,-643 868,-643"/>
<text text-anchor="middle" x="826" y="-621.3" font-family="Times,serif" font-size="14.00">Coin::OsiCbc</text>
</g>
<!-- CoinUtils&#45;&gt;OsiCbc -->
<g id="edge22" class="edge">
<title>CoinUtils&#45;&gt;OsiCbc</title>
<path fill="none" stroke="black" d="M833.85,-1131.88C842.86,-1126.26 852.59,-1119.72 861,-1113 882.75,-1095.61 887,-1083.84 887,-1056 887,-1056 887,-1056 887,-697 887,-678.25 874.61,-661.98 861,-649.77"/>
<polygon fill="black" stroke="black" points="862.86,-646.76 852.93,-643.05 858.38,-652.14 862.86,-646.76"/>
</g>
<!-- Osi&#45;&gt;Clp -->
<g id="edge10" class="edge">
<title>Osi&#45;&gt;Clp</title>
<path fill="none" stroke="black" d="M782.52,-1036.94C762.17,-1022.16 732.53,-1000.62 710.01,-984.26"/>
<polygon fill="black" stroke="black" points="711.91,-981.31 701.76,-978.26 707.79,-986.97 711.91,-981.31"/>
</g>
<!-- Osi&#45;&gt;OsiClp -->
<g id="edge12" class="edge">
<title>Osi&#45;&gt;OsiClp</title>
<path fill="none" stroke="black" d="M798.67,-1036.76C786.29,-1007.63 761.14,-948.49 746.43,-913.88"/>
<polygon fill="black" stroke="black" points="749.53,-912.23 742.4,-904.4 743.09,-914.97 749.53,-912.23"/>
</g>
<!-- Osi&#45;&gt;Cgl -->
<g id="edge16" class="edge">
<title>Osi&#45;&gt;Cgl</title>
<path fill="none" stroke="black" d="M809.24,-1036.89C815.12,-1002.78 825.69,-924.09 812,-860 809,-845.94 802.81,-831.25 796.83,-819.23"/>
<polygon fill="black" stroke="black" points="799.87,-817.48 792.15,-810.22 793.66,-820.71 799.87,-817.48"/>
</g>
<!-- Osi&#45;&gt;Cbc -->
<g id="edge19" class="edge">
<title>Osi&#45;&gt;Cbc</title>
<path fill="none" stroke="black" d="M806.63,-1036.89C808.13,-992.03 810.98,-873.54 800,-860 777.53,-832.29 745.21,-868.1 722,-841 694.82,-809.26 698.28,-757.59 703.78,-726.1"/>
<polygon fill="black" stroke="black" points="707.23,-726.74 705.69,-716.26 700.35,-725.41 707.23,-726.74"/>
</g>
<!-- Osi&#45;&gt;OsiCbc -->
<g id="edge23" class="edge">
<title>Osi&#45;&gt;OsiCbc</title>
<path fill="none" stroke="black" d="M818.75,-1036.82C830.78,-1018.87 847,-989.41 847,-961 847,-961 847,-961 847,-697 847,-681.84 842.54,-665.58 837.74,-652.45"/>
<polygon fill="black" stroke="black" points="840.97,-651.12 834.06,-643.09 834.46,-653.68 840.97,-651.12"/>
</g>
<!-- Clp&#45;&gt;OsiClp -->
<g id="edge13" class="edge">
<title>Clp&#45;&gt;OsiClp</title>
<path fill="none" stroke="black" d="M691.51,-941.94C698.5,-933.1 707.18,-922.14 714.95,-912.33"/>
<polygon fill="black" stroke="black" points="717.73,-914.45 721.19,-904.44 712.24,-910.11 717.73,-914.45"/>
</g>
<!-- ClpSolver -->
<g id="node14" class="node">
<title>ClpSolver</title>
<path fill="royalblue" stroke="royalblue" d="M652,-904C652,-904 548,-904 548,-904 542,-904 536,-898 536,-892 536,-892 536,-880 536,-880 536,-874 542,-868 548,-868 548,-868 652,-868 652,-868 658,-868 664,-874 664,-880 664,-880 664,-892 664,-892 664,-898 658,-904 652,-904"/>
<text text-anchor="middle" x="600" y="-882.3" font-family="Times,serif" font-size="14.00">Coin::ClpSolver</text>
</g>
<!-- Clp&#45;&gt;ClpSolver -->
<g id="edge14" class="edge">
<title>Clp&#45;&gt;ClpSolver</title>
<path fill="none" stroke="black" d="M659.52,-941.94C649.58,-932.77 637.17,-921.31 626.25,-911.23"/>
<polygon fill="black" stroke="black" points="628.34,-908.4 618.62,-904.19 623.6,-913.54 628.34,-908.4"/>
</g>
<!-- Clp&#45;&gt;Cbc -->
<g id="edge20" class="edge">
<title>Clp&#45;&gt;Cbc</title>
<path fill="none" stroke="black" d="M636.92,-956.53C601.28,-951.95 551.64,-939.2 527,-904 515.79,-887.98 518.94,-877.82 527,-860 555.87,-796.15 623.96,-747.54 668.45,-721.17"/>
<polygon fill="black" stroke="black" points="670.4,-724.08 677.29,-716.04 666.88,-718.03 670.4,-724.08"/>
</g>
<!-- OsiClp&#45;&gt;Cgl -->
<g id="edge17" class="edge">
<title>OsiClp&#45;&gt;Cgl</title>
<path fill="none" stroke="black" d="M743.84,-867.7C750.8,-854.07 760.61,-834.86 768.55,-819.34"/>
<polygon fill="black" stroke="black" points="771.77,-820.72 773.2,-810.23 765.53,-817.54 771.77,-820.72"/>
</g>
<!-- ClpSolver&#45;&gt;OR_SRC -->
<g id="edge30" class="edge">
<title>ClpSolver&#45;&gt;OR_SRC</title>
<path fill="none" stroke="black" d="M546.05,-867.99C513,-853.83 477,-829.93 477,-793 477,-793 477,-793 477,-624 477,-588.28 497.53,-551.88 514.16,-528.26"/>
<polygon fill="black" stroke="black" points="517,-530.3 520.06,-520.15 511.34,-526.17 517,-530.3"/>
</g>
<!-- Cgl&#45;&gt;Cbc -->
<g id="edge21" class="edge">
<title>Cgl&#45;&gt;Cbc</title>
<path fill="none" stroke="black" d="M768.46,-773.7C757.6,-759.82 742.19,-740.14 729.93,-724.46"/>
<polygon fill="black" stroke="black" points="732.4,-721.94 723.48,-716.23 726.89,-726.26 732.4,-721.94"/>
</g>
<!-- Cbc&#45;&gt;OsiCbc -->
<g id="edge24" class="edge">
<title>Cbc&#45;&gt;OsiCbc</title>
<path fill="none" stroke="black" d="M737.78,-679.99C753.17,-670.58 772.48,-658.76 789.12,-648.57"/>
<polygon fill="black" stroke="black" points="791.34,-651.32 798.04,-643.11 787.68,-645.35 791.34,-651.32"/>
</g>
<!-- CbcSolver -->
<g id="node18" class="node">
<title>CbcSolver</title>
<path fill="royalblue" stroke="royalblue" d="M741.5,-643C741.5,-643 634.5,-643 634.5,-643 628.5,-643 622.5,-637 622.5,-631 622.5,-631 622.5,-619 622.5,-619 622.5,-613 628.5,-607 634.5,-607 634.5,-607 741.5,-607 741.5,-607 747.5,-607 753.5,-613 753.5,-619 753.5,-619 753.5,-631 753.5,-631 753.5,-637 747.5,-643 741.5,-643"/>
<text text-anchor="middle" x="688" y="-621.3" font-family="Times,serif" font-size="14.00">Coin::CbcSolver</text>
</g>
<!-- Cbc&#45;&gt;CbcSolver -->
<g id="edge25" class="edge">
<title>Cbc&#45;&gt;CbcSolver</title>
<path fill="none" stroke="black" d="M704.67,-679.81C702.16,-671.7 699.1,-661.84 696.3,-652.78"/>
<polygon fill="black" stroke="black" points="699.58,-651.54 693.28,-643.03 692.89,-653.62 699.58,-651.54"/>
</g>
<!-- CbcSolver&#45;&gt;OR_SRC -->
<g id="edge31" class="edge">
<title>CbcSolver&#45;&gt;OR_SRC</title>
<path fill="none" stroke="black" d="M666.4,-606.78C640.13,-585.83 595.58,-550.31 565.73,-526.51"/>
<polygon fill="black" stroke="black" points="567.73,-523.63 557.73,-520.13 563.37,-529.1 567.73,-523.63"/>
</g>
<!-- SWIG_WIN -->
<g id="node19" class="node">
<title>SWIG_WIN</title>
<path fill="royalblue" stroke="chocolate" d="M468,-1169C468,-1169 400,-1169 400,-1169 394,-1169 388,-1163 388,-1157 388,-1157 388,-1143 388,-1143 388,-1137 394,-1131 400,-1131 400,-1131 468,-1131 468,-1131 474,-1131 480,-1137 480,-1143 480,-1143 480,-1157 480,-1157 480,-1163 474,-1169 468,-1169"/>
<text text-anchor="middle" x="434" y="-1153.8" font-family="Times,serif" font-size="14.00">swigwin</text>
<text text-anchor="middle" x="434" y="-1138.8" font-family="Times,serif" font-size="14.00">(Windows)</text>
</g>
<!-- OR_CPP -->
<g id="node21" class="node">
<title>OR_CPP</title>
<path fill="royalblue" stroke="black" d="M574.5,-395C574.5,-395 473.5,-395 473.5,-395 467.5,-395 461.5,-389 461.5,-383 461.5,-383 461.5,-371 461.5,-371 461.5,-365 467.5,-359 473.5,-359 473.5,-359 574.5,-359 574.5,-359 580.5,-359 586.5,-365 586.5,-371 586.5,-371 586.5,-383 586.5,-383 586.5,-389 580.5,-395 574.5,-395"/>
<text text-anchor="middle" x="524" y="-373.3" font-family="Times,serif" font-size="14.00">ortools::ortools</text>
</g>
<!-- OR_SRC&#45;&gt;OR_CPP -->
<g id="edge32" class="edge">
<title>OR_SRC&#45;&gt;OR_CPP</title>
<path fill="none" stroke="black" d="M533.38,-482C531.55,-461.77 528.57,-428.69 526.46,-405.28"/>
<polygon fill="black" stroke="black" points="529.94,-404.93 525.56,-395.29 522.97,-405.56 529.94,-404.93"/>
</g>
<!-- OR_WPY -->
<g id="node24" class="node">
<title>OR_WPY</title>
<polygon fill="gold" stroke="black" points="784,-395 612,-395 612,-359 790,-359 790,-389 784,-395"/>
<polyline fill="none" stroke="black" points="784,-395 784,-389 "/>
<polyline fill="none" stroke="black" points="790,-389 784,-389 "/>
<text text-anchor="middle" x="701" y="-373.3" font-family="Times,serif" font-size="14.00">C++ Python wrappers</text>
</g>
<!-- OR_SRC&#45;&gt;OR_WPY -->
<g id="edge35" class="edge">
<title>OR_SRC&#45;&gt;OR_WPY</title>
<path fill="none" stroke="chocolate" d="M559.49,-482C588.72,-460.52 637.63,-424.57 669.61,-401.07"/>
<polygon fill="chocolate" stroke="chocolate" points="671.76,-403.83 677.75,-395.09 667.62,-398.19 671.76,-403.83"/>
<text text-anchor="middle" x="620" y="-452.8" font-family="Times,serif" font-size="14.00">swig</text>
</g>
<!-- OR_PY -->
<g id="node25" class="node">
<title>OR_PY</title>
<polygon fill="gold" stroke="black" points="745.5,-307 650.5,-307 650.5,-271 751.5,-271 751.5,-301 745.5,-307"/>
<polyline fill="none" stroke="black" points="745.5,-307 745.5,-301 "/>
<polyline fill="none" stroke="black" points="751.5,-301 745.5,-301 "/>
<text text-anchor="middle" x="701" y="-285.3" font-family="Times,serif" font-size="14.00">Python files</text>
</g>
<!-- OR_SRC&#45;&gt;OR_PY -->
<g id="edge36" class="edge">
<title>OR_SRC&#45;&gt;OR_PY</title>
<path fill="none" stroke="chocolate" d="M588.07,-495.82C657.41,-489.13 773.09,-473.34 799,-441 821.79,-412.56 815.79,-391.35 799,-359 788.49,-338.75 769.01,-323.19 750.17,-312.02"/>
<polygon fill="chocolate" stroke="chocolate" points="751.73,-308.88 741.3,-307.04 748.31,-314.99 751.73,-308.88"/>
<text text-anchor="middle" x="830" y="-373.3" font-family="Times,serif" font-size="14.00">swig</text>
</g>
<!-- OR_WJAVA -->
<g id="node28" class="node">
<title>OR_WJAVA</title>
<polygon fill="crimson" stroke="black" points="1030,-395 878,-395 878,-359 1036,-359 1036,-389 1030,-395"/>
<polyline fill="none" stroke="black" points="1030,-395 1030,-389 "/>
<polyline fill="none" stroke="black" points="1036,-389 1030,-389 "/>
<text text-anchor="middle" x="957" y="-373.3" font-family="Times,serif" font-size="14.00">C++ Java wrappers</text>
</g>
<!-- OR_SRC&#45;&gt;OR_WJAVA -->
<g id="edge40" class="edge">
<title>OR_SRC&#45;&gt;OR_WJAVA</title>
<path fill="none" stroke="chocolate" d="M588.07,-496.57C660.91,-491.36 787.76,-480.27 831,-464 868.86,-449.75 906.39,-421.89 930.51,-401.74"/>
<polygon fill="chocolate" stroke="chocolate" points="932.82,-404.37 938.16,-395.23 928.28,-399.04 932.82,-404.37"/>
<text text-anchor="middle" x="878" y="-452.8" font-family="Times,serif" font-size="14.00">swig</text>
</g>
<!-- OR_JAVA -->
<g id="node29" class="node">
<title>OR_JAVA</title>
<polygon fill="crimson" stroke="black" points="1012,-307 938,-307 938,-271 1018,-271 1018,-301 1012,-307"/>
<polyline fill="none" stroke="black" points="1012,-307 1012,-301 "/>
<polyline fill="none" stroke="black" points="1018,-301 1012,-301 "/>
<text text-anchor="middle" x="978" y="-285.3" font-family="Times,serif" font-size="14.00">Java files</text>
</g>
<!-- OR_SRC&#45;&gt;OR_JAVA -->
<g id="edge41" class="edge">
<title>OR_SRC&#45;&gt;OR_JAVA</title>
<path fill="none" stroke="chocolate" d="M588.21,-497.86C712.89,-492.29 1015.64,-475.34 1045,-441 1068.68,-413.3 1058.7,-392.77 1045,-359 1037.81,-341.28 1023.65,-325.61 1010.19,-313.69"/>
<polygon fill="chocolate" stroke="chocolate" points="1012.3,-310.9 1002.4,-307.13 1007.79,-316.25 1012.3,-310.9"/>
<text text-anchor="middle" x="1076" y="-373.3" font-family="Times,serif" font-size="14.00">swig</text>
</g>
<!-- OR_WNET -->
<g id="node32" class="node">
<title>OR_WNET</title>
<polygon fill="darkviolet" stroke="black" points="1325,-395 1173,-395 1173,-359 1331,-359 1331,-389 1325,-395"/>
<polyline fill="none" stroke="black" points="1325,-395 1325,-389 "/>
<polyline fill="none" stroke="black" points="1331,-389 1325,-389 "/>
<text text-anchor="middle" x="1252" y="-373.3" font-family="Times,serif" font-size="14.00">C++ .Net wrappers</text>
</g>
<!-- OR_SRC&#45;&gt;OR_WNET -->
<g id="edge45" class="edge">
<title>OR_SRC&#45;&gt;OR_WNET</title>
<path fill="none" stroke="chocolate" d="M588.38,-499.09C706.33,-496.64 985.9,-488.38 1077,-464 1128.48,-450.22 1182.83,-420.86 1217.04,-400.3"/>
<polygon fill="chocolate" stroke="chocolate" points="1219,-403.21 1225.72,-395.02 1215.36,-397.23 1219,-403.21"/>
<text text-anchor="middle" x="1134" y="-452.8" font-family="Times,serif" font-size="14.00">swig</text>
</g>
<!-- OR_NET -->
<g id="node33" class="node">
<title>OR_NET</title>
<polygon fill="darkviolet" stroke="black" points="1475.5,-307 1400.5,-307 1400.5,-271 1481.5,-271 1481.5,-301 1475.5,-307"/>
<polyline fill="none" stroke="black" points="1475.5,-307 1475.5,-301 "/>
<polyline fill="none" stroke="black" points="1481.5,-301 1475.5,-301 "/>
<text text-anchor="middle" x="1441" y="-285.3" font-family="Times,serif" font-size="14.00">.Net files</text>
</g>
<!-- OR_SRC&#45;&gt;OR_NET -->
<g id="edge46" class="edge">
<title>OR_SRC&#45;&gt;OR_NET</title>
<path fill="none" stroke="chocolate" d="M588.04,-498.93C757.14,-495.12 1276.22,-480.32 1340,-441 1387.16,-411.93 1417.15,-351.66 1431.34,-316.69"/>
<polygon fill="chocolate" stroke="chocolate" points="1434.69,-317.72 1435.07,-307.13 1428.17,-315.17 1434.69,-317.72"/>
<text text-anchor="middle" x="1427" y="-373.3" font-family="Times,serif" font-size="14.00">swig</text>
</g>
<!-- PKG_CPP -->
<g id="node22" class="node">
<title>PKG_CPP</title>
<polygon fill="royalblue" stroke="black" points="587.5,-307 462.5,-307 458.5,-303 458.5,-271 583.5,-271 587.5,-275 587.5,-307"/>
<polyline fill="none" stroke="black" points="583.5,-303 458.5,-303 "/>
<polyline fill="none" stroke="black" points="583.5,-303 583.5,-271 "/>
<polyline fill="none" stroke="black" points="583.5,-303 587.5,-307 "/>
<text text-anchor="middle" x="523" y="-285.3" font-family="Times,serif" font-size="14.00">CMake Package</text>
</g>
<!-- OR_CPP&#45;&gt;PKG_CPP -->
<g id="edge33" class="edge">
<title>OR_CPP&#45;&gt;PKG_CPP</title>
<path fill="none" stroke="royalblue" d="M523.8,-358.6C523.66,-346.75 523.47,-330.82 523.32,-317.29"/>
<polygon fill="royalblue" stroke="royalblue" points="526.81,-317.04 523.2,-307.08 519.82,-317.12 526.81,-317.04"/>
<text text-anchor="middle" x="545.5" y="-329.8" font-family="Times,serif" font-size="14.00">install</text>
</g>
<!-- EX_CPP -->
<g id="node23" class="node">
<title>EX_CPP</title>
<path fill="royalblue" stroke="black" d="M568,-183C568,-183 478,-183 478,-183 472,-183 466,-177 466,-171 466,-171 466,-159 466,-159 466,-153 472,-147 478,-147 478,-147 568,-147 568,-147 574,-147 580,-153 580,-159 580,-159 580,-171 580,-171 580,-177 574,-183 568,-183"/>
<text text-anchor="middle" x="523" y="-161.3" font-family="Times,serif" font-size="14.00">C++ samples</text>
</g>
<!-- PKG_CPP&#45;&gt;EX_CPP -->
<g id="edge26" class="edge">
<title>PKG_CPP&#45;&gt;EX_CPP</title>
<path fill="none" stroke="black" d="M523,-270.78C523,-250.62 523,-216.96 523,-193.25"/>
<polygon fill="black" stroke="black" points="526.5,-193.13 523,-183.13 519.5,-193.13 526.5,-193.13"/>
</g>
<!-- OR_WPY&#45;&gt;OR_PY -->
<g id="edge37" class="edge">
<title>OR_WPY&#45;&gt;OR_PY</title>
<path fill="none" stroke="black" d="M701,-358.6C701,-346.75 701,-330.82 701,-317.29"/>
<polygon fill="black" stroke="black" points="704.5,-317.08 701,-307.08 697.5,-317.08 704.5,-317.08"/>
</g>
<!-- PKG_PY -->
<g id="node26" class="node">
<title>PKG_PY</title>
<polygon fill="gold" stroke="black" points="758,-183 638,-183 634,-179 634,-147 754,-147 758,-151 758,-183"/>
<polyline fill="none" stroke="black" points="754,-179 634,-179 "/>
<polyline fill="none" stroke="black" points="754,-179 754,-147 "/>
<polyline fill="none" stroke="black" points="754,-179 758,-183 "/>
<text text-anchor="middle" x="696" y="-161.3" font-family="Times,serif" font-size="14.00">Wheel package</text>
</g>
<!-- OR_PY&#45;&gt;PKG_PY -->
<g id="edge38" class="edge">
<title>OR_PY&#45;&gt;PKG_PY</title>
<path fill="none" stroke="gold" d="M700.29,-270.78C699.47,-250.62 698.09,-216.96 697.12,-193.25"/>
<polygon fill="gold" stroke="gold" points="700.61,-192.98 696.7,-183.13 693.61,-193.27 700.61,-192.98"/>
<text text-anchor="middle" x="757" y="-240.8" font-family="Times,serif" font-size="14.00">python setup.py</text>
</g>
<!-- EX_PY -->
<g id="node27" class="node">
<title>EX_PY</title>
<path fill="gold" stroke="black" d="M749,-68C749,-68 643,-68 643,-68 637,-68 631,-62 631,-56 631,-56 631,-44 631,-44 631,-38 637,-32 643,-32 643,-32 749,-32 749,-32 755,-32 761,-38 761,-44 761,-44 761,-56 761,-56 761,-62 755,-68 749,-68"/>
<text text-anchor="middle" x="696" y="-46.3" font-family="Times,serif" font-size="14.00">Python samples</text>
</g>
<!-- PKG_PY&#45;&gt;EX_PY -->
<g id="edge34" class="edge">
<title>PKG_PY&#45;&gt;EX_PY</title>
<path fill="none" stroke="black" d="M696,-146.84C696,-128.67 696,-99.72 696,-78.39"/>
<polygon fill="black" stroke="black" points="699.5,-78.32 696,-68.32 692.5,-78.32 699.5,-78.32"/>
</g>
<!-- OR_WJAVA&#45;&gt;OR_JAVA -->
<g id="edge42" class="edge">
<title>OR_WJAVA&#45;&gt;OR_JAVA</title>
<path fill="none" stroke="black" d="M961.25,-358.6C964.17,-346.63 968.11,-330.5 971.43,-316.89"/>
<polygon fill="black" stroke="black" points="974.86,-317.63 973.83,-307.08 968.06,-315.97 974.86,-317.63"/>
</g>
<!-- PKG_JAVA -->
<g id="node30" class="node">
<title>PKG_JAVA</title>
<polygon fill="crimson" stroke="black" points="1042,-183 918,-183 914,-179 914,-147 1038,-147 1042,-151 1042,-183"/>
<polyline fill="none" stroke="black" points="1038,-179 914,-179 "/>
<polyline fill="none" stroke="black" points="1038,-179 1038,-147 "/>
<polyline fill="none" stroke="black" points="1038,-179 1042,-183 "/>
<text text-anchor="middle" x="978" y="-161.3" font-family="Times,serif" font-size="14.00">Maven package</text>
</g>
<!-- OR_JAVA&#45;&gt;PKG_JAVA -->
<g id="edge43" class="edge">
<title>OR_JAVA&#45;&gt;PKG_JAVA</title>
<path fill="none" stroke="crimson" stroke-dasharray="1,5" d="M978,-270.78C978,-250.62 978,-216.96 978,-193.25"/>
<polygon fill="crimson" stroke="crimson" points="981.5,-193.13 978,-183.13 974.5,-193.13 981.5,-193.13"/>
<text text-anchor="middle" x="1024" y="-240.8" font-family="Times,serif" font-size="14.00">maven (WIP)</text>
</g>
<!-- EX_JAVA -->
<g id="node31" class="node">
<title>EX_JAVA</title>
<path fill="crimson" stroke="black" d="M1021,-68C1021,-68 935,-68 935,-68 929,-68 923,-62 923,-56 923,-56 923,-44 923,-44 923,-38 929,-32 935,-32 935,-32 1021,-32 1021,-32 1027,-32 1033,-38 1033,-44 1033,-44 1033,-56 1033,-56 1033,-62 1027,-68 1021,-68"/>
<text text-anchor="middle" x="978" y="-46.3" font-family="Times,serif" font-size="14.00">Java samples</text>
</g>
<!-- PKG_JAVA&#45;&gt;EX_JAVA -->
<g id="edge39" class="edge">
<title>PKG_JAVA&#45;&gt;EX_JAVA</title>
<path fill="none" stroke="black" d="M978,-146.84C978,-128.67 978,-99.72 978,-78.39"/>
<polygon fill="black" stroke="black" points="981.5,-78.32 978,-68.32 974.5,-78.32 981.5,-78.32"/>
</g>
<!-- OR_WNET&#45;&gt;OR_NET -->
<g id="edge47" class="edge">
<title>OR_WNET&#45;&gt;OR_NET</title>
<path fill="none" stroke="black" d="M1319.28,-359C1334.96,-354.04 1351.35,-348.03 1366,-341 1381.84,-333.4 1398.11,-322.74 1411.44,-313.13"/>
<polygon fill="black" stroke="black" points="1413.77,-315.76 1419.74,-307 1409.61,-310.12 1413.77,-315.76"/>
</g>
<!-- PKG_NET_RT -->
<g id="node34" class="node">
<title>PKG_NET_RT</title>
<polygon fill="darkviolet" stroke="black" points="1382,-308 1126,-308 1122,-304 1122,-270 1378,-270 1382,-274 1382,-308"/>
<polyline fill="none" stroke="black" points="1378,-304 1122,-304 "/>
<polyline fill="none" stroke="black" points="1378,-304 1378,-270 "/>
<polyline fill="none" stroke="black" points="1378,-304 1382,-308 "/>
<text text-anchor="middle" x="1252" y="-292.8" font-family="Times,serif" font-size="14.00">Nuget runtime package</text>
<text text-anchor="middle" x="1252" y="-277.8" font-family="Times,serif" font-size="14.00">Google.OrTools.runtime.rid.nupkg</text>
</g>
<!-- OR_WNET&#45;&gt;PKG_NET_RT -->
<g id="edge48" class="edge">
<title>OR_WNET&#45;&gt;PKG_NET_RT</title>
<path fill="none" stroke="darkviolet" d="M1252,-358.6C1252,-347.06 1252,-331.65 1252,-318.36"/>
<polygon fill="darkviolet" stroke="darkviolet" points="1255.5,-318.27 1252,-308.27 1248.5,-318.27 1255.5,-318.27"/>
<text text-anchor="middle" x="1307" y="-329.8" font-family="Times,serif" font-size="14.00">dotnet package</text>
</g>
<!-- PKG_NET -->
<g id="node35" class="node">
<title>PKG_NET</title>
<polygon fill="darkviolet" stroke="black" points="1399,-184 1229,-184 1225,-180 1225,-146 1395,-146 1399,-150 1399,-184"/>
<polyline fill="none" stroke="black" points="1395,-180 1225,-180 "/>
<polyline fill="none" stroke="black" points="1395,-180 1395,-146 "/>
<polyline fill="none" stroke="black" points="1395,-180 1399,-184 "/>
<text text-anchor="middle" x="1312" y="-168.8" font-family="Times,serif" font-size="14.00">Nuget package</text>
<text text-anchor="middle" x="1312" y="-153.8" font-family="Times,serif" font-size="14.00">Google.OrTools.nupkg</text>
</g>
<!-- OR_NET&#45;&gt;PKG_NET -->
<g id="edge50" class="edge">
<title>OR_NET&#45;&gt;PKG_NET</title>
<path fill="none" stroke="darkviolet" d="M1422.79,-270.78C1400.89,-250.06 1363.93,-215.11 1338.78,-191.32"/>
<polygon fill="darkviolet" stroke="darkviolet" points="1341.05,-188.66 1331.38,-184.33 1336.24,-193.74 1341.05,-188.66"/>
<text text-anchor="middle" x="1457" y="-240.8" font-family="Times,serif" font-size="14.00">dotnet package</text>
</g>
<!-- PKG_NET_RT&#45;&gt;PKG_NET -->
<g id="edge49" class="edge">
<title>PKG_NET_RT&#45;&gt;PKG_NET</title>
<path fill="none" stroke="darkviolet" d="M1260.85,-270C1270.82,-249.73 1287.13,-216.56 1298.65,-193.14"/>
<polygon fill="darkviolet" stroke="darkviolet" points="1301.84,-194.59 1303.11,-184.08 1295.56,-191.5 1301.84,-194.59"/>
</g>
<!-- EX_NET -->
<g id="node36" class="node">
<title>EX_NET</title>
<path fill="darkviolet" stroke="black" d="M1355,-68C1355,-68 1269,-68 1269,-68 1263,-68 1257,-62 1257,-56 1257,-56 1257,-44 1257,-44 1257,-38 1263,-32 1269,-32 1269,-32 1355,-32 1355,-32 1361,-32 1367,-38 1367,-44 1367,-44 1367,-56 1367,-56 1367,-62 1361,-68 1355,-68"/>
<text text-anchor="middle" x="1312" y="-46.3" font-family="Times,serif" font-size="14.00">.Net samples</text>
</g>
<!-- PKG_NET&#45;&gt;EX_NET -->
<g id="edge44" class="edge">
<title>PKG_NET&#45;&gt;EX_NET</title>
<path fill="none" stroke="black" d="M1312,-145.84C1312,-127.57 1312,-99.16 1312,-78.19"/>
<polygon fill="black" stroke="black" points="1315.5,-78 1312,-68 1308.5,-78 1315.5,-78"/>
</g>
</g>
</svg>
