<?xml version="1.0" encoding="UTF-8" standalone="no"?>
<!DOCTYPE svg PUBLIC "-//W3C//DTD SVG 1.1//EN"
 "http://www.w3.org/Graphics/SVG/1.1/DTD/svg11.dtd">
<!-- Generated by graphviz version 2.42.3 (0)
 -->
<!-- Title: CMake Pages: 1 -->
<svg width="1514pt" height="1338pt"
 viewBox="0.00 0.00 1514.00 1338.00" xmlns="http://www.w3.org/2000/svg" xmlns:xlink="http://www.w3.org/1999/xlink">
<g id="graph0" class="graph" transform="scale(1 1) rotate(0) translate(4 1334)">
<title>CMake</title>
<polygon fill="white" stroke="transparent" points="-4,4 -4,-1334 1510,-1334 1510,4 -4,4"/>
<g id="clust1" class="cluster">
<title>clusterPrerequisite</title>
<polygon fill="none" stroke="black" points="8,-860 8,-1199 364,-1199 364,-860 8,-860"/>
<text text-anchor="middle" x="186" y="-1183.8" font-family="Times,serif" font-size="14.00">Prerequisite</text>
</g>
<g id="clust2" class="cluster">
<title>clusterOR</title>
<polygon fill="none" stroke="royalblue" points="372,-8 372,-1322 1498,-1322 1498,-8 372,-8"/>
<text text-anchor="middle" x="935" y="-1306.8" font-family="Times,serif" font-size="14.00">OR&#45;Tools (CMake)</text>
</g>
<g id="clust3" class="cluster">
<title>clusterDeps</title>
<polygon fill="none" stroke="grey" points="380,-583 380,-1291 1450,-1291 1450,-583 380,-583"/>
<text text-anchor="middle" x="915" y="-1275.8" font-family="Times,serif" font-size="14.00">Dependencies</text>
<text text-anchor="middle" x="915" y="-1260.8" font-family="Times,serif" font-size="14.00">(&#45;DBUILD_DEPS=ON)</text>
</g>
<g id="clust4" class="cluster">
<title>clusterZLIB</title>
<polygon fill="none" stroke="royalblue" points="904,-1124 904,-1199 1136,-1199 1136,-1124 904,-1124"/>
<text text-anchor="middle" x="1020" y="-1183.8" font-family="Times,serif" font-size="14.00">madler/zlib.git + cmake patch</text>
</g>
<g id="clust5" class="cluster">
<title>clusterAbsl</title>
<polygon fill="none" stroke="royalblue" points="1283,-1124 1283,-1199 1442,-1199 1442,-1124 1283,-1124"/>
<text text-anchor="middle" x="1362.5" y="-1183.8" font-family="Times,serif" font-size="14.00">abseil/abseil&#45;cpp.git</text>
</g>
<g id="clust6" class="cluster">
<title>clusterGFlags</title>
<polygon fill="none" stroke="royalblue" points="1144,-1124 1144,-1199 1275,-1199 1275,-1124 1144,-1124"/>
<text text-anchor="middle" x="1209.5" y="-1183.8" font-family="Times,serif" font-size="14.00">gflags/gflags.git</text>
</g>
<g id="clust7" class="cluster">
<title>clusterGLog</title>
<polygon fill="none" stroke="royalblue" points="904,-1029 904,-1104 1027,-1104 1027,-1029 904,-1029"/>
<text text-anchor="middle" x="965.5" y="-1088.8" font-family="Times,serif" font-size="14.00">google/glog.git</text>
</g>
<g id="clust8" class="cluster">
<title>clusterProtobuf</title>
<polygon fill="none" stroke="royalblue" points="1035,-1029 1035,-1104 1250,-1104 1250,-1029 1035,-1029"/>
<text text-anchor="middle" x="1142.5" y="-1088.8" font-family="Times,serif" font-size="14.00">protocolbuffers/protobuf.git</text>
</g>
<g id="clust9" class="cluster">
<title>clusterCoinOR</title>
<polygon fill="none" stroke="royalblue" points="488,-591 488,-1245 896,-1245 896,-591 488,-591"/>
<text text-anchor="middle" x="692" y="-1229.8" font-family="Times,serif" font-size="14.00">Coin&#45;OR Solver</text>
<text text-anchor="middle" x="692" y="-1214.8" font-family="Times,serif" font-size="14.00">(&#45;DUSE_COINOR=ON)</text>
</g>
<g id="clust10" class="cluster">
<title>clusterCoinUtils</title>
<polygon fill="none" stroke="royalblue" points="700,-1124 700,-1199 855,-1199 855,-1124 700,-1124"/>
<text text-anchor="middle" x="777.5" y="-1183.8" font-family="Times,serif" font-size="14.00">mizux/CoinUtils.git</text>
</g>
<g id="clust11" class="cluster">
<title>clusterOsi</title>
<polygon fill="none" stroke="royalblue" points="747,-1029 747,-1104 858,-1104 858,-1029 747,-1029"/>
<text text-anchor="middle" x="802.5" y="-1088.8" font-family="Times,serif" font-size="14.00">mizux/Osi.git</text>
</g>
<g id="clust12" class="cluster">
<title>clusterClp</title>
<polygon fill="none" stroke="royalblue" points="528,-860 528,-1009 796,-1009 796,-860 528,-860"/>
<text text-anchor="middle" x="662" y="-993.8" font-family="Times,serif" font-size="14.00">mizux/Clp.git</text>
</g>
<g id="clust13" class="cluster">
<title>clusterCgl</title>
<polygon fill="none" stroke="royalblue" points="746,-766 746,-841 858,-841 858,-766 746,-766"/>
<text text-anchor="middle" x="802" y="-825.8" font-family="Times,serif" font-size="14.00">mizux/Cgl.git</text>
</g>
<g id="clust14" class="cluster">
<title>clusterCbc</title>
<polygon fill="none" stroke="royalblue" points="614,-599 614,-747 888,-747 888,-599 614,-599"/>
<text text-anchor="middle" x="751" y="-731.8" font-family="Times,serif" font-size="14.00">mizux/Cbc.git</text>
</g>
<g id="clust15" class="cluster">
<title>clusterCXX</title>
<polygon fill="none" stroke="royalblue" points="380,-131 380,-566 596,-566 596,-131 380,-131"/>
<text text-anchor="middle" x="488" y="-550.8" font-family="Times,serif" font-size="14.00">C++</text>
<text text-anchor="middle" x="488" y="-535.8" font-family="Times,serif" font-size="14.00">(&#45;DBUILD_CXX=ON)</text>
</g>
<g id="clust16" class="cluster">
<title>clusterCXXTest</title>
<polygon fill="none" stroke="black" points="388,-139 388,-229 588,-229 588,-139 388,-139"/>
<text text-anchor="middle" x="488" y="-213.8" font-family="Times,serif" font-size="14.00">Examples</text>
<text text-anchor="middle" x="488" y="-198.8" font-family="Times,serif" font-size="14.00">(&#45;DBUILD_TESTING=ON)</text>
</g>
<g id="clust17" class="cluster">
<title>clusterPython</title>
<polygon fill="none" stroke="gold" points="604,-16 604,-441 820,-441 820,-16 604,-16"/>
<text text-anchor="middle" x="712" y="-425.8" font-family="Times,serif" font-size="14.00">Python</text>
<text text-anchor="middle" x="712" y="-410.8" font-family="Times,serif" font-size="14.00">(&#45;DBUILD_PYTHON=ON)</text>
</g>
<g id="clust18" class="cluster">
<title>clusterPythonTest</title>
<polygon fill="none" stroke="black" points="612,-24 612,-114 812,-114 812,-24 612,-24"/>
<text text-anchor="middle" x="712" y="-98.8" font-family="Times,serif" font-size="14.00">Examples</text>
<text text-anchor="middle" x="712" y="-83.8" font-family="Times,serif" font-size="14.00">(&#45;DBUILD_TESTING=ON)</text>
</g>
<g id="clust19" class="cluster">
<title>clusterJava</title>
<polygon fill="none" stroke="crimson" points="869,-16 869,-441 1085,-441 1085,-16 869,-16"/>
<text text-anchor="middle" x="977" y="-425.8" font-family="Times,serif" font-size="14.00">Java</text>
<text text-anchor="middle" x="977" y="-410.8" font-family="Times,serif" font-size="14.00">(&#45;DBUILD_JAVA=ON)</text>
</g>
<g id="clust20" class="cluster">
<title>clusterJavaTest</title>
<polygon fill="none" stroke="black" points="877,-24 877,-114 1077,-114 1077,-24 877,-24"/>
<text text-anchor="middle" x="977" y="-98.8" font-family="Times,serif" font-size="14.00">Examples</text>
<text text-anchor="middle" x="977" y="-83.8" font-family="Times,serif" font-size="14.00">(&#45;DBUILD_TESTING=ON)</text>
</g>
<g id="clust21" class="cluster">
<title>clusterNet</title>
<polygon fill="none" stroke="forestgreen" points="1114,-16 1114,-441 1490,-441 1490,-16 1114,-16"/>
<text text-anchor="middle" x="1302" y="-425.8" font-family="Times,serif" font-size="14.00">.Net</text>
<text text-anchor="middle" x="1302" y="-410.8" font-family="Times,serif" font-size="14.00">(&#45;DBUILD_DOTNET=ON)</text>
</g>
<g id="clust22" class="cluster">
<title>clusterNetTest</title>
<polygon fill="none" stroke="black" points="1162,-24 1162,-114 1362,-114 1362,-24 1162,-24"/>
<text text-anchor="middle" x="1262" y="-98.8" font-family="Times,serif" font-size="14.00">Examples</text>
<text text-anchor="middle" x="1262" y="-83.8" font-family="Times,serif" font-size="14.00">(&#45;DBUILD_TESTING=ON)</text>
</g>
<!-- CM -->
<g id="node1" class="node">
<title>CM</title>
<polygon fill="royalblue" stroke="black" points="192,-1168 130,-1168 126,-1164 126,-1132 188,-1132 192,-1136 192,-1168"/>
<polyline fill="none" stroke="black" points="188,-1164 126,-1164 "/>
<polyline fill="none" stroke="black" points="188,-1164 188,-1132 "/>
<polyline fill="none" stroke="black" points="188,-1164 192,-1168 "/>
<text text-anchor="middle" x="159" y="-1146.3" font-family="Times,serif" font-size="14.00">CMake</text>
</g>
<!-- SWIG -->
<g id="node2" class="node">
<title>SWIG</title>
<polygon fill="chocolate" stroke="black" points="189.5,-1074 132.5,-1074 128.5,-1070 128.5,-1036 185.5,-1036 189.5,-1040 189.5,-1074"/>
<polyline fill="none" stroke="black" points="185.5,-1070 128.5,-1070 "/>
<polyline fill="none" stroke="black" points="185.5,-1070 185.5,-1036 "/>
<polyline fill="none" stroke="black" points="185.5,-1070 189.5,-1074 "/>
<text text-anchor="middle" x="159" y="-1058.8" font-family="Times,serif" font-size="14.00">Swig</text>
<text text-anchor="middle" x="159" y="-1043.8" font-family="Times,serif" font-size="14.00">(Unix)</text>
</g>
<!-- CM&#45;&gt;SWIG -->
<g id="edge1" class="edge">
<title>CM&#45;&gt;SWIG</title>
</g>
<!-- PY -->
<g id="node3" class="node">
<title>PY</title>
<polygon fill="gold" stroke="black" points="83.5,-979 20.5,-979 16.5,-975 16.5,-941 79.5,-941 83.5,-945 83.5,-979"/>
<polyline fill="none" stroke="black" points="79.5,-975 16.5,-975 "/>
<polyline fill="none" stroke="black" points="79.5,-975 79.5,-941 "/>
<polyline fill="none" stroke="black" points="79.5,-975 83.5,-979 "/>
<text text-anchor="middle" x="50" y="-963.8" font-family="Times,serif" font-size="14.00">Python</text>
<text text-anchor="middle" x="50" y="-948.8" font-family="Times,serif" font-size="14.00">(3.5+)</text>
</g>
<!-- SWIG&#45;&gt;PY -->
<g id="edge2" class="edge">
<title>SWIG&#45;&gt;PY</title>
</g>
<!-- JV -->
<g id="node4" class="node">
<title>JV</title>
<polygon fill="crimson" stroke="black" points="216,-979 106,-979 102,-975 102,-941 212,-941 216,-945 216,-979"/>
<polyline fill="none" stroke="black" points="212,-975 102,-975 "/>
<polyline fill="none" stroke="black" points="212,-975 212,-941 "/>
<polyline fill="none" stroke="black" points="212,-975 216,-979 "/>
<text text-anchor="middle" x="159" y="-963.8" font-family="Times,serif" font-size="14.00">Java</text>
<text text-anchor="middle" x="159" y="-948.8" font-family="Times,serif" font-size="14.00">(openJDK 8+)</text>
</g>
<!-- SWIG&#45;&gt;JV -->
<g id="edge3" class="edge">
<title>SWIG&#45;&gt;JV</title>
</g>
<!-- DN -->
<g id="node5" class="node">
<title>DN</title>
<polygon fill="forestgreen" stroke="black" points="356,-979 238,-979 234,-975 234,-941 352,-941 356,-945 356,-979"/>
<polyline fill="none" stroke="black" points="352,-975 234,-975 "/>
<polyline fill="none" stroke="black" points="352,-975 352,-941 "/>
<polyline fill="none" stroke="black" points="352,-975 356,-979 "/>
<text text-anchor="middle" x="295" y="-963.8" font-family="Times,serif" font-size="14.00">.Net Core SDK</text>
<text text-anchor="middle" x="295" y="-948.8" font-family="Times,serif" font-size="14.00">(3.0.101)</text>
</g>
<!-- SWIG&#45;&gt;DN -->
<g id="edge4" class="edge">
<title>SWIG&#45;&gt;DN</title>
</g>
<!-- FS -->
<g id="node6" class="node">
<title>FS</title>
<polygon fill="forestgreen" stroke="black" points="332,-904 262,-904 258,-900 258,-868 328,-868 332,-872 332,-904"/>
<polyline fill="none" stroke="black" points="328,-900 258,-900 "/>
<polyline fill="none" stroke="black" points="328,-900 328,-868 "/>
<polyline fill="none" stroke="black" points="328,-900 332,-904 "/>
<text text-anchor="middle" x="295" y="-882.3" font-family="Times,serif" font-size="14.00">.Net F#</text>
</g>
<!-- DN&#45;&gt;FS -->
<g id="edge5" class="edge">
<title>DN&#45;&gt;FS</title>
</g>
<!-- ZLIB -->
<g id="node7" class="node">
<title>ZLIB</title>
<path fill="royalblue" stroke="royalblue" d="M1115.5,-1168C1115.5,-1168 1044.5,-1168 1044.5,-1168 1038.5,-1168 1032.5,-1162 1032.5,-1156 1032.5,-1156 1032.5,-1144 1032.5,-1144 1032.5,-1138 1038.5,-1132 1044.5,-1132 1044.5,-1132 1115.5,-1132 1115.5,-1132 1121.5,-1132 1127.5,-1138 1127.5,-1144 1127.5,-1144 1127.5,-1156 1127.5,-1156 1127.5,-1162 1121.5,-1168 1115.5,-1168"/>
<text text-anchor="middle" x="1080" y="-1146.3" font-family="Times,serif" font-size="14.00">ZLIB::ZLIB</text>
</g>
<!-- Protobuf -->
<g id="node11" class="node">
<title>Protobuf</title>
<path fill="royalblue" stroke="royalblue" d="M1197.5,-1073C1197.5,-1073 1054.5,-1073 1054.5,-1073 1048.5,-1073 1042.5,-1067 1042.5,-1061 1042.5,-1061 1042.5,-1049 1042.5,-1049 1042.5,-1043 1048.5,-1037 1054.5,-1037 1054.5,-1037 1197.5,-1037 1197.5,-1037 1203.5,-1037 1209.5,-1043 1209.5,-1049 1209.5,-1049 1209.5,-1061 1209.5,-1061 1209.5,-1067 1203.5,-1073 1197.5,-1073"/>
<text text-anchor="middle" x="1126" y="-1051.3" font-family="Times,serif" font-size="14.00">protobuf::libprotobuf</text>
</g>
<!-- ZLIB&#45;&gt;Protobuf -->
<g id="edge7" class="edge">
<title>ZLIB&#45;&gt;Protobuf</title>
<path fill="none" stroke="black" d="M1088.44,-1131.94C1095.27,-1118.13 1105.01,-1098.44 1112.86,-1082.57"/>
<polygon fill="black" stroke="black" points="1116.16,-1083.78 1117.46,-1073.26 1109.89,-1080.68 1116.16,-1083.78"/>
</g>
<!-- OR_SRC -->
<g id="node22" class="node">
<title>OR_SRC</title>
<polygon fill="royalblue" stroke="black" points="588,-520 585,-524 564,-524 561,-520 482,-520 482,-482 588,-482 588,-520"/>
<text text-anchor="middle" x="535" y="-504.8" font-family="Times,serif" font-size="14.00">OR&#45;Tools src</text>
<text text-anchor="middle" x="535" y="-489.8" font-family="Times,serif" font-size="14.00">ortools/...</text>
</g>
<!-- ZLIB&#45;&gt;OR_SRC -->
<g id="edge28" class="edge">
<title>ZLIB&#45;&gt;OR_SRC</title>
<path fill="none" stroke="black" d="M1117.31,-1131.96C1124.72,-1129.01 1132.53,-1126.18 1140,-1124 1189.38,-1109.58 1218.92,-1141.62 1254,-1104 1268.63,-1088.31 1259,-1077.45 1259,-1056 1259,-1056 1259,-1056 1259,-624 1259,-557.29 774.91,-518.11 598.41,-506.03"/>
<polygon fill="black" stroke="black" points="598.45,-502.53 588.24,-505.35 597.98,-509.51 598.45,-502.53"/>
</g>
<!-- Absl -->
<g id="node8" class="node">
<title>Absl</title>
<path fill="royalblue" stroke="royalblue" d="M1377,-1168C1377,-1168 1303,-1168 1303,-1168 1297,-1168 1291,-1162 1291,-1156 1291,-1156 1291,-1144 1291,-1144 1291,-1138 1297,-1132 1303,-1132 1303,-1132 1377,-1132 1377,-1132 1383,-1132 1389,-1138 1389,-1144 1389,-1144 1389,-1156 1389,-1156 1389,-1162 1383,-1168 1377,-1168"/>
<text text-anchor="middle" x="1340" y="-1146.3" font-family="Times,serif" font-size="14.00">absl::absl_*</text>
</g>
<!-- Absl&#45;&gt;Protobuf -->
<g id="edge8" class="edge">
<title>Absl&#45;&gt;Protobuf</title>
<path fill="none" stroke="black" d="M1300.75,-1131.94C1265.26,-1116.52 1212.89,-1093.76 1174.74,-1077.18"/>
<polygon fill="black" stroke="black" points="1175.93,-1073.88 1165.36,-1073.11 1173.14,-1080.3 1175.93,-1073.88"/>
</g>
<!-- Absl&#45;&gt;OR_SRC -->
<g id="edge29" class="edge">
<title>Absl&#45;&gt;OR_SRC</title>
<path fill="none" stroke="black" d="M1333.7,-1131.78C1327.51,-1113.31 1319,-1082.98 1319,-1056 1319,-1056 1319,-1056 1319,-624 1319,-586.49 1287.88,-580.84 1251,-574 1012.63,-529.83 724.25,-511.25 598.63,-504.85"/>
<polygon fill="black" stroke="black" points="598.59,-501.34 588.42,-504.34 598.23,-508.33 598.59,-501.34"/>
</g>
<!-- GFlags -->
<g id="node9" class="node">
<title>GFlags</title>
<path fill="royalblue" stroke="royalblue" d="M1252.5,-1168C1252.5,-1168 1165.5,-1168 1165.5,-1168 1159.5,-1168 1153.5,-1162 1153.5,-1156 1153.5,-1156 1153.5,-1144 1153.5,-1144 1153.5,-1138 1159.5,-1132 1165.5,-1132 1165.5,-1132 1252.5,-1132 1252.5,-1132 1258.5,-1132 1264.5,-1138 1264.5,-1144 1264.5,-1144 1264.5,-1156 1264.5,-1156 1264.5,-1162 1258.5,-1168 1252.5,-1168"/>
<text text-anchor="middle" x="1209" y="-1146.3" font-family="Times,serif" font-size="14.00">gflags::gflags</text>
</g>
<!-- GLog -->
<g id="node10" class="node">
<title>GLog</title>
<path fill="royalblue" stroke="royalblue" d="M997.5,-1073C997.5,-1073 934.5,-1073 934.5,-1073 928.5,-1073 922.5,-1067 922.5,-1061 922.5,-1061 922.5,-1049 922.5,-1049 922.5,-1043 928.5,-1037 934.5,-1037 934.5,-1037 997.5,-1037 997.5,-1037 1003.5,-1037 1009.5,-1043 1009.5,-1049 1009.5,-1049 1009.5,-1061 1009.5,-1061 1009.5,-1067 1003.5,-1073 997.5,-1073"/>
<text text-anchor="middle" x="966" y="-1051.3" font-family="Times,serif" font-size="14.00">glog::glog</text>
</g>
<!-- GFlags&#45;&gt;GLog -->
<g id="edge6" class="edge">
<title>GFlags&#45;&gt;GLog</title>
<path fill="none" stroke="black" d="M1165.18,-1131.89C1156.89,-1129.01 1148.24,-1126.23 1140,-1124 1092.46,-1111.12 1076.2,-1123.58 1031,-1104 1017.25,-1098.05 1003.67,-1088.71 992.5,-1079.84"/>
<polygon fill="black" stroke="black" points="994.41,-1076.88 984.46,-1073.22 989.95,-1082.28 994.41,-1076.88"/>
</g>
<!-- GFlags&#45;&gt;OR_SRC -->
<g id="edge31" class="edge">
<title>GFlags&#45;&gt;OR_SRC</title>
<path fill="none" stroke="black" d="M1235.1,-1131.97C1245,-1124.42 1255.64,-1114.79 1263,-1104 1275.68,-1085.43 1279,-1078.49 1279,-1056 1279,-1056 1279,-1056 1279,-624 1279,-604.6 1279.26,-594.98 1264,-583 1212.06,-542.24 765.76,-514.36 598.21,-505.24"/>
<polygon fill="black" stroke="black" points="598.23,-501.74 588.06,-504.69 597.86,-508.73 598.23,-501.74"/>
</g>
<!-- GLog&#45;&gt;OR_SRC -->
<g id="edge32" class="edge">
<title>GLog&#45;&gt;OR_SRC</title>
<path fill="none" stroke="black" d="M958.5,-1036.89C951.14,-1018.5 941,-988.25 941,-961 941,-961 941,-961 941,-624 941,-553.27 712.15,-519.98 598.08,-507.78"/>
<polygon fill="black" stroke="black" points="598.39,-504.29 588.08,-506.73 597.66,-511.25 598.39,-504.29"/>
</g>
<!-- Protobuf&#45;&gt;OR_SRC -->
<g id="edge30" class="edge">
<title>Protobuf&#45;&gt;OR_SRC</title>
<path fill="none" stroke="black" d="M1096.86,-1036.94C1073.29,-1020.72 1044,-993.93 1044,-961 1044,-961 1044,-961 1044,-624 1044,-533.33 734.72,-509.89 598.33,-503.95"/>
<polygon fill="black" stroke="black" points="598.17,-500.44 588.03,-503.53 597.88,-507.44 598.17,-500.44"/>
</g>
<!-- CoinUtils -->
<g id="node12" class="node">
<title>CoinUtils</title>
<path fill="royalblue" stroke="royalblue" d="M821.5,-1168C821.5,-1168 720.5,-1168 720.5,-1168 714.5,-1168 708.5,-1162 708.5,-1156 708.5,-1156 708.5,-1144 708.5,-1144 708.5,-1138 714.5,-1132 720.5,-1132 720.5,-1132 821.5,-1132 821.5,-1132 827.5,-1132 833.5,-1138 833.5,-1144 833.5,-1144 833.5,-1156 833.5,-1156 833.5,-1162 827.5,-1168 821.5,-1168"/>
<text text-anchor="middle" x="771" y="-1146.3" font-family="Times,serif" font-size="14.00">Coin::CoinUtils</text>
</g>
<!-- Osi -->
<g id="node13" class="node">
<title>Osi</title>
<path fill="royalblue" stroke="royalblue" d="M834.5,-1073C834.5,-1073 777.5,-1073 777.5,-1073 771.5,-1073 765.5,-1067 765.5,-1061 765.5,-1061 765.5,-1049 765.5,-1049 765.5,-1043 771.5,-1037 777.5,-1037 777.5,-1037 834.5,-1037 834.5,-1037 840.5,-1037 846.5,-1043 846.5,-1049 846.5,-1049 846.5,-1061 846.5,-1061 846.5,-1067 840.5,-1073 834.5,-1073"/>
<text text-anchor="middle" x="806" y="-1051.3" font-family="Times,serif" font-size="14.00">Coin::Osi</text>
</g>
<!-- CoinUtils&#45;&gt;Osi -->
<g id="edge9" class="edge">
<title>CoinUtils&#45;&gt;Osi</title>
<path fill="none" stroke="black" d="M777.42,-1131.94C782.57,-1118.26 789.89,-1098.81 795.83,-1083.02"/>
<polygon fill="black" stroke="black" points="799.26,-1083.86 799.5,-1073.26 792.7,-1081.39 799.26,-1083.86"/>
</g>
<!-- Clp -->
<g id="node14" class="node">
<title>Clp</title>
<path fill="royalblue" stroke="royalblue" d="M707,-978C707,-978 649,-978 649,-978 643,-978 637,-972 637,-966 637,-966 637,-954 637,-954 637,-948 643,-942 649,-942 649,-942 707,-942 707,-942 713,-942 719,-948 719,-954 719,-954 719,-966 719,-966 719,-972 713,-978 707,-978"/>
<text text-anchor="middle" x="678" y="-956.3" font-family="Times,serif" font-size="14.00">Coin::Clp</text>
</g>
<!-- CoinUtils&#45;&gt;Clp -->
<g id="edge10" class="edge">
<title>CoinUtils&#45;&gt;Clp</title>
<path fill="none" stroke="black" d="M749.44,-1131.85C743.51,-1126.32 737.48,-1119.84 733,-1113 707.03,-1073.35 691.39,-1019.85 683.75,-988.04"/>
<polygon fill="black" stroke="black" points="687.12,-987.09 681.46,-978.13 680.3,-988.67 687.12,-987.09"/>
</g>
<!-- OsiClp -->
<g id="node15" class="node">
<title>OsiClp</title>
<path fill="royalblue" stroke="royalblue" d="M775.5,-904C775.5,-904 694.5,-904 694.5,-904 688.5,-904 682.5,-898 682.5,-892 682.5,-892 682.5,-880 682.5,-880 682.5,-874 688.5,-868 694.5,-868 694.5,-868 775.5,-868 775.5,-868 781.5,-868 787.5,-874 787.5,-880 787.5,-880 787.5,-892 787.5,-892 787.5,-898 781.5,-904 775.5,-904"/>
<text text-anchor="middle" x="735" y="-882.3" font-family="Times,serif" font-size="14.00">Coin::OsiClp</text>
</g>
<!-- CoinUtils&#45;&gt;OsiClp -->
<g id="edge12" class="edge">
<title>CoinUtils&#45;&gt;OsiClp</title>
<path fill="none" stroke="black" d="M757.25,-1131.66C751.75,-1123.7 746.01,-1113.86 743,-1104 732.4,-1069.32 733.21,-964.21 734.27,-914.12"/>
<polygon fill="black" stroke="black" points="737.77,-914.1 734.51,-904.03 730.78,-913.94 737.77,-914.1"/>
</g>
<!-- Cgl -->
<g id="node17" class="node">
<title>Cgl</title>
<path fill="royalblue" stroke="royalblue" d="M831,-810C831,-810 773,-810 773,-810 767,-810 761,-804 761,-798 761,-798 761,-786 761,-786 761,-780 767,-774 773,-774 773,-774 831,-774 831,-774 837,-774 843,-780 843,-786 843,-786 843,-798 843,-798 843,-804 837,-810 831,-810"/>
<text text-anchor="middle" x="802" y="-788.3" font-family="Times,serif" font-size="14.00">Coin::Cgl</text>
</g>
<!-- CoinUtils&#45;&gt;Cgl -->
<g id="edge16" class="edge">
<title>CoinUtils&#45;&gt;Cgl</title>
<path fill="none" stroke="black" d="M827.59,-1131.82C840.84,-1125.18 853.55,-1116.15 862,-1104 874.25,-1086.39 867,-1077.45 867,-1056 867,-1056 867,-1056 867,-922 867,-882.74 842.69,-843.26 823.81,-818.51"/>
<polygon fill="black" stroke="black" points="826.35,-816.07 817.4,-810.39 820.85,-820.41 826.35,-816.07"/>
</g>
<!-- Cbc -->
<g id="node18" class="node">
<title>Cbc</title>
<path fill="royalblue" stroke="royalblue" d="M746.5,-716C746.5,-716 685.5,-716 685.5,-716 679.5,-716 673.5,-710 673.5,-704 673.5,-704 673.5,-692 673.5,-692 673.5,-686 679.5,-680 685.5,-680 685.5,-680 746.5,-680 746.5,-680 752.5,-680 758.5,-686 758.5,-692 758.5,-692 758.5,-704 758.5,-704 758.5,-710 752.5,-716 746.5,-716"/>
<text text-anchor="middle" x="716" y="-694.3" font-family="Times,serif" font-size="14.00">Coin::Cbc</text>
</g>
<!-- CoinUtils&#45;&gt;Cbc -->
<g id="edge19" class="edge">
<title>CoinUtils&#45;&gt;Cbc</title>
<path fill="none" stroke="black" d="M726.73,-1131.91C719.49,-1129.21 712.05,-1126.49 705,-1124 613.28,-1091.65 497,-1153.26 497,-1056 497,-1056 497,-1056 497,-791 497,-719.17 598.38,-702.49 663.19,-699.17"/>
<polygon fill="black" stroke="black" points="663.41,-702.67 673.25,-698.75 663.12,-695.67 663.41,-702.67"/>
</g>
<!-- OsiCbc -->
<g id="node19" class="node">
<title>OsiCbc</title>
<path fill="royalblue" stroke="royalblue" d="M868,-643C868,-643 784,-643 784,-643 778,-643 772,-637 772,-631 772,-631 772,-619 772,-619 772,-613 778,-607 784,-607 784,-607 868,-607 868,-607 874,-607 880,-613 880,-619 880,-619 880,-631 880,-631 880,-637 874,-643 868,-643"/>
<text text-anchor="middle" x="826" y="-621.3" font-family="Times,serif" font-size="14.00">Coin::OsiCbc</text>
</g>
<!-- CoinUtils&#45;&gt;OsiCbc -->
<g id="edge23" class="edge">
<title>CoinUtils&#45;&gt;OsiCbc</title>
<path fill="none" stroke="black" d="M821.93,-1131.94C834.79,-1126.69 848.27,-1120.33 860,-1113 883.77,-1098.14 887,-1084.03 887,-1056 887,-1056 887,-1056 887,-697 887,-678.25 874.61,-661.98 861,-649.77"/>
<polygon fill="black" stroke="black" points="862.86,-646.76 852.93,-643.05 858.38,-652.14 862.86,-646.76"/>
</g>
<!-- Osi&#45;&gt;Clp -->
<g id="edge11" class="edge">
<title>Osi&#45;&gt;Clp</title>
<path fill="none" stroke="black" d="M782.52,-1036.94C762.17,-1022.16 732.53,-1000.62 710.01,-984.26"/>
<polygon fill="black" stroke="black" points="711.91,-981.31 701.76,-978.26 707.79,-986.97 711.91,-981.31"/>
</g>
<!-- Osi&#45;&gt;OsiClp -->
<g id="edge13" class="edge">
<title>Osi&#45;&gt;OsiClp</title>
<path fill="none" stroke="black" d="M798.67,-1036.76C786.29,-1007.63 761.14,-948.49 746.43,-913.88"/>
<polygon fill="black" stroke="black" points="749.53,-912.23 742.4,-904.4 743.09,-914.97 749.53,-912.23"/>
</g>
<!-- Osi&#45;&gt;Cgl -->
<g id="edge17" class="edge">
<title>Osi&#45;&gt;Cgl</title>
<path fill="none" stroke="black" d="M809.45,-1036.86C810.49,-1030.91 811.49,-1024.19 812,-1018 817.79,-948.02 817.2,-930.03 812,-860 811.02,-846.85 808.98,-832.36 807,-820.23"/>
<polygon fill="black" stroke="black" points="810.43,-819.54 805.3,-810.27 803.53,-820.72 810.43,-819.54"/>
</g>
<!-- Osi&#45;&gt;Cbc -->
<g id="edge20" class="edge">
<title>Osi&#45;&gt;Cbc</title>
<path fill="none" stroke="black" d="M806.57,-1036.93C807.92,-992.19 810.45,-873.96 800,-860 783.74,-838.28 759.84,-861.44 742,-841 714.28,-809.25 711.76,-757.93 713.29,-726.46"/>
<polygon fill="black" stroke="black" points="716.8,-726.43 713.97,-716.22 709.82,-725.97 716.8,-726.43"/>
</g>
<!-- Osi&#45;&gt;OsiCbc -->
<g id="edge24" class="edge">
<title>Osi&#45;&gt;OsiCbc</title>
<path fill="none" stroke="black" d="M813.21,-1036.92C831.1,-992.55 875.14,-869.85 862,-766 856.94,-726.04 844.08,-681.16 835.18,-653.23"/>
<polygon fill="black" stroke="black" points="838.41,-651.83 831.99,-643.4 831.75,-654 838.41,-651.83"/>
</g>
<!-- Clp&#45;&gt;OsiClp -->
<g id="edge14" class="edge">
<title>Clp&#45;&gt;OsiClp</title>
<path fill="none" stroke="black" d="M691.51,-941.94C698.5,-933.1 707.18,-922.14 714.95,-912.33"/>
<polygon fill="black" stroke="black" points="717.73,-914.45 721.19,-904.44 712.24,-910.11 717.73,-914.45"/>
</g>
<!-- ClpSolver -->
<g id="node16" class="node">
<title>ClpSolver</title>
<path fill="royalblue" stroke="royalblue" d="M652,-904C652,-904 548,-904 548,-904 542,-904 536,-898 536,-892 536,-892 536,-880 536,-880 536,-874 542,-868 548,-868 548,-868 652,-868 652,-868 658,-868 664,-874 664,-880 664,-880 664,-892 664,-892 664,-898 658,-904 652,-904"/>
<text text-anchor="middle" x="600" y="-882.3" font-family="Times,serif" font-size="14.00">Coin::ClpSolver</text>
</g>
<!-- Clp&#45;&gt;ClpSolver -->
<g id="edge15" class="edge">
<title>Clp&#45;&gt;ClpSolver</title>
<path fill="none" stroke="black" d="M659.52,-941.94C649.58,-932.77 637.17,-921.31 626.25,-911.23"/>
<polygon fill="black" stroke="black" points="628.34,-908.4 618.62,-904.19 623.6,-913.54 628.34,-908.4"/>
</g>
<!-- Clp&#45;&gt;Cbc -->
<g id="edge21" class="edge">
<title>Clp&#45;&gt;Cbc</title>
<path fill="none" stroke="black" d="M636.92,-956.53C601.28,-951.95 551.64,-939.2 527,-904 515.79,-887.98 518.8,-877.75 527,-860 556.82,-795.43 626.71,-747.21 672.64,-721.09"/>
<polygon fill="black" stroke="black" points="674.45,-724.09 681.48,-716.16 671.04,-717.97 674.45,-724.09"/>
</g>
<!-- OsiClp&#45;&gt;Cgl -->
<g id="edge18" class="edge">
<title>OsiClp&#45;&gt;Cgl</title>
<path fill="none" stroke="black" d="M747.6,-867.7C757.71,-853.82 772.04,-834.14 783.46,-818.46"/>
<polygon fill="black" stroke="black" points="786.4,-820.37 789.45,-810.23 780.74,-816.25 786.4,-820.37"/>
</g>
<!-- ClpSolver&#45;&gt;OR_SRC -->
<g id="edge33" class="edge">
<title>ClpSolver&#45;&gt;OR_SRC</title>
<path fill="none" stroke="black" d="M546.05,-867.99C513,-853.83 477,-829.93 477,-793 477,-793 477,-793 477,-624 477,-588.28 497.53,-551.88 514.16,-528.26"/>
<polygon fill="black" stroke="black" points="517,-530.3 520.06,-520.15 511.34,-526.17 517,-530.3"/>
</g>
<!-- Cgl&#45;&gt;Cbc -->
<g id="edge22" class="edge">
<title>Cgl&#45;&gt;Cbc</title>
<path fill="none" stroke="black" d="M785.82,-773.7C772.61,-759.56 753.77,-739.41 738.99,-723.59"/>
<polygon fill="black" stroke="black" points="741.49,-721.14 732.1,-716.23 736.38,-725.92 741.49,-721.14"/>
</g>
<!-- Cbc&#45;&gt;OsiCbc -->
<g id="edge25" class="edge">
<title>Cbc&#45;&gt;OsiCbc</title>
<path fill="none" stroke="black" d="M742.35,-679.99C756.93,-670.58 775.25,-658.76 791.02,-648.57"/>
<polygon fill="black" stroke="black" points="792.98,-651.48 799.49,-643.11 789.19,-645.6 792.98,-651.48"/>
</g>
<!-- CbcSolver -->
<g id="node20" class="node">
<title>CbcSolver</title>
<path fill="royalblue" stroke="royalblue" d="M741.5,-643C741.5,-643 634.5,-643 634.5,-643 628.5,-643 622.5,-637 622.5,-631 622.5,-631 622.5,-619 622.5,-619 622.5,-613 628.5,-607 634.5,-607 634.5,-607 741.5,-607 741.5,-607 747.5,-607 753.5,-613 753.5,-619 753.5,-619 753.5,-631 753.5,-631 753.5,-637 747.5,-643 741.5,-643"/>
<text text-anchor="middle" x="688" y="-621.3" font-family="Times,serif" font-size="14.00">Coin::CbcSolver</text>
</g>
<!-- Cbc&#45;&gt;CbcSolver -->
<g id="edge26" class="edge">
<title>Cbc&#45;&gt;CbcSolver</title>
<path fill="none" stroke="black" d="M709.22,-679.81C705.99,-671.62 702.05,-661.62 698.44,-652.48"/>
<polygon fill="black" stroke="black" points="701.64,-651.05 694.72,-643.03 695.13,-653.62 701.64,-651.05"/>
</g>
<!-- CbcSolver&#45;&gt;OR_SRC -->
<g id="edge34" class="edge">
<title>CbcSolver&#45;&gt;OR_SRC</title>
<path fill="none" stroke="black" d="M666.4,-606.78C640.13,-585.83 595.58,-550.31 565.73,-526.51"/>
<polygon fill="black" stroke="black" points="567.73,-523.63 557.73,-520.13 563.37,-529.1 567.73,-523.63"/>
</g>
<!-- SWIG_WIN -->
<g id="node21" class="node">
<title>SWIG_WIN</title>
<path fill="royalblue" stroke="chocolate" d="M468,-1169C468,-1169 400,-1169 400,-1169 394,-1169 388,-1163 388,-1157 388,-1157 388,-1143 388,-1143 388,-1137 394,-1131 400,-1131 400,-1131 468,-1131 468,-1131 474,-1131 480,-1137 480,-1143 480,-1143 480,-1157 480,-1157 480,-1163 474,-1169 468,-1169"/>
<text text-anchor="middle" x="434" y="-1153.8" font-family="Times,serif" font-size="14.00">swigwin</text>
<text text-anchor="middle" x="434" y="-1138.8" font-family="Times,serif" font-size="14.00">(Windows)</text>
</g>
<!-- OR_CPP -->
<g id="node23" class="node">
<title>OR_CPP</title>
<path fill="royalblue" stroke="black" d="M575.5,-395C575.5,-395 474.5,-395 474.5,-395 468.5,-395 462.5,-389 462.5,-383 462.5,-383 462.5,-371 462.5,-371 462.5,-365 468.5,-359 474.5,-359 474.5,-359 575.5,-359 575.5,-359 581.5,-359 587.5,-365 587.5,-371 587.5,-371 587.5,-383 587.5,-383 587.5,-389 581.5,-395 575.5,-395"/>
<text text-anchor="middle" x="525" y="-373.3" font-family="Times,serif" font-size="14.00">ortools::ortools</text>
</g>
<!-- OR_SRC&#45;&gt;OR_CPP -->
<g id="edge35" class="edge">
<title>OR_SRC&#45;&gt;OR_CPP</title>
<path fill="none" stroke="black" d="M533.52,-482C531.87,-461.77 529.16,-428.69 527.24,-405.28"/>
<polygon fill="black" stroke="black" points="530.72,-404.97 526.42,-395.29 523.75,-405.54 530.72,-404.97"/>
</g>
<!-- OR_WPY -->
<g id="node26" class="node">
<title>OR_WPY</title>
<polygon fill="gold" stroke="black" points="784,-395 612,-395 612,-359 790,-359 790,-389 784,-395"/>
<polyline fill="none" stroke="black" points="784,-395 784,-389 "/>
<polyline fill="none" stroke="black" points="790,-389 784,-389 "/>
<text text-anchor="middle" x="701" y="-373.3" font-family="Times,serif" font-size="14.00">C++ Python wrappers</text>
</g>
<!-- OR_SRC&#45;&gt;OR_WPY -->
<g id="edge38" class="edge">
<title>OR_SRC&#45;&gt;OR_WPY</title>
<path fill="none" stroke="chocolate" d="M559.49,-482C588.72,-460.52 637.63,-424.57 669.61,-401.07"/>
<polygon fill="chocolate" stroke="chocolate" points="671.76,-403.83 677.75,-395.09 667.62,-398.19 671.76,-403.83"/>
<text text-anchor="middle" x="620" y="-452.8" font-family="Times,serif" font-size="14.00">swig</text>
</g>
<!-- OR_PY -->
<g id="node27" class="node">
<title>OR_PY</title>
<polygon fill="gold" stroke="black" points="745.5,-307 650.5,-307 650.5,-271 751.5,-271 751.5,-301 745.5,-307"/>
<polyline fill="none" stroke="black" points="745.5,-307 745.5,-301 "/>
<polyline fill="none" stroke="black" points="751.5,-301 745.5,-301 "/>
<text text-anchor="middle" x="701" y="-285.3" font-family="Times,serif" font-size="14.00">Python files</text>
</g>
<!-- OR_SRC&#45;&gt;OR_PY -->
<g id="edge39" class="edge">
<title>OR_SRC&#45;&gt;OR_PY</title>
<path fill="none" stroke="chocolate" d="M588.07,-495.82C657.41,-489.13 773.09,-473.34 799,-441 821.79,-412.56 815.79,-391.35 799,-359 788.49,-338.75 769.01,-323.19 750.17,-312.02"/>
<polygon fill="chocolate" stroke="chocolate" points="751.73,-308.88 741.3,-307.04 748.31,-314.99 751.73,-308.88"/>
<text text-anchor="middle" x="830" y="-373.3" font-family="Times,serif" font-size="14.00">swig</text>
</g>
<!-- OR_WJAVA -->
<g id="node30" class="node">
<title>OR_WJAVA</title>
<polygon fill="crimson" stroke="black" points="1030,-395 878,-395 878,-359 1036,-359 1036,-389 1030,-395"/>
<polyline fill="none" stroke="black" points="1030,-395 1030,-389 "/>
<polyline fill="none" stroke="black" points="1036,-389 1030,-389 "/>
<text text-anchor="middle" x="957" y="-373.3" font-family="Times,serif" font-size="14.00">C++ Java wrappers</text>
</g>
<!-- OR_SRC&#45;&gt;OR_WJAVA -->
<g id="edge43" class="edge">
<title>OR_SRC&#45;&gt;OR_WJAVA</title>
<path fill="none" stroke="chocolate" d="M588.07,-496.57C660.91,-491.36 787.76,-480.27 831,-464 868.86,-449.75 906.39,-421.89 930.51,-401.74"/>
<polygon fill="chocolate" stroke="chocolate" points="932.82,-404.37 938.16,-395.23 928.28,-399.04 932.82,-404.37"/>
<text text-anchor="middle" x="878" y="-452.8" font-family="Times,serif" font-size="14.00">swig</text>
</g>
<!-- OR_JAVA -->
<g id="node31" class="node">
<title>OR_JAVA</title>
<polygon fill="crimson" stroke="black" points="1012,-307 938,-307 938,-271 1018,-271 1018,-301 1012,-307"/>
<polyline fill="none" stroke="black" points="1012,-307 1012,-301 "/>
<polyline fill="none" stroke="black" points="1018,-301 1012,-301 "/>
<text text-anchor="middle" x="978" y="-285.3" font-family="Times,serif" font-size="14.00">Java files</text>
</g>
<!-- OR_SRC&#45;&gt;OR_JAVA -->
<g id="edge44" class="edge">
<title>OR_SRC&#45;&gt;OR_JAVA</title>
<path fill="none" stroke="chocolate" d="M588.21,-497.86C712.89,-492.29 1015.64,-475.34 1045,-441 1068.68,-413.3 1058.7,-392.77 1045,-359 1037.81,-341.28 1023.65,-325.61 1010.19,-313.69"/>
<polygon fill="chocolate" stroke="chocolate" points="1012.3,-310.9 1002.4,-307.13 1007.79,-316.25 1012.3,-310.9"/>
<text text-anchor="middle" x="1076" y="-373.3" font-family="Times,serif" font-size="14.00">swig</text>
</g>
<!-- OR_WNET -->
<g id="node34" class="node">
<title>OR_WNET</title>
<polygon fill="forestgreen" stroke="black" points="1276,-395 1124,-395 1124,-359 1282,-359 1282,-389 1276,-395"/>
<polyline fill="none" stroke="black" points="1276,-395 1276,-389 "/>
<polyline fill="none" stroke="black" points="1282,-389 1276,-389 "/>
<text text-anchor="middle" x="1203" y="-373.3" font-family="Times,serif" font-size="14.00">C++ .Net wrappers</text>
</g>
<!-- OR_SRC&#45;&gt;OR_WNET -->
<g id="edge48" class="edge">
<title>OR_SRC&#45;&gt;OR_WNET</title>
<path fill="none" stroke="chocolate" d="M588.22,-500.01C706.49,-499.46 987.75,-494.83 1077,-464 1115.46,-450.71 1153.14,-422.4 1177.12,-401.88"/>
<polygon fill="chocolate" stroke="chocolate" points="1179.48,-404.47 1184.71,-395.26 1174.87,-399.2 1179.48,-404.47"/>
<text text-anchor="middle" x="1124" y="-452.8" font-family="Times,serif" font-size="14.00">swig</text>
</g>
<!-- OR_NET -->
<g id="node35" class="node">
<title>OR_NET</title>
<polygon fill="forestgreen" stroke="black" points="1197.5,-307 1122.5,-307 1122.5,-271 1203.5,-271 1203.5,-301 1197.5,-307"/>
<polyline fill="none" stroke="black" points="1197.5,-307 1197.5,-301 "/>
<polyline fill="none" stroke="black" points="1203.5,-301 1197.5,-301 "/>
<text text-anchor="middle" x="1163" y="-285.3" font-family="Times,serif" font-size="14.00">.Net files</text>
</g>
<!-- OR_SRC&#45;&gt;OR_NET -->
<g id="edge49" class="edge">
<title>OR_SRC&#45;&gt;OR_NET</title>
<path fill="none" stroke="chocolate" d="M588.08,-499.63C751.64,-497.97 1240.02,-489 1291,-441 1328.89,-405.33 1346.38,-365.92 1313,-326 1285.9,-293.59 1260.16,-316.3 1213.67,-307.58"/>
<polygon fill="chocolate" stroke="chocolate" points="1214.28,-304.13 1203.75,-305.3 1212.71,-310.95 1214.28,-304.13"/>
<text text-anchor="middle" x="1347" y="-373.3" font-family="Times,serif" font-size="14.00">swig</text>
</g>
<!-- PKG_CPP -->
<g id="node24" class="node">
<title>PKG_CPP</title>
<polygon fill="royalblue" stroke="black" points="587.5,-307 462.5,-307 458.5,-303 458.5,-271 583.5,-271 587.5,-275 587.5,-307"/>
<polyline fill="none" stroke="black" points="583.5,-303 458.5,-303 "/>
<polyline fill="none" stroke="black" points="583.5,-303 583.5,-271 "/>
<polyline fill="none" stroke="black" points="583.5,-303 587.5,-307 "/>
<text text-anchor="middle" x="523" y="-285.3" font-family="Times,serif" font-size="14.00">CMake Package</text>
</g>
<!-- OR_CPP&#45;&gt;PKG_CPP -->
<g id="edge36" class="edge">
<title>OR_CPP&#45;&gt;PKG_CPP</title>
<path fill="none" stroke="royalblue" d="M524.6,-358.6C524.32,-346.75 523.95,-330.82 523.63,-317.29"/>
<polygon fill="royalblue" stroke="royalblue" points="527.13,-317 523.4,-307.08 520.13,-317.16 527.13,-317"/>
<text text-anchor="middle" x="546.5" y="-329.8" font-family="Times,serif" font-size="14.00">install</text>
</g>
<!-- EX_CPP -->
<g id="node25" class="node">
<title>EX_CPP</title>
<path fill="royalblue" stroke="black" d="M568,-183C568,-183 478,-183 478,-183 472,-183 466,-177 466,-171 466,-171 466,-159 466,-159 466,-153 472,-147 478,-147 478,-147 568,-147 568,-147 574,-147 580,-153 580,-159 580,-159 580,-171 580,-171 580,-177 574,-183 568,-183"/>
<text text-anchor="middle" x="523" y="-161.3" font-family="Times,serif" font-size="14.00">C++ samples</text>
</g>
<!-- PKG_CPP&#45;&gt;EX_CPP -->
<g id="edge27" class="edge">
<title>PKG_CPP&#45;&gt;EX_CPP</title>
<path fill="none" stroke="black" d="M523,-270.78C523,-250.62 523,-216.96 523,-193.25"/>
<polygon fill="black" stroke="black" points="526.5,-193.13 523,-183.13 519.5,-193.13 526.5,-193.13"/>
</g>
<!-- OR_WPY&#45;&gt;OR_PY -->
<g id="edge40" class="edge">
<title>OR_WPY&#45;&gt;OR_PY</title>
<path fill="none" stroke="black" d="M701,-358.6C701,-346.75 701,-330.82 701,-317.29"/>
<polygon fill="black" stroke="black" points="704.5,-317.08 701,-307.08 697.5,-317.08 704.5,-317.08"/>
</g>
<!-- PKG_PY -->
<g id="node28" class="node">
<title>PKG_PY</title>
<polygon fill="gold" stroke="black" points="758,-183 638,-183 634,-179 634,-147 754,-147 758,-151 758,-183"/>
<polyline fill="none" stroke="black" points="754,-179 634,-179 "/>
<polyline fill="none" stroke="black" points="754,-179 754,-147 "/>
<polyline fill="none" stroke="black" points="754,-179 758,-183 "/>
<text text-anchor="middle" x="696" y="-161.3" font-family="Times,serif" font-size="14.00">Wheel package</text>
</g>
<!-- OR_PY&#45;&gt;PKG_PY -->
<g id="edge41" class="edge">
<title>OR_PY&#45;&gt;PKG_PY</title>
<path fill="none" stroke="gold" d="M700.29,-270.78C699.47,-250.62 698.09,-216.96 697.12,-193.25"/>
<polygon fill="gold" stroke="gold" points="700.61,-192.98 696.7,-183.13 693.61,-193.27 700.61,-192.98"/>
<text text-anchor="middle" x="757" y="-240.8" font-family="Times,serif" font-size="14.00">python setup.py</text>
</g>
<!-- EX_PY -->
<g id="node29" class="node">
<title>EX_PY</title>
<path fill="gold" stroke="black" d="M749,-68C749,-68 643,-68 643,-68 637,-68 631,-62 631,-56 631,-56 631,-44 631,-44 631,-38 637,-32 643,-32 643,-32 749,-32 749,-32 755,-32 761,-38 761,-44 761,-44 761,-56 761,-56 761,-62 755,-68 749,-68"/>
<text text-anchor="middle" x="696" y="-46.3" font-family="Times,serif" font-size="14.00">Python samples</text>
</g>
<!-- PKG_PY&#45;&gt;EX_PY -->
<g id="edge37" class="edge">
<title>PKG_PY&#45;&gt;EX_PY</title>
<path fill="none" stroke="black" d="M696,-146.84C696,-128.67 696,-99.72 696,-78.39"/>
<polygon fill="black" stroke="black" points="699.5,-78.32 696,-68.32 692.5,-78.32 699.5,-78.32"/>
</g>
<!-- OR_WJAVA&#45;&gt;OR_JAVA -->
<g id="edge45" class="edge">
<title>OR_WJAVA&#45;&gt;OR_JAVA</title>
<path fill="none" stroke="black" d="M961.25,-358.6C964.17,-346.63 968.11,-330.5 971.43,-316.89"/>
<polygon fill="black" stroke="black" points="974.86,-317.63 973.83,-307.08 968.06,-315.97 974.86,-317.63"/>
</g>
<!-- PKG_JAVA -->
<g id="node32" class="node">
<title>PKG_JAVA</title>
<polygon fill="crimson" stroke="black" points="1042,-183 918,-183 914,-179 914,-147 1038,-147 1042,-151 1042,-183"/>
<polyline fill="none" stroke="black" points="1038,-179 914,-179 "/>
<polyline fill="none" stroke="black" points="1038,-179 1038,-147 "/>
<polyline fill="none" stroke="black" points="1038,-179 1042,-183 "/>
<text text-anchor="middle" x="978" y="-161.3" font-family="Times,serif" font-size="14.00">Maven package</text>
</g>
<!-- OR_JAVA&#45;&gt;PKG_JAVA -->
<g id="edge46" class="edge">
<title>OR_JAVA&#45;&gt;PKG_JAVA</title>
<path fill="none" stroke="crimson" stroke-dasharray="1,5" d="M978,-270.78C978,-250.62 978,-216.96 978,-193.25"/>
<polygon fill="crimson" stroke="crimson" points="981.5,-193.13 978,-183.13 974.5,-193.13 981.5,-193.13"/>
<text text-anchor="middle" x="1024" y="-240.8" font-family="Times,serif" font-size="14.00">maven (WIP)</text>
</g>
<!-- EX_JAVA -->
<g id="node33" class="node">
<title>EX_JAVA</title>
<path fill="crimson" stroke="black" d="M1021,-68C1021,-68 935,-68 935,-68 929,-68 923,-62 923,-56 923,-56 923,-44 923,-44 923,-38 929,-32 935,-32 935,-32 1021,-32 1021,-32 1027,-32 1033,-38 1033,-44 1033,-44 1033,-56 1033,-56 1033,-62 1027,-68 1021,-68"/>
<text text-anchor="middle" x="978" y="-46.3" font-family="Times,serif" font-size="14.00">Java samples</text>
</g>
<!-- PKG_JAVA&#45;&gt;EX_JAVA -->
<g id="edge42" class="edge">
<title>PKG_JAVA&#45;&gt;EX_JAVA</title>
<path fill="none" stroke="black" d="M978,-146.84C978,-128.67 978,-99.72 978,-78.39"/>
<polygon fill="black" stroke="black" points="981.5,-78.32 978,-68.32 974.5,-78.32 981.5,-78.32"/>
</g>
<!-- OR_WNET&#45;&gt;OR_NET -->
<g id="edge50" class="edge">
<title>OR_WNET&#45;&gt;OR_NET</title>
<path fill="none" stroke="black" d="M1190.37,-358.72C1186.71,-353.23 1182.92,-347.02 1180,-341 1176.38,-333.53 1173.22,-325.08 1170.64,-317.25"/>
<polygon fill="black" stroke="black" points="1173.9,-315.95 1167.59,-307.44 1167.21,-318.03 1173.9,-315.95"/>
</g>
<!-- PKG_NET_RT -->
<g id="node36" class="node">
<title>PKG_NET_RT</title>
<polygon fill="forestgreen" stroke="black" points="1482,-308 1226,-308 1222,-304 1222,-270 1478,-270 1482,-274 1482,-308"/>
<polyline fill="none" stroke="black" points="1478,-304 1222,-304 "/>
<polyline fill="none" stroke="black" points="1478,-304 1478,-270 "/>
<polyline fill="none" stroke="black" points="1478,-304 1482,-308 "/>
<text text-anchor="middle" x="1352" y="-292.8" font-family="Times,serif" font-size="14.00">Nuget runtime package</text>
<text text-anchor="middle" x="1352" y="-277.8" font-family="Times,serif" font-size="14.00">Google.OrTools.runtime.rid.nupkg</text>
</g>
<!-- OR_WNET&#45;&gt;PKG_NET_RT -->
<g id="edge51" class="edge">
<title>OR_WNET&#45;&gt;PKG_NET_RT</title>
<path fill="none" stroke="forestgreen" d="M1232.79,-358.8C1255.49,-345.71 1286.96,-327.54 1311.87,-313.17"/>
<polygon fill="forestgreen" stroke="forestgreen" points="1313.81,-316.09 1320.72,-308.06 1310.31,-310.02 1313.81,-316.09"/>
<text text-anchor="middle" x="1341" y="-329.8" font-family="Times,serif" font-size="14.00">dotnet package</text>
</g>
<!-- PKG_NET -->
<g id="node37" class="node">
<title>PKG_NET</title>
<polygon fill="forestgreen" stroke="black" points="1349,-184 1179,-184 1175,-180 1175,-146 1345,-146 1349,-150 1349,-184"/>
<polyline fill="none" stroke="black" points="1345,-180 1175,-180 "/>
<polyline fill="none" stroke="black" points="1345,-180 1345,-146 "/>
<polyline fill="none" stroke="black" points="1345,-180 1349,-184 "/>
<text text-anchor="middle" x="1262" y="-168.8" font-family="Times,serif" font-size="14.00">Nuget package</text>
<text text-anchor="middle" x="1262" y="-153.8" font-family="Times,serif" font-size="14.00">Google.OrTools.nupkg</text>
</g>
<!-- OR_NET&#45;&gt;PKG_NET -->
<g id="edge53" class="edge">
<title>OR_NET&#45;&gt;PKG_NET</title>
<path fill="none" stroke="forestgreen" d="M1175.38,-270.78C1182.67,-260.78 1192.17,-248.03 1201,-237 1213.2,-221.77 1227.37,-205.2 1238.99,-191.91"/>
<polygon fill="forestgreen" stroke="forestgreen" points="1241.88,-193.92 1245.85,-184.09 1236.62,-189.3 1241.88,-193.92"/>
<text text-anchor="middle" x="1256" y="-240.8" font-family="Times,serif" font-size="14.00">dotnet package</text>
</g>
<!-- PKG_NET_RT&#45;&gt;PKG_NET -->
<g id="edge52" class="edge">
<title>PKG_NET_RT&#45;&gt;PKG_NET</title>
<path fill="none" stroke="forestgreen" d="M1338.72,-270C1323.57,-249.46 1298.64,-215.67 1281.33,-192.21"/>
<polygon fill="forestgreen" stroke="forestgreen" points="1284.09,-190.04 1275.33,-184.08 1278.45,-194.2 1284.09,-190.04"/>
</g>
<!-- EX_NET -->
<g id="node38" class="node">
<title>EX_NET</title>
<path fill="forestgreen" stroke="black" d="M1305,-68C1305,-68 1219,-68 1219,-68 1213,-68 1207,-62 1207,-56 1207,-56 1207,-44 1207,-44 1207,-38 1213,-32 1219,-32 1219,-32 1305,-32 1305,-32 1311,-32 1317,-38 1317,-44 1317,-44 1317,-56 1317,-56 1317,-62 1311,-68 1305,-68"/>
<text text-anchor="middle" x="1262" y="-46.3" font-family="Times,serif" font-size="14.00">.Net samples</text>
</g>
<!-- PKG_NET&#45;&gt;EX_NET -->
<g id="edge47" class="edge">
<title>PKG_NET&#45;&gt;EX_NET</title>
<path fill="none" stroke="black" d="M1262,-145.84C1262,-127.57 1262,-99.16 1262,-78.19"/>
<polygon fill="black" stroke="black" points="1265.5,-78 1262,-68 1258.5,-78 1265.5,-78"/>
</g>
</g>
</svg>
