<?xml version="1.0" encoding="UTF-8" standalone="no"?>
<!DOCTYPE svg PUBLIC "-//W3C//DTD SVG 1.1//EN"
 "http://www.w3.org/Graphics/SVG/1.1/DTD/svg11.dtd">
<!-- Generated by graphviz version 2.42.3 (0)
 -->
<!-- Title: DockerDeps Pages: 1 -->
<svg width="2371pt" height="1113pt"
 viewBox="0.00 0.00 2371.00 1113.25" xmlns="http://www.w3.org/2000/svg" xmlns:xlink="http://www.w3.org/1999/xlink">
<g id="graph0" class="graph" transform="scale(1 1) rotate(0) translate(4 1109.25)">
<title>DockerDeps</title>
<polygon fill="white" stroke="transparent" points="-4,4 -4,-1109.25 2367,-1109.25 2367,4 -4,4"/>
<g id="clust1" class="cluster">
<title>clusterDockerfile</title>
<polygon fill="none" stroke="royalblue" points="1853,-845.75 1853,-1026.25 2065,-1026.25 2065,-845.75 1853,-845.75"/>
<text text-anchor="middle" x="1959" y="-1011.05" font-family="Times,serif" font-size="14.00">docker/&lt;distro&gt;/Dockerfile</text>
</g>
<g id="clust2" class="cluster">
<title>clusterLang</title>
<polygon fill="none" stroke="royalblue" points="797,-116 797,-812.75 1345,-812.75 1345,-116 797,-116"/>
<text text-anchor="middle" x="1071" y="-797.55" font-family="Times,serif" font-size="14.00">docker/&lt;distro&gt;/&lt;lang&gt;.Dockerfile</text>
</g>
<g id="clust3" class="cluster">
<title>clusterCache</title>
<polygon fill="none" stroke="royalblue" points="8,-8 8,-83 2170,-83 2170,-8 8,-8"/>
<text text-anchor="middle" x="1089" y="-67.8" font-family="Times,serif" font-size="14.00">cache/&lt;distro&gt;/</text>
</g>
<!-- DISTRO_IMG -->
<g id="node1" class="node">
<title>DISTRO_IMG</title>
<path fill="royalblue" stroke="black" d="M1953,-1100.98C1953,-1102.78 1924.31,-1104.25 1889,-1104.25 1853.69,-1104.25 1825,-1102.78 1825,-1100.98 1825,-1100.98 1825,-1071.52 1825,-1071.52 1825,-1069.72 1853.69,-1068.25 1889,-1068.25 1924.31,-1068.25 1953,-1069.72 1953,-1071.52 1953,-1071.52 1953,-1100.98 1953,-1100.98"/>
<path fill="none" stroke="black" d="M1953,-1100.98C1953,-1099.17 1924.31,-1097.7 1889,-1097.7 1853.69,-1097.7 1825,-1099.17 1825,-1100.98"/>
<text text-anchor="middle" x="1889" y="-1082.55" font-family="Times,serif" font-size="14.00">&lt;distro&gt;:latest</text>
</g>
<!-- BASE_IMG -->
<g id="node8" class="node">
<title>BASE_IMG</title>
<path fill="royalblue" stroke="black" d="M2052,-990.6C2052,-993.24 2012.56,-995.38 1964,-995.38 1915.44,-995.38 1876,-993.24 1876,-990.6 1876,-990.6 1876,-947.65 1876,-947.65 1876,-945.01 1915.44,-942.87 1964,-942.87 2012.56,-942.87 2052,-945.01 2052,-947.65 2052,-947.65 2052,-990.6 2052,-990.6"/>
<path fill="none" stroke="black" d="M2052,-990.6C2052,-987.97 2012.56,-985.83 1964,-985.83 1915.44,-985.83 1876,-987.97 1876,-990.6"/>
<text text-anchor="middle" x="1964" y="-972.92" font-family="Times,serif" font-size="14.00">ortools:&lt;distro&gt;_base</text>
<text text-anchor="middle" x="1964" y="-957.92" font-family="Times,serif" font-size="14.00">base</text>
</g>
<!-- DISTRO_IMG&#45;&gt;BASE_IMG -->
<g id="edge2" class="edge">
<title>DISTRO_IMG&#45;&gt;BASE_IMG</title>
<path fill="none" stroke="black" d="M1900.39,-1067.76C1911.36,-1050.92 1928.25,-1024.99 1941.87,-1004.09"/>
<polygon fill="black" stroke="black" points="1944.96,-1005.77 1947.48,-995.48 1939.09,-1001.94 1944.96,-1005.77"/>
</g>
<!-- PKG -->
<g id="node2" class="node">
<title>PKG</title>
<polygon fill="royalblue" stroke="black" points="2106.5,-1105.25 1975.5,-1105.25 1971.5,-1101.25 1971.5,-1067.25 2102.5,-1067.25 2106.5,-1071.25 2106.5,-1105.25"/>
<polyline fill="none" stroke="black" points="2102.5,-1101.25 1971.5,-1101.25 "/>
<polyline fill="none" stroke="black" points="2102.5,-1101.25 2102.5,-1067.25 "/>
<polyline fill="none" stroke="black" points="2102.5,-1101.25 2106.5,-1105.25 "/>
<text text-anchor="middle" x="2039" y="-1090.05" font-family="Times,serif" font-size="14.00">Build packages</text>
<text text-anchor="middle" x="2039" y="-1075.05" font-family="Times,serif" font-size="14.00">e.g. cmake, g++</text>
</g>
<!-- PKG&#45;&gt;BASE_IMG -->
<g id="edge3" class="edge">
<title>PKG&#45;&gt;BASE_IMG</title>
<path fill="none" stroke="black" stroke-dasharray="5,2" d="M2027.12,-1067.01C2016.13,-1050.14 1999.52,-1024.65 1986.1,-1004.05"/>
<polygon fill="black" stroke="black" points="1988.96,-1002.03 1980.57,-995.56 1983.1,-1005.85 1988.96,-1002.03"/>
<text text-anchor="middle" x="2036.5" y="-1038.05" font-family="Times,serif" font-size="14.00">install</text>
</g>
<!-- PYPKG -->
<g id="node3" class="node">
<title>PYPKG</title>
<polygon fill="gold" stroke="black" points="1132.5,-898.88 999.5,-898.88 995.5,-894.88 995.5,-860.88 1128.5,-860.88 1132.5,-864.88 1132.5,-898.88"/>
<polyline fill="none" stroke="black" points="1128.5,-894.88 995.5,-894.88 "/>
<polyline fill="none" stroke="black" points="1128.5,-894.88 1128.5,-860.88 "/>
<polyline fill="none" stroke="black" points="1128.5,-894.88 1132.5,-898.88 "/>
<text text-anchor="middle" x="1064" y="-883.67" font-family="Times,serif" font-size="14.00">Python packages</text>
<text text-anchor="middle" x="1064" y="-868.67" font-family="Times,serif" font-size="14.00">e.g. python&#45;dev</text>
</g>
<!-- LANGENV_IMG -->
<g id="node10" class="node">
<title>LANGENV_IMG</title>
<path fill="royalblue" stroke="black" d="M1324,-777.1C1324,-779.74 1272.46,-781.88 1209,-781.88 1145.54,-781.88 1094,-779.74 1094,-777.1 1094,-777.1 1094,-734.15 1094,-734.15 1094,-731.51 1145.54,-729.37 1209,-729.37 1272.46,-729.37 1324,-731.51 1324,-734.15 1324,-734.15 1324,-777.1 1324,-777.1"/>
<path fill="none" stroke="black" d="M1324,-777.1C1324,-774.47 1272.46,-772.33 1209,-772.33 1145.54,-772.33 1094,-774.47 1094,-777.1"/>
<text text-anchor="middle" x="1209" y="-759.42" font-family="Times,serif" font-size="14.00">ortools:&lt;distro&gt;_&lt;lang&gt;_env</text>
<text text-anchor="middle" x="1209" y="-744.42" font-family="Times,serif" font-size="14.00">env</text>
</g>
<!-- PYPKG&#45;&gt;LANGENV_IMG -->
<g id="edge13" class="edge">
<title>PYPKG&#45;&gt;LANGENV_IMG</title>
<path fill="none" stroke="black" stroke-dasharray="5,2" d="M1085.4,-860.84C1107.91,-841.86 1143.8,-811.59 1171.12,-788.56"/>
<polygon fill="black" stroke="black" points="1173.55,-791.09 1178.94,-781.97 1169.04,-785.74 1173.55,-791.09"/>
<text text-anchor="middle" x="1154.5" y="-824.55" font-family="Times,serif" font-size="14.00">install</text>
</g>
<!-- JAVAPKG -->
<g id="node4" class="node">
<title>JAVAPKG</title>
<polygon fill="crimson" stroke="black" points="1267.5,-898.88 1154.5,-898.88 1150.5,-894.88 1150.5,-860.88 1263.5,-860.88 1267.5,-864.88 1267.5,-898.88"/>
<polyline fill="none" stroke="black" points="1263.5,-894.88 1150.5,-894.88 "/>
<polyline fill="none" stroke="black" points="1263.5,-894.88 1263.5,-860.88 "/>
<polyline fill="none" stroke="black" points="1263.5,-894.88 1267.5,-898.88 "/>
<text text-anchor="middle" x="1209" y="-883.67" font-family="Times,serif" font-size="14.00">Java packages</text>
<text text-anchor="middle" x="1209" y="-868.67" font-family="Times,serif" font-size="14.00">e.g. openjdk</text>
</g>
<!-- JAVAPKG&#45;&gt;LANGENV_IMG -->
<g id="edge14" class="edge">
<title>JAVAPKG&#45;&gt;LANGENV_IMG</title>
<path fill="none" stroke="black" stroke-dasharray="5,2" d="M1209,-860.84C1209,-842.83 1209,-814.68 1209,-792.18"/>
<polygon fill="black" stroke="black" points="1212.5,-791.97 1209,-781.97 1205.5,-791.97 1212.5,-791.97"/>
<text text-anchor="middle" x="1231.5" y="-824.55" font-family="Times,serif" font-size="14.00">install</text>
</g>
<!-- DOTNETPKG -->
<g id="node5" class="node">
<title>DOTNETPKG</title>
<polygon fill="forestgreen" stroke="black" points="1404,-898.88 1290,-898.88 1286,-894.88 1286,-860.88 1400,-860.88 1404,-864.88 1404,-898.88"/>
<polyline fill="none" stroke="black" points="1400,-894.88 1286,-894.88 "/>
<polyline fill="none" stroke="black" points="1400,-894.88 1400,-860.88 "/>
<polyline fill="none" stroke="black" points="1400,-894.88 1404,-898.88 "/>
<text text-anchor="middle" x="1345" y="-883.67" font-family="Times,serif" font-size="14.00">.Net packages</text>
<text text-anchor="middle" x="1345" y="-868.67" font-family="Times,serif" font-size="14.00">e.g. dotnet&#45;cli</text>
</g>
<!-- DOTNETPKG&#45;&gt;LANGENV_IMG -->
<g id="edge15" class="edge">
<title>DOTNETPKG&#45;&gt;LANGENV_IMG</title>
<path fill="none" stroke="black" stroke-dasharray="5,2" d="M1324.93,-860.84C1303.91,-841.94 1270.44,-811.85 1244.86,-788.86"/>
<polygon fill="black" stroke="black" points="1246.97,-786.05 1237.19,-781.97 1242.29,-791.26 1246.97,-786.05"/>
<text text-anchor="middle" x="1315.5" y="-824.55" font-family="Times,serif" font-size="14.00">install</text>
</g>
<!-- SRC -->
<g id="node6" class="node">
<title>SRC</title>
<polygon fill="royalblue" stroke="black" points="788.5,-773.62 785.5,-777.62 764.5,-777.62 761.5,-773.62 715.5,-773.62 715.5,-737.62 788.5,-737.62 788.5,-773.62"/>
<text text-anchor="middle" x="752" y="-751.92" font-family="Times,serif" font-size="14.00">git repo</text>
</g>
<!-- LANGDEVEL_IMG -->
<g id="node11" class="node">
<title>LANGDEVEL_IMG</title>
<path fill="royalblue" stroke="black" d="M1106.5,-673.85C1106.5,-676.49 1052.04,-678.63 985,-678.63 917.96,-678.63 863.5,-676.49 863.5,-673.85 863.5,-673.85 863.5,-630.9 863.5,-630.9 863.5,-628.26 917.96,-626.12 985,-626.12 1052.04,-626.12 1106.5,-628.26 1106.5,-630.9 1106.5,-630.9 1106.5,-673.85 1106.5,-673.85"/>
<path fill="none" stroke="black" d="M1106.5,-673.85C1106.5,-671.22 1052.04,-669.08 985,-669.08 917.96,-669.08 863.5,-671.22 863.5,-673.85"/>
<text text-anchor="middle" x="985" y="-656.17" font-family="Times,serif" font-size="14.00">ortools:&lt;distro&gt;_&lt;lang&gt;_devel</text>
<text text-anchor="middle" x="985" y="-641.17" font-family="Times,serif" font-size="14.00">devel</text>
</g>
<!-- SRC&#45;&gt;LANGDEVEL_IMG -->
<g id="edge16" class="edge">
<title>SRC&#45;&gt;LANGDEVEL_IMG</title>
<path fill="none" stroke="black" stroke-dasharray="5,2" d="M778.53,-737.46C783.27,-734.65 788.22,-731.89 793,-729.5 828.33,-711.84 868.8,-695.28 903.44,-682.15"/>
<polygon fill="black" stroke="black" points="904.92,-685.33 913.05,-678.54 902.46,-678.78 904.92,-685.33"/>
<text text-anchor="middle" x="882" y="-700.3" font-family="Times,serif" font-size="14.00">copy</text>
</g>
<!-- SAMPLE -->
<g id="node7" class="node">
<title>SAMPLE</title>
<polygon fill="royalblue" stroke="black" points="1423,-477.88 1420,-481.88 1399,-481.88 1396,-477.88 1355,-477.88 1355,-441.88 1423,-441.88 1423,-477.88"/>
<text text-anchor="middle" x="1389" y="-456.18" font-family="Times,serif" font-size="14.00">sample</text>
</g>
<!-- LANGINSTALLDEVEL_IMG -->
<g id="node15" class="node">
<title>LANGINSTALLDEVEL_IMG</title>
<path fill="royalblue" stroke="black" d="M1217,-378.1C1217,-380.74 1151.11,-382.88 1070,-382.88 988.89,-382.88 923,-380.74 923,-378.1 923,-378.1 923,-335.15 923,-335.15 923,-332.51 988.89,-330.37 1070,-330.37 1151.11,-330.37 1217,-332.51 1217,-335.15 1217,-335.15 1217,-378.1 1217,-378.1"/>
<path fill="none" stroke="black" d="M1217,-378.1C1217,-375.47 1151.11,-373.33 1070,-373.33 988.89,-373.33 923,-375.47 923,-378.1"/>
<text text-anchor="middle" x="1070" y="-360.43" font-family="Times,serif" font-size="14.00">ortools:&lt;distro&gt;_&lt;lang&gt;_install_devel</text>
<text text-anchor="middle" x="1070" y="-345.43" font-family="Times,serif" font-size="14.00">install_devel</text>
</g>
<!-- SAMPLE&#45;&gt;LANGINSTALLDEVEL_IMG -->
<g id="edge17" class="edge">
<title>SAMPLE&#45;&gt;LANGINSTALLDEVEL_IMG</title>
<path fill="none" stroke="black" stroke-dasharray="5,2" d="M1364.23,-441.75C1359.32,-438.81 1354.11,-435.99 1349,-433.75 1301.36,-412.84 1246.59,-396.39 1198.25,-384.21"/>
<polygon fill="black" stroke="black" points="1198.9,-380.76 1188.36,-381.75 1197.22,-387.56 1198.9,-380.76"/>
<text text-anchor="middle" x="1314" y="-404.55" font-family="Times,serif" font-size="14.00">copy</text>
</g>
<!-- SWIG_IMG -->
<g id="node9" class="node">
<title>SWIG_IMG</title>
<path fill="royalblue" stroke="black" d="M2047,-901.35C2047,-903.99 2007.56,-906.13 1959,-906.13 1910.44,-906.13 1871,-903.99 1871,-901.35 1871,-901.35 1871,-858.4 1871,-858.4 1871,-855.76 1910.44,-853.62 1959,-853.62 2007.56,-853.62 2047,-855.76 2047,-858.4 2047,-858.4 2047,-901.35 2047,-901.35"/>
<path fill="none" stroke="black" d="M2047,-901.35C2047,-898.72 2007.56,-896.58 1959,-896.58 1910.44,-896.58 1871,-898.72 1871,-901.35"/>
<text text-anchor="middle" x="1959" y="-883.67" font-family="Times,serif" font-size="14.00">ortools:&lt;distro&gt;_swig</text>
<text text-anchor="middle" x="1959" y="-868.67" font-family="Times,serif" font-size="14.00">swig</text>
</g>
<!-- BASE_IMG&#45;&gt;SWIG_IMG -->
<g id="edge1" class="edge">
<title>BASE_IMG&#45;&gt;SWIG_IMG</title>
<path fill="none" stroke="black" d="M1962.55,-942.89C1962.08,-934.57 1961.54,-925.16 1961.03,-916.22"/>
<polygon fill="black" stroke="black" points="1964.51,-915.84 1960.44,-906.05 1957.52,-916.24 1964.51,-915.84"/>
</g>
<!-- BASE_TAR -->
<g id="node18" class="node">
<title>BASE_TAR</title>
<polygon fill="royalblue" stroke="black" points="2156,-52 2032,-52 2032,-16 2162,-16 2162,-46 2156,-52"/>
<polyline fill="none" stroke="black" points="2156,-52 2156,-46 "/>
<polyline fill="none" stroke="black" points="2162,-46 2156,-46 "/>
<text text-anchor="middle" x="2097" y="-30.3" font-family="Times,serif" font-size="14.00">docker_base.tar</text>
</g>
<!-- BASE_IMG&#45;&gt;BASE_TAR -->
<g id="edge18" class="edge">
<title>BASE_IMG&#45;&gt;BASE_TAR</title>
<path fill="none" stroke="red" d="M2052.26,-965.12C2110.08,-957.85 2175,-937.16 2175,-880.88 2175,-880.88 2175,-880.88 2175,-149.12 2175,-113.27 2148.44,-80.4 2126.32,-59.24"/>
<polygon fill="red" stroke="red" points="2128.46,-56.45 2118.73,-52.26 2123.72,-61.6 2128.46,-56.45"/>
<text text-anchor="middle" x="2269" y="-507.8" font-family="Times,serif" font-size="14.00">make save_&lt;distro&gt;_base</text>
</g>
<!-- SWIG_IMG&#45;&gt;LANGENV_IMG -->
<g id="edge12" class="edge">
<title>SWIG_IMG&#45;&gt;LANGENV_IMG</title>
<path fill="none" stroke="black" d="M1870.76,-864.49C1737.99,-842.85 1486.27,-801.82 1334.46,-777.08"/>
<polygon fill="black" stroke="black" points="1334.59,-773.55 1324.16,-775.4 1333.46,-780.46 1334.59,-773.55"/>
</g>
<!-- SWIG_TAR -->
<g id="node19" class="node">
<title>SWIG_TAR</title>
<polygon fill="royalblue" stroke="black" points="2008,-52 1884,-52 1884,-16 2014,-16 2014,-46 2008,-52"/>
<polyline fill="none" stroke="black" points="2008,-52 2008,-46 "/>
<polyline fill="none" stroke="black" points="2014,-46 2008,-46 "/>
<text text-anchor="middle" x="1949" y="-30.3" font-family="Times,serif" font-size="14.00">docker_swig.tar</text>
</g>
<!-- SWIG_IMG&#45;&gt;SWIG_TAR -->
<g id="edge19" class="edge">
<title>SWIG_IMG&#45;&gt;SWIG_TAR</title>
<path fill="none" stroke="red" d="M1959,-853.59C1959,-828.87 1959,-790.16 1959,-756.62 1959,-756.62 1959,-756.62 1959,-149.12 1959,-119.42 1955.6,-85.53 1952.76,-62.45"/>
<polygon fill="red" stroke="red" points="1956.21,-61.84 1951.47,-52.36 1949.27,-62.72 1956.21,-61.84"/>
<text text-anchor="middle" x="2053" y="-456.18" font-family="Times,serif" font-size="14.00">make save_&lt;distro&gt;_swig</text>
</g>
<!-- LANGENV_IMG&#45;&gt;LANGDEVEL_IMG -->
<g id="edge4" class="edge">
<title>LANGENV_IMG&#45;&gt;LANGDEVEL_IMG</title>
<path fill="none" stroke="black" d="M1153.34,-729.47C1122.09,-715.34 1082.92,-697.64 1050.24,-682.86"/>
<polygon fill="black" stroke="black" points="1051.31,-679.51 1040.76,-678.58 1048.43,-685.89 1051.31,-679.51"/>
</g>
<!-- LANGINSTALLENV_IMG -->
<g id="node14" class="node">
<title>LANGINSTALLENV_IMG</title>
<path fill="royalblue" stroke="black" d="M1336.5,-481.35C1336.5,-483.99 1273.53,-486.13 1196,-486.13 1118.47,-486.13 1055.5,-483.99 1055.5,-481.35 1055.5,-481.35 1055.5,-438.4 1055.5,-438.4 1055.5,-435.76 1118.47,-433.62 1196,-433.62 1273.53,-433.62 1336.5,-435.76 1336.5,-438.4 1336.5,-438.4 1336.5,-481.35 1336.5,-481.35"/>
<path fill="none" stroke="black" d="M1336.5,-481.35C1336.5,-478.72 1273.53,-476.58 1196,-476.58 1118.47,-476.58 1055.5,-478.72 1055.5,-481.35"/>
<text text-anchor="middle" x="1196" y="-463.68" font-family="Times,serif" font-size="14.00">ortools:&lt;distro&gt;_&lt;lang&gt;_install_env</text>
<text text-anchor="middle" x="1196" y="-448.68" font-family="Times,serif" font-size="14.00">install_env</text>
</g>
<!-- LANGENV_IMG&#45;&gt;LANGINSTALLENV_IMG -->
<g id="edge8" class="edge">
<title>LANGENV_IMG&#45;&gt;LANGINSTALLENV_IMG</title>
<path fill="none" stroke="black" d="M1207.91,-729.37C1205.96,-684.16 1201.72,-586.45 1198,-504 1197.89,-501.6 1197.78,-499.12 1197.67,-496.63"/>
<polygon fill="black" stroke="black" points="1201.15,-496.24 1197.19,-486.41 1194.16,-496.56 1201.15,-496.24"/>
</g>
<!-- LANGENV_TAR -->
<g id="node20" class="node">
<title>LANGENV_TAR</title>
<polygon fill="royalblue" stroke="black" points="1860,-52 1684,-52 1684,-16 1866,-16 1866,-46 1860,-52"/>
<polyline fill="none" stroke="black" points="1860,-52 1860,-46 "/>
<polyline fill="none" stroke="black" points="1866,-46 1860,-46 "/>
<text text-anchor="middle" x="1775" y="-30.3" font-family="Times,serif" font-size="14.00">docker_&lt;lang&gt;_env.tar</text>
</g>
<!-- LANGENV_IMG&#45;&gt;LANGENV_TAR -->
<g id="edge20" class="edge">
<title>LANGENV_IMG&#45;&gt;LANGENV_TAR</title>
<path fill="none" stroke="red" d="M1324.28,-753.64C1469.97,-749.21 1702,-730.1 1702,-653.38 1702,-653.38 1702,-653.38 1702,-458.88 1702,-433.04 1696.53,-425.76 1703,-400.75 1714.14,-357.73 1737.31,-355.09 1750,-312.5 1776.45,-223.75 1777.32,-112.54 1776.08,-62.1"/>
<polygon fill="red" stroke="red" points="1779.57,-61.91 1775.78,-52.01 1772.58,-62.11 1779.57,-61.91"/>
<text text-anchor="middle" x="1824" y="-404.55" font-family="Times,serif" font-size="14.00">make save_&lt;distro&gt;_&lt;lang&gt;_env</text>
</g>
<!-- LANGBUILD_IMG -->
<g id="node12" class="node">
<title>LANGBUILD_IMG</title>
<path fill="royalblue" stroke="black" d="M1164.5,-584.6C1164.5,-587.24 1110.49,-589.38 1044,-589.38 977.51,-589.38 923.5,-587.24 923.5,-584.6 923.5,-584.6 923.5,-541.65 923.5,-541.65 923.5,-539.01 977.51,-536.87 1044,-536.87 1110.49,-536.87 1164.5,-539.01 1164.5,-541.65 1164.5,-541.65 1164.5,-584.6 1164.5,-584.6"/>
<path fill="none" stroke="black" d="M1164.5,-584.6C1164.5,-581.97 1110.49,-579.83 1044,-579.83 977.51,-579.83 923.5,-581.97 923.5,-584.6"/>
<text text-anchor="middle" x="1044" y="-566.92" font-family="Times,serif" font-size="14.00">ortools:&lt;distro&gt;_&lt;lang&gt;_build</text>
<text text-anchor="middle" x="1044" y="-551.92" font-family="Times,serif" font-size="14.00">build</text>
</g>
<!-- LANGDEVEL_IMG&#45;&gt;LANGBUILD_IMG -->
<g id="edge5" class="edge">
<title>LANGDEVEL_IMG&#45;&gt;LANGBUILD_IMG</title>
<path fill="none" stroke="black" d="M1002.07,-626.14C1008.06,-617.28 1014.89,-607.17 1021.27,-597.73"/>
<polygon fill="black" stroke="black" points="1024.27,-599.55 1026.97,-589.3 1018.47,-595.63 1024.27,-599.55"/>
</g>
<!-- LANGDEVEL_TAR -->
<g id="node21" class="node">
<title>LANGDEVEL_TAR</title>
<polygon fill="royalblue" stroke="black" points="207.5,-52 16.5,-52 16.5,-16 213.5,-16 213.5,-46 207.5,-52"/>
<polyline fill="none" stroke="black" points="207.5,-52 207.5,-46 "/>
<polyline fill="none" stroke="black" points="213.5,-46 207.5,-46 "/>
<text text-anchor="middle" x="115" y="-30.3" font-family="Times,serif" font-size="14.00">docker_&lt;lang&gt;_devel.tar</text>
</g>
<!-- LANGDEVEL_IMG&#45;&gt;LANGDEVEL_TAR -->
<g id="edge21" class="edge">
<title>LANGDEVEL_IMG&#45;&gt;LANGDEVEL_TAR</title>
<path fill="none" stroke="red" d="M863.17,-646.3C608.25,-634.87 42,-604.89 42,-564.12 42,-564.12 42,-564.12 42,-149.12 42,-113.78 67.16,-80.6 87.93,-59.23"/>
<polygon fill="red" stroke="red" points="90.41,-61.7 95.05,-52.18 85.49,-56.73 90.41,-61.7"/>
<text text-anchor="middle" x="169.5" y="-352.93" font-family="Times,serif" font-size="14.00">make save_&lt;distro&gt;_&lt;lang&gt;_devel</text>
</g>
<!-- LANGTEST_IMG -->
<g id="node13" class="node">
<title>LANGTEST_IMG</title>
<path fill="royalblue" stroke="black" d="M1037.5,-481.35C1037.5,-483.99 985.28,-486.13 921,-486.13 856.72,-486.13 804.5,-483.99 804.5,-481.35 804.5,-481.35 804.5,-438.4 804.5,-438.4 804.5,-435.76 856.72,-433.62 921,-433.62 985.28,-433.62 1037.5,-435.76 1037.5,-438.4 1037.5,-438.4 1037.5,-481.35 1037.5,-481.35"/>
<path fill="none" stroke="black" d="M1037.5,-481.35C1037.5,-478.72 985.28,-476.58 921,-476.58 856.72,-476.58 804.5,-478.72 804.5,-481.35"/>
<text text-anchor="middle" x="921" y="-463.68" font-family="Times,serif" font-size="14.00">ortools:&lt;distro&gt;_&lt;lang&gt;_test</text>
<text text-anchor="middle" x="921" y="-448.68" font-family="Times,serif" font-size="14.00">test</text>
</g>
<!-- LANGBUILD_IMG&#45;&gt;LANGTEST_IMG -->
<g id="edge6" class="edge">
<title>LANGBUILD_IMG&#45;&gt;LANGTEST_IMG</title>
<path fill="none" stroke="black" d="M1013.28,-536.84C996.99,-523.43 976.82,-506.82 959.49,-492.56"/>
<polygon fill="black" stroke="black" points="961.7,-489.85 951.76,-486.19 957.25,-495.25 961.7,-489.85"/>
</g>
<!-- LANGBUILD_IMG&#45;&gt;LANGINSTALLENV_IMG -->
<g id="edge7" class="edge">
<title>LANGBUILD_IMG&#45;&gt;LANGINSTALLENV_IMG</title>
<path fill="none" stroke="black" stroke-dasharray="5,2" d="M1072.84,-536.81C1085.64,-526.11 1101.15,-513.87 1116,-504 1122.56,-499.64 1129.6,-495.34 1136.69,-491.24"/>
<polygon fill="black" stroke="black" points="1138.68,-494.14 1145.66,-486.17 1135.23,-488.04 1138.68,-494.14"/>
<text text-anchor="middle" x="1157" y="-507.8" font-family="Times,serif" font-size="14.00">copy install</text>
</g>
<!-- LANGBUILD_TAR -->
<g id="node22" class="node">
<title>LANGBUILD_TAR</title>
<polygon fill="royalblue" stroke="black" points="1660,-52 1472,-52 1472,-16 1666,-16 1666,-46 1660,-52"/>
<polyline fill="none" stroke="black" points="1660,-52 1660,-46 "/>
<polyline fill="none" stroke="black" points="1666,-46 1660,-46 "/>
<text text-anchor="middle" x="1569" y="-30.3" font-family="Times,serif" font-size="14.00">docker_&lt;lang&gt;_build.tar</text>
</g>
<!-- LANGBUILD_IMG&#45;&gt;LANGBUILD_TAR -->
<g id="edge22" class="edge">
<title>LANGBUILD_IMG&#45;&gt;LANGBUILD_TAR</title>
<path fill="none" stroke="red" d="M1164.59,-551.6C1263.24,-540.67 1392.65,-520.25 1432,-486 1498.84,-427.82 1433.37,-359.18 1497,-297.5 1516.38,-278.71 1538.38,-300.76 1555,-279.5 1605.01,-215.53 1588.19,-110.92 1576.43,-61.92"/>
<polygon fill="red" stroke="red" points="1579.78,-60.91 1573.95,-52.07 1572.99,-62.62 1579.78,-60.91"/>
<text text-anchor="middle" x="1623.5" y="-301.3" font-family="Times,serif" font-size="14.00">make save_&lt;distro&gt;_&lt;lang&gt;_build</text>
</g>
<!-- LANGTEST_TAR -->
<g id="node23" class="node">
<title>LANGTEST_TAR</title>
<polygon fill="royalblue" stroke="black" points="412,-52 232,-52 232,-16 418,-16 418,-46 412,-52"/>
<polyline fill="none" stroke="black" points="412,-52 412,-46 "/>
<polyline fill="none" stroke="black" points="418,-46 412,-46 "/>
<text text-anchor="middle" x="325" y="-30.3" font-family="Times,serif" font-size="14.00">docker_&lt;lang&gt;_test.tar</text>
</g>
<!-- LANGTEST_IMG&#45;&gt;LANGTEST_TAR -->
<g id="edge23" class="edge">
<title>LANGTEST_IMG&#45;&gt;LANGTEST_TAR</title>
<path fill="none" stroke="red" d="M804.32,-450.67C630.81,-436.88 325,-405.74 325,-357.62 325,-357.62 325,-357.62 325,-149.12 325,-119.36 325,-85.24 325,-62.11"/>
<polygon fill="red" stroke="red" points="328.5,-62.01 325,-52.01 321.5,-62.02 328.5,-62.01"/>
<text text-anchor="middle" x="447" y="-249.68" font-family="Times,serif" font-size="14.00">make save_&lt;distro&gt;_&lt;lang&gt;_test</text>
</g>
<!-- LANGINSTALLENV_IMG&#45;&gt;LANGINSTALLDEVEL_IMG -->
<g id="edge9" class="edge">
<title>LANGINSTALLENV_IMG&#45;&gt;LANGINSTALLDEVEL_IMG</title>
<path fill="none" stroke="black" d="M1164.53,-433.59C1147.84,-420.18 1127.18,-403.57 1109.43,-389.31"/>
<polygon fill="black" stroke="black" points="1111.49,-386.48 1101.51,-382.94 1107.11,-391.93 1111.49,-386.48"/>
</g>
<!-- LANGINSTALLENV_TAR -->
<g id="node24" class="node">
<title>LANGINSTALLENV_TAR</title>
<polygon fill="royalblue" stroke="black" points="1447.5,-52 1220.5,-52 1220.5,-16 1453.5,-16 1453.5,-46 1447.5,-52"/>
<polyline fill="none" stroke="black" points="1447.5,-52 1447.5,-46 "/>
<polyline fill="none" stroke="black" points="1453.5,-46 1447.5,-46 "/>
<text text-anchor="middle" x="1337" y="-30.3" font-family="Times,serif" font-size="14.00">docker_&lt;lang&gt;_install_env.tar</text>
</g>
<!-- LANGINSTALLENV_IMG&#45;&gt;LANGINSTALLENV_TAR -->
<g id="edge24" class="edge">
<title>LANGINSTALLENV_IMG&#45;&gt;LANGINSTALLENV_TAR</title>
<path fill="none" stroke="red" d="M1207.1,-433.49C1213.22,-418.85 1220.64,-399.98 1226,-382.75 1247.06,-315.01 1220.42,-284.72 1262,-227.25 1287.6,-191.86 1323.24,-213.53 1346,-176.25 1367.3,-141.35 1357.11,-92.15 1347.37,-61.98"/>
<polygon fill="red" stroke="red" points="1350.55,-60.48 1343.99,-52.16 1343.93,-62.75 1350.55,-60.48"/>
<text text-anchor="middle" x="1408.5" y="-249.68" font-family="Times,serif" font-size="14.00">make save_&lt;distro&gt;_&lt;lang&gt;_install_env</text>
</g>
<!-- LANGINSTALLBUILD_IMG -->
<g id="node16" class="node">
<title>LANGINSTALLBUILD_IMG</title>
<path fill="royalblue" stroke="black" d="M1212,-274.85C1212,-277.49 1146.56,-279.63 1066,-279.63 985.44,-279.63 920,-277.49 920,-274.85 920,-274.85 920,-231.9 920,-231.9 920,-229.26 985.44,-227.12 1066,-227.12 1146.56,-227.12 1212,-229.26 1212,-231.9 1212,-231.9 1212,-274.85 1212,-274.85"/>
<path fill="none" stroke="black" d="M1212,-274.85C1212,-272.22 1146.56,-270.08 1066,-270.08 985.44,-270.08 920,-272.22 920,-274.85"/>
<text text-anchor="middle" x="1066" y="-257.18" font-family="Times,serif" font-size="14.00">ortools:&lt;distro&gt;_&lt;lang&gt;_install_build</text>
<text text-anchor="middle" x="1066" y="-242.18" font-family="Times,serif" font-size="14.00">install_build</text>
</g>
<!-- LANGINSTALLDEVEL_IMG&#45;&gt;LANGINSTALLBUILD_IMG -->
<g id="edge10" class="edge">
<title>LANGINSTALLDEVEL_IMG&#45;&gt;LANGINSTALLBUILD_IMG</title>
<path fill="none" stroke="black" d="M1069,-330.34C1068.52,-318.13 1067.93,-303.29 1067.41,-289.97"/>
<polygon fill="black" stroke="black" points="1070.89,-289.55 1067,-279.69 1063.9,-289.82 1070.89,-289.55"/>
</g>
<!-- LANGINSTALLDEVEL_TAR -->
<g id="node25" class="node">
<title>LANGINSTALLDEVEL_TAR</title>
<polygon fill="royalblue" stroke="black" points="678,-52 436,-52 436,-16 684,-16 684,-46 678,-52"/>
<polyline fill="none" stroke="black" points="678,-52 678,-46 "/>
<polyline fill="none" stroke="black" points="684,-46 678,-46 "/>
<text text-anchor="middle" x="560" y="-30.3" font-family="Times,serif" font-size="14.00">docker_&lt;lang&gt;_install_devel.tar</text>
</g>
<!-- LANGINSTALLDEVEL_IMG&#45;&gt;LANGINSTALLDEVEL_TAR -->
<g id="edge25" class="edge">
<title>LANGINSTALLDEVEL_IMG&#45;&gt;LANGINSTALLDEVEL_TAR</title>
<path fill="none" stroke="red" d="M930.71,-332.24C801.03,-307.44 621.14,-264.27 576,-209.25 541.8,-167.57 547.33,-99.93 553.94,-62.36"/>
<polygon fill="red" stroke="red" points="557.45,-62.65 555.89,-52.17 550.57,-61.33 557.45,-62.65"/>
<text text-anchor="middle" x="729" y="-198.05" font-family="Times,serif" font-size="14.00">make save_&lt;distro&gt;_&lt;lang&gt;_install_devel</text>
</g>
<!-- LANGINSTALLTEST_IMG -->
<g id="node17" class="node">
<title>LANGINSTALLTEST_IMG</title>
<path fill="royalblue" stroke="black" d="M1337,-171.6C1337,-174.24 1273.35,-176.38 1195,-176.38 1116.65,-176.38 1053,-174.24 1053,-171.6 1053,-171.6 1053,-128.65 1053,-128.65 1053,-126.01 1116.65,-123.87 1195,-123.87 1273.35,-123.87 1337,-126.01 1337,-128.65 1337,-128.65 1337,-171.6 1337,-171.6"/>
<path fill="none" stroke="black" d="M1337,-171.6C1337,-168.97 1273.35,-166.83 1195,-166.83 1116.65,-166.83 1053,-168.97 1053,-171.6"/>
<text text-anchor="middle" x="1195" y="-153.93" font-family="Times,serif" font-size="14.00">ortools:&lt;distro&gt;_&lt;lang&gt;_install_test</text>
<text text-anchor="middle" x="1195" y="-138.93" font-family="Times,serif" font-size="14.00">install_test</text>
</g>
<!-- LANGINSTALLBUILD_IMG&#45;&gt;LANGINSTALLTEST_IMG -->
<g id="edge11" class="edge">
<title>LANGINSTALLBUILD_IMG&#45;&gt;LANGINSTALLTEST_IMG</title>
<path fill="none" stroke="black" d="M1098.22,-227.09C1115.3,-213.68 1136.46,-197.07 1154.63,-182.81"/>
<polygon fill="black" stroke="black" points="1157.04,-185.37 1162.74,-176.44 1152.72,-179.86 1157.04,-185.37"/>
</g>
<!-- LANGINSTALLBUILD_TAR -->
<g id="node26" class="node">
<title>LANGINSTALLBUILD_TAR</title>
<polygon fill="royalblue" stroke="black" points="941.5,-52 702.5,-52 702.5,-16 947.5,-16 947.5,-46 941.5,-52"/>
<polyline fill="none" stroke="black" points="941.5,-52 941.5,-46 "/>
<polyline fill="none" stroke="black" points="947.5,-46 941.5,-46 "/>
<text text-anchor="middle" x="825" y="-30.3" font-family="Times,serif" font-size="14.00">docker_&lt;lang&gt;_install_build.tar</text>
</g>
<!-- LANGINSTALLBUILD_IMG&#45;&gt;LANGINSTALLBUILD_TAR -->
<g id="edge26" class="edge">
<title>LANGINSTALLBUILD_IMG&#45;&gt;LANGINSTALLBUILD_TAR</title>
<path fill="none" stroke="red" d="M998.46,-227.2C965.04,-215.61 923.84,-202.61 886,-194.25 854.08,-187.2 761.66,-200.74 740,-176.25 707.3,-139.28 757.23,-88.02 793.31,-58.5"/>
<polygon fill="red" stroke="red" points="795.58,-61.16 801.21,-52.19 791.21,-55.69 795.58,-61.16"/>
<text text-anchor="middle" x="892" y="-146.43" font-family="Times,serif" font-size="14.00">make save_&lt;distro&gt;_&lt;lang&gt;_install_build</text>
</g>
<!-- LANGINSTALLTEST_TAR -->
<g id="node27" class="node">
<title>LANGINSTALLTEST_TAR</title>
<polygon fill="royalblue" stroke="black" points="1196.5,-52 965.5,-52 965.5,-16 1202.5,-16 1202.5,-46 1196.5,-52"/>
<polyline fill="none" stroke="black" points="1196.5,-52 1196.5,-46 "/>
<polyline fill="none" stroke="black" points="1202.5,-46 1196.5,-46 "/>
<text text-anchor="middle" x="1084" y="-30.3" font-family="Times,serif" font-size="14.00">docker_&lt;lang&gt;_install_test.tar</text>
</g>
<!-- LANGINSTALLTEST_IMG&#45;&gt;LANGINSTALLTEST_TAR -->
<g id="edge27" class="edge">
<title>LANGINSTALLTEST_IMG&#45;&gt;LANGINSTALLTEST_TAR</title>
<path fill="none" stroke="red" d="M1076.36,-125.18C1068.58,-119.95 1061.62,-113.63 1056,-106 1045.98,-92.4 1052.89,-74.73 1062.35,-60.42"/>
<polygon fill="red" stroke="red" points="1065.41,-62.16 1068.44,-52.01 1059.74,-58.05 1065.41,-62.16"/>
<text text-anchor="middle" x="1203.5" y="-94.8" font-family="Times,serif" font-size="14.00">make save_&lt;distro&gt;_&lt;lang&gt;_install_test</text>
</g>
</g>
</svg>
