<?xml version="1.0" encoding="UTF-8" standalone="no"?>
<!DOCTYPE svg PUBLIC "-//W3C//DTD SVG 1.1//EN"
 "http://www.w3.org/Graphics/SVG/1.1/DTD/svg11.dtd">
<!-- Generated by graphviz version 2.44.1 (0)
 -->
<!-- Title: CMake Pages: 1 -->
<svg width="629pt" height="940pt"
 viewBox="0.00 0.00 629.00 940.00" xmlns="http://www.w3.org/2000/svg" xmlns:xlink="http://www.w3.org/1999/xlink">
<g id="graph0" class="graph" transform="scale(1 1) rotate(0) translate(4 936)">
<title>CMake</title>
<polygon fill="white" stroke="transparent" points="-4,4 -4,-936 625,-936 625,4 -4,4"/>
<g id="clust1" class="cluster">
<title>clusterLinux</title>
<polygon fill="none" stroke="black" points="8,-8 8,-924 613,-924 613,-8 8,-8"/>
<text text-anchor="middle" x="310.5" y="-908.8" font-family="Times,serif" font-size="14.00">Host</text>
</g>
<g id="clust2" class="cluster">
<title>clusterCPP</title>
<polygon fill="none" stroke="royalblue" points="16,-638 16,-893 434,-893 434,-638 16,-638"/>
<text text-anchor="middle" x="225" y="-877.8" font-family="Times,serif" font-size="14.00">C++</text>
</g>
<g id="clust3" class="cluster">
<title>clusterDOTNET</title>
<polygon fill="none" stroke="darkviolet" points="76,-16 76,-605 525,-605 525,-16 76,-16"/>
<text text-anchor="middle" x="300.5" y="-589.8" font-family="Times,serif" font-size="14.00">.Net</text>
</g>
<!-- SWIG -->
<g id="node1" class="node">
<title>SWIG</title>
<polygon fill="white" stroke="black" points="599,-772 477,-772 477,-736 605,-736 605,-766 599,-772"/>
<polyline fill="none" stroke="black" points="599,-772 599,-766 "/>
<polyline fill="none" stroke="black" points="605,-766 599,-766 "/>
<text text-anchor="middle" x="541" y="-750.3" font-family="Times,serif" font-size="14.00">csharp/ortools.i</text>
</g>
<!-- WRAPPER_CPP -->
<g id="node5" class="node">
<title>WRAPPER_CPP</title>
<polygon fill="royalblue" stroke="black" points="419.5,-772 242.5,-772 242.5,-736 425.5,-736 425.5,-766 419.5,-772"/>
<polyline fill="none" stroke="black" points="419.5,-772 419.5,-766 "/>
<polyline fill="none" stroke="black" points="425.5,-766 419.5,-766 "/>
<text text-anchor="middle" x="334" y="-750.3" font-family="Times,serif" font-size="14.00">ortools_csharp_wrap.cc</text>
</g>
<!-- SWIG&#45;&gt;WRAPPER_CPP -->
<g id="edge6" class="edge">
<title>SWIG&#45;&gt;WRAPPER_CPP</title>
<path fill="none" stroke="black" stroke-width="2" d="M476.97,-754C463.92,-754 449.87,-754 435.87,-754"/>
<polygon fill="black" stroke="black" stroke-width="2" points="435.7,-750.5 425.7,-754 435.7,-757.5 435.7,-750.5"/>
<text text-anchor="middle" x="451.25" y="-760.8" font-family="Times,serif" font-size="14.00">swig</text>
</g>
<!-- CSWRP -->
<g id="node8" class="node">
<title>CSWRP</title>
<polygon fill="darkviolet" stroke="black" points="369,-573 289,-573 289,-537 375,-537 375,-567 369,-573"/>
<polyline fill="none" stroke="black" points="369,-573 369,-567 "/>
<polyline fill="none" stroke="black" points="375,-567 369,-567 "/>
<text text-anchor="middle" x="332" y="-551.3" font-family="Times,serif" font-size="14.00">ortools.cs</text>
</g>
<!-- SWIG&#45;&gt;CSWRP -->
<g id="edge18" class="edge">
<title>SWIG&#45;&gt;CSWRP</title>
<path fill="none" stroke="black" stroke-width="2" d="M528.01,-735.62C509.66,-711.81 474.33,-668.51 438,-638 416.75,-620.15 407.06,-621.83 385,-605 375.14,-597.48 364.97,-588.44 356.22,-580.19"/>
<polygon fill="black" stroke="black" stroke-width="2" points="358.57,-577.6 348.93,-573.2 353.73,-582.65 358.57,-577.6"/>
<text text-anchor="middle" x="500" y="-661.3" font-family="Times,serif" font-size="14.00">swig</text>
</g>
<!-- PKG -->
<g id="node2" class="node">
<title>PKG</title>
<polygon fill="royalblue" stroke="black" points="426,-862 278,-862 274,-858 274,-824 422,-824 426,-828 426,-862"/>
<polyline fill="none" stroke="black" points="422,-858 274,-858 "/>
<polyline fill="none" stroke="black" points="422,-858 422,-824 "/>
<polyline fill="none" stroke="black" points="422,-858 426,-862 "/>
<text text-anchor="middle" x="350" y="-846.8" font-family="Times,serif" font-size="14.00">C++ dev packages</text>
<text text-anchor="middle" x="350" y="-831.8" font-family="Times,serif" font-size="14.00">e.g. cmake, g++</text>
</g>
<!-- CPP -->
<g id="node3" class="node">
<title>CPP</title>
<polygon fill="royalblue" stroke="black" points="249.5,-861 102.5,-861 102.5,-825 255.5,-825 255.5,-855 249.5,-861"/>
<polyline fill="none" stroke="black" points="249.5,-861 249.5,-855 "/>
<polyline fill="none" stroke="black" points="255.5,-855 249.5,-855 "/>
<text text-anchor="middle" x="179" y="-839.3" font-family="Times,serif" font-size="14.00">ortools.h/ortools.cc</text>
</g>
<!-- CPP&#45;&gt;SWIG -->
<g id="edge5" class="edge">
<title>CPP&#45;&gt;SWIG</title>
<path fill="none" stroke="black" stroke-dasharray="5,2" d="M250.09,-824.92C312.63,-809.88 403.36,-788.08 466.81,-772.83"/>
<polygon fill="black" stroke="black" points="467.85,-776.18 476.75,-770.44 466.21,-769.37 467.85,-776.18"/>
<text text-anchor="middle" x="407" y="-794.8" font-family="Times,serif" font-size="14.00">include</text>
</g>
<!-- LIB -->
<g id="node4" class="node">
<title>LIB</title>
<polygon fill="royalblue" stroke="black" points="224,-773 24,-773 24,-769 20,-769 20,-765 24,-765 24,-743 20,-743 20,-739 24,-739 24,-735 224,-735 224,-773"/>
<polyline fill="none" stroke="black" points="24,-769 28,-769 28,-765 24,-765 "/>
<polyline fill="none" stroke="black" points="24,-743 28,-743 28,-739 24,-739 "/>
<text text-anchor="middle" x="124" y="-757.8" font-family="Times,serif" font-size="14.00">libortools.so</text>
<text text-anchor="middle" x="124" y="-742.8" font-family="Times,serif" font-size="14.00">runtimes/linux&#45;x64/native</text>
</g>
<!-- CPP&#45;&gt;LIB -->
<g id="edge2" class="edge">
<title>CPP&#45;&gt;LIB</title>
<path fill="none" stroke="black" stroke-width="2" d="M168.13,-824.81C160.38,-812.54 149.8,-795.8 140.94,-781.79"/>
<polygon fill="black" stroke="black" stroke-width="2" points="143.71,-779.63 135.41,-773.05 137.8,-783.37 143.71,-779.63"/>
<text text-anchor="middle" x="183" y="-794.8" font-family="Times,serif" font-size="14.00">g++, ld</text>
</g>
<!-- CPP&#45;&gt;WRAPPER_CPP -->
<g id="edge1" class="edge">
<title>CPP&#45;&gt;WRAPPER_CPP</title>
<path fill="none" stroke="black" stroke-dasharray="5,2" d="M201.62,-824.78C215.92,-814.31 235.03,-801.07 253,-791 262.26,-785.81 272.41,-780.81 282.29,-776.26"/>
<polygon fill="black" stroke="black" points="283.97,-779.35 291.65,-772.05 281.1,-772.96 283.97,-779.35"/>
<text text-anchor="middle" x="279" y="-794.8" font-family="Times,serif" font-size="14.00">include</text>
</g>
<!-- WRAPPER_LIB -->
<g id="node6" class="node">
<title>WRAPPER_LIB</title>
<polygon fill="royalblue" stroke="black" points="425.5,-684 148.5,-684 148.5,-680 144.5,-680 144.5,-676 148.5,-676 148.5,-654 144.5,-654 144.5,-650 148.5,-650 148.5,-646 425.5,-646 425.5,-684"/>
<polyline fill="none" stroke="black" points="148.5,-680 152.5,-680 152.5,-676 148.5,-676 "/>
<polyline fill="none" stroke="black" points="148.5,-654 152.5,-654 152.5,-650 148.5,-650 "/>
<text text-anchor="middle" x="287" y="-668.8" font-family="Times,serif" font-size="14.00">Google.OrTools.runtime.linux&#45;x64.so</text>
<text text-anchor="middle" x="287" y="-653.8" font-family="Times,serif" font-size="14.00">runtimes/linux&#45;x64/native</text>
</g>
<!-- LIB&#45;&gt;WRAPPER_LIB -->
<g id="edge4" class="edge">
<title>LIB&#45;&gt;WRAPPER_LIB</title>
<path fill="none" stroke="black" stroke-dasharray="5,2" d="M157.77,-734.97C182.91,-721.56 217.39,-703.15 244.42,-688.73"/>
<polygon fill="black" stroke="black" points="246.1,-691.8 253.27,-684 242.8,-685.62 246.1,-691.8"/>
<text text-anchor="middle" x="222" y="-705.8" font-family="Times,serif" font-size="14.00">ld</text>
</g>
<!-- CSPROJ -->
<g id="node9" class="node">
<title>CSPROJ</title>
<polygon fill="darkviolet" stroke="black" points="383.5,-485 84.5,-485 84.5,-449 389.5,-449 389.5,-479 383.5,-485"/>
<polyline fill="none" stroke="black" points="383.5,-485 383.5,-479 "/>
<polyline fill="none" stroke="black" points="389.5,-479 383.5,-479 "/>
<text text-anchor="middle" x="237" y="-463.3" font-family="Times,serif" font-size="14.00">Google.OrTools.runtime.linux&#45;x64.csproj</text>
</g>
<!-- LIB&#45;&gt;CSPROJ -->
<g id="edge20" class="edge">
<title>LIB&#45;&gt;CSPROJ</title>
<path fill="none" stroke="black" stroke-dasharray="5,2" d="M124.24,-735C125.02,-711.95 128,-671.05 139,-638 157.38,-582.75 194.91,-525.49 217.82,-493.54"/>
<polygon fill="black" stroke="black" points="220.82,-495.37 223.86,-485.22 215.15,-491.25 220.82,-495.37"/>
<text text-anchor="middle" x="178" y="-616.8" font-family="Times,serif" font-size="14.00">Content</text>
</g>
<!-- NUPKG -->
<g id="node11" class="node">
<title>NUPKG</title>
<polygon fill="darkviolet" stroke="black" points="428.5,-309 425.5,-313 404.5,-313 401.5,-309 123.5,-309 123.5,-273 428.5,-273 428.5,-309"/>
<text text-anchor="middle" x="276" y="-287.3" font-family="Times,serif" font-size="14.00">Google.OrTools.runtime.linux&#45;x64.nupkg</text>
</g>
<!-- LIB&#45;&gt;NUPKG -->
<g id="edge22" class="edge">
<title>LIB&#45;&gt;NUPKG</title>
<path fill="none" stroke="black" stroke-dasharray="5,2" d="M102.03,-734.68C85.26,-718.54 65,-693.37 65,-666 65,-666 65,-666 65,-378 65,-346.23 85.76,-325.93 114.27,-313.03"/>
<polygon fill="black" stroke="black" points="115.87,-316.15 123.78,-309.1 113.2,-309.69 115.87,-316.15"/>
<text text-anchor="middle" x="82" y="-506.8" font-family="Times,serif" font-size="14.00">pack</text>
</g>
<!-- WRAPPER_CPP&#45;&gt;WRAPPER_LIB -->
<g id="edge3" class="edge">
<title>WRAPPER_CPP&#45;&gt;WRAPPER_LIB</title>
<path fill="none" stroke="black" stroke-width="2" d="M283.67,-735.89C275.84,-731.01 268.77,-724.82 264,-717 259.37,-709.41 260.99,-700.73 264.99,-692.7"/>
<polygon fill="black" stroke="black" stroke-width="2" points="268.07,-694.37 270.3,-684.02 262.1,-690.72 268.07,-694.37"/>
<text text-anchor="middle" x="292" y="-705.8" font-family="Times,serif" font-size="14.00">g++, ld</text>
</g>
<!-- WRAPPER_LIB&#45;&gt;CSWRP -->
<g id="edge19" class="edge">
<title>WRAPPER_LIB&#45;&gt;CSWRP</title>
<path fill="none" stroke="black" stroke-dasharray="5,2" d="M276.12,-645.66C271.7,-635.77 268.55,-623.48 273,-613 278.45,-600.15 288.38,-588.78 298.55,-579.65"/>
<polygon fill="black" stroke="black" points="300.92,-582.23 306.31,-573.11 296.41,-576.88 300.92,-582.23"/>
<text text-anchor="middle" x="302" y="-616.8" font-family="Times,serif" font-size="14.00">PInvoke</text>
</g>
<!-- WRAPPER_LIB&#45;&gt;CSPROJ -->
<g id="edge21" class="edge">
<title>WRAPPER_LIB&#45;&gt;CSPROJ</title>
<path fill="none" stroke="black" stroke-dasharray="5,2" d="M257.73,-645.9C244.15,-635.73 229.41,-621.72 222,-605 206.21,-569.34 216.61,-523.56 226.24,-494.99"/>
<polygon fill="black" stroke="black" points="229.64,-495.89 229.71,-485.3 223.05,-493.54 229.64,-495.89"/>
<text text-anchor="middle" x="251" y="-551.3" font-family="Times,serif" font-size="14.00">Content</text>
</g>
<!-- WRAPPER_LIB&#45;&gt;NUPKG -->
<g id="edge23" class="edge">
<title>WRAPPER_LIB&#45;&gt;NUPKG</title>
<path fill="none" stroke="black" stroke-dasharray="5,2" d="M380.06,-645.97C442.6,-633.02 515.46,-615.98 526,-605 541.39,-588.97 536,-578.23 536,-556 536,-556 536,-556 536,-378 536,-346.73 467.36,-324.89 400.62,-311.05"/>
<polygon fill="black" stroke="black" points="401.29,-307.61 390.8,-309.06 399.91,-314.47 401.29,-307.61"/>
<text text-anchor="middle" x="553" y="-463.3" font-family="Times,serif" font-size="14.00">pack</text>
</g>
<!-- DOTNET_PKG -->
<g id="node7" class="node">
<title>DOTNET_PKG</title>
<polygon fill="darkviolet" stroke="black" points="516.5,-574 397.5,-574 393.5,-570 393.5,-536 512.5,-536 516.5,-540 516.5,-574"/>
<polyline fill="none" stroke="black" points="512.5,-570 393.5,-570 "/>
<polyline fill="none" stroke="black" points="512.5,-570 512.5,-536 "/>
<polyline fill="none" stroke="black" points="512.5,-570 516.5,-574 "/>
<text text-anchor="middle" x="455" y="-558.8" font-family="Times,serif" font-size="14.00">.Net SDK</text>
<text text-anchor="middle" x="455" y="-543.8" font-family="Times,serif" font-size="14.00">e.g. dotnet&#45;sdk</text>
</g>
<!-- CSWRP&#45;&gt;CSPROJ -->
<g id="edge7" class="edge">
<title>CSWRP&#45;&gt;CSPROJ</title>
<path fill="none" stroke="black" stroke-dasharray="5,2" d="M312.78,-536.6C298.65,-523.81 279.27,-506.27 263.65,-492.13"/>
<polygon fill="black" stroke="black" points="265.63,-489.2 255.87,-485.08 260.94,-494.39 265.63,-489.2"/>
<text text-anchor="middle" x="319.5" y="-506.8" font-family="Times,serif" font-size="14.00">Compile</text>
</g>
<!-- DLL -->
<g id="node10" class="node">
<title>DLL</title>
<polygon fill="darkviolet" stroke="black" points="517,-398 225,-398 225,-394 221,-394 221,-390 225,-390 225,-368 221,-368 221,-364 225,-364 225,-360 517,-360 517,-398"/>
<polyline fill="none" stroke="black" points="225,-394 229,-394 229,-390 225,-390 "/>
<polyline fill="none" stroke="black" points="225,-368 229,-368 229,-364 225,-364 "/>
<text text-anchor="middle" x="371" y="-382.8" font-family="Times,serif" font-size="14.00">Google.OrTools.dll</text>
<text text-anchor="middle" x="371" y="-367.8" font-family="Times,serif" font-size="14.00">runtimes/linux&#45;x64/lib/netstandard2.0/</text>
</g>
<!-- CSPROJ&#45;&gt;DLL -->
<g id="edge8" class="edge">
<title>CSPROJ&#45;&gt;DLL</title>
<path fill="none" stroke="black" stroke-width="2" d="M263.79,-448.8C284.02,-435.82 312.01,-417.86 334.31,-403.54"/>
<polygon fill="black" stroke="black" stroke-width="2" points="336.34,-406.4 342.87,-398.06 332.56,-400.51 336.34,-406.4"/>
<text text-anchor="middle" x="356" y="-419.8" font-family="Times,serif" font-size="14.00">dotnet build</text>
</g>
<!-- CSPROJ&#45;&gt;NUPKG -->
<g id="edge10" class="edge">
<title>CSPROJ&#45;&gt;NUPKG</title>
<path fill="none" stroke="black" stroke-width="2" d="M197.71,-448.94C157.75,-429.15 105.13,-394.77 131,-360 147.62,-337.66 165.48,-353.14 191,-342 208.45,-334.38 226.77,-323.95 241.92,-314.59"/>
<polygon fill="black" stroke="black" stroke-width="2" points="243.84,-317.51 250.44,-309.23 240.11,-311.59 243.84,-317.51"/>
<text text-anchor="middle" x="173.5" y="-375.3" font-family="Times,serif" font-size="14.00">dotnet pack</text>
</g>
<!-- FOO_REF -->
<g id="node12" class="node">
<title>FOO_REF</title>
<polygon fill="darkviolet" stroke="black" points="239.5,-236 84.5,-236 84.5,-232 80.5,-232 80.5,-228 84.5,-228 84.5,-206 80.5,-206 80.5,-202 84.5,-202 84.5,-198 239.5,-198 239.5,-236"/>
<polyline fill="none" stroke="black" points="84.5,-232 88.5,-232 88.5,-228 84.5,-228 "/>
<polyline fill="none" stroke="black" points="84.5,-206 88.5,-206 88.5,-202 84.5,-202 "/>
<text text-anchor="middle" x="162" y="-220.8" font-family="Times,serif" font-size="14.00">Google.OrTools.dll</text>
<text text-anchor="middle" x="162" y="-205.8" font-family="Times,serif" font-size="14.00">ref/netstandard2.0/</text>
</g>
<!-- CSPROJ&#45;&gt;FOO_REF -->
<g id="edge11" class="edge">
<title>CSPROJ&#45;&gt;FOO_REF</title>
<path fill="none" stroke="black" stroke-width="2" d="M175.67,-448.96C164.48,-444.22 153.4,-438.31 144,-431 109.01,-403.79 107.25,-385.55 99,-342 93.16,-311.17 99.11,-300.63 114,-273 119.62,-262.58 127.52,-252.44 135.3,-243.77"/>
<polygon fill="black" stroke="black" stroke-width="2" points="138.06,-245.94 142.34,-236.24 132.95,-241.15 138.06,-245.94"/>
<text text-anchor="middle" x="143" y="-330.8" font-family="Times,serif" font-size="14.00">dotnet build</text>
</g>
<!-- DLL&#45;&gt;NUPKG -->
<g id="edge9" class="edge">
<title>DLL&#45;&gt;NUPKG</title>
<path fill="none" stroke="black" stroke-dasharray="5,2" d="M350.85,-359.76C336.75,-347 317.78,-329.82 302.46,-315.95"/>
<polygon fill="black" stroke="black" points="304.59,-313.16 294.83,-309.04 299.89,-318.35 304.59,-313.16"/>
<text text-anchor="middle" x="346" y="-330.8" font-family="Times,serif" font-size="14.00">pack</text>
</g>
<!-- NUPKG&#45;&gt;FOO_REF -->
<g id="edge17" class="edge">
<title>NUPKG&#45;&gt;FOO_REF</title>
</g>
<!-- FOO_CSPROJ -->
<g id="node13" class="node">
<title>FOO_CSPROJ</title>
<polygon fill="darkviolet" stroke="black" points="369.5,-147 202.5,-147 202.5,-111 375.5,-111 375.5,-141 369.5,-147"/>
<polyline fill="none" stroke="black" points="369.5,-147 369.5,-141 "/>
<polyline fill="none" stroke="black" points="375.5,-141 369.5,-141 "/>
<text text-anchor="middle" x="289" y="-125.3" font-family="Times,serif" font-size="14.00">Google.OrTools.csproj</text>
</g>
<!-- NUPKG&#45;&gt;FOO_CSPROJ -->
<g id="edge16" class="edge">
<title>NUPKG&#45;&gt;FOO_CSPROJ</title>
<path fill="none" stroke="black" stroke-dasharray="5,2" d="M277.39,-272.88C279.63,-245.35 284.04,-191.01 286.74,-157.85"/>
<polygon fill="black" stroke="black" points="290.26,-157.74 287.58,-147.48 283.28,-157.17 290.26,-157.74"/>
<text text-anchor="middle" x="348.5" y="-213.3" font-family="Times,serif" font-size="14.00">PackageReference</text>
</g>
<!-- FOO_NUPKG -->
<g id="node14" class="node">
<title>FOO_NUPKG</title>
<polygon fill="darkviolet" stroke="black" points="376,-60 373,-64 352,-64 349,-60 202,-60 202,-24 376,-24 376,-60"/>
<text text-anchor="middle" x="289" y="-38.3" font-family="Times,serif" font-size="14.00">Google.OrTools.nupkg</text>
</g>
<!-- NUPKG&#45;&gt;FOO_NUPKG -->
<g id="edge14" class="edge">
<title>NUPKG&#45;&gt;FOO_NUPKG</title>
<path fill="none" stroke="black" stroke-dasharray="5,2" d="M368.81,-272.85C388.12,-264.86 406.17,-253.15 418,-236 446.98,-193.97 415.8,-117.86 378,-78 373.32,-73.06 367.85,-68.81 361.98,-65.15"/>
<polygon fill="black" stroke="black" points="363.55,-62.02 353.12,-60.19 360.14,-68.13 363.55,-62.02"/>
<text text-anchor="middle" x="477" y="-168.8" font-family="Times,serif" font-size="14.00">dependencies</text>
</g>
<!-- FOO_REF&#45;&gt;FOO_CSPROJ -->
<g id="edge12" class="edge">
<title>FOO_REF&#45;&gt;FOO_CSPROJ</title>
<path fill="none" stroke="black" stroke-dasharray="5,2" d="M177.2,-197.86C186.7,-187.31 199.64,-174.31 213,-165 220.02,-160.11 227.84,-155.61 235.72,-151.59"/>
<polygon fill="black" stroke="black" points="237.49,-154.62 244.94,-147.09 234.42,-148.33 237.49,-154.62"/>
<text text-anchor="middle" x="242" y="-168.8" font-family="Times,serif" font-size="14.00">Content</text>
</g>
<!-- FOO_REF&#45;&gt;FOO_NUPKG -->
<g id="edge15" class="edge">
<title>FOO_REF&#45;&gt;FOO_NUPKG</title>
<path fill="none" stroke="black" stroke-dasharray="5,2" d="M155.89,-197.78C149.61,-175.56 142.85,-137.68 159,-111 172.04,-89.46 194.4,-74.41 216.94,-64.06"/>
<polygon fill="black" stroke="black" points="218.45,-67.22 226.24,-60.04 215.67,-60.79 218.45,-67.22"/>
<text text-anchor="middle" x="176" y="-125.3" font-family="Times,serif" font-size="14.00">pack</text>
</g>
<!-- FOO_CSPROJ&#45;&gt;FOO_NUPKG -->
<g id="edge13" class="edge">
<title>FOO_CSPROJ&#45;&gt;FOO_NUPKG</title>
<path fill="none" stroke="black" stroke-width="2" d="M289,-110.8C289,-99.16 289,-83.55 289,-70.24"/>
<polygon fill="black" stroke="black" stroke-width="2" points="292.5,-70.18 289,-60.18 285.5,-70.18 292.5,-70.18"/>
<text text-anchor="middle" x="331.5" y="-81.8" font-family="Times,serif" font-size="14.00">dotnet pack</text>
</g>
</g>
</svg>
