<?xml version="1.0" encoding="UTF-8" standalone="no"?>
<!DOCTYPE svg PUBLIC "-//W3C//DTD SVG 1.1//EN"
 "http://www.w3.org/Graphics/SVG/1.1/DTD/svg11.dtd">
<!-- Generated by graphviz version 2.38.0 (20140413.2041)
 -->
<!-- Title: Make Pages: 1 -->
<svg width="426pt" height="963pt"
 viewBox="0.00 0.00 426.00 963.00" xmlns="http://www.w3.org/2000/svg" xmlns:xlink="http://www.w3.org/1999/xlink">
<g id="graph0" class="graph" transform="scale(1 1) rotate(0) translate(4 959)">
<title>Make</title>
<polygon fill="white" stroke="none" points="-4,4 -4,-959 422,-959 422,4 -4,4"/>
<g id="clust1" class="cluster"><title>clusterLinux</title>
<polygon fill="none" stroke="black" points="8,-8 8,-947 410,-947 410,-8 8,-8"/>
<text text-anchor="middle" x="209" y="-931.8" font-family="Times,serif" font-size="14.00">Host</text>
</g>
<!-- CPP -->
<g id="node1" class="node"><title>CPP</title>
<polygon fill="royalblue" stroke="black" points="261,-916 145,-916 145,-880 267,-880 267,-910 261,-916"/>
<polyline fill="none" stroke="black" points="261,-916 261,-910 "/>
<polyline fill="none" stroke="black" points="267,-910 261,-910 "/>
<text text-anchor="middle" x="206" y="-894.3" font-family="Times,serif" font-size="14.00">ortools.h/ortools.cc</text>
</g>
<!-- SWIG -->
<g id="node2" class="node"><title>SWIG</title>
<polygon fill="white" stroke="black" points="197.5,-829 102.5,-829 102.5,-793 203.5,-793 203.5,-823 197.5,-829"/>
<polyline fill="none" stroke="black" points="197.5,-829 197.5,-823 "/>
<polyline fill="none" stroke="black" points="203.5,-823 197.5,-823 "/>
<text text-anchor="middle" x="153" y="-807.3" font-family="Times,serif" font-size="14.00">csharp/ortools.i</text>
</g>
<!-- CPP&#45;&gt;SWIG -->
<g id="edge1" class="edge"><title>CPP&#45;&gt;SWIG</title>
<path fill="none" stroke="black" stroke-dasharray="5,2" d="M195.275,-879.799C187.732,-867.702 177.508,-851.305 169.004,-837.667"/>
<polygon fill="black" stroke="black" points="171.97,-835.809 163.709,-829.175 166.03,-839.513 171.97,-835.809"/>
<text text-anchor="middle" x="202" y="-850.8" font-family="Times,serif" font-size="14.00">include</text>
</g>
<!-- LINUX_LIB -->
<g id="node3" class="node"><title>LINUX_LIB</title>
<polygon fill="royalblue" stroke="black" points="402,-742 244,-742 244,-738 240,-738 240,-734 244,-734 244,-712 240,-712 240,-708 244,-708 244,-704 402,-704 402,-742"/>
<polyline fill="none" stroke="black" points="244,-738 248,-738 248,-734 244,-734 "/>
<polyline fill="none" stroke="black" points="244,-712 248,-712 248,-708 244,-708 "/>
<text text-anchor="middle" x="323" y="-726.8" font-family="Times,serif" font-size="14.00">libortools.so</text>
<text text-anchor="middle" x="323" y="-711.8" font-family="Times,serif" font-size="14.00">runtimes/linux&#45;x64/native</text>
</g>
<!-- CPP&#45;&gt;LINUX_LIB -->
<g id="edge15" class="edge"><title>CPP&#45;&gt;LINUX_LIB</title>
<path fill="none" stroke="black" stroke-width="2" d="M217.646,-879.78C238.107,-849.525 280.638,-786.637 304.939,-750.705"/>
<polygon fill="black" stroke="black" stroke-width="2" points="307.997,-752.431 310.7,-742.187 302.199,-748.51 307.997,-752.431"/>
<text text-anchor="middle" x="300.5" y="-807.3" font-family="Times,serif" font-size="14.00">make_cc</text>
</g>
<!-- LINUX_CSWRP -->
<g id="node4" class="node"><title>LINUX_CSWRP</title>
<polygon fill="darkviolet" stroke="black" points="151.5,-564 88.5,-564 88.5,-528 157.5,-528 157.5,-558 151.5,-564"/>
<polyline fill="none" stroke="black" points="151.5,-564 151.5,-558 "/>
<polyline fill="none" stroke="black" points="157.5,-558 151.5,-558 "/>
<text text-anchor="middle" x="123" y="-542.3" font-family="Times,serif" font-size="14.00">ortools.cs</text>
</g>
<!-- SWIG&#45;&gt;LINUX_CSWRP -->
<g id="edge13" class="edge"><title>SWIG&#45;&gt;LINUX_CSWRP</title>
<path fill="none" stroke="black" stroke-width="2" d="M120.81,-792.879C102.533,-781.22 81.3026,-763.928 71,-742 63.8546,-726.792 59.3067,-655.208 73,-615 78.3736,-599.222 88.8435,-584.04 98.8199,-572.039"/>
<polygon fill="black" stroke="black" stroke-width="2" points="101.655,-574.112 105.579,-564.271 96.3745,-569.517 101.655,-574.112"/>
<text text-anchor="middle" x="78" y="-674.8" font-family="Times,serif" font-size="14.00">swig</text>
</g>
<!-- LINUX_CPPWRP -->
<g id="node5" class="node"><title>LINUX_CPPWRP</title>
<polygon fill="royalblue" stroke="black" points="220,-741 80,-741 80,-705 226,-705 226,-735 220,-741"/>
<polyline fill="none" stroke="black" points="220,-741 220,-735 "/>
<polyline fill="none" stroke="black" points="226,-735 220,-735 "/>
<text text-anchor="middle" x="153" y="-719.3" font-family="Times,serif" font-size="14.00">ortools_csharp_wrap.cc</text>
</g>
<!-- SWIG&#45;&gt;LINUX_CPPWRP -->
<g id="edge14" class="edge"><title>SWIG&#45;&gt;LINUX_CPPWRP</title>
<path fill="none" stroke="black" stroke-width="2" d="M153,-792.597C153,-780.746 153,-764.817 153,-751.292"/>
<polygon fill="black" stroke="black" stroke-width="2" points="156.5,-751.084 153,-741.084 149.5,-751.084 156.5,-751.084"/>
<text text-anchor="middle" x="166" y="-763.8" font-family="Times,serif" font-size="14.00">swig</text>
</g>
<!-- LINUX_LIBWRP -->
<g id="node6" class="node"><title>LINUX_LIBWRP</title>
<polygon fill="royalblue" stroke="black" points="306,-653 82,-653 82,-649 78,-649 78,-645 82,-645 82,-623 78,-623 78,-619 82,-619 82,-615 306,-615 306,-653"/>
<polyline fill="none" stroke="black" points="82,-649 86,-649 86,-645 82,-645 "/>
<polyline fill="none" stroke="black" points="82,-623 86,-623 86,-619 82,-619 "/>
<text text-anchor="middle" x="194" y="-637.8" font-family="Times,serif" font-size="14.00">Google.OrTools.runtime.linux&#45;x64.so</text>
<text text-anchor="middle" x="194" y="-622.8" font-family="Times,serif" font-size="14.00">runtimes/linux&#45;x64/native</text>
</g>
<!-- LINUX_LIB&#45;&gt;LINUX_LIBWRP -->
<g id="edge3" class="edge"><title>LINUX_LIB&#45;&gt;LINUX_LIBWRP</title>
<path fill="none" stroke="black" stroke-width="2" d="M296.271,-703.974C276.812,-690.85 250.272,-672.951 229.105,-658.676"/>
<polygon fill="black" stroke="black" stroke-width="2" points="230.942,-655.693 220.695,-653.003 227.028,-661.497 230.942,-655.693"/>
<text text-anchor="middle" x="271.5" y="-674.8" font-family="Times,serif" font-size="14.00">ld</text>
</g>
<!-- LINUX_CSPROJ -->
<g id="node7" class="node"><title>LINUX_CSPROJ</title>
<polygon fill="darkviolet" stroke="black" points="265.5,-477 26.5,-477 26.5,-441 271.5,-441 271.5,-471 265.5,-477"/>
<polyline fill="none" stroke="black" points="265.5,-477 265.5,-471 "/>
<polyline fill="none" stroke="black" points="271.5,-471 265.5,-471 "/>
<text text-anchor="middle" x="149" y="-455.3" font-family="Times,serif" font-size="14.00">Google.OrTools.runtime.linux&#45;x64.csproj</text>
</g>
<!-- LINUX_LIB&#45;&gt;LINUX_CSPROJ -->
<g id="edge6" class="edge"><title>LINUX_LIB&#45;&gt;LINUX_CSPROJ</title>
<path fill="none" stroke="black" stroke-dasharray="5,2" d="M325.152,-703.673C327.542,-675.359 328.398,-620.257 305,-582 277.796,-537.52 228.08,-502.927 192.069,-482.115"/>
<polygon fill="black" stroke="black" points="193.66,-478.994 183.231,-477.124 190.217,-485.089 193.66,-478.994"/>
<text text-anchor="middle" x="333.5" y="-585.8" font-family="Times,serif" font-size="14.00">Content</text>
</g>
<!-- LINUX_NUPKG -->
<g id="node9" class="node"><title>LINUX_NUPKG</title>
<polygon fill="darkviolet" stroke="black" points="371.5,-301 368.5,-305 347.5,-305 344.5,-301 126.5,-301 126.5,-265 371.5,-265 371.5,-301"/>
<text text-anchor="middle" x="249" y="-279.3" font-family="Times,serif" font-size="14.00">Google.OrTools.runtime.linux&#45;x64.nupkg</text>
</g>
<!-- LINUX_LIB&#45;&gt;LINUX_NUPKG -->
<g id="edge9" class="edge"><title>LINUX_LIB&#45;&gt;LINUX_NUPKG</title>
<path fill="none" stroke="black" stroke-dasharray="5,2" d="M331.547,-703.762C355.981,-649.019 421.646,-481.891 378,-352 370.695,-330.259 352.405,-315.39 331.82,-305.251"/>
<polygon fill="black" stroke="black" points="333.111,-301.994 322.558,-301.054 330.222,-308.37 333.111,-301.994"/>
<text text-anchor="middle" x="403" y="-498.8" font-family="Times,serif" font-size="14.00">pack</text>
</g>
<!-- LINUX_CSWRP&#45;&gt;LINUX_CSPROJ -->
<g id="edge5" class="edge"><title>LINUX_CSWRP&#45;&gt;LINUX_CSPROJ</title>
<path fill="none" stroke="black" stroke-dasharray="5,2" d="M128.261,-527.799C131.856,-516.047 136.692,-500.238 140.789,-486.842"/>
<polygon fill="black" stroke="black" points="144.168,-487.762 143.746,-477.175 137.474,-485.714 144.168,-487.762"/>
<text text-anchor="middle" x="162" y="-498.8" font-family="Times,serif" font-size="14.00">Compile</text>
</g>
<!-- LINUX_CPPWRP&#45;&gt;LINUX_LIBWRP -->
<g id="edge2" class="edge"><title>LINUX_CPPWRP&#45;&gt;LINUX_LIBWRP</title>
<path fill="none" stroke="black" stroke-width="2" d="M161.1,-704.812C166.827,-692.661 174.621,-676.122 181.185,-662.192"/>
<polygon fill="black" stroke="black" stroke-width="2" points="184.396,-663.589 185.493,-653.051 178.064,-660.605 184.396,-663.589"/>
<text text-anchor="middle" x="187" y="-674.8" font-family="Times,serif" font-size="14.00">g++</text>
</g>
<!-- LINUX_LIBWRP&#45;&gt;LINUX_CSWRP -->
<g id="edge4" class="edge"><title>LINUX_LIBWRP&#45;&gt;LINUX_CSWRP</title>
<path fill="none" stroke="black" stroke-dasharray="5,2" d="M162.447,-614.999C155.368,-609.872 148.373,-603.805 143,-597 137.563,-590.114 133.425,-581.557 130.364,-573.481"/>
<polygon fill="black" stroke="black" points="133.678,-572.355 127.149,-564.011 127.049,-574.605 133.678,-572.355"/>
<text text-anchor="middle" x="166" y="-585.8" font-family="Times,serif" font-size="14.00">PInvoke</text>
</g>
<!-- LINUX_LIBWRP&#45;&gt;LINUX_CSPROJ -->
<g id="edge7" class="edge"><title>LINUX_LIBWRP&#45;&gt;LINUX_CSPROJ</title>
<path fill="none" stroke="black" stroke-dasharray="5,2" d="M197.687,-614.95C202.365,-587.528 207.746,-534.4 189,-495 187.171,-491.157 184.703,-487.562 181.885,-484.251"/>
<polygon fill="black" stroke="black" points="184.319,-481.734 174.812,-477.058 179.328,-486.642 184.319,-481.734"/>
<text text-anchor="middle" x="223.5" y="-542.3" font-family="Times,serif" font-size="14.00">Content</text>
</g>
<!-- LINUX_LIBWRP&#45;&gt;LINUX_NUPKG -->
<g id="edge10" class="edge"><title>LINUX_LIBWRP&#45;&gt;LINUX_NUPKG</title>
<path fill="none" stroke="black" stroke-dasharray="5,2" d="M214.142,-614.716C253.702,-577.245 340.365,-487.055 371,-390 376.084,-373.894 379.555,-366.562 371,-352 358.533,-330.779 336.774,-315.696 315.05,-305.219"/>
<polygon fill="black" stroke="black" points="316.322,-301.953 305.77,-301.007 313.429,-308.327 316.322,-301.953"/>
<text text-anchor="middle" x="361" y="-455.3" font-family="Times,serif" font-size="14.00">pack</text>
</g>
<!-- LINUX_DLL -->
<g id="node8" class="node"><title>LINUX_DLL</title>
<polygon fill="darkviolet" stroke="black" points="362,-390 136,-390 136,-386 132,-386 132,-382 136,-382 136,-360 132,-360 132,-356 136,-356 136,-352 362,-352 362,-390"/>
<polyline fill="none" stroke="black" points="136,-386 140,-386 140,-382 136,-382 "/>
<polyline fill="none" stroke="black" points="136,-360 140,-360 140,-356 136,-356 "/>
<text text-anchor="middle" x="249" y="-374.8" font-family="Times,serif" font-size="14.00">Google.OrTools.dll</text>
<text text-anchor="middle" x="249" y="-359.8" font-family="Times,serif" font-size="14.00">runtimes/linux&#45;x64/lib/netstandard2.0/</text>
</g>
<!-- LINUX_CSPROJ&#45;&gt;LINUX_DLL -->
<g id="edge8" class="edge"><title>LINUX_CSPROJ&#45;&gt;LINUX_DLL</title>
<path fill="none" stroke="black" stroke-width="2" d="M169.236,-440.597C183.852,-428.027 203.802,-410.87 220.094,-396.859"/>
<polygon fill="black" stroke="black" stroke-width="2" points="222.458,-399.442 227.758,-390.268 217.894,-394.135 222.458,-399.442"/>
<text text-anchor="middle" x="237" y="-411.8" font-family="Times,serif" font-size="14.00">dotnet build</text>
</g>
<!-- LINUX_CSPROJ&#45;&gt;LINUX_NUPKG -->
<g id="edge12" class="edge"><title>LINUX_CSPROJ&#45;&gt;LINUX_NUPKG</title>
<path fill="none" stroke="black" stroke-width="2" d="M118.003,-440.966C84.882,-420.505 40.0522,-384.823 63,-352 66.8483,-346.496 135.309,-322.372 188.065,-304.412"/>
<polygon fill="black" stroke="black" stroke-width="2" points="189.369,-307.665 197.713,-301.136 187.119,-301.037 189.369,-307.665"/>
<text text-anchor="middle" x="95" y="-367.3" font-family="Times,serif" font-size="14.00">dotnet pack</text>
</g>
<!-- FOO_REF -->
<g id="node10" class="node"><title>FOO_REF</title>
<polygon fill="darkviolet" stroke="black" points="156.5,-228 33.5,-228 33.5,-224 29.5,-224 29.5,-220 33.5,-220 33.5,-198 29.5,-198 29.5,-194 33.5,-194 33.5,-190 156.5,-190 156.5,-228"/>
<polyline fill="none" stroke="black" points="33.5,-224 37.5,-224 37.5,-220 33.5,-220 "/>
<polyline fill="none" stroke="black" points="33.5,-198 37.5,-198 37.5,-194 33.5,-194 "/>
<text text-anchor="middle" x="95" y="-212.8" font-family="Times,serif" font-size="14.00">Google.OrTools.dll</text>
<text text-anchor="middle" x="95" y="-197.8" font-family="Times,serif" font-size="14.00">ref/netstandard2.0/</text>
</g>
<!-- LINUX_CSPROJ&#45;&gt;FOO_REF -->
<g id="edge16" class="edge"><title>LINUX_CSPROJ&#45;&gt;FOO_REF</title>
<path fill="none" stroke="black" stroke-width="2" d="M100.539,-440.937C90.7526,-436.103 81.0192,-430.159 73,-423 41.0429,-394.473 42.2899,-376.373 36,-334 30.6141,-297.717 53.014,-260.256 71.7459,-236.139"/>
<polygon fill="black" stroke="black" stroke-width="2" points="74.6065,-238.168 78.1671,-228.189 69.1609,-233.77 74.6065,-238.168"/>
<text text-anchor="middle" x="69" y="-322.8" font-family="Times,serif" font-size="14.00">dotnet build</text>
</g>
<!-- LINUX_DLL&#45;&gt;LINUX_NUPKG -->
<g id="edge11" class="edge"><title>LINUX_DLL&#45;&gt;LINUX_NUPKG</title>
<path fill="none" stroke="black" stroke-dasharray="5,2" d="M249,-351.762C249,-339.934 249,-324.316 249,-311.055"/>
<polygon fill="black" stroke="black" points="252.5,-311.042 249,-301.042 245.5,-311.042 252.5,-311.042"/>
<text text-anchor="middle" x="262" y="-322.8" font-family="Times,serif" font-size="14.00">pack</text>
</g>
<!-- LINUX_NUPKG&#45;&gt;FOO_REF -->
<g id="edge22" class="edge"><title>LINUX_NUPKG&#45;&gt;FOO_REF</title>
</g>
<!-- FOO_CSPROJ -->
<g id="node11" class="node"><title>FOO_CSPROJ</title>
<polygon fill="darkviolet" stroke="black" points="271,-139 135,-139 135,-103 277,-103 277,-133 271,-139"/>
<polyline fill="none" stroke="black" points="271,-139 271,-133 "/>
<polyline fill="none" stroke="black" points="277,-133 271,-133 "/>
<text text-anchor="middle" x="206" y="-117.3" font-family="Times,serif" font-size="14.00">Google.OrTools.csproj</text>
</g>
<!-- LINUX_NUPKG&#45;&gt;FOO_CSPROJ -->
<g id="edge21" class="edge"><title>LINUX_NUPKG&#45;&gt;FOO_CSPROJ</title>
<path fill="none" stroke="black" stroke-dasharray="5,2" d="M235.033,-264.607C227.741,-254.524 219.435,-241.236 215,-228 206.366,-202.233 204.684,-171.068 204.815,-149.223"/>
<polygon fill="black" stroke="black" points="208.318,-149.085 205.011,-139.019 201.319,-148.95 208.318,-149.085"/>
<text text-anchor="middle" x="265" y="-205.3" font-family="Times,serif" font-size="14.00">PackageReference</text>
</g>
<!-- FOO_NUPKG -->
<g id="node12" class="node"><title>FOO_NUPKG</title>
<polygon fill="darkviolet" stroke="black" points="277.5,-52 274.5,-56 253.5,-56 250.5,-52 134.5,-52 134.5,-16 277.5,-16 277.5,-52"/>
<text text-anchor="middle" x="206" y="-30.3" font-family="Times,serif" font-size="14.00">Google.OrTools.nupkg</text>
</g>
<!-- LINUX_NUPKG&#45;&gt;FOO_NUPKG -->
<g id="edge19" class="edge"><title>LINUX_NUPKG&#45;&gt;FOO_NUPKG</title>
<path fill="none" stroke="black" stroke-dasharray="5,2" d="M280.375,-264.903C293.65,-255.845 307.709,-243.386 315,-228 322.232,-212.738 317.705,-206.671 315,-190 305.972,-134.367 311.253,-112.293 274,-70 269.853,-65.2922 264.921,-61.1299 259.634,-57.4721"/>
<polygon fill="black" stroke="black" points="261.431,-54.4677 251.096,-52.1336 257.719,-60.403 261.431,-54.4677"/>
<text text-anchor="middle" x="348.5" y="-160.8" font-family="Times,serif" font-size="14.00">dependencies</text>
</g>
<!-- FOO_REF&#45;&gt;FOO_CSPROJ -->
<g id="edge17" class="edge"><title>FOO_REF&#45;&gt;FOO_CSPROJ</title>
<path fill="none" stroke="black" stroke-dasharray="5,2" d="M114.294,-189.838C125.315,-179.772 139.575,-167.257 153,-157 158.416,-152.862 164.306,-148.682 170.126,-144.721"/>
<polygon fill="black" stroke="black" points="172.165,-147.568 178.54,-139.105 168.279,-141.746 172.165,-147.568"/>
<text text-anchor="middle" x="174.5" y="-160.8" font-family="Times,serif" font-size="14.00">Content</text>
</g>
<!-- FOO_REF&#45;&gt;FOO_NUPKG -->
<g id="edge20" class="edge"><title>FOO_REF&#45;&gt;FOO_NUPKG</title>
<path fill="none" stroke="black" stroke-dasharray="5,2" d="M91.1234,-189.896C87.4002,-167.792 84.3856,-130.02 100,-103 111.716,-82.726 132.181,-67.5141 152.024,-56.6772"/>
<polygon fill="black" stroke="black" points="153.788,-59.7052 161.064,-52.0034 150.574,-53.4871 153.788,-59.7052"/>
<text text-anchor="middle" x="113" y="-117.3" font-family="Times,serif" font-size="14.00">pack</text>
</g>
<!-- FOO_CSPROJ&#45;&gt;FOO_NUPKG -->
<g id="edge18" class="edge"><title>FOO_CSPROJ&#45;&gt;FOO_NUPKG</title>
<path fill="none" stroke="black" stroke-width="2" d="M206,-102.799C206,-91.1626 206,-75.5479 206,-62.2368"/>
<polygon fill="black" stroke="black" stroke-width="2" points="209.5,-62.1754 206,-52.1754 202.5,-62.1755 209.5,-62.1754"/>
<text text-anchor="middle" x="238" y="-73.8" font-family="Times,serif" font-size="14.00">dotnet pack</text>
</g>
</g>
</svg>
