<?xml version="1.0" encoding="UTF-8" standalone="no"?>
<!DOCTYPE svg PUBLIC "-//W3C//DTD SVG 1.1//EN"
 "http://www.w3.org/Graphics/SVG/1.1/DTD/svg11.dtd">
<svg
   xmlns:svg="http://www.w3.org/2000/svg"
   xmlns="http://www.w3.org/2000/svg"
   version="1.1"
   width="700px"
   height="700px"
   viewBox="0 0 600 600">
<!-- Vector Context Id 0 type vector display expanded x 0 y 0 width 4 height 4 group 0 min 0 max 3 -->
<path d="M100,100 l0,400 M200,100 l0,400 M300,100 l0,400 M400,100 l0,400 M500,100 l0,400 M100,100 l400,0 M100,200 l400,0 M100,300 l400,0 M100,400 l400,0 M100,500 l400,0 " style="stroke-width:5;stroke:#000000;fill:none"/>
<text x="50.0" y="175.0" style="stroke:none;fill:#0000FF;font-family:Arial,sans-serif;font-size:50.0px;text-anchor:middle;">
0
</text>
<text x="50.0" y="275.0" style="stroke:none;fill:#0000FF;font-family:Arial,sans-serif;font-size:50.0px;text-anchor:middle;">
1
</text>
<text x="50.0" y="375.0" style="stroke:none;fill:#0000FF;font-family:Arial,sans-serif;font-size:50.0px;text-anchor:middle;">
2
</text>
<text x="50.0" y="475.0" style="stroke:none;fill:#0000FF;font-family:Arial,sans-serif;font-size:50.0px;text-anchor:middle;">
3
</text>
<text x="150.0" y="75.0" style="stroke:none;fill:#0000FF;font-family:Arial,sans-serif;font-size:50.0px;text-anchor:middle;">
1
</text>
<text x="250.0" y="75.0" style="stroke:none;fill:#0000FF;font-family:Arial,sans-serif;font-size:50.0px;text-anchor:middle;">
2
</text>
<text x="350.0" y="75.0" style="stroke:none;fill:#0000FF;font-family:Arial,sans-serif;font-size:50.0px;text-anchor:middle;">
3
</text>
<text x="450.0" y="75.0" style="stroke:none;fill:#0000FF;font-family:Arial,sans-serif;font-size:50.0px;text-anchor:middle;">
4
</text>
<rect x="100.0" y="200.0" width="100" height="100" style="stroke-width:5;stroke:#000000;fill:#FF0000;"/>
<rect x="100.0" y="100.0" width="100" height="100" style="stroke-width:5;stroke:#000000;fill:#008080;"/>
<rect x="100.0" y="300.0" width="100" height="100" style="stroke-width:5;stroke:#000000;fill:#008080;"/>
<rect x="100.0" y="400.0" width="100" height="100" style="stroke-width:5;stroke:#000000;fill:#008080;"/>
<rect x="200.0" y="400.0" width="100" height="100" style="stroke-width:5;stroke:#000000;fill:#FF0000;"/>
<rect x="200.0" y="100.0" width="100" height="100" style="stroke-width:5;stroke:#000000;fill:#008080;"/>
<rect x="200.0" y="200.0" width="100" height="100" style="stroke-width:5;stroke:#000000;fill:#008080;"/>
<rect x="200.0" y="300.0" width="100" height="100" style="stroke-width:5;stroke:#000000;fill:#008080;"/>
<rect x="300.0" y="100.0" width="100" height="100" style="stroke-width:5;stroke:#000000;fill:#FF0000;"/>
<rect x="300.0" y="200.0" width="100" height="100" style="stroke-width:5;stroke:#000000;fill:#008080;"/>
<rect x="300.0" y="300.0" width="100" height="100" style="stroke-width:5;stroke:#000000;fill:#008080;"/>
<rect x="300.0" y="400.0" width="100" height="100" style="stroke-width:5;stroke:#000000;fill:#008080;"/>
<rect x="400.0" y="300.0" width="100" height="100" style="stroke-width:5;stroke:#000000;fill:#FF0000;"/>
<rect x="400.0" y="100.0" width="100" height="100" style="stroke-width:5;stroke:#000000;fill:#008080;"/>
<rect x="400.0" y="200.0" width="100" height="100" style="stroke-width:5;stroke:#000000;fill:#008080;"/>
<rect x="400.0" y="400.0" width="100" height="100" style="stroke-width:5;stroke:#000000;fill:#008080;"/>
</svg>
