<?xml version="1.0" encoding="UTF-8" standalone="no"?>
<!DOCTYPE svg PUBLIC "-//W3C//DTD SVG 1.1//EN"
 "http://www.w3.org/Graphics/SVG/1.1/DTD/svg11.dtd">
<!-- Generated by graphviz version 2.43.0 (0)
 -->
<!-- Title: CMake Pages: 1 -->
<svg width="1424pt" height="1343pt"
 viewBox="0.00 0.00 1424.00 1343.00" xmlns="http://www.w3.org/2000/svg" xmlns:xlink="http://www.w3.org/1999/xlink">
<g id="graph0" class="graph" transform="scale(1 1) rotate(0) translate(4 1339)">
<title>CMake</title>
<polygon fill="white" stroke="transparent" points="-4,4 -4,-1339 1420,-1339 1420,4 -4,4"/>
<g id="clust1" class="cluster">
<title>clusterPrerequisite</title>
<polygon fill="none" stroke="black" points="8,-860 8,-1204 312,-1204 312,-860 8,-860"/>
<text text-anchor="middle" x="160" y="-1188.8" font-family="Times,serif" font-size="14.00">Prerequisite</text>
</g>
<g id="clust2" class="cluster">
<title>clusterOR</title>
<polygon fill="none" stroke="royalblue" points="320,-8 320,-1327 1408,-1327 1408,-8 320,-8"/>
<text text-anchor="middle" x="864" y="-1311.8" font-family="Times,serif" font-size="14.00">OR&#45;Tools (CMake)</text>
</g>
<g id="clust3" class="cluster">
<title>clusterDeps</title>
<polygon fill="none" stroke="grey" points="328,-583 328,-1296 1400,-1296 1400,-583 328,-583"/>
<text text-anchor="middle" x="864" y="-1280.8" font-family="Times,serif" font-size="14.00">Dependencies</text>
<text text-anchor="middle" x="864" y="-1265.8" font-family="Times,serif" font-size="14.00">(&#45;DBUILD_DEPS=ON)</text>
</g>
<g id="clust4" class="cluster">
<title>clusterZLIB</title>
<polygon fill="none" stroke="royalblue" points="798,-1129 798,-1204 980,-1204 980,-1129 798,-1129"/>
<text text-anchor="middle" x="889" y="-1188.8" font-family="Times,serif" font-size="14.00">madler/zlib.git + cmake patch</text>
</g>
<g id="clust5" class="cluster">
<title>clusterAbsl</title>
<polygon fill="none" stroke="royalblue" points="988,-1129 988,-1204 1113,-1204 1113,-1129 988,-1129"/>
<text text-anchor="middle" x="1050.5" y="-1188.8" font-family="Times,serif" font-size="14.00">abseil/abseil&#45;cpp.git</text>
</g>
<g id="clust6" class="cluster">
<title>clusterProtobuf</title>
<polygon fill="none" stroke="royalblue" points="798,-1029 798,-1104 966,-1104 966,-1029 798,-1029"/>
<text text-anchor="middle" x="882" y="-1088.8" font-family="Times,serif" font-size="14.00">protocolbuffers/protobuf.git</text>
</g>
<g id="clust7" class="cluster">
<title>clusterCoinOR</title>
<polygon fill="none" stroke="royalblue" points="422,-591 422,-1250 790,-1250 790,-591 422,-591"/>
<text text-anchor="middle" x="606" y="-1234.8" font-family="Times,serif" font-size="14.00">Coin&#45;OR Solver</text>
<text text-anchor="middle" x="606" y="-1219.8" font-family="Times,serif" font-size="14.00">(&#45;DUSE_COINOR=ON)</text>
</g>
<g id="clust8" class="cluster">
<title>clusterCoinUtils</title>
<polygon fill="none" stroke="royalblue" points="600,-1129 600,-1204 727,-1204 727,-1129 600,-1129"/>
<text text-anchor="middle" x="663.5" y="-1188.8" font-family="Times,serif" font-size="14.00">Mizux/CoinUtils.git</text>
</g>
<g id="clust9" class="cluster">
<title>clusterOsi</title>
<polygon fill="none" stroke="royalblue" points="657,-1029 657,-1104 750,-1104 750,-1029 657,-1029"/>
<text text-anchor="middle" x="703.5" y="-1088.8" font-family="Times,serif" font-size="14.00">Mizux/Osi.git</text>
</g>
<g id="clust10" class="cluster">
<title>clusterClp</title>
<polygon fill="none" stroke="royalblue" points="462,-860 462,-1009 690,-1009 690,-860 462,-860"/>
<text text-anchor="middle" x="576" y="-993.8" font-family="Times,serif" font-size="14.00">Mizux/Clp.git</text>
</g>
<g id="clust11" class="cluster">
<title>clusterCgl</title>
<polygon fill="none" stroke="royalblue" points="638,-766 638,-841 732,-841 732,-766 638,-766"/>
<text text-anchor="middle" x="685" y="-825.8" font-family="Times,serif" font-size="14.00">Mizux/Cgl.git</text>
</g>
<g id="clust12" class="cluster">
<title>clusterCbc</title>
<polygon fill="none" stroke="royalblue" points="550,-599 550,-747 782,-747 782,-599 550,-599"/>
<text text-anchor="middle" x="666" y="-731.8" font-family="Times,serif" font-size="14.00">Mizux/Cbc.git</text>
</g>
<g id="clust13" class="cluster">
<title>clusterGLPKSolver</title>
<polygon fill="none" stroke="royalblue" points="1121,-1121 1121,-1250 1256,-1250 1256,-1121 1121,-1121"/>
<text text-anchor="middle" x="1188.5" y="-1234.8" font-family="Times,serif" font-size="14.00">GLPK Solver</text>
<text text-anchor="middle" x="1188.5" y="-1219.8" font-family="Times,serif" font-size="14.00">(&#45;DUSE_GLPK=ON)</text>
</g>
<g id="clust14" class="cluster">
<title>clusterGLPK</title>
<polygon fill="none" stroke="royalblue" points="1129,-1129 1129,-1204 1239,-1204 1239,-1129 1129,-1129"/>
<text text-anchor="middle" x="1184" y="-1188.8" font-family="Times,serif" font-size="14.00">Mizux/GLPK.git</text>
</g>
<g id="clust15" class="cluster">
<title>clusterSCIPSolver</title>
<polygon fill="none" stroke="royalblue" points="1264,-1121 1264,-1250 1392,-1250 1392,-1121 1264,-1121"/>
<text text-anchor="middle" x="1328" y="-1234.8" font-family="Times,serif" font-size="14.00">SCIP Solver</text>
<text text-anchor="middle" x="1328" y="-1219.8" font-family="Times,serif" font-size="14.00">(&#45;DUSE_SCIP=ON)</text>
</g>
<g id="clust16" class="cluster">
<title>clusterSCIP</title>
<polygon fill="none" stroke="royalblue" points="1272,-1129 1272,-1204 1371,-1204 1371,-1129 1272,-1129"/>
<text text-anchor="middle" x="1321.5" y="-1188.8" font-family="Times,serif" font-size="14.00">scipopt/scip.git</text>
</g>
<g id="clust17" class="cluster">
<title>clusterCXX</title>
<polygon fill="none" stroke="royalblue" points="474,-131 474,-566 662,-566 662,-131 474,-131"/>
<text text-anchor="middle" x="568" y="-550.8" font-family="Times,serif" font-size="14.00">C++</text>
<text text-anchor="middle" x="568" y="-535.8" font-family="Times,serif" font-size="14.00">(&#45;DBUILD_CXX=ON)</text>
</g>
<g id="clust18" class="cluster">
<title>clusterCXXTest</title>
<polygon fill="none" stroke="black" points="482,-139 482,-229 654,-229 654,-139 482,-139"/>
<text text-anchor="middle" x="568" y="-213.8" font-family="Times,serif" font-size="14.00">Examples</text>
<text text-anchor="middle" x="568" y="-198.8" font-family="Times,serif" font-size="14.00">(&#45;DBUILD_TESTING=ON)</text>
</g>
<g id="clust19" class="cluster">
<title>clusterPython</title>
<polygon fill="none" stroke="gold" points="670,-16 670,-441 858,-441 858,-16 670,-16"/>
<text text-anchor="middle" x="764" y="-425.8" font-family="Times,serif" font-size="14.00">Python</text>
<text text-anchor="middle" x="764" y="-410.8" font-family="Times,serif" font-size="14.00">(&#45;DBUILD_PYTHON=ON)</text>
</g>
<g id="clust20" class="cluster">
<title>clusterPythonTest</title>
<polygon fill="none" stroke="black" points="678,-24 678,-114 850,-114 850,-24 678,-24"/>
<text text-anchor="middle" x="764" y="-98.8" font-family="Times,serif" font-size="14.00">Examples</text>
<text text-anchor="middle" x="764" y="-83.8" font-family="Times,serif" font-size="14.00">(&#45;DBUILD_TESTING=ON)</text>
</g>
<g id="clust21" class="cluster">
<title>clusterJava</title>
<polygon fill="none" stroke="crimson" points="887,-16 887,-441 1075,-441 1075,-16 887,-16"/>
<text text-anchor="middle" x="981" y="-425.8" font-family="Times,serif" font-size="14.00">Java</text>
<text text-anchor="middle" x="981" y="-410.8" font-family="Times,serif" font-size="14.00">(&#45;DBUILD_JAVA=ON)</text>
</g>
<g id="clust22" class="cluster">
<title>clusterJavaTest</title>
<polygon fill="none" stroke="black" points="895,-24 895,-114 1067,-114 1067,-24 895,-24"/>
<text text-anchor="middle" x="981" y="-98.8" font-family="Times,serif" font-size="14.00">Examples</text>
<text text-anchor="middle" x="981" y="-83.8" font-family="Times,serif" font-size="14.00">(&#45;DBUILD_TESTING=ON)</text>
</g>
<g id="clust23" class="cluster">
<title>clusterNet</title>
<polygon fill="none" stroke="darkviolet" points="1090,-16 1090,-441 1400,-441 1400,-16 1090,-16"/>
<text text-anchor="middle" x="1245" y="-425.8" font-family="Times,serif" font-size="14.00">.Net</text>
<text text-anchor="middle" x="1245" y="-410.8" font-family="Times,serif" font-size="14.00">(&#45;DBUILD_DOTNET=ON)</text>
</g>
<g id="clust24" class="cluster">
<title>clusterNetTest</title>
<polygon fill="none" stroke="black" points="1129,-24 1129,-114 1301,-114 1301,-24 1129,-24"/>
<text text-anchor="middle" x="1215" y="-98.8" font-family="Times,serif" font-size="14.00">Examples</text>
<text text-anchor="middle" x="1215" y="-83.8" font-family="Times,serif" font-size="14.00">(&#45;DBUILD_TESTING=ON)</text>
</g>
<!-- CM -->
<g id="node1" class="node">
<title>CM</title>
<polygon fill="royalblue" stroke="black" points="165.5,-1173 112.5,-1173 108.5,-1169 108.5,-1137 161.5,-1137 165.5,-1141 165.5,-1173"/>
<polyline fill="none" stroke="black" points="161.5,-1169 108.5,-1169 "/>
<polyline fill="none" stroke="black" points="161.5,-1169 161.5,-1137 "/>
<polyline fill="none" stroke="black" points="161.5,-1169 165.5,-1173 "/>
<text text-anchor="middle" x="137" y="-1151.3" font-family="Times,serif" font-size="14.00">CMake</text>
</g>
<!-- SWIG -->
<g id="node2" class="node">
<title>SWIG</title>
<polygon fill="chocolate" stroke="black" points="164,-1074 114,-1074 110,-1070 110,-1036 160,-1036 164,-1040 164,-1074"/>
<polyline fill="none" stroke="black" points="160,-1070 110,-1070 "/>
<polyline fill="none" stroke="black" points="160,-1070 160,-1036 "/>
<polyline fill="none" stroke="black" points="160,-1070 164,-1074 "/>
<text text-anchor="middle" x="137" y="-1058.8" font-family="Times,serif" font-size="14.00">Swig</text>
<text text-anchor="middle" x="137" y="-1043.8" font-family="Times,serif" font-size="14.00">(Unix)</text>
</g>
<!-- CM&#45;&gt;SWIG -->
<g id="edge1" class="edge">
<title>CM&#45;&gt;SWIG</title>
</g>
<!-- PY -->
<g id="node3" class="node">
<title>PY</title>
<polygon fill="gold" stroke="black" points="71.5,-979 20.5,-979 16.5,-975 16.5,-941 67.5,-941 71.5,-945 71.5,-979"/>
<polyline fill="none" stroke="black" points="67.5,-975 16.5,-975 "/>
<polyline fill="none" stroke="black" points="67.5,-975 67.5,-941 "/>
<polyline fill="none" stroke="black" points="67.5,-975 71.5,-979 "/>
<text text-anchor="middle" x="44" y="-963.8" font-family="Times,serif" font-size="14.00">Python</text>
<text text-anchor="middle" x="44" y="-948.8" font-family="Times,serif" font-size="14.00">(3.6+)</text>
</g>
<!-- SWIG&#45;&gt;PY -->
<g id="edge2" class="edge">
<title>SWIG&#45;&gt;PY</title>
</g>
<!-- JV -->
<g id="node4" class="node">
<title>JV</title>
<polygon fill="crimson" stroke="black" points="184.5,-979 93.5,-979 89.5,-975 89.5,-941 180.5,-941 184.5,-945 184.5,-979"/>
<polyline fill="none" stroke="black" points="180.5,-975 89.5,-975 "/>
<polyline fill="none" stroke="black" points="180.5,-975 180.5,-941 "/>
<polyline fill="none" stroke="black" points="180.5,-975 184.5,-979 "/>
<text text-anchor="middle" x="137" y="-963.8" font-family="Times,serif" font-size="14.00">Java</text>
<text text-anchor="middle" x="137" y="-948.8" font-family="Times,serif" font-size="14.00">(openJDK 8+)</text>
</g>
<!-- SWIG&#45;&gt;JV -->
<g id="edge3" class="edge">
<title>SWIG&#45;&gt;JV</title>
</g>
<!-- DN -->
<g id="node5" class="node">
<title>DN</title>
<polygon fill="darkviolet" stroke="black" points="303.5,-979 206.5,-979 202.5,-975 202.5,-941 299.5,-941 303.5,-945 303.5,-979"/>
<polyline fill="none" stroke="black" points="299.5,-975 202.5,-975 "/>
<polyline fill="none" stroke="black" points="299.5,-975 299.5,-941 "/>
<polyline fill="none" stroke="black" points="299.5,-975 303.5,-979 "/>
<text text-anchor="middle" x="253" y="-963.8" font-family="Times,serif" font-size="14.00">.Net Core SDK</text>
<text text-anchor="middle" x="253" y="-948.8" font-family="Times,serif" font-size="14.00">(3.1)</text>
</g>
<!-- SWIG&#45;&gt;DN -->
<g id="edge4" class="edge">
<title>SWIG&#45;&gt;DN</title>
</g>
<!-- FS -->
<g id="node6" class="node">
<title>FS</title>
<polygon fill="darkviolet" stroke="black" points="282,-904 228,-904 224,-900 224,-868 278,-868 282,-872 282,-904"/>
<polyline fill="none" stroke="black" points="278,-900 224,-900 "/>
<polyline fill="none" stroke="black" points="278,-900 278,-868 "/>
<polyline fill="none" stroke="black" points="278,-900 282,-904 "/>
<text text-anchor="middle" x="253" y="-882.3" font-family="Times,serif" font-size="14.00">.Net F#</text>
</g>
<!-- DN&#45;&gt;FS -->
<g id="edge5" class="edge">
<title>DN&#45;&gt;FS</title>
</g>
<!-- ZLIB -->
<g id="node7" class="node">
<title>ZLIB</title>
<path fill="royalblue" stroke="royalblue" d="M940,-1173C940,-1173 880,-1173 880,-1173 874,-1173 868,-1167 868,-1161 868,-1161 868,-1149 868,-1149 868,-1143 874,-1137 880,-1137 880,-1137 940,-1137 940,-1137 946,-1137 952,-1143 952,-1149 952,-1149 952,-1161 952,-1161 952,-1167 946,-1173 940,-1173"/>
<text text-anchor="middle" x="910" y="-1151.3" font-family="Times,serif" font-size="14.00">ZLIB::ZLIB</text>
</g>
<!-- Protobuf -->
<g id="node9" class="node">
<title>Protobuf</title>
<path fill="royalblue" stroke="royalblue" d="M943.5,-1073C943.5,-1073 836.5,-1073 836.5,-1073 830.5,-1073 824.5,-1067 824.5,-1061 824.5,-1061 824.5,-1049 824.5,-1049 824.5,-1043 830.5,-1037 836.5,-1037 836.5,-1037 943.5,-1037 943.5,-1037 949.5,-1037 955.5,-1043 955.5,-1049 955.5,-1049 955.5,-1061 955.5,-1061 955.5,-1067 949.5,-1073 943.5,-1073"/>
<text text-anchor="middle" x="890" y="-1051.3" font-family="Times,serif" font-size="14.00">protobuf::libprotobuf</text>
</g>
<!-- ZLIB&#45;&gt;Protobuf -->
<g id="edge6" class="edge">
<title>ZLIB&#45;&gt;Protobuf</title>
<path fill="none" stroke="black" d="M906.52,-1136.93C903.49,-1122.12 899.07,-1100.43 895.56,-1083.23"/>
<polygon fill="black" stroke="black" points="898.94,-1082.3 893.51,-1073.2 892.08,-1083.7 898.94,-1082.3"/>
</g>
<!-- OR_SRC -->
<g id="node22" class="node">
<title>OR_SRC</title>
<polygon fill="royalblue" stroke="black" points="654,-520 651,-524 630,-524 627,-520 564,-520 564,-482 654,-482 654,-520"/>
<text text-anchor="middle" x="609" y="-504.8" font-family="Times,serif" font-size="14.00">OR&#45;Tools src</text>
<text text-anchor="middle" x="609" y="-489.8" font-family="Times,serif" font-size="14.00">ortools/...</text>
</g>
<!-- ZLIB&#45;&gt;OR_SRC -->
<g id="edge27" class="edge">
<title>ZLIB&#45;&gt;OR_SRC</title>
<path fill="none" stroke="black" d="M939.12,-1136.83C950.7,-1128.44 962.92,-1117.28 970,-1104 980.09,-1085.07 975,-1077.45 975,-1056 975,-1056 975,-1056 975,-624 975,-559.33 766.72,-522.8 664.4,-508.76"/>
<polygon fill="black" stroke="black" points="664.62,-505.26 654.25,-507.39 663.69,-512.2 664.62,-505.26"/>
</g>
<!-- Absl -->
<g id="node8" class="node">
<title>Absl</title>
<path fill="royalblue" stroke="royalblue" d="M1065.5,-1173C1065.5,-1173 1008.5,-1173 1008.5,-1173 1002.5,-1173 996.5,-1167 996.5,-1161 996.5,-1161 996.5,-1149 996.5,-1149 996.5,-1143 1002.5,-1137 1008.5,-1137 1008.5,-1137 1065.5,-1137 1065.5,-1137 1071.5,-1137 1077.5,-1143 1077.5,-1149 1077.5,-1149 1077.5,-1161 1077.5,-1161 1077.5,-1167 1071.5,-1173 1065.5,-1173"/>
<text text-anchor="middle" x="1037" y="-1151.3" font-family="Times,serif" font-size="14.00">absl::absl_*</text>
</g>
<!-- Absl&#45;&gt;Protobuf -->
<g id="edge7" class="edge">
<title>Absl&#45;&gt;Protobuf</title>
<path fill="none" stroke="black" d="M1011.39,-1136.93C987.3,-1120.87 951.05,-1096.7 924.43,-1078.95"/>
<polygon fill="black" stroke="black" points="926.07,-1075.84 915.81,-1073.2 922.18,-1081.66 926.07,-1075.84"/>
</g>
<!-- Absl&#45;&gt;OR_SRC -->
<g id="edge28" class="edge">
<title>Absl&#45;&gt;OR_SRC</title>
<path fill="none" stroke="black" d="M1031.04,-1136.89C1024.83,-1117.52 1016,-1084.88 1016,-1056 1016,-1056 1016,-1056 1016,-624 1016,-551.39 775.34,-518.31 664.14,-506.9"/>
<polygon fill="black" stroke="black" points="664.41,-503.41 654.11,-505.89 663.71,-510.38 664.41,-503.41"/>
</g>
<!-- Protobuf&#45;&gt;OR_SRC -->
<g id="edge29" class="edge">
<title>Protobuf&#45;&gt;OR_SRC</title>
<path fill="none" stroke="black" d="M875.76,-1036.68C862.58,-1018.85 845,-989.7 845,-961 845,-961 845,-961 845,-624 845,-543 733.94,-515.72 664.2,-506.57"/>
<polygon fill="black" stroke="black" points="664.58,-503.09 654.22,-505.35 663.72,-510.04 664.58,-503.09"/>
</g>
<!-- CoinUtils -->
<g id="node10" class="node">
<title>CoinUtils</title>
<path fill="royalblue" stroke="royalblue" d="M702.5,-1173C702.5,-1173 623.5,-1173 623.5,-1173 617.5,-1173 611.5,-1167 611.5,-1161 611.5,-1161 611.5,-1149 611.5,-1149 611.5,-1143 617.5,-1137 623.5,-1137 623.5,-1137 702.5,-1137 702.5,-1137 708.5,-1137 714.5,-1143 714.5,-1149 714.5,-1149 714.5,-1161 714.5,-1161 714.5,-1167 708.5,-1173 702.5,-1173"/>
<text text-anchor="middle" x="663" y="-1151.3" font-family="Times,serif" font-size="14.00">Coin::CoinUtils</text>
</g>
<!-- Osi -->
<g id="node11" class="node">
<title>Osi</title>
<path fill="royalblue" stroke="royalblue" d="M723.5,-1073C723.5,-1073 678.5,-1073 678.5,-1073 672.5,-1073 666.5,-1067 666.5,-1061 666.5,-1061 666.5,-1049 666.5,-1049 666.5,-1043 672.5,-1037 678.5,-1037 678.5,-1037 723.5,-1037 723.5,-1037 729.5,-1037 735.5,-1043 735.5,-1049 735.5,-1049 735.5,-1061 735.5,-1061 735.5,-1067 729.5,-1073 723.5,-1073"/>
<text text-anchor="middle" x="701" y="-1051.3" font-family="Times,serif" font-size="14.00">Coin::Osi</text>
</g>
<!-- CoinUtils&#45;&gt;Osi -->
<g id="edge8" class="edge">
<title>CoinUtils&#45;&gt;Osi</title>
<path fill="none" stroke="black" d="M669.62,-1136.93C675.41,-1121.99 683.93,-1100.02 690.63,-1082.75"/>
<polygon fill="black" stroke="black" points="693.98,-1083.79 694.33,-1073.2 687.45,-1081.26 693.98,-1083.79"/>
</g>
<!-- Clp -->
<g id="node12" class="node">
<title>Clp</title>
<path fill="royalblue" stroke="royalblue" d="M616,-978C616,-978 570,-978 570,-978 564,-978 558,-972 558,-966 558,-966 558,-954 558,-954 558,-948 564,-942 570,-942 570,-942 616,-942 616,-942 622,-942 628,-948 628,-954 628,-954 628,-966 628,-966 628,-972 622,-978 616,-978"/>
<text text-anchor="middle" x="593" y="-956.3" font-family="Times,serif" font-size="14.00">Coin::Clp</text>
</g>
<!-- CoinUtils&#45;&gt;Clp -->
<g id="edge9" class="edge">
<title>CoinUtils&#45;&gt;Clp</title>
<path fill="none" stroke="black" d="M653.37,-1136.74C649.56,-1129.52 645.3,-1120.98 642,-1113 624.35,-1070.38 608.94,-1018.95 600.32,-988.17"/>
<polygon fill="black" stroke="black" points="603.6,-986.9 597.56,-978.19 596.85,-988.76 603.6,-986.9"/>
</g>
<!-- OsiClp -->
<g id="node13" class="node">
<title>OsiClp</title>
<path fill="royalblue" stroke="royalblue" d="M670.5,-904C670.5,-904 605.5,-904 605.5,-904 599.5,-904 593.5,-898 593.5,-892 593.5,-892 593.5,-880 593.5,-880 593.5,-874 599.5,-868 605.5,-868 605.5,-868 670.5,-868 670.5,-868 676.5,-868 682.5,-874 682.5,-880 682.5,-880 682.5,-892 682.5,-892 682.5,-898 676.5,-904 670.5,-904"/>
<text text-anchor="middle" x="638" y="-882.3" font-family="Times,serif" font-size="14.00">Coin::OsiClp</text>
</g>
<!-- CoinUtils&#45;&gt;OsiClp -->
<g id="edge11" class="edge">
<title>CoinUtils&#45;&gt;OsiClp</title>
<path fill="none" stroke="black" d="M659.03,-1136.97C656.93,-1127.34 654.48,-1115.06 653,-1104 643.91,-1036.14 640.17,-955.56 638.76,-914.31"/>
<polygon fill="black" stroke="black" points="642.26,-914.12 638.44,-904.24 635.26,-914.34 642.26,-914.12"/>
</g>
<!-- Cgl -->
<g id="node15" class="node">
<title>Cgl</title>
<path fill="royalblue" stroke="royalblue" d="M708,-810C708,-810 662,-810 662,-810 656,-810 650,-804 650,-798 650,-798 650,-786 650,-786 650,-780 656,-774 662,-774 662,-774 708,-774 708,-774 714,-774 720,-780 720,-786 720,-786 720,-798 720,-798 720,-804 714,-810 708,-810"/>
<text text-anchor="middle" x="685" y="-788.3" font-family="Times,serif" font-size="14.00">Coin::Cgl</text>
</g>
<!-- CoinUtils&#45;&gt;Cgl -->
<g id="edge15" class="edge">
<title>CoinUtils&#45;&gt;Cgl</title>
<path fill="none" stroke="black" d="M712.69,-1136.96C728.23,-1129.24 743.93,-1118.51 754,-1104 766.29,-1086.29 761,-1077.56 761,-1056 761,-1056 761,-1056 761,-885 761,-857.14 740.03,-833.16 720.12,-816.68"/>
<polygon fill="black" stroke="black" points="722.03,-813.73 712.01,-810.3 717.71,-819.23 722.03,-813.73"/>
</g>
<!-- Cbc -->
<g id="node16" class="node">
<title>Cbc</title>
<path fill="royalblue" stroke="royalblue" d="M649,-716C649,-716 601,-716 601,-716 595,-716 589,-710 589,-704 589,-704 589,-692 589,-692 589,-686 595,-680 601,-680 601,-680 649,-680 649,-680 655,-680 661,-686 661,-692 661,-692 661,-704 661,-704 661,-710 655,-716 649,-716"/>
<text text-anchor="middle" x="625" y="-694.3" font-family="Times,serif" font-size="14.00">Coin::Cbc</text>
</g>
<!-- CoinUtils&#45;&gt;Cbc -->
<g id="edge18" class="edge">
<title>CoinUtils&#45;&gt;Cbc</title>
<path fill="none" stroke="black" d="M636.7,-1136.85C627.79,-1131.41 617.64,-1125.61 608,-1121 532.4,-1084.84 431,-1139.8 431,-1056 431,-1056 431,-1056 431,-791 431,-725.9 521.27,-706.81 578.66,-701.25"/>
<polygon fill="black" stroke="black" points="579.3,-704.7 588.96,-700.36 578.7,-697.73 579.3,-704.7"/>
</g>
<!-- OsiCbc -->
<g id="node17" class="node">
<title>OsiCbc</title>
<path fill="royalblue" stroke="royalblue" d="M761.5,-643C761.5,-643 694.5,-643 694.5,-643 688.5,-643 682.5,-637 682.5,-631 682.5,-631 682.5,-619 682.5,-619 682.5,-613 688.5,-607 694.5,-607 694.5,-607 761.5,-607 761.5,-607 767.5,-607 773.5,-613 773.5,-619 773.5,-619 773.5,-631 773.5,-631 773.5,-637 767.5,-643 761.5,-643"/>
<text text-anchor="middle" x="728" y="-621.3" font-family="Times,serif" font-size="14.00">Coin::OsiCbc</text>
</g>
<!-- CoinUtils&#45;&gt;OsiCbc -->
<g id="edge22" class="edge">
<title>CoinUtils&#45;&gt;OsiCbc</title>
<path fill="none" stroke="black" d="M714.72,-1139.29C732.71,-1131.63 751.3,-1120.33 763,-1104 776.27,-1085.48 781,-1078.78 781,-1056 781,-1056 781,-1056 781,-697 781,-679.17 770.13,-662.92 758.23,-650.49"/>
<polygon fill="black" stroke="black" points="760.4,-647.71 750.78,-643.26 755.52,-652.73 760.4,-647.71"/>
</g>
<!-- Osi&#45;&gt;Clp -->
<g id="edge10" class="edge">
<title>Osi&#45;&gt;Clp</title>
<path fill="none" stroke="black" d="M681.19,-1036.94C664.25,-1022.35 639.67,-1001.19 620.77,-984.91"/>
<polygon fill="black" stroke="black" points="622.91,-982.14 613.05,-978.26 618.34,-987.44 622.91,-982.14"/>
</g>
<!-- Osi&#45;&gt;OsiClp -->
<g id="edge12" class="edge">
<title>Osi&#45;&gt;OsiClp</title>
<path fill="none" stroke="black" d="M694.79,-1036.86C685.62,-1011.64 667.83,-963.05 652,-922 650.94,-919.25 649.82,-916.39 648.7,-913.54"/>
<polygon fill="black" stroke="black" points="651.87,-912.05 644.92,-904.06 645.37,-914.64 651.87,-912.05"/>
</g>
<!-- Osi&#45;&gt;Cgl -->
<g id="edge16" class="edge">
<title>Osi&#45;&gt;Cgl</title>
<path fill="none" stroke="black" d="M703.88,-1036.84C704.74,-1030.89 705.57,-1024.17 706,-1018 710.84,-947.94 716.62,-929.41 706,-860 703.91,-846.35 699.56,-831.66 695.36,-819.53"/>
<polygon fill="black" stroke="black" points="698.61,-818.22 691.91,-810.01 692.02,-820.61 698.61,-818.22"/>
</g>
<!-- Osi&#45;&gt;Cbc -->
<g id="edge19" class="edge">
<title>Osi&#45;&gt;Cbc</title>
<path fill="none" stroke="black" d="M701.49,-1036.92C702.62,-992.16 704.56,-873.88 694,-860 677.07,-837.73 651.23,-863.03 634,-841 608.54,-808.45 612.51,-757.81 618.32,-726.62"/>
<polygon fill="black" stroke="black" points="621.82,-726.96 620.41,-716.46 614.97,-725.55 621.82,-726.96"/>
</g>
<!-- Osi&#45;&gt;OsiCbc -->
<g id="edge23" class="edge">
<title>Osi&#45;&gt;OsiCbc</title>
<path fill="none" stroke="black" d="M713.44,-1036.77C725.18,-1018.79 741,-989.3 741,-961 741,-961 741,-961 741,-697 741,-682.27 738.26,-666.09 735.29,-652.91"/>
<polygon fill="black" stroke="black" points="738.66,-651.96 732.91,-643.06 731.86,-653.6 738.66,-651.96"/>
</g>
<!-- Clp&#45;&gt;OsiClp -->
<g id="edge13" class="edge">
<title>Clp&#45;&gt;OsiClp</title>
<path fill="none" stroke="black" d="M603.66,-941.94C609.08,-933.28 615.77,-922.57 621.8,-912.92"/>
<polygon fill="black" stroke="black" points="624.77,-914.78 627.1,-904.44 618.83,-911.07 624.77,-914.78"/>
</g>
<!-- ClpSolver -->
<g id="node14" class="node">
<title>ClpSolver</title>
<path fill="royalblue" stroke="royalblue" d="M563.5,-904C563.5,-904 482.5,-904 482.5,-904 476.5,-904 470.5,-898 470.5,-892 470.5,-892 470.5,-880 470.5,-880 470.5,-874 476.5,-868 482.5,-868 482.5,-868 563.5,-868 563.5,-868 569.5,-868 575.5,-874 575.5,-880 575.5,-880 575.5,-892 575.5,-892 575.5,-898 569.5,-904 563.5,-904"/>
<text text-anchor="middle" x="523" y="-882.3" font-family="Times,serif" font-size="14.00">Coin::ClpSolver</text>
</g>
<!-- Clp&#45;&gt;ClpSolver -->
<g id="edge14" class="edge">
<title>Clp&#45;&gt;ClpSolver</title>
<path fill="none" stroke="black" d="M576.41,-941.94C567.65,-932.92 556.73,-921.7 547.06,-911.74"/>
<polygon fill="black" stroke="black" points="549.44,-909.17 539.96,-904.44 544.42,-914.05 549.44,-909.17"/>
</g>
<!-- Clp&#45;&gt;Cbc -->
<g id="edge20" class="edge">
<title>Clp&#45;&gt;Cbc</title>
<path fill="none" stroke="black" d="M557.8,-954.94C526.72,-949.29 483.16,-935.84 462,-904 451.17,-887.71 454.46,-878.04 462,-860 487.52,-798.92 548.74,-749.22 588.46,-721.91"/>
<polygon fill="black" stroke="black" points="590.74,-724.59 597.08,-716.1 586.83,-718.79 590.74,-724.59"/>
</g>
<!-- OsiClp&#45;&gt;Cgl -->
<g id="edge17" class="edge">
<title>OsiClp&#45;&gt;Cgl</title>
<path fill="none" stroke="black" d="M646.84,-867.7C653.8,-854.07 663.61,-834.86 671.55,-819.34"/>
<polygon fill="black" stroke="black" points="674.77,-820.72 676.2,-810.23 668.53,-817.54 674.77,-820.72"/>
</g>
<!-- ClpSolver&#45;&gt;OR_SRC -->
<g id="edge30" class="edge">
<title>ClpSolver&#45;&gt;OR_SRC</title>
<path fill="none" stroke="black" d="M476.47,-867.93C445.7,-853.3 411,-828.86 411,-793 411,-793 411,-793 411,-624 411,-556.63 495.11,-525.26 553.69,-511.57"/>
<polygon fill="black" stroke="black" points="554.57,-514.96 563.57,-509.37 553.05,-508.13 554.57,-514.96"/>
</g>
<!-- Cgl&#45;&gt;Cbc -->
<g id="edge21" class="edge">
<title>Cgl&#45;&gt;Cbc</title>
<path fill="none" stroke="black" d="M673.71,-773.7C664.75,-759.95 652.07,-740.5 641.89,-724.9"/>
<polygon fill="black" stroke="black" points="644.63,-722.69 636.23,-716.23 638.77,-726.51 644.63,-722.69"/>
</g>
<!-- Cbc&#45;&gt;OsiCbc -->
<g id="edge24" class="edge">
<title>Cbc&#45;&gt;OsiCbc</title>
<path fill="none" stroke="black" d="M649.67,-679.99C663.2,-670.67 680.16,-658.97 694.84,-648.86"/>
<polygon fill="black" stroke="black" points="696.93,-651.67 703.17,-643.11 692.95,-645.91 696.93,-651.67"/>
</g>
<!-- CbcSolver -->
<g id="node18" class="node">
<title>CbcSolver</title>
<path fill="royalblue" stroke="royalblue" d="M652.5,-643C652.5,-643 569.5,-643 569.5,-643 563.5,-643 557.5,-637 557.5,-631 557.5,-631 557.5,-619 557.5,-619 557.5,-613 563.5,-607 569.5,-607 569.5,-607 652.5,-607 652.5,-607 658.5,-607 664.5,-613 664.5,-619 664.5,-619 664.5,-631 664.5,-631 664.5,-637 658.5,-643 652.5,-643"/>
<text text-anchor="middle" x="611" y="-621.3" font-family="Times,serif" font-size="14.00">Coin::CbcSolver</text>
</g>
<!-- Cbc&#45;&gt;CbcSolver -->
<g id="edge25" class="edge">
<title>Cbc&#45;&gt;CbcSolver</title>
<path fill="none" stroke="black" d="M621.61,-679.81C620.03,-671.79 618.11,-662.05 616.34,-653.07"/>
<polygon fill="black" stroke="black" points="619.73,-652.16 614.36,-643.03 612.86,-653.52 619.73,-652.16"/>
</g>
<!-- CbcSolver&#45;&gt;OR_SRC -->
<g id="edge31" class="edge">
<title>CbcSolver&#45;&gt;OR_SRC</title>
<path fill="none" stroke="black" d="M610.72,-606.78C610.39,-586.96 609.85,-554.1 609.47,-530.46"/>
<polygon fill="black" stroke="black" points="612.96,-530.27 609.3,-520.33 605.96,-530.38 612.96,-530.27"/>
</g>
<!-- GLPK -->
<g id="node19" class="node">
<title>GLPK</title>
<path fill="royalblue" stroke="black" d="M1197,-1173C1197,-1173 1149,-1173 1149,-1173 1143,-1173 1137,-1167 1137,-1161 1137,-1161 1137,-1149 1137,-1149 1137,-1143 1143,-1137 1149,-1137 1149,-1137 1197,-1137 1197,-1137 1203,-1137 1209,-1143 1209,-1149 1209,-1149 1209,-1161 1209,-1161 1209,-1167 1203,-1173 1197,-1173"/>
<text text-anchor="middle" x="1173" y="-1151.3" font-family="Times,serif" font-size="14.00">glpk::glpk</text>
</g>
<!-- GLPK&#45;&gt;OR_SRC -->
<g id="edge32" class="edge">
<title>GLPK&#45;&gt;OR_SRC</title>
<path fill="none" stroke="black" d="M1147.03,-1136.68C1124.34,-1119.26 1095,-1090.14 1095,-1056 1095,-1056 1095,-1056 1095,-624 1095,-536.11 792.2,-510.96 664.62,-504.26"/>
<polygon fill="black" stroke="black" points="664.45,-500.75 654.29,-503.74 664.1,-507.74 664.45,-500.75"/>
</g>
<!-- SCIP -->
<g id="node20" class="node">
<title>SCIP</title>
<path fill="royalblue" stroke="black" d="M1336,-1173C1336,-1173 1292,-1173 1292,-1173 1286,-1173 1280,-1167 1280,-1161 1280,-1161 1280,-1149 1280,-1149 1280,-1143 1286,-1137 1292,-1137 1292,-1137 1336,-1137 1336,-1137 1342,-1137 1348,-1143 1348,-1149 1348,-1149 1348,-1161 1348,-1161 1348,-1167 1342,-1173 1336,-1173"/>
<text text-anchor="middle" x="1314" y="-1151.3" font-family="Times,serif" font-size="14.00">scip::scip</text>
</g>
<!-- SCIP&#45;&gt;OR_SRC -->
<g id="edge33" class="edge">
<title>SCIP&#45;&gt;OR_SRC</title>
<path fill="none" stroke="black" d="M1295.34,-1136.8C1277.73,-1118.6 1254,-1088.12 1254,-1056 1254,-1056 1254,-1056 1254,-624 1254,-564.22 820.78,-520.48 664.43,-506.64"/>
<polygon fill="black" stroke="black" points="664.37,-503.13 654.1,-505.74 663.75,-510.1 664.37,-503.13"/>
</g>
<!-- SWIG_WIN -->
<g id="node21" class="node">
<title>SWIG_WIN</title>
<path fill="royalblue" stroke="chocolate" d="M401.5,-1174C401.5,-1174 348.5,-1174 348.5,-1174 342.5,-1174 336.5,-1168 336.5,-1162 336.5,-1162 336.5,-1148 336.5,-1148 336.5,-1142 342.5,-1136 348.5,-1136 348.5,-1136 401.5,-1136 401.5,-1136 407.5,-1136 413.5,-1142 413.5,-1148 413.5,-1148 413.5,-1162 413.5,-1162 413.5,-1168 407.5,-1174 401.5,-1174"/>
<text text-anchor="middle" x="375" y="-1158.8" font-family="Times,serif" font-size="14.00">swigwin</text>
<text text-anchor="middle" x="375" y="-1143.8" font-family="Times,serif" font-size="14.00">(Windows)</text>
</g>
<!-- OR_CPP -->
<g id="node23" class="node">
<title>OR_CPP</title>
<path fill="royalblue" stroke="black" d="M640.5,-395C640.5,-395 565.5,-395 565.5,-395 559.5,-395 553.5,-389 553.5,-383 553.5,-383 553.5,-371 553.5,-371 553.5,-365 559.5,-359 565.5,-359 565.5,-359 640.5,-359 640.5,-359 646.5,-359 652.5,-365 652.5,-371 652.5,-371 652.5,-383 652.5,-383 652.5,-389 646.5,-395 640.5,-395"/>
<text text-anchor="middle" x="603" y="-373.3" font-family="Times,serif" font-size="14.00">ortools::ortools</text>
</g>
<!-- OR_SRC&#45;&gt;OR_CPP -->
<g id="edge34" class="edge">
<title>OR_SRC&#45;&gt;OR_CPP</title>
<path fill="none" stroke="black" d="M608.11,-482C607.12,-461.77 605.49,-428.69 604.34,-405.28"/>
<polygon fill="black" stroke="black" points="607.84,-405.1 603.85,-395.29 600.85,-405.45 607.84,-405.1"/>
</g>
<!-- OR_WPY -->
<g id="node26" class="node">
<title>OR_WPY</title>
<polygon fill="gold" stroke="black" points="809.5,-395 678.5,-395 678.5,-359 815.5,-359 815.5,-389 809.5,-395"/>
<polyline fill="none" stroke="black" points="809.5,-395 809.5,-389 "/>
<polyline fill="none" stroke="black" points="815.5,-389 809.5,-389 "/>
<text text-anchor="middle" x="747" y="-373.3" font-family="Times,serif" font-size="14.00">C++ Python wrappers</text>
</g>
<!-- OR_SRC&#45;&gt;OR_WPY -->
<g id="edge37" class="edge">
<title>OR_SRC&#45;&gt;OR_WPY</title>
<path fill="none" stroke="chocolate" d="M629.36,-482C653.28,-460.85 693.06,-425.69 719.65,-402.18"/>
<polygon fill="chocolate" stroke="chocolate" points="722.27,-404.53 727.45,-395.29 717.64,-399.29 722.27,-404.53"/>
<text text-anchor="middle" x="678" y="-452.8" font-family="Times,serif" font-size="14.00">swig</text>
</g>
<!-- OR_PY -->
<g id="node27" class="node">
<title>OR_PY</title>
<polygon fill="gold" stroke="black" points="793,-307 717,-307 717,-271 799,-271 799,-301 793,-307"/>
<polyline fill="none" stroke="black" points="793,-307 793,-301 "/>
<polyline fill="none" stroke="black" points="799,-301 793,-301 "/>
<text text-anchor="middle" x="758" y="-285.3" font-family="Times,serif" font-size="14.00">Python files</text>
</g>
<!-- OR_SRC&#45;&gt;OR_PY -->
<g id="edge38" class="edge">
<title>OR_SRC&#45;&gt;OR_PY</title>
<path fill="none" stroke="chocolate" d="M654.48,-494.06C711.53,-485.58 804.42,-467.96 825,-441 847.12,-412.03 838.7,-392.77 825,-359 817.81,-341.28 803.65,-325.61 790.19,-313.69"/>
<polygon fill="chocolate" stroke="chocolate" points="792.3,-310.9 782.4,-307.13 787.79,-316.25 792.3,-310.9"/>
<text text-anchor="middle" x="851" y="-373.3" font-family="Times,serif" font-size="14.00">swig</text>
</g>
<!-- OR_WJAVA -->
<g id="node30" class="node">
<title>OR_WJAVA</title>
<polygon fill="crimson" stroke="black" points="1013.5,-395 896.5,-395 896.5,-359 1019.5,-359 1019.5,-389 1013.5,-395"/>
<polyline fill="none" stroke="black" points="1013.5,-395 1013.5,-389 "/>
<polyline fill="none" stroke="black" points="1019.5,-389 1013.5,-389 "/>
<text text-anchor="middle" x="958" y="-373.3" font-family="Times,serif" font-size="14.00">C++ Java wrappers</text>
</g>
<!-- OR_SRC&#45;&gt;OR_WJAVA -->
<g id="edge42" class="edge">
<title>OR_SRC&#45;&gt;OR_WJAVA</title>
<path fill="none" stroke="chocolate" d="M654.08,-500.83C705.43,-500.14 790.8,-493.94 857,-464 888.49,-449.76 917.77,-422.66 936.61,-402.67"/>
<polygon fill="chocolate" stroke="chocolate" points="939.35,-404.86 943.54,-395.13 934.2,-400.12 939.35,-404.86"/>
<text text-anchor="middle" x="895" y="-452.8" font-family="Times,serif" font-size="14.00">swig</text>
</g>
<!-- OR_JAVA -->
<g id="node31" class="node">
<title>OR_JAVA</title>
<polygon fill="crimson" stroke="black" points="1010,-307 948,-307 948,-271 1016,-271 1016,-301 1010,-307"/>
<polyline fill="none" stroke="black" points="1010,-307 1010,-301 "/>
<polyline fill="none" stroke="black" points="1016,-301 1010,-301 "/>
<text text-anchor="middle" x="982" y="-285.3" font-family="Times,serif" font-size="14.00">Java files</text>
</g>
<!-- OR_SRC&#45;&gt;OR_JAVA -->
<g id="edge43" class="edge">
<title>OR_SRC&#45;&gt;OR_JAVA</title>
<path fill="none" stroke="chocolate" d="M654.03,-497.07C757.53,-489.85 1005.38,-469.72 1029,-441 1059.26,-404.21 1026.92,-347.93 1002.93,-315.48"/>
<polygon fill="chocolate" stroke="chocolate" points="1005.6,-313.21 996.75,-307.38 1000.03,-317.45 1005.6,-313.21"/>
<text text-anchor="middle" x="1054" y="-373.3" font-family="Times,serif" font-size="14.00">swig</text>
</g>
<!-- OR_WNET -->
<g id="node34" class="node">
<title>OR_WNET</title>
<polygon fill="darkviolet" stroke="black" points="1216,-395 1100,-395 1100,-359 1222,-359 1222,-389 1216,-395"/>
<polyline fill="none" stroke="black" points="1216,-395 1216,-389 "/>
<polyline fill="none" stroke="black" points="1222,-389 1216,-389 "/>
<text text-anchor="middle" x="1161" y="-373.3" font-family="Times,serif" font-size="14.00">C++ .Net wrappers</text>
</g>
<!-- OR_SRC&#45;&gt;OR_WNET -->
<g id="edge47" class="edge">
<title>OR_SRC&#45;&gt;OR_WNET</title>
<path fill="none" stroke="chocolate" d="M654.37,-499.93C753.92,-499.21 988.43,-494.25 1061,-464 1092.91,-450.7 1121.96,-423.18 1140.42,-402.84"/>
<polygon fill="chocolate" stroke="chocolate" points="1143.2,-404.98 1147.2,-395.17 1137.96,-400.34 1143.2,-404.98"/>
<text text-anchor="middle" x="1099" y="-452.8" font-family="Times,serif" font-size="14.00">swig</text>
</g>
<!-- OR_NET -->
<g id="node35" class="node">
<title>OR_NET</title>
<polygon fill="darkviolet" stroke="black" points="1159.5,-307 1098.5,-307 1098.5,-271 1165.5,-271 1165.5,-301 1159.5,-307"/>
<polyline fill="none" stroke="black" points="1159.5,-307 1159.5,-301 "/>
<polyline fill="none" stroke="black" points="1165.5,-301 1159.5,-301 "/>
<text text-anchor="middle" x="1132" y="-285.3" font-family="Times,serif" font-size="14.00">.Net files</text>
</g>
<!-- OR_SRC&#45;&gt;OR_NET -->
<g id="edge48" class="edge">
<title>OR_SRC&#45;&gt;OR_NET</title>
<path fill="none" stroke="chocolate" d="M654.17,-498.94C790.33,-495.3 1189.96,-481.26 1231,-441 1268.15,-404.56 1285.4,-366.72 1253,-326 1232.58,-300.33 1212.3,-315.96 1175.36,-307.43"/>
<polygon fill="chocolate" stroke="chocolate" points="1176.17,-304.02 1165.6,-304.7 1174.29,-310.76 1176.17,-304.02"/>
<text text-anchor="middle" x="1283" y="-373.3" font-family="Times,serif" font-size="14.00">swig</text>
</g>
<!-- PKG_CPP -->
<g id="node24" class="node">
<title>PKG_CPP</title>
<polygon fill="royalblue" stroke="black" points="654,-307 552,-307 548,-303 548,-271 650,-271 654,-275 654,-307"/>
<polyline fill="none" stroke="black" points="650,-303 548,-303 "/>
<polyline fill="none" stroke="black" points="650,-303 650,-271 "/>
<polyline fill="none" stroke="black" points="650,-303 654,-307 "/>
<text text-anchor="middle" x="601" y="-285.3" font-family="Times,serif" font-size="14.00">CMake Package</text>
</g>
<!-- OR_CPP&#45;&gt;PKG_CPP -->
<g id="edge35" class="edge">
<title>OR_CPP&#45;&gt;PKG_CPP</title>
<path fill="none" stroke="royalblue" d="M602.6,-358.6C602.32,-346.75 601.95,-330.82 601.63,-317.29"/>
<polygon fill="royalblue" stroke="royalblue" points="605.13,-317 601.4,-307.08 598.13,-317.16 605.13,-317"/>
<text text-anchor="middle" x="619" y="-329.8" font-family="Times,serif" font-size="14.00">install</text>
</g>
<!-- EX_CPP -->
<g id="node25" class="node">
<title>EX_CPP</title>
<path fill="royalblue" stroke="black" d="M634,-183C634,-183 568,-183 568,-183 562,-183 556,-177 556,-171 556,-171 556,-159 556,-159 556,-153 562,-147 568,-147 568,-147 634,-147 634,-147 640,-147 646,-153 646,-159 646,-159 646,-171 646,-171 646,-177 640,-183 634,-183"/>
<text text-anchor="middle" x="601" y="-161.3" font-family="Times,serif" font-size="14.00">C++ samples</text>
</g>
<!-- PKG_CPP&#45;&gt;EX_CPP -->
<g id="edge26" class="edge">
<title>PKG_CPP&#45;&gt;EX_CPP</title>
<path fill="none" stroke="black" d="M601,-270.78C601,-250.62 601,-216.96 601,-193.25"/>
<polygon fill="black" stroke="black" points="604.5,-193.13 601,-183.13 597.5,-193.13 604.5,-193.13"/>
</g>
<!-- OR_WPY&#45;&gt;OR_PY -->
<g id="edge39" class="edge">
<title>OR_WPY&#45;&gt;OR_PY</title>
<path fill="none" stroke="black" d="M749.23,-358.6C750.74,-346.75 752.78,-330.82 754.51,-317.29"/>
<polygon fill="black" stroke="black" points="758.02,-317.45 755.81,-307.08 751.07,-316.56 758.02,-317.45"/>
</g>
<!-- PKG_PY -->
<g id="node28" class="node">
<title>PKG_PY</title>
<polygon fill="gold" stroke="black" points="808.5,-183 711.5,-183 707.5,-179 707.5,-147 804.5,-147 808.5,-151 808.5,-183"/>
<polyline fill="none" stroke="black" points="804.5,-179 707.5,-179 "/>
<polyline fill="none" stroke="black" points="804.5,-179 804.5,-147 "/>
<polyline fill="none" stroke="black" points="804.5,-179 808.5,-183 "/>
<text text-anchor="middle" x="758" y="-161.3" font-family="Times,serif" font-size="14.00">Wheel package</text>
</g>
<!-- OR_PY&#45;&gt;PKG_PY -->
<g id="edge40" class="edge">
<title>OR_PY&#45;&gt;PKG_PY</title>
<path fill="none" stroke="gold" d="M758,-270.78C758,-250.62 758,-216.96 758,-193.25"/>
<polygon fill="gold" stroke="gold" points="761.5,-193.13 758,-183.13 754.5,-193.13 761.5,-193.13"/>
<text text-anchor="middle" x="802" y="-240.8" font-family="Times,serif" font-size="14.00">python setup.py</text>
</g>
<!-- EX_PY -->
<g id="node29" class="node">
<title>EX_PY</title>
<path fill="gold" stroke="black" d="M797.5,-68C797.5,-68 718.5,-68 718.5,-68 712.5,-68 706.5,-62 706.5,-56 706.5,-56 706.5,-44 706.5,-44 706.5,-38 712.5,-32 718.5,-32 718.5,-32 797.5,-32 797.5,-32 803.5,-32 809.5,-38 809.5,-44 809.5,-44 809.5,-56 809.5,-56 809.5,-62 803.5,-68 797.5,-68"/>
<text text-anchor="middle" x="758" y="-46.3" font-family="Times,serif" font-size="14.00">Python samples</text>
</g>
<!-- PKG_PY&#45;&gt;EX_PY -->
<g id="edge36" class="edge">
<title>PKG_PY&#45;&gt;EX_PY</title>
<path fill="none" stroke="black" d="M758,-146.84C758,-128.67 758,-99.72 758,-78.39"/>
<polygon fill="black" stroke="black" points="761.5,-78.32 758,-68.32 754.5,-78.32 761.5,-78.32"/>
</g>
<!-- OR_WJAVA&#45;&gt;OR_JAVA -->
<g id="edge44" class="edge">
<title>OR_WJAVA&#45;&gt;OR_JAVA</title>
<path fill="none" stroke="black" d="M962.86,-358.6C966.2,-346.63 970.7,-330.5 974.5,-316.89"/>
<polygon fill="black" stroke="black" points="977.92,-317.66 977.23,-307.08 971.17,-315.78 977.92,-317.66"/>
</g>
<!-- PKG_JAVA -->
<g id="node32" class="node">
<title>PKG_JAVA</title>
<polygon fill="crimson" stroke="black" points="1033.5,-183 934.5,-183 930.5,-179 930.5,-147 1029.5,-147 1033.5,-151 1033.5,-183"/>
<polyline fill="none" stroke="black" points="1029.5,-179 930.5,-179 "/>
<polyline fill="none" stroke="black" points="1029.5,-179 1029.5,-147 "/>
<polyline fill="none" stroke="black" points="1029.5,-179 1033.5,-183 "/>
<text text-anchor="middle" x="982" y="-161.3" font-family="Times,serif" font-size="14.00">Maven package</text>
</g>
<!-- OR_JAVA&#45;&gt;PKG_JAVA -->
<g id="edge45" class="edge">
<title>OR_JAVA&#45;&gt;PKG_JAVA</title>
<path fill="none" stroke="crimson" stroke-dasharray="1,5" d="M982,-270.78C982,-250.62 982,-216.96 982,-193.25"/>
<polygon fill="crimson" stroke="crimson" points="985.5,-193.13 982,-183.13 978.5,-193.13 985.5,-193.13"/>
<text text-anchor="middle" x="1020" y="-240.8" font-family="Times,serif" font-size="14.00">maven (WIP)</text>
</g>
<!-- EX_JAVA -->
<g id="node33" class="node">
<title>EX_JAVA</title>
<path fill="crimson" stroke="black" d="M1014.5,-68C1014.5,-68 949.5,-68 949.5,-68 943.5,-68 937.5,-62 937.5,-56 937.5,-56 937.5,-44 937.5,-44 937.5,-38 943.5,-32 949.5,-32 949.5,-32 1014.5,-32 1014.5,-32 1020.5,-32 1026.5,-38 1026.5,-44 1026.5,-44 1026.5,-56 1026.5,-56 1026.5,-62 1020.5,-68 1014.5,-68"/>
<text text-anchor="middle" x="982" y="-46.3" font-family="Times,serif" font-size="14.00">Java samples</text>
</g>
<!-- PKG_JAVA&#45;&gt;EX_JAVA -->
<g id="edge41" class="edge">
<title>PKG_JAVA&#45;&gt;EX_JAVA</title>
<path fill="none" stroke="black" d="M982,-146.84C982,-128.67 982,-99.72 982,-78.39"/>
<polygon fill="black" stroke="black" points="985.5,-78.32 982,-68.32 978.5,-78.32 985.5,-78.32"/>
</g>
<!-- OR_WNET&#45;&gt;OR_NET -->
<g id="edge49" class="edge">
<title>OR_WNET&#45;&gt;OR_NET</title>
<path fill="none" stroke="black" d="M1151.75,-358.88C1148.98,-353.29 1146.13,-346.98 1144,-341 1141.29,-333.37 1139.01,-324.88 1137.19,-317.06"/>
<polygon fill="black" stroke="black" points="1140.61,-316.3 1135.07,-307.27 1133.77,-317.79 1140.61,-316.3"/>
</g>
<!-- PKG_NET_RT -->
<g id="node36" class="node">
<title>PKG_NET_RT</title>
<polygon fill="darkviolet" stroke="black" points="1392,-308 1188,-308 1184,-304 1184,-270 1388,-270 1392,-274 1392,-308"/>
<polyline fill="none" stroke="black" points="1388,-304 1184,-304 "/>
<polyline fill="none" stroke="black" points="1388,-304 1388,-270 "/>
<polyline fill="none" stroke="black" points="1388,-304 1392,-308 "/>
<text text-anchor="middle" x="1288" y="-292.8" font-family="Times,serif" font-size="14.00">Nuget runtime package</text>
<text text-anchor="middle" x="1288" y="-277.8" font-family="Times,serif" font-size="14.00">Google.OrTools.runtime.rid.nupkg</text>
</g>
<!-- OR_WNET&#45;&gt;PKG_NET_RT -->
<g id="edge50" class="edge">
<title>OR_WNET&#45;&gt;PKG_NET_RT</title>
<path fill="none" stroke="darkviolet" d="M1186.4,-358.8C1205.48,-345.88 1231.86,-328.02 1252.95,-313.73"/>
<polygon fill="darkviolet" stroke="darkviolet" points="1255.02,-316.56 1261.34,-308.06 1251.09,-310.77 1255.02,-316.56"/>
<text text-anchor="middle" x="1273" y="-329.8" font-family="Times,serif" font-size="14.00">dotnet package</text>
</g>
<!-- PKG_NET -->
<g id="node37" class="node">
<title>PKG_NET</title>
<polygon fill="darkviolet" stroke="black" points="1283.5,-184 1144.5,-184 1140.5,-180 1140.5,-146 1279.5,-146 1283.5,-150 1283.5,-184"/>
<polyline fill="none" stroke="black" points="1279.5,-180 1140.5,-180 "/>
<polyline fill="none" stroke="black" points="1279.5,-180 1279.5,-146 "/>
<polyline fill="none" stroke="black" points="1279.5,-180 1283.5,-184 "/>
<text text-anchor="middle" x="1212" y="-168.8" font-family="Times,serif" font-size="14.00">Nuget package</text>
<text text-anchor="middle" x="1212" y="-153.8" font-family="Times,serif" font-size="14.00">Google.OrTools.nupkg</text>
</g>
<!-- OR_NET&#45;&gt;PKG_NET -->
<g id="edge52" class="edge">
<title>OR_NET&#45;&gt;PKG_NET</title>
<path fill="none" stroke="darkviolet" d="M1143.29,-270.78C1156.58,-250.51 1178.81,-216.61 1194.37,-192.88"/>
<polygon fill="darkviolet" stroke="darkviolet" points="1197.42,-194.61 1199.98,-184.33 1191.57,-190.77 1197.42,-194.61"/>
<text text-anchor="middle" x="1205" y="-240.8" font-family="Times,serif" font-size="14.00">dotnet package</text>
</g>
<!-- PKG_NET_RT&#45;&gt;PKG_NET -->
<g id="edge51" class="edge">
<title>PKG_NET_RT&#45;&gt;PKG_NET</title>
<path fill="none" stroke="darkviolet" d="M1276.79,-270C1264.1,-249.64 1243.31,-216.27 1228.71,-192.83"/>
<polygon fill="darkviolet" stroke="darkviolet" points="1231.52,-190.71 1223.26,-184.08 1225.58,-194.41 1231.52,-190.71"/>
</g>
<!-- EX_NET -->
<g id="node38" class="node">
<title>EX_NET</title>
<path fill="darkviolet" stroke="black" d="M1244,-68C1244,-68 1180,-68 1180,-68 1174,-68 1168,-62 1168,-56 1168,-56 1168,-44 1168,-44 1168,-38 1174,-32 1180,-32 1180,-32 1244,-32 1244,-32 1250,-32 1256,-38 1256,-44 1256,-44 1256,-56 1256,-56 1256,-62 1250,-68 1244,-68"/>
<text text-anchor="middle" x="1212" y="-46.3" font-family="Times,serif" font-size="14.00">.Net samples</text>
</g>
<!-- PKG_NET&#45;&gt;EX_NET -->
<g id="edge46" class="edge">
<title>PKG_NET&#45;&gt;EX_NET</title>
<path fill="none" stroke="black" d="M1212,-145.84C1212,-127.57 1212,-99.16 1212,-78.19"/>
<polygon fill="black" stroke="black" points="1215.5,-78 1212,-68 1208.5,-78 1215.5,-78"/>
</g>
</g>
</svg>
