<?xml version="1.0" encoding="UTF-8" standalone="no"?>
<!DOCTYPE svg PUBLIC "-//W3C//DTD SVG 1.1//EN"
 "http://www.w3.org/Graphics/SVG/1.1/DTD/svg11.dtd">
<!-- Generated by graphviz version 12.2.1 (0)
 -->
<!-- Title: CMake Pages: 1 -->
<svg width="1726pt" height="1484pt"
 viewBox="0.00 0.00 1726.38 1483.50" xmlns="http://www.w3.org/2000/svg" xmlns:xlink="http://www.w3.org/1999/xlink">
<g id="graph0" class="graph" transform="scale(1 1) rotate(0) translate(4 1479.5)">
<title>CMake</title>
<polygon fill="white" stroke="none" points="-4,4 -4,-1479.5 1722.38,-1479.5 1722.38,4 -4,4"/>
<g id="clust1" class="cluster">
<title>clusterPrerequisite</title>
<polygon fill="none" stroke="black" points="8,-904.25 8,-1333.25 361,-1333.25 361,-904.25 8,-904.25"/>
<text text-anchor="middle" x="184.5" y="-1315.95" font-family="Times,serif" font-size="14.00">Prerequisite</text>
</g>
<g id="clust2" class="cluster">
<title>clusterOR</title>
<polygon fill="none" stroke="royalblue" points="369,-8 369,-1467.5 1704,-1467.5 1704,-8 369,-8"/>
<text text-anchor="middle" x="1036.5" y="-1450.2" font-family="Times,serif" font-size="14.00">OR&#45;Tools (CMake)</text>
</g>
<g id="clust3" class="cluster">
<title>clusterDeps</title>
<polygon fill="none" stroke="grey" points="381,-616.75 381,-1434.25 1696,-1434.25 1696,-616.75 381,-616.75"/>
<text text-anchor="middle" x="1038.5" y="-1416.95" font-family="Times,serif" font-size="14.00">Dependencies</text>
<text text-anchor="middle" x="1038.5" y="-1399.7" font-family="Times,serif" font-size="14.00">(&#45;DBUILD_DEPS=ON)</text>
</g>
<g id="clust4" class="cluster">
<title>clusterZLIB</title>
<polygon fill="none" stroke="royalblue" points="890,-1153.75 890,-1231 1121,-1231 1121,-1153.75 890,-1153.75"/>
<text text-anchor="middle" x="1005.5" y="-1213.7" font-family="Times,serif" font-size="14.00">madler/zlib.git + cmake patch</text>
</g>
<g id="clust5" class="cluster">
<title>clusterBZIP2</title>
<polygon fill="none" stroke="royalblue" points="987,-1256 987,-1333.25 1220,-1333.25 1220,-1256 987,-1256"/>
<text text-anchor="middle" x="1103.5" y="-1315.95" font-family="Times,serif" font-size="14.00">bzip2/bzip2.git + cmake patch</text>
</g>
<g id="clust6" class="cluster">
<title>clusterAbsl</title>
<polygon fill="none" stroke="royalblue" points="821,-1256 821,-1333.25 979,-1333.25 979,-1256 821,-1256"/>
<text text-anchor="middle" x="900" y="-1315.95" font-family="Times,serif" font-size="14.00">abseil/abseil&#45;cpp.git</text>
</g>
<g id="clust7" class="cluster">
<title>clusterRe2</title>
<polygon fill="none" stroke="royalblue" points="1129,-1153.75 1129,-1231 1244,-1231 1244,-1153.75 1129,-1153.75"/>
<text text-anchor="middle" x="1186.5" y="-1213.7" font-family="Times,serif" font-size="14.00">google/re2.git</text>
</g>
<g id="clust8" class="cluster">
<title>clusterProtobuf</title>
<polygon fill="none" stroke="royalblue" points="821,-1003.75 821,-1081 1036,-1081 1036,-1003.75 821,-1003.75"/>
<text text-anchor="middle" x="928.5" y="-1063.7" font-family="Times,serif" font-size="14.00">protocolbuffers/protobuf.git</text>
</g>
<g id="clust9" class="cluster">
<title>clusterCoinOR</title>
<polygon fill="none" stroke="royalblue" points="389,-624.75 389,-1383.75 813,-1383.75 813,-624.75 389,-624.75"/>
<text text-anchor="middle" x="601" y="-1366.45" font-family="Times,serif" font-size="14.00">Coin&#45;OR Solver</text>
<text text-anchor="middle" x="601" y="-1349.2" font-family="Times,serif" font-size="14.00">(&#45;DUSE_COINOR=ON)</text>
</g>
<g id="clust10" class="cluster">
<title>clusterCoinUtils</title>
<polygon fill="none" stroke="royalblue" points="400,-1256 400,-1333.25 554,-1333.25 554,-1256 400,-1256"/>
<text text-anchor="middle" x="477" y="-1315.95" font-family="Times,serif" font-size="14.00">Mizux/CoinUtils.git</text>
</g>
<g id="clust11" class="cluster">
<title>clusterOsi</title>
<polygon fill="none" stroke="royalblue" points="460,-1153.75 460,-1231 571,-1231 571,-1153.75 460,-1153.75"/>
<text text-anchor="middle" x="515.5" y="-1213.7" font-family="Times,serif" font-size="14.00">Mizux/Osi.git</text>
</g>
<g id="clust12" class="cluster">
<title>clusterClp</title>
<polygon fill="none" stroke="royalblue" points="489,-904.25 489,-1081 755,-1081 755,-904.25 489,-904.25"/>
<text text-anchor="middle" x="622" y="-1063.7" font-family="Times,serif" font-size="14.00">Mizux/Clp.git</text>
</g>
<g id="clust13" class="cluster">
<title>clusterCgl</title>
<polygon fill="none" stroke="royalblue" points="407,-802 407,-879.25 519,-879.25 519,-802 407,-802"/>
<text text-anchor="middle" x="463" y="-861.95" font-family="Times,serif" font-size="14.00">Mizux/Cgl.git</text>
</g>
<g id="clust14" class="cluster">
<title>clusterCbc</title>
<polygon fill="none" stroke="royalblue" points="498,-632.75 498,-783 770,-783 770,-632.75 498,-632.75"/>
<text text-anchor="middle" x="634" y="-765.7" font-family="Times,serif" font-size="14.00">Mizux/Cbc.git</text>
</g>
<g id="clust15" class="cluster">
<title>clusterGLPKSolver</title>
<polygon fill="none" stroke="royalblue" points="1228,-1248 1228,-1383.75 1385,-1383.75 1385,-1248 1228,-1248"/>
<text text-anchor="middle" x="1306.5" y="-1366.45" font-family="Times,serif" font-size="14.00">GLPK Solver</text>
<text text-anchor="middle" x="1306.5" y="-1349.2" font-family="Times,serif" font-size="14.00">(&#45;DUSE_GLPK=ON)</text>
</g>
<g id="clust16" class="cluster">
<title>clusterGLPK</title>
<polygon fill="none" stroke="royalblue" points="1239,-1256 1239,-1333.25 1367,-1333.25 1367,-1256 1239,-1256"/>
<text text-anchor="middle" x="1303" y="-1315.95" font-family="Times,serif" font-size="14.00">Mizux/GLPK.git</text>
</g>
<g id="clust17" class="cluster">
<title>clusterHIGHSSolver</title>
<polygon fill="none" stroke="royalblue" points="1393,-1248 1393,-1383.75 1588,-1383.75 1588,-1248 1393,-1248"/>
<text text-anchor="middle" x="1490.5" y="-1366.45" font-family="Times,serif" font-size="14.00">HIGHS Solver</text>
<text text-anchor="middle" x="1490.5" y="-1349.2" font-family="Times,serif" font-size="14.00">(&#45;DUSE_HIGHS=ON)</text>
</g>
<g id="clust18" class="cluster">
<title>clusterHIGHS</title>
<polygon fill="none" stroke="royalblue" points="1401,-1256 1401,-1333.25 1580,-1333.25 1580,-1256 1401,-1256"/>
<text text-anchor="middle" x="1490.5" y="-1315.95" font-family="Times,serif" font-size="14.00">ERGO&#45;Code/HIGHS.git</text>
</g>
<g id="clust19" class="cluster">
<title>clusterSCIPSolver</title>
<polygon fill="none" stroke="royalblue" points="1046,-896.25 1046,-1131.5 1204,-1131.5 1204,-896.25 1046,-896.25"/>
<text text-anchor="middle" x="1125" y="-1114.2" font-family="Times,serif" font-size="14.00">SCIP Solver</text>
<text text-anchor="middle" x="1125" y="-1096.95" font-family="Times,serif" font-size="14.00">(&#45;DUSE_SCIP=ON)</text>
</g>
<g id="clust20" class="cluster">
<title>clusterSoplex</title>
<polygon fill="none" stroke="royalblue" points="1054,-1003.75 1054,-1081 1196,-1081 1196,-1003.75 1054,-1003.75"/>
<text text-anchor="middle" x="1125" y="-1063.7" font-family="Times,serif" font-size="14.00">scipopt/soplex.git</text>
</g>
<g id="clust21" class="cluster">
<title>clusterSCIP</title>
<polygon fill="none" stroke="royalblue" points="1054,-904.25 1054,-981.5 1178,-981.5 1178,-904.25 1054,-904.25"/>
<text text-anchor="middle" x="1116" y="-964.2" font-family="Times,serif" font-size="14.00">scipopt/scip.git</text>
</g>
<g id="clust22" class="cluster">
<title>clusterCXX</title>
<polygon fill="none" stroke="royalblue" points="589,-135.5 589,-599.75 804,-599.75 804,-135.5 589,-135.5"/>
<text text-anchor="middle" x="696.5" y="-582.45" font-family="Times,serif" font-size="14.00">C++</text>
<text text-anchor="middle" x="696.5" y="-565.2" font-family="Times,serif" font-size="14.00">(&#45;DBUILD_CXX=ON)</text>
</g>
<g id="clust23" class="cluster">
<title>clusterCXXTest</title>
<polygon fill="none" stroke="black" points="597,-143.5 597,-238 796,-238 796,-143.5 597,-143.5"/>
<text text-anchor="middle" x="696.5" y="-220.7" font-family="Times,serif" font-size="14.00">Examples</text>
<text text-anchor="middle" x="696.5" y="-203.45" font-family="Times,serif" font-size="14.00">(&#45;DBUILD_TESTING=ON)</text>
</g>
<g id="clust24" class="cluster">
<title>clusterPython</title>
<polygon fill="none" stroke="gold" points="812,-16 812,-463.5 1027,-463.5 1027,-16 812,-16"/>
<text text-anchor="middle" x="919.5" y="-446.2" font-family="Times,serif" font-size="14.00">Python</text>
<text text-anchor="middle" x="919.5" y="-428.95" font-family="Times,serif" font-size="14.00">(&#45;DBUILD_PYTHON=ON)</text>
</g>
<g id="clust25" class="cluster">
<title>clusterPythonTest</title>
<polygon fill="none" stroke="black" points="820,-24 820,-118.5 1019,-118.5 1019,-24 820,-24"/>
<text text-anchor="middle" x="919.5" y="-101.2" font-family="Times,serif" font-size="14.00">Examples</text>
<text text-anchor="middle" x="919.5" y="-83.95" font-family="Times,serif" font-size="14.00">(&#45;DBUILD_TESTING=ON)</text>
</g>
<g id="clust26" class="cluster">
<title>clusterJava</title>
<polygon fill="none" stroke="crimson" points="1076,-16 1076,-463.5 1291,-463.5 1291,-16 1076,-16"/>
<text text-anchor="middle" x="1183.5" y="-446.2" font-family="Times,serif" font-size="14.00">Java</text>
<text text-anchor="middle" x="1183.5" y="-428.95" font-family="Times,serif" font-size="14.00">(&#45;DBUILD_JAVA=ON)</text>
</g>
<g id="clust27" class="cluster">
<title>clusterJavaTest</title>
<polygon fill="none" stroke="black" points="1084,-24 1084,-118.5 1283,-118.5 1283,-24 1084,-24"/>
<text text-anchor="middle" x="1183.5" y="-101.2" font-family="Times,serif" font-size="14.00">Examples</text>
<text text-anchor="middle" x="1183.5" y="-83.95" font-family="Times,serif" font-size="14.00">(&#45;DBUILD_TESTING=ON)</text>
</g>
<g id="clust28" class="cluster">
<title>clusterNet</title>
<polygon fill="none" stroke="darkviolet" points="1320,-16 1320,-463.5 1696,-463.5 1696,-16 1320,-16"/>
<text text-anchor="middle" x="1508" y="-446.2" font-family="Times,serif" font-size="14.00">.Net</text>
<text text-anchor="middle" x="1508" y="-428.95" font-family="Times,serif" font-size="14.00">(&#45;DBUILD_DOTNET=ON)</text>
</g>
<g id="clust29" class="cluster">
<title>clusterNetTest</title>
<polygon fill="none" stroke="black" points="1422,-24 1422,-118.5 1621,-118.5 1621,-24 1422,-24"/>
<text text-anchor="middle" x="1521.5" y="-101.2" font-family="Times,serif" font-size="14.00">Examples</text>
<text text-anchor="middle" x="1521.5" y="-83.95" font-family="Times,serif" font-size="14.00">(&#45;DBUILD_TESTING=ON)</text>
</g>
<!-- CM -->
<g id="node1" class="node">
<title>CM</title>
<polygon fill="royalblue" stroke="black" points="189.75,-1300 128.25,-1300 124.25,-1296 124.25,-1264 185.75,-1264 189.75,-1268 189.75,-1300"/>
<polyline fill="none" stroke="black" points="185.75,-1296 124.25,-1296"/>
<polyline fill="none" stroke="black" points="185.75,-1296 185.75,-1264"/>
<polyline fill="none" stroke="black" points="185.75,-1296 189.75,-1300"/>
<text text-anchor="middle" x="157" y="-1277.33" font-family="Times,serif" font-size="14.00">CMake</text>
</g>
<!-- SWIG -->
<g id="node2" class="node">
<title>SWIG</title>
<polygon fill="chocolate" stroke="black" points="187.12,-1201 130.88,-1201 126.88,-1197 126.88,-1158.5 183.12,-1158.5 187.12,-1162.5 187.12,-1201"/>
<polyline fill="none" stroke="black" points="183.12,-1197 126.88,-1197"/>
<polyline fill="none" stroke="black" points="183.12,-1197 183.12,-1158.5"/>
<polyline fill="none" stroke="black" points="183.12,-1197 187.12,-1201"/>
<text text-anchor="middle" x="157" y="-1183.7" font-family="Times,serif" font-size="14.00">Swig</text>
<text text-anchor="middle" x="157" y="-1166.45" font-family="Times,serif" font-size="14.00">(Unix)</text>
</g>
<!-- CM&#45;&gt;SWIG -->
<g id="edge1" class="edge">
<title>CM&#45;&gt;SWIG</title>
</g>
<!-- PY -->
<g id="node3" class="node">
<title>PY</title>
<polygon fill="gold" stroke="black" points="82.12,-1051 19.88,-1051 15.88,-1047 15.88,-1008.5 78.12,-1008.5 82.12,-1012.5 82.12,-1051"/>
<polyline fill="none" stroke="black" points="78.12,-1047 15.88,-1047"/>
<polyline fill="none" stroke="black" points="78.12,-1047 78.12,-1008.5"/>
<polyline fill="none" stroke="black" points="78.12,-1047 82.12,-1051"/>
<text text-anchor="middle" x="49" y="-1033.7" font-family="Times,serif" font-size="14.00">Python</text>
<text text-anchor="middle" x="49" y="-1016.45" font-family="Times,serif" font-size="14.00">(3.6+)</text>
</g>
<!-- SWIG&#45;&gt;PY -->
<g id="edge2" class="edge">
<title>SWIG&#45;&gt;PY</title>
</g>
<!-- JV -->
<g id="node4" class="node">
<title>JV</title>
<polygon fill="crimson" stroke="black" points="213.75,-1051 104.25,-1051 100.25,-1047 100.25,-1008.5 209.75,-1008.5 213.75,-1012.5 213.75,-1051"/>
<polyline fill="none" stroke="black" points="209.75,-1047 100.25,-1047"/>
<polyline fill="none" stroke="black" points="209.75,-1047 209.75,-1008.5"/>
<polyline fill="none" stroke="black" points="209.75,-1047 213.75,-1051"/>
<text text-anchor="middle" x="157" y="-1033.7" font-family="Times,serif" font-size="14.00">Java</text>
<text text-anchor="middle" x="157" y="-1016.45" font-family="Times,serif" font-size="14.00">(openJDK 8+)</text>
</g>
<!-- SWIG&#45;&gt;JV -->
<g id="edge3" class="edge">
<title>SWIG&#45;&gt;JV</title>
</g>
<!-- DN -->
<g id="node5" class="node">
<title>DN</title>
<polygon fill="darkviolet" stroke="black" points="352.5,-1051 235.5,-1051 231.5,-1047 231.5,-1008.5 348.5,-1008.5 352.5,-1012.5 352.5,-1051"/>
<polyline fill="none" stroke="black" points="348.5,-1047 231.5,-1047"/>
<polyline fill="none" stroke="black" points="348.5,-1047 348.5,-1008.5"/>
<polyline fill="none" stroke="black" points="348.5,-1047 352.5,-1051"/>
<text text-anchor="middle" x="292" y="-1033.7" font-family="Times,serif" font-size="14.00">.Net Core SDK</text>
<text text-anchor="middle" x="292" y="-1016.45" font-family="Times,serif" font-size="14.00">(3.1)</text>
</g>
<!-- SWIG&#45;&gt;DN -->
<g id="edge4" class="edge">
<title>SWIG&#45;&gt;DN</title>
</g>
<!-- FS -->
<g id="node6" class="node">
<title>FS</title>
<polygon fill="darkviolet" stroke="black" points="328.5,-948.25 259.5,-948.25 255.5,-944.25 255.5,-912.25 324.5,-912.25 328.5,-916.25 328.5,-948.25"/>
<polyline fill="none" stroke="black" points="324.5,-944.25 255.5,-944.25"/>
<polyline fill="none" stroke="black" points="324.5,-944.25 324.5,-912.25"/>
<polyline fill="none" stroke="black" points="324.5,-944.25 328.5,-948.25"/>
<text text-anchor="middle" x="292" y="-925.58" font-family="Times,serif" font-size="14.00">.Net F#</text>
</g>
<!-- DN&#45;&gt;FS -->
<g id="edge5" class="edge">
<title>DN&#45;&gt;FS</title>
</g>
<!-- ZLIB -->
<g id="node7" class="node">
<title>ZLIB</title>
<path fill="royalblue" stroke="royalblue" d="M1087,-1197.75C1087,-1197.75 1017,-1197.75 1017,-1197.75 1011,-1197.75 1005,-1191.75 1005,-1185.75 1005,-1185.75 1005,-1173.75 1005,-1173.75 1005,-1167.75 1011,-1161.75 1017,-1161.75 1017,-1161.75 1087,-1161.75 1087,-1161.75 1093,-1161.75 1099,-1167.75 1099,-1173.75 1099,-1173.75 1099,-1185.75 1099,-1185.75 1099,-1191.75 1093,-1197.75 1087,-1197.75"/>
<text text-anchor="middle" x="1052" y="-1175.08" font-family="Times,serif" font-size="14.00">ZLIB::ZLIB</text>
</g>
<!-- Protobuf -->
<g id="node11" class="node">
<title>Protobuf</title>
<path fill="royalblue" stroke="royalblue" d="M999,-1047.75C999,-1047.75 857,-1047.75 857,-1047.75 851,-1047.75 845,-1041.75 845,-1035.75 845,-1035.75 845,-1023.75 845,-1023.75 845,-1017.75 851,-1011.75 857,-1011.75 857,-1011.75 999,-1011.75 999,-1011.75 1005,-1011.75 1011,-1017.75 1011,-1023.75 1011,-1023.75 1011,-1035.75 1011,-1035.75 1011,-1041.75 1005,-1047.75 999,-1047.75"/>
<text text-anchor="middle" x="928" y="-1025.08" font-family="Times,serif" font-size="14.00">protobuf::libprotobuf</text>
</g>
<!-- ZLIB&#45;&gt;Protobuf -->
<g id="edge7" class="edge">
<title>ZLIB&#45;&gt;Protobuf</title>
<path fill="none" stroke="black" d="M1037.53,-1161.48C1015.88,-1135.64 974.89,-1086.72 949.66,-1056.6"/>
<polygon fill="black" stroke="black" points="952.45,-1054.48 943.35,-1049.07 947.09,-1058.98 952.45,-1054.48"/>
</g>
<!-- SPX -->
<g id="node23" class="node">
<title>SPX</title>
<path fill="royalblue" stroke="black" d="M1156.25,-1047.75C1156.25,-1047.75 1075.75,-1047.75 1075.75,-1047.75 1069.75,-1047.75 1063.75,-1041.75 1063.75,-1035.75 1063.75,-1035.75 1063.75,-1023.75 1063.75,-1023.75 1063.75,-1017.75 1069.75,-1011.75 1075.75,-1011.75 1075.75,-1011.75 1156.25,-1011.75 1156.25,-1011.75 1162.25,-1011.75 1168.25,-1017.75 1168.25,-1023.75 1168.25,-1023.75 1168.25,-1035.75 1168.25,-1035.75 1168.25,-1041.75 1162.25,-1047.75 1156.25,-1047.75"/>
<text text-anchor="middle" x="1116" y="-1025.08" font-family="Times,serif" font-size="14.00">libsoplex&#45;pic</text>
</g>
<!-- ZLIB&#45;&gt;SPX -->
<g id="edge29" class="edge">
<title>ZLIB&#45;&gt;SPX</title>
<path fill="none" stroke="black" d="M1059.47,-1161.48C1070.45,-1136.08 1091.07,-1088.4 1104.14,-1058.18"/>
<polygon fill="black" stroke="black" points="1107.22,-1059.86 1107.98,-1049.3 1100.8,-1057.09 1107.22,-1059.86"/>
</g>
<!-- SCIP -->
<g id="node24" class="node">
<title>SCIP</title>
<path fill="royalblue" stroke="black" d="M1156,-948.25C1156,-948.25 1074,-948.25 1074,-948.25 1068,-948.25 1062,-942.25 1062,-936.25 1062,-936.25 1062,-924.25 1062,-924.25 1062,-918.25 1068,-912.25 1074,-912.25 1074,-912.25 1156,-912.25 1156,-912.25 1162,-912.25 1168,-918.25 1168,-924.25 1168,-924.25 1168,-936.25 1168,-936.25 1168,-942.25 1162,-948.25 1156,-948.25"/>
<text text-anchor="middle" x="1115" y="-925.58" font-family="Times,serif" font-size="14.00">SCIP::libscip</text>
</g>
<!-- ZLIB&#45;&gt;SCIP -->
<g id="edge30" class="edge">
<title>ZLIB&#45;&gt;SCIP</title>
<path fill="none" stroke="black" d="M1050.2,-1161.37C1046.47,-1122.98 1039.14,-1032.13 1050,-1003.75 1056.99,-985.49 1070.93,-968.93 1084.12,-956.26"/>
<polygon fill="black" stroke="black" points="1086.45,-958.87 1091.47,-949.54 1081.73,-953.7 1086.45,-958.87"/>
</g>
<!-- OR_SRC -->
<g id="node26" class="node">
<title>OR_SRC</title>
<polygon fill="royalblue" stroke="black" points="795.62,-549.25 792.62,-553.25 771.62,-553.25 768.62,-549.25 690.38,-549.25 690.38,-506.75 795.62,-506.75 795.62,-549.25"/>
<text text-anchor="middle" x="743" y="-531.95" font-family="Times,serif" font-size="14.00">OR&#45;Tools src</text>
<text text-anchor="middle" x="743" y="-514.7" font-family="Times,serif" font-size="14.00">ortools/...</text>
</g>
<!-- ZLIB&#45;&gt;OR_SRC -->
<g id="edge32" class="edge">
<title>ZLIB&#45;&gt;OR_SRC</title>
<path fill="none" stroke="black" d="M1099.42,-1162.19C1107.92,-1159.32 1116.71,-1156.4 1125,-1153.75 1158.12,-1143.17 1177.46,-1157.97 1200,-1131.5 1229.27,-1097.12 1213,-1075.9 1213,-1030.75 1213,-1030.75 1213,-1030.75 1213,-657.75 1213,-574.6 935.9,-543.23 807.23,-533.15"/>
<polygon fill="black" stroke="black" points="807.75,-529.68 797.51,-532.41 807.22,-536.66 807.75,-529.68"/>
</g>
<!-- BZip2 -->
<g id="node8" class="node">
<title>BZip2</title>
<path fill="royalblue" stroke="royalblue" d="M1200.25,-1300C1200.25,-1300 1113.75,-1300 1113.75,-1300 1107.75,-1300 1101.75,-1294 1101.75,-1288 1101.75,-1288 1101.75,-1276 1101.75,-1276 1101.75,-1270 1107.75,-1264 1113.75,-1264 1113.75,-1264 1200.25,-1264 1200.25,-1264 1206.25,-1264 1212.25,-1270 1212.25,-1276 1212.25,-1276 1212.25,-1288 1212.25,-1288 1212.25,-1294 1206.25,-1300 1200.25,-1300"/>
<text text-anchor="middle" x="1157" y="-1277.33" font-family="Times,serif" font-size="14.00">BZip2::BZip2</text>
</g>
<!-- BZip2&#45;&gt;OR_SRC -->
<g id="edge33" class="edge">
<title>BZip2&#45;&gt;OR_SRC</title>
<path fill="none" stroke="black" d="M1199.87,-1263.55C1223.14,-1253.33 1248.8,-1240.59 1257,-1231 1272.24,-1213.19 1273,-1204.19 1273,-1180.75 1273,-1180.75 1273,-1180.75 1273,-657.75 1273,-638.35 1272.81,-629.29 1258,-616.75 1241.44,-602.72 1231.37,-611.55 1210,-607.75 1066.19,-582.15 897.08,-554.15 807.04,-539.42"/>
<polygon fill="black" stroke="black" points="807.86,-536.01 797.42,-537.85 806.73,-542.91 807.86,-536.01"/>
</g>
<!-- Absl -->
<g id="node9" class="node">
<title>Absl</title>
<path fill="royalblue" stroke="royalblue" d="M958.5,-1300C958.5,-1300 885.5,-1300 885.5,-1300 879.5,-1300 873.5,-1294 873.5,-1288 873.5,-1288 873.5,-1276 873.5,-1276 873.5,-1270 879.5,-1264 885.5,-1264 885.5,-1264 958.5,-1264 958.5,-1264 964.5,-1264 970.5,-1270 970.5,-1276 970.5,-1276 970.5,-1288 970.5,-1288 970.5,-1294 964.5,-1300 958.5,-1300"/>
<text text-anchor="middle" x="922" y="-1277.33" font-family="Times,serif" font-size="14.00">absl::absl_*</text>
</g>
<!-- Re2 -->
<g id="node10" class="node">
<title>Re2</title>
<path fill="royalblue" stroke="black" d="M1198.5,-1197.75C1198.5,-1197.75 1149.5,-1197.75 1149.5,-1197.75 1143.5,-1197.75 1137.5,-1191.75 1137.5,-1185.75 1137.5,-1185.75 1137.5,-1173.75 1137.5,-1173.75 1137.5,-1167.75 1143.5,-1161.75 1149.5,-1161.75 1149.5,-1161.75 1198.5,-1161.75 1198.5,-1161.75 1204.5,-1161.75 1210.5,-1167.75 1210.5,-1173.75 1210.5,-1173.75 1210.5,-1185.75 1210.5,-1185.75 1210.5,-1191.75 1204.5,-1197.75 1198.5,-1197.75"/>
<text text-anchor="middle" x="1174" y="-1175.08" font-family="Times,serif" font-size="14.00">re2::re2</text>
</g>
<!-- Absl&#45;&gt;Re2 -->
<g id="edge6" class="edge">
<title>Absl&#45;&gt;Re2</title>
<path fill="none" stroke="black" d="M948.96,-1263.58C959.23,-1257.71 971.29,-1251.72 983,-1248 1043.58,-1228.76 1068.01,-1259.14 1125,-1231 1136.43,-1225.36 1146.69,-1215.94 1154.84,-1206.77"/>
<polygon fill="black" stroke="black" points="1157.31,-1209.28 1161.01,-1199.36 1151.92,-1204.81 1157.31,-1209.28"/>
</g>
<!-- Absl&#45;&gt;Protobuf -->
<g id="edge8" class="edge">
<title>Absl&#45;&gt;Protobuf</title>
<path fill="none" stroke="black" d="M905.27,-1263.55C897.83,-1254.57 889.87,-1243.01 886,-1231 866.56,-1170.74 894.55,-1097.32 913.35,-1058.27"/>
<polygon fill="black" stroke="black" points="916.36,-1060.08 917.69,-1049.57 910.09,-1056.96 916.36,-1060.08"/>
</g>
<!-- Absl&#45;&gt;OR_SRC -->
<g id="edge34" class="edge">
<title>Absl&#45;&gt;OR_SRC</title>
<path fill="none" stroke="black" d="M948.25,-1263.57C958.64,-1257.55 970.97,-1251.46 983,-1248 1011.36,-1239.85 1226.78,-1251.5 1248,-1231 1264.15,-1215.41 1253,-1203.19 1253,-1180.75 1253,-1180.75 1253,-1180.75 1253,-657.75 1253,-638.35 1252.85,-629.24 1238,-616.75 1220.72,-602.22 1210.23,-611.72 1188,-607.75 1052.55,-583.57 893.84,-555.56 807.31,-540.32"/>
<polygon fill="black" stroke="black" points="808.04,-536.89 797.59,-538.61 806.83,-543.79 808.04,-536.89"/>
</g>
<!-- Re2&#45;&gt;Protobuf -->
<g id="edge9" class="edge">
<title>Re2&#45;&gt;Protobuf</title>
<path fill="none" stroke="black" d="M1141.97,-1161.35C1136.39,-1158.63 1130.59,-1155.98 1125,-1153.75 1092.71,-1140.85 1080.69,-1147.84 1050,-1131.5 1012.43,-1111.49 975.64,-1078.79 952.45,-1056.09"/>
<polygon fill="black" stroke="black" points="955.18,-1053.87 945.62,-1049.29 950.24,-1058.83 955.18,-1053.87"/>
</g>
<!-- Re2&#45;&gt;OR_SRC -->
<g id="edge36" class="edge">
<title>Re2&#45;&gt;OR_SRC</title>
<path fill="none" stroke="black" d="M1192.41,-1161.48C1200.22,-1153.14 1208.73,-1142.56 1214,-1131.5 1233.59,-1090.36 1233,-1076.32 1233,-1030.75 1233,-1030.75 1233,-1030.75 1233,-657.75 1233,-638.35 1232.51,-629.64 1218,-616.75 1205.02,-605.22 1196.99,-611.29 1180,-607.75 1048.14,-580.28 892.71,-553.62 807.31,-539.47"/>
<polygon fill="black" stroke="black" points="807.91,-536.02 797.48,-537.84 806.77,-542.92 807.91,-536.02"/>
</g>
<!-- Protobuf&#45;&gt;OR_SRC -->
<g id="edge35" class="edge">
<title>Protobuf&#45;&gt;OR_SRC</title>
<path fill="none" stroke="black" d="M844.76,-1015.32C817.48,-1011.22 786.99,-1006.95 759,-1003.75 673.37,-993.95 378,-1017.44 378,-931.25 378,-931.25 378,-931.25 378,-657.75 378,-594.7 574.14,-554.9 678.86,-538.15"/>
<polygon fill="black" stroke="black" points="679.1,-541.65 688.43,-536.64 678.01,-534.74 679.1,-541.65"/>
</g>
<!-- CoinUtils -->
<g id="node12" class="node">
<title>CoinUtils</title>
<path fill="royalblue" stroke="royalblue" d="M527,-1300C527,-1300 427,-1300 427,-1300 421,-1300 415,-1294 415,-1288 415,-1288 415,-1276 415,-1276 415,-1270 421,-1264 427,-1264 427,-1264 527,-1264 527,-1264 533,-1264 539,-1270 539,-1276 539,-1276 539,-1288 539,-1288 539,-1294 533,-1300 527,-1300"/>
<text text-anchor="middle" x="477" y="-1277.33" font-family="Times,serif" font-size="14.00">Coin::CoinUtils</text>
</g>
<!-- Osi -->
<g id="node13" class="node">
<title>Osi</title>
<path fill="royalblue" stroke="royalblue" d="M543.25,-1197.75C543.25,-1197.75 486.75,-1197.75 486.75,-1197.75 480.75,-1197.75 474.75,-1191.75 474.75,-1185.75 474.75,-1185.75 474.75,-1173.75 474.75,-1173.75 474.75,-1167.75 480.75,-1161.75 486.75,-1161.75 486.75,-1161.75 543.25,-1161.75 543.25,-1161.75 549.25,-1161.75 555.25,-1167.75 555.25,-1173.75 555.25,-1173.75 555.25,-1185.75 555.25,-1185.75 555.25,-1191.75 549.25,-1197.75 543.25,-1197.75"/>
<text text-anchor="middle" x="515" y="-1175.08" font-family="Times,serif" font-size="14.00">Coin::Osi</text>
</g>
<!-- CoinUtils&#45;&gt;Osi -->
<g id="edge10" class="edge">
<title>CoinUtils&#45;&gt;Osi</title>
<path fill="none" stroke="black" d="M483.62,-1263.54C489.37,-1248.37 497.79,-1226.14 504.47,-1208.53"/>
<polygon fill="black" stroke="black" points="507.65,-1210.02 507.92,-1199.43 501.1,-1207.54 507.65,-1210.02"/>
</g>
<!-- Clp -->
<g id="node14" class="node">
<title>Clp</title>
<path fill="royalblue" stroke="royalblue" d="M566.62,-1047.75C566.62,-1047.75 509.38,-1047.75 509.38,-1047.75 503.38,-1047.75 497.38,-1041.75 497.38,-1035.75 497.38,-1035.75 497.38,-1023.75 497.38,-1023.75 497.38,-1017.75 503.38,-1011.75 509.38,-1011.75 509.38,-1011.75 566.62,-1011.75 566.62,-1011.75 572.62,-1011.75 578.62,-1017.75 578.62,-1023.75 578.62,-1023.75 578.62,-1035.75 578.62,-1035.75 578.62,-1041.75 572.62,-1047.75 566.62,-1047.75"/>
<text text-anchor="middle" x="538" y="-1025.08" font-family="Times,serif" font-size="14.00">Coin::Clp</text>
</g>
<!-- CoinUtils&#45;&gt;Clp -->
<g id="edge11" class="edge">
<title>CoinUtils&#45;&gt;Clp</title>
<path fill="none" stroke="black" d="M467.85,-1263.96C463.3,-1254.53 458.31,-1242.44 456,-1231 449.22,-1197.34 446.05,-1186.61 456,-1153.75 467.29,-1116.45 494.04,-1080.13 513.93,-1056.74"/>
<polygon fill="black" stroke="black" points="516.5,-1059.12 520.44,-1049.28 511.23,-1054.51 516.5,-1059.12"/>
</g>
<!-- OsiClp -->
<g id="node15" class="node">
<title>OsiClp</title>
<path fill="royalblue" stroke="royalblue" d="M735.25,-948.25C735.25,-948.25 654.75,-948.25 654.75,-948.25 648.75,-948.25 642.75,-942.25 642.75,-936.25 642.75,-936.25 642.75,-924.25 642.75,-924.25 642.75,-918.25 648.75,-912.25 654.75,-912.25 654.75,-912.25 735.25,-912.25 735.25,-912.25 741.25,-912.25 747.25,-918.25 747.25,-924.25 747.25,-924.25 747.25,-936.25 747.25,-936.25 747.25,-942.25 741.25,-948.25 735.25,-948.25"/>
<text text-anchor="middle" x="695" y="-925.58" font-family="Times,serif" font-size="14.00">Coin::OsiClp</text>
</g>
<!-- CoinUtils&#45;&gt;OsiClp -->
<g id="edge13" class="edge">
<title>CoinUtils&#45;&gt;OsiClp</title>
<path fill="none" stroke="black" d="M539.27,-1270.91C608.99,-1255.91 718.78,-1220.4 769,-1140.5 806.75,-1080.45 751.95,-998.57 718.18,-957.3"/>
<polygon fill="black" stroke="black" points="721.01,-955.23 711.9,-949.82 715.65,-959.73 721.01,-955.23"/>
</g>
<!-- Cgl -->
<g id="node17" class="node">
<title>Cgl</title>
<path fill="royalblue" stroke="royalblue" d="M491.62,-846C491.62,-846 434.38,-846 434.38,-846 428.38,-846 422.38,-840 422.38,-834 422.38,-834 422.38,-822 422.38,-822 422.38,-816 428.38,-810 434.38,-810 434.38,-810 491.62,-810 491.62,-810 497.62,-810 503.62,-816 503.62,-822 503.62,-822 503.62,-834 503.62,-834 503.62,-840 497.62,-846 491.62,-846"/>
<text text-anchor="middle" x="463" y="-823.33" font-family="Times,serif" font-size="14.00">Coin::Cgl</text>
</g>
<!-- CoinUtils&#45;&gt;Cgl -->
<g id="edge17" class="edge">
<title>CoinUtils&#45;&gt;Cgl</title>
<path fill="none" stroke="black" d="M458.98,-1263.61C441.63,-1244.92 418,-1213.47 418,-1180.75 418,-1180.75 418,-1180.75 418,-929.25 418,-914.42 418,-910.22 423,-896.25 428.08,-882.06 436.26,-867.54 443.91,-855.64"/>
<polygon fill="black" stroke="black" points="446.65,-857.84 449.29,-847.58 440.83,-853.96 446.65,-857.84"/>
</g>
<!-- Cbc -->
<g id="node18" class="node">
<title>Cbc</title>
<path fill="royalblue" stroke="royalblue" d="M578.12,-749.75C578.12,-749.75 517.88,-749.75 517.88,-749.75 511.88,-749.75 505.88,-743.75 505.88,-737.75 505.88,-737.75 505.88,-725.75 505.88,-725.75 505.88,-719.75 511.88,-713.75 517.88,-713.75 517.88,-713.75 578.12,-713.75 578.12,-713.75 584.12,-713.75 590.12,-719.75 590.12,-725.75 590.12,-725.75 590.12,-737.75 590.12,-737.75 590.12,-743.75 584.12,-749.75 578.12,-749.75"/>
<text text-anchor="middle" x="548" y="-727.08" font-family="Times,serif" font-size="14.00">Coin::Cbc</text>
</g>
<!-- CoinUtils&#45;&gt;Cbc -->
<g id="edge20" class="edge">
<title>CoinUtils&#45;&gt;Cbc</title>
<path fill="none" stroke="black" d="M448.06,-1263.55C436.05,-1255.05 422.88,-1243.87 414,-1231 400.69,-1211.71 398,-1204.19 398,-1180.75 398,-1180.75 398,-1180.75 398,-827 398,-815.67 396.04,-810.94 403,-802 425.61,-772.95 463.43,-755.45 494.78,-745.31"/>
<polygon fill="black" stroke="black" points="495.56,-748.73 504.11,-742.47 493.52,-742.03 495.56,-748.73"/>
</g>
<!-- OsiCbc -->
<g id="node19" class="node">
<title>OsiCbc</title>
<path fill="royalblue" stroke="royalblue" d="M749.75,-676.75C749.75,-676.75 666.25,-676.75 666.25,-676.75 660.25,-676.75 654.25,-670.75 654.25,-664.75 654.25,-664.75 654.25,-652.75 654.25,-652.75 654.25,-646.75 660.25,-640.75 666.25,-640.75 666.25,-640.75 749.75,-640.75 749.75,-640.75 755.75,-640.75 761.75,-646.75 761.75,-652.75 761.75,-652.75 761.75,-664.75 761.75,-664.75 761.75,-670.75 755.75,-676.75 749.75,-676.75"/>
<text text-anchor="middle" x="708" y="-654.08" font-family="Times,serif" font-size="14.00">Coin::OsiCbc</text>
</g>
<!-- CoinUtils&#45;&gt;OsiCbc -->
<g id="edge24" class="edge">
<title>CoinUtils&#45;&gt;OsiCbc</title>
<path fill="none" stroke="black" d="M539.28,-1274.73C634.15,-1263.42 804,-1235.53 804,-1180.75 804,-1180.75 804,-1180.75 804,-730.75 804,-709.39 788.45,-693.72 769.86,-682.63"/>
<polygon fill="black" stroke="black" points="771.72,-679.65 761.26,-677.96 768.38,-685.8 771.72,-679.65"/>
</g>
<!-- Osi&#45;&gt;Clp -->
<g id="edge12" class="edge">
<title>Osi&#45;&gt;Clp</title>
<path fill="none" stroke="black" d="M517.68,-1161.48C521.6,-1136.31 528.91,-1089.24 533.61,-1058.98"/>
<polygon fill="black" stroke="black" points="537.02,-1059.82 535.1,-1049.4 530.11,-1058.75 537.02,-1059.82"/>
</g>
<!-- Osi&#45;&gt;OsiClp -->
<g id="edge14" class="edge">
<title>Osi&#45;&gt;OsiClp</title>
<path fill="none" stroke="black" d="M549.29,-1161.45C562.52,-1153.6 577.07,-1143.39 588,-1131.5 636.29,-1078.99 669.78,-1000.64 685.26,-959.23"/>
<polygon fill="black" stroke="black" points="688.49,-960.6 688.63,-950 681.91,-958.2 688.49,-960.6"/>
</g>
<!-- Osi&#45;&gt;Cgl -->
<g id="edge18" class="edge">
<title>Osi&#45;&gt;Cgl</title>
<path fill="none" stroke="black" d="M474.37,-1161.9C465.83,-1156.38 457.93,-1149.34 453,-1140.5 401.32,-1047.89 434.64,-914.5 453.09,-857.05"/>
<polygon fill="black" stroke="black" points="456.36,-858.33 456.19,-847.74 449.71,-856.13 456.36,-858.33"/>
</g>
<!-- Osi&#45;&gt;Cbc -->
<g id="edge21" class="edge">
<title>Osi&#45;&gt;Cbc</title>
<path fill="none" stroke="black" d="M501.17,-1161.38C495.15,-1152.87 488.65,-1142.17 485,-1131.5 468.06,-1081.95 440.62,-938.91 471,-896.25 478.09,-886.29 485.38,-891.05 497,-887.25 508.49,-883.49 515.21,-888.49 523,-879.25 534.16,-866.02 530.05,-819.06 533,-802 535.33,-788.5 538.48,-773.63 541.28,-761.15"/>
<polygon fill="black" stroke="black" points="544.67,-762.04 543.49,-751.51 537.85,-760.47 544.67,-762.04"/>
</g>
<!-- Osi&#45;&gt;OsiCbc -->
<g id="edge25" class="edge">
<title>Osi&#45;&gt;OsiCbc</title>
<path fill="none" stroke="black" d="M555.71,-1171.53C624.28,-1159.29 755.7,-1135.38 759,-1131.5 829.02,-1049.07 766,-996.41 766,-888.25 766,-888.25 766,-888.25 766,-730.75 766,-712.73 754.66,-696.77 742.01,-684.56"/>
<polygon fill="black" stroke="black" points="744.54,-682.13 734.74,-678.1 739.89,-687.36 744.54,-682.13"/>
</g>
<!-- Clp&#45;&gt;OsiClp -->
<g id="edge15" class="edge">
<title>Clp&#45;&gt;OsiClp</title>
<path fill="none" stroke="black" d="M578.36,-1011.43C595.96,-1003.24 616.52,-992.78 634,-981.5 645.68,-973.96 657.67,-964.52 667.89,-955.86"/>
<polygon fill="black" stroke="black" points="669.96,-958.7 675.23,-949.51 665.38,-953.41 669.96,-958.7"/>
</g>
<!-- ClpSolver -->
<g id="node16" class="node">
<title>ClpSolver</title>
<path fill="royalblue" stroke="royalblue" d="M612.5,-948.25C612.5,-948.25 509.5,-948.25 509.5,-948.25 503.5,-948.25 497.5,-942.25 497.5,-936.25 497.5,-936.25 497.5,-924.25 497.5,-924.25 497.5,-918.25 503.5,-912.25 509.5,-912.25 509.5,-912.25 612.5,-912.25 612.5,-912.25 618.5,-912.25 624.5,-918.25 624.5,-924.25 624.5,-924.25 624.5,-936.25 624.5,-936.25 624.5,-942.25 618.5,-948.25 612.5,-948.25"/>
<text text-anchor="middle" x="561" y="-925.58" font-family="Times,serif" font-size="14.00">Coin::ClpSolver</text>
</g>
<!-- Clp&#45;&gt;ClpSolver -->
<g id="edge16" class="edge">
<title>Clp&#45;&gt;ClpSolver</title>
<path fill="none" stroke="black" d="M542.11,-1011.32C545.51,-996.9 550.41,-976.14 554.37,-959.37"/>
<polygon fill="black" stroke="black" points="557.69,-960.54 556.58,-950 550.87,-958.93 557.69,-960.54"/>
</g>
<!-- Clp&#45;&gt;Cbc -->
<g id="edge22" class="edge">
<title>Clp&#45;&gt;Cbc</title>
<path fill="none" stroke="black" d="M512.81,-1011.41C503.49,-1003.49 493.99,-993.25 489,-981.5 474.18,-946.63 467.57,-927.5 489,-896.25 500.86,-878.96 520.28,-895.91 533,-879.25 558.86,-845.37 557.4,-793.49 553.24,-761.42"/>
<polygon fill="black" stroke="black" points="556.72,-761.05 551.78,-751.68 549.8,-762.09 556.72,-761.05"/>
</g>
<!-- OsiClp&#45;&gt;Cgl -->
<g id="edge19" class="edge">
<title>OsiClp&#45;&gt;Cgl</title>
<path fill="none" stroke="black" d="M664.65,-911.89C654.98,-906.62 644.15,-900.97 634,-896.25 594.72,-877.98 548.99,-860.17 514.71,-847.47"/>
<polygon fill="black" stroke="black" points="516.02,-844.23 505.43,-844.06 513.61,-850.79 516.02,-844.23"/>
</g>
<!-- ClpSolver&#45;&gt;OR_SRC -->
<g id="edge37" class="edge">
<title>ClpSolver&#45;&gt;OR_SRC</title>
<path fill="none" stroke="black" d="M597.88,-911.85C609.36,-906.63 622.13,-901.02 634,-896.25 717.11,-862.83 824,-918.58 824,-829 824,-829 824,-829 824,-657.75 824,-618.77 797.07,-581.94 774.27,-557.74"/>
<polygon fill="black" stroke="black" points="776.98,-555.5 767.49,-550.8 771.98,-560.4 776.98,-555.5"/>
</g>
<!-- Cgl&#45;&gt;Cbc -->
<g id="edge23" class="edge">
<title>Cgl&#45;&gt;Cbc</title>
<path fill="none" stroke="black" d="M478.59,-809.71C491.45,-795.45 509.89,-775 524.54,-758.77"/>
<polygon fill="black" stroke="black" points="527.11,-761.14 531.21,-751.37 521.91,-756.45 527.11,-761.14"/>
</g>
<!-- Cbc&#45;&gt;OsiCbc -->
<g id="edge26" class="edge">
<title>Cbc&#45;&gt;OsiCbc</title>
<path fill="none" stroke="black" d="M587.14,-713.38C608.64,-703.84 635.53,-691.91 658.47,-681.73"/>
<polygon fill="black" stroke="black" points="659.6,-685.05 667.33,-677.8 656.77,-678.66 659.6,-685.05"/>
</g>
<!-- CbcSolver -->
<g id="node20" class="node">
<title>CbcSolver</title>
<path fill="royalblue" stroke="royalblue" d="M624,-676.75C624,-676.75 518,-676.75 518,-676.75 512,-676.75 506,-670.75 506,-664.75 506,-664.75 506,-652.75 506,-652.75 506,-646.75 512,-640.75 518,-640.75 518,-640.75 624,-640.75 624,-640.75 630,-640.75 636,-646.75 636,-652.75 636,-652.75 636,-664.75 636,-664.75 636,-670.75 630,-676.75 624,-676.75"/>
<text text-anchor="middle" x="571" y="-654.08" font-family="Times,serif" font-size="14.00">Coin::CbcSolver</text>
</g>
<!-- Cbc&#45;&gt;CbcSolver -->
<g id="edge27" class="edge">
<title>Cbc&#45;&gt;CbcSolver</title>
<path fill="none" stroke="black" d="M553.57,-713.56C556.08,-705.8 559.12,-696.43 561.95,-687.7"/>
<polygon fill="black" stroke="black" points="565.26,-688.81 565.02,-678.22 558.61,-686.65 565.26,-688.81"/>
</g>
<!-- CbcSolver&#45;&gt;OR_SRC -->
<g id="edge38" class="edge">
<title>CbcSolver&#45;&gt;OR_SRC</title>
<path fill="none" stroke="black" d="M594.2,-640.39C622.95,-618.87 672.28,-581.93 706.21,-556.54"/>
<polygon fill="black" stroke="black" points="708.23,-559.4 714.13,-550.61 704.03,-553.8 708.23,-559.4"/>
</g>
<!-- GLPK -->
<g id="node21" class="node">
<title>GLPK</title>
<path fill="royalblue" stroke="black" d="M1324.25,-1300C1324.25,-1300 1261.75,-1300 1261.75,-1300 1255.75,-1300 1249.75,-1294 1249.75,-1288 1249.75,-1288 1249.75,-1276 1249.75,-1276 1249.75,-1270 1255.75,-1264 1261.75,-1264 1261.75,-1264 1324.25,-1264 1324.25,-1264 1330.25,-1264 1336.25,-1270 1336.25,-1276 1336.25,-1276 1336.25,-1288 1336.25,-1288 1336.25,-1294 1330.25,-1300 1324.25,-1300"/>
<text text-anchor="middle" x="1293" y="-1277.33" font-family="Times,serif" font-size="14.00">glpk::glpk</text>
</g>
<!-- GLPK&#45;&gt;OR_SRC -->
<g id="edge39" class="edge">
<title>GLPK&#45;&gt;OR_SRC</title>
<path fill="none" stroke="black" d="M1293,-1263.61C1293,-1243.62 1293,-1209.82 1293,-1180.75 1293,-1180.75 1293,-1180.75 1293,-657.75 1293,-638.35 1292.81,-629.29 1278,-616.75 1261.44,-602.72 1251.38,-611.48 1230,-607.75 1078.75,-581.34 900.51,-553.3 807.26,-538.87"/>
<polygon fill="black" stroke="black" points="807.95,-535.43 797.54,-537.36 806.88,-542.35 807.95,-535.43"/>
</g>
<!-- HIGHS -->
<g id="node22" class="node">
<title>HIGHS</title>
<path fill="royalblue" stroke="black" d="M1529.5,-1300C1529.5,-1300 1450.5,-1300 1450.5,-1300 1444.5,-1300 1438.5,-1294 1438.5,-1288 1438.5,-1288 1438.5,-1276 1438.5,-1276 1438.5,-1270 1444.5,-1264 1450.5,-1264 1450.5,-1264 1529.5,-1264 1529.5,-1264 1535.5,-1264 1541.5,-1270 1541.5,-1276 1541.5,-1276 1541.5,-1288 1541.5,-1288 1541.5,-1294 1535.5,-1300 1529.5,-1300"/>
<text text-anchor="middle" x="1490" y="-1277.33" font-family="Times,serif" font-size="14.00">highs::highs</text>
</g>
<!-- SPX&#45;&gt;SCIP -->
<g id="edge28" class="edge">
<title>SPX&#45;&gt;SCIP</title>
<path fill="none" stroke="black" d="M1115.82,-1011.32C1115.67,-997.04 1115.46,-976.54 1115.29,-959.86"/>
<polygon fill="black" stroke="black" points="1118.8,-960.01 1115.19,-950.04 1111.8,-960.08 1118.8,-960.01"/>
</g>
<!-- SCIP&#45;&gt;OR_SRC -->
<g id="edge40" class="edge">
<title>SCIP&#45;&gt;OR_SRC</title>
<path fill="none" stroke="black" d="M1061.64,-913.24C1023.91,-898.24 980,-871.62 980,-829 980,-829 980,-829 980,-657.75 980,-578.74 877.05,-547.95 806.86,-536.14"/>
<polygon fill="black" stroke="black" points="807.81,-532.75 797.39,-534.64 806.72,-539.66 807.81,-532.75"/>
</g>
<!-- SWIG_WIN -->
<g id="node25" class="node">
<title>SWIG_WIN</title>
<path fill="royalblue" stroke="chocolate" d="M1675.5,-1303.25C1675.5,-1303.25 1608.5,-1303.25 1608.5,-1303.25 1602.5,-1303.25 1596.5,-1297.25 1596.5,-1291.25 1596.5,-1291.25 1596.5,-1272.75 1596.5,-1272.75 1596.5,-1266.75 1602.5,-1260.75 1608.5,-1260.75 1608.5,-1260.75 1675.5,-1260.75 1675.5,-1260.75 1681.5,-1260.75 1687.5,-1266.75 1687.5,-1272.75 1687.5,-1272.75 1687.5,-1291.25 1687.5,-1291.25 1687.5,-1297.25 1681.5,-1303.25 1675.5,-1303.25"/>
<text text-anchor="middle" x="1642" y="-1285.95" font-family="Times,serif" font-size="14.00">swigwin</text>
<text text-anchor="middle" x="1642" y="-1268.7" font-family="Times,serif" font-size="14.00">(Windows)</text>
</g>
<!-- OR_CPP -->
<g id="node27" class="node">
<title>OR_CPP</title>
<path fill="royalblue" stroke="black" d="M783,-413C783,-413 683,-413 683,-413 677,-413 671,-407 671,-401 671,-401 671,-389 671,-389 671,-383 677,-377 683,-377 683,-377 783,-377 783,-377 789,-377 795,-383 795,-389 795,-389 795,-401 795,-401 795,-407 789,-413 783,-413"/>
<text text-anchor="middle" x="733" y="-390.32" font-family="Times,serif" font-size="14.00">ortools::ortools</text>
</g>
<!-- OR_SRC&#45;&gt;OR_CPP -->
<g id="edge41" class="edge">
<title>OR_SRC&#45;&gt;OR_CPP</title>
<path fill="none" stroke="black" d="M741.44,-506.53C739.76,-484.52 737.07,-449.35 735.18,-424.6"/>
<polygon fill="black" stroke="black" points="738.69,-424.61 734.44,-414.9 731.71,-425.14 738.69,-424.61"/>
</g>
<!-- OR_WPY -->
<g id="node30" class="node">
<title>OR_WPY</title>
<polygon fill="gold" stroke="black" points="991.62,-413 820.38,-413 820.38,-377 997.62,-377 997.62,-407 991.62,-413"/>
<polyline fill="none" stroke="black" points="991.62,-413 991.62,-407"/>
<polyline fill="none" stroke="black" points="997.62,-407 991.62,-407"/>
<text text-anchor="middle" x="909" y="-390.32" font-family="Times,serif" font-size="14.00">C++ Python wrappers</text>
</g>
<!-- OR_SRC&#45;&gt;OR_WPY -->
<g id="edge44" class="edge">
<title>OR_SRC&#45;&gt;OR_WPY</title>
<path fill="none" stroke="chocolate" d="M768.94,-506.53C798.48,-483.21 846.73,-445.14 878.17,-420.33"/>
<polygon fill="chocolate" stroke="chocolate" points="880.09,-423.28 885.77,-414.33 875.75,-417.78 880.09,-423.28"/>
<text text-anchor="middle" x="827.63" y="-475.45" font-family="Times,serif" font-size="14.00">swig</text>
</g>
<!-- OR_PY -->
<g id="node31" class="node">
<title>OR_PY</title>
<polygon fill="gold" stroke="black" points="953.38,-320.5 858.62,-320.5 858.62,-284.5 959.38,-284.5 959.38,-314.5 953.38,-320.5"/>
<polyline fill="none" stroke="black" points="953.38,-320.5 953.38,-314.5"/>
<polyline fill="none" stroke="black" points="959.38,-314.5 953.38,-314.5"/>
<text text-anchor="middle" x="909" y="-297.82" font-family="Times,serif" font-size="14.00">Python files</text>
</g>
<!-- OR_SRC&#45;&gt;OR_PY -->
<g id="edge45" class="edge">
<title>OR_SRC&#45;&gt;OR_PY</title>
<path fill="none" stroke="chocolate" d="M796.12,-521.89C865.52,-513.98 981.25,-496.18 1007,-463.5 1030.79,-433.3 1024.19,-411.39 1007,-377 996.26,-355.52 975.93,-338.69 956.55,-326.58"/>
<polygon fill="chocolate" stroke="chocolate" points="958.56,-323.7 948.17,-321.63 954.99,-329.73 958.56,-323.7"/>
<text text-anchor="middle" x="1038.97" y="-390.32" font-family="Times,serif" font-size="14.00">swig</text>
</g>
<!-- OR_WJAVA -->
<g id="node34" class="node">
<title>OR_WJAVA</title>
<polygon fill="crimson" stroke="black" points="1236.5,-413 1085.5,-413 1085.5,-377 1242.5,-377 1242.5,-407 1236.5,-413"/>
<polyline fill="none" stroke="black" points="1236.5,-413 1236.5,-407"/>
<polyline fill="none" stroke="black" points="1242.5,-407 1236.5,-407"/>
<text text-anchor="middle" x="1164" y="-390.32" font-family="Times,serif" font-size="14.00">C++ Java wrappers</text>
</g>
<!-- OR_SRC&#45;&gt;OR_WJAVA -->
<g id="edge49" class="edge">
<title>OR_SRC&#45;&gt;OR_WJAVA</title>
<path fill="none" stroke="chocolate" d="M795.86,-523.39C868.77,-517.85 996.05,-506.08 1039,-488.75 1077.44,-473.24 1114.7,-443.02 1138.39,-421.28"/>
<polygon fill="chocolate" stroke="chocolate" points="1140.77,-423.84 1145.67,-414.45 1135.98,-418.73 1140.77,-423.84"/>
<text text-anchor="middle" x="1085.8" y="-475.45" font-family="Times,serif" font-size="14.00">swig</text>
</g>
<!-- OR_JAVA -->
<g id="node35" class="node">
<title>OR_JAVA</title>
<polygon fill="crimson" stroke="black" points="1239.25,-320.5 1164.75,-320.5 1164.75,-284.5 1245.25,-284.5 1245.25,-314.5 1239.25,-320.5"/>
<polyline fill="none" stroke="black" points="1239.25,-320.5 1239.25,-314.5"/>
<polyline fill="none" stroke="black" points="1245.25,-314.5 1239.25,-314.5"/>
<text text-anchor="middle" x="1205" y="-297.82" font-family="Times,serif" font-size="14.00">Java files</text>
</g>
<!-- OR_SRC&#45;&gt;OR_JAVA -->
<g id="edge50" class="edge">
<title>OR_SRC&#45;&gt;OR_JAVA</title>
<path fill="none" stroke="chocolate" d="M795.67,-524.41C919.89,-517.74 1222.89,-498.07 1252,-463.5 1284.64,-424.73 1250.67,-364.18 1225.92,-329.75"/>
<polygon fill="chocolate" stroke="chocolate" points="1228.93,-327.93 1220.15,-321.99 1223.31,-332.1 1228.93,-327.93"/>
<text text-anchor="middle" x="1281.94" y="-390.32" font-family="Times,serif" font-size="14.00">swig</text>
</g>
<!-- OR_WNET -->
<g id="node38" class="node">
<title>OR_WNET</title>
<polygon fill="darkviolet" stroke="black" points="1530.88,-413 1379.12,-413 1379.12,-377 1536.88,-377 1536.88,-407 1530.88,-413"/>
<polyline fill="none" stroke="black" points="1530.88,-413 1530.88,-407"/>
<polyline fill="none" stroke="black" points="1536.88,-407 1530.88,-407"/>
<text text-anchor="middle" x="1458" y="-390.32" font-family="Times,serif" font-size="14.00">C++ .Net wrappers</text>
</g>
<!-- OR_SRC&#45;&gt;OR_WNET -->
<g id="edge54" class="edge">
<title>OR_SRC&#45;&gt;OR_WNET</title>
<path fill="none" stroke="chocolate" d="M795.91,-526.06C913.51,-523.51 1193.4,-514.82 1284,-488.75 1336.1,-473.76 1390.33,-441.82 1424.11,-419.64"/>
<polygon fill="chocolate" stroke="chocolate" points="1425.86,-422.68 1432.24,-414.22 1421.98,-416.86 1425.86,-422.68"/>
<text text-anchor="middle" x="1345.96" y="-475.45" font-family="Times,serif" font-size="14.00">swig</text>
</g>
<!-- OR_NET -->
<g id="node39" class="node">
<title>OR_NET</title>
<polygon fill="darkviolet" stroke="black" points="1681.62,-320.5 1606.38,-320.5 1606.38,-284.5 1687.62,-284.5 1687.62,-314.5 1681.62,-320.5"/>
<polyline fill="none" stroke="black" points="1681.62,-320.5 1681.62,-314.5"/>
<polyline fill="none" stroke="black" points="1687.62,-314.5 1681.62,-314.5"/>
<text text-anchor="middle" x="1647" y="-297.82" font-family="Times,serif" font-size="14.00">.Net files</text>
</g>
<!-- OR_SRC&#45;&gt;OR_NET -->
<g id="edge55" class="edge">
<title>OR_SRC&#45;&gt;OR_NET</title>
<path fill="none" stroke="chocolate" d="M795.97,-525.7C964.86,-521.17 1483.19,-504.07 1546,-463.5 1594.64,-432.08 1624.18,-368.08 1637.86,-331.25"/>
<polygon fill="chocolate" stroke="chocolate" points="1641.03,-332.78 1641.1,-322.19 1634.44,-330.43 1641.03,-332.78"/>
<text text-anchor="middle" x="1633.69" y="-390.32" font-family="Times,serif" font-size="14.00">swig</text>
</g>
<!-- PKG_CPP -->
<g id="node28" class="node">
<title>PKG_CPP</title>
<polygon fill="royalblue" stroke="black" points="795.25,-320.5 670.75,-320.5 666.75,-316.5 666.75,-284.5 791.25,-284.5 795.25,-288.5 795.25,-320.5"/>
<polyline fill="none" stroke="black" points="791.25,-316.5 666.75,-316.5"/>
<polyline fill="none" stroke="black" points="791.25,-316.5 791.25,-284.5"/>
<polyline fill="none" stroke="black" points="791.25,-316.5 795.25,-320.5"/>
<text text-anchor="middle" x="731" y="-297.82" font-family="Times,serif" font-size="14.00">CMake Package</text>
</g>
<!-- OR_CPP&#45;&gt;PKG_CPP -->
<g id="edge42" class="edge">
<title>OR_CPP&#45;&gt;PKG_CPP</title>
<path fill="none" stroke="royalblue" d="M732.61,-376.55C732.34,-364.03 731.96,-346.87 731.64,-332.33"/>
<polygon fill="royalblue" stroke="royalblue" points="735.14,-332.33 731.42,-322.41 728.14,-332.48 735.14,-332.33"/>
<text text-anchor="middle" x="754.3" y="-345.7" font-family="Times,serif" font-size="14.00">install</text>
</g>
<!-- EX_CPP -->
<g id="node29" class="node">
<title>EX_CPP</title>
<path fill="royalblue" stroke="black" d="M775.75,-187.5C775.75,-187.5 686.25,-187.5 686.25,-187.5 680.25,-187.5 674.25,-181.5 674.25,-175.5 674.25,-175.5 674.25,-163.5 674.25,-163.5 674.25,-157.5 680.25,-151.5 686.25,-151.5 686.25,-151.5 775.75,-151.5 775.75,-151.5 781.75,-151.5 787.75,-157.5 787.75,-163.5 787.75,-163.5 787.75,-175.5 787.75,-175.5 787.75,-181.5 781.75,-187.5 775.75,-187.5"/>
<text text-anchor="middle" x="731" y="-164.82" font-family="Times,serif" font-size="14.00">C++ samples</text>
</g>
<!-- PKG_CPP&#45;&gt;EX_CPP -->
<g id="edge31" class="edge">
<title>PKG_CPP&#45;&gt;EX_CPP</title>
<path fill="none" stroke="black" d="M731,-284.1C731,-262.47 731,-225.25 731,-199.33"/>
<polygon fill="black" stroke="black" points="734.5,-199.48 731,-189.48 727.5,-199.48 734.5,-199.48"/>
</g>
<!-- OR_WPY&#45;&gt;OR_PY -->
<g id="edge46" class="edge">
<title>OR_WPY&#45;&gt;OR_PY</title>
<path fill="none" stroke="black" d="M909,-376.55C909,-364.03 909,-346.87 909,-332.33"/>
<polygon fill="black" stroke="black" points="912.5,-332.41 909,-322.41 905.5,-332.41 912.5,-332.41"/>
</g>
<!-- PKG_PY -->
<g id="node32" class="node">
<title>PKG_PY</title>
<polygon fill="gold" stroke="black" points="964.62,-187.5 845.38,-187.5 841.38,-183.5 841.38,-151.5 960.62,-151.5 964.62,-155.5 964.62,-187.5"/>
<polyline fill="none" stroke="black" points="960.62,-183.5 841.38,-183.5"/>
<polyline fill="none" stroke="black" points="960.62,-183.5 960.62,-151.5"/>
<polyline fill="none" stroke="black" points="960.62,-183.5 964.62,-187.5"/>
<text text-anchor="middle" x="903" y="-164.82" font-family="Times,serif" font-size="14.00">Wheel package</text>
</g>
<!-- OR_PY&#45;&gt;PKG_PY -->
<g id="edge47" class="edge">
<title>OR_PY&#45;&gt;PKG_PY</title>
<path fill="none" stroke="gold" d="M908.2,-284.1C907.21,-262.47 905.51,-225.25 904.32,-199.33"/>
<polygon fill="gold" stroke="gold" points="907.82,-199.31 903.87,-189.48 900.83,-199.63 907.82,-199.31"/>
<text text-anchor="middle" x="964.98" y="-249.95" font-family="Times,serif" font-size="14.00">python setup.py</text>
</g>
<!-- EX_PY -->
<g id="node33" class="node">
<title>EX_PY</title>
<path fill="gold" stroke="black" d="M955.62,-68C955.62,-68 850.38,-68 850.38,-68 844.38,-68 838.38,-62 838.38,-56 838.38,-56 838.38,-44 838.38,-44 838.38,-38 844.38,-32 850.38,-32 850.38,-32 955.62,-32 955.62,-32 961.62,-32 967.62,-38 967.62,-44 967.62,-44 967.62,-56 967.62,-56 967.62,-62 961.62,-68 955.62,-68"/>
<text text-anchor="middle" x="903" y="-45.33" font-family="Times,serif" font-size="14.00">Python samples</text>
</g>
<!-- PKG_PY&#45;&gt;EX_PY -->
<g id="edge43" class="edge">
<title>PKG_PY&#45;&gt;EX_PY</title>
<path fill="none" stroke="black" d="M903,-151.16C903,-132.42 903,-102.23 903,-79.89"/>
<polygon fill="black" stroke="black" points="906.5,-79.92 903,-69.92 899.5,-79.92 906.5,-79.92"/>
</g>
<!-- OR_WJAVA&#45;&gt;OR_JAVA -->
<g id="edge51" class="edge">
<title>OR_WJAVA&#45;&gt;OR_JAVA</title>
<path fill="none" stroke="black" d="M1171.91,-376.55C1177.75,-363.66 1185.82,-345.84 1192.53,-331.03"/>
<polygon fill="black" stroke="black" points="1195.56,-332.83 1196.49,-322.27 1189.18,-329.94 1195.56,-332.83"/>
</g>
<!-- PKG_JAVA -->
<g id="node36" class="node">
<title>PKG_JAVA</title>
<polygon fill="crimson" stroke="black" points="1268.5,-187.5 1145.5,-187.5 1141.5,-183.5 1141.5,-151.5 1264.5,-151.5 1268.5,-155.5 1268.5,-187.5"/>
<polyline fill="none" stroke="black" points="1264.5,-183.5 1141.5,-183.5"/>
<polyline fill="none" stroke="black" points="1264.5,-183.5 1264.5,-151.5"/>
<polyline fill="none" stroke="black" points="1264.5,-183.5 1268.5,-187.5"/>
<text text-anchor="middle" x="1205" y="-164.82" font-family="Times,serif" font-size="14.00">Maven package</text>
</g>
<!-- OR_JAVA&#45;&gt;PKG_JAVA -->
<g id="edge52" class="edge">
<title>OR_JAVA&#45;&gt;PKG_JAVA</title>
<path fill="none" stroke="crimson" d="M1205,-284.1C1205,-262.47 1205,-225.25 1205,-199.33"/>
<polygon fill="crimson" stroke="crimson" points="1208.5,-199.48 1205,-189.48 1201.5,-199.48 1208.5,-199.48"/>
<text text-anchor="middle" x="1228.62" y="-249.95" font-family="Times,serif" font-size="14.00">maven</text>
</g>
<!-- EX_JAVA -->
<g id="node37" class="node">
<title>EX_JAVA</title>
<path fill="crimson" stroke="black" d="M1247.5,-68C1247.5,-68 1162.5,-68 1162.5,-68 1156.5,-68 1150.5,-62 1150.5,-56 1150.5,-56 1150.5,-44 1150.5,-44 1150.5,-38 1156.5,-32 1162.5,-32 1162.5,-32 1247.5,-32 1247.5,-32 1253.5,-32 1259.5,-38 1259.5,-44 1259.5,-44 1259.5,-56 1259.5,-56 1259.5,-62 1253.5,-68 1247.5,-68"/>
<text text-anchor="middle" x="1205" y="-45.33" font-family="Times,serif" font-size="14.00">Java samples</text>
</g>
<!-- PKG_JAVA&#45;&gt;EX_JAVA -->
<g id="edge48" class="edge">
<title>PKG_JAVA&#45;&gt;EX_JAVA</title>
<path fill="none" stroke="black" d="M1205,-151.16C1205,-132.42 1205,-102.23 1205,-79.89"/>
<polygon fill="black" stroke="black" points="1208.5,-79.92 1205,-69.92 1201.5,-79.92 1208.5,-79.92"/>
</g>
<!-- OR_WNET&#45;&gt;OR_NET -->
<g id="edge56" class="edge">
<title>OR_WNET&#45;&gt;OR_NET</title>
<path fill="none" stroke="black" d="M1528.19,-376.55C1543.03,-371.74 1558.32,-365.9 1572,-359 1588.57,-350.64 1605.33,-338.64 1618.79,-327.95"/>
<polygon fill="black" stroke="black" points="1620.83,-330.8 1626.36,-321.76 1616.4,-325.37 1620.83,-330.8"/>
</g>
<!-- PKG_NET_RT -->
<g id="node40" class="node">
<title>PKG_NET_RT</title>
<polygon fill="darkviolet" stroke="black" points="1588.25,-323.75 1331.75,-323.75 1327.75,-319.75 1327.75,-281.25 1584.25,-281.25 1588.25,-285.25 1588.25,-323.75"/>
<polyline fill="none" stroke="black" points="1584.25,-319.75 1327.75,-319.75"/>
<polyline fill="none" stroke="black" points="1584.25,-319.75 1584.25,-281.25"/>
<polyline fill="none" stroke="black" points="1584.25,-319.75 1588.25,-323.75"/>
<text text-anchor="middle" x="1458" y="-306.45" font-family="Times,serif" font-size="14.00">Nuget runtime package</text>
<text text-anchor="middle" x="1458" y="-289.2" font-family="Times,serif" font-size="14.00">Google.OrTools.runtime.rid.nupkg</text>
</g>
<!-- OR_WNET&#45;&gt;PKG_NET_RT -->
<g id="edge57" class="edge">
<title>OR_WNET&#45;&gt;PKG_NET_RT</title>
<path fill="none" stroke="darkviolet" d="M1458,-376.55C1458,-364.83 1458,-349.06 1458,-335.16"/>
<polygon fill="darkviolet" stroke="darkviolet" points="1461.5,-335.58 1458,-325.58 1454.5,-335.58 1461.5,-335.58"/>
<text text-anchor="middle" x="1512.75" y="-345.7" font-family="Times,serif" font-size="14.00">dotnet package</text>
</g>
<!-- PKG_NET -->
<g id="node41" class="node">
<title>PKG_NET</title>
<polygon fill="darkviolet" stroke="black" points="1605.12,-190.75 1434.88,-190.75 1430.88,-186.75 1430.88,-148.25 1601.12,-148.25 1605.12,-152.25 1605.12,-190.75"/>
<polyline fill="none" stroke="black" points="1601.12,-186.75 1430.88,-186.75"/>
<polyline fill="none" stroke="black" points="1601.12,-186.75 1601.12,-148.25"/>
<polyline fill="none" stroke="black" points="1601.12,-186.75 1605.12,-190.75"/>
<text text-anchor="middle" x="1518" y="-173.45" font-family="Times,serif" font-size="14.00">Nuget package</text>
<text text-anchor="middle" x="1518" y="-156.2" font-family="Times,serif" font-size="14.00">Google.OrTools.nupkg</text>
</g>
<!-- OR_NET&#45;&gt;PKG_NET -->
<g id="edge59" class="edge">
<title>OR_NET&#45;&gt;PKG_NET</title>
<path fill="none" stroke="darkviolet" d="M1629.87,-284.1C1608.47,-262.37 1571.57,-224.9 1546.03,-198.97"/>
<polygon fill="darkviolet" stroke="darkviolet" points="1548.75,-196.74 1539.24,-192.07 1543.76,-201.65 1548.75,-196.74"/>
<text text-anchor="middle" x="1663.63" y="-249.95" font-family="Times,serif" font-size="14.00">dotnet package</text>
</g>
<!-- PKG_NET_RT&#45;&gt;PKG_NET -->
<g id="edge58" class="edge">
<title>PKG_NET_RT&#45;&gt;PKG_NET</title>
<path fill="none" stroke="darkviolet" d="M1467.38,-281.03C1477.19,-259.59 1492.73,-225.68 1504,-201.07"/>
<polygon fill="darkviolet" stroke="darkviolet" points="1507.08,-202.75 1508.06,-192.2 1500.71,-199.84 1507.08,-202.75"/>
</g>
<!-- EX_NET -->
<g id="node42" class="node">
<title>EX_NET</title>
<path fill="darkviolet" stroke="black" d="M1560.88,-68C1560.88,-68 1475.12,-68 1475.12,-68 1469.12,-68 1463.12,-62 1463.12,-56 1463.12,-56 1463.12,-44 1463.12,-44 1463.12,-38 1469.12,-32 1475.12,-32 1475.12,-32 1560.88,-32 1560.88,-32 1566.88,-32 1572.88,-38 1572.88,-44 1572.88,-44 1572.88,-56 1572.88,-56 1572.88,-62 1566.88,-68 1560.88,-68"/>
<text text-anchor="middle" x="1518" y="-45.33" font-family="Times,serif" font-size="14.00">.Net samples</text>
</g>
<!-- PKG_NET&#45;&gt;EX_NET -->
<g id="edge53" class="edge">
<title>PKG_NET&#45;&gt;EX_NET</title>
<path fill="none" stroke="black" d="M1518,-147.76C1518,-128.93 1518,-100.96 1518,-79.93"/>
<polygon fill="black" stroke="black" points="1521.5,-79.98 1518,-69.98 1514.5,-79.98 1521.5,-79.98"/>
</g>
</g>
</svg>
