<?xml version="1.0" encoding="UTF-8" standalone="no"?>
<!DOCTYPE svg PUBLIC "-//W3C//DTD SVG 1.1//EN"
 "http://www.w3.org/Graphics/SVG/1.1/DTD/svg11.dtd">
<!-- Generated by graphviz version 2.42.4 (0)
 -->
<!-- Title: CMakeDeps Pages: 1 -->
<svg width="2621pt" height="641pt"
 viewBox="0.00 0.00 2621.00 641.00" xmlns="http://www.w3.org/2000/svg" xmlns:xlink="http://www.w3.org/1999/xlink">
<g id="graph0" class="graph" transform="scale(1 1) rotate(0) translate(4 637)">
<title>CMakeDeps</title>
<polygon fill="white" stroke="transparent" points="-4,4 -4,-637 2617,-637 2617,4 -4,4"/>
<g id="clust1" class="cluster">
<title>clusterZLIB</title>
<polygon fill="none" stroke="royalblue" points="465,-221 465,-296 647,-296 647,-221 465,-221"/>
<text text-anchor="middle" x="556" y="-228.8" font-family="Times,serif" font-size="14.00">madler/zlib.git + cmake patch</text>
</g>
<g id="clust2" class="cluster">
<title>clusterBZip2</title>
<polygon fill="none" stroke="royalblue" points="1701,-39 1701,-114 1884,-114 1884,-39 1701,-39"/>
<text text-anchor="middle" x="1792.5" y="-46.8" font-family="Times,serif" font-size="14.00">bzip2/bzip2.git + cmake patch</text>
</g>
<g id="clust3" class="cluster">
<title>clusterAbsl</title>
<polygon fill="none" stroke="royalblue" points="1119,-304 1119,-379 1244,-379 1244,-304 1119,-304"/>
<text text-anchor="middle" x="1181.5" y="-311.8" font-family="Times,serif" font-size="14.00">abseil/abseil&#45;cpp.git</text>
</g>
<g id="clust4" class="cluster">
<title>clusterProtobuf</title>
<polygon fill="none" stroke="royalblue" points="984,-130 984,-205 1255,-205 1255,-130 984,-130"/>
<text text-anchor="middle" x="1119.5" y="-137.8" font-family="Times,serif" font-size="14.00">protocolbuffers/protobuf.git</text>
</g>
<g id="clust5" class="cluster">
<title>clusterRe2</title>
<polygon fill="none" stroke="royalblue" points="998,-221 998,-296 1090,-296 1090,-221 998,-221"/>
<text text-anchor="middle" x="1044" y="-228.8" font-family="Times,serif" font-size="14.00">google/re2.git</text>
</g>
<g id="clust6" class="cluster">
<title>clusterEigen3</title>
<polygon fill="none" stroke="royalblue" points="1892,-39 1892,-114 2003,-114 2003,-39 1892,-39"/>
<text text-anchor="middle" x="1947.5" y="-46.8" font-family="Times,serif" font-size="14.00">libeigen/eigen.git</text>
</g>
<g id="clust7" class="cluster">
<title>clusterCoinOR</title>
<polygon fill="none" stroke="royalblue" points="8,-8 8,-625 376,-625 376,-8 8,-8"/>
<text text-anchor="middle" x="192" y="-15.8" font-family="Times,serif" font-size="14.00">&#45;DUSE_COINOR=ON AND &#45;DBUILD_DEPS=ON</text>
</g>
<g id="clust8" class="cluster">
<title>clusterCoinUtils</title>
<polygon fill="none" stroke="royalblue" points="219,-542 219,-617 346,-617 346,-542 219,-542"/>
<text text-anchor="middle" x="282.5" y="-549.8" font-family="Times,serif" font-size="14.00">Mizux/CoinUtils.git</text>
</g>
<g id="clust9" class="cluster">
<title>clusterOsi</title>
<polygon fill="none" stroke="royalblue" points="36,-459 36,-534 129,-534 129,-459 36,-459"/>
<text text-anchor="middle" x="82.5" y="-466.8" font-family="Times,serif" font-size="14.00">Mizux/Osi.git</text>
</g>
<g id="clust10" class="cluster">
<title>clusterClp</title>
<polygon fill="none" stroke="royalblue" points="68,-304 68,-451 296,-451 296,-304 68,-304"/>
<text text-anchor="middle" x="182" y="-311.8" font-family="Times,serif" font-size="14.00">Mizux/Clp.git</text>
</g>
<g id="clust11" class="cluster">
<title>clusterCgl</title>
<polygon fill="none" stroke="royalblue" points="149,-221 149,-296 243,-296 243,-221 149,-221"/>
<text text-anchor="middle" x="196" y="-228.8" font-family="Times,serif" font-size="14.00">Mizux/Cgl.git</text>
</g>
<g id="clust12" class="cluster">
<title>clusterCbc</title>
<polygon fill="none" stroke="royalblue" points="135,-39 135,-205 367,-205 367,-39 135,-39"/>
<text text-anchor="middle" x="251" y="-46.8" font-family="Times,serif" font-size="14.00">Mizux/Cbc.git</text>
</g>
<g id="clust13" class="cluster">
<title>clusterGLPKSolver</title>
<polygon fill="none" stroke="royalblue" points="2011,-8 2011,-122 2298,-122 2298,-8 2011,-8"/>
<text text-anchor="middle" x="2154.5" y="-15.8" font-family="Times,serif" font-size="14.00">&#45;DUSE_GLPK=ON AND &#45;DBUILD_GLPK=ON</text>
</g>
<g id="clust14" class="cluster">
<title>clusterGLPK</title>
<polygon fill="none" stroke="royalblue" points="2099,-39 2099,-114 2209,-114 2209,-39 2099,-39"/>
<text text-anchor="middle" x="2154" y="-46.8" font-family="Times,serif" font-size="14.00">Mizux/GLPK.git</text>
</g>
<g id="clust15" class="cluster">
<title>clusterHIGHSSolver</title>
<polygon fill="none" stroke="royalblue" points="2306,-8 2306,-122 2605,-122 2605,-8 2306,-8"/>
<text text-anchor="middle" x="2455.5" y="-15.8" font-family="Times,serif" font-size="14.00">&#45;DUSE_HIGHS=ON AND &#45;DBUILD_HIGHS=ON</text>
</g>
<g id="clust16" class="cluster">
<title>clusterHIGHS</title>
<polygon fill="none" stroke="royalblue" points="2381,-39 2381,-114 2530,-114 2530,-39 2381,-39"/>
<text text-anchor="middle" x="2455.5" y="-46.8" font-family="Times,serif" font-size="14.00">ERGO&#45;Code/HIGHS.git</text>
</g>
<g id="clust17" class="cluster">
<title>clusterSCIPSolver</title>
<polygon fill="none" stroke="royalblue" points="384,-8 384,-213 658,-213 658,-8 384,-8"/>
<text text-anchor="middle" x="521" y="-15.8" font-family="Times,serif" font-size="14.00">&#45;DUSE_SCIP=ON AND &#45;DBUILD_SCIP=ON</text>
</g>
<g id="clust18" class="cluster">
<title>clusterSoplex</title>
<polygon fill="none" stroke="royalblue" points="454,-130 454,-205 567,-205 567,-130 454,-130"/>
<text text-anchor="middle" x="510.5" y="-137.8" font-family="Times,serif" font-size="14.00">scipopt/soplex.git</text>
</g>
<g id="clust19" class="cluster">
<title>clusterSCIP</title>
<polygon fill="none" stroke="royalblue" points="478,-39 478,-114 582,-114 582,-39 478,-39"/>
<text text-anchor="middle" x="530" y="-46.8" font-family="Times,serif" font-size="14.00">scipopt/scip.git</text>
</g>
<g id="clust20" class="cluster">
<title>clusterTesting</title>
<polygon fill="none" stroke="royalblue" points="666,-8 666,-213 976,-213 976,-8 666,-8"/>
<text text-anchor="middle" x="821" y="-15.8" font-family="Times,serif" font-size="14.00">&#45;DBUILD_TESTING=ON</text>
</g>
<g id="clust21" class="cluster">
<title>clusterGTest</title>
<polygon fill="none" stroke="royalblue" points="814,-130 814,-205 945,-205 945,-130 814,-130"/>
<text text-anchor="middle" x="879.5" y="-137.8" font-family="Times,serif" font-size="14.00">google/googletest.git</text>
</g>
<g id="clust22" class="cluster">
<title>clusterBenchmark</title>
<polygon fill="none" stroke="royalblue" points="674,-39 674,-114 836,-114 836,-39 674,-39"/>
<text text-anchor="middle" x="755" y="-46.8" font-family="Times,serif" font-size="14.00">google/benchmark.git</text>
</g>
<g id="clust23" class="cluster">
<title>clusterFuzzTest</title>
<polygon fill="none" stroke="royalblue" points="844,-39 844,-114 968,-114 968,-39 844,-39"/>
<text text-anchor="middle" x="906" y="-46.8" font-family="Times,serif" font-size="14.00">google/fuzztest.git</text>
</g>
<g id="clust24" class="cluster">
<title>clusterPython</title>
<polygon fill="none" stroke="gold" points="1293,-8 1293,-213 1693,-213 1693,-8 1293,-8"/>
<text text-anchor="middle" x="1493" y="-15.8" font-family="Times,serif" font-size="14.00">&#45;DBUILD_PYTHON=ON</text>
</g>
<g id="clust25" class="cluster">
<title>clusterPybind11</title>
<polygon fill="none" stroke="gold" points="1476,-130 1476,-205 1618,-205 1618,-130 1476,-130"/>
<text text-anchor="middle" x="1547" y="-137.8" font-family="Times,serif" font-size="14.00">pybind/pybind11.git</text>
</g>
<g id="clust26" class="cluster">
<title>clusterPybind11Absl</title>
<polygon fill="none" stroke="gold" points="1505,-39 1505,-114 1685,-114 1685,-39 1505,-39"/>
<text text-anchor="middle" x="1595" y="-46.8" font-family="Times,serif" font-size="14.00">pybind/pybind11_abseil.git</text>
</g>
<g id="clust27" class="cluster">
<title>clusterPybind11Protobuf</title>
<polygon fill="none" stroke="gold" points="1301,-39 1301,-114 1497,-114 1497,-39 1301,-39"/>
<text text-anchor="middle" x="1399" y="-46.8" font-family="Times,serif" font-size="14.00">pybind/pybind11_protobuf.git</text>
</g>
<!-- ZLIB -->
<g id="node1" class="node">
<title>ZLIB</title>
<path fill="royalblue" stroke="royalblue" d="M586,-288C586,-288 526,-288 526,-288 520,-288 514,-282 514,-276 514,-276 514,-264 514,-264 514,-258 520,-252 526,-252 526,-252 586,-252 586,-252 592,-252 598,-258 598,-264 598,-264 598,-276 598,-276 598,-282 592,-288 586,-288"/>
<text text-anchor="middle" x="556" y="-266.3" font-family="Times,serif" font-size="14.00">ZLIB::ZLIB</text>
</g>
<!-- BZip2 -->
<g id="node2" class="node">
<title>BZip2</title>
<path fill="royalblue" stroke="royalblue" d="M1826.5,-106C1826.5,-106 1757.5,-106 1757.5,-106 1751.5,-106 1745.5,-100 1745.5,-94 1745.5,-94 1745.5,-82 1745.5,-82 1745.5,-76 1751.5,-70 1757.5,-70 1757.5,-70 1826.5,-70 1826.5,-70 1832.5,-70 1838.5,-76 1838.5,-82 1838.5,-82 1838.5,-94 1838.5,-94 1838.5,-100 1832.5,-106 1826.5,-106"/>
<text text-anchor="middle" x="1792" y="-84.3" font-family="Times,serif" font-size="14.00">BZip2::BZip2</text>
</g>
<!-- Absl -->
<g id="node3" class="node">
<title>Absl</title>
<path fill="royalblue" stroke="royalblue" d="M1209.5,-371C1209.5,-371 1152.5,-371 1152.5,-371 1146.5,-371 1140.5,-365 1140.5,-359 1140.5,-359 1140.5,-347 1140.5,-347 1140.5,-341 1146.5,-335 1152.5,-335 1152.5,-335 1209.5,-335 1209.5,-335 1215.5,-335 1221.5,-341 1221.5,-347 1221.5,-347 1221.5,-359 1221.5,-359 1221.5,-365 1215.5,-371 1209.5,-371"/>
<text text-anchor="middle" x="1181" y="-349.3" font-family="Times,serif" font-size="14.00">absl::absl_*</text>
</g>
<!-- Protobuf -->
<g id="node4" class="node">
<title>Protobuf</title>
<path fill="royalblue" stroke="royalblue" d="M1234.5,-197C1234.5,-197 1127.5,-197 1127.5,-197 1121.5,-197 1115.5,-191 1115.5,-185 1115.5,-185 1115.5,-173 1115.5,-173 1115.5,-167 1121.5,-161 1127.5,-161 1127.5,-161 1234.5,-161 1234.5,-161 1240.5,-161 1246.5,-167 1246.5,-173 1246.5,-173 1246.5,-185 1246.5,-185 1246.5,-191 1240.5,-197 1234.5,-197"/>
<text text-anchor="middle" x="1181" y="-175.3" font-family="Times,serif" font-size="14.00">protobuf::libprotobuf</text>
</g>
<!-- Protobuf&#45;&gt;ZLIB -->
<g id="edge24" class="edge">
<title>Protobuf&#45;&gt;ZLIB</title>
<path fill="none" stroke="black" d="M1149.09,-197.16C1136.35,-203.22 1121.33,-209.42 1107,-213 1058.16,-225.22 1044.14,-216.48 994,-221 854.45,-233.58 690.37,-252.73 608.3,-262.61"/>
<polygon fill="black" stroke="black" points="607.74,-259.15 598.23,-263.83 608.58,-266.1 607.74,-259.15"/>
</g>
<!-- Protobuf&#45;&gt;Absl -->
<g id="edge29" class="edge">
<title>Protobuf&#45;&gt;Absl</title>
<path fill="none" stroke="black" d="M1181,-197.12C1181,-227 1181,-288.89 1181,-324.73"/>
<polygon fill="black" stroke="black" points="1177.5,-324.95 1181,-334.95 1184.5,-324.95 1177.5,-324.95"/>
</g>
<!-- Re2 -->
<g id="node6" class="node">
<title>Re2</title>
<path fill="royalblue" stroke="royalblue" d="M1054.5,-288C1054.5,-288 1019.5,-288 1019.5,-288 1013.5,-288 1007.5,-282 1007.5,-276 1007.5,-276 1007.5,-264 1007.5,-264 1007.5,-258 1013.5,-252 1019.5,-252 1019.5,-252 1054.5,-252 1054.5,-252 1060.5,-252 1066.5,-258 1066.5,-264 1066.5,-264 1066.5,-276 1066.5,-276 1066.5,-282 1060.5,-288 1054.5,-288"/>
<text text-anchor="middle" x="1037" y="-266.3" font-family="Times,serif" font-size="14.00">re2::re2</text>
</g>
<!-- Protobuf&#45;&gt;Re2 -->
<g id="edge35" class="edge">
<title>Protobuf&#45;&gt;Re2</title>
<path fill="none" stroke="black" d="M1153.24,-197.16C1130.53,-211.2 1098.23,-231.16 1073.44,-246.48"/>
<polygon fill="black" stroke="black" points="1071.35,-243.66 1064.68,-251.89 1075.03,-249.61 1071.35,-243.66"/>
</g>
<!-- Protoc -->
<g id="node5" class="node">
<title>Protoc</title>
<polygon fill="royalblue" stroke="royalblue" points="1097.5,-197 992.5,-197 992.5,-193 988.5,-193 988.5,-189 992.5,-189 992.5,-169 988.5,-169 988.5,-165 992.5,-165 992.5,-161 1097.5,-161 1097.5,-197"/>
<polyline fill="none" stroke="royalblue" points="992.5,-193 996.5,-193 996.5,-189 992.5,-189 "/>
<polyline fill="none" stroke="royalblue" points="992.5,-169 996.5,-169 996.5,-165 992.5,-165 "/>
<text text-anchor="middle" x="1045" y="-175.3" font-family="Times,serif" font-size="14.00">protobuf::protoc</text>
</g>
<!-- Re2&#45;&gt;Absl -->
<g id="edge28" class="edge">
<title>Re2&#45;&gt;Absl</title>
<path fill="none" stroke="black" d="M1066.84,-287.78C1088.61,-300.03 1118.31,-316.74 1141.97,-330.04"/>
<polygon fill="black" stroke="black" points="1140.27,-333.11 1150.71,-334.96 1143.71,-327.01 1140.27,-333.11"/>
</g>
<!-- Eigen3 -->
<g id="node7" class="node">
<title>Eigen3</title>
<path fill="royalblue" stroke="royalblue" d="M1981,-106C1981,-106 1913,-106 1913,-106 1907,-106 1901,-100 1901,-94 1901,-94 1901,-82 1901,-82 1901,-76 1907,-70 1913,-70 1913,-70 1981,-70 1981,-70 1987,-70 1993,-76 1993,-82 1993,-82 1993,-94 1993,-94 1993,-100 1987,-106 1981,-106"/>
<text text-anchor="middle" x="1947" y="-84.3" font-family="Times,serif" font-size="14.00">Eigen3::eigen</text>
</g>
<!-- CoinUtils -->
<g id="node8" class="node">
<title>CoinUtils</title>
<path fill="royalblue" stroke="royalblue" d="M321.5,-609C321.5,-609 242.5,-609 242.5,-609 236.5,-609 230.5,-603 230.5,-597 230.5,-597 230.5,-585 230.5,-585 230.5,-579 236.5,-573 242.5,-573 242.5,-573 321.5,-573 321.5,-573 327.5,-573 333.5,-579 333.5,-585 333.5,-585 333.5,-597 333.5,-597 333.5,-603 327.5,-609 321.5,-609"/>
<text text-anchor="middle" x="282" y="-587.3" font-family="Times,serif" font-size="14.00">Coin::CoinUtils</text>
</g>
<!-- Osi -->
<g id="node9" class="node">
<title>Osi</title>
<path fill="royalblue" stroke="royalblue" d="M104.5,-526C104.5,-526 59.5,-526 59.5,-526 53.5,-526 47.5,-520 47.5,-514 47.5,-514 47.5,-502 47.5,-502 47.5,-496 53.5,-490 59.5,-490 59.5,-490 104.5,-490 104.5,-490 110.5,-490 116.5,-496 116.5,-502 116.5,-502 116.5,-514 116.5,-514 116.5,-520 110.5,-526 104.5,-526"/>
<text text-anchor="middle" x="82" y="-504.3" font-family="Times,serif" font-size="14.00">Coin::Osi</text>
</g>
<!-- Osi&#45;&gt;CoinUtils -->
<g id="edge1" class="edge">
<title>Osi&#45;&gt;CoinUtils</title>
<path fill="none" stroke="black" d="M116.5,-523.18C125.15,-526.73 134.41,-530.51 143,-534 171.77,-545.69 203.92,-558.65 230.05,-569.16"/>
<polygon fill="black" stroke="black" points="228.8,-572.43 239.39,-572.91 231.42,-565.93 228.8,-572.43"/>
</g>
<!-- Clp -->
<g id="node10" class="node">
<title>Clp</title>
<path fill="royalblue" stroke="royalblue" d="M258,-443C258,-443 212,-443 212,-443 206,-443 200,-437 200,-431 200,-431 200,-419 200,-419 200,-413 206,-407 212,-407 212,-407 258,-407 258,-407 264,-407 270,-413 270,-419 270,-419 270,-431 270,-431 270,-437 264,-443 258,-443"/>
<text text-anchor="middle" x="235" y="-421.3" font-family="Times,serif" font-size="14.00">Coin::Clp</text>
</g>
<!-- Clp&#45;&gt;CoinUtils -->
<g id="edge2" class="edge">
<title>Clp&#45;&gt;CoinUtils</title>
<path fill="none" stroke="black" d="M239.94,-443.24C248.14,-471.86 264.63,-529.37 274.34,-563.28"/>
<polygon fill="black" stroke="black" points="271.01,-564.34 277.13,-572.99 277.73,-562.41 271.01,-564.34"/>
</g>
<!-- Clp&#45;&gt;Osi -->
<g id="edge3" class="edge">
<title>Clp&#45;&gt;Osi</title>
<path fill="none" stroke="black" d="M202.55,-443.18C179.35,-455.46 147.95,-472.09 123.01,-485.29"/>
<polygon fill="black" stroke="black" points="121.34,-482.21 114.14,-489.99 124.61,-488.4 121.34,-482.21"/>
</g>
<!-- OsiClp -->
<g id="node11" class="node">
<title>OsiClp</title>
<path fill="royalblue" stroke="royalblue" d="M152.5,-371C152.5,-371 87.5,-371 87.5,-371 81.5,-371 75.5,-365 75.5,-359 75.5,-359 75.5,-347 75.5,-347 75.5,-341 81.5,-335 87.5,-335 87.5,-335 152.5,-335 152.5,-335 158.5,-335 164.5,-341 164.5,-347 164.5,-347 164.5,-359 164.5,-359 164.5,-365 158.5,-371 152.5,-371"/>
<text text-anchor="middle" x="120" y="-349.3" font-family="Times,serif" font-size="14.00">Coin::OsiClp</text>
</g>
<!-- OsiClp&#45;&gt;CoinUtils -->
<g id="edge4" class="edge">
<title>OsiClp&#45;&gt;CoinUtils</title>
<path fill="none" stroke="black" d="M131.47,-371.22C152.92,-403.37 200.71,-474.66 242,-534 249,-544.06 256.82,-555.05 263.67,-564.61"/>
<polygon fill="black" stroke="black" points="260.96,-566.84 269.64,-572.92 266.64,-562.76 260.96,-566.84"/>
</g>
<!-- OsiClp&#45;&gt;Osi -->
<g id="edge5" class="edge">
<title>OsiClp&#45;&gt;Osi</title>
<path fill="none" stroke="black" d="M115.71,-371.25C109.16,-397.65 96.58,-448.31 88.77,-479.72"/>
<polygon fill="black" stroke="black" points="85.34,-479.03 86.33,-489.57 92.14,-480.71 85.34,-479.03"/>
</g>
<!-- OsiClp&#45;&gt;Clp -->
<g id="edge6" class="edge">
<title>OsiClp&#45;&gt;Clp</title>
<path fill="none" stroke="black" d="M148.13,-371.12C163.17,-380.28 181.87,-391.66 198.06,-401.52"/>
<polygon fill="black" stroke="black" points="196.4,-404.6 206.76,-406.81 200.04,-398.62 196.4,-404.6"/>
</g>
<!-- ClpSolver -->
<g id="node12" class="node">
<title>ClpSolver</title>
<path fill="royalblue" stroke="royalblue" d="M275.5,-371C275.5,-371 194.5,-371 194.5,-371 188.5,-371 182.5,-365 182.5,-359 182.5,-359 182.5,-347 182.5,-347 182.5,-341 188.5,-335 194.5,-335 194.5,-335 275.5,-335 275.5,-335 281.5,-335 287.5,-341 287.5,-347 287.5,-347 287.5,-359 287.5,-359 287.5,-365 281.5,-371 275.5,-371"/>
<text text-anchor="middle" x="235" y="-349.3" font-family="Times,serif" font-size="14.00">Coin::ClpSolver</text>
</g>
<!-- ClpSolver&#45;&gt;Clp -->
<g id="edge7" class="edge">
<title>ClpSolver&#45;&gt;Clp</title>
<path fill="none" stroke="black" d="M235,-371.3C235,-379.02 235,-388.29 235,-396.89"/>
<polygon fill="black" stroke="black" points="231.5,-396.9 235,-406.9 238.5,-396.9 231.5,-396.9"/>
</g>
<!-- Cgl -->
<g id="node13" class="node">
<title>Cgl</title>
<path fill="royalblue" stroke="royalblue" d="M218,-288C218,-288 172,-288 172,-288 166,-288 160,-282 160,-276 160,-276 160,-264 160,-264 160,-258 166,-252 172,-252 172,-252 218,-252 218,-252 224,-252 230,-258 230,-264 230,-264 230,-276 230,-276 230,-282 224,-288 218,-288"/>
<text text-anchor="middle" x="195" y="-266.3" font-family="Times,serif" font-size="14.00">Coin::Cgl</text>
</g>
<!-- Cgl&#45;&gt;CoinUtils -->
<g id="edge8" class="edge">
<title>Cgl&#45;&gt;CoinUtils</title>
<path fill="none" stroke="black" d="M230.13,-271.87C254.04,-274.53 284.12,-282.36 300,-304 357.78,-382.73 316.37,-508.86 293.91,-563.42"/>
<polygon fill="black" stroke="black" points="290.64,-562.18 289.97,-572.75 297.09,-564.91 290.64,-562.18"/>
</g>
<!-- Cgl&#45;&gt;Osi -->
<g id="edge9" class="edge">
<title>Cgl&#45;&gt;Osi</title>
<path fill="none" stroke="black" d="M159.71,-275.02C125.04,-279.78 75.68,-289.02 64,-304 23.83,-355.54 50.99,-438.38 69.24,-480.52"/>
<polygon fill="black" stroke="black" points="66.13,-482.14 73.42,-489.84 72.52,-479.28 66.13,-482.14"/>
</g>
<!-- Cgl&#45;&gt;OsiClp -->
<g id="edge10" class="edge">
<title>Cgl&#45;&gt;OsiClp</title>
<path fill="none" stroke="black" d="M179.09,-288.18C168.55,-299.56 154.56,-314.67 142.84,-327.34"/>
<polygon fill="black" stroke="black" points="140.11,-325.13 135.88,-334.85 145.24,-329.89 140.11,-325.13"/>
</g>
<!-- Cbc -->
<g id="node14" class="node">
<title>Cbc</title>
<path fill="royalblue" stroke="royalblue" d="M336,-197C336,-197 288,-197 288,-197 282,-197 276,-191 276,-185 276,-185 276,-173 276,-173 276,-167 282,-161 288,-161 288,-161 336,-161 336,-161 342,-161 348,-167 348,-173 348,-173 348,-185 348,-185 348,-191 342,-197 336,-197"/>
<text text-anchor="middle" x="312" y="-175.3" font-family="Times,serif" font-size="14.00">Coin::Cbc</text>
</g>
<!-- Cbc&#45;&gt;ZLIB -->
<g id="edge25" class="edge">
<title>Cbc&#45;&gt;ZLIB</title>
<path fill="none" stroke="black" d="M348,-193.13C389.22,-208.16 457.07,-232.91 504.01,-250.04"/>
<polygon fill="black" stroke="black" points="503.1,-253.43 513.69,-253.57 505.5,-246.85 503.1,-253.43"/>
</g>
<!-- Cbc&#45;&gt;CoinUtils -->
<g id="edge11" class="edge">
<title>Cbc&#45;&gt;CoinUtils</title>
<path fill="none" stroke="black" d="M317.94,-197.34C327.92,-228.1 347,-294.41 347,-352 347,-352 347,-352 347,-426 347,-475.48 340.2,-488.83 320,-534 315.27,-544.57 308.56,-555.29 302.08,-564.49"/>
<polygon fill="black" stroke="black" points="299.1,-562.65 296.02,-572.79 304.75,-566.78 299.1,-562.65"/>
</g>
<!-- Cbc&#45;&gt;Osi -->
<g id="edge12" class="edge">
<title>Cbc&#45;&gt;Osi</title>
<path fill="none" stroke="black" d="M275.85,-182.85C212.54,-190.11 84.3,-215.59 42,-304 13.8,-362.94 23,-388.8 43,-451 46.52,-461.94 52.97,-472.63 59.63,-481.69"/>
<polygon fill="black" stroke="black" points="57.07,-484.1 65.98,-489.83 62.59,-479.79 57.07,-484.1"/>
</g>
<!-- Cbc&#45;&gt;Clp -->
<g id="edge13" class="edge">
<title>Cbc&#45;&gt;Clp</title>
<path fill="none" stroke="black" d="M315.09,-197.05C320.73,-233.22 329.28,-319.18 296,-379 291.35,-387.36 284.42,-394.6 276.88,-400.69"/>
<polygon fill="black" stroke="black" points="274.52,-398.08 268.54,-406.83 278.67,-403.72 274.52,-398.08"/>
</g>
<!-- Cbc&#45;&gt;Cgl -->
<g id="edge14" class="edge">
<title>Cbc&#45;&gt;Cgl</title>
<path fill="none" stroke="black" d="M289.44,-197.16C271.31,-210.95 245.67,-230.46 225.67,-245.67"/>
<polygon fill="black" stroke="black" points="223.33,-243.05 217.49,-251.89 227.57,-248.62 223.33,-243.05"/>
</g>
<!-- OsiCbc -->
<g id="node15" class="node">
<title>OsiCbc</title>
<path fill="royalblue" stroke="royalblue" d="M346.5,-106C346.5,-106 279.5,-106 279.5,-106 273.5,-106 267.5,-100 267.5,-94 267.5,-94 267.5,-82 267.5,-82 267.5,-76 273.5,-70 279.5,-70 279.5,-70 346.5,-70 346.5,-70 352.5,-70 358.5,-76 358.5,-82 358.5,-82 358.5,-94 358.5,-94 358.5,-100 352.5,-106 346.5,-106"/>
<text text-anchor="middle" x="313" y="-84.3" font-family="Times,serif" font-size="14.00">Coin::OsiCbc</text>
</g>
<!-- OsiCbc&#45;&gt;CoinUtils -->
<g id="edge15" class="edge">
<title>OsiCbc&#45;&gt;CoinUtils</title>
<path fill="none" stroke="black" d="M337.55,-106.03C345.1,-112.6 352.58,-120.77 357,-130 383.73,-185.87 367,-207.06 367,-269 367,-269 367,-269 367,-426 367,-475.7 362.86,-490.96 338,-534 331.16,-545.84 321.19,-556.93 311.55,-566.06"/>
<polygon fill="black" stroke="black" points="309.01,-563.64 303.95,-572.95 313.71,-568.82 309.01,-563.64"/>
</g>
<!-- OsiCbc&#45;&gt;Osi -->
<g id="edge16" class="edge">
<title>OsiCbc&#45;&gt;Osi</title>
<path fill="none" stroke="black" d="M285.91,-106.03C277.12,-111.34 267.25,-117.09 258,-122 147.17,-180.8 17,-143.54 17,-269 17,-269 17,-269 17,-354 17,-397.3 7.6,-411.81 26,-451 31.72,-463.18 41.24,-474.23 50.83,-483.23"/>
<polygon fill="black" stroke="black" points="48.66,-485.98 58.47,-490 53.31,-480.74 48.66,-485.98"/>
</g>
<!-- OsiCbc&#45;&gt;Cbc -->
<g id="edge17" class="edge">
<title>OsiCbc&#45;&gt;Cbc</title>
<path fill="none" stroke="black" d="M312.81,-106.16C312.67,-118.72 312.47,-136.02 312.31,-150.5"/>
<polygon fill="black" stroke="black" points="308.8,-150.85 312.19,-160.89 315.8,-150.93 308.8,-150.85"/>
</g>
<!-- CbcSolver -->
<g id="node16" class="node">
<title>CbcSolver</title>
<path fill="royalblue" stroke="royalblue" d="M237.5,-106C237.5,-106 154.5,-106 154.5,-106 148.5,-106 142.5,-100 142.5,-94 142.5,-94 142.5,-82 142.5,-82 142.5,-76 148.5,-70 154.5,-70 154.5,-70 237.5,-70 237.5,-70 243.5,-70 249.5,-76 249.5,-82 249.5,-82 249.5,-94 249.5,-94 249.5,-100 243.5,-106 237.5,-106"/>
<text text-anchor="middle" x="196" y="-84.3" font-family="Times,serif" font-size="14.00">Coin::CbcSolver</text>
</g>
<!-- CbcSolver&#45;&gt;Cbc -->
<g id="edge18" class="edge">
<title>CbcSolver&#45;&gt;Cbc</title>
<path fill="none" stroke="black" d="M218.37,-106.16C236.34,-119.95 261.77,-139.46 281.59,-154.67"/>
<polygon fill="black" stroke="black" points="279.64,-157.58 289.7,-160.89 283.9,-152.03 279.64,-157.58"/>
</g>
<!-- GLPK -->
<g id="node17" class="node">
<title>GLPK</title>
<path fill="royalblue" stroke="royalblue" d="M2178,-106C2178,-106 2130,-106 2130,-106 2124,-106 2118,-100 2118,-94 2118,-94 2118,-82 2118,-82 2118,-76 2124,-70 2130,-70 2130,-70 2178,-70 2178,-70 2184,-70 2190,-76 2190,-82 2190,-82 2190,-94 2190,-94 2190,-100 2184,-106 2178,-106"/>
<text text-anchor="middle" x="2154" y="-84.3" font-family="Times,serif" font-size="14.00">glpk::glpk</text>
</g>
<!-- HIGHS -->
<g id="node18" class="node">
<title>HIGHS</title>
<path fill="royalblue" stroke="royalblue" d="M2484.5,-106C2484.5,-106 2425.5,-106 2425.5,-106 2419.5,-106 2413.5,-100 2413.5,-94 2413.5,-94 2413.5,-82 2413.5,-82 2413.5,-76 2419.5,-70 2425.5,-70 2425.5,-70 2484.5,-70 2484.5,-70 2490.5,-70 2496.5,-76 2496.5,-82 2496.5,-82 2496.5,-94 2496.5,-94 2496.5,-100 2490.5,-106 2484.5,-106"/>
<text text-anchor="middle" x="2455" y="-84.3" font-family="Times,serif" font-size="14.00">highs::highs</text>
</g>
<!-- SPX -->
<g id="node19" class="node">
<title>SPX</title>
<path fill="royalblue" stroke="royalblue" d="M546,-197C546,-197 504,-197 504,-197 498,-197 492,-191 492,-185 492,-185 492,-173 492,-173 492,-167 498,-161 504,-161 504,-161 546,-161 546,-161 552,-161 558,-167 558,-173 558,-173 558,-185 558,-185 558,-191 552,-197 546,-197"/>
<text text-anchor="middle" x="525" y="-175.3" font-family="Times,serif" font-size="14.00">libsoplex</text>
</g>
<!-- SPX&#45;&gt;ZLIB -->
<g id="edge26" class="edge">
<title>SPX&#45;&gt;ZLIB</title>
<path fill="none" stroke="black" d="M530.98,-197.16C535.44,-209.96 541.61,-227.7 546.72,-242.35"/>
<polygon fill="black" stroke="black" points="543.45,-243.6 550.04,-251.89 550.06,-241.3 543.45,-243.6"/>
</g>
<!-- SCIP -->
<g id="node20" class="node">
<title>SCIP</title>
<path fill="royalblue" stroke="royalblue" d="M562.5,-106C562.5,-106 497.5,-106 497.5,-106 491.5,-106 485.5,-100 485.5,-94 485.5,-94 485.5,-82 485.5,-82 485.5,-76 491.5,-70 497.5,-70 497.5,-70 562.5,-70 562.5,-70 568.5,-70 574.5,-76 574.5,-82 574.5,-82 574.5,-94 574.5,-94 574.5,-100 568.5,-106 562.5,-106"/>
<text text-anchor="middle" x="530" y="-84.3" font-family="Times,serif" font-size="14.00">SCIP::libscip</text>
</g>
<!-- SCIP&#45;&gt;ZLIB -->
<g id="edge27" class="edge">
<title>SCIP&#45;&gt;ZLIB</title>
<path fill="none" stroke="black" d="M553.26,-106.16C560.33,-112.74 567.22,-120.89 571,-130 586.22,-166.75 575.81,-213.41 566.34,-242.23"/>
<polygon fill="black" stroke="black" points="562.93,-241.4 562.95,-251.99 569.54,-243.7 562.93,-241.4"/>
</g>
<!-- SCIP&#45;&gt;SPX -->
<g id="edge19" class="edge">
<title>SCIP&#45;&gt;SPX</title>
<path fill="none" stroke="black" d="M529.04,-106.16C528.33,-118.72 527.36,-136.02 526.55,-150.5"/>
<polygon fill="black" stroke="black" points="523.03,-150.71 525.96,-160.89 530.02,-151.1 523.03,-150.71"/>
</g>
<!-- gtest -->
<g id="node21" class="node">
<title>gtest</title>
<path fill="royalblue" stroke="royalblue" d="M923.5,-197C923.5,-197 864.5,-197 864.5,-197 858.5,-197 852.5,-191 852.5,-185 852.5,-185 852.5,-173 852.5,-173 852.5,-167 858.5,-161 864.5,-161 864.5,-161 923.5,-161 923.5,-161 929.5,-161 935.5,-167 935.5,-173 935.5,-173 935.5,-185 935.5,-185 935.5,-191 929.5,-197 923.5,-197"/>
<text text-anchor="middle" x="894" y="-175.3" font-family="Times,serif" font-size="14.00">GTest::gtest</text>
</g>
<!-- gtest&#45;&gt;Absl -->
<g id="edge30" class="edge">
<title>gtest&#45;&gt;Absl</title>
<path fill="none" stroke="black" d="M904.32,-197.29C920.35,-222.67 953.62,-269.82 994,-296 1035.59,-322.96 1090.7,-337.4 1130.31,-344.82"/>
<polygon fill="black" stroke="black" points="1129.82,-348.28 1140.28,-346.6 1131.05,-341.39 1129.82,-348.28"/>
</g>
<!-- gtest&#45;&gt;Re2 -->
<g id="edge36" class="edge">
<title>gtest&#45;&gt;Re2</title>
<path fill="none" stroke="black" d="M919.05,-197.08C928.43,-202.84 939.38,-208.85 950,-213 965.67,-219.13 972.15,-213.1 987,-221 998.01,-226.86 1008.3,-235.84 1016.65,-244.46"/>
<polygon fill="black" stroke="black" points="1014.11,-246.86 1023.46,-251.85 1019.26,-242.12 1014.11,-246.86"/>
</g>
<!-- bench -->
<g id="node22" class="node">
<title>bench</title>
<path fill="royalblue" stroke="royalblue" d="M816,-106C816,-106 694,-106 694,-106 688,-106 682,-100 682,-94 682,-94 682,-82 682,-82 682,-76 688,-70 694,-70 694,-70 816,-70 816,-70 822,-70 828,-76 828,-82 828,-82 828,-94 828,-94 828,-100 822,-106 816,-106"/>
<text text-anchor="middle" x="755" y="-84.3" font-family="Times,serif" font-size="14.00">benchmark::benchmark</text>
</g>
<!-- bench&#45;&gt;gtest -->
<g id="edge21" class="edge">
<title>bench&#45;&gt;gtest</title>
<path fill="none" stroke="black" d="M781.8,-106.16C803.72,-120.2 834.9,-140.16 858.82,-155.48"/>
<polygon fill="black" stroke="black" points="856.97,-158.45 867.28,-160.89 860.75,-152.55 856.97,-158.45"/>
</g>
<!-- fuzz -->
<g id="node23" class="node">
<title>fuzz</title>
<path fill="royalblue" stroke="royalblue" d="M948,-106C948,-106 864,-106 864,-106 858,-106 852,-100 852,-94 852,-94 852,-82 852,-82 852,-76 858,-70 864,-70 864,-70 948,-70 948,-70 954,-70 960,-76 960,-82 960,-82 960,-94 960,-94 960,-100 954,-106 948,-106"/>
<text text-anchor="middle" x="906" y="-84.3" font-family="Times,serif" font-size="14.00">fuzztest::fuzztest</text>
</g>
<!-- fuzz&#45;&gt;Absl -->
<g id="edge31" class="edge">
<title>fuzz&#45;&gt;Absl</title>
<path fill="none" stroke="black" d="M960.03,-91.39C1054.02,-96.1 1239.48,-108.09 1259,-130 1310.67,-188.01 1242.53,-282.34 1204.07,-327.02"/>
<polygon fill="black" stroke="black" points="1201.24,-324.94 1197.27,-334.76 1206.5,-329.55 1201.24,-324.94"/>
</g>
<!-- fuzz&#45;&gt;Protobuf -->
<g id="edge33" class="edge">
<title>fuzz&#45;&gt;Protobuf</title>
<path fill="none" stroke="black" d="M960.07,-94.47C1001.47,-99.96 1059.37,-110.51 1107,-130 1122.43,-136.31 1138.12,-145.94 1151.06,-154.92"/>
<polygon fill="black" stroke="black" points="1149.37,-158.01 1159.54,-160.98 1153.44,-152.32 1149.37,-158.01"/>
</g>
<!-- fuzz&#45;&gt;Re2 -->
<g id="edge37" class="edge">
<title>fuzz&#45;&gt;Re2</title>
<path fill="none" stroke="black" d="M927.67,-106.13C935.2,-112.93 943.2,-121.22 949,-130 970.69,-162.87 958.56,-179.97 980,-213 982.47,-216.8 997.29,-231.34 1011.2,-244.64"/>
<polygon fill="black" stroke="black" points="1009.1,-247.47 1018.75,-251.83 1013.92,-242.4 1009.1,-247.47"/>
</g>
<!-- fuzz&#45;&gt;gtest -->
<g id="edge20" class="edge">
<title>fuzz&#45;&gt;gtest</title>
<path fill="none" stroke="black" d="M903.69,-106.16C901.98,-118.84 899.61,-136.36 897.65,-150.92"/>
<polygon fill="black" stroke="black" points="894.17,-150.51 896.31,-160.89 901.11,-151.45 894.17,-150.51"/>
</g>
<!-- Pybind11 -->
<g id="node24" class="node">
<title>Pybind11</title>
<path fill="royalblue" stroke="royalblue" d="M1598,-197C1598,-197 1496,-197 1496,-197 1490,-197 1484,-191 1484,-185 1484,-185 1484,-173 1484,-173 1484,-167 1490,-161 1496,-161 1496,-161 1598,-161 1598,-161 1604,-161 1610,-167 1610,-173 1610,-173 1610,-185 1610,-185 1610,-191 1604,-197 1598,-197"/>
<text text-anchor="middle" x="1547" y="-175.3" font-family="Times,serif" font-size="14.00">pybind11::pybind11</text>
</g>
<!-- Pybind11Absl -->
<g id="node25" class="node">
<title>Pybind11Absl</title>
<path fill="royalblue" stroke="royalblue" d="M1665,-106C1665,-106 1525,-106 1525,-106 1519,-106 1513,-100 1513,-94 1513,-94 1513,-82 1513,-82 1513,-76 1519,-70 1525,-70 1525,-70 1665,-70 1665,-70 1671,-70 1677,-76 1677,-82 1677,-82 1677,-94 1677,-94 1677,-100 1671,-106 1665,-106"/>
<text text-anchor="middle" x="1595" y="-84.3" font-family="Times,serif" font-size="14.00">pybind11::pybind11_abseil</text>
</g>
<!-- Pybind11Absl&#45;&gt;Absl -->
<g id="edge32" class="edge">
<title>Pybind11Absl&#45;&gt;Absl</title>
<path fill="none" stroke="black" d="M1548.35,-106.08C1533.31,-111.4 1516.52,-117.14 1501,-122 1488.24,-125.99 1483.92,-123.94 1472,-130 1366.25,-183.74 1358.49,-225.62 1263,-296 1247.69,-307.29 1230.34,-319.25 1215.56,-329.2"/>
<polygon fill="black" stroke="black" points="1213.54,-326.34 1207.19,-334.82 1217.44,-332.16 1213.54,-326.34"/>
</g>
<!-- Pybind11Absl&#45;&gt;Pybind11 -->
<g id="edge22" class="edge">
<title>Pybind11Absl&#45;&gt;Pybind11</title>
<path fill="none" stroke="black" d="M1585.75,-106.16C1578.77,-119.09 1569.09,-137.04 1561.15,-151.77"/>
<polygon fill="black" stroke="black" points="1557.89,-150.43 1556.23,-160.89 1564.05,-153.75 1557.89,-150.43"/>
</g>
<!-- Pybind11Protobuf -->
<g id="node26" class="node">
<title>Pybind11Protobuf</title>
<path fill="royalblue" stroke="royalblue" d="M1476.5,-106C1476.5,-106 1321.5,-106 1321.5,-106 1315.5,-106 1309.5,-100 1309.5,-94 1309.5,-94 1309.5,-82 1309.5,-82 1309.5,-76 1315.5,-70 1321.5,-70 1321.5,-70 1476.5,-70 1476.5,-70 1482.5,-70 1488.5,-76 1488.5,-82 1488.5,-82 1488.5,-94 1488.5,-94 1488.5,-100 1482.5,-106 1476.5,-106"/>
<text text-anchor="middle" x="1399" y="-84.3" font-family="Times,serif" font-size="14.00">pybind11::pybind11_protobuf</text>
</g>
<!-- Pybind11Protobuf&#45;&gt;Protobuf -->
<g id="edge34" class="edge">
<title>Pybind11Protobuf&#45;&gt;Protobuf</title>
<path fill="none" stroke="black" d="M1357.23,-106.05C1321.67,-120.57 1270.44,-141.48 1232.38,-157.02"/>
<polygon fill="black" stroke="black" points="1230.94,-153.83 1223,-160.85 1233.59,-160.31 1230.94,-153.83"/>
</g>
<!-- Pybind11Protobuf&#45;&gt;Pybind11 -->
<g id="edge23" class="edge">
<title>Pybind11Protobuf&#45;&gt;Pybind11</title>
<path fill="none" stroke="black" d="M1427.54,-106.16C1450.98,-120.26 1484.36,-140.33 1509.88,-155.68"/>
<polygon fill="black" stroke="black" points="1508.18,-158.74 1518.55,-160.89 1511.79,-152.74 1508.18,-158.74"/>
</g>
</g>
</svg>
