<?xml version="1.0" encoding="UTF-8" standalone="no"?>
<!DOCTYPE svg PUBLIC "-//W3C//DTD SVG 1.1//EN"
 "http://www.w3.org/Graphics/SVG/1.1/DTD/svg11.dtd">
<!-- Generated by graphviz version 2.42.4 (0)
 -->
<!-- Title: CMakeDeps Pages: 1 -->
<svg width="1263pt" height="656pt"
 viewBox="0.00 0.00 1263.00 656.00" xmlns="http://www.w3.org/2000/svg" xmlns:xlink="http://www.w3.org/1999/xlink">
<g id="graph0" class="graph" transform="scale(1 1) rotate(0) translate(4 652)">
<title>CMakeDeps</title>
<polygon fill="white" stroke="transparent" points="-4,4 -4,-652 1259,-652 1259,4 -4,4"/>
<g id="clust1" class="cluster">
<title>clusterZLIB</title>
<polygon fill="none" stroke="royalblue" points="654,-202 654,-277 836,-277 836,-202 654,-202"/>
<text text-anchor="middle" x="745" y="-261.8" font-family="Times,serif" font-size="14.00">madler/zlib.git + cmake patch</text>
</g>
<g id="clust2" class="cluster">
<title>clusterAbsl</title>
<polygon fill="none" stroke="royalblue" points="492,-285 492,-360 617,-360 617,-285 492,-285"/>
<text text-anchor="middle" x="554.5" y="-344.8" font-family="Times,serif" font-size="14.00">abseil/abseil&#45;cpp.git</text>
</g>
<g id="clust3" class="cluster">
<title>clusterProtobuf</title>
<polygon fill="none" stroke="royalblue" points="384,-88 384,-163 655,-163 655,-88 384,-88"/>
<text text-anchor="middle" x="519.5" y="-147.8" font-family="Times,serif" font-size="14.00">protocolbuffers/protobuf.git</text>
</g>
<g id="clust4" class="cluster">
<title>clusterRe2</title>
<polygon fill="none" stroke="royalblue" points="544,-202 544,-277 636,-277 636,-202 544,-202"/>
<text text-anchor="middle" x="590" y="-261.8" font-family="Times,serif" font-size="14.00">google/re2.git</text>
</g>
<g id="clust5" class="cluster">
<title>clusterEigen3</title>
<polygon fill="none" stroke="royalblue" points="384,-534 384,-609 495,-609 495,-534 384,-534"/>
<text text-anchor="middle" x="439.5" y="-593.8" font-family="Times,serif" font-size="14.00">libeigen/eigen.git</text>
</g>
<g id="clust6" class="cluster">
<title>clusterPybind11</title>
<polygon fill="none" stroke="royalblue" points="503,-534 503,-609 645,-609 645,-534 503,-534"/>
<text text-anchor="middle" x="574" y="-593.8" font-family="Times,serif" font-size="14.00">pybind/pybind11.git</text>
</g>
<g id="clust7" class="cluster">
<title>clusterCoinOR</title>
<polygon fill="none" stroke="royalblue" points="8,-8 8,-640 376,-640 376,-8 8,-8"/>
<text text-anchor="middle" x="192" y="-624.8" font-family="Times,serif" font-size="14.00">&#45;DUSE_COINOR=ON AND &#45;DBUILD_DEPS=ON</text>
</g>
<g id="clust8" class="cluster">
<title>clusterCoinUtils</title>
<polygon fill="none" stroke="royalblue" points="77,-534 77,-609 204,-609 204,-534 77,-534"/>
<text text-anchor="middle" x="140.5" y="-593.8" font-family="Times,serif" font-size="14.00">Mizux/CoinUtils.git</text>
</g>
<g id="clust9" class="cluster">
<title>clusterOsi</title>
<polygon fill="none" stroke="royalblue" points="66,-443 66,-518 159,-518 159,-443 66,-443"/>
<text text-anchor="middle" x="112.5" y="-502.8" font-family="Times,serif" font-size="14.00">Mizux/Osi.git</text>
</g>
<g id="clust10" class="cluster">
<title>clusterClp</title>
<polygon fill="none" stroke="royalblue" points="108,-285 108,-435 336,-435 336,-285 108,-285"/>
<text text-anchor="middle" x="222" y="-419.8" font-family="Times,serif" font-size="14.00">Mizux/Clp.git</text>
</g>
<g id="clust11" class="cluster">
<title>clusterCgl</title>
<polygon fill="none" stroke="royalblue" points="87,-202 87,-277 181,-277 181,-202 87,-202"/>
<text text-anchor="middle" x="134" y="-261.8" font-family="Times,serif" font-size="14.00">Mizux/Cgl.git</text>
</g>
<g id="clust12" class="cluster">
<title>clusterCbc</title>
<polygon fill="none" stroke="royalblue" points="46,-16 46,-163 278,-163 278,-16 46,-16"/>
<text text-anchor="middle" x="162" y="-147.8" font-family="Times,serif" font-size="14.00">Mizux/Cbc.git</text>
</g>
<g id="clust13" class="cluster">
<title>clusterGLPKSolver</title>
<polygon fill="none" stroke="royalblue" points="653,-526 653,-640 940,-640 940,-526 653,-526"/>
<text text-anchor="middle" x="796.5" y="-624.8" font-family="Times,serif" font-size="14.00">&#45;DUSE_GLPK=ON AND &#45;DBUILD_GLPK=ON</text>
</g>
<g id="clust14" class="cluster">
<title>clusterGLPK</title>
<polygon fill="none" stroke="royalblue" points="741,-534 741,-609 851,-609 851,-534 741,-534"/>
<text text-anchor="middle" x="796" y="-593.8" font-family="Times,serif" font-size="14.00">Mizux/GLPK.git</text>
</g>
<g id="clust15" class="cluster">
<title>clusterHIGHSSolver</title>
<polygon fill="none" stroke="royalblue" points="948,-526 948,-640 1247,-640 1247,-526 948,-526"/>
<text text-anchor="middle" x="1097.5" y="-624.8" font-family="Times,serif" font-size="14.00">&#45;DUSE_HIGHS=ON AND &#45;DBUILD_HIGHS=ON</text>
</g>
<g id="clust16" class="cluster">
<title>clusterHIGHS</title>
<polygon fill="none" stroke="royalblue" points="1023,-534 1023,-609 1172,-609 1172,-534 1023,-534"/>
<text text-anchor="middle" x="1097.5" y="-593.8" font-family="Times,serif" font-size="14.00">ERGO&#45;Code/HIGHS.git</text>
</g>
<g id="clust17" class="cluster">
<title>clusterSCIPSolver</title>
<polygon fill="none" stroke="royalblue" points="663,-8 663,-194 937,-194 937,-8 663,-8"/>
<text text-anchor="middle" x="800" y="-178.8" font-family="Times,serif" font-size="14.00">&#45;DUSE_SCIP=ON AND &#45;DBUILD_SCIP=ON</text>
</g>
<g id="clust18" class="cluster">
<title>clusterSCIP</title>
<polygon fill="none" stroke="royalblue" points="671,-16 671,-163 775,-163 775,-16 671,-16"/>
<text text-anchor="middle" x="723" y="-147.8" font-family="Times,serif" font-size="14.00">scipopt/scip.git</text>
</g>
<!-- ZLIB -->
<g id="node1" class="node">
<title>ZLIB</title>
<path fill="royalblue" stroke="royalblue" d="M739,-246C739,-246 679,-246 679,-246 673,-246 667,-240 667,-234 667,-234 667,-222 667,-222 667,-216 673,-210 679,-210 679,-210 739,-210 739,-210 745,-210 751,-216 751,-222 751,-222 751,-234 751,-234 751,-240 745,-246 739,-246"/>
<text text-anchor="middle" x="709" y="-224.3" font-family="Times,serif" font-size="14.00">ZLIB::ZLIB</text>
</g>
<!-- Protobuf -->
<g id="node3" class="node">
<title>Protobuf</title>
<path fill="royalblue" stroke="royalblue" d="M634.5,-132C634.5,-132 527.5,-132 527.5,-132 521.5,-132 515.5,-126 515.5,-120 515.5,-120 515.5,-108 515.5,-108 515.5,-102 521.5,-96 527.5,-96 527.5,-96 634.5,-96 634.5,-96 640.5,-96 646.5,-102 646.5,-108 646.5,-108 646.5,-120 646.5,-120 646.5,-126 640.5,-132 634.5,-132"/>
<text text-anchor="middle" x="581" y="-110.3" font-family="Times,serif" font-size="14.00">protobuf::libprotobuf</text>
</g>
<!-- ZLIB&#45;&gt;Protobuf -->
<g id="edge20" class="edge">
<title>ZLIB&#45;&gt;Protobuf</title>
<path fill="none" stroke="black" d="M686.51,-209.85C680.12,-204.84 673.22,-199.29 667,-194 645.97,-176.12 622.98,-154.92 606.07,-138.98"/>
<polygon fill="black" stroke="black" points="608.42,-136.39 598.76,-132.06 603.61,-141.47 608.42,-136.39"/>
</g>
<!-- Cbc -->
<g id="node14" class="node">
<title>Cbc</title>
<path fill="royalblue" stroke="royalblue" d="M155,-132C155,-132 107,-132 107,-132 101,-132 95,-126 95,-120 95,-120 95,-108 95,-108 95,-102 101,-96 107,-96 107,-96 155,-96 155,-96 161,-96 167,-102 167,-108 167,-108 167,-120 167,-120 167,-126 161,-132 155,-132"/>
<text text-anchor="middle" x="131" y="-110.3" font-family="Times,serif" font-size="14.00">Coin::Cbc</text>
</g>
<!-- ZLIB&#45;&gt;Cbc -->
<g id="edge21" class="edge">
<title>ZLIB&#45;&gt;Cbc</title>
<path fill="none" stroke="black" d="M668.37,-209.88C659.19,-206.69 649.39,-203.8 640,-202 526.45,-180.26 493.96,-213.44 380,-194 307.07,-181.56 225.98,-152.9 176.74,-133.74"/>
<polygon fill="black" stroke="black" points="177.92,-130.44 167.33,-130.04 175.36,-136.95 177.92,-130.44"/>
</g>
<!-- SCIP -->
<g id="node19" class="node">
<title>SCIP</title>
<path fill="royalblue" stroke="royalblue" d="M755.5,-60C755.5,-60 690.5,-60 690.5,-60 684.5,-60 678.5,-54 678.5,-48 678.5,-48 678.5,-36 678.5,-36 678.5,-30 684.5,-24 690.5,-24 690.5,-24 755.5,-24 755.5,-24 761.5,-24 767.5,-30 767.5,-36 767.5,-36 767.5,-48 767.5,-48 767.5,-54 761.5,-60 755.5,-60"/>
<text text-anchor="middle" x="723" y="-38.3" font-family="Times,serif" font-size="14.00">SCIP::libscip</text>
</g>
<!-- ZLIB&#45;&gt;SCIP -->
<g id="edge23" class="edge">
<title>ZLIB&#45;&gt;SCIP</title>
<path fill="none" stroke="black" d="M740.89,-209.63C746.18,-205.26 750.93,-200.05 754,-194 775.29,-151.98 767.99,-132.98 754,-88 751.88,-81.18 748.33,-74.49 744.37,-68.43"/>
<polygon fill="black" stroke="black" points="747.06,-66.17 738.4,-60.07 741.36,-70.24 747.06,-66.17"/>
</g>
<!-- SPX -->
<g id="node20" class="node">
<title>SPX</title>
<path fill="royalblue" stroke="royalblue" d="M733,-132C733,-132 691,-132 691,-132 685,-132 679,-126 679,-120 679,-120 679,-108 679,-108 679,-102 685,-96 691,-96 691,-96 733,-96 733,-96 739,-96 745,-102 745,-108 745,-108 745,-120 745,-120 745,-126 739,-132 733,-132"/>
<text text-anchor="middle" x="712" y="-110.3" font-family="Times,serif" font-size="14.00">libsoplex</text>
</g>
<!-- ZLIB&#45;&gt;SPX -->
<g id="edge22" class="edge">
<title>ZLIB&#45;&gt;SPX</title>
<path fill="none" stroke="black" d="M709.46,-209.99C709.94,-192.06 710.7,-163.56 711.26,-142.44"/>
<polygon fill="black" stroke="black" points="714.77,-142.26 711.54,-132.17 707.77,-142.07 714.77,-142.26"/>
</g>
<!-- Absl -->
<g id="node2" class="node">
<title>Absl</title>
<path fill="royalblue" stroke="royalblue" d="M582.5,-329C582.5,-329 525.5,-329 525.5,-329 519.5,-329 513.5,-323 513.5,-317 513.5,-317 513.5,-305 513.5,-305 513.5,-299 519.5,-293 525.5,-293 525.5,-293 582.5,-293 582.5,-293 588.5,-293 594.5,-299 594.5,-305 594.5,-305 594.5,-317 594.5,-317 594.5,-323 588.5,-329 582.5,-329"/>
<text text-anchor="middle" x="554" y="-307.3" font-family="Times,serif" font-size="14.00">absl::absl_*</text>
</g>
<!-- Absl&#45;&gt;Protobuf -->
<g id="edge25" class="edge">
<title>Absl&#45;&gt;Protobuf</title>
<path fill="none" stroke="black" d="M545.24,-292.95C543.09,-287.94 541.09,-282.37 540,-277 533.36,-244.34 532.72,-234.53 540,-202 544.82,-180.48 555.58,-158.01 564.87,-141.29"/>
<polygon fill="black" stroke="black" points="568.16,-142.58 570.11,-132.17 562.09,-139.1 568.16,-142.58"/>
</g>
<!-- Re2 -->
<g id="node5" class="node">
<title>Re2</title>
<path fill="royalblue" stroke="royalblue" d="M600.5,-246C600.5,-246 565.5,-246 565.5,-246 559.5,-246 553.5,-240 553.5,-234 553.5,-234 553.5,-222 553.5,-222 553.5,-216 559.5,-210 565.5,-210 565.5,-210 600.5,-210 600.5,-210 606.5,-210 612.5,-216 612.5,-222 612.5,-222 612.5,-234 612.5,-234 612.5,-240 606.5,-246 600.5,-246"/>
<text text-anchor="middle" x="583" y="-224.3" font-family="Times,serif" font-size="14.00">re2::re2</text>
</g>
<!-- Absl&#45;&gt;Re2 -->
<g id="edge24" class="edge">
<title>Absl&#45;&gt;Re2</title>
<path fill="none" stroke="black" d="M560.15,-292.82C563.99,-282.08 569.03,-268.03 573.39,-255.84"/>
<polygon fill="black" stroke="black" points="576.78,-256.75 576.86,-246.15 570.19,-254.39 576.78,-256.75"/>
</g>
<!-- Protoc -->
<g id="node4" class="node">
<title>Protoc</title>
<polygon fill="royalblue" stroke="royalblue" points="497.5,-132 392.5,-132 392.5,-128 388.5,-128 388.5,-124 392.5,-124 392.5,-104 388.5,-104 388.5,-100 392.5,-100 392.5,-96 497.5,-96 497.5,-132"/>
<polyline fill="none" stroke="royalblue" points="392.5,-128 396.5,-128 396.5,-124 392.5,-124 "/>
<polyline fill="none" stroke="royalblue" points="392.5,-104 396.5,-104 396.5,-100 392.5,-100 "/>
<text text-anchor="middle" x="445" y="-110.3" font-family="Times,serif" font-size="14.00">protobuf::protoc</text>
</g>
<!-- Re2&#45;&gt;Protobuf -->
<g id="edge26" class="edge">
<title>Re2&#45;&gt;Protobuf</title>
<path fill="none" stroke="black" d="M582.7,-209.99C582.38,-192.06 581.87,-163.56 581.49,-142.44"/>
<polygon fill="black" stroke="black" points="584.98,-142.11 581.31,-132.17 577.99,-142.23 584.98,-142.11"/>
</g>
<!-- Eigen3 -->
<g id="node6" class="node">
<title>Eigen3</title>
<path fill="royalblue" stroke="royalblue" d="M473,-578C473,-578 405,-578 405,-578 399,-578 393,-572 393,-566 393,-566 393,-554 393,-554 393,-548 399,-542 405,-542 405,-542 473,-542 473,-542 479,-542 485,-548 485,-554 485,-554 485,-566 485,-566 485,-572 479,-578 473,-578"/>
<text text-anchor="middle" x="439" y="-556.3" font-family="Times,serif" font-size="14.00">Eigen3::eigen</text>
</g>
<!-- Pybind11 -->
<g id="node7" class="node">
<title>Pybind11</title>
<path fill="royalblue" stroke="royalblue" d="M625,-578C625,-578 523,-578 523,-578 517,-578 511,-572 511,-566 511,-566 511,-554 511,-554 511,-548 517,-542 523,-542 523,-542 625,-542 625,-542 631,-542 637,-548 637,-554 637,-554 637,-566 637,-566 637,-572 631,-578 625,-578"/>
<text text-anchor="middle" x="574" y="-556.3" font-family="Times,serif" font-size="14.00">pybind11::pybind11</text>
</g>
<!-- CoinUtils -->
<g id="node8" class="node">
<title>CoinUtils</title>
<path fill="royalblue" stroke="royalblue" d="M179.5,-578C179.5,-578 100.5,-578 100.5,-578 94.5,-578 88.5,-572 88.5,-566 88.5,-566 88.5,-554 88.5,-554 88.5,-548 94.5,-542 100.5,-542 100.5,-542 179.5,-542 179.5,-542 185.5,-542 191.5,-548 191.5,-554 191.5,-554 191.5,-566 191.5,-566 191.5,-572 185.5,-578 179.5,-578"/>
<text text-anchor="middle" x="140" y="-556.3" font-family="Times,serif" font-size="14.00">Coin::CoinUtils</text>
</g>
<!-- Osi -->
<g id="node9" class="node">
<title>Osi</title>
<path fill="royalblue" stroke="royalblue" d="M134.5,-487C134.5,-487 89.5,-487 89.5,-487 83.5,-487 77.5,-481 77.5,-475 77.5,-475 77.5,-463 77.5,-463 77.5,-457 83.5,-451 89.5,-451 89.5,-451 134.5,-451 134.5,-451 140.5,-451 146.5,-457 146.5,-463 146.5,-463 146.5,-475 146.5,-475 146.5,-481 140.5,-487 134.5,-487"/>
<text text-anchor="middle" x="112" y="-465.3" font-family="Times,serif" font-size="14.00">Coin::Osi</text>
</g>
<!-- CoinUtils&#45;&gt;Osi -->
<g id="edge1" class="edge">
<title>CoinUtils&#45;&gt;Osi</title>
<path fill="none" stroke="black" d="M134.6,-541.84C130.57,-529.04 124.99,-511.3 120.39,-496.65"/>
<polygon fill="black" stroke="black" points="123.72,-495.6 117.38,-487.11 117.04,-497.7 123.72,-495.6"/>
</g>
<!-- Clp -->
<g id="node10" class="node">
<title>Clp</title>
<path fill="royalblue" stroke="royalblue" d="M245,-404C245,-404 199,-404 199,-404 193,-404 187,-398 187,-392 187,-392 187,-380 187,-380 187,-374 193,-368 199,-368 199,-368 245,-368 245,-368 251,-368 257,-374 257,-380 257,-380 257,-392 257,-392 257,-398 251,-404 245,-404"/>
<text text-anchor="middle" x="222" y="-382.3" font-family="Times,serif" font-size="14.00">Coin::Clp</text>
</g>
<!-- CoinUtils&#45;&gt;Clp -->
<g id="edge2" class="edge">
<title>CoinUtils&#45;&gt;Clp</title>
<path fill="none" stroke="black" d="M155.77,-541.93C161.72,-534.89 168.21,-526.42 173,-518 192.29,-484.14 206.65,-441.24 214.68,-413.95"/>
<polygon fill="black" stroke="black" points="218.06,-414.89 217.45,-404.31 211.33,-412.96 218.06,-414.89"/>
</g>
<!-- OsiClp -->
<g id="node11" class="node">
<title>OsiClp</title>
<path fill="royalblue" stroke="royalblue" d="M192.5,-329C192.5,-329 127.5,-329 127.5,-329 121.5,-329 115.5,-323 115.5,-317 115.5,-317 115.5,-305 115.5,-305 115.5,-299 121.5,-293 127.5,-293 127.5,-293 192.5,-293 192.5,-293 198.5,-293 204.5,-299 204.5,-305 204.5,-305 204.5,-317 204.5,-317 204.5,-323 198.5,-329 192.5,-329"/>
<text text-anchor="middle" x="160" y="-307.3" font-family="Times,serif" font-size="14.00">Coin::OsiClp</text>
</g>
<!-- CoinUtils&#45;&gt;OsiClp -->
<g id="edge4" class="edge">
<title>CoinUtils&#45;&gt;OsiClp</title>
<path fill="none" stroke="black" d="M152.18,-541.89C156.49,-534.84 160.81,-526.37 163,-518 179.28,-455.71 171.18,-379.17 164.94,-339.22"/>
<polygon fill="black" stroke="black" points="168.37,-338.49 163.29,-329.19 161.46,-339.63 168.37,-338.49"/>
</g>
<!-- Cgl -->
<g id="node13" class="node">
<title>Cgl</title>
<path fill="royalblue" stroke="royalblue" d="M154,-246C154,-246 108,-246 108,-246 102,-246 96,-240 96,-234 96,-234 96,-222 96,-222 96,-216 102,-210 108,-210 108,-210 154,-210 154,-210 160,-210 166,-216 166,-222 166,-222 166,-234 166,-234 166,-240 160,-246 154,-246"/>
<text text-anchor="middle" x="131" y="-224.3" font-family="Times,serif" font-size="14.00">Coin::Cgl</text>
</g>
<!-- CoinUtils&#45;&gt;Cgl -->
<g id="edge8" class="edge">
<title>CoinUtils&#45;&gt;Cgl</title>
<path fill="none" stroke="black" d="M88.26,-541.91C77.82,-536.01 68.17,-528.21 62,-518 34.92,-473.18 80.16,-313.17 92,-285 96.57,-274.13 103.48,-263.25 110.22,-254"/>
<polygon fill="black" stroke="black" points="113.02,-256.1 116.3,-246.03 107.45,-251.86 113.02,-256.1"/>
</g>
<!-- CoinUtils&#45;&gt;Cbc -->
<g id="edge11" class="edge">
<title>CoinUtils&#45;&gt;Cbc</title>
<path fill="none" stroke="black" d="M88.03,-544.61C73.96,-538.46 59.9,-529.87 50,-518 11.55,-471.89 17,-447.04 17,-387 17,-387 17,-387 17,-310 17,-240.55 71.56,-173.86 105.19,-139.36"/>
<polygon fill="black" stroke="black" points="107.85,-141.65 112.43,-132.09 102.89,-136.71 107.85,-141.65"/>
</g>
<!-- OsiCbc -->
<g id="node15" class="node">
<title>OsiCbc</title>
<path fill="royalblue" stroke="royalblue" d="M133.5,-60C133.5,-60 66.5,-60 66.5,-60 60.5,-60 54.5,-54 54.5,-48 54.5,-48 54.5,-36 54.5,-36 54.5,-30 60.5,-24 66.5,-24 66.5,-24 133.5,-24 133.5,-24 139.5,-24 145.5,-30 145.5,-36 145.5,-36 145.5,-48 145.5,-48 145.5,-54 139.5,-60 133.5,-60"/>
<text text-anchor="middle" x="100" y="-38.3" font-family="Times,serif" font-size="14.00">Coin::OsiCbc</text>
</g>
<!-- CoinUtils&#45;&gt;OsiCbc -->
<g id="edge15" class="edge">
<title>CoinUtils&#45;&gt;OsiCbc</title>
<path fill="none" stroke="black" d="M191.51,-544.97C258.48,-523.24 367,-474.52 367,-387 367,-387 367,-387 367,-227 367,-174.36 224.53,-100.44 147.73,-64.42"/>
<polygon fill="black" stroke="black" points="148.8,-61.06 138.25,-60.01 145.84,-67.41 148.8,-61.06"/>
</g>
<!-- Osi&#45;&gt;Clp -->
<g id="edge3" class="edge">
<title>Osi&#45;&gt;Clp</title>
<path fill="none" stroke="black" d="M135.33,-450.82C151.37,-439.01 172.87,-423.18 190.44,-410.24"/>
<polygon fill="black" stroke="black" points="192.73,-412.9 198.71,-404.15 188.58,-407.26 192.73,-412.9"/>
</g>
<!-- Osi&#45;&gt;OsiClp -->
<g id="edge5" class="edge">
<title>Osi&#45;&gt;OsiClp</title>
<path fill="none" stroke="black" d="M117.32,-450.71C125.65,-423.65 141.82,-371.09 151.69,-339.01"/>
<polygon fill="black" stroke="black" points="155.06,-339.96 154.66,-329.37 148.37,-337.9 155.06,-339.96"/>
</g>
<!-- Osi&#45;&gt;Cgl -->
<g id="edge9" class="edge">
<title>Osi&#45;&gt;Cgl</title>
<path fill="none" stroke="black" d="M106.98,-450.67C105.75,-445.66 104.62,-440.15 104,-435 96.09,-368.8 89.15,-349.99 104,-285 106.32,-274.85 110.73,-264.39 115.32,-255.31"/>
<polygon fill="black" stroke="black" points="118.45,-256.87 120.09,-246.4 112.28,-253.56 118.45,-256.87"/>
</g>
<!-- Osi&#45;&gt;Cbc -->
<g id="edge12" class="edge">
<title>Osi&#45;&gt;Cbc</title>
<path fill="none" stroke="black" d="M100.16,-450.87C97.32,-445.95 94.64,-440.44 93,-435 63.08,-335.76 57.15,-302.37 83,-202 88.7,-179.87 101.35,-157.35 112.24,-140.76"/>
<polygon fill="black" stroke="black" points="115.33,-142.44 118.05,-132.2 109.54,-138.51 115.33,-142.44"/>
</g>
<!-- Osi&#45;&gt;OsiCbc -->
<g id="edge16" class="edge">
<title>Osi&#45;&gt;OsiCbc</title>
<path fill="none" stroke="black" d="M85.78,-450.96C80.25,-446.35 74.91,-440.96 71,-435 39.85,-387.6 37,-368.72 37,-312 37,-312 37,-312 37,-227 37,-168.05 66.3,-103.93 84.94,-69.11"/>
<polygon fill="black" stroke="black" points="88.14,-70.54 89.88,-60.09 82,-67.18 88.14,-70.54"/>
</g>
<!-- Clp&#45;&gt;OsiClp -->
<g id="edge6" class="edge">
<title>Clp&#45;&gt;OsiClp</title>
<path fill="none" stroke="black" d="M207.31,-367.7C199.51,-358.52 189.79,-347.07 181.19,-336.94"/>
<polygon fill="black" stroke="black" points="183.73,-334.53 174.59,-329.18 178.39,-339.06 183.73,-334.53"/>
</g>
<!-- ClpSolver -->
<g id="node12" class="node">
<title>ClpSolver</title>
<path fill="royalblue" stroke="royalblue" d="M315.5,-329C315.5,-329 234.5,-329 234.5,-329 228.5,-329 222.5,-323 222.5,-317 222.5,-317 222.5,-305 222.5,-305 222.5,-299 228.5,-293 234.5,-293 234.5,-293 315.5,-293 315.5,-293 321.5,-293 327.5,-299 327.5,-305 327.5,-305 327.5,-317 327.5,-317 327.5,-323 321.5,-329 315.5,-329"/>
<text text-anchor="middle" x="275" y="-307.3" font-family="Times,serif" font-size="14.00">Coin::ClpSolver</text>
</g>
<!-- Clp&#45;&gt;ClpSolver -->
<g id="edge7" class="edge">
<title>Clp&#45;&gt;ClpSolver</title>
<path fill="none" stroke="black" d="M234.56,-367.7C241.09,-358.7 249.21,-347.52 256.45,-337.55"/>
<polygon fill="black" stroke="black" points="259.49,-339.32 262.53,-329.18 253.82,-335.21 259.49,-339.32"/>
</g>
<!-- Clp&#45;&gt;Cbc -->
<g id="edge13" class="edge">
<title>Clp&#45;&gt;Cbc</title>
<path fill="none" stroke="black" d="M257.21,-382.05C286.95,-378.73 326.22,-372.16 336,-360 356.89,-334.03 350.17,-315.17 336,-285 303.15,-215.07 225.84,-164 176.11,-136.97"/>
<polygon fill="black" stroke="black" points="177.63,-133.81 167.16,-132.2 174.34,-139.99 177.63,-133.81"/>
</g>
<!-- OsiClp&#45;&gt;Cgl -->
<g id="edge10" class="edge">
<title>OsiClp&#45;&gt;Cgl</title>
<path fill="none" stroke="black" d="M153.85,-292.82C150.01,-282.08 144.97,-268.03 140.61,-255.84"/>
<polygon fill="black" stroke="black" points="143.81,-254.39 137.14,-246.15 137.22,-256.75 143.81,-254.39"/>
</g>
<!-- Cgl&#45;&gt;Cbc -->
<g id="edge14" class="edge">
<title>Cgl&#45;&gt;Cbc</title>
<path fill="none" stroke="black" d="M131,-209.99C131,-192.06 131,-163.56 131,-142.44"/>
<polygon fill="black" stroke="black" points="134.5,-142.17 131,-132.17 127.5,-142.17 134.5,-142.17"/>
</g>
<!-- Cbc&#45;&gt;OsiCbc -->
<g id="edge17" class="edge">
<title>Cbc&#45;&gt;OsiCbc</title>
<path fill="none" stroke="black" d="M123.34,-95.7C119.81,-87.73 115.54,-78.1 111.63,-69.26"/>
<polygon fill="black" stroke="black" points="114.82,-67.83 107.57,-60.1 108.42,-70.67 114.82,-67.83"/>
</g>
<!-- CbcSolver -->
<g id="node16" class="node">
<title>CbcSolver</title>
<path fill="royalblue" stroke="royalblue" d="M258.5,-60C258.5,-60 175.5,-60 175.5,-60 169.5,-60 163.5,-54 163.5,-48 163.5,-48 163.5,-36 163.5,-36 163.5,-30 169.5,-24 175.5,-24 175.5,-24 258.5,-24 258.5,-24 264.5,-24 270.5,-30 270.5,-36 270.5,-36 270.5,-48 270.5,-48 270.5,-54 264.5,-60 258.5,-60"/>
<text text-anchor="middle" x="217" y="-38.3" font-family="Times,serif" font-size="14.00">Coin::CbcSolver</text>
</g>
<!-- Cbc&#45;&gt;CbcSolver -->
<g id="edge18" class="edge">
<title>Cbc&#45;&gt;CbcSolver</title>
<path fill="none" stroke="black" d="M152.26,-95.7C163.09,-86.88 176.42,-76.03 188.16,-66.47"/>
<polygon fill="black" stroke="black" points="190.44,-69.13 195.99,-60.1 186.02,-63.7 190.44,-69.13"/>
</g>
<!-- GLPK -->
<g id="node17" class="node">
<title>GLPK</title>
<path fill="royalblue" stroke="royalblue" d="M820,-578C820,-578 772,-578 772,-578 766,-578 760,-572 760,-566 760,-566 760,-554 760,-554 760,-548 766,-542 772,-542 772,-542 820,-542 820,-542 826,-542 832,-548 832,-554 832,-554 832,-566 832,-566 832,-572 826,-578 820,-578"/>
<text text-anchor="middle" x="796" y="-556.3" font-family="Times,serif" font-size="14.00">glpk::glpk</text>
</g>
<!-- HIGHS -->
<g id="node18" class="node">
<title>HIGHS</title>
<path fill="royalblue" stroke="royalblue" d="M1126.5,-578C1126.5,-578 1067.5,-578 1067.5,-578 1061.5,-578 1055.5,-572 1055.5,-566 1055.5,-566 1055.5,-554 1055.5,-554 1055.5,-548 1061.5,-542 1067.5,-542 1067.5,-542 1126.5,-542 1126.5,-542 1132.5,-542 1138.5,-548 1138.5,-554 1138.5,-554 1138.5,-566 1138.5,-566 1138.5,-572 1132.5,-578 1126.5,-578"/>
<text text-anchor="middle" x="1097" y="-556.3" font-family="Times,serif" font-size="14.00">highs::highs</text>
</g>
<!-- SPX&#45;&gt;SCIP -->
<g id="edge19" class="edge">
<title>SPX&#45;&gt;SCIP</title>
<path fill="none" stroke="black" d="M714.72,-95.7C715.93,-87.98 717.39,-78.71 718.74,-70.11"/>
<polygon fill="black" stroke="black" points="722.22,-70.53 720.31,-60.1 715.3,-69.44 722.22,-70.53"/>
</g>
</g>
</svg>
