<?xml version="1.0" encoding="UTF-8" standalone="no"?>
<!DOCTYPE svg PUBLIC "-//W3C//DTD SVG 1.1//EN"
 "http://www.w3.org/Graphics/SVG/1.1/DTD/svg11.dtd">
<!-- Generated by graphviz version 12.2.1 (0)
 -->
<!-- Title: CMakeDeps Pages: 1 -->
<svg width="3111pt" height="657pt"
 viewBox="0.00 0.00 3111.00 656.75" xmlns="http://www.w3.org/2000/svg" xmlns:xlink="http://www.w3.org/1999/xlink">
<g id="graph0" class="graph" transform="scale(1 1) rotate(0) translate(4 652.75)">
<title>CMakeDeps</title>
<polygon fill="white" stroke="none" points="-4,4 -4,-652.75 3107,-652.75 3107,4 -4,4"/>
<g id="clust1" class="cluster">
<title>clusterZLIB</title>
<polygon fill="none" stroke="royalblue" points="553,-227.75 553,-305 784,-305 784,-227.75 553,-227.75"/>
<text text-anchor="middle" x="668.5" y="-235.7" font-family="Times,serif" font-size="14.00">madler/zlib.git + cmake patch</text>
</g>
<g id="clust2" class="cluster">
<title>clusterBZip2</title>
<polygon fill="none" stroke="royalblue" points="2010,-41.25 2010,-118.5 2243,-118.5 2243,-41.25 2010,-41.25"/>
<text text-anchor="middle" x="2126.5" y="-49.2" font-family="Times,serif" font-size="14.00">bzip2/bzip2.git + cmake patch</text>
</g>
<g id="clust3" class="cluster">
<title>clusterAbsl</title>
<polygon fill="none" stroke="royalblue" points="1154,-313 1154,-390.25 1312,-390.25 1312,-313 1154,-313"/>
<text text-anchor="middle" x="1233" y="-320.95" font-family="Times,serif" font-size="14.00">abseil/abseil&#45;cpp.git</text>
</g>
<g id="clust4" class="cluster">
<title>clusterProtobuf</title>
<polygon fill="none" stroke="royalblue" points="1142,-134.5 1142,-211.75 1474,-211.75 1474,-134.5 1142,-134.5"/>
<text text-anchor="middle" x="1308" y="-142.45" font-family="Times,serif" font-size="14.00">protocolbuffers/protobuf.git</text>
</g>
<g id="clust5" class="cluster">
<title>clusterRe2</title>
<polygon fill="none" stroke="royalblue" points="1084,-227.75 1084,-305 1199,-305 1199,-227.75 1084,-227.75"/>
<text text-anchor="middle" x="1141.5" y="-235.7" font-family="Times,serif" font-size="14.00">google/re2.git</text>
</g>
<g id="clust6" class="cluster">
<title>clusterEigen3</title>
<polygon fill="none" stroke="royalblue" points="2251,-41.25 2251,-118.5 2391,-118.5 2391,-41.25 2251,-41.25"/>
<text text-anchor="middle" x="2321" y="-49.2" font-family="Times,serif" font-size="14.00">libeigen/eigen.git</text>
</g>
<g id="clust7" class="cluster">
<title>clusterCoinOR</title>
<polygon fill="none" stroke="royalblue" points="8,-8 8,-640.75 414,-640.75 414,-8 8,-8"/>
<text text-anchor="middle" x="211" y="-15.95" font-family="Times,serif" font-size="14.00">&#45;DUSE_COINOR=ON AND &#45;DBUILD_DEPS=ON</text>
</g>
<g id="clust8" class="cluster">
<title>clusterCoinUtils</title>
<polygon fill="none" stroke="royalblue" points="234,-555.5 234,-632.75 388,-632.75 388,-555.5 234,-555.5"/>
<text text-anchor="middle" x="311" y="-563.45" font-family="Times,serif" font-size="14.00">Mizux/CoinUtils.git</text>
</g>
<g id="clust9" class="cluster">
<title>clusterOsi</title>
<polygon fill="none" stroke="royalblue" points="31,-470.25 31,-547.5 142,-547.5 142,-470.25 31,-470.25"/>
<text text-anchor="middle" x="86.5" y="-478.2" font-family="Times,serif" font-size="14.00">Mizux/Osi.git</text>
</g>
<g id="clust10" class="cluster">
<title>clusterClp</title>
<polygon fill="none" stroke="royalblue" points="68,-313 68,-462.25 334,-462.25 334,-313 68,-313"/>
<text text-anchor="middle" x="201" y="-320.95" font-family="Times,serif" font-size="14.00">Mizux/Clp.git</text>
</g>
<g id="clust11" class="cluster">
<title>clusterCgl</title>
<polygon fill="none" stroke="royalblue" points="159,-227.75 159,-305 271,-305 271,-227.75 159,-227.75"/>
<text text-anchor="middle" x="215" y="-235.7" font-family="Times,serif" font-size="14.00">Mizux/Cgl.git</text>
</g>
<g id="clust12" class="cluster">
<title>clusterCbc</title>
<polygon fill="none" stroke="royalblue" points="134,-41.25 134,-211.75 406,-211.75 406,-41.25 134,-41.25"/>
<text text-anchor="middle" x="270" y="-49.2" font-family="Times,serif" font-size="14.00">Mizux/Cbc.git</text>
</g>
<g id="clust13" class="cluster">
<title>clusterGLPKSolver</title>
<polygon fill="none" stroke="royalblue" points="2399,-8 2399,-126.5 2733,-126.5 2733,-8 2399,-8"/>
<text text-anchor="middle" x="2566" y="-15.95" font-family="Times,serif" font-size="14.00">&#45;DUSE_GLPK=ON AND &#45;DBUILD_GLPK=ON</text>
</g>
<g id="clust14" class="cluster">
<title>clusterGLPK</title>
<polygon fill="none" stroke="royalblue" points="2502,-41.25 2502,-118.5 2630,-118.5 2630,-41.25 2502,-41.25"/>
<text text-anchor="middle" x="2566" y="-49.2" font-family="Times,serif" font-size="14.00">Mizux/GLPK.git</text>
</g>
<g id="clust15" class="cluster">
<title>clusterHIGHSSolver</title>
<polygon fill="none" stroke="royalblue" points="2741,-8 2741,-126.5 3095,-126.5 3095,-8 2741,-8"/>
<text text-anchor="middle" x="2918" y="-15.95" font-family="Times,serif" font-size="14.00">&#45;DUSE_HIGHS=ON AND &#45;DBUILD_HIGHS=ON</text>
</g>
<g id="clust16" class="cluster">
<title>clusterHIGHS</title>
<polygon fill="none" stroke="royalblue" points="2828,-41.25 2828,-118.5 3007,-118.5 3007,-41.25 2828,-41.25"/>
<text text-anchor="middle" x="2917.5" y="-49.2" font-family="Times,serif" font-size="14.00">ERGO&#45;Code/HIGHS.git</text>
</g>
<g id="clust17" class="cluster">
<title>clusterSCIPSolver</title>
<polygon fill="none" stroke="royalblue" points="422,-8 422,-219.75 746,-219.75 746,-8 422,-8"/>
<text text-anchor="middle" x="584" y="-15.95" font-family="Times,serif" font-size="14.00">&#45;DUSE_SCIP=ON AND &#45;DBUILD_SCIP=ON</text>
</g>
<g id="clust18" class="cluster">
<title>clusterSoplex</title>
<polygon fill="none" stroke="royalblue" points="503,-134.5 503,-211.75 645,-211.75 645,-134.5 503,-134.5"/>
<text text-anchor="middle" x="574" y="-142.45" font-family="Times,serif" font-size="14.00">scipopt/soplex.git</text>
</g>
<g id="clust19" class="cluster">
<title>clusterSCIP</title>
<polygon fill="none" stroke="royalblue" points="568,-41.25 568,-118.5 692,-118.5 692,-41.25 568,-41.25"/>
<text text-anchor="middle" x="630" y="-49.2" font-family="Times,serif" font-size="14.00">scipopt/scip.git</text>
</g>
<g id="clust20" class="cluster">
<title>clusterTesting</title>
<polygon fill="none" stroke="royalblue" points="754,-8 754,-219.75 1134,-219.75 1134,-8 754,-8"/>
<text text-anchor="middle" x="944" y="-15.95" font-family="Times,serif" font-size="14.00">&#45;DBUILD_TESTING=ON</text>
</g>
<g id="clust21" class="cluster">
<title>clusterGTest</title>
<polygon fill="none" stroke="royalblue" points="937,-134.5 937,-211.75 1103,-211.75 1103,-134.5 937,-134.5"/>
<text text-anchor="middle" x="1020" y="-142.45" font-family="Times,serif" font-size="14.00">google/googletest.git</text>
</g>
<g id="clust22" class="cluster">
<title>clusterBenchmark</title>
<polygon fill="none" stroke="royalblue" points="762,-41.25 762,-118.5 962,-118.5 962,-41.25 762,-41.25"/>
<text text-anchor="middle" x="862" y="-49.2" font-family="Times,serif" font-size="14.00">google/benchmark.git</text>
</g>
<g id="clust23" class="cluster">
<title>clusterFuzzTest</title>
<polygon fill="none" stroke="royalblue" points="970,-41.25 970,-118.5 1126,-118.5 1126,-41.25 970,-41.25"/>
<text text-anchor="middle" x="1048" y="-49.2" font-family="Times,serif" font-size="14.00">google/fuzztest.git</text>
</g>
<g id="clust24" class="cluster">
<title>clusterPython</title>
<polygon fill="none" stroke="gold" points="1512,-8 1512,-219.75 2002,-219.75 2002,-8 1512,-8"/>
<text text-anchor="middle" x="1757" y="-15.95" font-family="Times,serif" font-size="14.00">&#45;DBUILD_PYTHON=ON</text>
</g>
<g id="clust25" class="cluster">
<title>clusterPybind11</title>
<polygon fill="none" stroke="gold" points="1674,-134.5 1674,-211.75 1848,-211.75 1848,-134.5 1674,-134.5"/>
<text text-anchor="middle" x="1761" y="-142.45" font-family="Times,serif" font-size="14.00">pybind/pybind11.git</text>
</g>
<g id="clust26" class="cluster">
<title>clusterPybind11Absl</title>
<polygon fill="none" stroke="gold" points="1770,-41.25 1770,-118.5 1994,-118.5 1994,-41.25 1770,-41.25"/>
<text text-anchor="middle" x="1882" y="-49.2" font-family="Times,serif" font-size="14.00">pybind/pybind11_abseil.git</text>
</g>
<g id="clust27" class="cluster">
<title>clusterPybind11Protobuf</title>
<polygon fill="none" stroke="gold" points="1520,-41.25 1520,-118.5 1762,-118.5 1762,-41.25 1520,-41.25"/>
<text text-anchor="middle" x="1641" y="-49.2" font-family="Times,serif" font-size="14.00">pybind/pybind11_protobuf.git</text>
</g>
<!-- ZLIB -->
<g id="node1" class="node">
<title>ZLIB</title>
<path fill="royalblue" stroke="royalblue" d="M665,-297C665,-297 595,-297 595,-297 589,-297 583,-291 583,-285 583,-285 583,-273 583,-273 583,-267 589,-261 595,-261 595,-261 665,-261 665,-261 671,-261 677,-267 677,-273 677,-273 677,-285 677,-285 677,-291 671,-297 665,-297"/>
<text text-anchor="middle" x="630" y="-274.32" font-family="Times,serif" font-size="14.00">ZLIB::ZLIB</text>
</g>
<!-- BZip2 -->
<g id="node2" class="node">
<title>BZip2</title>
<path fill="royalblue" stroke="royalblue" d="M2169.25,-110.5C2169.25,-110.5 2082.75,-110.5 2082.75,-110.5 2076.75,-110.5 2070.75,-104.5 2070.75,-98.5 2070.75,-98.5 2070.75,-86.5 2070.75,-86.5 2070.75,-80.5 2076.75,-74.5 2082.75,-74.5 2082.75,-74.5 2169.25,-74.5 2169.25,-74.5 2175.25,-74.5 2181.25,-80.5 2181.25,-86.5 2181.25,-86.5 2181.25,-98.5 2181.25,-98.5 2181.25,-104.5 2175.25,-110.5 2169.25,-110.5"/>
<text text-anchor="middle" x="2126" y="-87.83" font-family="Times,serif" font-size="14.00">BZip2::BZip2</text>
</g>
<!-- Absl -->
<g id="node3" class="node">
<title>Absl</title>
<path fill="royalblue" stroke="royalblue" d="M1269.5,-382.25C1269.5,-382.25 1196.5,-382.25 1196.5,-382.25 1190.5,-382.25 1184.5,-376.25 1184.5,-370.25 1184.5,-370.25 1184.5,-358.25 1184.5,-358.25 1184.5,-352.25 1190.5,-346.25 1196.5,-346.25 1196.5,-346.25 1269.5,-346.25 1269.5,-346.25 1275.5,-346.25 1281.5,-352.25 1281.5,-358.25 1281.5,-358.25 1281.5,-370.25 1281.5,-370.25 1281.5,-376.25 1275.5,-382.25 1269.5,-382.25"/>
<text text-anchor="middle" x="1233" y="-359.57" font-family="Times,serif" font-size="14.00">absl::absl_*</text>
</g>
<!-- Protobuf -->
<g id="node4" class="node">
<title>Protobuf</title>
<path fill="royalblue" stroke="royalblue" d="M1304,-203.75C1304,-203.75 1162,-203.75 1162,-203.75 1156,-203.75 1150,-197.75 1150,-191.75 1150,-191.75 1150,-179.75 1150,-179.75 1150,-173.75 1156,-167.75 1162,-167.75 1162,-167.75 1304,-167.75 1304,-167.75 1310,-167.75 1316,-173.75 1316,-179.75 1316,-179.75 1316,-191.75 1316,-191.75 1316,-197.75 1310,-203.75 1304,-203.75"/>
<text text-anchor="middle" x="1233" y="-181.07" font-family="Times,serif" font-size="14.00">protobuf::libprotobuf</text>
</g>
<!-- Protobuf&#45;&gt;ZLIB -->
<g id="edge24" class="edge">
<title>Protobuf&#45;&gt;ZLIB</title>
<path fill="none" stroke="black" d="M1173.13,-204.19C1152.33,-209.78 1128.77,-215.59 1107,-219.75 957.65,-248.29 779.18,-265.72 688.75,-273.39"/>
<polygon fill="black" stroke="black" points="688.56,-269.89 678.89,-274.22 689.15,-276.87 688.56,-269.89"/>
</g>
<!-- Protobuf&#45;&gt;Absl -->
<g id="edge29" class="edge">
<title>Protobuf&#45;&gt;Absl</title>
<path fill="none" stroke="black" d="M1233,-203.99C1233,-234.31 1233,-297.44 1233,-334.47"/>
<polygon fill="black" stroke="black" points="1229.5,-334.42 1233,-344.42 1236.5,-334.42 1229.5,-334.42"/>
</g>
<!-- Re2 -->
<g id="node6" class="node">
<title>Re2</title>
<path fill="royalblue" stroke="royalblue" d="M1161.5,-297C1161.5,-297 1112.5,-297 1112.5,-297 1106.5,-297 1100.5,-291 1100.5,-285 1100.5,-285 1100.5,-273 1100.5,-273 1100.5,-267 1106.5,-261 1112.5,-261 1112.5,-261 1161.5,-261 1161.5,-261 1167.5,-261 1173.5,-267 1173.5,-273 1173.5,-273 1173.5,-285 1173.5,-285 1173.5,-291 1167.5,-297 1161.5,-297"/>
<text text-anchor="middle" x="1137" y="-274.32" font-family="Times,serif" font-size="14.00">re2::re2</text>
</g>
<!-- Protobuf&#45;&gt;Re2 -->
<g id="edge35" class="edge">
<title>Protobuf&#45;&gt;Re2</title>
<path fill="none" stroke="black" d="M1214.94,-203.91C1200.42,-217.72 1179.81,-237.31 1163.43,-252.88"/>
<polygon fill="black" stroke="black" points="1161.24,-250.13 1156.4,-259.56 1166.06,-255.21 1161.24,-250.13"/>
</g>
<!-- Protoc -->
<g id="node5" class="node">
<title>Protoc</title>
<polygon fill="royalblue" stroke="royalblue" points="1466.12,-203.75 1333.88,-203.75 1333.88,-199.75 1329.88,-199.75 1329.88,-195.75 1333.88,-195.75 1333.88,-175.75 1329.88,-175.75 1329.88,-171.75 1333.88,-171.75 1333.88,-167.75 1466.12,-167.75 1466.12,-203.75"/>
<polyline fill="none" stroke="royalblue" points="1333.88,-199.75 1337.88,-199.75 1337.88,-195.75 1333.88,-195.75"/>
<polyline fill="none" stroke="royalblue" points="1333.88,-175.75 1337.88,-175.75 1337.88,-171.75 1333.88,-171.75"/>
<text text-anchor="middle" x="1400" y="-181.07" font-family="Times,serif" font-size="14.00">protobuf::protoc</text>
</g>
<!-- Re2&#45;&gt;Absl -->
<g id="edge28" class="edge">
<title>Re2&#45;&gt;Absl</title>
<path fill="none" stroke="black" d="M1156.89,-297.25C1170.66,-309.19 1189.2,-325.27 1204.54,-338.57"/>
<polygon fill="black" stroke="black" points="1202.14,-341.12 1211.99,-345.03 1206.73,-335.84 1202.14,-341.12"/>
</g>
<!-- Eigen3 -->
<g id="node7" class="node">
<title>Eigen3</title>
<path fill="royalblue" stroke="royalblue" d="M2366.12,-110.5C2366.12,-110.5 2275.88,-110.5 2275.88,-110.5 2269.88,-110.5 2263.88,-104.5 2263.88,-98.5 2263.88,-98.5 2263.88,-86.5 2263.88,-86.5 2263.88,-80.5 2269.88,-74.5 2275.88,-74.5 2275.88,-74.5 2366.12,-74.5 2366.12,-74.5 2372.12,-74.5 2378.12,-80.5 2378.12,-86.5 2378.12,-86.5 2378.12,-98.5 2378.12,-98.5 2378.12,-104.5 2372.12,-110.5 2366.12,-110.5"/>
<text text-anchor="middle" x="2321" y="-87.83" font-family="Times,serif" font-size="14.00">Eigen3::eigen</text>
</g>
<!-- CoinUtils -->
<g id="node8" class="node">
<title>CoinUtils</title>
<path fill="royalblue" stroke="royalblue" d="M361,-624.75C361,-624.75 261,-624.75 261,-624.75 255,-624.75 249,-618.75 249,-612.75 249,-612.75 249,-600.75 249,-600.75 249,-594.75 255,-588.75 261,-588.75 261,-588.75 361,-588.75 361,-588.75 367,-588.75 373,-594.75 373,-600.75 373,-600.75 373,-612.75 373,-612.75 373,-618.75 367,-624.75 361,-624.75"/>
<text text-anchor="middle" x="311" y="-602.08" font-family="Times,serif" font-size="14.00">Coin::CoinUtils</text>
</g>
<!-- Osi -->
<g id="node9" class="node">
<title>Osi</title>
<path fill="royalblue" stroke="royalblue" d="M114.25,-539.5C114.25,-539.5 57.75,-539.5 57.75,-539.5 51.75,-539.5 45.75,-533.5 45.75,-527.5 45.75,-527.5 45.75,-515.5 45.75,-515.5 45.75,-509.5 51.75,-503.5 57.75,-503.5 57.75,-503.5 114.25,-503.5 114.25,-503.5 120.25,-503.5 126.25,-509.5 126.25,-515.5 126.25,-515.5 126.25,-527.5 126.25,-527.5 126.25,-533.5 120.25,-539.5 114.25,-539.5"/>
<text text-anchor="middle" x="86" y="-516.83" font-family="Times,serif" font-size="14.00">Coin::Osi</text>
</g>
<!-- Osi&#45;&gt;CoinUtils -->
<g id="edge1" class="edge">
<title>Osi&#45;&gt;CoinUtils</title>
<path fill="none" stroke="black" d="M126.75,-537.58C162.13,-550.67 213.76,-569.77 253.37,-584.43"/>
<polygon fill="black" stroke="black" points="251.93,-587.63 262.52,-587.81 254.36,-581.06 251.93,-587.63"/>
</g>
<!-- Clp -->
<g id="node10" class="node">
<title>Clp</title>
<path fill="royalblue" stroke="royalblue" d="M290.62,-454.25C290.62,-454.25 233.38,-454.25 233.38,-454.25 227.38,-454.25 221.38,-448.25 221.38,-442.25 221.38,-442.25 221.38,-430.25 221.38,-430.25 221.38,-424.25 227.38,-418.25 233.38,-418.25 233.38,-418.25 290.62,-418.25 290.62,-418.25 296.62,-418.25 302.62,-424.25 302.62,-430.25 302.62,-430.25 302.62,-442.25 302.62,-442.25 302.62,-448.25 296.62,-454.25 290.62,-454.25"/>
<text text-anchor="middle" x="262" y="-431.57" font-family="Times,serif" font-size="14.00">Coin::Clp</text>
</g>
<!-- Clp&#45;&gt;CoinUtils -->
<g id="edge2" class="edge">
<title>Clp&#45;&gt;CoinUtils</title>
<path fill="none" stroke="black" d="M267.06,-454.65C275.54,-483.81 292.69,-542.79 302.88,-577.82"/>
<polygon fill="black" stroke="black" points="299.47,-578.62 305.62,-587.24 306.19,-576.66 299.47,-578.62"/>
</g>
<!-- Clp&#45;&gt;Osi -->
<g id="edge3" class="edge">
<title>Clp&#45;&gt;Osi</title>
<path fill="none" stroke="black" d="M225.1,-454.7C198.35,-467.36 161.96,-484.57 133.1,-498.22"/>
<polygon fill="black" stroke="black" points="131.76,-494.98 124.21,-502.42 134.75,-501.31 131.76,-494.98"/>
</g>
<!-- OsiClp -->
<g id="node11" class="node">
<title>OsiClp</title>
<path fill="royalblue" stroke="royalblue" d="M168.25,-382.25C168.25,-382.25 87.75,-382.25 87.75,-382.25 81.75,-382.25 75.75,-376.25 75.75,-370.25 75.75,-370.25 75.75,-358.25 75.75,-358.25 75.75,-352.25 81.75,-346.25 87.75,-346.25 87.75,-346.25 168.25,-346.25 168.25,-346.25 174.25,-346.25 180.25,-352.25 180.25,-358.25 180.25,-358.25 180.25,-370.25 180.25,-370.25 180.25,-376.25 174.25,-382.25 168.25,-382.25"/>
<text text-anchor="middle" x="128" y="-359.57" font-family="Times,serif" font-size="14.00">Coin::OsiClp</text>
</g>
<!-- OsiClp&#45;&gt;CoinUtils -->
<g id="edge4" class="edge">
<title>OsiClp&#45;&gt;CoinUtils</title>
<path fill="none" stroke="black" d="M141.16,-382.55C172.74,-424.05 252.98,-529.5 290.75,-579.14"/>
<polygon fill="black" stroke="black" points="287.96,-581.24 296.8,-587.08 293.53,-577.01 287.96,-581.24"/>
</g>
<!-- OsiClp&#45;&gt;Osi -->
<g id="edge5" class="edge">
<title>OsiClp&#45;&gt;Osi</title>
<path fill="none" stroke="black" d="M123.34,-382.46C116.15,-409.04 102.27,-460.34 93.61,-492.37"/>
<polygon fill="black" stroke="black" points="90.3,-491.19 91.07,-501.75 97.06,-493.02 90.3,-491.19"/>
</g>
<!-- OsiClp&#45;&gt;Clp -->
<g id="edge6" class="edge">
<title>OsiClp&#45;&gt;Clp</title>
<path fill="none" stroke="black" d="M161.47,-382.73C178.87,-391.82 200.33,-403.03 218.95,-412.76"/>
<polygon fill="black" stroke="black" points="217.13,-415.76 227.62,-417.29 220.37,-409.56 217.13,-415.76"/>
</g>
<!-- ClpSolver -->
<g id="node12" class="node">
<title>ClpSolver</title>
<path fill="royalblue" stroke="royalblue" d="M313.5,-382.25C313.5,-382.25 210.5,-382.25 210.5,-382.25 204.5,-382.25 198.5,-376.25 198.5,-370.25 198.5,-370.25 198.5,-358.25 198.5,-358.25 198.5,-352.25 204.5,-346.25 210.5,-346.25 210.5,-346.25 313.5,-346.25 313.5,-346.25 319.5,-346.25 325.5,-352.25 325.5,-358.25 325.5,-358.25 325.5,-370.25 325.5,-370.25 325.5,-376.25 319.5,-382.25 313.5,-382.25"/>
<text text-anchor="middle" x="262" y="-359.57" font-family="Times,serif" font-size="14.00">Coin::ClpSolver</text>
</g>
<!-- ClpSolver&#45;&gt;Clp -->
<g id="edge7" class="edge">
<title>ClpSolver&#45;&gt;Clp</title>
<path fill="none" stroke="black" d="M262,-382.55C262,-389.84 262,-398.52 262,-406.71"/>
<polygon fill="black" stroke="black" points="258.5,-406.63 262,-416.63 265.5,-406.63 258.5,-406.63"/>
</g>
<!-- Cgl -->
<g id="node13" class="node">
<title>Cgl</title>
<path fill="royalblue" stroke="royalblue" d="M242.62,-297C242.62,-297 185.38,-297 185.38,-297 179.38,-297 173.38,-291 173.38,-285 173.38,-285 173.38,-273 173.38,-273 173.38,-267 179.38,-261 185.38,-261 185.38,-261 242.62,-261 242.62,-261 248.62,-261 254.62,-267 254.62,-273 254.62,-273 254.62,-285 254.62,-285 254.62,-291 248.62,-297 242.62,-297"/>
<text text-anchor="middle" x="214" y="-274.32" font-family="Times,serif" font-size="14.00">Coin::Cgl</text>
</g>
<!-- Cgl&#45;&gt;CoinUtils -->
<g id="edge8" class="edge">
<title>Cgl&#45;&gt;CoinUtils</title>
<path fill="none" stroke="black" d="M254.94,-285.47C287,-290.7 327.82,-299.75 338,-313 398.95,-392.29 350.78,-521.7 324.83,-578.06"/>
<polygon fill="black" stroke="black" points="321.73,-576.42 320.62,-586.95 328.06,-579.41 321.73,-576.42"/>
</g>
<!-- Cgl&#45;&gt;Osi -->
<g id="edge9" class="edge">
<title>Cgl&#45;&gt;Osi</title>
<path fill="none" stroke="black" d="M172.92,-283.35C133.31,-287.53 77.45,-296.27 64,-313 22.24,-364.95 51.87,-449.4 71.84,-492.81"/>
<polygon fill="black" stroke="black" points="68.67,-494.28 76.13,-501.8 74.98,-491.26 68.67,-494.28"/>
</g>
<!-- Cgl&#45;&gt;OsiClp -->
<g id="edge10" class="edge">
<title>Cgl&#45;&gt;OsiClp</title>
<path fill="none" stroke="black" d="M196.18,-297.25C183.96,-309.08 167.54,-324.97 153.88,-338.19"/>
<polygon fill="black" stroke="black" points="151.63,-335.5 146.88,-344.97 156.5,-340.53 151.63,-335.5"/>
</g>
<!-- Cbc -->
<g id="node14" class="node">
<title>Cbc</title>
<path fill="royalblue" stroke="royalblue" d="M363.12,-203.75C363.12,-203.75 302.88,-203.75 302.88,-203.75 296.88,-203.75 290.88,-197.75 290.88,-191.75 290.88,-191.75 290.88,-179.75 290.88,-179.75 290.88,-173.75 296.88,-167.75 302.88,-167.75 302.88,-167.75 363.12,-167.75 363.12,-167.75 369.12,-167.75 375.12,-173.75 375.12,-179.75 375.12,-179.75 375.12,-191.75 375.12,-191.75 375.12,-197.75 369.12,-203.75 363.12,-203.75"/>
<text text-anchor="middle" x="333" y="-181.07" font-family="Times,serif" font-size="14.00">Coin::Cbc</text>
</g>
<!-- Cbc&#45;&gt;ZLIB -->
<g id="edge25" class="edge">
<title>Cbc&#45;&gt;ZLIB</title>
<path fill="none" stroke="black" d="M375.55,-199.82C427.09,-215.66 514.14,-242.4 571.84,-260.13"/>
<polygon fill="black" stroke="black" points="570.58,-263.41 581.17,-263 572.64,-256.71 570.58,-263.41"/>
</g>
<!-- Cbc&#45;&gt;CoinUtils -->
<g id="edge11" class="edge">
<title>Cbc&#45;&gt;CoinUtils</title>
<path fill="none" stroke="black" d="M343.74,-204.21C347.74,-211.31 352.02,-219.72 355,-227.75 376.45,-285.58 385,-301.57 385,-363.25 385,-363.25 385,-363.25 385,-437.25 385,-488.15 376.37,-501.78 354,-547.5 348.53,-558.68 340.86,-569.92 333.51,-579.51"/>
<polygon fill="black" stroke="black" points="330.8,-577.3 327.3,-587.3 336.27,-581.66 330.8,-577.3"/>
</g>
<!-- Cbc&#45;&gt;Osi -->
<g id="edge12" class="edge">
<title>Cbc&#45;&gt;Osi</title>
<path fill="none" stroke="black" d="M290.43,-189.29C221.31,-196.08 87.8,-221.07 42,-313 12.42,-372.37 21.83,-399.39 43,-462.25 46.91,-473.86 54.08,-485.08 61.46,-494.52"/>
<polygon fill="black" stroke="black" points="58.73,-496.71 67.83,-502.15 64.11,-492.23 58.73,-496.71"/>
</g>
<!-- Cbc&#45;&gt;Clp -->
<g id="edge13" class="edge">
<title>Cbc&#45;&gt;Clp</title>
<path fill="none" stroke="black" d="M338.59,-204.23C349.36,-241.28 369.02,-329.32 335,-390.25 329.72,-399.71 321.55,-407.42 312.55,-413.62"/>
<polygon fill="black" stroke="black" points="310.92,-410.51 304.26,-418.75 314.6,-416.47 310.92,-410.51"/>
</g>
<!-- Cbc&#45;&gt;Cgl -->
<g id="edge14" class="edge">
<title>Cbc&#45;&gt;Cgl</title>
<path fill="none" stroke="black" d="M310.34,-204.13C291.97,-218.21 265.9,-238.21 245.5,-253.84"/>
<polygon fill="black" stroke="black" points="243.59,-250.9 237.78,-259.77 247.85,-256.46 243.59,-250.9"/>
</g>
<!-- OsiCbc -->
<g id="node15" class="node">
<title>OsiCbc</title>
<path fill="royalblue" stroke="royalblue" d="M237.75,-110.5C237.75,-110.5 154.25,-110.5 154.25,-110.5 148.25,-110.5 142.25,-104.5 142.25,-98.5 142.25,-98.5 142.25,-86.5 142.25,-86.5 142.25,-80.5 148.25,-74.5 154.25,-74.5 154.25,-74.5 237.75,-74.5 237.75,-74.5 243.75,-74.5 249.75,-80.5 249.75,-86.5 249.75,-86.5 249.75,-98.5 249.75,-98.5 249.75,-104.5 243.75,-110.5 237.75,-110.5"/>
<text text-anchor="middle" x="196" y="-87.83" font-family="Times,serif" font-size="14.00">Coin::OsiCbc</text>
</g>
<!-- OsiCbc&#45;&gt;CoinUtils -->
<g id="edge15" class="edge">
<title>OsiCbc&#45;&gt;CoinUtils</title>
<path fill="none" stroke="black" d="M223.18,-110.92C233.92,-116.94 246.64,-123.04 259,-126.5 272.4,-130.26 373.77,-125.07 384,-134.5 431.39,-178.19 405,-213.54 405,-278 405,-278 405,-278 405,-437.25 405,-488.15 400.58,-504.09 374,-547.5 366.27,-560.13 355.04,-571.74 344.2,-581.21"/>
<polygon fill="black" stroke="black" points="342.26,-578.27 336.82,-587.36 346.74,-583.64 342.26,-578.27"/>
</g>
<!-- OsiCbc&#45;&gt;Osi -->
<g id="edge16" class="edge">
<title>OsiCbc&#45;&gt;Osi</title>
<path fill="none" stroke="black" d="M158.91,-110.93C106.48,-138.44 17,-197.22 17,-278 17,-278 17,-278 17,-365.25 17,-408.51 6.36,-423.21 25,-462.25 31.11,-475.05 41.33,-486.51 51.68,-495.8"/>
<polygon fill="black" stroke="black" points="49.25,-498.33 59.15,-502.1 53.77,-492.98 49.25,-498.33"/>
</g>
<!-- OsiCbc&#45;&gt;Cbc -->
<g id="edge17" class="edge">
<title>OsiCbc&#45;&gt;Cbc</title>
<path fill="none" stroke="black" d="M222.09,-110.88C243.52,-125.15 274.07,-145.5 297.68,-161.23"/>
<polygon fill="black" stroke="black" points="295.48,-163.97 305.75,-166.6 299.36,-158.14 295.48,-163.97"/>
</g>
<!-- CbcSolver -->
<g id="node16" class="node">
<title>CbcSolver</title>
<path fill="royalblue" stroke="royalblue" d="M386,-110.5C386,-110.5 280,-110.5 280,-110.5 274,-110.5 268,-104.5 268,-98.5 268,-98.5 268,-86.5 268,-86.5 268,-80.5 274,-74.5 280,-74.5 280,-74.5 386,-74.5 386,-74.5 392,-74.5 398,-80.5 398,-86.5 398,-86.5 398,-98.5 398,-98.5 398,-104.5 392,-110.5 386,-110.5"/>
<text text-anchor="middle" x="333" y="-87.83" font-family="Times,serif" font-size="14.00">Coin::CbcSolver</text>
</g>
<!-- CbcSolver&#45;&gt;Cbc -->
<g id="edge18" class="edge">
<title>CbcSolver&#45;&gt;Cbc</title>
<path fill="none" stroke="black" d="M333,-110.66C333,-123.45 333,-141.22 333,-156.14"/>
<polygon fill="black" stroke="black" points="329.5,-155.84 333,-165.84 336.5,-155.84 329.5,-155.84"/>
</g>
<!-- GLPK -->
<g id="node17" class="node">
<title>GLPK</title>
<path fill="royalblue" stroke="royalblue" d="M2597.25,-110.5C2597.25,-110.5 2534.75,-110.5 2534.75,-110.5 2528.75,-110.5 2522.75,-104.5 2522.75,-98.5 2522.75,-98.5 2522.75,-86.5 2522.75,-86.5 2522.75,-80.5 2528.75,-74.5 2534.75,-74.5 2534.75,-74.5 2597.25,-74.5 2597.25,-74.5 2603.25,-74.5 2609.25,-80.5 2609.25,-86.5 2609.25,-86.5 2609.25,-98.5 2609.25,-98.5 2609.25,-104.5 2603.25,-110.5 2597.25,-110.5"/>
<text text-anchor="middle" x="2566" y="-87.83" font-family="Times,serif" font-size="14.00">glpk::glpk</text>
</g>
<!-- HIGHS -->
<g id="node18" class="node">
<title>HIGHS</title>
<path fill="royalblue" stroke="royalblue" d="M2956.5,-110.5C2956.5,-110.5 2877.5,-110.5 2877.5,-110.5 2871.5,-110.5 2865.5,-104.5 2865.5,-98.5 2865.5,-98.5 2865.5,-86.5 2865.5,-86.5 2865.5,-80.5 2871.5,-74.5 2877.5,-74.5 2877.5,-74.5 2956.5,-74.5 2956.5,-74.5 2962.5,-74.5 2968.5,-80.5 2968.5,-86.5 2968.5,-86.5 2968.5,-98.5 2968.5,-98.5 2968.5,-104.5 2962.5,-110.5 2956.5,-110.5"/>
<text text-anchor="middle" x="2917" y="-87.83" font-family="Times,serif" font-size="14.00">highs::highs</text>
</g>
<!-- SPX -->
<g id="node19" class="node">
<title>SPX</title>
<path fill="royalblue" stroke="royalblue" d="M623.88,-203.75C623.88,-203.75 568.12,-203.75 568.12,-203.75 562.12,-203.75 556.12,-197.75 556.12,-191.75 556.12,-191.75 556.12,-179.75 556.12,-179.75 556.12,-173.75 562.12,-167.75 568.12,-167.75 568.12,-167.75 623.88,-167.75 623.88,-167.75 629.88,-167.75 635.88,-173.75 635.88,-179.75 635.88,-179.75 635.88,-191.75 635.88,-191.75 635.88,-197.75 629.88,-203.75 623.88,-203.75"/>
<text text-anchor="middle" x="596" y="-181.07" font-family="Times,serif" font-size="14.00">libsoplex</text>
</g>
<!-- SPX&#45;&gt;ZLIB -->
<g id="edge26" class="edge">
<title>SPX&#45;&gt;ZLIB</title>
<path fill="none" stroke="black" d="M602.4,-203.91C607.21,-216.83 613.91,-234.82 619.5,-249.83"/>
<polygon fill="black" stroke="black" points="616.22,-251.04 622.99,-259.18 622.78,-248.59 616.22,-251.04"/>
</g>
<!-- SCIP -->
<g id="node20" class="node">
<title>SCIP</title>
<path fill="royalblue" stroke="royalblue" d="M671,-110.5C671,-110.5 589,-110.5 589,-110.5 583,-110.5 577,-104.5 577,-98.5 577,-98.5 577,-86.5 577,-86.5 577,-80.5 583,-74.5 589,-74.5 589,-74.5 671,-74.5 671,-74.5 677,-74.5 683,-80.5 683,-86.5 683,-86.5 683,-98.5 683,-98.5 683,-104.5 677,-110.5 671,-110.5"/>
<text text-anchor="middle" x="630" y="-87.83" font-family="Times,serif" font-size="14.00">SCIP::libscip</text>
</g>
<!-- SCIP&#45;&gt;ZLIB -->
<g id="edge27" class="edge">
<title>SCIP&#45;&gt;ZLIB</title>
<path fill="none" stroke="black" d="M640.08,-110.87C643.64,-117.95 647.21,-126.38 649,-134.5 657.16,-171.5 654.95,-182.33 649,-219.75 647.41,-229.76 644.37,-240.38 641.18,-249.78"/>
<polygon fill="black" stroke="black" points="637.93,-248.49 637.82,-259.09 644.51,-250.87 637.93,-248.49"/>
</g>
<!-- SCIP&#45;&gt;SPX -->
<g id="edge19" class="edge">
<title>SCIP&#45;&gt;SPX</title>
<path fill="none" stroke="black" d="M623.6,-110.66C618.79,-123.58 612.09,-141.57 606.5,-156.58"/>
<polygon fill="black" stroke="black" points="603.22,-155.34 603.01,-165.93 609.78,-157.79 603.22,-155.34"/>
</g>
<!-- gtest -->
<g id="node21" class="node">
<title>gtest</title>
<path fill="royalblue" stroke="royalblue" d="M1081.5,-203.75C1081.5,-203.75 1002.5,-203.75 1002.5,-203.75 996.5,-203.75 990.5,-197.75 990.5,-191.75 990.5,-191.75 990.5,-179.75 990.5,-179.75 990.5,-173.75 996.5,-167.75 1002.5,-167.75 1002.5,-167.75 1081.5,-167.75 1081.5,-167.75 1087.5,-167.75 1093.5,-173.75 1093.5,-179.75 1093.5,-179.75 1093.5,-191.75 1093.5,-191.75 1093.5,-197.75 1087.5,-203.75 1081.5,-203.75"/>
<text text-anchor="middle" x="1042" y="-181.07" font-family="Times,serif" font-size="14.00">GTest::gtest</text>
</g>
<!-- gtest&#45;&gt;Absl -->
<g id="edge30" class="edge">
<title>gtest&#45;&gt;Absl</title>
<path fill="none" stroke="black" d="M1042.96,-203.96C1045.27,-229.3 1053.14,-276.68 1080,-305 1104.5,-330.83 1141.64,-345.32 1173.2,-353.4"/>
<polygon fill="black" stroke="black" points="1172.08,-356.73 1182.62,-355.64 1173.7,-349.92 1172.08,-356.73"/>
</g>
<!-- gtest&#45;&gt;Re2 -->
<g id="edge36" class="edge">
<title>gtest&#45;&gt;Re2</title>
<path fill="none" stroke="black" d="M1059.87,-203.91C1074.24,-217.72 1094.64,-237.31 1110.85,-252.88"/>
<polygon fill="black" stroke="black" points="1108.16,-255.15 1117.8,-259.55 1113.01,-250.1 1108.16,-255.15"/>
</g>
<!-- bench -->
<g id="node22" class="node">
<title>bench</title>
<path fill="royalblue" stroke="royalblue" d="M942,-110.5C942,-110.5 782,-110.5 782,-110.5 776,-110.5 770,-104.5 770,-98.5 770,-98.5 770,-86.5 770,-86.5 770,-80.5 776,-74.5 782,-74.5 782,-74.5 942,-74.5 942,-74.5 948,-74.5 954,-80.5 954,-86.5 954,-86.5 954,-98.5 954,-98.5 954,-104.5 948,-110.5 942,-110.5"/>
<text text-anchor="middle" x="862" y="-87.83" font-family="Times,serif" font-size="14.00">benchmark::benchmark</text>
</g>
<!-- bench&#45;&gt;gtest -->
<g id="edge21" class="edge">
<title>bench&#45;&gt;gtest</title>
<path fill="none" stroke="black" d="M896.28,-110.88C924.96,-125.42 966.1,-146.27 997.35,-162.12"/>
<polygon fill="black" stroke="black" points="995.69,-165.2 1006.19,-166.6 998.85,-158.95 995.69,-165.2"/>
</g>
<!-- fuzz -->
<g id="node23" class="node">
<title>fuzz</title>
<path fill="royalblue" stroke="royalblue" d="M1105.5,-110.5C1105.5,-110.5 990.5,-110.5 990.5,-110.5 984.5,-110.5 978.5,-104.5 978.5,-98.5 978.5,-98.5 978.5,-86.5 978.5,-86.5 978.5,-80.5 984.5,-74.5 990.5,-74.5 990.5,-74.5 1105.5,-74.5 1105.5,-74.5 1111.5,-74.5 1117.5,-80.5 1117.5,-86.5 1117.5,-86.5 1117.5,-98.5 1117.5,-98.5 1117.5,-104.5 1111.5,-110.5 1105.5,-110.5"/>
<text text-anchor="middle" x="1048" y="-87.83" font-family="Times,serif" font-size="14.00">fuzztest::fuzztest</text>
</g>
<!-- fuzz&#45;&gt;Absl -->
<g id="edge31" class="edge">
<title>fuzz&#45;&gt;Absl</title>
<path fill="none" stroke="black" d="M1117.88,-95.12C1233.5,-98.53 1454.29,-108.42 1478,-134.5 1552.16,-216.07 1382.39,-302.19 1289.1,-341.45"/>
<polygon fill="black" stroke="black" points="1287.97,-338.13 1280.07,-345.2 1290.65,-344.59 1287.97,-338.13"/>
</g>
<!-- fuzz&#45;&gt;Protobuf -->
<g id="edge33" class="edge">
<title>fuzz&#45;&gt;Protobuf</title>
<path fill="none" stroke="black" d="M1086.28,-110.91C1101.79,-118.07 1119.82,-126.54 1136,-134.5 1153.9,-143.3 1173.46,-153.35 1190.3,-162.14"/>
<polygon fill="black" stroke="black" points="1188.57,-165.19 1199.06,-166.72 1191.82,-158.98 1188.57,-165.19"/>
</g>
<!-- fuzz&#45;&gt;Re2 -->
<g id="edge37" class="edge">
<title>fuzz&#45;&gt;Re2</title>
<path fill="none" stroke="black" d="M1082.13,-110.85C1091.47,-117.12 1100.73,-125.04 1107,-134.5 1130.07,-169.35 1135.89,-218.53 1137.09,-249.32"/>
<polygon fill="black" stroke="black" points="1133.59,-249.11 1137.32,-259.02 1140.59,-248.94 1133.59,-249.11"/>
</g>
<!-- fuzz&#45;&gt;gtest -->
<g id="edge20" class="edge">
<title>fuzz&#45;&gt;gtest</title>
<path fill="none" stroke="black" d="M1046.87,-110.66C1046.03,-123.45 1044.86,-141.22 1043.88,-156.14"/>
<polygon fill="black" stroke="black" points="1040.41,-155.63 1043.24,-165.84 1047.39,-156.09 1040.41,-155.63"/>
</g>
<!-- Pybind11 -->
<g id="node24" class="node">
<title>Pybind11</title>
<path fill="royalblue" stroke="royalblue" d="M1828.25,-203.75C1828.25,-203.75 1693.75,-203.75 1693.75,-203.75 1687.75,-203.75 1681.75,-197.75 1681.75,-191.75 1681.75,-191.75 1681.75,-179.75 1681.75,-179.75 1681.75,-173.75 1687.75,-167.75 1693.75,-167.75 1693.75,-167.75 1828.25,-167.75 1828.25,-167.75 1834.25,-167.75 1840.25,-173.75 1840.25,-179.75 1840.25,-179.75 1840.25,-191.75 1840.25,-191.75 1840.25,-197.75 1834.25,-203.75 1828.25,-203.75"/>
<text text-anchor="middle" x="1761" y="-181.07" font-family="Times,serif" font-size="14.00">pybind11::pybind11</text>
</g>
<!-- Pybind11Absl -->
<g id="node25" class="node">
<title>Pybind11Absl</title>
<path fill="royalblue" stroke="royalblue" d="M1973.62,-110.5C1973.62,-110.5 1790.38,-110.5 1790.38,-110.5 1784.38,-110.5 1778.38,-104.5 1778.38,-98.5 1778.38,-98.5 1778.38,-86.5 1778.38,-86.5 1778.38,-80.5 1784.38,-74.5 1790.38,-74.5 1790.38,-74.5 1973.62,-74.5 1973.62,-74.5 1979.62,-74.5 1985.62,-80.5 1985.62,-86.5 1985.62,-86.5 1985.62,-98.5 1985.62,-98.5 1985.62,-104.5 1979.62,-110.5 1973.62,-110.5"/>
<text text-anchor="middle" x="1882" y="-87.83" font-family="Times,serif" font-size="14.00">pybind11::pybind11_abseil</text>
</g>
<!-- Pybind11Absl&#45;&gt;Absl -->
<g id="edge32" class="edge">
<title>Pybind11Absl&#45;&gt;Absl</title>
<path fill="none" stroke="black" d="M1828.8,-110.98C1809.25,-116.77 1786.81,-122.71 1766,-126.5 1723.88,-134.17 1710.15,-119.64 1670,-134.5 1548.64,-179.4 1550.3,-248.27 1434,-305 1388.93,-326.99 1334.03,-342.2 1293,-351.55"/>
<polygon fill="black" stroke="black" points="1292.3,-348.12 1283.3,-353.7 1293.82,-354.95 1292.3,-348.12"/>
</g>
<!-- Pybind11Absl&#45;&gt;Pybind11 -->
<g id="edge22" class="edge">
<title>Pybind11Absl&#45;&gt;Pybind11</title>
<path fill="none" stroke="black" d="M1858.96,-110.88C1840.29,-124.96 1813.77,-144.96 1793.03,-160.59"/>
<polygon fill="black" stroke="black" points="1791.04,-157.71 1785.17,-166.53 1795.26,-163.3 1791.04,-157.71"/>
</g>
<!-- Pybind11Protobuf -->
<g id="node26" class="node">
<title>Pybind11Protobuf</title>
<path fill="royalblue" stroke="royalblue" d="M1742.38,-110.5C1742.38,-110.5 1539.62,-110.5 1539.62,-110.5 1533.62,-110.5 1527.62,-104.5 1527.62,-98.5 1527.62,-98.5 1527.62,-86.5 1527.62,-86.5 1527.62,-80.5 1533.62,-74.5 1539.62,-74.5 1539.62,-74.5 1742.38,-74.5 1742.38,-74.5 1748.38,-74.5 1754.38,-80.5 1754.38,-86.5 1754.38,-86.5 1754.38,-98.5 1754.38,-98.5 1754.38,-104.5 1748.38,-110.5 1742.38,-110.5"/>
<text text-anchor="middle" x="1641" y="-87.83" font-family="Times,serif" font-size="14.00">pybind11::pybind11_protobuf</text>
</g>
<!-- Pybind11Protobuf&#45;&gt;Protobuf -->
<g id="edge34" class="edge">
<title>Pybind11Protobuf&#45;&gt;Protobuf</title>
<path fill="none" stroke="black" d="M1527.26,-98.07C1466.11,-103.04 1390.1,-113.32 1325,-134.5 1305.36,-140.89 1285.06,-151.48 1268.54,-161.3"/>
<polygon fill="black" stroke="black" points="1266.78,-158.28 1260.08,-166.48 1270.43,-164.25 1266.78,-158.28"/>
</g>
<!-- Pybind11Protobuf&#45;&gt;Pybind11 -->
<g id="edge23" class="edge">
<title>Pybind11Protobuf&#45;&gt;Pybind11</title>
<path fill="none" stroke="black" d="M1663.85,-110.88C1682.37,-124.96 1708.67,-144.96 1729.23,-160.59"/>
<polygon fill="black" stroke="black" points="1726.95,-163.25 1737.03,-166.52 1731.19,-157.68 1726.95,-163.25"/>
</g>
</g>
</svg>
