<?xml version="1.0" encoding="UTF-8" standalone="no"?>
<!DOCTYPE svg PUBLIC "-//W3C//DTD SVG 1.1//EN"
 "http://www.w3.org/Graphics/SVG/1.1/DTD/svg11.dtd">
<!-- Generated by graphviz version 2.42.4 (0)
 -->
<!-- Title: CMakeDeps Pages: 1 -->
<svg width="1263pt" height="667pt"
 viewBox="0.00 0.00 1263.00 667.00" xmlns="http://www.w3.org/2000/svg" xmlns:xlink="http://www.w3.org/1999/xlink">
<g id="graph0" class="graph" transform="scale(1 1) rotate(0) translate(4 663)">
<title>CMakeDeps</title>
<polygon fill="white" stroke="transparent" points="-4,4 -4,-663 1259,-663 1259,4 -4,4"/>
<g id="clust1" class="cluster">
<title>clusterZLIB</title>
<polygon fill="none" stroke="royalblue" points="657,-213 657,-288 839,-288 839,-213 657,-213"/>
<text text-anchor="middle" x="748" y="-272.8" font-family="Times,serif" font-size="14.00">madler/zlib.git + cmake patch</text>
</g>
<g id="clust2" class="cluster">
<title>clusterAbsl</title>
<polygon fill="none" stroke="royalblue" points="495,-296 495,-371 620,-371 620,-296 495,-296"/>
<text text-anchor="middle" x="557.5" y="-355.8" font-family="Times,serif" font-size="14.00">abseil/abseil&#45;cpp.git</text>
</g>
<g id="clust3" class="cluster">
<title>clusterProtobuf</title>
<polygon fill="none" stroke="royalblue" points="384,-99 384,-174 655,-174 655,-99 384,-99"/>
<text text-anchor="middle" x="519.5" y="-158.8" font-family="Times,serif" font-size="14.00">protocolbuffers/protobuf.git</text>
</g>
<g id="clust4" class="cluster">
<title>clusterRe2</title>
<polygon fill="none" stroke="royalblue" points="547,-213 547,-288 639,-288 639,-213 547,-213"/>
<text text-anchor="middle" x="593" y="-272.8" font-family="Times,serif" font-size="14.00">google/re2.git</text>
</g>
<g id="clust5" class="cluster">
<title>clusterEigen3</title>
<polygon fill="none" stroke="royalblue" points="384,-545 384,-620 495,-620 495,-545 384,-545"/>
<text text-anchor="middle" x="439.5" y="-604.8" font-family="Times,serif" font-size="14.00">libeigen/eigen.git</text>
</g>
<g id="clust6" class="cluster">
<title>clusterPybind11</title>
<polygon fill="none" stroke="royalblue" points="503,-545 503,-620 645,-620 645,-545 503,-545"/>
<text text-anchor="middle" x="574" y="-604.8" font-family="Times,serif" font-size="14.00">pybind/pybind11.git</text>
</g>
<g id="clust7" class="cluster">
<title>clusterCoinOR</title>
<polygon fill="none" stroke="royalblue" points="8,-8 8,-651 376,-651 376,-8 8,-8"/>
<text text-anchor="middle" x="192" y="-635.8" font-family="Times,serif" font-size="14.00">&#45;DUSE_COINOR=ON AND &#45;DBUILD_DEPS=ON</text>
</g>
<g id="clust8" class="cluster">
<title>clusterCoinUtils</title>
<polygon fill="none" stroke="royalblue" points="77,-545 77,-620 204,-620 204,-545 77,-545"/>
<text text-anchor="middle" x="140.5" y="-604.8" font-family="Times,serif" font-size="14.00">Mizux/CoinUtils.git</text>
</g>
<g id="clust9" class="cluster">
<title>clusterOsi</title>
<polygon fill="none" stroke="royalblue" points="66,-454 66,-529 159,-529 159,-454 66,-454"/>
<text text-anchor="middle" x="112.5" y="-513.8" font-family="Times,serif" font-size="14.00">Mizux/Osi.git</text>
</g>
<g id="clust10" class="cluster">
<title>clusterClp</title>
<polygon fill="none" stroke="royalblue" points="108,-296 108,-446 336,-446 336,-296 108,-296"/>
<text text-anchor="middle" x="222" y="-430.8" font-family="Times,serif" font-size="14.00">Mizux/Clp.git</text>
</g>
<g id="clust11" class="cluster">
<title>clusterCgl</title>
<polygon fill="none" stroke="royalblue" points="87,-213 87,-288 181,-288 181,-213 87,-213"/>
<text text-anchor="middle" x="134" y="-272.8" font-family="Times,serif" font-size="14.00">Mizux/Cgl.git</text>
</g>
<g id="clust12" class="cluster">
<title>clusterCbc</title>
<polygon fill="none" stroke="royalblue" points="46,-16 46,-174 278,-174 278,-16 46,-16"/>
<text text-anchor="middle" x="162" y="-158.8" font-family="Times,serif" font-size="14.00">Mizux/Cbc.git</text>
</g>
<g id="clust13" class="cluster">
<title>clusterGLPKSolver</title>
<polygon fill="none" stroke="royalblue" points="653,-537 653,-651 940,-651 940,-537 653,-537"/>
<text text-anchor="middle" x="796.5" y="-635.8" font-family="Times,serif" font-size="14.00">&#45;DUSE_GLPK=ON AND &#45;DBUILD_GLPK=ON</text>
</g>
<g id="clust14" class="cluster">
<title>clusterGLPK</title>
<polygon fill="none" stroke="royalblue" points="741,-545 741,-620 851,-620 851,-545 741,-545"/>
<text text-anchor="middle" x="796" y="-604.8" font-family="Times,serif" font-size="14.00">Mizux/GLPK.git</text>
</g>
<g id="clust15" class="cluster">
<title>clusterHIGHSSolver</title>
<polygon fill="none" stroke="royalblue" points="948,-537 948,-651 1247,-651 1247,-537 948,-537"/>
<text text-anchor="middle" x="1097.5" y="-635.8" font-family="Times,serif" font-size="14.00">&#45;DUSE_HIGHS=ON AND &#45;DBUILD_HIGHS=ON</text>
</g>
<g id="clust16" class="cluster">
<title>clusterHIGHS</title>
<polygon fill="none" stroke="royalblue" points="1023,-545 1023,-620 1172,-620 1172,-545 1023,-545"/>
<text text-anchor="middle" x="1097.5" y="-604.8" font-family="Times,serif" font-size="14.00">ERGO&#45;Code/HIGHS.git</text>
</g>
<g id="clust17" class="cluster">
<title>clusterSCIPSolver</title>
<polygon fill="none" stroke="royalblue" points="663,-8 663,-205 937,-205 937,-8 663,-8"/>
<text text-anchor="middle" x="800" y="-189.8" font-family="Times,serif" font-size="14.00">&#45;DUSE_SCIP=ON AND &#45;DBUILD_SCIP=ON</text>
</g>
<g id="clust18" class="cluster">
<title>clusterSoplex</title>
<polygon fill="none" stroke="royalblue" points="671,-99 671,-174 784,-174 784,-99 671,-99"/>
<text text-anchor="middle" x="727.5" y="-158.8" font-family="Times,serif" font-size="14.00">scipopt/soplex.git</text>
</g>
<g id="clust19" class="cluster">
<title>clusterSCIP</title>
<polygon fill="none" stroke="royalblue" points="710,-16 710,-91 814,-91 814,-16 710,-16"/>
<text text-anchor="middle" x="762" y="-75.8" font-family="Times,serif" font-size="14.00">scipopt/scip.git</text>
</g>
<!-- ZLIB -->
<g id="node1" class="node">
<title>ZLIB</title>
<path fill="royalblue" stroke="royalblue" d="M742,-257C742,-257 682,-257 682,-257 676,-257 670,-251 670,-245 670,-245 670,-233 670,-233 670,-227 676,-221 682,-221 682,-221 742,-221 742,-221 748,-221 754,-227 754,-233 754,-233 754,-245 754,-245 754,-251 748,-257 742,-257"/>
<text text-anchor="middle" x="712" y="-235.3" font-family="Times,serif" font-size="14.00">ZLIB::ZLIB</text>
</g>
<!-- Protobuf -->
<g id="node3" class="node">
<title>Protobuf</title>
<path fill="royalblue" stroke="royalblue" d="M634.5,-143C634.5,-143 527.5,-143 527.5,-143 521.5,-143 515.5,-137 515.5,-131 515.5,-131 515.5,-119 515.5,-119 515.5,-113 521.5,-107 527.5,-107 527.5,-107 634.5,-107 634.5,-107 640.5,-107 646.5,-113 646.5,-119 646.5,-119 646.5,-131 646.5,-131 646.5,-137 640.5,-143 634.5,-143"/>
<text text-anchor="middle" x="581" y="-121.3" font-family="Times,serif" font-size="14.00">protobuf::libprotobuf</text>
</g>
<!-- ZLIB&#45;&gt;Protobuf -->
<g id="edge20" class="edge">
<title>ZLIB&#45;&gt;Protobuf</title>
<path fill="none" stroke="black" d="M687.34,-220.67C680.63,-215.75 673.44,-210.29 667,-205 645.67,-187.48 622.71,-166.25 605.88,-150.21"/>
<polygon fill="black" stroke="black" points="608.24,-147.63 598.6,-143.24 603.4,-152.69 608.24,-147.63"/>
</g>
<!-- Cbc -->
<g id="node14" class="node">
<title>Cbc</title>
<path fill="royalblue" stroke="royalblue" d="M155,-143C155,-143 107,-143 107,-143 101,-143 95,-137 95,-131 95,-131 95,-119 95,-119 95,-113 101,-107 107,-107 107,-107 155,-107 155,-107 161,-107 167,-113 167,-119 167,-119 167,-131 167,-131 167,-137 161,-143 155,-143"/>
<text text-anchor="middle" x="131" y="-121.3" font-family="Times,serif" font-size="14.00">Coin::Cbc</text>
</g>
<!-- ZLIB&#45;&gt;Cbc -->
<g id="edge21" class="edge">
<title>ZLIB&#45;&gt;Cbc</title>
<path fill="none" stroke="black" d="M671.37,-220.87C662.19,-217.68 652.39,-214.8 643,-213 528.14,-191.03 495.28,-224.65 380,-205 307.07,-192.57 225.98,-163.9 176.74,-144.74"/>
<polygon fill="black" stroke="black" points="177.92,-141.44 167.33,-141.04 175.36,-147.96 177.92,-141.44"/>
</g>
<!-- SPX -->
<g id="node19" class="node">
<title>SPX</title>
<path fill="royalblue" stroke="royalblue" d="M738,-143C738,-143 696,-143 696,-143 690,-143 684,-137 684,-131 684,-131 684,-119 684,-119 684,-113 690,-107 696,-107 696,-107 738,-107 738,-107 744,-107 750,-113 750,-119 750,-119 750,-131 750,-131 750,-137 744,-143 738,-143"/>
<text text-anchor="middle" x="717" y="-121.3" font-family="Times,serif" font-size="14.00">libsoplex</text>
</g>
<!-- ZLIB&#45;&gt;SPX -->
<g id="edge22" class="edge">
<title>ZLIB&#45;&gt;SPX</title>
<path fill="none" stroke="black" d="M712.76,-220.99C713.56,-203.06 714.83,-174.56 715.77,-153.44"/>
<polygon fill="black" stroke="black" points="719.28,-153.32 716.23,-143.17 712.29,-153 719.28,-153.32"/>
</g>
<!-- SCIP -->
<g id="node20" class="node">
<title>SCIP</title>
<path fill="royalblue" stroke="royalblue" d="M794.5,-60C794.5,-60 729.5,-60 729.5,-60 723.5,-60 717.5,-54 717.5,-48 717.5,-48 717.5,-36 717.5,-36 717.5,-30 723.5,-24 729.5,-24 729.5,-24 794.5,-24 794.5,-24 800.5,-24 806.5,-30 806.5,-36 806.5,-36 806.5,-48 806.5,-48 806.5,-54 800.5,-60 794.5,-60"/>
<text text-anchor="middle" x="762" y="-38.3" font-family="Times,serif" font-size="14.00">SCIP::libscip</text>
</g>
<!-- ZLIB&#45;&gt;SCIP -->
<g id="edge23" class="edge">
<title>ZLIB&#45;&gt;SCIP</title>
<path fill="none" stroke="black" d="M754.28,-229.28C767.32,-224.39 780.27,-216.79 788,-205 815.16,-163.6 793.44,-103.72 776.71,-69.55"/>
<polygon fill="black" stroke="black" points="779.61,-67.55 771.95,-60.23 773.38,-70.73 779.61,-67.55"/>
</g>
<!-- Absl -->
<g id="node2" class="node">
<title>Absl</title>
<path fill="royalblue" stroke="royalblue" d="M585.5,-340C585.5,-340 528.5,-340 528.5,-340 522.5,-340 516.5,-334 516.5,-328 516.5,-328 516.5,-316 516.5,-316 516.5,-310 522.5,-304 528.5,-304 528.5,-304 585.5,-304 585.5,-304 591.5,-304 597.5,-310 597.5,-316 597.5,-316 597.5,-328 597.5,-328 597.5,-334 591.5,-340 585.5,-340"/>
<text text-anchor="middle" x="557" y="-318.3" font-family="Times,serif" font-size="14.00">absl::absl_*</text>
</g>
<!-- Absl&#45;&gt;Protobuf -->
<g id="edge25" class="edge">
<title>Absl&#45;&gt;Protobuf</title>
<path fill="none" stroke="black" d="M548.24,-303.95C546.09,-298.94 544.09,-293.37 543,-288 536.36,-255.34 536.18,-245.63 543,-213 547.45,-191.69 557.42,-169.21 566.04,-152.44"/>
<polygon fill="black" stroke="black" points="569.3,-153.75 570.9,-143.28 563.12,-150.47 569.3,-153.75"/>
</g>
<!-- Re2 -->
<g id="node5" class="node">
<title>Re2</title>
<path fill="royalblue" stroke="royalblue" d="M603.5,-257C603.5,-257 568.5,-257 568.5,-257 562.5,-257 556.5,-251 556.5,-245 556.5,-245 556.5,-233 556.5,-233 556.5,-227 562.5,-221 568.5,-221 568.5,-221 603.5,-221 603.5,-221 609.5,-221 615.5,-227 615.5,-233 615.5,-233 615.5,-245 615.5,-245 615.5,-251 609.5,-257 603.5,-257"/>
<text text-anchor="middle" x="586" y="-235.3" font-family="Times,serif" font-size="14.00">re2::re2</text>
</g>
<!-- Absl&#45;&gt;Re2 -->
<g id="edge24" class="edge">
<title>Absl&#45;&gt;Re2</title>
<path fill="none" stroke="black" d="M563.15,-303.82C566.99,-293.08 572.03,-279.03 576.39,-266.84"/>
<polygon fill="black" stroke="black" points="579.78,-267.75 579.86,-257.15 573.19,-265.39 579.78,-267.75"/>
</g>
<!-- Protoc -->
<g id="node4" class="node">
<title>Protoc</title>
<polygon fill="royalblue" stroke="royalblue" points="497.5,-143 392.5,-143 392.5,-139 388.5,-139 388.5,-135 392.5,-135 392.5,-115 388.5,-115 388.5,-111 392.5,-111 392.5,-107 497.5,-107 497.5,-143"/>
<polyline fill="none" stroke="royalblue" points="392.5,-139 396.5,-139 396.5,-135 392.5,-135 "/>
<polyline fill="none" stroke="royalblue" points="392.5,-115 396.5,-115 396.5,-111 392.5,-111 "/>
<text text-anchor="middle" x="445" y="-121.3" font-family="Times,serif" font-size="14.00">protobuf::protoc</text>
</g>
<!-- Re2&#45;&gt;Protobuf -->
<g id="edge26" class="edge">
<title>Re2&#45;&gt;Protobuf</title>
<path fill="none" stroke="black" d="M585.24,-220.99C584.44,-203.06 583.17,-174.56 582.23,-153.44"/>
<polygon fill="black" stroke="black" points="585.71,-153 581.77,-143.17 578.72,-153.32 585.71,-153"/>
</g>
<!-- Eigen3 -->
<g id="node6" class="node">
<title>Eigen3</title>
<path fill="royalblue" stroke="royalblue" d="M473,-589C473,-589 405,-589 405,-589 399,-589 393,-583 393,-577 393,-577 393,-565 393,-565 393,-559 399,-553 405,-553 405,-553 473,-553 473,-553 479,-553 485,-559 485,-565 485,-565 485,-577 485,-577 485,-583 479,-589 473,-589"/>
<text text-anchor="middle" x="439" y="-567.3" font-family="Times,serif" font-size="14.00">Eigen3::eigen</text>
</g>
<!-- Pybind11 -->
<g id="node7" class="node">
<title>Pybind11</title>
<path fill="royalblue" stroke="royalblue" d="M625,-589C625,-589 523,-589 523,-589 517,-589 511,-583 511,-577 511,-577 511,-565 511,-565 511,-559 517,-553 523,-553 523,-553 625,-553 625,-553 631,-553 637,-559 637,-565 637,-565 637,-577 637,-577 637,-583 631,-589 625,-589"/>
<text text-anchor="middle" x="574" y="-567.3" font-family="Times,serif" font-size="14.00">pybind11::pybind11</text>
</g>
<!-- CoinUtils -->
<g id="node8" class="node">
<title>CoinUtils</title>
<path fill="royalblue" stroke="royalblue" d="M179.5,-589C179.5,-589 100.5,-589 100.5,-589 94.5,-589 88.5,-583 88.5,-577 88.5,-577 88.5,-565 88.5,-565 88.5,-559 94.5,-553 100.5,-553 100.5,-553 179.5,-553 179.5,-553 185.5,-553 191.5,-559 191.5,-565 191.5,-565 191.5,-577 191.5,-577 191.5,-583 185.5,-589 179.5,-589"/>
<text text-anchor="middle" x="140" y="-567.3" font-family="Times,serif" font-size="14.00">Coin::CoinUtils</text>
</g>
<!-- Osi -->
<g id="node9" class="node">
<title>Osi</title>
<path fill="royalblue" stroke="royalblue" d="M134.5,-498C134.5,-498 89.5,-498 89.5,-498 83.5,-498 77.5,-492 77.5,-486 77.5,-486 77.5,-474 77.5,-474 77.5,-468 83.5,-462 89.5,-462 89.5,-462 134.5,-462 134.5,-462 140.5,-462 146.5,-468 146.5,-474 146.5,-474 146.5,-486 146.5,-486 146.5,-492 140.5,-498 134.5,-498"/>
<text text-anchor="middle" x="112" y="-476.3" font-family="Times,serif" font-size="14.00">Coin::Osi</text>
</g>
<!-- CoinUtils&#45;&gt;Osi -->
<g id="edge1" class="edge">
<title>CoinUtils&#45;&gt;Osi</title>
<path fill="none" stroke="black" d="M134.6,-552.84C130.57,-540.04 124.99,-522.3 120.39,-507.65"/>
<polygon fill="black" stroke="black" points="123.72,-506.6 117.38,-498.11 117.04,-508.7 123.72,-506.6"/>
</g>
<!-- Clp -->
<g id="node10" class="node">
<title>Clp</title>
<path fill="royalblue" stroke="royalblue" d="M245,-415C245,-415 199,-415 199,-415 193,-415 187,-409 187,-403 187,-403 187,-391 187,-391 187,-385 193,-379 199,-379 199,-379 245,-379 245,-379 251,-379 257,-385 257,-391 257,-391 257,-403 257,-403 257,-409 251,-415 245,-415"/>
<text text-anchor="middle" x="222" y="-393.3" font-family="Times,serif" font-size="14.00">Coin::Clp</text>
</g>
<!-- CoinUtils&#45;&gt;Clp -->
<g id="edge2" class="edge">
<title>CoinUtils&#45;&gt;Clp</title>
<path fill="none" stroke="black" d="M155.77,-552.93C161.72,-545.89 168.21,-537.42 173,-529 192.29,-495.14 206.65,-452.24 214.68,-424.95"/>
<polygon fill="black" stroke="black" points="218.06,-425.89 217.45,-415.31 211.33,-423.96 218.06,-425.89"/>
</g>
<!-- OsiClp -->
<g id="node11" class="node">
<title>OsiClp</title>
<path fill="royalblue" stroke="royalblue" d="M192.5,-340C192.5,-340 127.5,-340 127.5,-340 121.5,-340 115.5,-334 115.5,-328 115.5,-328 115.5,-316 115.5,-316 115.5,-310 121.5,-304 127.5,-304 127.5,-304 192.5,-304 192.5,-304 198.5,-304 204.5,-310 204.5,-316 204.5,-316 204.5,-328 204.5,-328 204.5,-334 198.5,-340 192.5,-340"/>
<text text-anchor="middle" x="160" y="-318.3" font-family="Times,serif" font-size="14.00">Coin::OsiClp</text>
</g>
<!-- CoinUtils&#45;&gt;OsiClp -->
<g id="edge4" class="edge">
<title>CoinUtils&#45;&gt;OsiClp</title>
<path fill="none" stroke="black" d="M152.18,-552.89C156.49,-545.84 160.81,-537.37 163,-529 179.28,-466.71 171.18,-390.17 164.94,-350.22"/>
<polygon fill="black" stroke="black" points="168.37,-349.49 163.29,-340.19 161.46,-350.63 168.37,-349.49"/>
</g>
<!-- Cgl -->
<g id="node13" class="node">
<title>Cgl</title>
<path fill="royalblue" stroke="royalblue" d="M154,-257C154,-257 108,-257 108,-257 102,-257 96,-251 96,-245 96,-245 96,-233 96,-233 96,-227 102,-221 108,-221 108,-221 154,-221 154,-221 160,-221 166,-227 166,-233 166,-233 166,-245 166,-245 166,-251 160,-257 154,-257"/>
<text text-anchor="middle" x="131" y="-235.3" font-family="Times,serif" font-size="14.00">Coin::Cgl</text>
</g>
<!-- CoinUtils&#45;&gt;Cgl -->
<g id="edge8" class="edge">
<title>CoinUtils&#45;&gt;Cgl</title>
<path fill="none" stroke="black" d="M88.26,-552.91C77.82,-547.01 68.17,-539.21 62,-529 34.92,-484.18 80.16,-324.17 92,-296 96.57,-285.13 103.48,-274.25 110.22,-265"/>
<polygon fill="black" stroke="black" points="113.02,-267.1 116.3,-257.03 107.45,-262.86 113.02,-267.1"/>
</g>
<!-- CoinUtils&#45;&gt;Cbc -->
<g id="edge11" class="edge">
<title>CoinUtils&#45;&gt;Cbc</title>
<path fill="none" stroke="black" d="M88.03,-555.61C73.96,-549.46 59.9,-540.87 50,-529 11.55,-482.89 17,-458.04 17,-398 17,-398 17,-398 17,-321 17,-251.55 71.56,-184.86 105.19,-150.36"/>
<polygon fill="black" stroke="black" points="107.85,-152.65 112.43,-143.09 102.89,-147.71 107.85,-152.65"/>
</g>
<!-- OsiCbc -->
<g id="node15" class="node">
<title>OsiCbc</title>
<path fill="royalblue" stroke="royalblue" d="M133.5,-60C133.5,-60 66.5,-60 66.5,-60 60.5,-60 54.5,-54 54.5,-48 54.5,-48 54.5,-36 54.5,-36 54.5,-30 60.5,-24 66.5,-24 66.5,-24 133.5,-24 133.5,-24 139.5,-24 145.5,-30 145.5,-36 145.5,-36 145.5,-48 145.5,-48 145.5,-54 139.5,-60 133.5,-60"/>
<text text-anchor="middle" x="100" y="-38.3" font-family="Times,serif" font-size="14.00">Coin::OsiCbc</text>
</g>
<!-- CoinUtils&#45;&gt;OsiCbc -->
<g id="edge15" class="edge">
<title>CoinUtils&#45;&gt;OsiCbc</title>
<path fill="none" stroke="black" d="M191.51,-555.97C258.48,-534.24 367,-485.52 367,-398 367,-398 367,-398 367,-238 367,-133.01 268.69,-148.31 176,-99 166.81,-94.11 162.94,-96.33 154,-91 143.17,-84.54 132.51,-75.75 123.57,-67.46"/>
<polygon fill="black" stroke="black" points="125.83,-64.77 116.19,-60.37 120.98,-69.82 125.83,-64.77"/>
</g>
<!-- Osi&#45;&gt;Clp -->
<g id="edge3" class="edge">
<title>Osi&#45;&gt;Clp</title>
<path fill="none" stroke="black" d="M135.33,-461.82C151.37,-450.01 172.87,-434.18 190.44,-421.24"/>
<polygon fill="black" stroke="black" points="192.73,-423.9 198.71,-415.15 188.58,-418.26 192.73,-423.9"/>
</g>
<!-- Osi&#45;&gt;OsiClp -->
<g id="edge5" class="edge">
<title>Osi&#45;&gt;OsiClp</title>
<path fill="none" stroke="black" d="M117.32,-461.71C125.65,-434.65 141.82,-382.09 151.69,-350.01"/>
<polygon fill="black" stroke="black" points="155.06,-350.96 154.66,-340.37 148.37,-348.9 155.06,-350.96"/>
</g>
<!-- Osi&#45;&gt;Cgl -->
<g id="edge9" class="edge">
<title>Osi&#45;&gt;Cgl</title>
<path fill="none" stroke="black" d="M106.98,-461.67C105.75,-456.66 104.62,-451.15 104,-446 96.09,-379.8 89.15,-360.99 104,-296 106.32,-285.85 110.73,-275.39 115.32,-266.31"/>
<polygon fill="black" stroke="black" points="118.45,-267.87 120.09,-257.4 112.28,-264.56 118.45,-267.87"/>
</g>
<!-- Osi&#45;&gt;Cbc -->
<g id="edge12" class="edge">
<title>Osi&#45;&gt;Cbc</title>
<path fill="none" stroke="black" d="M100.16,-461.87C97.32,-456.95 94.64,-451.44 93,-446 63.08,-346.76 57.15,-313.37 83,-213 88.7,-190.87 101.35,-168.35 112.24,-151.76"/>
<polygon fill="black" stroke="black" points="115.33,-153.44 118.05,-143.2 109.54,-149.51 115.33,-153.44"/>
</g>
<!-- Osi&#45;&gt;OsiCbc -->
<g id="edge16" class="edge">
<title>Osi&#45;&gt;OsiCbc</title>
<path fill="none" stroke="black" d="M85.78,-461.96C80.25,-457.35 74.91,-451.96 71,-446 39.85,-398.6 37,-379.72 37,-323 37,-323 37,-323 37,-238 37,-174.97 67.17,-105.79 85.76,-69.15"/>
<polygon fill="black" stroke="black" points="88.93,-70.63 90.43,-60.14 82.72,-67.41 88.93,-70.63"/>
</g>
<!-- Clp&#45;&gt;OsiClp -->
<g id="edge6" class="edge">
<title>Clp&#45;&gt;OsiClp</title>
<path fill="none" stroke="black" d="M207.31,-378.7C199.51,-369.52 189.79,-358.07 181.19,-347.94"/>
<polygon fill="black" stroke="black" points="183.73,-345.53 174.59,-340.18 178.39,-350.06 183.73,-345.53"/>
</g>
<!-- ClpSolver -->
<g id="node12" class="node">
<title>ClpSolver</title>
<path fill="royalblue" stroke="royalblue" d="M315.5,-340C315.5,-340 234.5,-340 234.5,-340 228.5,-340 222.5,-334 222.5,-328 222.5,-328 222.5,-316 222.5,-316 222.5,-310 228.5,-304 234.5,-304 234.5,-304 315.5,-304 315.5,-304 321.5,-304 327.5,-310 327.5,-316 327.5,-316 327.5,-328 327.5,-328 327.5,-334 321.5,-340 315.5,-340"/>
<text text-anchor="middle" x="275" y="-318.3" font-family="Times,serif" font-size="14.00">Coin::ClpSolver</text>
</g>
<!-- Clp&#45;&gt;ClpSolver -->
<g id="edge7" class="edge">
<title>Clp&#45;&gt;ClpSolver</title>
<path fill="none" stroke="black" d="M234.56,-378.7C241.09,-369.7 249.21,-358.52 256.45,-348.55"/>
<polygon fill="black" stroke="black" points="259.49,-350.32 262.53,-340.18 253.82,-346.21 259.49,-350.32"/>
</g>
<!-- Clp&#45;&gt;Cbc -->
<g id="edge13" class="edge">
<title>Clp&#45;&gt;Cbc</title>
<path fill="none" stroke="black" d="M257.21,-393.05C286.95,-389.73 326.22,-383.16 336,-371 356.89,-345.03 350.17,-326.17 336,-296 303.15,-226.07 225.84,-175 176.11,-147.97"/>
<polygon fill="black" stroke="black" points="177.63,-144.81 167.16,-143.2 174.34,-150.99 177.63,-144.81"/>
</g>
<!-- OsiClp&#45;&gt;Cgl -->
<g id="edge10" class="edge">
<title>OsiClp&#45;&gt;Cgl</title>
<path fill="none" stroke="black" d="M153.85,-303.82C150.01,-293.08 144.97,-279.03 140.61,-266.84"/>
<polygon fill="black" stroke="black" points="143.81,-265.39 137.14,-257.15 137.22,-267.75 143.81,-265.39"/>
</g>
<!-- Cgl&#45;&gt;Cbc -->
<g id="edge14" class="edge">
<title>Cgl&#45;&gt;Cbc</title>
<path fill="none" stroke="black" d="M131,-220.99C131,-203.06 131,-174.56 131,-153.44"/>
<polygon fill="black" stroke="black" points="134.5,-153.17 131,-143.17 127.5,-153.17 134.5,-153.17"/>
</g>
<!-- Cbc&#45;&gt;OsiCbc -->
<g id="edge17" class="edge">
<title>Cbc&#45;&gt;OsiCbc</title>
<path fill="none" stroke="black" d="M124.43,-106.82C120.32,-96.08 114.94,-82.03 110.27,-69.84"/>
<polygon fill="black" stroke="black" points="113.41,-68.24 106.56,-60.15 106.87,-70.74 113.41,-68.24"/>
</g>
<!-- CbcSolver -->
<g id="node16" class="node">
<title>CbcSolver</title>
<path fill="royalblue" stroke="royalblue" d="M258.5,-60C258.5,-60 175.5,-60 175.5,-60 169.5,-60 163.5,-54 163.5,-48 163.5,-48 163.5,-36 163.5,-36 163.5,-30 169.5,-24 175.5,-24 175.5,-24 258.5,-24 258.5,-24 264.5,-24 270.5,-30 270.5,-36 270.5,-36 270.5,-48 270.5,-48 270.5,-54 264.5,-60 258.5,-60"/>
<text text-anchor="middle" x="217" y="-38.3" font-family="Times,serif" font-size="14.00">Coin::CbcSolver</text>
</g>
<!-- Cbc&#45;&gt;CbcSolver -->
<g id="edge18" class="edge">
<title>Cbc&#45;&gt;CbcSolver</title>
<path fill="none" stroke="black" d="M149.24,-106.82C161.44,-95.33 177.67,-80.04 191.19,-67.31"/>
<polygon fill="black" stroke="black" points="193.91,-69.56 198.79,-60.15 189.11,-64.46 193.91,-69.56"/>
</g>
<!-- GLPK -->
<g id="node17" class="node">
<title>GLPK</title>
<path fill="royalblue" stroke="royalblue" d="M820,-589C820,-589 772,-589 772,-589 766,-589 760,-583 760,-577 760,-577 760,-565 760,-565 760,-559 766,-553 772,-553 772,-553 820,-553 820,-553 826,-553 832,-559 832,-565 832,-565 832,-577 832,-577 832,-583 826,-589 820,-589"/>
<text text-anchor="middle" x="796" y="-567.3" font-family="Times,serif" font-size="14.00">glpk::glpk</text>
</g>
<!-- HIGHS -->
<g id="node18" class="node">
<title>HIGHS</title>
<path fill="royalblue" stroke="royalblue" d="M1126.5,-589C1126.5,-589 1067.5,-589 1067.5,-589 1061.5,-589 1055.5,-583 1055.5,-577 1055.5,-577 1055.5,-565 1055.5,-565 1055.5,-559 1061.5,-553 1067.5,-553 1067.5,-553 1126.5,-553 1126.5,-553 1132.5,-553 1138.5,-559 1138.5,-565 1138.5,-565 1138.5,-577 1138.5,-577 1138.5,-583 1132.5,-589 1126.5,-589"/>
<text text-anchor="middle" x="1097" y="-567.3" font-family="Times,serif" font-size="14.00">highs::highs</text>
</g>
<!-- SPX&#45;&gt;SCIP -->
<g id="edge19" class="edge">
<title>SPX&#45;&gt;SCIP</title>
<path fill="none" stroke="black" d="M726.54,-106.82C732.63,-95.87 740.63,-81.46 747.5,-69.11"/>
<polygon fill="black" stroke="black" points="750.67,-70.59 752.47,-60.15 744.55,-67.2 750.67,-70.59"/>
</g>
</g>
</svg>
