<?xml version="1.0" encoding="UTF-8" standalone="no"?>
<!DOCTYPE svg PUBLIC "-//W3C//DTD SVG 1.1//EN"
 "http://www.w3.org/Graphics/SVG/1.1/DTD/svg11.dtd">
<!-- Generated by graphviz version 2.43.0 (0)
 -->
<!-- Title: CMakeDeps Pages: 1 -->
<svg width="1743pt" height="622pt"
 viewBox="0.00 0.00 1743.00 622.00" xmlns="http://www.w3.org/2000/svg" xmlns:xlink="http://www.w3.org/1999/xlink">
<g id="graph0" class="graph" transform="scale(1 1) rotate(0) translate(4 618)">
<title>CMakeDeps</title>
<polygon fill="white" stroke="transparent" points="-4,4 -4,-618 1739,-618 1739,4 -4,4"/>
<g id="clust1" class="cluster">
<title>clusterZLIB</title>
<polygon fill="none" stroke="royalblue" points="205,-171 205,-246 387,-246 387,-171 205,-171"/>
<text text-anchor="middle" x="296" y="-230.8" font-family="Times,serif" font-size="14.00">madler/zlib.git + cmake patch</text>
</g>
<g id="clust2" class="cluster">
<title>clusterAbsl</title>
<polygon fill="none" stroke="royalblue" points="72,-171 72,-246 197,-246 197,-171 72,-171"/>
<text text-anchor="middle" x="134.5" y="-230.8" font-family="Times,serif" font-size="14.00">abseil/abseil&#45;cpp.git</text>
</g>
<g id="clust3" class="cluster">
<title>clusterProtobuf</title>
<polygon fill="none" stroke="royalblue" points="8,-88 8,-163 279,-163 279,-88 8,-88"/>
<text text-anchor="middle" x="143.5" y="-147.8" font-family="Times,serif" font-size="14.00">protocolbuffers/protobuf.git</text>
</g>
<g id="clust4" class="cluster">
<title>clusterRe2</title>
<polygon fill="none" stroke="royalblue" points="789,-500 789,-575 881,-575 881,-500 789,-500"/>
<text text-anchor="middle" x="835" y="-559.8" font-family="Times,serif" font-size="14.00">google/re2.git</text>
</g>
<g id="clust5" class="cluster">
<title>clusterEigen3</title>
<polygon fill="none" stroke="royalblue" points="889,-500 889,-575 1000,-575 1000,-500 889,-500"/>
<text text-anchor="middle" x="944.5" y="-559.8" font-family="Times,serif" font-size="14.00">libeigen/eigen.git</text>
</g>
<g id="clust6" class="cluster">
<title>clusterPybind11</title>
<polygon fill="none" stroke="royalblue" points="1008,-500 1008,-575 1150,-575 1150,-500 1008,-500"/>
<text text-anchor="middle" x="1079" y="-559.8" font-family="Times,serif" font-size="14.00">pybind/pybind11.git</text>
</g>
<g id="clust7" class="cluster">
<title>clusterCoinOR</title>
<polygon fill="none" stroke="royalblue" points="395,-8 395,-606 781,-606 781,-8 395,-8"/>
<text text-anchor="middle" x="588" y="-590.8" font-family="Times,serif" font-size="14.00">&#45;DUSE_COINOR=ON AND &#45;DBUILD_DEPS=ON</text>
</g>
<g id="clust8" class="cluster">
<title>clusterCoinUtils</title>
<polygon fill="none" stroke="royalblue" points="619,-500 619,-575 746,-575 746,-500 619,-500"/>
<text text-anchor="middle" x="682.5" y="-559.8" font-family="Times,serif" font-size="14.00">Mizux/CoinUtils.git</text>
</g>
<g id="clust9" class="cluster">
<title>clusterOsi</title>
<polygon fill="none" stroke="royalblue" points="610,-409 610,-484 703,-484 703,-409 610,-409"/>
<text text-anchor="middle" x="656.5" y="-468.8" font-family="Times,serif" font-size="14.00">Mizux/Osi.git</text>
</g>
<g id="clust10" class="cluster">
<title>clusterClp</title>
<polygon fill="none" stroke="royalblue" points="455,-254 455,-401 683,-401 683,-254 455,-254"/>
<text text-anchor="middle" x="569" y="-385.8" font-family="Times,serif" font-size="14.00">Mizux/Clp.git</text>
</g>
<g id="clust11" class="cluster">
<title>clusterCgl</title>
<polygon fill="none" stroke="royalblue" points="606,-171 606,-246 700,-246 700,-171 606,-171"/>
<text text-anchor="middle" x="653" y="-230.8" font-family="Times,serif" font-size="14.00">Mizux/Cgl.git</text>
</g>
<g id="clust12" class="cluster">
<title>clusterCbc</title>
<polygon fill="none" stroke="royalblue" points="403,-16 403,-163 635,-163 635,-16 403,-16"/>
<text text-anchor="middle" x="519" y="-147.8" font-family="Times,serif" font-size="14.00">Mizux/Cbc.git</text>
</g>
<g id="clust13" class="cluster">
<title>clusterGLPKSolver</title>
<polygon fill="none" stroke="royalblue" points="1158,-492 1158,-606 1445,-606 1445,-492 1158,-492"/>
<text text-anchor="middle" x="1301.5" y="-590.8" font-family="Times,serif" font-size="14.00">&#45;DUSE_GLPK=ON AND &#45;DBUILD_GLPK=ON</text>
</g>
<g id="clust14" class="cluster">
<title>clusterGLPK</title>
<polygon fill="none" stroke="royalblue" points="1246,-500 1246,-575 1356,-575 1356,-500 1246,-500"/>
<text text-anchor="middle" x="1301" y="-559.8" font-family="Times,serif" font-size="14.00">Mizux/GLPK.git</text>
</g>
<g id="clust15" class="cluster">
<title>clusterSCIPSolver</title>
<polygon fill="none" stroke="royalblue" points="1453,-492 1453,-606 1727,-606 1727,-492 1453,-492"/>
<text text-anchor="middle" x="1590" y="-590.8" font-family="Times,serif" font-size="14.00">&#45;DUSE_SCIP=ON AND &#45;DBUILD_SCIP=ON</text>
</g>
<g id="clust16" class="cluster">
<title>clusterSCIP</title>
<polygon fill="none" stroke="royalblue" points="1540,-500 1540,-575 1639,-575 1639,-500 1540,-500"/>
<text text-anchor="middle" x="1589.5" y="-559.8" font-family="Times,serif" font-size="14.00">scipopt/scip.git</text>
</g>
<!-- ZLIB -->
<g id="node1" class="node">
<title>ZLIB</title>
<path fill="royalblue" stroke="royalblue" d="M292,-215C292,-215 232,-215 232,-215 226,-215 220,-209 220,-203 220,-203 220,-191 220,-191 220,-185 226,-179 232,-179 232,-179 292,-179 292,-179 298,-179 304,-185 304,-191 304,-191 304,-203 304,-203 304,-209 298,-215 292,-215"/>
<text text-anchor="middle" x="262" y="-193.3" font-family="Times,serif" font-size="14.00">ZLIB::ZLIB</text>
</g>
<!-- Protobuf -->
<g id="node3" class="node">
<title>Protobuf</title>
<path fill="royalblue" stroke="royalblue" d="M258.5,-132C258.5,-132 151.5,-132 151.5,-132 145.5,-132 139.5,-126 139.5,-120 139.5,-120 139.5,-108 139.5,-108 139.5,-102 145.5,-96 151.5,-96 151.5,-96 258.5,-96 258.5,-96 264.5,-96 270.5,-102 270.5,-108 270.5,-108 270.5,-120 270.5,-120 270.5,-126 264.5,-132 258.5,-132"/>
<text text-anchor="middle" x="205" y="-110.3" font-family="Times,serif" font-size="14.00">protobuf::libprotobuf</text>
</g>
<!-- ZLIB&#45;&gt;Protobuf -->
<g id="edge19" class="edge">
<title>ZLIB&#45;&gt;Protobuf</title>
<path fill="none" stroke="black" d="M249.91,-178.82C242.05,-167.65 231.67,-152.9 222.86,-140.38"/>
<polygon fill="black" stroke="black" points="225.69,-138.32 217.07,-132.15 219.96,-142.35 225.69,-138.32"/>
</g>
<!-- Cbc -->
<g id="node14" class="node">
<title>Cbc</title>
<path fill="royalblue" stroke="royalblue" d="M471,-132C471,-132 423,-132 423,-132 417,-132 411,-126 411,-120 411,-120 411,-108 411,-108 411,-102 417,-96 423,-96 423,-96 471,-96 471,-96 477,-96 483,-102 483,-108 483,-108 483,-120 483,-120 483,-126 477,-132 471,-132"/>
<text text-anchor="middle" x="447" y="-110.3" font-family="Times,serif" font-size="14.00">Coin::Cbc</text>
</g>
<!-- ZLIB&#45;&gt;Cbc -->
<g id="edge20" class="edge">
<title>ZLIB&#45;&gt;Cbc</title>
<path fill="none" stroke="black" d="M301.23,-178.82C330.65,-165.94 370.96,-148.29 401.74,-134.82"/>
<polygon fill="black" stroke="black" points="403.2,-138 410.96,-130.78 400.4,-131.58 403.2,-138"/>
</g>
<!-- Absl -->
<g id="node2" class="node">
<title>Absl</title>
<path fill="royalblue" stroke="royalblue" d="M176.5,-215C176.5,-215 119.5,-215 119.5,-215 113.5,-215 107.5,-209 107.5,-203 107.5,-203 107.5,-191 107.5,-191 107.5,-185 113.5,-179 119.5,-179 119.5,-179 176.5,-179 176.5,-179 182.5,-179 188.5,-185 188.5,-191 188.5,-191 188.5,-203 188.5,-203 188.5,-209 182.5,-215 176.5,-215"/>
<text text-anchor="middle" x="148" y="-193.3" font-family="Times,serif" font-size="14.00">absl::absl_*</text>
</g>
<!-- Absl&#45;&gt;Protobuf -->
<g id="edge21" class="edge">
<title>Absl&#45;&gt;Protobuf</title>
<path fill="none" stroke="black" d="M160.09,-178.82C167.95,-167.65 178.33,-152.9 187.14,-140.38"/>
<polygon fill="black" stroke="black" points="190.04,-142.35 192.93,-132.15 184.31,-138.32 190.04,-142.35"/>
</g>
<!-- Protoc -->
<g id="node4" class="node">
<title>Protoc</title>
<polygon fill="royalblue" stroke="royalblue" points="121.5,-132 16.5,-132 16.5,-128 12.5,-128 12.5,-124 16.5,-124 16.5,-104 12.5,-104 12.5,-100 16.5,-100 16.5,-96 121.5,-96 121.5,-132"/>
<polyline fill="none" stroke="royalblue" points="16.5,-128 20.5,-128 20.5,-124 16.5,-124 "/>
<polyline fill="none" stroke="royalblue" points="16.5,-104 20.5,-104 20.5,-100 16.5,-100 "/>
<text text-anchor="middle" x="69" y="-110.3" font-family="Times,serif" font-size="14.00">protobuf::protoc</text>
</g>
<!-- Re2 -->
<g id="node5" class="node">
<title>Re2</title>
<path fill="royalblue" stroke="royalblue" d="M852.5,-544C852.5,-544 817.5,-544 817.5,-544 811.5,-544 805.5,-538 805.5,-532 805.5,-532 805.5,-520 805.5,-520 805.5,-514 811.5,-508 817.5,-508 817.5,-508 852.5,-508 852.5,-508 858.5,-508 864.5,-514 864.5,-520 864.5,-520 864.5,-532 864.5,-532 864.5,-538 858.5,-544 852.5,-544"/>
<text text-anchor="middle" x="835" y="-522.3" font-family="Times,serif" font-size="14.00">re2::re2</text>
</g>
<!-- Eigen3 -->
<g id="node6" class="node">
<title>Eigen3</title>
<path fill="royalblue" stroke="royalblue" d="M978,-544C978,-544 910,-544 910,-544 904,-544 898,-538 898,-532 898,-532 898,-520 898,-520 898,-514 904,-508 910,-508 910,-508 978,-508 978,-508 984,-508 990,-514 990,-520 990,-520 990,-532 990,-532 990,-538 984,-544 978,-544"/>
<text text-anchor="middle" x="944" y="-522.3" font-family="Times,serif" font-size="14.00">Eigen3::eigen</text>
</g>
<!-- Pybind11 -->
<g id="node7" class="node">
<title>Pybind11</title>
<path fill="royalblue" stroke="royalblue" d="M1130,-544C1130,-544 1028,-544 1028,-544 1022,-544 1016,-538 1016,-532 1016,-532 1016,-520 1016,-520 1016,-514 1022,-508 1028,-508 1028,-508 1130,-508 1130,-508 1136,-508 1142,-514 1142,-520 1142,-520 1142,-532 1142,-532 1142,-538 1136,-544 1130,-544"/>
<text text-anchor="middle" x="1079" y="-522.3" font-family="Times,serif" font-size="14.00">pybind11::pybind11</text>
</g>
<!-- CoinUtils -->
<g id="node8" class="node">
<title>CoinUtils</title>
<path fill="royalblue" stroke="royalblue" d="M721.5,-544C721.5,-544 642.5,-544 642.5,-544 636.5,-544 630.5,-538 630.5,-532 630.5,-532 630.5,-520 630.5,-520 630.5,-514 636.5,-508 642.5,-508 642.5,-508 721.5,-508 721.5,-508 727.5,-508 733.5,-514 733.5,-520 733.5,-520 733.5,-532 733.5,-532 733.5,-538 727.5,-544 721.5,-544"/>
<text text-anchor="middle" x="682" y="-522.3" font-family="Times,serif" font-size="14.00">Coin::CoinUtils</text>
</g>
<!-- Osi -->
<g id="node9" class="node">
<title>Osi</title>
<path fill="royalblue" stroke="royalblue" d="M678.5,-453C678.5,-453 633.5,-453 633.5,-453 627.5,-453 621.5,-447 621.5,-441 621.5,-441 621.5,-429 621.5,-429 621.5,-423 627.5,-417 633.5,-417 633.5,-417 678.5,-417 678.5,-417 684.5,-417 690.5,-423 690.5,-429 690.5,-429 690.5,-441 690.5,-441 690.5,-447 684.5,-453 678.5,-453"/>
<text text-anchor="middle" x="656" y="-431.3" font-family="Times,serif" font-size="14.00">Coin::Osi</text>
</g>
<!-- CoinUtils&#45;&gt;Osi -->
<g id="edge1" class="edge">
<title>CoinUtils&#45;&gt;Osi</title>
<path fill="none" stroke="black" d="M676.99,-507.84C673.28,-495.16 668.16,-477.64 663.91,-463.08"/>
<polygon fill="black" stroke="black" points="667.16,-461.72 661,-453.11 660.44,-463.69 667.16,-461.72"/>
</g>
<!-- Clp -->
<g id="node10" class="node">
<title>Clp</title>
<path fill="royalblue" stroke="royalblue" d="M624,-370C624,-370 578,-370 578,-370 572,-370 566,-364 566,-358 566,-358 566,-346 566,-346 566,-340 572,-334 578,-334 578,-334 624,-334 624,-334 630,-334 636,-340 636,-346 636,-346 636,-358 636,-358 636,-364 630,-370 624,-370"/>
<text text-anchor="middle" x="601" y="-348.3" font-family="Times,serif" font-size="14.00">Coin::Clp</text>
</g>
<!-- CoinUtils&#45;&gt;Clp -->
<g id="edge2" class="edge">
<title>CoinUtils&#45;&gt;Clp</title>
<path fill="none" stroke="black" d="M632.62,-507.94C622.14,-502 612.34,-494.18 606,-484 586.47,-452.65 589.69,-408.41 594.67,-380.22"/>
<polygon fill="black" stroke="black" points="598.13,-380.74 596.62,-370.26 591.26,-379.4 598.13,-380.74"/>
</g>
<!-- OsiClp -->
<g id="node11" class="node">
<title>OsiClp</title>
<path fill="royalblue" stroke="royalblue" d="M663.5,-298C663.5,-298 598.5,-298 598.5,-298 592.5,-298 586.5,-292 586.5,-286 586.5,-286 586.5,-274 586.5,-274 586.5,-268 592.5,-262 598.5,-262 598.5,-262 663.5,-262 663.5,-262 669.5,-262 675.5,-268 675.5,-274 675.5,-274 675.5,-286 675.5,-286 675.5,-292 669.5,-298 663.5,-298"/>
<text text-anchor="middle" x="631" y="-276.3" font-family="Times,serif" font-size="14.00">Coin::OsiClp</text>
</g>
<!-- CoinUtils&#45;&gt;OsiClp -->
<g id="edge4" class="edge">
<title>CoinUtils&#45;&gt;OsiClp</title>
<path fill="none" stroke="black" d="M695.5,-507.63C700.09,-500.68 704.66,-492.35 707,-484 716.01,-451.91 715.82,-441.14 707,-409 696.29,-369.99 670.26,-330.82 651.65,-306.28"/>
<polygon fill="black" stroke="black" points="654.31,-304 645.42,-298.24 648.77,-308.28 654.31,-304"/>
</g>
<!-- Cgl -->
<g id="node13" class="node">
<title>Cgl</title>
<path fill="royalblue" stroke="royalblue" d="M676,-215C676,-215 630,-215 630,-215 624,-215 618,-209 618,-203 618,-203 618,-191 618,-191 618,-185 624,-179 630,-179 630,-179 676,-179 676,-179 682,-179 688,-185 688,-191 688,-191 688,-203 688,-203 688,-209 682,-215 676,-215"/>
<text text-anchor="middle" x="653" y="-193.3" font-family="Times,serif" font-size="14.00">Coin::Cgl</text>
</g>
<!-- CoinUtils&#45;&gt;Cgl -->
<g id="edge8" class="edge">
<title>CoinUtils&#45;&gt;Cgl</title>
<path fill="none" stroke="black" d="M700.09,-507.88C706.03,-501.08 711.9,-492.79 715,-484 731.45,-437.33 703.38,-269.47 697,-254 692.34,-242.68 684.7,-231.74 677.09,-222.58"/>
<polygon fill="black" stroke="black" points="679.7,-220.25 670.48,-215.03 674.43,-224.86 679.7,-220.25"/>
</g>
<!-- CoinUtils&#45;&gt;Cbc -->
<g id="edge11" class="edge">
<title>CoinUtils&#45;&gt;Cbc</title>
<path fill="none" stroke="black" d="M641.21,-507.99C624.09,-500.75 604.01,-492.11 586,-484 507.51,-448.64 462.16,-470.23 411,-401 398.19,-383.66 404,-374.56 404,-353 404,-353 404,-353 404,-279 404,-230.95 393.83,-216.59 409,-171 412.6,-160.19 418.93,-149.53 425.4,-140.46"/>
<polygon fill="black" stroke="black" points="428.33,-142.39 431.56,-132.3 422.74,-138.17 428.33,-142.39"/>
</g>
<!-- OsiCbc -->
<g id="node15" class="node">
<title>OsiCbc</title>
<path fill="royalblue" stroke="royalblue" d="M614.5,-60C614.5,-60 547.5,-60 547.5,-60 541.5,-60 535.5,-54 535.5,-48 535.5,-48 535.5,-36 535.5,-36 535.5,-30 541.5,-24 547.5,-24 547.5,-24 614.5,-24 614.5,-24 620.5,-24 626.5,-30 626.5,-36 626.5,-36 626.5,-48 626.5,-48 626.5,-54 620.5,-60 614.5,-60"/>
<text text-anchor="middle" x="581" y="-38.3" font-family="Times,serif" font-size="14.00">Coin::OsiCbc</text>
</g>
<!-- CoinUtils&#45;&gt;OsiCbc -->
<g id="edge15" class="edge">
<title>CoinUtils&#45;&gt;OsiCbc</title>
<path fill="none" stroke="black" d="M702.08,-507.62C709.08,-500.79 716.54,-492.55 722,-484 755.57,-431.49 772,-415.32 772,-353 772,-353 772,-353 772,-196 772,-138.06 744.4,-123.99 699,-88 680.83,-73.59 657.54,-63.41 636.45,-56.42"/>
<polygon fill="black" stroke="black" points="637.22,-52.99 626.63,-53.34 635.12,-59.67 637.22,-52.99"/>
</g>
<!-- Osi&#45;&gt;Clp -->
<g id="edge3" class="edge">
<title>Osi&#45;&gt;Clp</title>
<path fill="none" stroke="black" d="M644.34,-416.82C636.83,-405.76 626.92,-391.18 618.48,-378.75"/>
<polygon fill="black" stroke="black" points="621.16,-376.46 612.65,-370.15 615.37,-380.39 621.16,-376.46"/>
</g>
<!-- Osi&#45;&gt;OsiClp -->
<g id="edge5" class="edge">
<title>Osi&#45;&gt;OsiClp</title>
<path fill="none" stroke="black" d="M654.9,-416.9C653.43,-396.9 650.37,-362.85 645,-334 643.41,-325.45 641.17,-316.25 638.95,-307.95"/>
<polygon fill="black" stroke="black" points="642.24,-306.74 636.19,-298.04 635.5,-308.61 642.24,-306.74"/>
</g>
<!-- Osi&#45;&gt;Cgl -->
<g id="edge9" class="edge">
<title>Osi&#45;&gt;Cgl</title>
<path fill="none" stroke="black" d="M676.53,-416.94C680.79,-412.26 684.68,-406.85 687,-401 711.06,-340.26 704.6,-316.92 687,-254 684.06,-243.48 678.54,-232.98 672.79,-223.96"/>
<polygon fill="black" stroke="black" points="675.56,-221.8 667.06,-215.48 669.77,-225.73 675.56,-221.8"/>
</g>
<!-- Osi&#45;&gt;Cbc -->
<g id="edge12" class="edge">
<title>Osi&#45;&gt;Cbc</title>
<path fill="none" stroke="black" d="M621.25,-433.1C569.21,-431.01 474.59,-424.06 451,-401 380.8,-332.38 416.64,-199.18 436.6,-142.07"/>
<polygon fill="black" stroke="black" points="440.02,-142.92 440.12,-132.32 433.43,-140.54 440.02,-142.92"/>
</g>
<!-- Osi&#45;&gt;OsiCbc -->
<g id="edge16" class="edge">
<title>Osi&#45;&gt;OsiCbc</title>
<path fill="none" stroke="black" d="M683.96,-416.8C689.6,-412.25 695.01,-406.93 699,-401 729.88,-355.11 732,-336.31 732,-281 732,-281 732,-281 732,-196 732,-135.25 670.94,-89.89 626.48,-64.92"/>
<polygon fill="black" stroke="black" points="628.01,-61.77 617.55,-60.05 624.66,-67.91 628.01,-61.77"/>
</g>
<!-- Clp&#45;&gt;OsiClp -->
<g id="edge6" class="edge">
<title>Clp&#45;&gt;OsiClp</title>
<path fill="none" stroke="black" d="M608.42,-333.7C611.79,-325.81 615.87,-316.3 619.62,-307.55"/>
<polygon fill="black" stroke="black" points="622.95,-308.67 623.67,-298.1 616.51,-305.92 622.95,-308.67"/>
</g>
<!-- ClpSolver -->
<g id="node12" class="node">
<title>ClpSolver</title>
<path fill="royalblue" stroke="royalblue" d="M556.5,-298C556.5,-298 475.5,-298 475.5,-298 469.5,-298 463.5,-292 463.5,-286 463.5,-286 463.5,-274 463.5,-274 463.5,-268 469.5,-262 475.5,-262 475.5,-262 556.5,-262 556.5,-262 562.5,-262 568.5,-268 568.5,-274 568.5,-274 568.5,-286 568.5,-286 568.5,-292 562.5,-298 556.5,-298"/>
<text text-anchor="middle" x="516" y="-276.3" font-family="Times,serif" font-size="14.00">Coin::ClpSolver</text>
</g>
<!-- Clp&#45;&gt;ClpSolver -->
<g id="edge7" class="edge">
<title>Clp&#45;&gt;ClpSolver</title>
<path fill="none" stroke="black" d="M579.99,-333.7C569.28,-324.88 556.11,-314.03 544.5,-304.47"/>
<polygon fill="black" stroke="black" points="546.71,-301.76 536.77,-298.1 542.26,-307.16 546.71,-301.76"/>
</g>
<!-- Clp&#45;&gt;Cbc -->
<g id="edge13" class="edge">
<title>Clp&#45;&gt;Cbc</title>
<path fill="none" stroke="black" d="M565.9,-348.94C531.49,-344.86 480.61,-332.89 455,-298 421.29,-252.07 430.84,-180.8 439.62,-142.15"/>
<polygon fill="black" stroke="black" points="443.08,-142.71 442.03,-132.16 436.28,-141.06 443.08,-142.71"/>
</g>
<!-- OsiClp&#45;&gt;Cgl -->
<g id="edge10" class="edge">
<title>OsiClp&#45;&gt;Cgl</title>
<path fill="none" stroke="black" d="M635.67,-261.82C638.58,-251.08 642.4,-237.03 645.71,-224.84"/>
<polygon fill="black" stroke="black" points="649.1,-225.72 648.34,-215.15 642.34,-223.89 649.1,-225.72"/>
</g>
<!-- Cgl&#45;&gt;Cbc -->
<g id="edge14" class="edge">
<title>Cgl&#45;&gt;Cbc</title>
<path fill="none" stroke="black" d="M617.59,-182.08C583.16,-168.54 530.7,-147.91 493.05,-133.11"/>
<polygon fill="black" stroke="black" points="493.92,-129.69 483.33,-129.29 491.36,-136.2 493.92,-129.69"/>
</g>
<!-- Cbc&#45;&gt;OsiCbc -->
<g id="edge17" class="edge">
<title>Cbc&#45;&gt;OsiCbc</title>
<path fill="none" stroke="black" d="M479.78,-95.88C497.63,-86.55 519.9,-74.92 539,-64.94"/>
<polygon fill="black" stroke="black" points="540.85,-67.92 548.09,-60.19 537.61,-61.72 540.85,-67.92"/>
</g>
<!-- CbcSolver -->
<g id="node16" class="node">
<title>CbcSolver</title>
<path fill="royalblue" stroke="royalblue" d="M505.5,-60C505.5,-60 422.5,-60 422.5,-60 416.5,-60 410.5,-54 410.5,-48 410.5,-48 410.5,-36 410.5,-36 410.5,-30 416.5,-24 422.5,-24 422.5,-24 505.5,-24 505.5,-24 511.5,-24 517.5,-30 517.5,-36 517.5,-36 517.5,-48 517.5,-48 517.5,-54 511.5,-60 505.5,-60"/>
<text text-anchor="middle" x="464" y="-38.3" font-family="Times,serif" font-size="14.00">Coin::CbcSolver</text>
</g>
<!-- Cbc&#45;&gt;CbcSolver -->
<g id="edge18" class="edge">
<title>Cbc&#45;&gt;CbcSolver</title>
<path fill="none" stroke="black" d="M451.2,-95.7C453.1,-87.9 455.38,-78.51 457.48,-69.83"/>
<polygon fill="black" stroke="black" points="460.89,-70.65 459.85,-60.1 454.08,-69 460.89,-70.65"/>
</g>
<!-- GLPK -->
<g id="node17" class="node">
<title>GLPK</title>
<path fill="royalblue" stroke="royalblue" d="M1325,-544C1325,-544 1277,-544 1277,-544 1271,-544 1265,-538 1265,-532 1265,-532 1265,-520 1265,-520 1265,-514 1271,-508 1277,-508 1277,-508 1325,-508 1325,-508 1331,-508 1337,-514 1337,-520 1337,-520 1337,-532 1337,-532 1337,-538 1331,-544 1325,-544"/>
<text text-anchor="middle" x="1301" y="-522.3" font-family="Times,serif" font-size="14.00">glpk::glpk</text>
</g>
<!-- SCIP -->
<g id="node18" class="node">
<title>SCIP</title>
<path fill="royalblue" stroke="royalblue" d="M1611,-544C1611,-544 1567,-544 1567,-544 1561,-544 1555,-538 1555,-532 1555,-532 1555,-520 1555,-520 1555,-514 1561,-508 1567,-508 1567,-508 1611,-508 1611,-508 1617,-508 1623,-514 1623,-520 1623,-520 1623,-532 1623,-532 1623,-538 1617,-544 1611,-544"/>
<text text-anchor="middle" x="1589" y="-522.3" font-family="Times,serif" font-size="14.00">scip::scip</text>
</g>
</g>
</svg>
