<?xml version="1.0" encoding="UTF-8" standalone="no"?>
<!DOCTYPE svg PUBLIC "-//W3C//DTD SVG 1.1//EN"
 "http://www.w3.org/Graphics/SVG/1.1/DTD/svg11.dtd">
<!-- Generated by graphviz version 2.44.1 (0)
 -->
<!-- Title: DockerDeps Pages: 1 -->
<svg width="2382pt" height="1113pt"
 viewBox="0.00 0.00 2382.00 1113.25" xmlns="http://www.w3.org/2000/svg" xmlns:xlink="http://www.w3.org/1999/xlink">
<g id="graph0" class="graph" transform="scale(1 1) rotate(0) translate(4 1109.25)">
<title>DockerDeps</title>
<polygon fill="white" stroke="transparent" points="-4,4 -4,-1109.25 2378,-1109.25 2378,4 -4,4"/>
<g id="clust1" class="cluster">
<title>clusterDockerfile</title>
<polygon fill="none" stroke="royalblue" points="1848,-845.75 1848,-1026.25 2092,-1026.25 2092,-845.75 1848,-845.75"/>
<text text-anchor="middle" x="1970" y="-1011.05" font-family="Times,serif" font-size="14.00">docker/&lt;distro&gt;/Dockerfile</text>
</g>
<g id="clust2" class="cluster">
<title>clusterLang</title>
<polygon fill="none" stroke="royalblue" points="689,-116 689,-812.75 1339,-812.75 1339,-116 689,-116"/>
<text text-anchor="middle" x="1014" y="-797.55" font-family="Times,serif" font-size="14.00">docker/&lt;distro&gt;/&lt;lang&gt;.Dockerfile</text>
</g>
<g id="clust3" class="cluster">
<title>clusterCache</title>
<polygon fill="none" stroke="royalblue" points="8,-8 8,-83 2170,-83 2170,-8 8,-8"/>
<text text-anchor="middle" x="1089" y="-67.8" font-family="Times,serif" font-size="14.00">cache/&lt;distro&gt;/</text>
</g>
<!-- DISTRO_IMG -->
<g id="node1" class="node">
<title>DISTRO_IMG</title>
<path fill="royalblue" stroke="black" d="M1959,-1100.98C1959,-1102.78 1930.31,-1104.25 1895,-1104.25 1859.69,-1104.25 1831,-1102.78 1831,-1100.98 1831,-1100.98 1831,-1071.52 1831,-1071.52 1831,-1069.72 1859.69,-1068.25 1895,-1068.25 1930.31,-1068.25 1959,-1069.72 1959,-1071.52 1959,-1071.52 1959,-1100.98 1959,-1100.98"/>
<path fill="none" stroke="black" d="M1959,-1100.98C1959,-1099.17 1930.31,-1097.7 1895,-1097.7 1859.69,-1097.7 1831,-1099.17 1831,-1100.98"/>
<text text-anchor="middle" x="1895" y="-1082.55" font-family="Times,serif" font-size="14.00">&lt;distro&gt;:latest</text>
</g>
<!-- BASE_IMG -->
<g id="node8" class="node">
<title>BASE_IMG</title>
<path fill="royalblue" stroke="black" d="M2083.5,-990.6C2083.5,-993.24 2032.63,-995.38 1970,-995.38 1907.37,-995.38 1856.5,-993.24 1856.5,-990.6 1856.5,-990.6 1856.5,-947.65 1856.5,-947.65 1856.5,-945.01 1907.37,-942.87 1970,-942.87 2032.63,-942.87 2083.5,-945.01 2083.5,-947.65 2083.5,-947.65 2083.5,-990.6 2083.5,-990.6"/>
<path fill="none" stroke="black" d="M2083.5,-990.6C2083.5,-987.97 2032.63,-985.83 1970,-985.83 1907.37,-985.83 1856.5,-987.97 1856.5,-990.6"/>
<text text-anchor="middle" x="1970" y="-972.92" font-family="Times,serif" font-size="14.00">ortools/cmake:&lt;distro&gt;_base</text>
<text text-anchor="middle" x="1970" y="-957.92" font-family="Times,serif" font-size="14.00">base</text>
</g>
<!-- DISTRO_IMG&#45;&gt;BASE_IMG -->
<g id="edge2" class="edge">
<title>DISTRO_IMG&#45;&gt;BASE_IMG</title>
<path fill="none" stroke="black" d="M1906.39,-1067.76C1917.36,-1050.92 1934.25,-1024.99 1947.87,-1004.09"/>
<polygon fill="black" stroke="black" points="1950.96,-1005.77 1953.48,-995.48 1945.09,-1001.94 1950.96,-1005.77"/>
</g>
<!-- PKG -->
<g id="node2" class="node">
<title>PKG</title>
<polygon fill="royalblue" stroke="black" points="2112.5,-1105.25 1981.5,-1105.25 1977.5,-1101.25 1977.5,-1067.25 2108.5,-1067.25 2112.5,-1071.25 2112.5,-1105.25"/>
<polyline fill="none" stroke="black" points="2108.5,-1101.25 1977.5,-1101.25 "/>
<polyline fill="none" stroke="black" points="2108.5,-1101.25 2108.5,-1067.25 "/>
<polyline fill="none" stroke="black" points="2108.5,-1101.25 2112.5,-1105.25 "/>
<text text-anchor="middle" x="2045" y="-1090.05" font-family="Times,serif" font-size="14.00">Build packages</text>
<text text-anchor="middle" x="2045" y="-1075.05" font-family="Times,serif" font-size="14.00">e.g. cmake, g++</text>
</g>
<!-- PKG&#45;&gt;BASE_IMG -->
<g id="edge3" class="edge">
<title>PKG&#45;&gt;BASE_IMG</title>
<path fill="none" stroke="black" stroke-dasharray="5,2" d="M2033.12,-1067.01C2022.13,-1050.14 2005.52,-1024.65 1992.1,-1004.05"/>
<polygon fill="black" stroke="black" points="1994.96,-1002.03 1986.57,-995.56 1989.1,-1005.85 1994.96,-1002.03"/>
<text text-anchor="middle" x="2042.5" y="-1038.05" font-family="Times,serif" font-size="14.00">install</text>
</g>
<!-- PYPKG -->
<g id="node3" class="node">
<title>PYPKG</title>
<polygon fill="gold" stroke="black" points="1101.5,-898.88 968.5,-898.88 964.5,-894.88 964.5,-860.88 1097.5,-860.88 1101.5,-864.88 1101.5,-898.88"/>
<polyline fill="none" stroke="black" points="1097.5,-894.88 964.5,-894.88 "/>
<polyline fill="none" stroke="black" points="1097.5,-894.88 1097.5,-860.88 "/>
<polyline fill="none" stroke="black" points="1097.5,-894.88 1101.5,-898.88 "/>
<text text-anchor="middle" x="1033" y="-883.67" font-family="Times,serif" font-size="14.00">Python packages</text>
<text text-anchor="middle" x="1033" y="-868.67" font-family="Times,serif" font-size="14.00">e.g. python&#45;dev</text>
</g>
<!-- LANGENV_IMG -->
<g id="node10" class="node">
<title>LANGENV_IMG</title>
<path fill="royalblue" stroke="black" d="M1318.5,-777.1C1318.5,-779.74 1255.53,-781.88 1178,-781.88 1100.47,-781.88 1037.5,-779.74 1037.5,-777.1 1037.5,-777.1 1037.5,-734.15 1037.5,-734.15 1037.5,-731.51 1100.47,-729.37 1178,-729.37 1255.53,-729.37 1318.5,-731.51 1318.5,-734.15 1318.5,-734.15 1318.5,-777.1 1318.5,-777.1"/>
<path fill="none" stroke="black" d="M1318.5,-777.1C1318.5,-774.47 1255.53,-772.33 1178,-772.33 1100.47,-772.33 1037.5,-774.47 1037.5,-777.1"/>
<text text-anchor="middle" x="1178" y="-759.42" font-family="Times,serif" font-size="14.00">ortools/cmake:&lt;distro&gt;_&lt;lang&gt;_env</text>
<text text-anchor="middle" x="1178" y="-744.42" font-family="Times,serif" font-size="14.00">env</text>
</g>
<!-- PYPKG&#45;&gt;LANGENV_IMG -->
<g id="edge13" class="edge">
<title>PYPKG&#45;&gt;LANGENV_IMG</title>
<path fill="none" stroke="black" stroke-dasharray="5,2" d="M1054.4,-860.84C1076.91,-841.86 1112.8,-811.59 1140.12,-788.56"/>
<polygon fill="black" stroke="black" points="1142.55,-791.09 1147.94,-781.97 1138.04,-785.74 1142.55,-791.09"/>
<text text-anchor="middle" x="1123.5" y="-824.55" font-family="Times,serif" font-size="14.00">install</text>
</g>
<!-- JAVAPKG -->
<g id="node4" class="node">
<title>JAVAPKG</title>
<polygon fill="crimson" stroke="black" points="1236.5,-898.88 1123.5,-898.88 1119.5,-894.88 1119.5,-860.88 1232.5,-860.88 1236.5,-864.88 1236.5,-898.88"/>
<polyline fill="none" stroke="black" points="1232.5,-894.88 1119.5,-894.88 "/>
<polyline fill="none" stroke="black" points="1232.5,-894.88 1232.5,-860.88 "/>
<polyline fill="none" stroke="black" points="1232.5,-894.88 1236.5,-898.88 "/>
<text text-anchor="middle" x="1178" y="-883.67" font-family="Times,serif" font-size="14.00">Java packages</text>
<text text-anchor="middle" x="1178" y="-868.67" font-family="Times,serif" font-size="14.00">e.g. openjdk</text>
</g>
<!-- JAVAPKG&#45;&gt;LANGENV_IMG -->
<g id="edge14" class="edge">
<title>JAVAPKG&#45;&gt;LANGENV_IMG</title>
<path fill="none" stroke="black" stroke-dasharray="5,2" d="M1178,-860.84C1178,-842.83 1178,-814.68 1178,-792.18"/>
<polygon fill="black" stroke="black" points="1181.5,-791.97 1178,-781.97 1174.5,-791.97 1181.5,-791.97"/>
<text text-anchor="middle" x="1200.5" y="-824.55" font-family="Times,serif" font-size="14.00">install</text>
</g>
<!-- DOTNETPKG -->
<g id="node5" class="node">
<title>DOTNETPKG</title>
<polygon fill="forestgreen" stroke="black" points="1373,-898.88 1259,-898.88 1255,-894.88 1255,-860.88 1369,-860.88 1373,-864.88 1373,-898.88"/>
<polyline fill="none" stroke="black" points="1369,-894.88 1255,-894.88 "/>
<polyline fill="none" stroke="black" points="1369,-894.88 1369,-860.88 "/>
<polyline fill="none" stroke="black" points="1369,-894.88 1373,-898.88 "/>
<text text-anchor="middle" x="1314" y="-883.67" font-family="Times,serif" font-size="14.00">.Net packages</text>
<text text-anchor="middle" x="1314" y="-868.67" font-family="Times,serif" font-size="14.00">e.g. dotnet&#45;cli</text>
</g>
<!-- DOTNETPKG&#45;&gt;LANGENV_IMG -->
<g id="edge15" class="edge">
<title>DOTNETPKG&#45;&gt;LANGENV_IMG</title>
<path fill="none" stroke="black" stroke-dasharray="5,2" d="M1293.93,-860.84C1272.91,-841.94 1239.44,-811.85 1213.86,-788.86"/>
<polygon fill="black" stroke="black" points="1215.97,-786.05 1206.19,-781.97 1211.29,-791.26 1215.97,-786.05"/>
<text text-anchor="middle" x="1284.5" y="-824.55" font-family="Times,serif" font-size="14.00">install</text>
</g>
<!-- SRC -->
<g id="node6" class="node">
<title>SRC</title>
<polygon fill="royalblue" stroke="black" points="680.5,-773.62 677.5,-777.62 656.5,-777.62 653.5,-773.62 607.5,-773.62 607.5,-737.62 680.5,-737.62 680.5,-773.62"/>
<text text-anchor="middle" x="644" y="-751.92" font-family="Times,serif" font-size="14.00">git repo</text>
</g>
<!-- LANGDEVEL_IMG -->
<g id="node11" class="node">
<title>LANGDEVEL_IMG</title>
<path fill="royalblue" stroke="black" d="M1062.5,-673.85C1062.5,-676.49 996.84,-678.63 916,-678.63 835.16,-678.63 769.5,-676.49 769.5,-673.85 769.5,-673.85 769.5,-630.9 769.5,-630.9 769.5,-628.26 835.16,-626.12 916,-626.12 996.84,-626.12 1062.5,-628.26 1062.5,-630.9 1062.5,-630.9 1062.5,-673.85 1062.5,-673.85"/>
<path fill="none" stroke="black" d="M1062.5,-673.85C1062.5,-671.22 996.84,-669.08 916,-669.08 835.16,-669.08 769.5,-671.22 769.5,-673.85"/>
<text text-anchor="middle" x="916" y="-656.17" font-family="Times,serif" font-size="14.00">ortools/cmake:&lt;distro&gt;_&lt;lang&gt;_devel</text>
<text text-anchor="middle" x="916" y="-641.17" font-family="Times,serif" font-size="14.00">devel</text>
</g>
<!-- SRC&#45;&gt;LANGDEVEL_IMG -->
<g id="edge16" class="edge">
<title>SRC&#45;&gt;LANGDEVEL_IMG</title>
<path fill="none" stroke="black" stroke-dasharray="5,2" d="M669.97,-737.48C674.85,-734.61 680,-731.82 685,-729.5 726.14,-710.43 773.42,-693.96 814.44,-681.27"/>
<polygon fill="black" stroke="black" points="815.64,-684.56 824.18,-678.29 813.59,-677.87 815.64,-684.56"/>
<text text-anchor="middle" x="782" y="-700.3" font-family="Times,serif" font-size="14.00">copy</text>
</g>
<!-- SAMPLE -->
<g id="node7" class="node">
<title>SAMPLE</title>
<polygon fill="royalblue" stroke="black" points="1417,-477.88 1414,-481.88 1393,-481.88 1390,-477.88 1349,-477.88 1349,-441.88 1417,-441.88 1417,-477.88"/>
<text text-anchor="middle" x="1383" y="-456.18" font-family="Times,serif" font-size="14.00">sample</text>
</g>
<!-- LANGINSTALLDEVEL_IMG -->
<g id="node15" class="node">
<title>LANGINSTALLDEVEL_IMG</title>
<path fill="royalblue" stroke="black" d="M1217,-378.1C1217,-380.74 1139.91,-382.88 1045,-382.88 950.09,-382.88 873,-380.74 873,-378.1 873,-378.1 873,-335.15 873,-335.15 873,-332.51 950.09,-330.37 1045,-330.37 1139.91,-330.37 1217,-332.51 1217,-335.15 1217,-335.15 1217,-378.1 1217,-378.1"/>
<path fill="none" stroke="black" d="M1217,-378.1C1217,-375.47 1139.91,-373.33 1045,-373.33 950.09,-373.33 873,-375.47 873,-378.1"/>
<text text-anchor="middle" x="1045" y="-360.43" font-family="Times,serif" font-size="14.00">ortools/cmake:&lt;distro&gt;_&lt;lang&gt;_install_devel</text>
<text text-anchor="middle" x="1045" y="-345.43" font-family="Times,serif" font-size="14.00">install_devel</text>
</g>
<!-- SAMPLE&#45;&gt;LANGINSTALLDEVEL_IMG -->
<g id="edge17" class="edge">
<title>SAMPLE&#45;&gt;LANGINSTALLDEVEL_IMG</title>
<path fill="none" stroke="black" stroke-dasharray="5,2" d="M1358.26,-441.69C1353.35,-438.75 1348.12,-435.95 1343,-433.75 1293.55,-412.52 1236.85,-396.21 1186.27,-384.23"/>
<polygon fill="black" stroke="black" points="1186.77,-380.76 1176.24,-381.9 1185.19,-387.57 1186.77,-380.76"/>
<text text-anchor="middle" x="1313" y="-404.55" font-family="Times,serif" font-size="14.00">copy</text>
</g>
<!-- SWIG_IMG -->
<g id="node9" class="node">
<title>SWIG_IMG</title>
<path fill="royalblue" stroke="black" d="M2083.5,-901.35C2083.5,-903.99 2032.63,-906.13 1970,-906.13 1907.37,-906.13 1856.5,-903.99 1856.5,-901.35 1856.5,-901.35 1856.5,-858.4 1856.5,-858.4 1856.5,-855.76 1907.37,-853.62 1970,-853.62 2032.63,-853.62 2083.5,-855.76 2083.5,-858.4 2083.5,-858.4 2083.5,-901.35 2083.5,-901.35"/>
<path fill="none" stroke="black" d="M2083.5,-901.35C2083.5,-898.72 2032.63,-896.58 1970,-896.58 1907.37,-896.58 1856.5,-898.72 1856.5,-901.35"/>
<text text-anchor="middle" x="1970" y="-883.67" font-family="Times,serif" font-size="14.00">ortools/cmake:&lt;distro&gt;_swig</text>
<text text-anchor="middle" x="1970" y="-868.67" font-family="Times,serif" font-size="14.00">swig</text>
</g>
<!-- BASE_IMG&#45;&gt;SWIG_IMG -->
<g id="edge1" class="edge">
<title>BASE_IMG&#45;&gt;SWIG_IMG</title>
<path fill="none" stroke="black" d="M1970,-942.89C1970,-934.57 1970,-925.16 1970,-916.22"/>
<polygon fill="black" stroke="black" points="1973.5,-916.05 1970,-906.05 1966.5,-916.05 1973.5,-916.05"/>
</g>
<!-- BASE_TAR -->
<g id="node18" class="node">
<title>BASE_TAR</title>
<polygon fill="royalblue" stroke="black" points="2156,-52 2032,-52 2032,-16 2162,-16 2162,-46 2156,-52"/>
<polyline fill="none" stroke="black" points="2156,-52 2156,-46 "/>
<polyline fill="none" stroke="black" points="2162,-46 2156,-46 "/>
<text text-anchor="middle" x="2097" y="-30.3" font-family="Times,serif" font-size="14.00">docker_base.tar</text>
</g>
<!-- BASE_IMG&#45;&gt;BASE_TAR -->
<g id="edge18" class="edge">
<title>BASE_IMG&#45;&gt;BASE_TAR</title>
<path fill="none" stroke="red" d="M2083.69,-962.34C2135.73,-952.88 2186,-930.82 2186,-880.88 2186,-880.88 2186,-880.88 2186,-149.12 2186,-111.72 2155.9,-79.22 2130.7,-58.57"/>
<polygon fill="red" stroke="red" points="2132.76,-55.74 2122.74,-52.29 2128.43,-61.23 2132.76,-55.74"/>
<text text-anchor="middle" x="2280" y="-507.8" font-family="Times,serif" font-size="14.00">make save_&lt;distro&gt;_base</text>
</g>
<!-- SWIG_IMG&#45;&gt;LANGENV_IMG -->
<g id="edge12" class="edge">
<title>SWIG_IMG&#45;&gt;LANGENV_IMG</title>
<path fill="none" stroke="black" d="M1856.1,-861.29C1717.25,-839.86 1482.16,-803.57 1328.5,-779.86"/>
<polygon fill="black" stroke="black" points="1328.92,-776.38 1318.5,-778.31 1327.85,-783.3 1328.92,-776.38"/>
</g>
<!-- SWIG_TAR -->
<g id="node19" class="node">
<title>SWIG_TAR</title>
<polygon fill="royalblue" stroke="black" points="2008,-52 1884,-52 1884,-16 2014,-16 2014,-46 2008,-52"/>
<polyline fill="none" stroke="black" points="2008,-52 2008,-46 "/>
<polyline fill="none" stroke="black" points="2014,-46 2008,-46 "/>
<text text-anchor="middle" x="1949" y="-30.3" font-family="Times,serif" font-size="14.00">docker_swig.tar</text>
</g>
<!-- SWIG_IMG&#45;&gt;SWIG_TAR -->
<g id="edge19" class="edge">
<title>SWIG_IMG&#45;&gt;SWIG_TAR</title>
<path fill="none" stroke="red" d="M1970,-853.59C1970,-828.87 1970,-790.16 1970,-756.62 1970,-756.62 1970,-756.62 1970,-149.12 1970,-118.9 1962.79,-84.91 1956.82,-61.94"/>
<polygon fill="red" stroke="red" points="1960.18,-60.96 1954.19,-52.22 1953.42,-62.79 1960.18,-60.96"/>
<text text-anchor="middle" x="2064" y="-456.18" font-family="Times,serif" font-size="14.00">make save_&lt;distro&gt;_swig</text>
</g>
<!-- LANGENV_IMG&#45;&gt;LANGDEVEL_IMG -->
<g id="edge4" class="edge">
<title>LANGENV_IMG&#45;&gt;LANGDEVEL_IMG</title>
<path fill="none" stroke="black" d="M1112.9,-729.47C1075.88,-715.16 1029.36,-697.18 990.83,-682.29"/>
<polygon fill="black" stroke="black" points="991.81,-678.92 981.22,-678.58 989.29,-685.45 991.81,-678.92"/>
</g>
<!-- LANGINSTALLENV_IMG -->
<g id="node14" class="node">
<title>LANGINSTALLENV_IMG</title>
<path fill="royalblue" stroke="black" d="M1331,-481.35C1331,-483.99 1256.6,-486.13 1165,-486.13 1073.4,-486.13 999,-483.99 999,-481.35 999,-481.35 999,-438.4 999,-438.4 999,-435.76 1073.4,-433.62 1165,-433.62 1256.6,-433.62 1331,-435.76 1331,-438.4 1331,-438.4 1331,-481.35 1331,-481.35"/>
<path fill="none" stroke="black" d="M1331,-481.35C1331,-478.72 1256.6,-476.58 1165,-476.58 1073.4,-476.58 999,-478.72 999,-481.35"/>
<text text-anchor="middle" x="1165" y="-463.68" font-family="Times,serif" font-size="14.00">ortools/cmake:&lt;distro&gt;_&lt;lang&gt;_install_env</text>
<text text-anchor="middle" x="1165" y="-448.68" font-family="Times,serif" font-size="14.00">install_env</text>
</g>
<!-- LANGENV_IMG&#45;&gt;LANGINSTALLENV_IMG -->
<g id="edge8" class="edge">
<title>LANGENV_IMG&#45;&gt;LANGINSTALLENV_IMG</title>
<path fill="none" stroke="black" d="M1176.88,-729.33C1174.56,-676.94 1169.23,-556.49 1166.57,-496.37"/>
<polygon fill="black" stroke="black" points="1170.06,-496.05 1166.12,-486.22 1163.07,-496.36 1170.06,-496.05"/>
</g>
<!-- LANGENV_TAR -->
<g id="node20" class="node">
<title>LANGENV_TAR</title>
<polygon fill="royalblue" stroke="black" points="1860,-52 1684,-52 1684,-16 1866,-16 1866,-46 1860,-52"/>
<polyline fill="none" stroke="black" points="1860,-52 1860,-46 "/>
<polyline fill="none" stroke="black" points="1866,-46 1860,-46 "/>
<text text-anchor="middle" x="1775" y="-30.3" font-family="Times,serif" font-size="14.00">docker_&lt;lang&gt;_env.tar</text>
</g>
<!-- LANGENV_IMG&#45;&gt;LANGENV_TAR -->
<g id="edge20" class="edge">
<title>LANGENV_IMG&#45;&gt;LANGENV_TAR</title>
<path fill="none" stroke="red" d="M1318.56,-741.62C1477.08,-725.02 1713,-693.55 1713,-653.38 1713,-653.38 1713,-653.38 1713,-458.88 1713,-433.04 1711.65,-426.48 1714,-400.75 1725.7,-272.84 1756.22,-122.14 1769.11,-61.88"/>
<polygon fill="red" stroke="red" points="1772.55,-62.53 1771.24,-52.02 1765.71,-61.06 1772.55,-62.53"/>
<text text-anchor="middle" x="1835" y="-404.55" font-family="Times,serif" font-size="14.00">make save_&lt;distro&gt;_&lt;lang&gt;_env</text>
</g>
<!-- LANGBUILD_IMG -->
<g id="node12" class="node">
<title>LANGBUILD_IMG</title>
<path fill="royalblue" stroke="black" d="M1107.5,-584.6C1107.5,-587.24 1042.28,-589.38 962,-589.38 881.72,-589.38 816.5,-587.24 816.5,-584.6 816.5,-584.6 816.5,-541.65 816.5,-541.65 816.5,-539.01 881.72,-536.87 962,-536.87 1042.28,-536.87 1107.5,-539.01 1107.5,-541.65 1107.5,-541.65 1107.5,-584.6 1107.5,-584.6"/>
<path fill="none" stroke="black" d="M1107.5,-584.6C1107.5,-581.97 1042.28,-579.83 962,-579.83 881.72,-579.83 816.5,-581.97 816.5,-584.6"/>
<text text-anchor="middle" x="962" y="-566.92" font-family="Times,serif" font-size="14.00">ortools/cmake:&lt;distro&gt;_&lt;lang&gt;_build</text>
<text text-anchor="middle" x="962" y="-551.92" font-family="Times,serif" font-size="14.00">build</text>
</g>
<!-- LANGDEVEL_IMG&#45;&gt;LANGBUILD_IMG -->
<g id="edge5" class="edge">
<title>LANGDEVEL_IMG&#45;&gt;LANGBUILD_IMG</title>
<path fill="none" stroke="black" d="M929.31,-626.14C933.88,-617.46 939.09,-607.59 943.98,-598.31"/>
<polygon fill="black" stroke="black" points="947.16,-599.78 948.72,-589.3 940.96,-596.52 947.16,-599.78"/>
</g>
<!-- LANGDEVEL_TAR -->
<g id="node21" class="node">
<title>LANGDEVEL_TAR</title>
<polygon fill="royalblue" stroke="black" points="207.5,-52 16.5,-52 16.5,-16 213.5,-16 213.5,-46 207.5,-52"/>
<polyline fill="none" stroke="black" points="207.5,-52 207.5,-46 "/>
<polyline fill="none" stroke="black" points="213.5,-46 207.5,-46 "/>
<text text-anchor="middle" x="115" y="-30.3" font-family="Times,serif" font-size="14.00">docker_&lt;lang&gt;_devel.tar</text>
</g>
<!-- LANGDEVEL_IMG&#45;&gt;LANGDEVEL_TAR -->
<g id="edge21" class="edge">
<title>LANGDEVEL_IMG&#45;&gt;LANGDEVEL_TAR</title>
<path fill="none" stroke="red" d="M769.22,-651.39C520.27,-649.45 42,-636.32 42,-564.12 42,-564.12 42,-564.12 42,-149.12 42,-113.78 67.16,-80.6 87.93,-59.23"/>
<polygon fill="red" stroke="red" points="90.41,-61.7 95.05,-52.18 85.49,-56.73 90.41,-61.7"/>
<text text-anchor="middle" x="169.5" y="-352.93" font-family="Times,serif" font-size="14.00">make save_&lt;distro&gt;_&lt;lang&gt;_devel</text>
</g>
<!-- LANGTEST_IMG -->
<g id="node13" class="node">
<title>LANGTEST_IMG</title>
<path fill="royalblue" stroke="black" d="M980.5,-481.35C980.5,-483.99 917.08,-486.13 839,-486.13 760.92,-486.13 697.5,-483.99 697.5,-481.35 697.5,-481.35 697.5,-438.4 697.5,-438.4 697.5,-435.76 760.92,-433.62 839,-433.62 917.08,-433.62 980.5,-435.76 980.5,-438.4 980.5,-438.4 980.5,-481.35 980.5,-481.35"/>
<path fill="none" stroke="black" d="M980.5,-481.35C980.5,-478.72 917.08,-476.58 839,-476.58 760.92,-476.58 697.5,-478.72 697.5,-481.35"/>
<text text-anchor="middle" x="839" y="-463.68" font-family="Times,serif" font-size="14.00">ortools/cmake:&lt;distro&gt;_&lt;lang&gt;_test</text>
<text text-anchor="middle" x="839" y="-448.68" font-family="Times,serif" font-size="14.00">test</text>
</g>
<!-- LANGBUILD_IMG&#45;&gt;LANGTEST_IMG -->
<g id="edge6" class="edge">
<title>LANGBUILD_IMG&#45;&gt;LANGTEST_IMG</title>
<path fill="none" stroke="black" d="M931.28,-536.84C914.99,-523.43 894.82,-506.82 877.49,-492.56"/>
<polygon fill="black" stroke="black" points="879.7,-489.85 869.76,-486.19 875.25,-495.25 879.7,-489.85"/>
</g>
<!-- LANGBUILD_IMG&#45;&gt;LANGINSTALLENV_IMG -->
<g id="edge7" class="edge">
<title>LANGBUILD_IMG&#45;&gt;LANGINSTALLENV_IMG</title>
<path fill="none" stroke="black" stroke-dasharray="5,2" d="M1012.44,-536.97C1040.64,-522.9 1075.95,-505.29 1105.5,-490.55"/>
<polygon fill="black" stroke="black" points="1107.08,-493.67 1114.47,-486.08 1103.96,-487.41 1107.08,-493.67"/>
<text text-anchor="middle" x="1116" y="-507.8" font-family="Times,serif" font-size="14.00">copy install</text>
</g>
<!-- LANGBUILD_TAR -->
<g id="node22" class="node">
<title>LANGBUILD_TAR</title>
<polygon fill="royalblue" stroke="black" points="1660,-52 1472,-52 1472,-16 1666,-16 1666,-46 1660,-52"/>
<polyline fill="none" stroke="black" points="1660,-52 1660,-46 "/>
<polyline fill="none" stroke="black" points="1666,-46 1660,-46 "/>
<text text-anchor="middle" x="1569" y="-30.3" font-family="Times,serif" font-size="14.00">docker_&lt;lang&gt;_build.tar</text>
</g>
<!-- LANGBUILD_IMG&#45;&gt;LANGBUILD_TAR -->
<g id="edge22" class="edge">
<title>LANGBUILD_IMG&#45;&gt;LANGBUILD_TAR</title>
<path fill="none" stroke="red" d="M1107.53,-555.78C1226.13,-547.52 1381.05,-528.69 1426,-486 1488.17,-426.96 1406,-357.75 1467,-297.5 1495.4,-269.45 1528.88,-309.69 1555,-279.5 1608.36,-217.81 1589.61,-111.26 1576.85,-61.74"/>
<polygon fill="red" stroke="red" points="1580.23,-60.82 1574.25,-52.07 1573.47,-62.64 1580.23,-60.82"/>
<text text-anchor="middle" x="1593.5" y="-301.3" font-family="Times,serif" font-size="14.00">make save_&lt;distro&gt;_&lt;lang&gt;_build</text>
</g>
<!-- LANGTEST_TAR -->
<g id="node23" class="node">
<title>LANGTEST_TAR</title>
<polygon fill="royalblue" stroke="black" points="412,-52 232,-52 232,-16 418,-16 418,-46 412,-52"/>
<polyline fill="none" stroke="black" points="412,-52 412,-46 "/>
<polyline fill="none" stroke="black" points="418,-46 412,-46 "/>
<text text-anchor="middle" x="325" y="-30.3" font-family="Times,serif" font-size="14.00">docker_&lt;lang&gt;_test.tar</text>
</g>
<!-- LANGTEST_IMG&#45;&gt;LANGTEST_TAR -->
<g id="edge23" class="edge">
<title>LANGTEST_IMG&#45;&gt;LANGTEST_TAR</title>
<path fill="none" stroke="red" d="M697.19,-458.25C545.05,-453.64 325,-433.8 325,-357.62 325,-357.62 325,-357.62 325,-149.12 325,-119.36 325,-85.24 325,-62.11"/>
<polygon fill="red" stroke="red" points="328.5,-62.01 325,-52.01 321.5,-62.02 328.5,-62.01"/>
<text text-anchor="middle" x="447" y="-249.68" font-family="Times,serif" font-size="14.00">make save_&lt;distro&gt;_&lt;lang&gt;_test</text>
</g>
<!-- LANGINSTALLENV_IMG&#45;&gt;LANGINSTALLDEVEL_IMG -->
<g id="edge9" class="edge">
<title>LANGINSTALLENV_IMG&#45;&gt;LANGINSTALLDEVEL_IMG</title>
<path fill="none" stroke="black" d="M1135.03,-433.59C1119.28,-420.3 1099.81,-403.87 1083.01,-389.7"/>
<polygon fill="black" stroke="black" points="1084.91,-386.72 1075.01,-382.94 1080.39,-392.07 1084.91,-386.72"/>
</g>
<!-- LANGINSTALLENV_TAR -->
<g id="node24" class="node">
<title>LANGINSTALLENV_TAR</title>
<polygon fill="royalblue" stroke="black" points="1447.5,-52 1220.5,-52 1220.5,-16 1453.5,-16 1453.5,-46 1447.5,-52"/>
<polyline fill="none" stroke="black" points="1447.5,-52 1447.5,-46 "/>
<polyline fill="none" stroke="black" points="1453.5,-46 1447.5,-46 "/>
<text text-anchor="middle" x="1337" y="-30.3" font-family="Times,serif" font-size="14.00">docker_&lt;lang&gt;_install_env.tar</text>
</g>
<!-- LANGINSTALLENV_IMG&#45;&gt;LANGINSTALLENV_TAR -->
<g id="edge24" class="edge">
<title>LANGINSTALLENV_IMG&#45;&gt;LANGINSTALLENV_TAR</title>
<path fill="none" stroke="red" d="M1190.23,-433.42C1202.71,-419.5 1216.98,-401.34 1226,-382.75 1256.95,-318.92 1223.49,-286.83 1262,-227.25 1282.32,-195.82 1311.2,-209.17 1329,-176.25 1348.25,-140.65 1346.03,-92.36 1342.01,-62.47"/>
<polygon fill="red" stroke="red" points="1345.43,-61.71 1340.48,-52.34 1338.51,-62.75 1345.43,-61.71"/>
<text text-anchor="middle" x="1408.5" y="-249.68" font-family="Times,serif" font-size="14.00">make save_&lt;distro&gt;_&lt;lang&gt;_install_env</text>
</g>
<!-- LANGINSTALLBUILD_IMG -->
<g id="node16" class="node">
<title>LANGINSTALLBUILD_IMG</title>
<path fill="royalblue" stroke="black" d="M1212,-274.85C1212,-277.49 1135.36,-279.63 1041,-279.63 946.64,-279.63 870,-277.49 870,-274.85 870,-274.85 870,-231.9 870,-231.9 870,-229.26 946.64,-227.12 1041,-227.12 1135.36,-227.12 1212,-229.26 1212,-231.9 1212,-231.9 1212,-274.85 1212,-274.85"/>
<path fill="none" stroke="black" d="M1212,-274.85C1212,-272.22 1135.36,-270.08 1041,-270.08 946.64,-270.08 870,-272.22 870,-274.85"/>
<text text-anchor="middle" x="1041" y="-257.18" font-family="Times,serif" font-size="14.00">ortools/cmake:&lt;distro&gt;_&lt;lang&gt;_install_build</text>
<text text-anchor="middle" x="1041" y="-242.18" font-family="Times,serif" font-size="14.00">install_build</text>
</g>
<!-- LANGINSTALLDEVEL_IMG&#45;&gt;LANGINSTALLBUILD_IMG -->
<g id="edge10" class="edge">
<title>LANGINSTALLDEVEL_IMG&#45;&gt;LANGINSTALLBUILD_IMG</title>
<path fill="none" stroke="black" d="M1044,-330.34C1043.52,-318.13 1042.93,-303.29 1042.41,-289.97"/>
<polygon fill="black" stroke="black" points="1045.89,-289.55 1042,-279.69 1038.9,-289.82 1045.89,-289.55"/>
</g>
<!-- LANGINSTALLDEVEL_TAR -->
<g id="node25" class="node">
<title>LANGINSTALLDEVEL_TAR</title>
<polygon fill="royalblue" stroke="black" points="678,-52 436,-52 436,-16 684,-16 684,-46 678,-52"/>
<polyline fill="none" stroke="black" points="678,-52 678,-46 "/>
<polyline fill="none" stroke="black" points="684,-46 678,-46 "/>
<text text-anchor="middle" x="560" y="-30.3" font-family="Times,serif" font-size="14.00">docker_&lt;lang&gt;_install_devel.tar</text>
</g>
<!-- LANGINSTALLDEVEL_IMG&#45;&gt;LANGINSTALLDEVEL_TAR -->
<g id="edge25" class="edge">
<title>LANGINSTALLDEVEL_IMG&#45;&gt;LANGINSTALLDEVEL_TAR</title>
<path fill="none" stroke="red" d="M912.97,-331.34C789.77,-305.81 618.7,-262.06 576,-209.25 542.1,-167.32 547.51,-99.78 554.03,-62.29"/>
<polygon fill="red" stroke="red" points="557.53,-62.6 555.95,-52.12 550.65,-61.29 557.53,-62.6"/>
<text text-anchor="middle" x="729" y="-198.05" font-family="Times,serif" font-size="14.00">make save_&lt;distro&gt;_&lt;lang&gt;_install_devel</text>
</g>
<!-- LANGINSTALLTEST_IMG -->
<g id="node17" class="node">
<title>LANGINSTALLTEST_IMG</title>
<path fill="royalblue" stroke="black" d="M1320,-171.6C1320,-174.24 1245.15,-176.38 1153,-176.38 1060.85,-176.38 986,-174.24 986,-171.6 986,-171.6 986,-128.65 986,-128.65 986,-126.01 1060.85,-123.87 1153,-123.87 1245.15,-123.87 1320,-126.01 1320,-128.65 1320,-128.65 1320,-171.6 1320,-171.6"/>
<path fill="none" stroke="black" d="M1320,-171.6C1320,-168.97 1245.15,-166.83 1153,-166.83 1060.85,-166.83 986,-168.97 986,-171.6"/>
<text text-anchor="middle" x="1153" y="-153.93" font-family="Times,serif" font-size="14.00">ortools/cmake:&lt;distro&gt;_&lt;lang&gt;_install_test</text>
<text text-anchor="middle" x="1153" y="-138.93" font-family="Times,serif" font-size="14.00">install_test</text>
</g>
<!-- LANGINSTALLBUILD_IMG&#45;&gt;LANGINSTALLTEST_IMG -->
<g id="edge11" class="edge">
<title>LANGINSTALLBUILD_IMG&#45;&gt;LANGINSTALLTEST_IMG</title>
<path fill="none" stroke="black" d="M1068.97,-227.09C1083.67,-213.8 1101.84,-197.37 1117.52,-183.2"/>
<polygon fill="black" stroke="black" points="1119.92,-185.74 1125,-176.44 1115.23,-180.55 1119.92,-185.74"/>
</g>
<!-- LANGINSTALLBUILD_TAR -->
<g id="node26" class="node">
<title>LANGINSTALLBUILD_TAR</title>
<polygon fill="royalblue" stroke="black" points="941.5,-52 702.5,-52 702.5,-16 947.5,-16 947.5,-46 941.5,-52"/>
<polyline fill="none" stroke="black" points="941.5,-52 941.5,-46 "/>
<polyline fill="none" stroke="black" points="947.5,-46 941.5,-46 "/>
<text text-anchor="middle" x="825" y="-30.3" font-family="Times,serif" font-size="14.00">docker_&lt;lang&gt;_install_build.tar</text>
</g>
<!-- LANGINSTALLBUILD_IMG&#45;&gt;LANGINSTALLBUILD_TAR -->
<g id="edge26" class="edge">
<title>LANGINSTALLBUILD_IMG&#45;&gt;LANGINSTALLBUILD_TAR</title>
<path fill="none" stroke="red" d="M985.09,-227.16C956.11,-215.18 919.78,-201.86 886,-194.25 862.83,-189.03 689.07,-193.74 673,-176.25 654.88,-156.53 659.22,-138.96 673,-116 690.22,-87.31 721.42,-68.23 751.1,-55.83"/>
<polygon fill="red" stroke="red" points="752.65,-58.98 760.66,-52.04 750.07,-52.48 752.65,-58.98"/>
<text text-anchor="middle" x="825" y="-146.43" font-family="Times,serif" font-size="14.00">make save_&lt;distro&gt;_&lt;lang&gt;_install_build</text>
</g>
<!-- LANGINSTALLTEST_TAR -->
<g id="node27" class="node">
<title>LANGINSTALLTEST_TAR</title>
<polygon fill="royalblue" stroke="black" points="1196.5,-52 965.5,-52 965.5,-16 1202.5,-16 1202.5,-46 1196.5,-52"/>
<polyline fill="none" stroke="black" points="1196.5,-52 1196.5,-46 "/>
<polyline fill="none" stroke="black" points="1202.5,-46 1196.5,-46 "/>
<text text-anchor="middle" x="1084" y="-30.3" font-family="Times,serif" font-size="14.00">docker_&lt;lang&gt;_install_test.tar</text>
</g>
<!-- LANGINSTALLTEST_IMG&#45;&gt;LANGINSTALLTEST_TAR -->
<g id="edge27" class="edge">
<title>LANGINSTALLTEST_IMG&#45;&gt;LANGINSTALLTEST_TAR</title>
<path fill="none" stroke="red" d="M1057.01,-123.89C1050.05,-118.95 1043.87,-113.05 1039,-106 1028.4,-90.66 1039.59,-72.95 1053.45,-59.06"/>
<polygon fill="red" stroke="red" points="1055.91,-61.55 1060.84,-52.17 1051.14,-56.43 1055.91,-61.55"/>
<text text-anchor="middle" x="1186.5" y="-94.8" font-family="Times,serif" font-size="14.00">make save_&lt;distro&gt;_&lt;lang&gt;_install_test</text>
</g>
</g>
</svg>
