<?xml version="1.0" encoding="UTF-8" standalone="no"?>
<!DOCTYPE svg PUBLIC "-//W3C//DTD SVG 1.1//EN"
 "http://www.w3.org/Graphics/SVG/1.1/DTD/svg11.dtd">
<!-- Generated by graphviz version 12.2.1 (0)
 -->
<!-- Title: DockerDeps Pages: 1 -->
<svg width="2371pt" height="1198pt"
 viewBox="0.00 0.00 2370.50 1198.19" xmlns="http://www.w3.org/2000/svg" xmlns:xlink="http://www.w3.org/1999/xlink">
<g id="graph0" class="graph" transform="scale(1 1) rotate(0) translate(4 1194.19)">
<title>DockerDeps</title>
<polygon fill="white" stroke="none" points="-4,4 -4,-1194.19 2366.5,-1194.19 2366.5,4 -4,4"/>
<g id="clust1" class="cluster">
<title>clusterDockerfile</title>
<polygon fill="none" stroke="royalblue" points="1838,-909.31 1838,-1104.44 2080,-1104.44 2080,-909.31 1838,-909.31"/>
<text text-anchor="middle" x="1959" y="-1087.14" font-family="Times,serif" font-size="14.00">docker/&lt;distro&gt;/Dockerfile</text>
</g>
<g id="clust2" class="cluster">
<title>clusterLang</title>
<polygon fill="none" stroke="royalblue" points="729,-120.5 729,-874.06 1377,-874.06 1377,-120.5 729,-120.5"/>
<text text-anchor="middle" x="1053" y="-856.76" font-family="Times,serif" font-size="14.00">docker/&lt;distro&gt;/&lt;lang&gt;.Dockerfile</text>
</g>
<g id="clust3" class="cluster">
<title>clusterCache</title>
<polygon fill="none" stroke="royalblue" points="8,-8 8,-85.25 2161,-85.25 2161,-8 8,-8"/>
<text text-anchor="middle" x="1084.5" y="-67.95" font-family="Times,serif" font-size="14.00">cache/&lt;distro&gt;/</text>
</g>
<!-- DISTRO_IMG -->
<g id="node1" class="node">
<title>DISTRO_IMG</title>
<path fill="royalblue" stroke="black" d="M1947.5,-1183.66C1947.5,-1185.47 1919.04,-1186.94 1884,-1186.94 1848.96,-1186.94 1820.5,-1185.47 1820.5,-1183.66 1820.5,-1183.66 1820.5,-1154.21 1820.5,-1154.21 1820.5,-1152.4 1848.96,-1150.94 1884,-1150.94 1919.04,-1150.94 1947.5,-1152.4 1947.5,-1154.21 1947.5,-1154.21 1947.5,-1183.66 1947.5,-1183.66"/>
<path fill="none" stroke="black" d="M1947.5,-1183.66C1947.5,-1181.86 1919.04,-1180.39 1884,-1180.39 1848.96,-1180.39 1820.5,-1181.86 1820.5,-1183.66"/>
<text text-anchor="middle" x="1884" y="-1164.26" font-family="Times,serif" font-size="14.00">&lt;distro&gt;:latest</text>
</g>
<!-- BASE_IMG -->
<g id="node8" class="node">
<title>BASE_IMG</title>
<path fill="royalblue" stroke="black" d="M2072,-1065.88C2072,-1068.81 2021.35,-1071.19 1959,-1071.19 1896.65,-1071.19 1846,-1068.81 1846,-1065.88 1846,-1065.88 1846,-1018.06 1846,-1018.06 1846,-1015.13 1896.65,-1012.75 1959,-1012.75 2021.35,-1012.75 2072,-1015.13 2072,-1018.06 2072,-1018.06 2072,-1065.88 2072,-1065.88"/>
<path fill="none" stroke="black" d="M2072,-1065.88C2072,-1062.94 2021.35,-1060.56 1959,-1060.56 1896.65,-1060.56 1846,-1062.94 1846,-1065.88"/>
<text text-anchor="middle" x="1959" y="-1045.92" font-family="Times,serif" font-size="14.00">ortools/cmake:&lt;distro&gt;_base</text>
<text text-anchor="middle" x="1959" y="-1028.67" font-family="Times,serif" font-size="14.00">base</text>
</g>
<!-- DISTRO_IMG&#45;&gt;BASE_IMG -->
<g id="edge2" class="edge">
<title>DISTRO_IMG&#45;&gt;BASE_IMG</title>
<path fill="none" stroke="black" d="M1894.43,-1150.56C1905.21,-1132.6 1922.37,-1104 1936.29,-1080.8"/>
<polygon fill="black" stroke="black" points="1939.11,-1082.91 1941.26,-1072.54 1933.11,-1079.31 1939.11,-1082.91"/>
</g>
<!-- PKG -->
<g id="node2" class="node">
<title>PKG</title>
<polygon fill="royalblue" stroke="black" points="2100.25,-1190.19 1969.75,-1190.19 1965.75,-1186.19 1965.75,-1147.69 2096.25,-1147.69 2100.25,-1151.69 2100.25,-1190.19"/>
<polyline fill="none" stroke="black" points="2096.25,-1186.19 1965.75,-1186.19"/>
<polyline fill="none" stroke="black" points="2096.25,-1186.19 2096.25,-1147.69"/>
<polyline fill="none" stroke="black" points="2096.25,-1186.19 2100.25,-1190.19"/>
<text text-anchor="middle" x="2033" y="-1172.89" font-family="Times,serif" font-size="14.00">Build packages</text>
<text text-anchor="middle" x="2033" y="-1155.64" font-family="Times,serif" font-size="14.00">e.g. cmake, g++</text>
</g>
<!-- PKG&#45;&gt;BASE_IMG -->
<g id="edge3" class="edge">
<title>PKG&#45;&gt;BASE_IMG</title>
<path fill="none" stroke="black" stroke-dasharray="5,2" d="M2020.78,-1147.3C2010.17,-1129.39 1994.53,-1102.98 1981.65,-1081.21"/>
<polygon fill="black" stroke="black" points="1984.82,-1079.71 1976.72,-1072.89 1978.8,-1083.28 1984.82,-1079.71"/>
<text text-anchor="middle" x="2031.19" y="-1116.39" font-family="Times,serif" font-size="14.00">install</text>
</g>
<!-- PYPKG -->
<g id="node3" class="node">
<title>PYPKG</title>
<polygon fill="gold" stroke="black" points="1139.38,-967.78 1006.62,-967.78 1002.62,-963.78 1002.62,-925.28 1135.38,-925.28 1139.38,-929.28 1139.38,-967.78"/>
<polyline fill="none" stroke="black" points="1135.38,-963.78 1002.62,-963.78"/>
<polyline fill="none" stroke="black" points="1135.38,-963.78 1135.38,-925.28"/>
<polyline fill="none" stroke="black" points="1135.38,-963.78 1139.38,-967.78"/>
<text text-anchor="middle" x="1071" y="-950.48" font-family="Times,serif" font-size="14.00">Python packages</text>
<text text-anchor="middle" x="1071" y="-933.23" font-family="Times,serif" font-size="14.00">e.g. python&#45;dev</text>
</g>
<!-- LANGENV_IMG -->
<g id="node10" class="node">
<title>LANGENV_IMG</title>
<path fill="royalblue" stroke="black" d="M1356,-835.5C1356,-838.43 1293.25,-840.81 1216,-840.81 1138.75,-840.81 1076,-838.43 1076,-835.5 1076,-835.5 1076,-787.69 1076,-787.69 1076,-784.76 1138.75,-782.38 1216,-782.38 1293.25,-782.38 1356,-784.76 1356,-787.69 1356,-787.69 1356,-835.5 1356,-835.5"/>
<path fill="none" stroke="black" d="M1356,-835.5C1356,-832.57 1293.25,-830.19 1216,-830.19 1138.75,-830.19 1076,-832.57 1076,-835.5"/>
<text text-anchor="middle" x="1216" y="-815.54" font-family="Times,serif" font-size="14.00">ortools/cmake:&lt;distro&gt;_&lt;lang&gt;_env</text>
<text text-anchor="middle" x="1216" y="-798.29" font-family="Times,serif" font-size="14.00">env</text>
</g>
<!-- PYPKG&#45;&gt;LANGENV_IMG -->
<g id="edge13" class="edge">
<title>PYPKG&#45;&gt;LANGENV_IMG</title>
<path fill="none" stroke="black" stroke-dasharray="5,2" d="M1093.34,-925.05C1115.42,-904.81 1149.67,-873.41 1176.37,-848.93"/>
<polygon fill="black" stroke="black" points="1178.63,-851.6 1183.64,-842.27 1173.9,-846.44 1178.63,-851.6"/>
<text text-anchor="middle" x="1161.28" y="-886.01" font-family="Times,serif" font-size="14.00">install</text>
</g>
<!-- JAVAPKG -->
<g id="node4" class="node">
<title>JAVAPKG</title>
<polygon fill="crimson" stroke="black" points="1274.25,-967.78 1161.75,-967.78 1157.75,-963.78 1157.75,-925.28 1270.25,-925.28 1274.25,-929.28 1274.25,-967.78"/>
<polyline fill="none" stroke="black" points="1270.25,-963.78 1157.75,-963.78"/>
<polyline fill="none" stroke="black" points="1270.25,-963.78 1270.25,-925.28"/>
<polyline fill="none" stroke="black" points="1270.25,-963.78 1274.25,-967.78"/>
<text text-anchor="middle" x="1216" y="-950.48" font-family="Times,serif" font-size="14.00">Java packages</text>
<text text-anchor="middle" x="1216" y="-933.23" font-family="Times,serif" font-size="14.00">e.g. openjdk</text>
</g>
<!-- JAVAPKG&#45;&gt;LANGENV_IMG -->
<g id="edge14" class="edge">
<title>JAVAPKG&#45;&gt;LANGENV_IMG</title>
<path fill="none" stroke="black" stroke-dasharray="5,2" d="M1216,-925.05C1216,-905.77 1216,-876.37 1216,-852.47"/>
<polygon fill="black" stroke="black" points="1219.5,-852.76 1216,-842.76 1212.5,-852.76 1219.5,-852.76"/>
<text text-anchor="middle" x="1238.12" y="-886.01" font-family="Times,serif" font-size="14.00">install</text>
</g>
<!-- DOTNETPKG -->
<g id="node5" class="node">
<title>DOTNETPKG</title>
<polygon fill="forestgreen" stroke="black" points="1409.62,-967.78 1296.38,-967.78 1292.38,-963.78 1292.38,-925.28 1405.62,-925.28 1409.62,-929.28 1409.62,-967.78"/>
<polyline fill="none" stroke="black" points="1405.62,-963.78 1292.38,-963.78"/>
<polyline fill="none" stroke="black" points="1405.62,-963.78 1405.62,-925.28"/>
<polyline fill="none" stroke="black" points="1405.62,-963.78 1409.62,-967.78"/>
<text text-anchor="middle" x="1351" y="-950.48" font-family="Times,serif" font-size="14.00">.Net packages</text>
<text text-anchor="middle" x="1351" y="-933.23" font-family="Times,serif" font-size="14.00">e.g. dotnet&#45;cli</text>
</g>
<!-- DOTNETPKG&#45;&gt;LANGENV_IMG -->
<g id="edge15" class="edge">
<title>DOTNETPKG&#45;&gt;LANGENV_IMG</title>
<path fill="none" stroke="black" stroke-dasharray="5,2" d="M1330.2,-925.05C1309.74,-904.9 1278.03,-873.68 1253.22,-849.24"/>
<polygon fill="black" stroke="black" points="1255.75,-846.83 1246.17,-842.3 1250.84,-851.81 1255.75,-846.83"/>
<text text-anchor="middle" x="1325.61" y="-886.01" font-family="Times,serif" font-size="14.00">install</text>
</g>
<!-- SRC -->
<g id="node6" class="node">
<title>SRC</title>
<polygon fill="royalblue" stroke="black" points="721.12,-829.59 718.12,-833.59 697.12,-833.59 694.12,-829.59 648.88,-829.59 648.88,-793.59 721.12,-793.59 721.12,-829.59"/>
<text text-anchor="middle" x="685" y="-806.92" font-family="Times,serif" font-size="14.00">git repo</text>
</g>
<!-- LANGDEVEL_IMG -->
<g id="node11" class="node">
<title>LANGDEVEL_IMG</title>
<path fill="royalblue" stroke="black" d="M1107.38,-723.81C1107.38,-726.74 1041.77,-729.12 961,-729.12 880.23,-729.12 814.62,-726.74 814.62,-723.81 814.62,-723.81 814.62,-676 814.62,-676 814.62,-673.07 880.23,-670.69 961,-670.69 1041.77,-670.69 1107.38,-673.07 1107.38,-676 1107.38,-676 1107.38,-723.81 1107.38,-723.81"/>
<path fill="none" stroke="black" d="M1107.38,-723.81C1107.38,-720.88 1041.77,-718.5 961,-718.5 880.23,-718.5 814.62,-720.88 814.62,-723.81"/>
<text text-anchor="middle" x="961" y="-703.86" font-family="Times,serif" font-size="14.00">ortools/cmake:&lt;distro&gt;_&lt;lang&gt;_devel</text>
<text text-anchor="middle" x="961" y="-686.61" font-family="Times,serif" font-size="14.00">devel</text>
</g>
<!-- SRC&#45;&gt;LANGDEVEL_IMG -->
<g id="edge16" class="edge">
<title>SRC&#45;&gt;LANGDEVEL_IMG</title>
<path fill="none" stroke="black" stroke-dasharray="5,2" d="M707.14,-793.32C712.77,-789.39 718.95,-785.47 725,-782.38 763.96,-762.42 808.91,-745.53 849.06,-732.39"/>
<polygon fill="black" stroke="black" points="850.09,-735.74 858.53,-729.34 847.94,-729.07 850.09,-735.74"/>
<text text-anchor="middle" x="816.83" y="-751.08" font-family="Times,serif" font-size="14.00">copy</text>
</g>
<!-- SAMPLE -->
<g id="node7" class="node">
<title>SAMPLE</title>
<polygon fill="royalblue" stroke="black" points="1453.5,-510.78 1450.5,-514.78 1429.5,-514.78 1426.5,-510.78 1386.5,-510.78 1386.5,-474.78 1453.5,-474.78 1453.5,-510.78"/>
<text text-anchor="middle" x="1420" y="-488.11" font-family="Times,serif" font-size="14.00">sample</text>
</g>
<!-- LANGINSTALLDEVEL_IMG -->
<g id="node15" class="node">
<title>LANGINSTALLDEVEL_IMG</title>
<path fill="royalblue" stroke="black" d="M1211.88,-405C1211.88,-407.93 1134.84,-410.31 1040,-410.31 945.16,-410.31 868.12,-407.93 868.12,-405 868.12,-405 868.12,-357.19 868.12,-357.19 868.12,-354.26 945.16,-351.88 1040,-351.88 1134.84,-351.88 1211.88,-354.26 1211.88,-357.19 1211.88,-357.19 1211.88,-405 1211.88,-405"/>
<path fill="none" stroke="black" d="M1211.88,-405C1211.88,-402.07 1134.84,-399.69 1040,-399.69 945.16,-399.69 868.12,-402.07 868.12,-405"/>
<text text-anchor="middle" x="1040" y="-385.04" font-family="Times,serif" font-size="14.00">ortools/cmake:&lt;distro&gt;_&lt;lang&gt;_install_devel</text>
<text text-anchor="middle" x="1040" y="-367.79" font-family="Times,serif" font-size="14.00">install_devel</text>
</g>
<!-- SAMPLE&#45;&gt;LANGINSTALLDEVEL_IMG -->
<g id="edge17" class="edge">
<title>SAMPLE&#45;&gt;LANGINSTALLDEVEL_IMG</title>
<path fill="none" stroke="black" stroke-dasharray="5,2" d="M1399.07,-474.36C1393.47,-470.34 1387.23,-466.42 1381,-463.56 1330.41,-440.34 1272.45,-423.31 1218.84,-411.01"/>
<polygon fill="black" stroke="black" points="1219.83,-407.65 1209.31,-408.87 1218.3,-414.48 1219.83,-407.65"/>
<text text-anchor="middle" x="1353.54" y="-432.26" font-family="Times,serif" font-size="14.00">copy</text>
</g>
<!-- SWIG_IMG -->
<g id="node9" class="node">
<title>SWIG_IMG</title>
<path fill="royalblue" stroke="black" d="M2072,-970.44C2072,-973.37 2021.35,-975.75 1959,-975.75 1896.65,-975.75 1846,-973.37 1846,-970.44 1846,-970.44 1846,-922.62 1846,-922.62 1846,-919.69 1896.65,-917.31 1959,-917.31 2021.35,-917.31 2072,-919.69 2072,-922.62 2072,-922.62 2072,-970.44 2072,-970.44"/>
<path fill="none" stroke="black" d="M2072,-970.44C2072,-967.51 2021.35,-965.12 1959,-965.12 1896.65,-965.12 1846,-967.51 1846,-970.44"/>
<text text-anchor="middle" x="1959" y="-950.48" font-family="Times,serif" font-size="14.00">ortools/cmake:&lt;distro&gt;_swig</text>
<text text-anchor="middle" x="1959" y="-933.23" font-family="Times,serif" font-size="14.00">swig</text>
</g>
<!-- BASE_IMG&#45;&gt;SWIG_IMG -->
<g id="edge1" class="edge">
<title>BASE_IMG&#45;&gt;SWIG_IMG</title>
<path fill="none" stroke="black" d="M1959,-1012.43C1959,-1004.62 1959,-996.01 1959,-987.69"/>
<polygon fill="black" stroke="black" points="1962.5,-987.73 1959,-977.73 1955.5,-987.73 1962.5,-987.73"/>
</g>
<!-- BASE_TAR -->
<g id="node18" class="node">
<title>BASE_TAR</title>
<polygon fill="royalblue" stroke="black" points="2146.62,-52 2023.38,-52 2023.38,-16 2152.62,-16 2152.62,-46 2146.62,-52"/>
<polyline fill="none" stroke="black" points="2146.62,-52 2146.62,-46"/>
<polyline fill="none" stroke="black" points="2152.62,-46 2146.62,-46"/>
<text text-anchor="middle" x="2088" y="-29.32" font-family="Times,serif" font-size="14.00">docker_base.tar</text>
</g>
<!-- BASE_IMG&#45;&gt;BASE_TAR -->
<g id="edge18" class="edge">
<title>BASE_IMG&#45;&gt;BASE_TAR</title>
<path fill="none" stroke="red" d="M2072.38,-1032.41C2124.53,-1021.61 2175,-998.09 2175,-947.53 2175,-947.53 2175,-947.53 2175,-156.72 2175,-117.45 2144.66,-82.11 2119.81,-59.76"/>
<polygon fill="red" stroke="red" points="2122.31,-57.29 2112.46,-53.4 2117.73,-62.59 2122.31,-57.29"/>
<text text-anchor="middle" x="2268.75" y="-543.95" font-family="Times,serif" font-size="14.00">make save_&lt;distro&gt;_base</text>
</g>
<!-- SWIG_IMG&#45;&gt;LANGENV_IMG -->
<g id="edge12" class="edge">
<title>SWIG_IMG&#45;&gt;LANGENV_IMG</title>
<path fill="none" stroke="black" d="M1845.75,-925.27C1717.87,-902.39 1509.17,-865.05 1367.39,-839.68"/>
<polygon fill="black" stroke="black" points="1368.39,-836.3 1357.93,-837.99 1367.16,-843.2 1368.39,-836.3"/>
</g>
<!-- SWIG_TAR -->
<g id="node19" class="node">
<title>SWIG_TAR</title>
<polygon fill="royalblue" stroke="black" points="1999.62,-52 1876.38,-52 1876.38,-16 2005.62,-16 2005.62,-46 1999.62,-52"/>
<polyline fill="none" stroke="black" points="1999.62,-52 1999.62,-46"/>
<polyline fill="none" stroke="black" points="2005.62,-46 1999.62,-46"/>
<text text-anchor="middle" x="1941" y="-29.32" font-family="Times,serif" font-size="14.00">docker_swig.tar</text>
</g>
<!-- SWIG_IMG&#45;&gt;SWIG_TAR -->
<g id="edge19" class="edge">
<title>SWIG_IMG&#45;&gt;SWIG_TAR</title>
<path fill="none" stroke="red" d="M1959,-917.01C1959,-890.09 1959,-848.6 1959,-812.59 1959,-812.59 1959,-812.59 1959,-156.72 1959,-124.41 1952.72,-87.79 1947.57,-63.23"/>
<polygon fill="red" stroke="red" points="1951.05,-62.72 1945.5,-53.69 1944.21,-64.21 1951.05,-62.72"/>
<text text-anchor="middle" x="2052.75" y="-488.11" font-family="Times,serif" font-size="14.00">make save_&lt;distro&gt;_swig</text>
</g>
<!-- LANGENV_IMG&#45;&gt;LANGDEVEL_IMG -->
<g id="edge4" class="edge">
<title>LANGENV_IMG&#45;&gt;LANGDEVEL_IMG</title>
<path fill="none" stroke="black" d="M1149.33,-781.92C1115.22,-767.24 1073.52,-749.3 1038.03,-734.04"/>
<polygon fill="black" stroke="black" points="1039.68,-730.94 1029.11,-730.2 1036.91,-737.37 1039.68,-730.94"/>
</g>
<!-- LANGINSTALLENV_IMG -->
<g id="node14" class="node">
<title>LANGINSTALLENV_IMG</title>
<path fill="royalblue" stroke="black" d="M1368.5,-516.69C1368.5,-519.62 1294.32,-522 1203,-522 1111.68,-522 1037.5,-519.62 1037.5,-516.69 1037.5,-516.69 1037.5,-468.88 1037.5,-468.88 1037.5,-465.94 1111.68,-463.56 1203,-463.56 1294.32,-463.56 1368.5,-465.94 1368.5,-468.88 1368.5,-468.88 1368.5,-516.69 1368.5,-516.69"/>
<path fill="none" stroke="black" d="M1368.5,-516.69C1368.5,-513.76 1294.32,-511.38 1203,-511.38 1111.68,-511.38 1037.5,-513.76 1037.5,-516.69"/>
<text text-anchor="middle" x="1203" y="-496.73" font-family="Times,serif" font-size="14.00">ortools/cmake:&lt;distro&gt;_&lt;lang&gt;_install_env</text>
<text text-anchor="middle" x="1203" y="-479.48" font-family="Times,serif" font-size="14.00">install_env</text>
</g>
<!-- LANGENV_IMG&#45;&gt;LANGINSTALLENV_IMG -->
<g id="edge8" class="edge">
<title>LANGENV_IMG&#45;&gt;LANGINSTALLENV_IMG</title>
<path fill="none" stroke="black" d="M1214.82,-781.92C1212.49,-725.14 1207.29,-598.28 1204.63,-533.5"/>
<polygon fill="black" stroke="black" points="1208.13,-533.52 1204.23,-523.67 1201.14,-533.81 1208.13,-533.52"/>
</g>
<!-- LANGENV_TAR -->
<g id="node20" class="node">
<title>LANGENV_TAR</title>
<polygon fill="royalblue" stroke="black" points="1852.5,-52 1677.5,-52 1677.5,-16 1858.5,-16 1858.5,-46 1852.5,-52"/>
<polyline fill="none" stroke="black" points="1852.5,-52 1852.5,-46"/>
<polyline fill="none" stroke="black" points="1858.5,-46 1852.5,-46"/>
<text text-anchor="middle" x="1768" y="-29.32" font-family="Times,serif" font-size="14.00">docker_&lt;lang&gt;_env.tar</text>
</g>
<!-- LANGENV_IMG&#45;&gt;LANGENV_TAR -->
<g id="edge20" class="edge">
<title>LANGENV_IMG&#45;&gt;LANGENV_TAR</title>
<path fill="none" stroke="red" d="M1356.25,-805.94C1499.8,-797.24 1702,-772.32 1702,-700.91 1702,-700.91 1702,-700.91 1702,-491.78 1702,-463.57 1697.01,-455.77 1703.5,-428.31 1714.17,-383.16 1736.36,-378.79 1748,-333.88 1773.05,-237.2 1771.77,-117.38 1769.57,-63.54"/>
<polygon fill="red" stroke="red" points="1773.07,-63.55 1769.12,-53.72 1766.08,-63.87 1773.07,-63.55"/>
<text text-anchor="middle" x="1824.25" y="-432.26" font-family="Times,serif" font-size="14.00">make save_&lt;distro&gt;_&lt;lang&gt;_env</text>
</g>
<!-- LANGBUILD_IMG -->
<g id="node12" class="node">
<title>LANGBUILD_IMG</title>
<path fill="royalblue" stroke="black" d="M1149.25,-628.38C1149.25,-631.31 1084.15,-633.69 1004,-633.69 923.85,-633.69 858.75,-631.31 858.75,-628.38 858.75,-628.38 858.75,-580.56 858.75,-580.56 858.75,-577.63 923.85,-575.25 1004,-575.25 1084.15,-575.25 1149.25,-577.63 1149.25,-580.56 1149.25,-580.56 1149.25,-628.38 1149.25,-628.38"/>
<path fill="none" stroke="black" d="M1149.25,-628.38C1149.25,-625.44 1084.15,-623.06 1004,-623.06 923.85,-623.06 858.75,-625.44 858.75,-628.38"/>
<text text-anchor="middle" x="1004" y="-608.42" font-family="Times,serif" font-size="14.00">ortools/cmake:&lt;distro&gt;_&lt;lang&gt;_build</text>
<text text-anchor="middle" x="1004" y="-591.17" font-family="Times,serif" font-size="14.00">build</text>
</g>
<!-- LANGDEVEL_IMG&#45;&gt;LANGBUILD_IMG -->
<g id="edge5" class="edge">
<title>LANGDEVEL_IMG&#45;&gt;LANGBUILD_IMG</title>
<path fill="none" stroke="black" d="M974.14,-670.36C977.89,-662.2 982.05,-653.16 986.05,-644.48"/>
<polygon fill="black" stroke="black" points="989.16,-646.08 990.16,-635.53 982.8,-643.15 989.16,-646.08"/>
</g>
<!-- LANGDEVEL_TAR -->
<g id="node21" class="node">
<title>LANGDEVEL_TAR</title>
<polygon fill="royalblue" stroke="black" points="206,-52 16,-52 16,-16 212,-16 212,-46 206,-52"/>
<polyline fill="none" stroke="black" points="206,-52 206,-46"/>
<polyline fill="none" stroke="black" points="212,-46 206,-46"/>
<text text-anchor="middle" x="114" y="-29.32" font-family="Times,serif" font-size="14.00">docker_&lt;lang&gt;_devel.tar</text>
</g>
<!-- LANGDEVEL_IMG&#45;&gt;LANGDEVEL_TAR -->
<g id="edge21" class="edge">
<title>LANGDEVEL_IMG&#45;&gt;LANGDEVEL_TAR</title>
<path fill="none" stroke="red" d="M814.21,-698.73C554.46,-696.45 41,-682.23 41,-605.47 41,-605.47 41,-605.47 41,-156.72 41,-119.36 66.61,-83.55 87.49,-60.57"/>
<polygon fill="red" stroke="red" points="89.84,-63.18 94.16,-53.51 84.75,-58.37 89.84,-63.18"/>
<text text-anchor="middle" x="168.12" y="-376.42" font-family="Times,serif" font-size="14.00">make save_&lt;distro&gt;_&lt;lang&gt;_devel</text>
</g>
<!-- LANGTEST_IMG -->
<g id="node13" class="node">
<title>LANGTEST_IMG</title>
<path fill="royalblue" stroke="black" d="M1019.12,-516.69C1019.12,-519.62 955.87,-522 878,-522 800.13,-522 736.88,-519.62 736.88,-516.69 736.88,-516.69 736.88,-468.88 736.88,-468.88 736.88,-465.94 800.13,-463.56 878,-463.56 955.87,-463.56 1019.12,-465.94 1019.12,-468.88 1019.12,-468.88 1019.12,-516.69 1019.12,-516.69"/>
<path fill="none" stroke="black" d="M1019.12,-516.69C1019.12,-513.76 955.87,-511.38 878,-511.38 800.13,-511.38 736.88,-513.76 736.88,-516.69"/>
<text text-anchor="middle" x="878" y="-496.73" font-family="Times,serif" font-size="14.00">ortools/cmake:&lt;distro&gt;_&lt;lang&gt;_test</text>
<text text-anchor="middle" x="878" y="-479.48" font-family="Times,serif" font-size="14.00">test</text>
</g>
<!-- LANGBUILD_IMG&#45;&gt;LANGTEST_IMG -->
<g id="edge6" class="edge">
<title>LANGBUILD_IMG&#45;&gt;LANGTEST_IMG</title>
<path fill="none" stroke="black" d="M971.22,-574.94C955.33,-561.1 936.07,-544.33 919.19,-529.64"/>
<polygon fill="black" stroke="black" points="921.59,-527.09 911.75,-523.16 917,-532.37 921.59,-527.09"/>
</g>
<!-- LANGBUILD_IMG&#45;&gt;LANGINSTALLENV_IMG -->
<g id="edge7" class="edge">
<title>LANGBUILD_IMG&#45;&gt;LANGINSTALLENV_IMG</title>
<path fill="none" stroke="black" stroke-dasharray="5,2" d="M1056.02,-574.79C1082.08,-560.43 1113.8,-542.95 1141.1,-527.9"/>
<polygon fill="black" stroke="black" points="1142.54,-531.1 1149.61,-523.21 1139.16,-524.97 1142.54,-531.1"/>
<text text-anchor="middle" x="1156.29" y="-543.95" font-family="Times,serif" font-size="14.00">copy install</text>
</g>
<!-- LANGBUILD_TAR -->
<g id="node22" class="node">
<title>LANGBUILD_TAR</title>
<polygon fill="royalblue" stroke="black" points="1653.88,-52 1466.12,-52 1466.12,-16 1659.88,-16 1659.88,-46 1653.88,-52"/>
<polyline fill="none" stroke="black" points="1653.88,-52 1653.88,-46"/>
<polyline fill="none" stroke="black" points="1659.88,-46 1653.88,-46"/>
<text text-anchor="middle" x="1563" y="-29.32" font-family="Times,serif" font-size="14.00">docker_&lt;lang&gt;_build.tar</text>
</g>
<!-- LANGBUILD_IMG&#45;&gt;LANGBUILD_TAR -->
<g id="edge22" class="edge">
<title>LANGBUILD_IMG&#45;&gt;LANGBUILD_TAR</title>
<path fill="none" stroke="red" d="M1149.52,-595.67C1267.15,-586.21 1420.01,-565.7 1463,-522 1527.83,-456.1 1436.35,-387.25 1496,-316.62 1512.05,-297.62 1533.98,-318.46 1549,-298.62 1602.01,-228.63 1583.52,-115.76 1570.86,-63.38"/>
<polygon fill="red" stroke="red" points="1574.27,-62.59 1568.41,-53.76 1567.48,-64.32 1574.27,-62.59"/>
<text text-anchor="middle" x="1622" y="-320.57" font-family="Times,serif" font-size="14.00">make save_&lt;distro&gt;_&lt;lang&gt;_build</text>
</g>
<!-- LANGTEST_TAR -->
<g id="node23" class="node">
<title>LANGTEST_TAR</title>
<polygon fill="royalblue" stroke="black" points="409.75,-52 230.25,-52 230.25,-16 415.75,-16 415.75,-46 409.75,-52"/>
<polyline fill="none" stroke="black" points="409.75,-52 409.75,-46"/>
<polyline fill="none" stroke="black" points="415.75,-46 409.75,-46"/>
<text text-anchor="middle" x="323" y="-29.32" font-family="Times,serif" font-size="14.00">docker_&lt;lang&gt;_test.tar</text>
</g>
<!-- LANGTEST_IMG&#45;&gt;LANGTEST_TAR -->
<g id="edge23" class="edge">
<title>LANGTEST_IMG&#45;&gt;LANGTEST_TAR</title>
<path fill="none" stroke="red" d="M736.51,-491.35C572.08,-486.92 323,-466.32 323,-382.09 323,-382.09 323,-382.09 323,-156.72 323,-124.9 323,-88.41 323,-63.74"/>
<polygon fill="red" stroke="red" points="326.5,-63.85 323,-53.85 319.5,-63.85 326.5,-63.85"/>
<text text-anchor="middle" x="444.88" y="-264.73" font-family="Times,serif" font-size="14.00">make save_&lt;distro&gt;_&lt;lang&gt;_test</text>
</g>
<!-- LANGINSTALLENV_IMG&#45;&gt;LANGINSTALLDEVEL_IMG -->
<g id="edge9" class="edge">
<title>LANGINSTALLENV_IMG&#45;&gt;LANGINSTALLDEVEL_IMG</title>
<path fill="none" stroke="black" d="M1160.6,-463.25C1139.55,-449.09 1113.95,-431.85 1091.75,-416.92"/>
<polygon fill="black" stroke="black" points="1093.98,-414.2 1083.73,-411.52 1090.07,-420.01 1093.98,-414.2"/>
</g>
<!-- LANGINSTALLENV_TAR -->
<g id="node24" class="node">
<title>LANGINSTALLENV_TAR</title>
<polygon fill="royalblue" stroke="black" points="1442,-52 1216,-52 1216,-16 1448,-16 1448,-46 1442,-52"/>
<polyline fill="none" stroke="black" points="1442,-52 1442,-46"/>
<polyline fill="none" stroke="black" points="1448,-46 1442,-46"/>
<text text-anchor="middle" x="1332" y="-29.32" font-family="Times,serif" font-size="14.00">docker_&lt;lang&gt;_install_env.tar</text>
</g>
<!-- LANGINSTALLENV_IMG&#45;&gt;LANGINSTALLENV_TAR -->
<g id="edge24" class="edge">
<title>LANGINSTALLENV_IMG&#45;&gt;LANGINSTALLENV_TAR</title>
<path fill="none" stroke="red" d="M1209.41,-463.14C1212.89,-447.54 1217.23,-427.87 1221,-410.31 1237.22,-334.8 1212.27,-303.51 1256.5,-240.19 1282.14,-203.49 1319,-225.35 1342,-186.94 1364.84,-148.8 1353.36,-95.2 1342.79,-62.91"/>
<polygon fill="red" stroke="red" points="1346.23,-62.17 1339.64,-53.87 1339.62,-64.46 1346.23,-62.17"/>
<text text-anchor="middle" x="1402.75" y="-264.73" font-family="Times,serif" font-size="14.00">make save_&lt;distro&gt;_&lt;lang&gt;_install_env</text>
</g>
<!-- LANGINSTALLBUILD_IMG -->
<g id="node16" class="node">
<title>LANGINSTALLBUILD_IMG</title>
<path fill="royalblue" stroke="black" d="M1205.75,-293.31C1205.75,-296.24 1129.22,-298.62 1035,-298.62 940.78,-298.62 864.25,-296.24 864.25,-293.31 864.25,-293.31 864.25,-245.5 864.25,-245.5 864.25,-242.57 940.78,-240.19 1035,-240.19 1129.22,-240.19 1205.75,-242.57 1205.75,-245.5 1205.75,-245.5 1205.75,-293.31 1205.75,-293.31"/>
<path fill="none" stroke="black" d="M1205.75,-293.31C1205.75,-290.38 1129.22,-288 1035,-288 940.78,-288 864.25,-290.38 864.25,-293.31"/>
<text text-anchor="middle" x="1035" y="-273.36" font-family="Times,serif" font-size="14.00">ortools/cmake:&lt;distro&gt;_&lt;lang&gt;_install_build</text>
<text text-anchor="middle" x="1035" y="-256.11" font-family="Times,serif" font-size="14.00">install_build</text>
</g>
<!-- LANGINSTALLDEVEL_IMG&#45;&gt;LANGINSTALLBUILD_IMG -->
<g id="edge10" class="edge">
<title>LANGINSTALLDEVEL_IMG&#45;&gt;LANGINSTALLBUILD_IMG</title>
<path fill="none" stroke="black" d="M1038.7,-351.56C1038.12,-338.87 1037.43,-323.71 1036.8,-309.94"/>
<polygon fill="black" stroke="black" points="1040.31,-310.14 1036.36,-300.31 1033.32,-310.46 1040.31,-310.14"/>
</g>
<!-- LANGINSTALLDEVEL_TAR -->
<g id="node25" class="node">
<title>LANGINSTALLDEVEL_TAR</title>
<polygon fill="royalblue" stroke="black" points="674.5,-52 433.5,-52 433.5,-16 680.5,-16 680.5,-46 674.5,-52"/>
<polyline fill="none" stroke="black" points="674.5,-52 674.5,-46"/>
<polyline fill="none" stroke="black" points="680.5,-46 674.5,-46"/>
<text text-anchor="middle" x="557" y="-29.32" font-family="Times,serif" font-size="14.00">docker_&lt;lang&gt;_install_devel.tar</text>
</g>
<!-- LANGINSTALLDEVEL_IMG&#45;&gt;LANGINSTALLDEVEL_TAR -->
<g id="edge25" class="edge">
<title>LANGINSTALLDEVEL_IMG&#45;&gt;LANGINSTALLDEVEL_TAR</title>
<path fill="none" stroke="red" d="M867.82,-367.71C765.65,-350.74 642.77,-311.59 572.75,-222.19 536.86,-176.37 543.36,-103.46 550.58,-63.5"/>
<polygon fill="red" stroke="red" points="553.97,-64.43 552.46,-53.94 547.1,-63.08 553.97,-64.43"/>
<text text-anchor="middle" x="725.38" y="-208.89" font-family="Times,serif" font-size="14.00">make save_&lt;distro&gt;_&lt;lang&gt;_install_devel</text>
</g>
<!-- LANGINSTALLTEST_IMG -->
<g id="node17" class="node">
<title>LANGINSTALLTEST_IMG</title>
<path fill="royalblue" stroke="black" d="M1332.62,-181.62C1332.62,-184.56 1257.94,-186.94 1166,-186.94 1074.06,-186.94 999.38,-184.56 999.38,-181.62 999.38,-181.62 999.38,-133.81 999.38,-133.81 999.38,-130.88 1074.06,-128.5 1166,-128.5 1257.94,-128.5 1332.62,-130.88 1332.62,-133.81 1332.62,-133.81 1332.62,-181.62 1332.62,-181.62"/>
<path fill="none" stroke="black" d="M1332.62,-181.62C1332.62,-178.69 1257.94,-176.31 1166,-176.31 1074.06,-176.31 999.38,-178.69 999.38,-181.62"/>
<text text-anchor="middle" x="1166" y="-161.67" font-family="Times,serif" font-size="14.00">ortools/cmake:&lt;distro&gt;_&lt;lang&gt;_install_test</text>
<text text-anchor="middle" x="1166" y="-144.42" font-family="Times,serif" font-size="14.00">install_test</text>
</g>
<!-- LANGINSTALLBUILD_IMG&#45;&gt;LANGINSTALLTEST_IMG -->
<g id="edge11" class="edge">
<title>LANGINSTALLBUILD_IMG&#45;&gt;LANGINSTALLTEST_IMG</title>
<path fill="none" stroke="black" d="M1069.08,-239.87C1085.75,-225.91 1106,-208.96 1123.66,-194.17"/>
<polygon fill="black" stroke="black" points="1125.51,-197.18 1130.93,-188.08 1121.02,-191.82 1125.51,-197.18"/>
</g>
<!-- LANGINSTALLBUILD_TAR -->
<g id="node26" class="node">
<title>LANGINSTALLBUILD_TAR</title>
<polygon fill="royalblue" stroke="black" points="937.38,-52 698.62,-52 698.62,-16 943.38,-16 943.38,-46 937.38,-52"/>
<polyline fill="none" stroke="black" points="937.38,-52 937.38,-46"/>
<polyline fill="none" stroke="black" points="943.38,-46 937.38,-46"/>
<text text-anchor="middle" x="821" y="-29.32" font-family="Times,serif" font-size="14.00">docker_&lt;lang&gt;_install_build.tar</text>
</g>
<!-- LANGINSTALLBUILD_IMG&#45;&gt;LANGINSTALLBUILD_TAR -->
<g id="edge26" class="edge">
<title>LANGINSTALLBUILD_IMG&#45;&gt;LANGINSTALLBUILD_TAR</title>
<path fill="none" stroke="red" d="M977.55,-239.74C949.43,-226.97 914.66,-213.02 882,-204.94 839.76,-194.48 716.32,-219.09 687,-186.94 667.1,-165.12 672.81,-146.39 687,-120.5 702.95,-91.4 733.48,-70.78 761.37,-57.09"/>
<polygon fill="red" stroke="red" points="762.55,-60.4 770.12,-52.99 759.58,-54.06 762.55,-60.4"/>
<text text-anchor="middle" x="838.5" y="-153.04" font-family="Times,serif" font-size="14.00">make save_&lt;distro&gt;_&lt;lang&gt;_install_build</text>
</g>
<!-- LANGINSTALLTEST_TAR -->
<g id="node27" class="node">
<title>LANGINSTALLTEST_TAR</title>
<polygon fill="royalblue" stroke="black" points="1192.25,-52 961.75,-52 961.75,-16 1198.25,-16 1198.25,-46 1192.25,-52"/>
<polyline fill="none" stroke="black" points="1192.25,-52 1192.25,-46"/>
<polyline fill="none" stroke="black" points="1198.25,-46 1192.25,-46"/>
<text text-anchor="middle" x="1080" y="-29.32" font-family="Times,serif" font-size="14.00">docker_&lt;lang&gt;_install_test.tar</text>
</g>
<!-- LANGINSTALLTEST_IMG&#45;&gt;LANGINSTALLTEST_TAR -->
<g id="edge27" class="edge">
<title>LANGINSTALLTEST_IMG&#45;&gt;LANGINSTALLTEST_TAR</title>
<path fill="none" stroke="red" d="M1069.37,-128.26C1062.76,-123.26 1056.89,-117.4 1052.25,-110.5 1042.27,-95.67 1049.2,-76.81 1058.63,-61.64"/>
<polygon fill="red" stroke="red" points="1061.42,-63.76 1064.18,-53.54 1055.64,-59.81 1061.42,-63.76"/>
<text text-anchor="middle" x="1199.62" y="-97.2" font-family="Times,serif" font-size="14.00">make save_&lt;distro&gt;_&lt;lang&gt;_install_test</text>
</g>
</g>
</svg>
