<?xml version="1.0" encoding="UTF-8" standalone="no"?>
<!DOCTYPE svg PUBLIC "-//W3C//DTD SVG 1.1//EN"
 "http://www.w3.org/Graphics/SVG/1.1/DTD/svg11.dtd">
<!-- Generated by graphviz version 2.43.0 (0)
 -->
<!-- Title: DockerDeps Pages: 1 -->
<svg width="1703pt" height="856pt"
 viewBox="0.00 0.00 1703.00 856.25" xmlns="http://www.w3.org/2000/svg" xmlns:xlink="http://www.w3.org/1999/xlink">
<g id="graph0" class="graph" transform="scale(1 1) rotate(0) translate(4 852.25)">
<title>DockerDeps</title>
<polygon fill="white" stroke="transparent" points="-4,4 -4,-852.25 1699,-852.25 1699,4 -4,4"/>
<g id="clust1" class="cluster">
<title>clusterDocker</title>
<polygon fill="none" stroke="royalblue" points="8,-8 8,-730.25 1018,-730.25 1018,-8 8,-8"/>
<text text-anchor="middle" x="513" y="-715.05" font-family="Times,serif" font-size="14.00">images/&lt;distro&gt;.Dockerfile</text>
</g>
<g id="clust2" class="cluster">
<title>clusterArchive</title>
<polygon fill="none" stroke="royalblue" points="48,-134.38 48,-209.38 988,-209.38 988,-134.38 48,-134.38"/>
<text text-anchor="middle" x="518" y="-194.18" font-family="Times,serif" font-size="14.00">export/archives/</text>
</g>
<g id="clust3" class="cluster">
<title>clusterTestArchive</title>
<polygon fill="none" stroke="royalblue" points="45,-16 45,-107.25 932,-107.25 932,-16 45,-16"/>
<text text-anchor="middle" x="488.5" y="-92.05" font-family="Times,serif" font-size="14.00">test/&lt;distro&gt;/&lt;lang&gt;.Dockerfile</text>
</g>
<g id="clust4" class="cluster">
<title>clusterPython</title>
<polygon fill="none" stroke="royalblue" points="1403,-126.25 1403,-840.25 1687,-840.25 1687,-126.25 1403,-126.25"/>
<text text-anchor="middle" x="1545" y="-825.05" font-family="Times,serif" font-size="14.00">python/&lt;platform&gt;/Dockerfile</text>
</g>
<g id="clust5" class="cluster">
<title>clusterPythonWheel</title>
<polygon fill="none" stroke="royalblue" points="1421,-250.5 1421,-325.5 1613,-325.5 1613,-250.5 1421,-250.5"/>
<text text-anchor="middle" x="1517" y="-310.3" font-family="Times,serif" font-size="14.00">export/python/archives/</text>
</g>
<!-- CPP_PKG -->
<g id="node1" class="node">
<title>CPP_PKG</title>
<polygon fill="royalblue" stroke="black" points="1395.5,-700.25 1292.5,-700.25 1288.5,-696.25 1288.5,-662.25 1391.5,-662.25 1395.5,-666.25 1395.5,-700.25"/>
<polyline fill="none" stroke="black" points="1391.5,-696.25 1288.5,-696.25 "/>
<polyline fill="none" stroke="black" points="1391.5,-696.25 1391.5,-662.25 "/>
<polyline fill="none" stroke="black" points="1391.5,-696.25 1395.5,-700.25 "/>
<text text-anchor="middle" x="1342" y="-685.05" font-family="Times,serif" font-size="14.00">C++ Tools</text>
<text text-anchor="middle" x="1342" y="-670.05" font-family="Times,serif" font-size="14.00">e.g. cmake, g++</text>
</g>
<!-- ENV_IMG -->
<g id="node6" class="node">
<title>ENV_IMG</title>
<path fill="royalblue" stroke="black" d="M1009.5,-606.6C1009.5,-609.24 954.15,-611.38 886,-611.38 817.85,-611.38 762.5,-609.24 762.5,-606.6 762.5,-606.6 762.5,-563.65 762.5,-563.65 762.5,-561.01 817.85,-558.87 886,-558.87 954.15,-558.87 1009.5,-561.01 1009.5,-563.65 1009.5,-563.65 1009.5,-606.6 1009.5,-606.6"/>
<path fill="none" stroke="black" d="M1009.5,-606.6C1009.5,-603.97 954.15,-601.83 886,-601.83 817.85,-601.83 762.5,-603.97 762.5,-606.6"/>
<text text-anchor="middle" x="886" y="-588.92" font-family="Times,serif" font-size="14.00">or&#45;tools/docker:&lt;platform&gt;_&lt;distro&gt;_env</text>
<text text-anchor="middle" x="886" y="-573.92" font-family="Times,serif" font-size="14.00">env</text>
</g>
<!-- CPP_PKG&#45;&gt;ENV_IMG -->
<g id="edge18" class="edge">
<title>CPP_PKG&#45;&gt;ENV_IMG</title>
<path fill="none" stroke="black" stroke-dasharray="5,2" d="M1288.46,-664.66C1285.26,-663.82 1282.09,-663.01 1279,-662.25 1193.43,-641.18 1096.21,-622.3 1019.87,-608.62"/>
<polygon fill="black" stroke="black" points="1020.17,-605.12 1009.71,-606.81 1018.94,-612.01 1020.17,-605.12"/>
<text text-anchor="middle" x="1210" y="-633.05" font-family="Times,serif" font-size="14.00">install</text>
</g>
<!-- PY_ENV_IMG -->
<g id="node22" class="node">
<title>PY_ENV_IMG</title>
<path fill="royalblue" stroke="black" d="M1653.5,-606.6C1653.5,-609.24 1600.39,-611.38 1535,-611.38 1469.61,-611.38 1416.5,-609.24 1416.5,-606.6 1416.5,-606.6 1416.5,-563.65 1416.5,-563.65 1416.5,-561.01 1469.61,-558.87 1535,-558.87 1600.39,-558.87 1653.5,-561.01 1653.5,-563.65 1653.5,-563.65 1653.5,-606.6 1653.5,-606.6"/>
<path fill="none" stroke="black" d="M1653.5,-606.6C1653.5,-603.97 1600.39,-601.83 1535,-601.83 1469.61,-601.83 1416.5,-603.97 1416.5,-606.6"/>
<text text-anchor="middle" x="1535" y="-588.92" font-family="Times,serif" font-size="14.00">or&#45;tools/docker:python_&lt;platform&gt;_env</text>
<text text-anchor="middle" x="1535" y="-573.92" font-family="Times,serif" font-size="14.00">env</text>
</g>
<!-- CPP_PKG&#45;&gt;PY_ENV_IMG -->
<g id="edge29" class="edge">
<title>CPP_PKG&#45;&gt;PY_ENV_IMG</title>
<path fill="none" stroke="black" stroke-dasharray="5,2" d="M1379.21,-662.1C1406.13,-648.97 1443.1,-630.95 1474.27,-615.74"/>
<polygon fill="black" stroke="black" points="1475.86,-618.86 1483.31,-611.33 1472.79,-612.57 1475.86,-618.86"/>
<text text-anchor="middle" x="1461" y="-633.05" font-family="Times,serif" font-size="14.00">install</text>
</g>
<!-- DOTNET_PKG -->
<g id="node2" class="node">
<title>DOTNET_PKG</title>
<polygon fill="forestgreen" stroke="black" points="1124,-700.25 1030,-700.25 1026,-696.25 1026,-662.25 1120,-662.25 1124,-666.25 1124,-700.25"/>
<polyline fill="none" stroke="black" points="1120,-696.25 1026,-696.25 "/>
<polyline fill="none" stroke="black" points="1120,-696.25 1120,-662.25 "/>
<polyline fill="none" stroke="black" points="1120,-696.25 1124,-700.25 "/>
<text text-anchor="middle" x="1075" y="-685.05" font-family="Times,serif" font-size="14.00">.Net Tools</text>
<text text-anchor="middle" x="1075" y="-670.05" font-family="Times,serif" font-size="14.00">e.g. dotnet&#45;sdk</text>
</g>
<!-- DOTNET_PKG&#45;&gt;ENV_IMG -->
<g id="edge19" class="edge">
<title>DOTNET_PKG&#45;&gt;ENV_IMG</title>
<path fill="none" stroke="black" stroke-dasharray="5,2" d="M1038.56,-662.1C1012.31,-649.03 976.31,-631.1 945.87,-615.94"/>
<polygon fill="black" stroke="black" points="947.13,-612.66 936.62,-611.33 944.01,-618.92 947.13,-612.66"/>
<text text-anchor="middle" x="1014" y="-633.05" font-family="Times,serif" font-size="14.00">install</text>
</g>
<!-- JAVA_PKG -->
<g id="node3" class="node">
<title>JAVA_PKG</title>
<polygon fill="crimson" stroke="black" points="1270,-700.25 1146,-700.25 1142,-696.25 1142,-662.25 1266,-662.25 1270,-666.25 1270,-700.25"/>
<polyline fill="none" stroke="black" points="1266,-696.25 1142,-696.25 "/>
<polyline fill="none" stroke="black" points="1266,-696.25 1266,-662.25 "/>
<polyline fill="none" stroke="black" points="1266,-696.25 1270,-700.25 "/>
<text text-anchor="middle" x="1206" y="-685.05" font-family="Times,serif" font-size="14.00">Java Tools</text>
<text text-anchor="middle" x="1206" y="-670.05" font-family="Times,serif" font-size="14.00">e.g. openjdk, maven</text>
</g>
<!-- JAVA_PKG&#45;&gt;ENV_IMG -->
<g id="edge20" class="edge">
<title>JAVA_PKG&#45;&gt;ENV_IMG</title>
<path fill="none" stroke="black" stroke-dasharray="5,2" d="M1145.89,-662.19C1113.13,-652.38 1071.86,-640.08 1035,-629.25 1017.67,-624.16 999.19,-618.77 981.36,-613.6"/>
<polygon fill="black" stroke="black" points="982.1,-610.17 971.52,-610.75 980.15,-616.9 982.1,-610.17"/>
<text text-anchor="middle" x="1099" y="-633.05" font-family="Times,serif" font-size="14.00">install</text>
</g>
<!-- SRC -->
<g id="node4" class="node">
<title>SRC</title>
<polygon fill="royalblue" stroke="black" points="1228.5,-603.12 1225.5,-607.12 1204.5,-607.12 1201.5,-603.12 1169.5,-603.12 1169.5,-567.12 1228.5,-567.12 1228.5,-603.12"/>
<text text-anchor="middle" x="1199" y="-581.42" font-family="Times,serif" font-size="14.00">git repo</text>
</g>
<!-- DEVEL_IMG -->
<g id="node7" class="node">
<title>DEVEL_IMG</title>
<path fill="royalblue" stroke="black" d="M970.5,-503.35C970.5,-505.99 912.9,-508.13 842,-508.13 771.1,-508.13 713.5,-505.99 713.5,-503.35 713.5,-503.35 713.5,-460.4 713.5,-460.4 713.5,-457.76 771.1,-455.62 842,-455.62 912.9,-455.62 970.5,-457.76 970.5,-460.4 970.5,-460.4 970.5,-503.35 970.5,-503.35"/>
<path fill="none" stroke="black" d="M970.5,-503.35C970.5,-500.72 912.9,-498.58 842,-498.58 771.1,-498.58 713.5,-500.72 713.5,-503.35"/>
<text text-anchor="middle" x="842" y="-485.68" font-family="Times,serif" font-size="14.00">or&#45;tools/docker:&lt;platform&gt;_&lt;distro&gt;_devel</text>
<text text-anchor="middle" x="842" y="-470.68" font-family="Times,serif" font-size="14.00">devel</text>
</g>
<!-- SRC&#45;&gt;DEVEL_IMG -->
<g id="edge21" class="edge">
<title>SRC&#45;&gt;DEVEL_IMG</title>
<path fill="none" stroke="black" stroke-dasharray="5,2" d="M1169.48,-575.75C1119.5,-561.58 1016.1,-532.25 938.78,-510.32"/>
<polygon fill="black" stroke="black" points="939.59,-506.91 929.01,-507.55 937.68,-513.65 939.59,-506.91"/>
<text text-anchor="middle" x="1054.5" y="-529.8" font-family="Times,serif" font-size="14.00">copy</text>
</g>
<!-- PY_DEVEL_IMG -->
<g id="node23" class="node">
<title>PY_DEVEL_IMG</title>
<path fill="royalblue" stroke="black" d="M1658.5,-503.35C1658.5,-505.99 1603.15,-508.13 1535,-508.13 1466.85,-508.13 1411.5,-505.99 1411.5,-503.35 1411.5,-503.35 1411.5,-460.4 1411.5,-460.4 1411.5,-457.76 1466.85,-455.62 1535,-455.62 1603.15,-455.62 1658.5,-457.76 1658.5,-460.4 1658.5,-460.4 1658.5,-503.35 1658.5,-503.35"/>
<path fill="none" stroke="black" d="M1658.5,-503.35C1658.5,-500.72 1603.15,-498.58 1535,-498.58 1466.85,-498.58 1411.5,-500.72 1411.5,-503.35"/>
<text text-anchor="middle" x="1535" y="-485.68" font-family="Times,serif" font-size="14.00">or&#45;tools/docker:python_&lt;platform&gt;_devel</text>
<text text-anchor="middle" x="1535" y="-470.68" font-family="Times,serif" font-size="14.00">devel</text>
</g>
<!-- SRC&#45;&gt;PY_DEVEL_IMG -->
<g id="edge30" class="edge">
<title>SRC&#45;&gt;PY_DEVEL_IMG</title>
<path fill="none" stroke="black" stroke-dasharray="5,2" d="M1228.52,-575.23C1275.94,-560.94 1371,-532.3 1442.75,-510.67"/>
<polygon fill="black" stroke="black" points="1444.14,-513.91 1452.71,-507.67 1442.12,-507.21 1444.14,-513.91"/>
<text text-anchor="middle" x="1400.5" y="-529.8" font-family="Times,serif" font-size="14.00">copy</text>
</g>
<!-- DISTRO_IMG -->
<g id="node5" class="node">
<title>DISTRO_IMG</title>
<path fill="royalblue" stroke="black" d="M934,-695.98C934,-697.78 912.49,-699.25 886,-699.25 859.51,-699.25 838,-697.78 838,-695.98 838,-695.98 838,-666.52 838,-666.52 838,-664.72 859.51,-663.25 886,-663.25 912.49,-663.25 934,-664.72 934,-666.52 934,-666.52 934,-695.98 934,-695.98"/>
<path fill="none" stroke="black" d="M934,-695.98C934,-694.17 912.49,-692.7 886,-692.7 859.51,-692.7 838,-694.17 838,-695.98"/>
<text text-anchor="middle" x="886" y="-677.55" font-family="Times,serif" font-size="14.00">&lt;distro&gt;:latest</text>
</g>
<!-- DISTRO_IMG&#45;&gt;ENV_IMG -->
<g id="edge1" class="edge">
<title>DISTRO_IMG&#45;&gt;ENV_IMG</title>
<path fill="none" stroke="black" d="M886,-662.99C886,-651.48 886,-635.94 886,-621.85"/>
<polygon fill="black" stroke="black" points="889.5,-621.44 886,-611.44 882.5,-621.44 889.5,-621.44"/>
</g>
<!-- ENV_IMG&#45;&gt;DEVEL_IMG -->
<g id="edge2" class="edge">
<title>ENV_IMG&#45;&gt;DEVEL_IMG</title>
<path fill="none" stroke="black" d="M875.01,-558.84C869.6,-546.39 863,-531.2 857.12,-517.68"/>
<polygon fill="black" stroke="black" points="860.2,-515.97 853,-508.19 853.78,-518.76 860.2,-515.97"/>
</g>
<!-- TEST_CPP_IMG -->
<g id="node17" class="node">
<title>TEST_CPP_IMG</title>
<path fill="royalblue" stroke="black" d="M325,-71.6C325,-74.24 264.04,-76.38 189,-76.38 113.96,-76.38 53,-74.24 53,-71.6 53,-71.6 53,-28.65 53,-28.65 53,-26.01 113.96,-23.87 189,-23.87 264.04,-23.87 325,-26.01 325,-28.65 325,-28.65 325,-71.6 325,-71.6"/>
<path fill="none" stroke="black" d="M325,-71.6C325,-68.97 264.04,-66.83 189,-66.83 113.96,-66.83 53,-68.97 53,-71.6"/>
<text text-anchor="middle" x="189" y="-53.92" font-family="Times,serif" font-size="14.00">or&#45;tools/docker:&lt;platform&gt;_&lt;distro&gt;_cpp_test</text>
<text text-anchor="middle" x="189" y="-38.92" font-family="Times,serif" font-size="14.00">cpp_test</text>
</g>
<!-- ENV_IMG&#45;&gt;TEST_CPP_IMG -->
<g id="edge15" class="edge">
<title>ENV_IMG&#45;&gt;TEST_CPP_IMG</title>
<path fill="none" stroke="black" d="M762.28,-582.9C574.31,-580.09 225.87,-570.89 105,-541 59.5,-529.75 17,-529.75 17,-482.88 17,-482.88 17,-482.88 17,-159.38 17,-121.48 47.27,-96.33 82.42,-79.9"/>
<polygon fill="black" stroke="black" points="84.2,-82.94 91.94,-75.7 81.38,-76.53 84.2,-82.94"/>
</g>
<!-- TEST_DOTNET_IMG -->
<g id="node18" class="node">
<title>TEST_DOTNET_IMG</title>
<path fill="royalblue" stroke="black" d="M630.5,-71.6C630.5,-74.24 566.18,-76.38 487,-76.38 407.82,-76.38 343.5,-74.24 343.5,-71.6 343.5,-71.6 343.5,-28.65 343.5,-28.65 343.5,-26.01 407.82,-23.87 487,-23.87 566.18,-23.87 630.5,-26.01 630.5,-28.65 630.5,-28.65 630.5,-71.6 630.5,-71.6"/>
<path fill="none" stroke="black" d="M630.5,-71.6C630.5,-68.97 566.18,-66.83 487,-66.83 407.82,-66.83 343.5,-68.97 343.5,-71.6"/>
<text text-anchor="middle" x="487" y="-53.92" font-family="Times,serif" font-size="14.00">or&#45;tools/docker:&lt;platform&gt;_&lt;distro&gt;_dotnet_test</text>
<text text-anchor="middle" x="487" y="-38.92" font-family="Times,serif" font-size="14.00">dotnet_test</text>
</g>
<!-- ENV_IMG&#45;&gt;TEST_DOTNET_IMG -->
<g id="edge16" class="edge">
<title>ENV_IMG&#45;&gt;TEST_DOTNET_IMG</title>
<path fill="none" stroke="black" d="M762.09,-581.89C526.45,-575.97 37,-555.01 37,-482.88 37,-482.88 37,-482.88 37,-159.38 37,-144.33 32.63,-136.1 44,-126.25 68.4,-105.1 302.41,-113.93 334,-107.25 363.21,-101.07 394.34,-90.45 420.85,-80.09"/>
<polygon fill="black" stroke="black" points="422.39,-83.25 430.39,-76.3 419.8,-76.74 422.39,-83.25"/>
</g>
<!-- TEST_JAVA_IMG -->
<g id="node19" class="node">
<title>TEST_JAVA_IMG</title>
<path fill="royalblue" stroke="black" d="M923.5,-71.6C923.5,-74.24 861.87,-76.38 786,-76.38 710.13,-76.38 648.5,-74.24 648.5,-71.6 648.5,-71.6 648.5,-28.65 648.5,-28.65 648.5,-26.01 710.13,-23.87 786,-23.87 861.87,-23.87 923.5,-26.01 923.5,-28.65 923.5,-28.65 923.5,-71.6 923.5,-71.6"/>
<path fill="none" stroke="black" d="M923.5,-71.6C923.5,-68.97 861.87,-66.83 786,-66.83 710.13,-66.83 648.5,-68.97 648.5,-71.6"/>
<text text-anchor="middle" x="786" y="-53.92" font-family="Times,serif" font-size="14.00">or&#45;tools/docker:&lt;platform&gt;_&lt;distro&gt;_java_test</text>
<text text-anchor="middle" x="786" y="-38.92" font-family="Times,serif" font-size="14.00">java_test</text>
</g>
<!-- ENV_IMG&#45;&gt;TEST_JAVA_IMG -->
<g id="edge17" class="edge">
<title>ENV_IMG&#45;&gt;TEST_JAVA_IMG</title>
<path fill="none" stroke="black" d="M949.66,-558.88C979.67,-542.4 1009,-517.45 1009,-482.88 1009,-482.88 1009,-482.88 1009,-159.38 1009,-116.26 974.85,-90.32 933.29,-74.7"/>
<polygon fill="black" stroke="black" points="934.33,-71.36 923.74,-71.33 932,-77.96 934.33,-71.36"/>
</g>
<!-- CPP_BUILD_IMG -->
<g id="node8" class="node">
<title>CPP_BUILD_IMG</title>
<path fill="royalblue" stroke="black" d="M349.5,-414.1C349.5,-416.74 286.53,-418.88 209,-418.88 131.47,-418.88 68.5,-416.74 68.5,-414.1 68.5,-414.1 68.5,-371.15 68.5,-371.15 68.5,-368.51 131.47,-366.37 209,-366.37 286.53,-366.37 349.5,-368.51 349.5,-371.15 349.5,-371.15 349.5,-414.1 349.5,-414.1"/>
<path fill="none" stroke="black" d="M349.5,-414.1C349.5,-411.47 286.53,-409.33 209,-409.33 131.47,-409.33 68.5,-411.47 68.5,-414.1"/>
<text text-anchor="middle" x="209" y="-396.43" font-family="Times,serif" font-size="14.00">or&#45;tools/docker:&lt;platform&gt;_&lt;distro&gt;_cpp_build</text>
<text text-anchor="middle" x="209" y="-381.43" font-family="Times,serif" font-size="14.00">cpp_build</text>
</g>
<!-- DEVEL_IMG&#45;&gt;CPP_BUILD_IMG -->
<g id="edge3" class="edge">
<title>DEVEL_IMG&#45;&gt;CPP_BUILD_IMG</title>
<path fill="none" stroke="black" d="M713.45,-464.72C618.7,-452.62 486.73,-435.35 371,-418.75 367.33,-418.22 363.62,-417.69 359.88,-417.14"/>
<polygon fill="black" stroke="black" points="360.3,-413.66 349.9,-415.67 359.28,-420.59 360.3,-413.66"/>
</g>
<!-- DOTNET_BUILD_IMG -->
<g id="node9" class="node">
<title>DOTNET_BUILD_IMG</title>
<path fill="royalblue" stroke="black" d="M676,-414.1C676,-416.74 609.66,-418.88 528,-418.88 446.34,-418.88 380,-416.74 380,-414.1 380,-414.1 380,-371.15 380,-371.15 380,-368.51 446.34,-366.37 528,-366.37 609.66,-366.37 676,-368.51 676,-371.15 676,-371.15 676,-414.1 676,-414.1"/>
<path fill="none" stroke="black" d="M676,-414.1C676,-411.47 609.66,-409.33 528,-409.33 446.34,-409.33 380,-411.47 380,-414.1"/>
<text text-anchor="middle" x="528" y="-396.43" font-family="Times,serif" font-size="14.00">or&#45;tools/docker:&lt;platform&gt;_&lt;distro&gt;_dotnet_build</text>
<text text-anchor="middle" x="528" y="-381.43" font-family="Times,serif" font-size="14.00">dotnet_build</text>
</g>
<!-- DEVEL_IMG&#45;&gt;DOTNET_BUILD_IMG -->
<g id="edge4" class="edge">
<title>DEVEL_IMG&#45;&gt;DOTNET_BUILD_IMG</title>
<path fill="none" stroke="black" d="M753.28,-456.22C714.24,-445.38 668.21,-432.58 627.97,-421.4"/>
<polygon fill="black" stroke="black" points="628.71,-417.98 618.14,-418.67 626.83,-424.72 628.71,-417.98"/>
</g>
<!-- JAVA_BUILD_IMG -->
<g id="node10" class="node">
<title>JAVA_BUILD_IMG</title>
<path fill="royalblue" stroke="black" d="M984,-414.1C984,-416.74 920.35,-418.88 842,-418.88 763.65,-418.88 700,-416.74 700,-414.1 700,-414.1 700,-371.15 700,-371.15 700,-368.51 763.65,-366.37 842,-366.37 920.35,-366.37 984,-368.51 984,-371.15 984,-371.15 984,-414.1 984,-414.1"/>
<path fill="none" stroke="black" d="M984,-414.1C984,-411.47 920.35,-409.33 842,-409.33 763.65,-409.33 700,-411.47 700,-414.1"/>
<text text-anchor="middle" x="842" y="-396.43" font-family="Times,serif" font-size="14.00">or&#45;tools/docker:&lt;platform&gt;_&lt;distro&gt;_java_build</text>
<text text-anchor="middle" x="842" y="-381.43" font-family="Times,serif" font-size="14.00">java_build</text>
</g>
<!-- DEVEL_IMG&#45;&gt;JAVA_BUILD_IMG -->
<g id="edge5" class="edge">
<title>DEVEL_IMG&#45;&gt;JAVA_BUILD_IMG</title>
<path fill="none" stroke="black" d="M842,-455.64C842,-447.32 842,-437.91 842,-428.97"/>
<polygon fill="black" stroke="black" points="845.5,-428.8 842,-418.8 838.5,-428.8 845.5,-428.8"/>
</g>
<!-- CPP_ARCHIVE_IMG -->
<g id="node11" class="node">
<title>CPP_ARCHIVE_IMG</title>
<path fill="royalblue" stroke="black" d="M349.5,-297.98C349.5,-300.61 283.84,-302.75 203,-302.75 122.16,-302.75 56.5,-300.61 56.5,-297.98 56.5,-297.98 56.5,-255.02 56.5,-255.02 56.5,-252.39 122.16,-250.25 203,-250.25 283.84,-250.25 349.5,-252.39 349.5,-255.02 349.5,-255.02 349.5,-297.98 349.5,-297.98"/>
<path fill="none" stroke="black" d="M349.5,-297.98C349.5,-295.34 283.84,-293.2 203,-293.2 122.16,-293.2 56.5,-295.34 56.5,-297.98"/>
<text text-anchor="middle" x="203" y="-280.3" font-family="Times,serif" font-size="14.00">or&#45;tools/docker:&lt;platform&gt;_&lt;distro&gt;_cpp_archive</text>
<text text-anchor="middle" x="203" y="-265.3" font-family="Times,serif" font-size="14.00">cpp_archive</text>
</g>
<!-- CPP_BUILD_IMG&#45;&gt;CPP_ARCHIVE_IMG -->
<g id="edge6" class="edge">
<title>CPP_BUILD_IMG&#45;&gt;CPP_ARCHIVE_IMG</title>
<path fill="none" stroke="black" d="M207.67,-366.3C206.84,-350.64 205.78,-330.3 204.87,-313.04"/>
<polygon fill="black" stroke="black" points="208.35,-312.56 204.33,-302.76 201.36,-312.93 208.35,-312.56"/>
</g>
<!-- DOTNET_ARCHIVE_IMG -->
<g id="node12" class="node">
<title>DOTNET_ARCHIVE_IMG</title>
<path fill="royalblue" stroke="black" d="M676,-297.98C676,-300.61 606.97,-302.75 522,-302.75 437.03,-302.75 368,-300.61 368,-297.98 368,-297.98 368,-255.02 368,-255.02 368,-252.39 437.03,-250.25 522,-250.25 606.97,-250.25 676,-252.39 676,-255.02 676,-255.02 676,-297.98 676,-297.98"/>
<path fill="none" stroke="black" d="M676,-297.98C676,-295.34 606.97,-293.2 522,-293.2 437.03,-293.2 368,-295.34 368,-297.98"/>
<text text-anchor="middle" x="522" y="-280.3" font-family="Times,serif" font-size="14.00">or&#45;tools/docker:&lt;platform&gt;_&lt;distro&gt;_dotnet_archive</text>
<text text-anchor="middle" x="522" y="-265.3" font-family="Times,serif" font-size="14.00">dotnet_archive</text>
</g>
<!-- DOTNET_BUILD_IMG&#45;&gt;DOTNET_ARCHIVE_IMG -->
<g id="edge7" class="edge">
<title>DOTNET_BUILD_IMG&#45;&gt;DOTNET_ARCHIVE_IMG</title>
<path fill="none" stroke="black" d="M526.67,-366.3C525.84,-350.64 524.78,-330.3 523.87,-313.04"/>
<polygon fill="black" stroke="black" points="527.35,-312.56 523.33,-302.76 520.36,-312.93 527.35,-312.56"/>
</g>
<!-- JAVA_ARCHIVE_IMG -->
<g id="node13" class="node">
<title>JAVA_ARCHIVE_IMG</title>
<path fill="royalblue" stroke="black" d="M990,-297.98C990,-300.61 923.66,-302.75 842,-302.75 760.34,-302.75 694,-300.61 694,-297.98 694,-297.98 694,-255.02 694,-255.02 694,-252.39 760.34,-250.25 842,-250.25 923.66,-250.25 990,-252.39 990,-255.02 990,-255.02 990,-297.98 990,-297.98"/>
<path fill="none" stroke="black" d="M990,-297.98C990,-295.34 923.66,-293.2 842,-293.2 760.34,-293.2 694,-295.34 694,-297.98"/>
<text text-anchor="middle" x="842" y="-280.3" font-family="Times,serif" font-size="14.00">or&#45;tools/docker:&lt;platform&gt;_&lt;distro&gt;_java_archive</text>
<text text-anchor="middle" x="842" y="-265.3" font-family="Times,serif" font-size="14.00">java_archive</text>
</g>
<!-- JAVA_BUILD_IMG&#45;&gt;JAVA_ARCHIVE_IMG -->
<g id="edge8" class="edge">
<title>JAVA_BUILD_IMG&#45;&gt;JAVA_ARCHIVE_IMG</title>
<path fill="none" stroke="black" d="M842,-366.3C842,-350.64 842,-330.3 842,-313.04"/>
<polygon fill="black" stroke="black" points="845.5,-312.76 842,-302.76 838.5,-312.76 845.5,-312.76"/>
</g>
<!-- CPP_OR_TAR -->
<g id="node14" class="node">
<title>CPP_OR_TAR</title>
<polygon fill="royalblue" stroke="black" points="340,-178.38 56,-178.38 56,-142.38 346,-142.38 346,-172.38 340,-178.38"/>
<polyline fill="none" stroke="black" points="340,-178.38 340,-172.38 "/>
<polyline fill="none" stroke="black" points="346,-172.38 340,-172.38 "/>
<text text-anchor="middle" x="201" y="-156.68" font-family="Times,serif" font-size="14.00">or&#45;tools_cpp_&lt;distro&gt;_&lt;platform&gt;_vX.Y.Z.tar.gz</text>
</g>
<!-- CPP_ARCHIVE_IMG&#45;&gt;CPP_OR_TAR -->
<g id="edge9" class="edge">
<title>CPP_ARCHIVE_IMG&#45;&gt;CPP_OR_TAR</title>
<path fill="none" stroke="red" d="M202.56,-250.17C202.24,-231.95 201.81,-207.39 201.48,-188.72"/>
<polygon fill="red" stroke="red" points="204.97,-188.44 201.3,-178.5 197.98,-188.56 204.97,-188.44"/>
<text text-anchor="middle" x="314.5" y="-221.18" font-family="Times,serif" font-size="14.00">make &lt;platform&gt;_&lt;distro&gt;_cpp_archive</text>
</g>
<!-- DOTNET_OR_TAR -->
<g id="node15" class="node">
<title>DOTNET_OR_TAR</title>
<polygon fill="royalblue" stroke="black" points="662,-178.38 364,-178.38 364,-142.38 668,-142.38 668,-172.38 662,-178.38"/>
<polyline fill="none" stroke="black" points="662,-178.38 662,-172.38 "/>
<polyline fill="none" stroke="black" points="668,-172.38 662,-172.38 "/>
<text text-anchor="middle" x="516" y="-156.68" font-family="Times,serif" font-size="14.00">or&#45;tools_dotnet_&lt;distro&gt;_&lt;platform&gt;_vX.Y.Z.tar.gz</text>
</g>
<!-- DOTNET_ARCHIVE_IMG&#45;&gt;DOTNET_OR_TAR -->
<g id="edge10" class="edge">
<title>DOTNET_ARCHIVE_IMG&#45;&gt;DOTNET_OR_TAR</title>
<path fill="none" stroke="red" d="M516.48,-250.07C515.45,-244.28 514.53,-238.14 514,-232.38 512.69,-218.08 512.98,-202.11 513.69,-188.93"/>
<polygon fill="red" stroke="red" points="517.21,-188.83 514.36,-178.63 510.22,-188.38 517.21,-188.83"/>
<text text-anchor="middle" x="633.5" y="-221.18" font-family="Times,serif" font-size="14.00">make &lt;platform&gt;_&lt;distro&gt;_dotnet_archive</text>
</g>
<!-- JAVA_OR_TAR -->
<g id="node16" class="node">
<title>JAVA_OR_TAR</title>
<polygon fill="royalblue" stroke="black" points="973.5,-178.38 686.5,-178.38 686.5,-142.38 979.5,-142.38 979.5,-172.38 973.5,-178.38"/>
<polyline fill="none" stroke="black" points="973.5,-178.38 973.5,-172.38 "/>
<polyline fill="none" stroke="black" points="979.5,-172.38 973.5,-172.38 "/>
<text text-anchor="middle" x="833" y="-156.68" font-family="Times,serif" font-size="14.00">or&#45;tools_java_&lt;distro&gt;_&lt;platform&gt;_vX.Y.Z.tar.gz</text>
</g>
<!-- JAVA_ARCHIVE_IMG&#45;&gt;JAVA_OR_TAR -->
<g id="edge11" class="edge">
<title>JAVA_ARCHIVE_IMG&#45;&gt;JAVA_OR_TAR</title>
<path fill="none" stroke="red" d="M791.09,-250.28C785.04,-245.18 779.71,-239.24 776,-232.38 766.63,-215.05 779.88,-197.77 795.96,-184.6"/>
<polygon fill="red" stroke="red" points="798.16,-187.32 803.99,-178.47 793.92,-181.75 798.16,-187.32"/>
<text text-anchor="middle" x="890" y="-221.18" font-family="Times,serif" font-size="14.00">make &lt;platform&gt;_&lt;distro&gt;_java_archive</text>
</g>
<!-- CPP_OR_TAR&#45;&gt;TEST_CPP_IMG -->
<g id="edge12" class="edge">
<title>CPP_OR_TAR&#45;&gt;TEST_CPP_IMG</title>
<path fill="none" stroke="black" d="M199.07,-141.98C197.42,-127.13 195,-105.28 192.95,-86.73"/>
<polygon fill="black" stroke="black" points="196.4,-86.1 191.82,-76.55 189.44,-86.87 196.4,-86.1"/>
</g>
<!-- DOTNET_OR_TAR&#45;&gt;TEST_DOTNET_IMG -->
<g id="edge13" class="edge">
<title>DOTNET_OR_TAR&#45;&gt;TEST_DOTNET_IMG</title>
<path fill="none" stroke="black" d="M511.34,-141.98C507.32,-126.99 501.4,-104.87 496.4,-86.21"/>
<polygon fill="black" stroke="black" points="499.78,-85.3 493.81,-76.55 493.02,-87.11 499.78,-85.3"/>
</g>
<!-- JAVA_OR_TAR&#45;&gt;TEST_JAVA_IMG -->
<g id="edge14" class="edge">
<title>JAVA_OR_TAR&#45;&gt;TEST_JAVA_IMG</title>
<path fill="none" stroke="black" d="M825.38,-142.18C821.9,-134.29 817.72,-124.8 814,-116.25 809.73,-106.43 805.12,-95.77 800.91,-85.96"/>
<polygon fill="black" stroke="black" points="804.01,-84.32 796.85,-76.51 797.58,-87.08 804.01,-84.32"/>
</g>
<!-- PY_DISTRO_IMG -->
<g id="node20" class="node">
<title>PY_DISTRO_IMG</title>
<path fill="royalblue" stroke="black" d="M1651.5,-695.98C1651.5,-697.78 1627.52,-699.25 1598,-699.25 1568.48,-699.25 1544.5,-697.78 1544.5,-695.98 1544.5,-695.98 1544.5,-666.52 1544.5,-666.52 1544.5,-664.72 1568.48,-663.25 1598,-663.25 1627.52,-663.25 1651.5,-664.72 1651.5,-666.52 1651.5,-666.52 1651.5,-695.98 1651.5,-695.98"/>
<path fill="none" stroke="black" d="M1651.5,-695.98C1651.5,-694.17 1627.52,-692.7 1598,-692.7 1568.48,-692.7 1544.5,-694.17 1544.5,-695.98"/>
<text text-anchor="middle" x="1598" y="-677.55" font-family="Times,serif" font-size="14.00">manylinux:latest</text>
</g>
<!-- PY_DISTRO_IMG&#45;&gt;PY_ENV_IMG -->
<g id="edge23" class="edge">
<title>PY_DISTRO_IMG&#45;&gt;PY_ENV_IMG</title>
<path fill="none" stroke="black" d="M1586.44,-662.99C1578.37,-650.92 1567.32,-634.41 1557.53,-619.79"/>
<polygon fill="black" stroke="black" points="1560.42,-617.81 1551.94,-611.44 1554.6,-621.7 1560.42,-617.81"/>
</g>
<!-- PY_TEST_IMG -->
<g id="node26" class="node">
<title>PY_TEST_IMG</title>
<path fill="royalblue" stroke="black" d="M1663,-181.85C1663,-184.49 1610.11,-186.63 1545,-186.63 1479.89,-186.63 1427,-184.49 1427,-181.85 1427,-181.85 1427,-138.9 1427,-138.9 1427,-136.26 1479.89,-134.12 1545,-134.12 1610.11,-134.12 1663,-136.26 1663,-138.9 1663,-138.9 1663,-181.85 1663,-181.85"/>
<path fill="none" stroke="black" d="M1663,-181.85C1663,-179.22 1610.11,-177.08 1545,-177.08 1479.89,-177.08 1427,-179.22 1427,-181.85"/>
<text text-anchor="middle" x="1545" y="-164.18" font-family="Times,serif" font-size="14.00">or&#45;tools/docker:python_&lt;platform&gt;_test</text>
<text text-anchor="middle" x="1545" y="-149.18" font-family="Times,serif" font-size="14.00">test</text>
</g>
<!-- PY_DISTRO_IMG&#45;&gt;PY_TEST_IMG -->
<g id="edge27" class="edge">
<title>PY_DISTRO_IMG&#45;&gt;PY_TEST_IMG</title>
<path fill="none" stroke="black" d="M1625.98,-663.06C1649.05,-646.51 1678,-619.15 1678,-586.12 1678,-586.12 1678,-586.12 1678,-275.5 1678,-238.23 1647.55,-210.5 1615.8,-191.71"/>
<polygon fill="black" stroke="black" points="1617.26,-188.52 1606.83,-186.65 1613.82,-194.61 1617.26,-188.52"/>
</g>
<!-- PY_PKG -->
<g id="node21" class="node">
<title>PY_PKG</title>
<polygon fill="gold" stroke="black" points="1657,-809.25 1543,-809.25 1539,-805.25 1539,-771.25 1653,-771.25 1657,-775.25 1657,-809.25"/>
<polyline fill="none" stroke="black" points="1653,-805.25 1539,-805.25 "/>
<polyline fill="none" stroke="black" points="1653,-805.25 1653,-771.25 "/>
<polyline fill="none" stroke="black" points="1653,-805.25 1657,-809.25 "/>
<text text-anchor="middle" x="1598" y="-794.05" font-family="Times,serif" font-size="14.00">Python Tools</text>
<text text-anchor="middle" x="1598" y="-779.05" font-family="Times,serif" font-size="14.00">e.g. python, wheel</text>
</g>
<!-- PY_PKG&#45;&gt;PY_DISTRO_IMG -->
<g id="edge22" class="edge">
<title>PY_PKG&#45;&gt;PY_DISTRO_IMG</title>
<path fill="none" stroke="black" stroke-dasharray="5,2" d="M1598,-771.1C1598,-754.2 1598,-728.77 1598,-709.44"/>
<polygon fill="black" stroke="black" points="1601.5,-709.43 1598,-699.43 1594.5,-709.43 1601.5,-709.43"/>
<text text-anchor="middle" x="1615" y="-742.05" font-family="Times,serif" font-size="14.00">install</text>
</g>
<!-- PY_ENV_IMG&#45;&gt;PY_DEVEL_IMG -->
<g id="edge24" class="edge">
<title>PY_ENV_IMG&#45;&gt;PY_DEVEL_IMG</title>
<path fill="none" stroke="black" d="M1535,-558.84C1535,-546.63 1535,-531.79 1535,-518.47"/>
<polygon fill="black" stroke="black" points="1538.5,-518.19 1535,-508.19 1531.5,-518.19 1538.5,-518.19"/>
</g>
<!-- PY_BUILD_IMG -->
<g id="node24" class="node">
<title>PY_BUILD_IMG</title>
<path fill="royalblue" stroke="black" d="M1657.5,-414.1C1657.5,-416.74 1602.59,-418.88 1535,-418.88 1467.41,-418.88 1412.5,-416.74 1412.5,-414.1 1412.5,-414.1 1412.5,-371.15 1412.5,-371.15 1412.5,-368.51 1467.41,-366.37 1535,-366.37 1602.59,-366.37 1657.5,-368.51 1657.5,-371.15 1657.5,-371.15 1657.5,-414.1 1657.5,-414.1"/>
<path fill="none" stroke="black" d="M1657.5,-414.1C1657.5,-411.47 1602.59,-409.33 1535,-409.33 1467.41,-409.33 1412.5,-411.47 1412.5,-414.1"/>
<text text-anchor="middle" x="1535" y="-396.43" font-family="Times,serif" font-size="14.00">or&#45;tools/docker:python_&lt;platform&gt;_build</text>
<text text-anchor="middle" x="1535" y="-381.43" font-family="Times,serif" font-size="14.00">build</text>
</g>
<!-- PY_DEVEL_IMG&#45;&gt;PY_BUILD_IMG -->
<g id="edge25" class="edge">
<title>PY_DEVEL_IMG&#45;&gt;PY_BUILD_IMG</title>
<path fill="none" stroke="black" d="M1535,-455.64C1535,-447.32 1535,-437.91 1535,-428.97"/>
<polygon fill="black" stroke="black" points="1538.5,-428.8 1535,-418.8 1531.5,-428.8 1538.5,-428.8"/>
</g>
<!-- OR_WHL -->
<g id="node25" class="node">
<title>OR_WHL</title>
<polygon fill="royalblue" stroke="black" points="1599.5,-294.5 1428.5,-294.5 1428.5,-258.5 1605.5,-258.5 1605.5,-288.5 1599.5,-294.5"/>
<polyline fill="none" stroke="black" points="1599.5,-294.5 1599.5,-288.5 "/>
<polyline fill="none" stroke="black" points="1605.5,-288.5 1599.5,-288.5 "/>
<text text-anchor="middle" x="1517" y="-272.8" font-family="Times,serif" font-size="14.00">ortools.manylinux.X.Y.Z.whl</text>
</g>
<!-- PY_BUILD_IMG&#45;&gt;OR_WHL -->
<g id="edge26" class="edge">
<title>PY_BUILD_IMG&#45;&gt;OR_WHL</title>
<path fill="none" stroke="red" d="M1453.17,-366.85C1446.07,-361.81 1439.78,-355.77 1435,-348.5 1422.26,-329.12 1440.75,-311.96 1463.38,-299.36"/>
<polygon fill="red" stroke="red" points="1465.29,-302.31 1472.54,-294.59 1462.06,-296.1 1465.29,-302.31"/>
<text text-anchor="middle" x="1554" y="-337.3" font-family="Times,serif" font-size="14.00">make python_&lt;platform&gt;_&lt;distro&gt;_export</text>
</g>
<!-- OR_WHL&#45;&gt;PY_TEST_IMG -->
<g id="edge28" class="edge">
<title>OR_WHL&#45;&gt;PY_TEST_IMG</title>
<path fill="none" stroke="black" d="M1521.25,-258.17C1525.26,-241.84 1531.37,-216.91 1536.4,-196.44"/>
<polygon fill="black" stroke="black" points="1539.85,-197.05 1538.83,-186.51 1533.05,-195.38 1539.85,-197.05"/>
</g>
</g>
</svg>
