<?xml version="1.0" encoding="UTF-8" standalone="no"?>
<!DOCTYPE svg PUBLIC "-//W3C//DTD SVG 1.1//EN"
 "http://www.w3.org/Graphics/SVG/1.1/DTD/svg11.dtd">
<!-- Generated by graphviz version 2.43.0 (0)
 -->
<!-- Title: DockerDeps Pages: 1 -->
<svg width="1047pt" height="831pt"
 viewBox="0.00 0.00 1047.00 831.25" xmlns="http://www.w3.org/2000/svg" xmlns:xlink="http://www.w3.org/1999/xlink">
<g id="graph0" class="graph" transform="scale(1 1) rotate(0) translate(4 827.25)">
<title>DockerDeps</title>
<polygon fill="white" stroke="transparent" points="-4,4 -4,-827.25 1043,-827.25 1043,4 -4,4"/>
<g id="clust1" class="cluster">
<title>clusterDocker</title>
<polygon fill="none" stroke="royalblue" points="8,-8 8,-744.25 362,-744.25 362,-8 8,-8"/>
<text text-anchor="middle" x="185" y="-729.05" font-family="Times,serif" font-size="14.00">images/&lt;distro&gt;.Dockerfile</text>
</g>
<g id="clust2" class="cluster">
<title>clusterArchive</title>
<polygon fill="none" stroke="royalblue" points="16,-148.38 16,-223.38 342,-223.38 342,-148.38 16,-148.38"/>
<text text-anchor="middle" x="179" y="-208.18" font-family="Times,serif" font-size="14.00">export/archives/</text>
</g>
<g id="clust3" class="cluster">
<title>clusterTestArchive</title>
<polygon fill="none" stroke="royalblue" points="34,-16 34,-107.25 344,-107.25 344,-16 34,-16"/>
<text text-anchor="middle" x="189" y="-92.05" font-family="Times,serif" font-size="14.00">test/&lt;distro&gt;/&lt;lang&gt;.Dockerfile</text>
</g>
<g id="clust4" class="cluster">
<title>clusterPython</title>
<polygon fill="none" stroke="royalblue" points="747,-140.25 747,-744.25 1031,-744.25 1031,-140.25 747,-140.25"/>
<text text-anchor="middle" x="889" y="-729.05" font-family="Times,serif" font-size="14.00">python/&lt;platform&gt;/Dockerfile</text>
</g>
<g id="clust5" class="cluster">
<title>clusterPythonWheel</title>
<polygon fill="none" stroke="royalblue" points="765,-264.5 765,-339.5 957,-339.5 957,-264.5 765,-264.5"/>
<text text-anchor="middle" x="861" y="-324.3" font-family="Times,serif" font-size="14.00">export/python/archives/</text>
</g>
<!-- CPP_PKG -->
<g id="node1" class="node">
<title>CPP_PKG</title>
<polygon fill="royalblue" stroke="black" points="739.5,-714.25 636.5,-714.25 632.5,-710.25 632.5,-676.25 735.5,-676.25 739.5,-680.25 739.5,-714.25"/>
<polyline fill="none" stroke="black" points="735.5,-710.25 632.5,-710.25 "/>
<polyline fill="none" stroke="black" points="735.5,-710.25 735.5,-676.25 "/>
<polyline fill="none" stroke="black" points="735.5,-710.25 739.5,-714.25 "/>
<text text-anchor="middle" x="686" y="-699.05" font-family="Times,serif" font-size="14.00">C++ Tools</text>
<text text-anchor="middle" x="686" y="-684.05" font-family="Times,serif" font-size="14.00">e.g. cmake, g++</text>
</g>
<!-- ENV_IMG -->
<g id="node7" class="node">
<title>ENV_IMG</title>
<path fill="royalblue" stroke="black" d="M353.5,-620.6C353.5,-623.24 298.15,-625.38 230,-625.38 161.85,-625.38 106.5,-623.24 106.5,-620.6 106.5,-620.6 106.5,-577.65 106.5,-577.65 106.5,-575.01 161.85,-572.87 230,-572.87 298.15,-572.87 353.5,-575.01 353.5,-577.65 353.5,-577.65 353.5,-620.6 353.5,-620.6"/>
<path fill="none" stroke="black" d="M353.5,-620.6C353.5,-617.97 298.15,-615.83 230,-615.83 161.85,-615.83 106.5,-617.97 106.5,-620.6"/>
<text text-anchor="middle" x="230" y="-602.92" font-family="Times,serif" font-size="14.00">or&#45;tools/docker:&lt;platform&gt;_&lt;distro&gt;_env</text>
<text text-anchor="middle" x="230" y="-587.92" font-family="Times,serif" font-size="14.00">&lt;platform&gt;_&lt;distro&gt;_env</text>
</g>
<!-- CPP_PKG&#45;&gt;ENV_IMG -->
<g id="edge8" class="edge">
<title>CPP_PKG&#45;&gt;ENV_IMG</title>
<path fill="none" stroke="black" stroke-dasharray="5,2" d="M632.43,-678.74C629.25,-677.88 626.08,-677.05 623,-676.25 559.84,-659.95 543.94,-656.13 480,-643.25 442.35,-635.66 401.34,-628.24 363.62,-621.75"/>
<polygon fill="black" stroke="black" points="364.05,-618.27 353.6,-620.04 362.86,-625.17 364.05,-618.27"/>
<text text-anchor="middle" x="566" y="-647.05" font-family="Times,serif" font-size="14.00">install</text>
</g>
<!-- PY_ENV_IMG -->
<g id="node14" class="node">
<title>PY_ENV_IMG</title>
<path fill="royalblue" stroke="black" d="M994.5,-620.6C994.5,-623.24 941.39,-625.38 876,-625.38 810.61,-625.38 757.5,-623.24 757.5,-620.6 757.5,-620.6 757.5,-577.65 757.5,-577.65 757.5,-575.01 810.61,-572.87 876,-572.87 941.39,-572.87 994.5,-575.01 994.5,-577.65 994.5,-577.65 994.5,-620.6 994.5,-620.6"/>
<path fill="none" stroke="black" d="M994.5,-620.6C994.5,-617.97 941.39,-615.83 876,-615.83 810.61,-615.83 757.5,-617.97 757.5,-620.6"/>
<text text-anchor="middle" x="876" y="-602.92" font-family="Times,serif" font-size="14.00">or&#45;tools/docker:python_&lt;platform&gt;_env</text>
<text text-anchor="middle" x="876" y="-587.92" font-family="Times,serif" font-size="14.00">env</text>
</g>
<!-- CPP_PKG&#45;&gt;PY_ENV_IMG -->
<g id="edge20" class="edge">
<title>CPP_PKG&#45;&gt;PY_ENV_IMG</title>
<path fill="none" stroke="black" stroke-dasharray="5,2" d="M722.63,-676.1C749.02,-663.03 785.21,-645.1 815.81,-629.94"/>
<polygon fill="black" stroke="black" points="817.71,-632.91 825.11,-625.33 814.6,-626.64 817.71,-632.91"/>
<text text-anchor="middle" x="803" y="-647.05" font-family="Times,serif" font-size="14.00">install</text>
</g>
<!-- DOTNET_PKG -->
<g id="node2" class="node">
<title>DOTNET_PKG</title>
<polygon fill="forestgreen" stroke="black" points="468,-714.25 374,-714.25 370,-710.25 370,-676.25 464,-676.25 468,-680.25 468,-714.25"/>
<polyline fill="none" stroke="black" points="464,-710.25 370,-710.25 "/>
<polyline fill="none" stroke="black" points="464,-710.25 464,-676.25 "/>
<polyline fill="none" stroke="black" points="464,-710.25 468,-714.25 "/>
<text text-anchor="middle" x="419" y="-699.05" font-family="Times,serif" font-size="14.00">.Net Tools</text>
<text text-anchor="middle" x="419" y="-684.05" font-family="Times,serif" font-size="14.00">e.g. dotnet&#45;sdk</text>
</g>
<!-- DOTNET_PKG&#45;&gt;ENV_IMG -->
<g id="edge9" class="edge">
<title>DOTNET_PKG&#45;&gt;ENV_IMG</title>
<path fill="none" stroke="black" stroke-dasharray="5,2" d="M389.39,-676.16C372.29,-666 350.23,-653.37 330,-643.25 320.65,-638.57 310.66,-633.9 300.76,-629.45"/>
<polygon fill="black" stroke="black" points="301.88,-626.12 291.32,-625.27 299.04,-632.52 301.88,-626.12"/>
<text text-anchor="middle" x="374" y="-647.05" font-family="Times,serif" font-size="14.00">install</text>
</g>
<!-- JAVA_PKG -->
<g id="node3" class="node">
<title>JAVA_PKG</title>
<polygon fill="crimson" stroke="black" points="614,-714.25 490,-714.25 486,-710.25 486,-676.25 610,-676.25 614,-680.25 614,-714.25"/>
<polyline fill="none" stroke="black" points="610,-710.25 486,-710.25 "/>
<polyline fill="none" stroke="black" points="610,-710.25 610,-676.25 "/>
<polyline fill="none" stroke="black" points="610,-710.25 614,-714.25 "/>
<text text-anchor="middle" x="550" y="-699.05" font-family="Times,serif" font-size="14.00">Java Tools</text>
<text text-anchor="middle" x="550" y="-684.05" font-family="Times,serif" font-size="14.00">e.g. openjdk, maven</text>
</g>
<!-- JAVA_PKG&#45;&gt;ENV_IMG -->
<g id="edge10" class="edge">
<title>JAVA_PKG&#45;&gt;ENV_IMG</title>
<path fill="none" stroke="black" stroke-dasharray="5,2" d="M497.88,-676.2C467.93,-666.06 429.51,-653.43 395,-643.25 376.17,-637.7 356.03,-632.13 336.52,-626.92"/>
<polygon fill="black" stroke="black" points="337.25,-623.5 326.69,-624.32 335.46,-630.27 337.25,-623.5"/>
<text text-anchor="middle" x="459" y="-647.05" font-family="Times,serif" font-size="14.00">install</text>
</g>
<!-- PY_PKG -->
<g id="node4" class="node">
<title>PY_PKG</title>
<polygon fill="gold" stroke="black" points="391,-823.25 277,-823.25 273,-819.25 273,-785.25 387,-785.25 391,-789.25 391,-823.25"/>
<polyline fill="none" stroke="black" points="387,-819.25 273,-819.25 "/>
<polyline fill="none" stroke="black" points="387,-819.25 387,-785.25 "/>
<polyline fill="none" stroke="black" points="387,-819.25 391,-823.25 "/>
<text text-anchor="middle" x="332" y="-808.05" font-family="Times,serif" font-size="14.00">Python Tools</text>
<text text-anchor="middle" x="332" y="-793.05" font-family="Times,serif" font-size="14.00">e.g. python, wheel</text>
</g>
<!-- PY_PKG&#45;&gt;ENV_IMG -->
<g id="edge11" class="edge">
<title>PY_PKG&#45;&gt;ENV_IMG</title>
<path fill="none" stroke="black" stroke-dasharray="5,2" d="M327.37,-784.86C320.57,-759.49 306.54,-712.75 287,-676.25 279.07,-661.44 268.45,-646.39 258.52,-633.61"/>
<polygon fill="black" stroke="black" points="261.09,-631.23 252.13,-625.58 255.61,-635.58 261.09,-631.23"/>
<text text-anchor="middle" x="332" y="-691.55" font-family="Times,serif" font-size="14.00">install</text>
</g>
<!-- PY_DISTRO_IMG -->
<g id="node13" class="node">
<title>PY_DISTRO_IMG</title>
<path fill="royalblue" stroke="black" d="M929.5,-709.98C929.5,-711.78 905.52,-713.25 876,-713.25 846.48,-713.25 822.5,-711.78 822.5,-709.98 822.5,-709.98 822.5,-680.52 822.5,-680.52 822.5,-678.72 846.48,-677.25 876,-677.25 905.52,-677.25 929.5,-678.72 929.5,-680.52 929.5,-680.52 929.5,-709.98 929.5,-709.98"/>
<path fill="none" stroke="black" d="M929.5,-709.98C929.5,-708.17 905.52,-706.7 876,-706.7 846.48,-706.7 822.5,-708.17 822.5,-709.98"/>
<text text-anchor="middle" x="876" y="-691.55" font-family="Times,serif" font-size="14.00">manylinux:latest</text>
</g>
<!-- PY_PKG&#45;&gt;PY_DISTRO_IMG -->
<g id="edge19" class="edge">
<title>PY_PKG&#45;&gt;PY_DISTRO_IMG</title>
<path fill="none" stroke="black" stroke-dasharray="5,2" d="M391.15,-799.01C472.71,-792.24 623.81,-776.34 749,-744.25 776.19,-737.28 805.57,-726.41 829.21,-716.77"/>
<polygon fill="black" stroke="black" points="830.74,-719.93 838.64,-712.87 828.06,-713.46 830.74,-719.93"/>
<text text-anchor="middle" x="732" y="-756.05" font-family="Times,serif" font-size="14.00">install</text>
</g>
<!-- SRC -->
<g id="node5" class="node">
<title>SRC</title>
<polygon fill="royalblue" stroke="black" points="607.5,-617.12 604.5,-621.12 583.5,-621.12 580.5,-617.12 548.5,-617.12 548.5,-581.12 607.5,-581.12 607.5,-617.12"/>
<text text-anchor="middle" x="578" y="-595.42" font-family="Times,serif" font-size="14.00">git repo</text>
</g>
<!-- DEVEL_IMG -->
<g id="node8" class="node">
<title>DEVEL_IMG</title>
<path fill="royalblue" stroke="black" d="M333.5,-517.35C333.5,-519.99 275.9,-522.13 205,-522.13 134.1,-522.13 76.5,-519.99 76.5,-517.35 76.5,-517.35 76.5,-474.4 76.5,-474.4 76.5,-471.76 134.1,-469.62 205,-469.62 275.9,-469.62 333.5,-471.76 333.5,-474.4 333.5,-474.4 333.5,-517.35 333.5,-517.35"/>
<path fill="none" stroke="black" d="M333.5,-517.35C333.5,-514.72 275.9,-512.58 205,-512.58 134.1,-512.58 76.5,-514.72 76.5,-517.35"/>
<text text-anchor="middle" x="205" y="-499.68" font-family="Times,serif" font-size="14.00">or&#45;tools/docker:&lt;platform&gt;_&lt;distro&gt;_devel</text>
<text text-anchor="middle" x="205" y="-484.68" font-family="Times,serif" font-size="14.00">&lt;platform&gt;_&lt;distro&gt;_devel</text>
</g>
<!-- SRC&#45;&gt;DEVEL_IMG -->
<g id="edge12" class="edge">
<title>SRC&#45;&gt;DEVEL_IMG</title>
<path fill="none" stroke="black" stroke-dasharray="5,2" d="M548.42,-590.1C496.51,-576 386.8,-546.22 305.27,-524.09"/>
<polygon fill="black" stroke="black" points="306.04,-520.68 295.47,-521.43 304.21,-527.43 306.04,-520.68"/>
<text text-anchor="middle" x="426.5" y="-543.8" font-family="Times,serif" font-size="14.00">copy</text>
</g>
<!-- PY_DEVEL_IMG -->
<g id="node15" class="node">
<title>PY_DEVEL_IMG</title>
<path fill="royalblue" stroke="black" d="M1002.5,-517.35C1002.5,-519.99 947.15,-522.13 879,-522.13 810.85,-522.13 755.5,-519.99 755.5,-517.35 755.5,-517.35 755.5,-474.4 755.5,-474.4 755.5,-471.76 810.85,-469.62 879,-469.62 947.15,-469.62 1002.5,-471.76 1002.5,-474.4 1002.5,-474.4 1002.5,-517.35 1002.5,-517.35"/>
<path fill="none" stroke="black" d="M1002.5,-517.35C1002.5,-514.72 947.15,-512.58 879,-512.58 810.85,-512.58 755.5,-514.72 755.5,-517.35"/>
<text text-anchor="middle" x="879" y="-499.68" font-family="Times,serif" font-size="14.00">or&#45;tools/docker:python_&lt;platform&gt;_devel</text>
<text text-anchor="middle" x="879" y="-484.68" font-family="Times,serif" font-size="14.00">devel</text>
</g>
<!-- SRC&#45;&gt;PY_DEVEL_IMG -->
<g id="edge21" class="edge">
<title>SRC&#45;&gt;PY_DEVEL_IMG</title>
<path fill="none" stroke="black" stroke-dasharray="5,2" d="M607.68,-588.14C650.76,-573.65 732.28,-546.23 794.77,-525.21"/>
<polygon fill="black" stroke="black" points="796.26,-528.4 804.62,-521.89 794.03,-521.77 796.26,-528.4"/>
<text text-anchor="middle" x="759.5" y="-543.8" font-family="Times,serif" font-size="14.00">copy</text>
</g>
<!-- DISTRO_IMG -->
<g id="node6" class="node">
<title>DISTRO_IMG</title>
<path fill="royalblue" stroke="black" d="M278,-709.98C278,-711.78 256.49,-713.25 230,-713.25 203.51,-713.25 182,-711.78 182,-709.98 182,-709.98 182,-680.52 182,-680.52 182,-678.72 203.51,-677.25 230,-677.25 256.49,-677.25 278,-678.72 278,-680.52 278,-680.52 278,-709.98 278,-709.98"/>
<path fill="none" stroke="black" d="M278,-709.98C278,-708.17 256.49,-706.7 230,-706.7 203.51,-706.7 182,-708.17 182,-709.98"/>
<text text-anchor="middle" x="230" y="-691.55" font-family="Times,serif" font-size="14.00">&lt;distro&gt;:latest</text>
</g>
<!-- DISTRO_IMG&#45;&gt;ENV_IMG -->
<g id="edge1" class="edge">
<title>DISTRO_IMG&#45;&gt;ENV_IMG</title>
<path fill="none" stroke="black" d="M230,-676.99C230,-665.48 230,-649.94 230,-635.85"/>
<polygon fill="black" stroke="black" points="233.5,-635.44 230,-625.44 226.5,-635.44 233.5,-635.44"/>
</g>
<!-- ENV_IMG&#45;&gt;DEVEL_IMG -->
<g id="edge2" class="edge">
<title>ENV_IMG&#45;&gt;DEVEL_IMG</title>
<path fill="none" stroke="black" d="M223.76,-572.84C220.71,-560.51 217,-545.49 213.69,-532.07"/>
<polygon fill="black" stroke="black" points="217.05,-531.06 211.25,-522.19 210.25,-532.74 217.05,-531.06"/>
</g>
<!-- TEST_IMG -->
<g id="node12" class="node">
<title>TEST_IMG</title>
<path fill="royalblue" stroke="black" d="M335.5,-71.6C335.5,-74.24 269.84,-76.38 189,-76.38 108.16,-76.38 42.5,-74.24 42.5,-71.6 42.5,-71.6 42.5,-28.65 42.5,-28.65 42.5,-26.01 108.16,-23.87 189,-23.87 269.84,-23.87 335.5,-26.01 335.5,-28.65 335.5,-28.65 335.5,-71.6 335.5,-71.6"/>
<path fill="none" stroke="black" d="M335.5,-71.6C335.5,-68.97 269.84,-66.83 189,-66.83 108.16,-66.83 42.5,-68.97 42.5,-71.6"/>
<text text-anchor="middle" x="189" y="-53.92" font-family="Times,serif" font-size="14.00">or&#45;tools/docker:&lt;platform&gt;_&lt;distro&gt;_&lt;lang&gt;_test</text>
<text text-anchor="middle" x="189" y="-38.92" font-family="Times,serif" font-size="14.00">&lt;platform&gt;_&lt;distro&gt;_&lt;lang&gt;_test</text>
</g>
<!-- ENV_IMG&#45;&gt;TEST_IMG -->
<g id="edge7" class="edge">
<title>ENV_IMG&#45;&gt;TEST_IMG</title>
<path fill="none" stroke="black" d="M293.66,-572.88C323.67,-556.4 353,-531.45 353,-496.88 353,-496.88 353,-496.88 353,-173.38 353,-158.33 354.88,-152.4 346,-140.25 326.97,-114.22 297.88,-94.72 269.9,-80.71"/>
<polygon fill="black" stroke="black" points="271.39,-77.54 260.86,-76.35 268.35,-83.85 271.39,-77.54"/>
</g>
<!-- BUILD_IMG -->
<g id="node9" class="node">
<title>BUILD_IMG</title>
<path fill="royalblue" stroke="black" d="M331,-428.1C331,-430.74 263.32,-432.88 180,-432.88 96.68,-432.88 29,-430.74 29,-428.1 29,-428.1 29,-385.15 29,-385.15 29,-382.51 96.68,-380.37 180,-380.37 263.32,-380.37 331,-382.51 331,-385.15 331,-385.15 331,-428.1 331,-428.1"/>
<path fill="none" stroke="black" d="M331,-428.1C331,-425.47 263.32,-423.33 180,-423.33 96.68,-423.33 29,-425.47 29,-428.1"/>
<text text-anchor="middle" x="180" y="-410.43" font-family="Times,serif" font-size="14.00">or&#45;tools/docker:&lt;platform&gt;_&lt;distro&gt;_&lt;lang&gt;_build</text>
<text text-anchor="middle" x="180" y="-395.43" font-family="Times,serif" font-size="14.00">&lt;platform&gt;_&lt;distro&gt;_&lt;lang&gt;_build</text>
</g>
<!-- DEVEL_IMG&#45;&gt;BUILD_IMG -->
<g id="edge3" class="edge">
<title>DEVEL_IMG&#45;&gt;BUILD_IMG</title>
<path fill="none" stroke="black" d="M197.77,-469.64C195.36,-461.23 192.63,-451.7 190.05,-442.68"/>
<polygon fill="black" stroke="black" points="193.33,-441.45 187.21,-432.8 186.6,-443.38 193.33,-441.45"/>
</g>
<!-- ARCHIVE_IMG -->
<g id="node10" class="node">
<title>ARCHIVE_IMG</title>
<path fill="royalblue" stroke="black" d="M332,-311.98C332,-314.61 261.63,-316.75 175,-316.75 88.37,-316.75 18,-314.61 18,-311.98 18,-311.98 18,-269.02 18,-269.02 18,-266.39 88.37,-264.25 175,-264.25 261.63,-264.25 332,-266.39 332,-269.02 332,-269.02 332,-311.98 332,-311.98"/>
<path fill="none" stroke="black" d="M332,-311.98C332,-309.34 261.63,-307.2 175,-307.2 88.37,-307.2 18,-309.34 18,-311.98"/>
<text text-anchor="middle" x="175" y="-294.3" font-family="Times,serif" font-size="14.00">or&#45;tools/docker:&lt;platform&gt;_&lt;distro&gt;_&lt;lang&gt;_archive</text>
<text text-anchor="middle" x="175" y="-279.3" font-family="Times,serif" font-size="14.00">&lt;platform&gt;_&lt;distro&gt;_&lt;lang&gt;_archive</text>
</g>
<!-- BUILD_IMG&#45;&gt;ARCHIVE_IMG -->
<g id="edge4" class="edge">
<title>BUILD_IMG&#45;&gt;ARCHIVE_IMG</title>
<path fill="none" stroke="black" d="M178.89,-380.3C178.2,-364.64 177.31,-344.3 176.56,-327.04"/>
<polygon fill="black" stroke="black" points="180.04,-326.59 176.11,-316.76 173.05,-326.9 180.04,-326.59"/>
</g>
<!-- OR_TAR -->
<g id="node11" class="node">
<title>OR_TAR</title>
<polygon fill="royalblue" stroke="black" points="328,-192.38 24,-192.38 24,-156.38 334,-156.38 334,-186.38 328,-192.38"/>
<polyline fill="none" stroke="black" points="328,-192.38 328,-186.38 "/>
<polyline fill="none" stroke="black" points="334,-186.38 328,-186.38 "/>
<text text-anchor="middle" x="179" y="-170.68" font-family="Times,serif" font-size="14.00">or&#45;tools_&lt;platform&gt;_&lt;distro&gt;_&lt;lang&gt;_vX.Y.Z.tar.gz</text>
</g>
<!-- ARCHIVE_IMG&#45;&gt;OR_TAR -->
<g id="edge5" class="edge">
<title>ARCHIVE_IMG&#45;&gt;OR_TAR</title>
<path fill="none" stroke="red" d="M120.13,-264.19C108.73,-255.21 101.82,-244.12 108,-231.38 114.39,-218.19 125.56,-207.17 137.18,-198.5"/>
<polygon fill="red" stroke="red" points="139.44,-201.19 145.65,-192.6 135.44,-195.44 139.44,-201.19"/>
<text text-anchor="middle" x="228" y="-235.18" font-family="Times,serif" font-size="14.00">make &lt;platform&gt;_&lt;distro&gt;_&lt;lang&gt;_export</text>
</g>
<!-- OR_TAR&#45;&gt;TEST_IMG -->
<g id="edge6" class="edge">
<title>OR_TAR&#45;&gt;TEST_IMG</title>
<path fill="none" stroke="black" stroke-dasharray="5,2" d="M173,-155.98C170.62,-148.21 168.18,-138.87 167,-130.25 164.98,-115.47 168.29,-99.56 172.9,-85.91"/>
<polygon fill="black" stroke="black" points="176.23,-87.01 176.44,-76.41 169.67,-84.56 176.23,-87.01"/>
<text text-anchor="middle" x="180.5" y="-119.05" font-family="Times,serif" font-size="14.00">copy</text>
</g>
<!-- PY_DISTRO_IMG&#45;&gt;PY_ENV_IMG -->
<g id="edge13" class="edge">
<title>PY_DISTRO_IMG&#45;&gt;PY_ENV_IMG</title>
<path fill="none" stroke="black" d="M876,-676.99C876,-665.48 876,-649.94 876,-635.85"/>
<polygon fill="black" stroke="black" points="879.5,-635.44 876,-625.44 872.5,-635.44 879.5,-635.44"/>
</g>
<!-- PY_TEST_IMG -->
<g id="node18" class="node">
<title>PY_TEST_IMG</title>
<path fill="royalblue" stroke="black" d="M1007,-195.85C1007,-198.49 954.11,-200.63 889,-200.63 823.89,-200.63 771,-198.49 771,-195.85 771,-195.85 771,-152.9 771,-152.9 771,-150.26 823.89,-148.12 889,-148.12 954.11,-148.12 1007,-150.26 1007,-152.9 1007,-152.9 1007,-195.85 1007,-195.85"/>
<path fill="none" stroke="black" d="M1007,-195.85C1007,-193.22 954.11,-191.08 889,-191.08 823.89,-191.08 771,-193.22 771,-195.85"/>
<text text-anchor="middle" x="889" y="-178.18" font-family="Times,serif" font-size="14.00">or&#45;tools/docker:python_&lt;platform&gt;_test</text>
<text text-anchor="middle" x="889" y="-163.18" font-family="Times,serif" font-size="14.00">test</text>
</g>
<!-- PY_DISTRO_IMG&#45;&gt;PY_TEST_IMG -->
<g id="edge17" class="edge">
<title>PY_DISTRO_IMG&#45;&gt;PY_TEST_IMG</title>
<path fill="none" stroke="black" d="M929.54,-682.72C971.2,-670.23 1022,-645.66 1022,-600.12 1022,-600.12 1022,-600.12 1022,-289.5 1022,-252.23 991.55,-224.5 959.8,-205.71"/>
<polygon fill="black" stroke="black" points="961.26,-202.52 950.83,-200.65 957.82,-208.61 961.26,-202.52"/>
</g>
<!-- PY_ENV_IMG&#45;&gt;PY_DEVEL_IMG -->
<g id="edge14" class="edge">
<title>PY_ENV_IMG&#45;&gt;PY_DEVEL_IMG</title>
<path fill="none" stroke="black" d="M876.75,-572.84C877.11,-560.63 877.55,-545.79 877.95,-532.47"/>
<polygon fill="black" stroke="black" points="881.45,-532.29 878.25,-522.19 874.46,-532.08 881.45,-532.29"/>
</g>
<!-- PY_BUILD_IMG -->
<g id="node16" class="node">
<title>PY_BUILD_IMG</title>
<path fill="royalblue" stroke="black" d="M1001.5,-428.1C1001.5,-430.74 946.59,-432.88 879,-432.88 811.41,-432.88 756.5,-430.74 756.5,-428.1 756.5,-428.1 756.5,-385.15 756.5,-385.15 756.5,-382.51 811.41,-380.37 879,-380.37 946.59,-380.37 1001.5,-382.51 1001.5,-385.15 1001.5,-385.15 1001.5,-428.1 1001.5,-428.1"/>
<path fill="none" stroke="black" d="M1001.5,-428.1C1001.5,-425.47 946.59,-423.33 879,-423.33 811.41,-423.33 756.5,-425.47 756.5,-428.1"/>
<text text-anchor="middle" x="879" y="-410.43" font-family="Times,serif" font-size="14.00">or&#45;tools/docker:python_&lt;platform&gt;_build</text>
<text text-anchor="middle" x="879" y="-395.43" font-family="Times,serif" font-size="14.00">build</text>
</g>
<!-- PY_DEVEL_IMG&#45;&gt;PY_BUILD_IMG -->
<g id="edge15" class="edge">
<title>PY_DEVEL_IMG&#45;&gt;PY_BUILD_IMG</title>
<path fill="none" stroke="black" d="M879,-469.64C879,-461.32 879,-451.91 879,-442.97"/>
<polygon fill="black" stroke="black" points="882.5,-442.8 879,-432.8 875.5,-442.8 882.5,-442.8"/>
</g>
<!-- OR_WHL -->
<g id="node17" class="node">
<title>OR_WHL</title>
<polygon fill="royalblue" stroke="black" points="943.5,-308.5 772.5,-308.5 772.5,-272.5 949.5,-272.5 949.5,-302.5 943.5,-308.5"/>
<polyline fill="none" stroke="black" points="943.5,-308.5 943.5,-302.5 "/>
<polyline fill="none" stroke="black" points="949.5,-302.5 943.5,-302.5 "/>
<text text-anchor="middle" x="861" y="-286.8" font-family="Times,serif" font-size="14.00">ortools.manylinux.X.Y.Z.whl</text>
</g>
<!-- PY_BUILD_IMG&#45;&gt;OR_WHL -->
<g id="edge16" class="edge">
<title>PY_BUILD_IMG&#45;&gt;OR_WHL</title>
<path fill="none" stroke="red" d="M797.17,-380.85C790.07,-375.81 783.78,-369.77 779,-362.5 766.26,-343.12 784.75,-325.96 807.38,-313.36"/>
<polygon fill="red" stroke="red" points="809.29,-316.31 816.54,-308.59 806.06,-310.1 809.29,-316.31"/>
<text text-anchor="middle" x="898" y="-351.3" font-family="Times,serif" font-size="14.00">make python_&lt;platform&gt;_&lt;distro&gt;_export</text>
</g>
<!-- OR_WHL&#45;&gt;PY_TEST_IMG -->
<g id="edge18" class="edge">
<title>OR_WHL&#45;&gt;PY_TEST_IMG</title>
<path fill="none" stroke="black" d="M865.25,-272.17C869.26,-255.84 875.37,-230.91 880.4,-210.44"/>
<polygon fill="black" stroke="black" points="883.85,-211.05 882.83,-200.51 877.05,-209.38 883.85,-211.05"/>
</g>
</g>
</svg>
