<?xml version="1.0" encoding="UTF-8" standalone="no"?>
<!DOCTYPE svg PUBLIC "-//W3C//DTD SVG 1.1//EN"
 "http://www.w3.org/Graphics/SVG/1.1/DTD/svg11.dtd">
<!-- Generated by graphviz version 2.44.1 (0)
 -->
<!-- Title: MakeDeps Pages: 1 -->
<svg width="994pt" height="680pt"
 viewBox="0.00 0.00 993.50 680.00" xmlns="http://www.w3.org/2000/svg" xmlns:xlink="http://www.w3.org/1999/xlink">
<g id="graph0" class="graph" transform="scale(1 1) rotate(0) translate(4 676)">
<title>MakeDeps</title>
<polygon fill="white" stroke="transparent" points="-4,4 -4,-676 989.5,-676 989.5,4 -4,4"/>
<text text-anchor="middle" x="492.75" y="-22.8" font-family="Times,serif" font-size="14.00">Dependencies</text>
<text text-anchor="middle" x="492.75" y="-7.8" font-family="Times,serif" font-size="14.00">Target: third_party</text>
<g id="clust1" class="cluster">
<title>clusterZLIB</title>
<polygon fill="none" stroke="royalblue" points="175,-214 175,-304 351,-304 351,-214 175,-214"/>
<text text-anchor="middle" x="263" y="-288.8" font-family="Times,serif" font-size="14.00">http://zlib.net/zlib*.zip</text>
<text text-anchor="middle" x="263" y="-273.8" font-family="Times,serif" font-size="14.00">(Windows)</text>
</g>
<g id="clust2" class="cluster">
<title>clusterAbsl</title>
<polygon fill="none" stroke="royalblue" points="8,-214 8,-289 167,-289 167,-214 8,-214"/>
<text text-anchor="middle" x="87.5" y="-273.8" font-family="Times,serif" font-size="14.00">abseil/abseil&#45;cpp.git</text>
</g>
<g id="clust3" class="cluster">
<title>clusterProtobuf</title>
<polygon fill="none" stroke="royalblue" points="36,-129 36,-204 251,-204 251,-129 36,-129"/>
<text text-anchor="middle" x="143.5" y="-188.8" font-family="Times,serif" font-size="14.00">protocolbuffers/protobuf.git</text>
</g>
<g id="clust4" class="cluster">
<title>clusterCoinOR</title>
<polygon fill="none" stroke="royalblue" points="359,-46 359,-664 748,-664 748,-46 359,-46"/>
<text text-anchor="middle" x="553.5" y="-648.8" font-family="Times,serif" font-size="14.00">CBC/CLP Solvers</text>
</g>
<g id="clust5" class="cluster">
<title>clusterCoinUtils</title>
<polygon fill="none" stroke="royalblue" points="555,-556 555,-633 716,-633 716,-556 555,-556"/>
<text text-anchor="middle" x="635.5" y="-617.8" font-family="Times,serif" font-size="14.00">coin&#45;or/CoinUtils.git</text>
</g>
<g id="clust6" class="cluster">
<title>clusterOsi</title>
<polygon fill="none" stroke="royalblue" points="553,-471 553,-548 670,-548 670,-471 553,-471"/>
<text text-anchor="middle" x="611.5" y="-532.8" font-family="Times,serif" font-size="14.00">coin&#45;or/Osi.git</text>
</g>
<g id="clust7" class="cluster">
<title>clusterClp</title>
<polygon fill="none" stroke="royalblue" points="419,-312 419,-463 650,-463 650,-312 419,-312"/>
<text text-anchor="middle" x="534.5" y="-447.8" font-family="Times,serif" font-size="14.00">coin&#45;or/Clp.git</text>
</g>
<g id="clust8" class="cluster">
<title>clusterCgl</title>
<polygon fill="none" stroke="royalblue" points="552,-213 552,-290 670,-290 670,-213 552,-213"/>
<text text-anchor="middle" x="611" y="-274.8" font-family="Times,serif" font-size="14.00">coin&#45;or/Cgl.git</text>
</g>
<g id="clust9" class="cluster">
<title>clusterCbc</title>
<polygon fill="none" stroke="royalblue" points="367,-54 367,-205 600,-205 600,-54 367,-54"/>
<text text-anchor="middle" x="483.5" y="-189.8" font-family="Times,serif" font-size="14.00">coin&#45;or/Cbc.git</text>
</g>
<!-- Zlib -->
<g id="node1" class="node">
<title>Zlib</title>
<path fill="royalblue" stroke="black" d="M281,-258C281,-258 245,-258 245,-258 239,-258 233,-252 233,-246 233,-246 233,-234 233,-234 233,-228 239,-222 245,-222 245,-222 281,-222 281,-222 287,-222 293,-228 293,-234 293,-234 293,-246 293,-246 293,-252 287,-258 281,-258"/>
<text text-anchor="middle" x="263" y="-236.3" font-family="Times,serif" font-size="14.00">libzlib</text>
</g>
<!-- Protobuf -->
<g id="node3" class="node">
<title>Protobuf</title>
<path fill="royalblue" stroke="black" d="M225,-173C225,-173 153,-173 153,-173 147,-173 141,-167 141,-161 141,-161 141,-149 141,-149 141,-143 147,-137 153,-137 153,-137 225,-137 225,-137 231,-137 237,-143 237,-149 237,-149 237,-161 237,-161 237,-167 231,-173 225,-173"/>
<text text-anchor="middle" x="189" y="-151.3" font-family="Times,serif" font-size="14.00">libprotobuf</text>
</g>
<!-- Zlib&#45;&gt;Protobuf -->
<g id="edge19" class="edge">
<title>Zlib&#45;&gt;Protobuf</title>
<path fill="none" stroke="black" d="M247.67,-221.8C237.15,-210.01 223.03,-194.16 211.27,-180.98"/>
<polygon fill="black" stroke="black" points="213.58,-178.31 204.31,-173.18 208.36,-182.97 213.58,-178.31"/>
</g>
<!-- Cbc -->
<g id="node11" class="node">
<title>Cbc</title>
<path fill="royalblue" stroke="black" d="M455.5,-174C455.5,-174 386.5,-174 386.5,-174 380.5,-174 374.5,-168 374.5,-162 374.5,-162 374.5,-148 374.5,-148 374.5,-142 380.5,-136 386.5,-136 386.5,-136 455.5,-136 455.5,-136 461.5,-136 467.5,-142 467.5,-148 467.5,-148 467.5,-162 467.5,-162 467.5,-168 461.5,-174 455.5,-174"/>
<text text-anchor="middle" x="421" y="-158.8" font-family="Times,serif" font-size="14.00">libCbc</text>
<text text-anchor="middle" x="421" y="-143.8" font-family="Times,serif" font-size="14.00">(autotools)</text>
</g>
<!-- Zlib&#45;&gt;Cbc -->
<g id="edge20" class="edge">
<title>Zlib&#45;&gt;Cbc</title>
<path fill="none" stroke="black" d="M293.09,-223.19C316.96,-210.65 350.65,-192.96 377.46,-178.87"/>
<polygon fill="black" stroke="black" points="379.4,-181.81 386.63,-174.06 376.15,-175.61 379.4,-181.81"/>
</g>
<!-- Absl -->
<g id="node2" class="node">
<title>Absl</title>
<path fill="royalblue" stroke="black" d="M146.5,-258C146.5,-258 93.5,-258 93.5,-258 87.5,-258 81.5,-252 81.5,-246 81.5,-246 81.5,-234 81.5,-234 81.5,-228 87.5,-222 93.5,-222 93.5,-222 146.5,-222 146.5,-222 152.5,-222 158.5,-228 158.5,-234 158.5,-234 158.5,-246 158.5,-246 158.5,-252 152.5,-258 146.5,-258"/>
<text text-anchor="middle" x="120" y="-236.3" font-family="Times,serif" font-size="14.00">libabsl_*</text>
</g>
<!-- Absl&#45;&gt;Protobuf -->
<g id="edge21" class="edge">
<title>Absl&#45;&gt;Protobuf</title>
<path fill="none" stroke="black" d="M134.3,-221.8C144.1,-210.01 157.27,-194.16 168.23,-180.98"/>
<polygon fill="black" stroke="black" points="171.02,-183.1 174.72,-173.18 165.64,-178.63 171.02,-183.1"/>
</g>
<!-- Protoc -->
<g id="node4" class="node">
<title>Protoc</title>
<polygon fill="royalblue" stroke="black" points="117,-173 55,-173 55,-169 51,-169 51,-165 55,-165 55,-145 51,-145 51,-141 55,-141 55,-137 117,-137 117,-173"/>
<polyline fill="none" stroke="black" points="55,-169 59,-169 59,-165 55,-165 "/>
<polyline fill="none" stroke="black" points="55,-145 59,-145 59,-141 55,-141 "/>
<text text-anchor="middle" x="86" y="-151.3" font-family="Times,serif" font-size="14.00">protoc</text>
</g>
<!-- CoinUtils -->
<g id="node5" class="node">
<title>CoinUtils</title>
<path fill="royalblue" stroke="black" d="M673.5,-602C673.5,-602 596.5,-602 596.5,-602 590.5,-602 584.5,-596 584.5,-590 584.5,-590 584.5,-576 584.5,-576 584.5,-570 590.5,-564 596.5,-564 596.5,-564 673.5,-564 673.5,-564 679.5,-564 685.5,-570 685.5,-576 685.5,-576 685.5,-590 685.5,-590 685.5,-596 679.5,-602 673.5,-602"/>
<text text-anchor="middle" x="635" y="-586.8" font-family="Times,serif" font-size="14.00">libCoinUtils</text>
<text text-anchor="middle" x="635" y="-571.8" font-family="Times,serif" font-size="14.00">(autotools)</text>
</g>
<!-- Osi -->
<g id="node6" class="node">
<title>Osi</title>
<path fill="royalblue" stroke="black" d="M645.5,-517C645.5,-517 576.5,-517 576.5,-517 570.5,-517 564.5,-511 564.5,-505 564.5,-505 564.5,-491 564.5,-491 564.5,-485 570.5,-479 576.5,-479 576.5,-479 645.5,-479 645.5,-479 651.5,-479 657.5,-485 657.5,-491 657.5,-491 657.5,-505 657.5,-505 657.5,-511 651.5,-517 645.5,-517"/>
<text text-anchor="middle" x="611" y="-501.8" font-family="Times,serif" font-size="14.00">libOsi</text>
<text text-anchor="middle" x="611" y="-486.8" font-family="Times,serif" font-size="14.00">(autotools)</text>
</g>
<!-- CoinUtils&#45;&gt;Osi -->
<g id="edge1" class="edge">
<title>CoinUtils&#45;&gt;Osi</title>
<path fill="none" stroke="black" d="M629.79,-563.99C626.67,-553.19 622.63,-539.22 619.1,-527"/>
<polygon fill="black" stroke="black" points="622.42,-525.9 616.28,-517.26 615.7,-527.84 622.42,-525.9"/>
</g>
<!-- Clp -->
<g id="node7" class="node">
<title>Clp</title>
<path fill="royalblue" stroke="black" d="M578.5,-432C578.5,-432 509.5,-432 509.5,-432 503.5,-432 497.5,-426 497.5,-420 497.5,-420 497.5,-406 497.5,-406 497.5,-400 503.5,-394 509.5,-394 509.5,-394 578.5,-394 578.5,-394 584.5,-394 590.5,-400 590.5,-406 590.5,-406 590.5,-420 590.5,-420 590.5,-426 584.5,-432 578.5,-432"/>
<text text-anchor="middle" x="544" y="-416.8" font-family="Times,serif" font-size="14.00">libClp</text>
<text text-anchor="middle" x="544" y="-401.8" font-family="Times,serif" font-size="14.00">(autotools)</text>
</g>
<!-- CoinUtils&#45;&gt;Clp -->
<g id="edge2" class="edge">
<title>CoinUtils&#45;&gt;Clp</title>
<path fill="none" stroke="black" d="M584.39,-572.7C570.75,-567.67 557.44,-559.93 549,-548 527.2,-517.2 531,-471.68 536.73,-442.43"/>
<polygon fill="black" stroke="black" points="540.19,-442.96 538.88,-432.45 533.35,-441.49 540.19,-442.96"/>
</g>
<!-- OsiClp -->
<g id="node8" class="node">
<title>OsiClp</title>
<path fill="royalblue" stroke="black" d="M630.5,-358C630.5,-358 561.5,-358 561.5,-358 555.5,-358 549.5,-352 549.5,-346 549.5,-346 549.5,-332 549.5,-332 549.5,-326 555.5,-320 561.5,-320 561.5,-320 630.5,-320 630.5,-320 636.5,-320 642.5,-326 642.5,-332 642.5,-332 642.5,-346 642.5,-346 642.5,-352 636.5,-358 630.5,-358"/>
<text text-anchor="middle" x="596" y="-342.8" font-family="Times,serif" font-size="14.00">libOsiClp</text>
<text text-anchor="middle" x="596" y="-327.8" font-family="Times,serif" font-size="14.00">(autotools)</text>
</g>
<!-- CoinUtils&#45;&gt;OsiClp -->
<g id="edge4" class="edge">
<title>CoinUtils&#45;&gt;OsiClp</title>
<path fill="none" stroke="black" d="M662.33,-563.68C667.07,-559.15 671.32,-553.89 674,-548 688.17,-516.85 683.08,-504 674,-471 663.02,-431.1 636.37,-391.08 617.27,-365.97"/>
<polygon fill="black" stroke="black" points="620.02,-363.8 611.12,-358.04 614.49,-368.09 620.02,-363.8"/>
</g>
<!-- Cgl -->
<g id="node10" class="node">
<title>Cgl</title>
<path fill="royalblue" stroke="black" d="M645.5,-259C645.5,-259 576.5,-259 576.5,-259 570.5,-259 564.5,-253 564.5,-247 564.5,-247 564.5,-233 564.5,-233 564.5,-227 570.5,-221 576.5,-221 576.5,-221 645.5,-221 645.5,-221 651.5,-221 657.5,-227 657.5,-233 657.5,-233 657.5,-247 657.5,-247 657.5,-253 651.5,-259 645.5,-259"/>
<text text-anchor="middle" x="611" y="-243.8" font-family="Times,serif" font-size="14.00">libCgl</text>
<text text-anchor="middle" x="611" y="-228.8" font-family="Times,serif" font-size="14.00">(autotools)</text>
</g>
<!-- CoinUtils&#45;&gt;Cgl -->
<g id="edge8" class="edge">
<title>CoinUtils&#45;&gt;Cgl</title>
<path fill="none" stroke="black" d="M670.67,-563.62C676.04,-559.25 680.83,-554.05 684,-548 699.87,-517.68 685.93,-505.17 684,-471 679.99,-399.99 692.77,-377.89 666,-312 659.26,-295.41 647.5,-279.42 636.58,-266.82"/>
<polygon fill="black" stroke="black" points="638.88,-264.15 629.58,-259.07 633.68,-268.84 638.88,-264.15"/>
</g>
<!-- CoinUtils&#45;&gt;Cbc -->
<g id="edge11" class="edge">
<title>CoinUtils&#45;&gt;Cbc</title>
<path fill="none" stroke="black" d="M584.47,-573.72C507.06,-557.82 368,-515.18 368,-414 368,-414 368,-414 368,-338 368,-282.14 361.44,-265.32 381,-213 385.08,-202.08 391.77,-191.29 398.52,-182.09"/>
<polygon fill="black" stroke="black" points="401.32,-184.19 404.66,-174.13 395.78,-179.91 401.32,-184.19"/>
</g>
<!-- OsiCbc -->
<g id="node12" class="node">
<title>OsiCbc</title>
<path fill="royalblue" stroke="black" d="M580.5,-100C580.5,-100 511.5,-100 511.5,-100 505.5,-100 499.5,-94 499.5,-88 499.5,-88 499.5,-74 499.5,-74 499.5,-68 505.5,-62 511.5,-62 511.5,-62 580.5,-62 580.5,-62 586.5,-62 592.5,-68 592.5,-74 592.5,-74 592.5,-88 592.5,-88 592.5,-94 586.5,-100 580.5,-100"/>
<text text-anchor="middle" x="546" y="-84.8" font-family="Times,serif" font-size="14.00">libOsiCbc</text>
<text text-anchor="middle" x="546" y="-69.8" font-family="Times,serif" font-size="14.00">(autotools)</text>
</g>
<!-- CoinUtils&#45;&gt;OsiCbc -->
<g id="edge15" class="edge">
<title>CoinUtils&#45;&gt;OsiCbc</title>
<path fill="none" stroke="black" d="M674.77,-563.86C681.53,-559.42 687.97,-554.14 693,-548 732.87,-499.26 739,-476.97 739,-414 739,-414 739,-414 739,-239 739,-180.57 712.4,-165.78 667,-129 648.32,-113.87 624.2,-103.19 602.42,-95.87"/>
<polygon fill="black" stroke="black" points="603.19,-92.45 592.6,-92.75 601.07,-99.12 603.19,-92.45"/>
</g>
<!-- Osi&#45;&gt;Clp -->
<g id="edge3" class="edge">
<title>Osi&#45;&gt;Clp</title>
<path fill="none" stroke="black" d="M596.46,-478.99C587.31,-467.65 575.33,-452.82 565.14,-440.18"/>
<polygon fill="black" stroke="black" points="567.75,-437.84 558.74,-432.26 562.3,-442.24 567.75,-437.84"/>
</g>
<!-- Osi&#45;&gt;OsiClp -->
<g id="edge5" class="edge">
<title>Osi&#45;&gt;OsiClp</title>
<path fill="none" stroke="black" d="M609.28,-478.99C606.69,-451.93 601.78,-400.52 598.71,-368.38"/>
<polygon fill="black" stroke="black" points="602.18,-367.91 597.75,-358.28 595.21,-368.57 602.18,-367.91"/>
</g>
<!-- Osi&#45;&gt;Cgl -->
<g id="edge9" class="edge">
<title>Osi&#45;&gt;Cgl</title>
<path fill="none" stroke="black" d="M641.52,-478.73C646.57,-474.26 651.1,-469 654,-463 683.24,-402.6 672.05,-376.64 654,-312 649.56,-296.1 640.48,-280.21 631.81,-267.51"/>
<polygon fill="black" stroke="black" points="634.58,-265.37 625.93,-259.26 628.88,-269.44 634.58,-265.37"/>
</g>
<!-- Osi&#45;&gt;Cbc -->
<g id="edge12" class="edge">
<title>Osi&#45;&gt;Cbc</title>
<path fill="none" stroke="black" d="M564.25,-494.96C513.04,-491.71 435.43,-483.47 415,-463 375.6,-423.53 380.38,-267.32 393,-213 395.37,-202.8 399.84,-192.32 404.52,-183.17"/>
<polygon fill="black" stroke="black" points="407.7,-184.65 409.4,-174.19 401.55,-181.31 407.7,-184.65"/>
</g>
<!-- Osi&#45;&gt;OsiCbc -->
<g id="edge16" class="edge">
<title>Osi&#45;&gt;OsiCbc</title>
<path fill="none" stroke="black" d="M650.79,-478.89C657.29,-474.47 663.39,-469.19 668,-463 701.66,-417.78 699,-396.38 699,-340 699,-340 699,-340 699,-239 699,-177.27 637.59,-130.74 592.58,-104.93"/>
<polygon fill="black" stroke="black" points="594.26,-101.86 583.82,-100.05 590.85,-107.97 594.26,-101.86"/>
</g>
<!-- Clp&#45;&gt;OsiClp -->
<g id="edge6" class="edge">
<title>Clp&#45;&gt;OsiClp</title>
<path fill="none" stroke="black" d="M557.12,-393.83C563.05,-385.62 570.17,-375.76 576.69,-366.73"/>
<polygon fill="black" stroke="black" points="579.68,-368.57 582.7,-358.41 574.01,-364.47 579.68,-368.57"/>
</g>
<!-- ClpSolver -->
<g id="node9" class="node">
<title>ClpSolver</title>
<path fill="royalblue" stroke="black" d="M519,-358C519,-358 439,-358 439,-358 433,-358 427,-352 427,-346 427,-346 427,-332 427,-332 427,-326 433,-320 439,-320 439,-320 519,-320 519,-320 525,-320 531,-326 531,-332 531,-332 531,-346 531,-346 531,-352 525,-358 519,-358"/>
<text text-anchor="middle" x="479" y="-342.8" font-family="Times,serif" font-size="14.00">libClpSolver</text>
<text text-anchor="middle" x="479" y="-327.8" font-family="Times,serif" font-size="14.00">(autotools)</text>
</g>
<!-- Clp&#45;&gt;ClpSolver -->
<g id="edge7" class="edge">
<title>Clp&#45;&gt;ClpSolver</title>
<path fill="none" stroke="black" d="M527.6,-393.83C519.96,-385.37 510.73,-375.15 502.38,-365.9"/>
<polygon fill="black" stroke="black" points="504.92,-363.49 495.62,-358.41 499.73,-368.18 504.92,-363.49"/>
</g>
<!-- Clp&#45;&gt;Cbc -->
<g id="edge13" class="edge">
<title>Clp&#45;&gt;Cbc</title>
<path fill="none" stroke="black" d="M497.39,-405.04C469.26,-398.17 435.56,-384.62 418,-358 382.94,-304.82 399.13,-225.44 411.5,-183.79"/>
<polygon fill="black" stroke="black" points="414.9,-184.64 414.53,-174.05 408.22,-182.56 414.9,-184.64"/>
</g>
<!-- OsiClp&#45;&gt;Cgl -->
<g id="edge10" class="edge">
<title>OsiClp&#45;&gt;Cgl</title>
<path fill="none" stroke="black" d="M598.82,-319.76C601.02,-305.53 604.12,-285.52 606.63,-269.23"/>
<polygon fill="black" stroke="black" points="610.12,-269.58 608.19,-259.16 603.2,-268.51 610.12,-269.58"/>
</g>
<!-- Cgl&#45;&gt;Cbc -->
<g id="edge14" class="edge">
<title>Cgl&#45;&gt;Cbc</title>
<path fill="none" stroke="black" d="M569.77,-220.99C540.99,-208.42 502.39,-191.55 471.72,-178.16"/>
<polygon fill="black" stroke="black" points="473.04,-174.91 462.47,-174.12 470.24,-181.33 473.04,-174.91"/>
</g>
<!-- Cbc&#45;&gt;OsiCbc -->
<g id="edge17" class="edge">
<title>Cbc&#45;&gt;OsiCbc</title>
<path fill="none" stroke="black" d="M452.54,-135.83C468.68,-126.54 488.5,-115.12 505.73,-105.2"/>
<polygon fill="black" stroke="black" points="507.55,-108.19 514.47,-100.16 504.06,-102.12 507.55,-108.19"/>
</g>
<!-- CbcSolver -->
<g id="node13" class="node">
<title>CbcSolver</title>
<path fill="royalblue" stroke="black" d="M469.5,-100C469.5,-100 386.5,-100 386.5,-100 380.5,-100 374.5,-94 374.5,-88 374.5,-88 374.5,-74 374.5,-74 374.5,-68 380.5,-62 386.5,-62 386.5,-62 469.5,-62 469.5,-62 475.5,-62 481.5,-68 481.5,-74 481.5,-74 481.5,-88 481.5,-88 481.5,-94 475.5,-100 469.5,-100"/>
<text text-anchor="middle" x="428" y="-84.8" font-family="Times,serif" font-size="14.00">libCbcSolver</text>
<text text-anchor="middle" x="428" y="-69.8" font-family="Times,serif" font-size="14.00">(autotools)</text>
</g>
<!-- Cbc&#45;&gt;CbcSolver -->
<g id="edge18" class="edge">
<title>Cbc&#45;&gt;CbcSolver</title>
<path fill="none" stroke="black" d="M422.77,-135.83C423.52,-128.13 424.41,-118.97 425.24,-110.42"/>
<polygon fill="black" stroke="black" points="428.73,-110.71 426.21,-100.41 421.76,-110.03 428.73,-110.71"/>
</g>
<!-- SWIG_WIN -->
<g id="node14" class="node">
<title>SWIG_WIN</title>
<path fill="royalblue" stroke="chocolate" d="M836,-602C836,-602 768,-602 768,-602 762,-602 756,-596 756,-590 756,-590 756,-576 756,-576 756,-570 762,-564 768,-564 768,-564 836,-564 836,-564 842,-564 848,-570 848,-576 848,-576 848,-590 848,-590 848,-596 842,-602 836,-602"/>
<text text-anchor="middle" x="802" y="-586.8" font-family="Times,serif" font-size="14.00">Swigwin</text>
<text text-anchor="middle" x="802" y="-571.8" font-family="Times,serif" font-size="14.00">(Windows)</text>
</g>
<!-- CPLEX -->
<g id="node15" class="node">
<title>CPLEX</title>
<path fill="none" stroke="grey" stroke-dasharray="5,2" d="M967.5,-602C967.5,-602 878.5,-602 878.5,-602 872.5,-602 866.5,-596 866.5,-590 866.5,-590 866.5,-576 866.5,-576 866.5,-570 872.5,-564 878.5,-564 878.5,-564 967.5,-564 967.5,-564 973.5,-564 979.5,-570 979.5,-576 979.5,-576 979.5,-590 979.5,-590 979.5,-596 973.5,-602 967.5,-602"/>
<text text-anchor="middle" x="923" y="-586.8" font-family="Times,serif" font-size="14.00">Cplex Solver</text>
<text text-anchor="middle" x="923" y="-571.8" font-family="Times,serif" font-size="14.00">CPLEX_*_DIR</text>
</g>
<!-- GLPK -->
<g id="node16" class="node">
<title>GLPK</title>
<path fill="none" stroke="grey" stroke-dasharray="5,2" d="M963,-516C963,-516 883,-516 883,-516 877,-516 871,-510 871,-504 871,-504 871,-492 871,-492 871,-486 877,-480 883,-480 883,-480 963,-480 963,-480 969,-480 975,-486 975,-492 975,-492 975,-504 975,-504 975,-510 969,-516 963,-516"/>
<text text-anchor="middle" x="923" y="-494.3" font-family="Times,serif" font-size="14.00">GLPK_*_DIR</text>
</g>
<!-- CPLEX&#45;&gt;GLPK -->
<g id="edge22" class="edge">
<title>CPLEX&#45;&gt;GLPK</title>
</g>
<!-- GUROBI -->
<g id="node17" class="node">
<title>GUROBI</title>
<path fill="none" stroke="grey" stroke-dasharray="5,2" d="M973.5,-431C973.5,-431 872.5,-431 872.5,-431 866.5,-431 860.5,-425 860.5,-419 860.5,-419 860.5,-407 860.5,-407 860.5,-401 866.5,-395 872.5,-395 872.5,-395 973.5,-395 973.5,-395 979.5,-395 985.5,-401 985.5,-407 985.5,-407 985.5,-419 985.5,-419 985.5,-425 979.5,-431 973.5,-431"/>
<text text-anchor="middle" x="923" y="-409.3" font-family="Times,serif" font-size="14.00">GUROBI_*_DIR</text>
</g>
<!-- GLPK&#45;&gt;GUROBI -->
<g id="edge23" class="edge">
<title>GLPK&#45;&gt;GUROBI</title>
</g>
<!-- SCIP -->
<g id="node18" class="node">
<title>SCIP</title>
<path fill="none" stroke="grey" stroke-dasharray="5,2" d="M960.5,-357C960.5,-357 885.5,-357 885.5,-357 879.5,-357 873.5,-351 873.5,-345 873.5,-345 873.5,-333 873.5,-333 873.5,-327 879.5,-321 885.5,-321 885.5,-321 960.5,-321 960.5,-321 966.5,-321 972.5,-327 972.5,-333 972.5,-333 972.5,-345 972.5,-345 972.5,-351 966.5,-357 960.5,-357"/>
<text text-anchor="middle" x="923" y="-335.3" font-family="Times,serif" font-size="14.00">SCIP_*_DIR</text>
</g>
<!-- GUROBI&#45;&gt;SCIP -->
<g id="edge24" class="edge">
<title>GUROBI&#45;&gt;SCIP</title>
</g>
<!-- XPRESS -->
<g id="node19" class="node">
<title>XPRESS</title>
<path fill="none" stroke="grey" stroke-dasharray="5,2" d="M972.5,-258C972.5,-258 873.5,-258 873.5,-258 867.5,-258 861.5,-252 861.5,-246 861.5,-246 861.5,-234 861.5,-234 861.5,-228 867.5,-222 873.5,-222 873.5,-222 972.5,-222 972.5,-222 978.5,-222 984.5,-228 984.5,-234 984.5,-234 984.5,-246 984.5,-246 984.5,-252 978.5,-258 972.5,-258"/>
<text text-anchor="middle" x="923" y="-236.3" font-family="Times,serif" font-size="14.00">XPRESS_*_DIR</text>
</g>
<!-- SCIP&#45;&gt;XPRESS -->
<g id="edge25" class="edge">
<title>SCIP&#45;&gt;XPRESS</title>
</g>
</g>
</svg>
