<?xml version="1.0" encoding="UTF-8" standalone="no"?>
<!DOCTYPE svg PUBLIC "-//W3C//DTD SVG 1.1//EN"
 "http://www.w3.org/Graphics/SVG/1.1/DTD/svg11.dtd">
<!-- Generated by graphviz version 2.42.3 (0)
 -->
<!-- Title: Make Pages: 1 -->
<svg width="1978pt" height="1058pt"
 viewBox="0.00 0.00 1978.00 1058.00" xmlns="http://www.w3.org/2000/svg" xmlns:xlink="http://www.w3.org/1999/xlink">
<g id="graph0" class="graph" transform="scale(1 1) rotate(0) translate(4 1054)">
<title>Make</title>
<polygon fill="white" stroke="transparent" points="-4,4 -4,-1054 1974,-1054 1974,4 -4,4"/>
<g id="clust1" class="cluster">
<title>clusterPrerequisite</title>
<polygon fill="none" stroke="black" points="8,-695 8,-995 364,-995 364,-695 8,-695"/>
<text text-anchor="middle" x="186" y="-979.8" font-family="Times,serif" font-size="14.00">Prerequisite</text>
</g>
<g id="clust2" class="cluster">
<title>clusterOR</title>
<polygon fill="none" stroke="royalblue" points="372,-8 372,-1042 1962,-1042 1962,-8 372,-8"/>
<text text-anchor="middle" x="1167" y="-1026.8" font-family="Times,serif" font-size="14.00">OR&#45;Tools (Makefile)</text>
</g>
<g id="clust3" class="cluster">
<title>clusterDeps</title>
<polygon fill="none" stroke="grey" points="380,-694 380,-1011 1206,-1011 1206,-694 380,-694"/>
<text text-anchor="middle" x="793" y="-995.8" font-family="Times,serif" font-size="14.00">Dependencies</text>
<text text-anchor="middle" x="793" y="-980.8" font-family="Times,serif" font-size="14.00">Target: third_party</text>
</g>
<g id="clust4" class="cluster">
<title>clusterCXX</title>
<polygon fill="none" stroke="royalblue" points="380,-452 380,-675 690,-675 690,-452 380,-452"/>
<text text-anchor="middle" x="535" y="-659.8" font-family="Times,serif" font-size="14.00">C++</text>
<text text-anchor="middle" x="535" y="-644.8" font-family="Times,serif" font-size="14.00">Target: cc</text>
</g>
<g id="clust5" class="cluster">
<title>clusterCXXTest</title>
<polygon fill="none" stroke="black" points="550,-460 550,-550 682,-550 682,-460 550,-460"/>
<text text-anchor="middle" x="616" y="-534.8" font-family="Times,serif" font-size="14.00">Examples</text>
<text text-anchor="middle" x="616" y="-519.8" font-family="Times,serif" font-size="14.00">Target: test_cc</text>
</g>
<g id="clust6" class="cluster">
<title>clusterPython</title>
<polygon fill="none" stroke="gold" points="698,-234 698,-550 1064,-550 1064,-234 698,-234"/>
<text text-anchor="middle" x="881" y="-534.8" font-family="Times,serif" font-size="14.00">Python</text>
<text text-anchor="middle" x="881" y="-519.8" font-family="Times,serif" font-size="14.00">Target: python</text>
</g>
<g id="clust7" class="cluster">
<title>clusterPythonTest</title>
<polygon fill="none" stroke="black" points="900,-242 900,-332 1056,-332 1056,-242 900,-242"/>
<text text-anchor="middle" x="978" y="-316.8" font-family="Times,serif" font-size="14.00">Examples</text>
<text text-anchor="middle" x="978" y="-301.8" font-family="Times,serif" font-size="14.00">Target: test_python</text>
</g>
<g id="clust8" class="cluster">
<title>clusterJava</title>
<polygon fill="none" stroke="crimson" points="1072,-234 1072,-550 1398,-550 1398,-234 1072,-234"/>
<text text-anchor="middle" x="1235" y="-534.8" font-family="Times,serif" font-size="14.00">Java</text>
<text text-anchor="middle" x="1235" y="-519.8" font-family="Times,serif" font-size="14.00">Target: java</text>
</g>
<g id="clust9" class="cluster">
<title>clusterJavaTest</title>
<polygon fill="none" stroke="black" points="1254,-242 1254,-332 1390,-332 1390,-242 1254,-242"/>
<text text-anchor="middle" x="1322" y="-316.8" font-family="Times,serif" font-size="14.00">Examples</text>
<text text-anchor="middle" x="1322" y="-301.8" font-family="Times,serif" font-size="14.00">Target: test_java</text>
</g>
<g id="clust10" class="cluster">
<title>clusterNet</title>
<polygon fill="none" stroke="forestgreen" points="1406,-16 1406,-550 1954,-550 1954,-16 1406,-16"/>
<text text-anchor="middle" x="1680" y="-534.8" font-family="Times,serif" font-size="14.00">.Net</text>
<text text-anchor="middle" x="1680" y="-519.8" font-family="Times,serif" font-size="14.00">Target: dotnet</text>
</g>
<g id="clust11" class="cluster">
<title>clusterNetTest</title>
<polygon fill="none" stroke="black" points="1704,-24 1704,-114 1946,-114 1946,-24 1704,-24"/>
<text text-anchor="middle" x="1825" y="-98.8" font-family="Times,serif" font-size="14.00">Examples</text>
<text text-anchor="middle" x="1825" y="-83.8" font-family="Times,serif" font-size="14.00">Target: test_dotnet</text>
</g>
<!-- M -->
<g id="node1" class="node">
<title>M</title>
<polygon fill="royalblue" stroke="black" points="187,-964 135,-964 131,-960 131,-928 183,-928 187,-932 187,-964"/>
<polyline fill="none" stroke="black" points="183,-960 131,-960 "/>
<polyline fill="none" stroke="black" points="183,-960 183,-928 "/>
<polyline fill="none" stroke="black" points="183,-960 187,-964 "/>
<text text-anchor="middle" x="159" y="-942.3" font-family="Times,serif" font-size="14.00">Make</text>
</g>
<!-- SWIG -->
<g id="node3" class="node">
<title>SWIG</title>
<polygon fill="chocolate" stroke="black" points="189.5,-890 132.5,-890 128.5,-886 128.5,-852 185.5,-852 189.5,-856 189.5,-890"/>
<polyline fill="none" stroke="black" points="185.5,-886 128.5,-886 "/>
<polyline fill="none" stroke="black" points="185.5,-886 185.5,-852 "/>
<polyline fill="none" stroke="black" points="185.5,-886 189.5,-890 "/>
<text text-anchor="middle" x="159" y="-874.8" font-family="Times,serif" font-size="14.00">Swig</text>
<text text-anchor="middle" x="159" y="-859.8" font-family="Times,serif" font-size="14.00">(Unix)</text>
</g>
<!-- M&#45;&gt;SWIG -->
<g id="edge1" class="edge">
<title>M&#45;&gt;SWIG</title>
</g>
<!-- CM -->
<g id="node2" class="node">
<title>CM</title>
<polygon fill="royalblue" stroke="black" points="98,-964 36,-964 32,-960 32,-928 94,-928 98,-932 98,-964"/>
<polyline fill="none" stroke="black" points="94,-960 32,-960 "/>
<polyline fill="none" stroke="black" points="94,-960 94,-928 "/>
<polyline fill="none" stroke="black" points="94,-960 98,-964 "/>
<text text-anchor="middle" x="65" y="-942.3" font-family="Times,serif" font-size="14.00">CMake</text>
</g>
<!-- PY -->
<g id="node4" class="node">
<title>PY</title>
<polygon fill="gold" stroke="black" points="83.5,-815 20.5,-815 16.5,-811 16.5,-777 79.5,-777 83.5,-781 83.5,-815"/>
<polyline fill="none" stroke="black" points="79.5,-811 16.5,-811 "/>
<polyline fill="none" stroke="black" points="79.5,-811 79.5,-777 "/>
<polyline fill="none" stroke="black" points="79.5,-811 83.5,-815 "/>
<text text-anchor="middle" x="50" y="-799.8" font-family="Times,serif" font-size="14.00">Python</text>
<text text-anchor="middle" x="50" y="-784.8" font-family="Times,serif" font-size="14.00">(3.5+)</text>
</g>
<!-- SWIG&#45;&gt;PY -->
<g id="edge2" class="edge">
<title>SWIG&#45;&gt;PY</title>
</g>
<!-- JV -->
<g id="node5" class="node">
<title>JV</title>
<polygon fill="crimson" stroke="black" points="216,-815 106,-815 102,-811 102,-777 212,-777 216,-781 216,-815"/>
<polyline fill="none" stroke="black" points="212,-811 102,-811 "/>
<polyline fill="none" stroke="black" points="212,-811 212,-777 "/>
<polyline fill="none" stroke="black" points="212,-811 216,-815 "/>
<text text-anchor="middle" x="159" y="-799.8" font-family="Times,serif" font-size="14.00">Java</text>
<text text-anchor="middle" x="159" y="-784.8" font-family="Times,serif" font-size="14.00">(openJDK 8+)</text>
</g>
<!-- SWIG&#45;&gt;JV -->
<g id="edge3" class="edge">
<title>SWIG&#45;&gt;JV</title>
</g>
<!-- NET -->
<g id="node6" class="node">
<title>NET</title>
<polygon fill="forestgreen" stroke="black" points="356,-815 238,-815 234,-811 234,-777 352,-777 356,-781 356,-815"/>
<polyline fill="none" stroke="black" points="352,-811 234,-811 "/>
<polyline fill="none" stroke="black" points="352,-811 352,-777 "/>
<polyline fill="none" stroke="black" points="352,-811 356,-815 "/>
<text text-anchor="middle" x="295" y="-799.8" font-family="Times,serif" font-size="14.00">.Net Core SDK</text>
<text text-anchor="middle" x="295" y="-784.8" font-family="Times,serif" font-size="14.00">(3.0.101)</text>
</g>
<!-- SWIG&#45;&gt;NET -->
<g id="edge4" class="edge">
<title>SWIG&#45;&gt;NET</title>
</g>
<!-- FS -->
<g id="node7" class="node">
<title>FS</title>
<polygon fill="forestgreen" stroke="black" points="332,-739 262,-739 258,-735 258,-703 328,-703 332,-707 332,-739"/>
<polyline fill="none" stroke="black" points="328,-735 258,-735 "/>
<polyline fill="none" stroke="black" points="328,-735 328,-703 "/>
<polyline fill="none" stroke="black" points="328,-735 332,-739 "/>
<text text-anchor="middle" x="295" y="-717.3" font-family="Times,serif" font-size="14.00">.Net F#</text>
</g>
<!-- NET&#45;&gt;FS -->
<g id="edge5" class="edge">
<title>NET&#45;&gt;FS</title>
</g>
<!-- Z -->
<g id="node8" class="node">
<title>Z</title>
<path fill="royalblue" stroke="royalblue" d="M556,-965C556,-965 514,-965 514,-965 508,-965 502,-959 502,-953 502,-953 502,-939 502,-939 502,-933 508,-927 514,-927 514,-927 556,-927 556,-927 562,-927 568,-933 568,-939 568,-939 568,-953 568,-953 568,-959 562,-965 556,-965"/>
<text text-anchor="middle" x="535" y="-949.8" font-family="Times,serif" font-size="14.00">Zlib</text>
<text text-anchor="middle" x="535" y="-934.8" font-family="Times,serif" font-size="14.00">(Make)</text>
</g>
<!-- PB -->
<g id="node12" class="node">
<title>PB</title>
<path fill="royalblue" stroke="royalblue" d="M537.5,-890C537.5,-890 482.5,-890 482.5,-890 476.5,-890 470.5,-884 470.5,-878 470.5,-878 470.5,-864 470.5,-864 470.5,-858 476.5,-852 482.5,-852 482.5,-852 537.5,-852 537.5,-852 543.5,-852 549.5,-858 549.5,-864 549.5,-864 549.5,-878 549.5,-878 549.5,-884 543.5,-890 537.5,-890"/>
<text text-anchor="middle" x="510" y="-874.8" font-family="Times,serif" font-size="14.00">Protobuf</text>
<text text-anchor="middle" x="510" y="-859.8" font-family="Times,serif" font-size="14.00">(CMake)</text>
</g>
<!-- Z&#45;&gt;PB -->
<g id="edge6" class="edge">
<title>Z&#45;&gt;PB</title>
<path fill="none" stroke="black" d="M528.82,-926.96C526,-918.71 522.59,-908.75 519.45,-899.6"/>
<polygon fill="black" stroke="black" points="522.75,-898.42 516.2,-890.09 516.12,-900.68 522.75,-898.42"/>
</g>
<!-- OR_CC -->
<g id="node24" class="node">
<title>OR_CC</title>
<path fill="royalblue" stroke="black" d="M545.5,-629C545.5,-629 482.5,-629 482.5,-629 476.5,-629 470.5,-623 470.5,-617 470.5,-617 470.5,-603 470.5,-603 470.5,-597 476.5,-591 482.5,-591 482.5,-591 545.5,-591 545.5,-591 551.5,-591 557.5,-597 557.5,-603 557.5,-603 557.5,-617 557.5,-617 557.5,-623 551.5,-629 545.5,-629"/>
<text text-anchor="middle" x="514" y="-613.8" font-family="Times,serif" font-size="14.00">C++</text>
<text text-anchor="middle" x="514" y="-598.8" font-family="Times,serif" font-size="14.00">Target: cc</text>
</g>
<!-- Z&#45;&gt;OR_CC -->
<g id="edge19" class="edge">
<title>Z&#45;&gt;OR_CC</title>
<path fill="none" stroke="black" d="M568.23,-930C571.17,-928.91 574.12,-927.89 577,-927 665.11,-899.88 777,-964.19 777,-872 777,-872 777,-872 777,-720 777,-624.55 648.62,-724.49 567,-675 551.82,-665.8 538.99,-650.65 529.76,-637.41"/>
<polygon fill="black" stroke="black" points="532.66,-635.46 524.22,-629.06 526.83,-639.33 532.66,-635.46"/>
</g>
<!-- ABSL -->
<g id="node9" class="node">
<title>ABSL</title>
<path fill="royalblue" stroke="royalblue" d="M664,-965C664,-965 598,-965 598,-965 592,-965 586,-959 586,-953 586,-953 586,-939 586,-939 586,-933 592,-927 598,-927 598,-927 664,-927 664,-927 670,-927 676,-933 676,-939 676,-939 676,-953 676,-953 676,-959 670,-965 664,-965"/>
<text text-anchor="middle" x="631" y="-949.8" font-family="Times,serif" font-size="14.00">Abseil&#45;cpp</text>
<text text-anchor="middle" x="631" y="-934.8" font-family="Times,serif" font-size="14.00">(CMake)</text>
</g>
<!-- ABSL&#45;&gt;PB -->
<g id="edge7" class="edge">
<title>ABSL&#45;&gt;PB</title>
<path fill="none" stroke="black" d="M601.09,-926.96C585.24,-917.39 565.58,-905.53 548.59,-895.28"/>
<polygon fill="black" stroke="black" points="550.36,-892.26 539.99,-890.09 546.74,-898.25 550.36,-892.26"/>
</g>
<!-- ABSL&#45;&gt;OR_CC -->
<g id="edge20" class="edge">
<title>ABSL&#45;&gt;OR_CC</title>
<path fill="none" stroke="black" d="M676.2,-929.78C679.51,-928.8 682.8,-927.86 686,-927 739.17,-912.71 797,-927.06 797,-872 797,-872 797,-872 797,-720 797,-706.66 792.84,-701.78 782,-694 761.75,-679.47 751.74,-686.08 727,-683 709.34,-680.8 582.91,-682.97 567,-675 550.92,-666.94 537.93,-651.55 528.83,-637.88"/>
<polygon fill="black" stroke="black" points="531.7,-635.86 523.43,-629.24 525.77,-639.57 531.7,-635.86"/>
</g>
<!-- GF -->
<g id="node10" class="node">
<title>GF</title>
<path fill="royalblue" stroke="royalblue" d="M759.5,-965C759.5,-965 706.5,-965 706.5,-965 700.5,-965 694.5,-959 694.5,-953 694.5,-953 694.5,-939 694.5,-939 694.5,-933 700.5,-927 706.5,-927 706.5,-927 759.5,-927 759.5,-927 765.5,-927 771.5,-933 771.5,-939 771.5,-939 771.5,-953 771.5,-953 771.5,-959 765.5,-965 759.5,-965"/>
<text text-anchor="middle" x="733" y="-949.8" font-family="Times,serif" font-size="14.00">GFlags</text>
<text text-anchor="middle" x="733" y="-934.8" font-family="Times,serif" font-size="14.00">(CMake)</text>
</g>
<!-- GL -->
<g id="node11" class="node">
<title>GL</title>
<path fill="royalblue" stroke="royalblue" d="M632.5,-890C632.5,-890 579.5,-890 579.5,-890 573.5,-890 567.5,-884 567.5,-878 567.5,-878 567.5,-864 567.5,-864 567.5,-858 573.5,-852 579.5,-852 579.5,-852 632.5,-852 632.5,-852 638.5,-852 644.5,-858 644.5,-864 644.5,-864 644.5,-878 644.5,-878 644.5,-884 638.5,-890 632.5,-890"/>
<text text-anchor="middle" x="606" y="-874.8" font-family="Times,serif" font-size="14.00">GLog</text>
<text text-anchor="middle" x="606" y="-859.8" font-family="Times,serif" font-size="14.00">(CMake)</text>
</g>
<!-- GF&#45;&gt;GL -->
<g id="edge8" class="edge">
<title>GF&#45;&gt;GL</title>
<path fill="none" stroke="black" d="M701.61,-926.96C684.97,-917.39 664.34,-905.53 646.51,-895.28"/>
<polygon fill="black" stroke="black" points="647.89,-892.04 637.47,-890.09 644.4,-898.11 647.89,-892.04"/>
</g>
<!-- GF&#45;&gt;OR_CC -->
<g id="edge21" class="edge">
<title>GF&#45;&gt;OR_CC</title>
<path fill="none" stroke="black" d="M771.56,-928.97C793.64,-916.96 817,-898.08 817,-872 817,-872 817,-872 817,-720 817,-706.66 812.89,-701.71 802,-694 780.23,-678.59 769.5,-686.06 743,-683 723.55,-680.76 584.52,-683.73 567,-675 550.9,-666.98 537.91,-651.59 528.82,-637.91"/>
<polygon fill="black" stroke="black" points="531.68,-635.89 523.42,-629.26 525.75,-639.6 531.68,-635.89"/>
</g>
<!-- GL&#45;&gt;OR_CC -->
<g id="edge22" class="edge">
<title>GL&#45;&gt;OR_CC</title>
<path fill="none" stroke="black" d="M567.4,-854.8C564.57,-853.81 561.75,-852.87 559,-852 494.76,-831.69 453.42,-868.14 412,-815 366.99,-757.26 440.21,-676.51 484.35,-636.11"/>
<polygon fill="black" stroke="black" points="486.85,-638.56 491.95,-629.28 482.17,-633.35 486.85,-638.56"/>
</g>
<!-- PB&#45;&gt;OR_CC -->
<g id="edge23" class="edge">
<title>PB&#45;&gt;OR_CC</title>
<path fill="none" stroke="black" d="M470.46,-868.83C444.74,-865.76 412.93,-857.1 396,-834 356.33,-779.87 363.15,-741.52 396,-683 410.06,-657.95 436.77,-640.58 461.23,-629.19"/>
<polygon fill="black" stroke="black" points="462.73,-632.36 470.46,-625.11 459.9,-625.95 462.73,-632.36"/>
</g>
<!-- CU -->
<g id="node13" class="node">
<title>CU</title>
<path fill="royalblue" stroke="royalblue" d="M471.5,-965C471.5,-965 400.5,-965 400.5,-965 394.5,-965 388.5,-959 388.5,-953 388.5,-953 388.5,-939 388.5,-939 388.5,-933 394.5,-927 400.5,-927 400.5,-927 471.5,-927 471.5,-927 477.5,-927 483.5,-933 483.5,-939 483.5,-939 483.5,-953 483.5,-953 483.5,-959 477.5,-965 471.5,-965"/>
<text text-anchor="middle" x="436" y="-949.8" font-family="Times,serif" font-size="14.00">CoinUtils</text>
<text text-anchor="middle" x="436" y="-934.8" font-family="Times,serif" font-size="14.00">(Autotools)</text>
</g>
<!-- OSI -->
<g id="node14" class="node">
<title>OSI</title>
<path fill="royalblue" stroke="royalblue" d="M745.5,-890C745.5,-890 674.5,-890 674.5,-890 668.5,-890 662.5,-884 662.5,-878 662.5,-878 662.5,-864 662.5,-864 662.5,-858 668.5,-852 674.5,-852 674.5,-852 745.5,-852 745.5,-852 751.5,-852 757.5,-858 757.5,-864 757.5,-864 757.5,-878 757.5,-878 757.5,-884 751.5,-890 745.5,-890"/>
<text text-anchor="middle" x="710" y="-874.8" font-family="Times,serif" font-size="14.00">Osi</text>
<text text-anchor="middle" x="710" y="-859.8" font-family="Times,serif" font-size="14.00">(Autotools)</text>
</g>
<!-- CU&#45;&gt;OSI -->
<g id="edge9" class="edge">
<title>CU&#45;&gt;OSI</title>
<path fill="none" stroke="black" d="M483.5,-929.69C486.71,-928.75 489.9,-927.85 493,-927 560.8,-908.54 581.45,-909.36 652.54,-890.29"/>
<polygon fill="black" stroke="black" points="653.69,-893.6 662.42,-887.6 651.86,-886.85 653.69,-893.6"/>
</g>
<!-- CLP -->
<g id="node15" class="node">
<title>CLP</title>
<path fill="royalblue" stroke="royalblue" d="M503.5,-815C503.5,-815 432.5,-815 432.5,-815 426.5,-815 420.5,-809 420.5,-803 420.5,-803 420.5,-789 420.5,-789 420.5,-783 426.5,-777 432.5,-777 432.5,-777 503.5,-777 503.5,-777 509.5,-777 515.5,-783 515.5,-789 515.5,-789 515.5,-803 515.5,-803 515.5,-809 509.5,-815 503.5,-815"/>
<text text-anchor="middle" x="468" y="-799.8" font-family="Times,serif" font-size="14.00">Clp</text>
<text text-anchor="middle" x="468" y="-784.8" font-family="Times,serif" font-size="14.00">(Autotools)</text>
</g>
<!-- CU&#45;&gt;CLP -->
<g id="edge10" class="edge">
<title>CU&#45;&gt;CLP</title>
<path fill="none" stroke="black" d="M429.57,-926.72C422.57,-903.48 414.31,-862.81 430,-833 431.9,-829.39 434.3,-825.95 436.96,-822.71"/>
<polygon fill="black" stroke="black" points="439.76,-824.85 444.01,-815.15 434.63,-820.08 439.76,-824.85"/>
</g>
<!-- CGL -->
<g id="node16" class="node">
<title>CGL</title>
<path fill="royalblue" stroke="royalblue" d="M637.5,-815C637.5,-815 566.5,-815 566.5,-815 560.5,-815 554.5,-809 554.5,-803 554.5,-803 554.5,-789 554.5,-789 554.5,-783 560.5,-777 566.5,-777 566.5,-777 637.5,-777 637.5,-777 643.5,-777 649.5,-783 649.5,-789 649.5,-789 649.5,-803 649.5,-803 649.5,-809 643.5,-815 637.5,-815"/>
<text text-anchor="middle" x="602" y="-799.8" font-family="Times,serif" font-size="14.00">Cgl</text>
<text text-anchor="middle" x="602" y="-784.8" font-family="Times,serif" font-size="14.00">(Autotools)</text>
</g>
<!-- CU&#45;&gt;CGL -->
<g id="edge12" class="edge">
<title>CU&#45;&gt;CGL</title>
<path fill="none" stroke="black" d="M436.41,-927C437.82,-906.42 443.12,-872.9 462,-852 473.71,-839.04 511.42,-824.6 544.75,-813.77"/>
<polygon fill="black" stroke="black" points="546,-817.05 554.47,-810.67 543.88,-810.38 546,-817.05"/>
</g>
<!-- CBC -->
<g id="node17" class="node">
<title>CBC</title>
<path fill="royalblue" stroke="royalblue" d="M570.5,-740C570.5,-740 499.5,-740 499.5,-740 493.5,-740 487.5,-734 487.5,-728 487.5,-728 487.5,-714 487.5,-714 487.5,-708 493.5,-702 499.5,-702 499.5,-702 570.5,-702 570.5,-702 576.5,-702 582.5,-708 582.5,-714 582.5,-714 582.5,-728 582.5,-728 582.5,-734 576.5,-740 570.5,-740"/>
<text text-anchor="middle" x="535" y="-724.8" font-family="Times,serif" font-size="14.00">Cbc</text>
<text text-anchor="middle" x="535" y="-709.8" font-family="Times,serif" font-size="14.00">(Autotools)</text>
</g>
<!-- CU&#45;&gt;CBC -->
<g id="edge14" class="edge">
<title>CU&#45;&gt;CBC</title>
<path fill="none" stroke="black" d="M431,-926.83C426.59,-906.71 422.97,-874.2 438,-852 461.55,-817.2 499.98,-848.76 525,-815 538.69,-796.53 540.3,-770.05 539,-750.07"/>
<polygon fill="black" stroke="black" points="542.47,-749.64 538.07,-740.01 535.5,-750.29 542.47,-749.64"/>
</g>
<!-- OSI&#45;&gt;CLP -->
<g id="edge11" class="edge">
<title>OSI&#45;&gt;CLP</title>
<path fill="none" stroke="black" d="M662.37,-854.6C659.54,-853.72 656.73,-852.84 654,-852 611.21,-838.8 562.68,-824.47 525.92,-813.75"/>
<polygon fill="black" stroke="black" points="526.46,-810.26 515.88,-810.82 524.5,-816.98 526.46,-810.26"/>
</g>
<!-- OSI&#45;&gt;CGL -->
<g id="edge13" class="edge">
<title>OSI&#45;&gt;CGL</title>
<path fill="none" stroke="black" d="M683.3,-851.96C669.41,-842.57 652.25,-830.97 637.28,-820.85"/>
<polygon fill="black" stroke="black" points="639.01,-817.79 628.76,-815.09 635.09,-823.59 639.01,-817.79"/>
</g>
<!-- OSI&#45;&gt;CBC -->
<g id="edge15" class="edge">
<title>OSI&#45;&gt;CBC</title>
<path fill="none" stroke="black" d="M704,-851.64C696.45,-831.05 681.64,-797.81 659,-777 640.19,-759.71 615.05,-747.19 592.32,-738.51"/>
<polygon fill="black" stroke="black" points="593.35,-735.16 582.76,-735.03 590.95,-741.74 593.35,-735.16"/>
</g>
<!-- CLP&#45;&gt;CBC -->
<g id="edge16" class="edge">
<title>CLP&#45;&gt;CBC</title>
<path fill="none" stroke="black" d="M484.56,-776.96C492.7,-768.09 502.64,-757.26 511.54,-747.56"/>
<polygon fill="black" stroke="black" points="514.21,-749.82 518.4,-740.09 509.06,-745.09 514.21,-749.82"/>
</g>
<!-- CLP&#45;&gt;OR_CC -->
<g id="edge24" class="edge">
<title>CLP&#45;&gt;OR_CC</title>
<path fill="none" stroke="black" d="M468.4,-776.84C469.21,-756.4 471.65,-722.34 479,-694 483.97,-674.82 492.6,-654.29 500.04,-638.45"/>
<polygon fill="black" stroke="black" points="503.29,-639.78 504.48,-629.25 496.98,-636.74 503.29,-639.78"/>
</g>
<!-- CGL&#45;&gt;CBC -->
<g id="edge17" class="edge">
<title>CGL&#45;&gt;CBC</title>
<path fill="none" stroke="black" d="M585.44,-776.96C577.3,-768.09 567.36,-757.26 558.46,-747.56"/>
<polygon fill="black" stroke="black" points="560.94,-745.09 551.6,-740.09 555.79,-749.82 560.94,-745.09"/>
</g>
<!-- CBC&#45;&gt;OR_CC -->
<g id="edge25" class="edge">
<title>CBC&#45;&gt;OR_CC</title>
<path fill="none" stroke="black" d="M531.44,-701.51C528.14,-684.42 523.2,-658.77 519.42,-639.14"/>
<polygon fill="black" stroke="black" points="522.84,-638.37 517.51,-629.22 515.96,-639.7 522.84,-638.37"/>
</g>
<!-- SWIG_WIN -->
<g id="node18" class="node">
<title>SWIG_WIN</title>
<path fill="royalblue" stroke="chocolate" d="M870,-965C870,-965 802,-965 802,-965 796,-965 790,-959 790,-953 790,-953 790,-939 790,-939 790,-933 796,-927 802,-927 802,-927 870,-927 870,-927 876,-927 882,-933 882,-939 882,-939 882,-953 882,-953 882,-959 876,-965 870,-965"/>
<text text-anchor="middle" x="836" y="-949.8" font-family="Times,serif" font-size="14.00">Swigwin</text>
<text text-anchor="middle" x="836" y="-934.8" font-family="Times,serif" font-size="14.00">(Windows)</text>
</g>
<!-- GLPK -->
<g id="node19" class="node">
<title>GLPK</title>
<path fill="none" stroke="grey" stroke-dasharray="5,2" d="M945.5,-964C945.5,-964 912.5,-964 912.5,-964 906.5,-964 900.5,-958 900.5,-952 900.5,-952 900.5,-940 900.5,-940 900.5,-934 906.5,-928 912.5,-928 912.5,-928 945.5,-928 945.5,-928 951.5,-928 957.5,-934 957.5,-940 957.5,-940 957.5,-952 957.5,-952 957.5,-958 951.5,-964 945.5,-964"/>
<text text-anchor="middle" x="929" y="-942.3" font-family="Times,serif" font-size="14.00">GLPK</text>
</g>
<!-- GLPK&#45;&gt;OR_CC -->
<g id="edge26" class="edge">
<title>GLPK&#45;&gt;OR_CC</title>
<path fill="none" stroke="black" d="M900.2,-928.45C882.04,-915.66 862,-896.08 862,-872 862,-872 862,-872 862,-720 862,-698.8 841.68,-701.9 822,-694 797.65,-684.22 790.07,-685.98 764,-683 742.24,-680.51 586.63,-684.72 567,-675 550.88,-667.02 537.89,-651.63 528.81,-637.94"/>
<polygon fill="black" stroke="black" points="531.67,-635.92 523.41,-629.29 525.73,-639.62 531.67,-635.92"/>
</g>
<!-- SCIP -->
<g id="node20" class="node">
<title>SCIP</title>
<path fill="none" stroke="grey" stroke-dasharray="5,2" d="M1018,-964C1018,-964 988,-964 988,-964 982,-964 976,-958 976,-952 976,-952 976,-940 976,-940 976,-934 982,-928 988,-928 988,-928 1018,-928 1018,-928 1024,-928 1030,-934 1030,-940 1030,-940 1030,-952 1030,-952 1030,-958 1024,-964 1018,-964"/>
<text text-anchor="middle" x="1003" y="-942.3" font-family="Times,serif" font-size="14.00">SCIP</text>
</g>
<!-- SCIP&#45;&gt;OR_CC -->
<g id="edge27" class="edge">
<title>SCIP&#45;&gt;OR_CC</title>
<path fill="none" stroke="black" d="M975.74,-930.61C956.08,-918.05 933,-897.81 933,-872 933,-872 933,-872 933,-720 933,-688.47 897.58,-701.67 867,-694 826.2,-683.76 814.94,-686.26 773,-683 750.16,-681.22 587.54,-685.15 567,-675 550.87,-667.03 537.88,-651.64 528.8,-637.95"/>
<polygon fill="black" stroke="black" points="531.66,-635.93 523.4,-629.3 525.72,-639.63 531.66,-635.93"/>
</g>
<!-- CPLEX -->
<g id="node21" class="node">
<title>CPLEX</title>
<path fill="none" stroke="grey" stroke-dasharray="5,2" d="M1102,-964C1102,-964 1060,-964 1060,-964 1054,-964 1048,-958 1048,-952 1048,-952 1048,-940 1048,-940 1048,-934 1054,-928 1060,-928 1060,-928 1102,-928 1102,-928 1108,-928 1114,-934 1114,-940 1114,-940 1114,-952 1114,-952 1114,-958 1108,-964 1102,-964"/>
<text text-anchor="middle" x="1081" y="-942.3" font-family="Times,serif" font-size="14.00">CPLEX</text>
</g>
<!-- CPLEX&#45;&gt;OR_CC -->
<g id="edge28" class="edge">
<title>CPLEX&#45;&gt;OR_CC</title>
<path fill="none" stroke="black" d="M1071.17,-927.91C1063.81,-913.49 1055,-892.05 1055,-872 1055,-872 1055,-872 1055,-720 1055,-666.73 990.71,-701.7 938,-694 870.1,-684.09 852.52,-686.71 784,-683 759.91,-681.7 588.64,-685.67 567,-675 550.76,-666.99 537.7,-651.46 528.61,-637.69"/>
<polygon fill="black" stroke="black" points="531.47,-635.65 523.22,-629 525.52,-639.35 531.47,-635.65"/>
</g>
<!-- GUROBI -->
<g id="node22" class="node">
<title>GUROBI</title>
<path fill="none" stroke="grey" stroke-dasharray="5,2" d="M1185.5,-964C1185.5,-964 1144.5,-964 1144.5,-964 1138.5,-964 1132.5,-958 1132.5,-952 1132.5,-952 1132.5,-940 1132.5,-940 1132.5,-934 1138.5,-928 1144.5,-928 1144.5,-928 1185.5,-928 1185.5,-928 1191.5,-928 1197.5,-934 1197.5,-940 1197.5,-940 1197.5,-952 1197.5,-952 1197.5,-958 1191.5,-964 1185.5,-964"/>
<text text-anchor="middle" x="1165" y="-942.3" font-family="Times,serif" font-size="14.00">Gurobi</text>
</g>
<!-- GUROBI&#45;&gt;OR_CC -->
<g id="edge29" class="edge">
<title>GUROBI&#45;&gt;OR_CC</title>
<path fill="none" stroke="black" d="M1152.34,-927.98C1143.03,-913.77 1132,-892.58 1132,-872 1132,-872 1132,-872 1132,-720 1132,-685.98 1093.38,-700.57 1060,-694 945.64,-671.5 914.46,-687.46 798,-683 785.17,-682.51 578.52,-680.66 567,-675 550.75,-667.01 537.7,-651.47 528.61,-637.71"/>
<polygon fill="black" stroke="black" points="531.46,-635.67 523.22,-629.02 525.51,-639.36 531.46,-635.67"/>
</g>
<!-- OR_SRC -->
<g id="node23" class="node">
<title>OR_SRC</title>
<polygon fill="royalblue" stroke="black" points="682,-629 679,-633 658,-633 655,-629 576,-629 576,-591 682,-591 682,-629"/>
<text text-anchor="middle" x="629" y="-613.8" font-family="Times,serif" font-size="14.00">OR&#45;Tools src</text>
<text text-anchor="middle" x="629" y="-598.8" font-family="Times,serif" font-size="14.00">ortools/...</text>
</g>
<!-- PKG_CC -->
<g id="node25" class="node">
<title>PKG_CC</title>
<polygon fill="royalblue" stroke="black" points="540,-505 392,-505 388,-501 388,-467 536,-467 540,-471 540,-505"/>
<polyline fill="none" stroke="black" points="536,-501 388,-501 "/>
<polyline fill="none" stroke="black" points="536,-501 536,-467 "/>
<polyline fill="none" stroke="black" points="536,-501 540,-505 "/>
<text text-anchor="middle" x="464" y="-489.8" font-family="Times,serif" font-size="14.00">.tar.gz/.zip Archive</text>
<text text-anchor="middle" x="464" y="-474.8" font-family="Times,serif" font-size="14.00">Target: package_cc</text>
</g>
<!-- OR_CC&#45;&gt;PKG_CC -->
<g id="edge30" class="edge">
<title>OR_CC&#45;&gt;PKG_CC</title>
<path fill="none" stroke="dimgrey" stroke-dasharray="1,5" d="M506.62,-591C498.35,-570.82 484.84,-537.86 475.25,-514.45"/>
<polygon fill="dimgrey" stroke="dimgrey" points="478.44,-513 471.41,-505.08 471.96,-515.66 478.44,-513"/>
<text text-anchor="middle" x="514" y="-561.8" font-family="Times,serif" font-size="14.00">WIP</text>
</g>
<!-- EX_CC -->
<g id="node26" class="node">
<title>EX_CC</title>
<polygon fill="royalblue" stroke="black" points="668,-504 558,-504 558,-468 674,-468 674,-498 668,-504"/>
<polyline fill="none" stroke="black" points="668,-504 668,-498 "/>
<polyline fill="none" stroke="black" points="674,-498 668,-498 "/>
<text text-anchor="middle" x="616" y="-482.3" font-family="Times,serif" font-size="14.00">C++ Samples</text>
</g>
<!-- OR_CC&#45;&gt;EX_CC -->
<g id="edge18" class="edge">
<title>OR_CC&#45;&gt;EX_CC</title>
<path fill="none" stroke="black" d="M529.05,-591C546.5,-570.13 575.37,-535.59 595.02,-512.1"/>
<polygon fill="black" stroke="black" points="597.82,-514.2 601.55,-504.29 592.45,-509.71 597.82,-514.2"/>
</g>
<!-- OR_WPY -->
<g id="node27" class="node">
<title>OR_WPY</title>
<polygon fill="gold" stroke="black" points="878,-504 706,-504 706,-468 884,-468 884,-498 878,-504"/>
<polyline fill="none" stroke="black" points="878,-504 878,-498 "/>
<polyline fill="none" stroke="black" points="884,-498 878,-498 "/>
<text text-anchor="middle" x="795" y="-482.3" font-family="Times,serif" font-size="14.00">C++ Python wrappers</text>
</g>
<!-- OR_CC&#45;&gt;OR_WPY -->
<g id="edge32" class="edge">
<title>OR_CC&#45;&gt;OR_WPY</title>
<path fill="none" stroke="chocolate" d="M557.72,-594.12C607.66,-577.1 682.94,-551.39 686,-550 711.76,-538.27 739.35,-522.29 760.33,-509.35"/>
<polygon fill="chocolate" stroke="chocolate" points="762.25,-512.28 768.89,-504.02 758.55,-506.34 762.25,-512.28"/>
<text text-anchor="middle" x="679" y="-561.8" font-family="Times,serif" font-size="14.00">swig</text>
</g>
<!-- OR_PY -->
<g id="node28" class="node">
<title>OR_PY</title>
<polygon fill="gold" stroke="black" points="928,-411 812,-411 812,-373 934,-373 934,-405 928,-411"/>
<polyline fill="none" stroke="black" points="928,-411 928,-405 "/>
<polyline fill="none" stroke="black" points="934,-405 928,-405 "/>
<text text-anchor="middle" x="873" y="-395.8" font-family="Times,serif" font-size="14.00">Python files</text>
<text text-anchor="middle" x="873" y="-380.8" font-family="Times,serif" font-size="14.00">Target: python</text>
</g>
<!-- OR_CC&#45;&gt;OR_PY -->
<g id="edge33" class="edge">
<title>OR_CC&#45;&gt;OR_PY</title>
<path fill="none" stroke="chocolate" d="M557.76,-593.38C560.87,-592.5 563.97,-591.7 567,-591 638.15,-574.62 844.44,-604.53 893,-550 928.77,-509.84 908.04,-480.92 894,-429 893.2,-426.02 892.08,-423.04 890.77,-420.13"/>
<polygon fill="chocolate" stroke="chocolate" points="893.85,-418.46 886.11,-411.22 887.64,-421.71 893.85,-418.46"/>
<text text-anchor="middle" x="929" y="-482.3" font-family="Times,serif" font-size="14.00">swig</text>
</g>
<!-- OR_WJV -->
<g id="node31" class="node">
<title>OR_WJV</title>
<polygon fill="crimson" stroke="black" points="1232,-504 1080,-504 1080,-468 1238,-468 1238,-498 1232,-504"/>
<polyline fill="none" stroke="black" points="1232,-504 1232,-498 "/>
<polyline fill="none" stroke="black" points="1238,-498 1232,-498 "/>
<text text-anchor="middle" x="1159" y="-482.3" font-family="Times,serif" font-size="14.00">C++ Java wrappers</text>
</g>
<!-- OR_CC&#45;&gt;OR_WJV -->
<g id="edge37" class="edge">
<title>OR_CC&#45;&gt;OR_WJV</title>
<path fill="none" stroke="chocolate" d="M557.71,-593.11C560.83,-592.3 563.95,-591.58 567,-591 786.44,-549.07 860.73,-633.39 1068,-550 1091.44,-540.57 1114.81,-524.21 1131.99,-510.52"/>
<polygon fill="chocolate" stroke="chocolate" points="1134.37,-513.1 1139.91,-504.06 1129.95,-507.67 1134.37,-513.1"/>
<text text-anchor="middle" x="1060" y="-561.8" font-family="Times,serif" font-size="14.00">swig</text>
</g>
<!-- OR_JV -->
<g id="node32" class="node">
<title>OR_JV</title>
<polygon fill="crimson" stroke="black" points="1271.5,-411 1176.5,-411 1176.5,-373 1277.5,-373 1277.5,-405 1271.5,-411"/>
<polyline fill="none" stroke="black" points="1271.5,-411 1271.5,-405 "/>
<polyline fill="none" stroke="black" points="1277.5,-405 1271.5,-405 "/>
<text text-anchor="middle" x="1227" y="-395.8" font-family="Times,serif" font-size="14.00">Java files</text>
<text text-anchor="middle" x="1227" y="-380.8" font-family="Times,serif" font-size="14.00">Target: java</text>
</g>
<!-- OR_CC&#45;&gt;OR_JV -->
<g id="edge38" class="edge">
<title>OR_CC&#45;&gt;OR_JV</title>
<path fill="none" stroke="chocolate" d="M557.7,-593.06C560.82,-592.26 563.94,-591.56 567,-591 679.42,-570.4 967.13,-582.86 1081,-573 1155.21,-566.58 1198.08,-606.17 1247,-550 1278.34,-514.02 1257.95,-454.6 1241.6,-420.1"/>
<polygon fill="chocolate" stroke="chocolate" points="1244.71,-418.49 1237.14,-411.08 1238.43,-421.59 1244.71,-418.49"/>
<text text-anchor="middle" x="1280" y="-482.3" font-family="Times,serif" font-size="14.00">swig</text>
</g>
<!-- OR_WNET -->
<g id="node35" class="node">
<title>OR_WNET</title>
<polygon fill="forestgreen" stroke="black" points="1641,-504 1489,-504 1489,-468 1647,-468 1647,-498 1641,-504"/>
<polyline fill="none" stroke="black" points="1641,-504 1641,-498 "/>
<polyline fill="none" stroke="black" points="1647,-498 1641,-498 "/>
<text text-anchor="middle" x="1568" y="-482.3" font-family="Times,serif" font-size="14.00">C++ .Net wrappers</text>
</g>
<!-- OR_CC&#45;&gt;OR_WNET -->
<g id="edge43" class="edge">
<title>OR_CC&#45;&gt;OR_WNET</title>
<path fill="none" stroke="chocolate" d="M557.69,-593.03C560.81,-592.24 563.94,-591.55 567,-591 722.82,-563.23 1121.6,-589.6 1279,-573 1334.31,-567.17 1348.46,-565.04 1402,-550 1442.52,-538.62 1487.03,-521.46 1519.75,-507.92"/>
<polygon fill="chocolate" stroke="chocolate" points="1521.2,-511.11 1529.08,-504.03 1518.51,-504.65 1521.2,-511.11"/>
<text text-anchor="middle" x="1388" y="-561.8" font-family="Times,serif" font-size="14.00">swig</text>
</g>
<!-- OR_NET -->
<g id="node36" class="node">
<title>OR_NET</title>
<polygon fill="forestgreen" stroke="black" points="1853.5,-411 1740.5,-411 1740.5,-373 1859.5,-373 1859.5,-405 1853.5,-411"/>
<polyline fill="none" stroke="black" points="1853.5,-411 1853.5,-405 "/>
<polyline fill="none" stroke="black" points="1859.5,-405 1853.5,-405 "/>
<text text-anchor="middle" x="1800" y="-395.8" font-family="Times,serif" font-size="14.00">.Net files</text>
<text text-anchor="middle" x="1800" y="-380.8" font-family="Times,serif" font-size="14.00">Target: dotnet</text>
</g>
<!-- OR_CC&#45;&gt;OR_NET -->
<g id="edge44" class="edge">
<title>OR_CC&#45;&gt;OR_NET</title>
<path fill="none" stroke="chocolate" d="M557.69,-593.01C560.81,-592.23 563.94,-591.54 567,-591 751.32,-558.53 1222.15,-583.68 1409,-573 1519.07,-566.71 1555.57,-595.5 1656,-550 1716.1,-522.77 1762.36,-457.26 1784.89,-420.04"/>
<polygon fill="chocolate" stroke="chocolate" points="1788.02,-421.61 1790.1,-411.22 1782,-418.05 1788.02,-421.61"/>
<text text-anchor="middle" x="1780" y="-482.3" font-family="Times,serif" font-size="14.00">swig</text>
</g>
<!-- OR_WPY&#45;&gt;OR_PY -->
<g id="edge34" class="edge">
<title>OR_WPY&#45;&gt;OR_PY</title>
<path fill="none" stroke="gold" d="M809.67,-467.7C821.32,-453.95 837.79,-434.53 851.02,-418.93"/>
<polygon fill="gold" stroke="gold" points="853.8,-421.06 857.59,-411.17 848.46,-416.54 853.8,-421.06"/>
<text text-anchor="middle" x="865" y="-432.8" font-family="Times,serif" font-size="14.00">python</text>
</g>
<!-- PKG_PY -->
<g id="node29" class="node">
<title>PKG_PY</title>
<polygon fill="gold" stroke="black" points="892.5,-287 709.5,-287 705.5,-283 705.5,-249 888.5,-249 892.5,-253 892.5,-287"/>
<polyline fill="none" stroke="black" points="888.5,-283 705.5,-283 "/>
<polyline fill="none" stroke="black" points="888.5,-283 888.5,-249 "/>
<polyline fill="none" stroke="black" points="888.5,-283 892.5,-287 "/>
<text text-anchor="middle" x="799" y="-271.8" font-family="Times,serif" font-size="14.00">Wheel Package</text>
<text text-anchor="middle" x="799" y="-256.8" font-family="Times,serif" font-size="14.00">Target: package_python</text>
</g>
<!-- OR_PY&#45;&gt;PKG_PY -->
<g id="edge35" class="edge">
<title>OR_PY&#45;&gt;PKG_PY</title>
<path fill="none" stroke="gold" d="M855.67,-372.64C850.94,-367.18 846.02,-361.04 842,-355 829.71,-336.53 818.59,-314.06 810.74,-296.72"/>
<polygon fill="gold" stroke="gold" points="813.76,-294.89 806.51,-287.17 807.36,-297.73 813.76,-294.89"/>
<text text-anchor="middle" x="900" y="-343.8" font-family="Times,serif" font-size="14.00">python setup.py</text>
</g>
<!-- EX_PY -->
<g id="node30" class="node">
<title>EX_PY</title>
<polygon fill="gold" stroke="black" points="1037,-286 911,-286 911,-250 1043,-250 1043,-280 1037,-286"/>
<polyline fill="none" stroke="black" points="1037,-286 1037,-280 "/>
<polyline fill="none" stroke="black" points="1043,-280 1037,-280 "/>
<text text-anchor="middle" x="977" y="-264.3" font-family="Times,serif" font-size="14.00">Python Samples</text>
</g>
<!-- OR_PY&#45;&gt;EX_PY -->
<g id="edge31" class="edge">
<title>OR_PY&#45;&gt;EX_PY</title>
<path fill="none" stroke="gold" d="M934.08,-373.7C943.12,-368.88 951.54,-362.76 958,-355 971.57,-338.69 976.01,-314.79 977.23,-296.32"/>
<polygon fill="gold" stroke="gold" points="980.74,-296.31 977.62,-286.18 973.74,-296.04 980.74,-296.31"/>
</g>
<!-- OR_WJV&#45;&gt;OR_JV -->
<g id="edge39" class="edge">
<title>OR_WJV&#45;&gt;OR_JV</title>
<path fill="none" stroke="crimson" d="M1171.79,-467.7C1181.85,-454.08 1196.04,-434.88 1207.52,-419.36"/>
<polygon fill="crimson" stroke="crimson" points="1210.44,-421.29 1213.57,-411.17 1204.81,-417.13 1210.44,-421.29"/>
<text text-anchor="middle" x="1217.5" y="-432.8" font-family="Times,serif" font-size="14.00">javac</text>
</g>
<!-- PKG_JV -->
<g id="node33" class="node">
<title>PKG_JV</title>
<polygon fill="crimson" stroke="black" points="1246.5,-287 1083.5,-287 1079.5,-283 1079.5,-249 1242.5,-249 1246.5,-253 1246.5,-287"/>
<polyline fill="none" stroke="black" points="1242.5,-283 1079.5,-283 "/>
<polyline fill="none" stroke="black" points="1242.5,-283 1242.5,-249 "/>
<polyline fill="none" stroke="black" points="1242.5,-283 1246.5,-287 "/>
<text text-anchor="middle" x="1163" y="-271.8" font-family="Times,serif" font-size="14.00">Maven Package</text>
<text text-anchor="middle" x="1163" y="-256.8" font-family="Times,serif" font-size="14.00">Target: package_java</text>
</g>
<!-- OR_JV&#45;&gt;PKG_JV -->
<g id="edge40" class="edge">
<title>OR_JV&#45;&gt;PKG_JV</title>
<path fill="none" stroke="crimson" stroke-dasharray="1,5" d="M1217.32,-372.69C1214.33,-367.02 1211.02,-360.76 1208,-355 1197.71,-335.42 1186.15,-313.32 1177.32,-296.42"/>
<polygon fill="crimson" stroke="crimson" points="1180.2,-294.37 1172.46,-287.13 1173.99,-297.61 1180.2,-294.37"/>
<text text-anchor="middle" x="1254" y="-343.8" font-family="Times,serif" font-size="14.00">maven (WIP)</text>
</g>
<!-- EX_JV -->
<g id="node34" class="node">
<title>EX_JV</title>
<polygon fill="crimson" stroke="black" points="1370,-286 1264,-286 1264,-250 1376,-250 1376,-280 1370,-286"/>
<polyline fill="none" stroke="black" points="1370,-286 1370,-280 "/>
<polyline fill="none" stroke="black" points="1376,-280 1370,-280 "/>
<text text-anchor="middle" x="1320" y="-264.3" font-family="Times,serif" font-size="14.00">Java Samples</text>
</g>
<!-- OR_JV&#45;&gt;EX_JV -->
<g id="edge36" class="edge">
<title>OR_JV&#45;&gt;EX_JV</title>
<path fill="none" stroke="crimson" d="M1277.62,-373.45C1286.08,-368.6 1294.03,-362.53 1300,-355 1313.22,-338.33 1317.98,-314.47 1319.58,-296.1"/>
<polygon fill="crimson" stroke="crimson" points="1323.07,-296.22 1320.19,-286.02 1316.09,-295.79 1323.07,-296.22"/>
</g>
<!-- OR_WNET&#45;&gt;OR_NET -->
<g id="edge45" class="edge">
<title>OR_WNET&#45;&gt;OR_NET</title>
<path fill="none" stroke="forestgreen" d="M1617.63,-467.91C1637.72,-460.8 1661.07,-452.28 1682,-444 1704.68,-435.03 1729.49,-424.43 1750.49,-415.22"/>
<polygon fill="forestgreen" stroke="forestgreen" points="1752.11,-418.33 1759.85,-411.1 1749.28,-411.93 1752.11,-418.33"/>
<text text-anchor="middle" x="1740.5" y="-432.8" font-family="Times,serif" font-size="14.00">dotnet</text>
</g>
<!-- PKG_NET_RT -->
<g id="node38" class="node">
<title>PKG_NET_RT</title>
<polygon fill="forestgreen" stroke="black" points="1722.5,-411 1417.5,-411 1413.5,-407 1413.5,-373 1718.5,-373 1722.5,-377 1722.5,-411"/>
<polyline fill="none" stroke="black" points="1718.5,-407 1413.5,-407 "/>
<polyline fill="none" stroke="black" points="1718.5,-407 1718.5,-373 "/>
<polyline fill="none" stroke="black" points="1718.5,-407 1722.5,-411 "/>
<text text-anchor="middle" x="1568" y="-395.8" font-family="Times,serif" font-size="14.00">Nuget Google.OrTools.runtime.rid.nupkg</text>
<text text-anchor="middle" x="1568" y="-380.8" font-family="Times,serif" font-size="14.00">Target: package_dotnet</text>
</g>
<!-- OR_WNET&#45;&gt;PKG_NET_RT -->
<g id="edge48" class="edge">
<title>OR_WNET&#45;&gt;PKG_NET_RT</title>
<path fill="none" stroke="forestgreen" d="M1568,-467.7C1568,-454.71 1568,-436.65 1568,-421.54"/>
<polygon fill="forestgreen" stroke="forestgreen" points="1571.5,-421.17 1568,-411.17 1564.5,-421.17 1571.5,-421.17"/>
<text text-anchor="middle" x="1623" y="-432.8" font-family="Times,serif" font-size="14.00">dotnet package</text>
</g>
<!-- OR_FS -->
<g id="node37" class="node">
<title>OR_FS</title>
<polygon fill="forestgreen" stroke="black" points="1754,-193 1642,-193 1642,-155 1760,-155 1760,-187 1754,-193"/>
<polyline fill="none" stroke="black" points="1754,-193 1754,-187 "/>
<polyline fill="none" stroke="black" points="1760,-187 1754,-187 "/>
<text text-anchor="middle" x="1701" y="-177.8" font-family="Times,serif" font-size="14.00">F# files</text>
<text text-anchor="middle" x="1701" y="-162.8" font-family="Times,serif" font-size="14.00">Target: fsharp</text>
</g>
<!-- OR_NET&#45;&gt;OR_FS -->
<g id="edge46" class="edge">
<title>OR_NET&#45;&gt;OR_FS</title>
<path fill="none" stroke="forestgreen" d="M1801.01,-372.57C1801.85,-341.62 1799.79,-278.24 1773,-234 1764.84,-220.52 1752.45,-208.75 1740.24,-199.34"/>
<polygon fill="forestgreen" stroke="forestgreen" points="1742,-196.3 1731.87,-193.22 1737.87,-201.95 1742,-196.3"/>
<text text-anchor="middle" x="1822.5" y="-264.3" font-family="Times,serif" font-size="14.00">dotnet</text>
</g>
<!-- PKG_NET -->
<g id="node39" class="node">
<title>PKG_NET</title>
<polygon fill="forestgreen" stroke="black" points="1763.5,-287 1544.5,-287 1540.5,-283 1540.5,-249 1759.5,-249 1763.5,-253 1763.5,-287"/>
<polyline fill="none" stroke="black" points="1759.5,-283 1540.5,-283 "/>
<polyline fill="none" stroke="black" points="1759.5,-283 1759.5,-249 "/>
<polyline fill="none" stroke="black" points="1759.5,-283 1763.5,-287 "/>
<text text-anchor="middle" x="1652" y="-271.8" font-family="Times,serif" font-size="14.00">Nuget Google.OrTools.nupkg</text>
<text text-anchor="middle" x="1652" y="-256.8" font-family="Times,serif" font-size="14.00">Target: package_dotnet</text>
</g>
<!-- OR_NET&#45;&gt;PKG_NET -->
<g id="edge50" class="edge">
<title>OR_NET&#45;&gt;PKG_NET</title>
<path fill="none" stroke="forestgreen" d="M1740.34,-374.76C1714.71,-367.34 1689.54,-359.26 1685,-355 1668.77,-339.76 1660.43,-315.66 1656.2,-296.85"/>
<polygon fill="forestgreen" stroke="forestgreen" points="1659.63,-296.15 1654.25,-287.03 1652.77,-297.52 1659.63,-296.15"/>
<text text-anchor="middle" x="1740" y="-343.8" font-family="Times,serif" font-size="14.00">dotnet package</text>
</g>
<!-- EX_NET -->
<g id="node41" class="node">
<title>EX_NET</title>
<polygon fill="forestgreen" stroke="black" points="1932,-68 1834,-68 1834,-32 1938,-32 1938,-62 1932,-68"/>
<polyline fill="none" stroke="black" points="1932,-68 1932,-62 "/>
<polyline fill="none" stroke="black" points="1938,-62 1932,-62 "/>
<text text-anchor="middle" x="1886" y="-46.3" font-family="Times,serif" font-size="14.00">C# Samples</text>
</g>
<!-- OR_NET&#45;&gt;EX_NET -->
<g id="edge41" class="edge">
<title>OR_NET&#45;&gt;EX_NET</title>
<path fill="none" stroke="forestgreen" d="M1820.31,-372.78C1830.96,-362.01 1843.18,-347.48 1850,-332 1888.25,-245.24 1889.31,-129.79 1887.5,-78.07"/>
<polygon fill="forestgreen" stroke="forestgreen" points="1890.99,-77.88 1887.08,-68.03 1884,-78.17 1890.99,-77.88"/>
</g>
<!-- PKG_FS -->
<g id="node40" class="node">
<title>PKG_FS</title>
<polygon fill="forestgreen" stroke="black" points="1694,-69 1418,-69 1414,-65 1414,-31 1690,-31 1694,-35 1694,-69"/>
<polyline fill="none" stroke="black" points="1690,-65 1414,-65 "/>
<polyline fill="none" stroke="black" points="1690,-65 1690,-31 "/>
<polyline fill="none" stroke="black" points="1690,-65 1694,-69 "/>
<text text-anchor="middle" x="1554" y="-53.8" font-family="Times,serif" font-size="14.00">Nuget Google.OrTools.FSharp.nupkg</text>
<text text-anchor="middle" x="1554" y="-38.8" font-family="Times,serif" font-size="14.00">Target: package_dotnet</text>
</g>
<!-- OR_FS&#45;&gt;PKG_FS -->
<g id="edge51" class="edge">
<title>OR_FS&#45;&gt;PKG_FS</title>
<path fill="none" stroke="forestgreen" d="M1641.99,-158.02C1628.88,-152.83 1615.71,-145.97 1605,-137 1586.41,-121.44 1572.93,-97.26 1564.51,-78.5"/>
<polygon fill="forestgreen" stroke="forestgreen" points="1567.71,-77.08 1560.57,-69.26 1561.27,-79.83 1567.71,-77.08"/>
<text text-anchor="middle" x="1660" y="-125.8" font-family="Times,serif" font-size="14.00">dotnet package</text>
</g>
<!-- EX_FS -->
<g id="node42" class="node">
<title>EX_FS</title>
<polygon fill="forestgreen" stroke="black" points="1810,-68 1712,-68 1712,-32 1816,-32 1816,-62 1810,-68"/>
<polyline fill="none" stroke="black" points="1810,-68 1810,-62 "/>
<polyline fill="none" stroke="black" points="1816,-62 1810,-62 "/>
<text text-anchor="middle" x="1764" y="-46.3" font-family="Times,serif" font-size="14.00">F# Samples</text>
</g>
<!-- OR_FS&#45;&gt;EX_FS -->
<g id="edge42" class="edge">
<title>OR_FS&#45;&gt;EX_FS</title>
<path fill="none" stroke="forestgreen" d="M1710.3,-155C1720.89,-134.49 1738.29,-100.8 1750.4,-77.34"/>
<polygon fill="forestgreen" stroke="forestgreen" points="1753.6,-78.78 1755.07,-68.29 1747.38,-75.56 1753.6,-78.78"/>
</g>
<!-- PKG_NET_RT&#45;&gt;PKG_NET -->
<g id="edge49" class="edge">
<title>PKG_NET_RT&#45;&gt;PKG_NET</title>
<path fill="none" stroke="forestgreen" d="M1580.39,-373C1594.48,-352.55 1617.59,-318.97 1633.74,-295.52"/>
<polygon fill="forestgreen" stroke="forestgreen" points="1636.77,-297.3 1639.55,-287.08 1631,-293.33 1636.77,-297.3"/>
</g>
<!-- PKG_NET&#45;&gt;OR_FS -->
<g id="edge47" class="edge">
<title>PKG_NET&#45;&gt;OR_FS</title>
<path fill="none" stroke="forestgreen" d="M1661.68,-248.82C1668.79,-235.47 1678.58,-217.1 1686.61,-202.02"/>
<polygon fill="forestgreen" stroke="forestgreen" points="1689.73,-203.61 1691.34,-193.14 1683.55,-200.32 1689.73,-203.61"/>
<text text-anchor="middle" x="1703.5" y="-214.8" font-family="Times,serif" font-size="14.00">dotnet</text>
</g>
</g>
</svg>
