<?xml version="1.0" encoding="UTF-8" standalone="no"?>
<!DOCTYPE svg PUBLIC "-//W3C//DTD SVG 1.1//EN"
 "http://www.w3.org/Graphics/SVG/1.1/DTD/svg11.dtd">
<!-- Generated by graphviz version 2.43.0 (0)
 -->
<!-- Title: MakeDeps Pages: 1 -->
<svg width="861pt" height="680pt"
 viewBox="0.00 0.00 861.00 680.00" xmlns="http://www.w3.org/2000/svg" xmlns:xlink="http://www.w3.org/1999/xlink">
<g id="graph0" class="graph" transform="scale(1 1) rotate(0) translate(4 676)">
<title>MakeDeps</title>
<polygon fill="white" stroke="transparent" points="-4,4 -4,-676 857,-676 857,4 -4,4"/>
<text text-anchor="middle" x="426.5" y="-22.8" font-family="Times,serif" font-size="14.00">Dependencies</text>
<text text-anchor="middle" x="426.5" y="-7.8" font-family="Times,serif" font-size="14.00">Target: third_party</text>
<g id="clust1" class="cluster">
<title>clusterZLIB</title>
<polygon fill="none" stroke="royalblue" points="141,-214 141,-304 281,-304 281,-214 141,-214"/>
<text text-anchor="middle" x="211" y="-288.8" font-family="Times,serif" font-size="14.00">http://zlib.net/zlib*.zip</text>
<text text-anchor="middle" x="211" y="-273.8" font-family="Times,serif" font-size="14.00">(Windows)</text>
</g>
<g id="clust2" class="cluster">
<title>clusterAbsl</title>
<polygon fill="none" stroke="royalblue" points="8,-214 8,-289 133,-289 133,-214 8,-214"/>
<text text-anchor="middle" x="70.5" y="-273.8" font-family="Times,serif" font-size="14.00">abseil/abseil&#45;cpp.git</text>
</g>
<g id="clust3" class="cluster">
<title>clusterProtobuf</title>
<polygon fill="none" stroke="royalblue" points="24,-129 24,-204 192,-204 192,-129 24,-129"/>
<text text-anchor="middle" x="108" y="-188.8" font-family="Times,serif" font-size="14.00">protocolbuffers/protobuf.git</text>
</g>
<g id="clust4" class="cluster">
<title>clusterCoinOR</title>
<polygon fill="none" stroke="royalblue" points="289,-46 289,-664 642,-664 642,-46 289,-46"/>
<text text-anchor="middle" x="465.5" y="-648.8" font-family="Times,serif" font-size="14.00">CBC/CLP Solvers</text>
</g>
<g id="clust5" class="cluster">
<title>clusterCoinUtils</title>
<polygon fill="none" stroke="royalblue" points="477,-556 477,-633 607,-633 607,-556 477,-556"/>
<text text-anchor="middle" x="542" y="-617.8" font-family="Times,serif" font-size="14.00">coin&#45;or/CoinUtils.git</text>
</g>
<g id="clust6" class="cluster">
<title>clusterOsi</title>
<polygon fill="none" stroke="royalblue" points="468,-471 468,-548 564,-548 564,-471 468,-471"/>
<text text-anchor="middle" x="516" y="-532.8" font-family="Times,serif" font-size="14.00">coin&#45;or/Osi.git</text>
</g>
<g id="clust7" class="cluster">
<title>clusterClp</title>
<polygon fill="none" stroke="royalblue" points="349,-312 349,-463 544,-463 544,-312 349,-312"/>
<text text-anchor="middle" x="446.5" y="-447.8" font-family="Times,serif" font-size="14.00">coin&#45;or/Clp.git</text>
</g>
<g id="clust8" class="cluster">
<title>clusterCgl</title>
<polygon fill="none" stroke="royalblue" points="469,-213 469,-290 566,-290 566,-213 469,-213"/>
<text text-anchor="middle" x="517.5" y="-274.8" font-family="Times,serif" font-size="14.00">coin&#45;or/Cgl.git</text>
</g>
<g id="clust9" class="cluster">
<title>clusterCbc</title>
<polygon fill="none" stroke="royalblue" points="297,-54 297,-205 493,-205 493,-54 297,-54"/>
<text text-anchor="middle" x="395" y="-189.8" font-family="Times,serif" font-size="14.00">coin&#45;or/Cbc.git</text>
</g>
<!-- Zlib -->
<g id="node1" class="node">
<title>Zlib</title>
<path fill="royalblue" stroke="black" d="M226,-258C226,-258 196,-258 196,-258 190,-258 184,-252 184,-246 184,-246 184,-234 184,-234 184,-228 190,-222 196,-222 196,-222 226,-222 226,-222 232,-222 238,-228 238,-234 238,-234 238,-246 238,-246 238,-252 232,-258 226,-258"/>
<text text-anchor="middle" x="211" y="-236.3" font-family="Times,serif" font-size="14.00">libzlib</text>
</g>
<!-- Protobuf -->
<g id="node3" class="node">
<title>Protobuf</title>
<path fill="royalblue" stroke="black" d="M170.5,-173C170.5,-173 117.5,-173 117.5,-173 111.5,-173 105.5,-167 105.5,-161 105.5,-161 105.5,-149 105.5,-149 105.5,-143 111.5,-137 117.5,-137 117.5,-137 170.5,-137 170.5,-137 176.5,-137 182.5,-143 182.5,-149 182.5,-149 182.5,-161 182.5,-161 182.5,-167 176.5,-173 170.5,-173"/>
<text text-anchor="middle" x="144" y="-151.3" font-family="Times,serif" font-size="14.00">libprotobuf</text>
</g>
<!-- Zlib&#45;&gt;Protobuf -->
<g id="edge19" class="edge">
<title>Zlib&#45;&gt;Protobuf</title>
<path fill="none" stroke="black" d="M197.12,-221.8C187.6,-210.01 174.81,-194.16 164.17,-180.98"/>
<polygon fill="black" stroke="black" points="166.87,-178.76 157.86,-173.18 161.42,-183.16 166.87,-178.76"/>
</g>
<!-- Cbc -->
<g id="node11" class="node">
<title>Cbc</title>
<path fill="royalblue" stroke="black" d="M367.5,-174C367.5,-174 316.5,-174 316.5,-174 310.5,-174 304.5,-168 304.5,-162 304.5,-162 304.5,-148 304.5,-148 304.5,-142 310.5,-136 316.5,-136 316.5,-136 367.5,-136 367.5,-136 373.5,-136 379.5,-142 379.5,-148 379.5,-148 379.5,-162 379.5,-162 379.5,-168 373.5,-174 367.5,-174"/>
<text text-anchor="middle" x="342" y="-158.8" font-family="Times,serif" font-size="14.00">libCbc</text>
<text text-anchor="middle" x="342" y="-143.8" font-family="Times,serif" font-size="14.00">(autotools)</text>
</g>
<!-- Zlib&#45;&gt;Cbc -->
<g id="edge20" class="edge">
<title>Zlib&#45;&gt;Cbc</title>
<path fill="none" stroke="black" d="M238.14,-221.8C257.51,-209.53 283.78,-192.89 305.05,-179.41"/>
<polygon fill="black" stroke="black" points="306.96,-182.35 313.53,-174.04 303.21,-176.43 306.96,-182.35"/>
</g>
<!-- Absl -->
<g id="node2" class="node">
<title>Absl</title>
<path fill="royalblue" stroke="black" d="M113,-258C113,-258 71,-258 71,-258 65,-258 59,-252 59,-246 59,-246 59,-234 59,-234 59,-228 65,-222 71,-222 71,-222 113,-222 113,-222 119,-222 125,-228 125,-234 125,-234 125,-246 125,-246 125,-252 119,-258 113,-258"/>
<text text-anchor="middle" x="92" y="-236.3" font-family="Times,serif" font-size="14.00">libabsl_*</text>
</g>
<!-- Absl&#45;&gt;Protobuf -->
<g id="edge21" class="edge">
<title>Absl&#45;&gt;Protobuf</title>
<path fill="none" stroke="black" d="M102.77,-221.8C110.03,-210.23 119.72,-194.76 127.88,-181.73"/>
<polygon fill="black" stroke="black" points="130.9,-183.51 133.24,-173.18 124.96,-179.79 130.9,-183.51"/>
</g>
<!-- Protoc -->
<g id="node4" class="node">
<title>Protoc</title>
<polygon fill="royalblue" stroke="black" points="87,-173 33,-173 33,-169 29,-169 29,-165 33,-165 33,-145 29,-145 29,-141 33,-141 33,-137 87,-137 87,-173"/>
<polyline fill="none" stroke="black" points="33,-169 37,-169 37,-165 33,-165 "/>
<polyline fill="none" stroke="black" points="33,-145 37,-145 37,-141 33,-141 "/>
<text text-anchor="middle" x="60" y="-151.3" font-family="Times,serif" font-size="14.00">protoc</text>
</g>
<!-- CoinUtils -->
<g id="node5" class="node">
<title>CoinUtils</title>
<path fill="royalblue" stroke="black" d="M571.5,-602C571.5,-602 512.5,-602 512.5,-602 506.5,-602 500.5,-596 500.5,-590 500.5,-590 500.5,-576 500.5,-576 500.5,-570 506.5,-564 512.5,-564 512.5,-564 571.5,-564 571.5,-564 577.5,-564 583.5,-570 583.5,-576 583.5,-576 583.5,-590 583.5,-590 583.5,-596 577.5,-602 571.5,-602"/>
<text text-anchor="middle" x="542" y="-586.8" font-family="Times,serif" font-size="14.00">libCoinUtils</text>
<text text-anchor="middle" x="542" y="-571.8" font-family="Times,serif" font-size="14.00">(autotools)</text>
</g>
<!-- Osi -->
<g id="node6" class="node">
<title>Osi</title>
<path fill="royalblue" stroke="black" d="M541.5,-517C541.5,-517 490.5,-517 490.5,-517 484.5,-517 478.5,-511 478.5,-505 478.5,-505 478.5,-491 478.5,-491 478.5,-485 484.5,-479 490.5,-479 490.5,-479 541.5,-479 541.5,-479 547.5,-479 553.5,-485 553.5,-491 553.5,-491 553.5,-505 553.5,-505 553.5,-511 547.5,-517 541.5,-517"/>
<text text-anchor="middle" x="516" y="-501.8" font-family="Times,serif" font-size="14.00">libOsi</text>
<text text-anchor="middle" x="516" y="-486.8" font-family="Times,serif" font-size="14.00">(autotools)</text>
</g>
<!-- CoinUtils&#45;&gt;Osi -->
<g id="edge1" class="edge">
<title>CoinUtils&#45;&gt;Osi</title>
<path fill="none" stroke="black" d="M536.36,-563.99C532.97,-553.19 528.6,-539.22 524.77,-527"/>
<polygon fill="black" stroke="black" points="528.05,-525.76 521.72,-517.26 521.37,-527.85 528.05,-525.76"/>
</g>
<!-- Clp -->
<g id="node7" class="node">
<title>Clp</title>
<path fill="royalblue" stroke="black" d="M484.5,-432C484.5,-432 433.5,-432 433.5,-432 427.5,-432 421.5,-426 421.5,-420 421.5,-420 421.5,-406 421.5,-406 421.5,-400 427.5,-394 433.5,-394 433.5,-394 484.5,-394 484.5,-394 490.5,-394 496.5,-400 496.5,-406 496.5,-406 496.5,-420 496.5,-420 496.5,-426 490.5,-432 484.5,-432"/>
<text text-anchor="middle" x="459" y="-416.8" font-family="Times,serif" font-size="14.00">libClp</text>
<text text-anchor="middle" x="459" y="-401.8" font-family="Times,serif" font-size="14.00">(autotools)</text>
</g>
<!-- CoinUtils&#45;&gt;Clp -->
<g id="edge2" class="edge">
<title>CoinUtils&#45;&gt;Clp</title>
<path fill="none" stroke="black" d="M500.5,-573.41C486.6,-568.37 472.49,-560.45 464,-548 442.74,-516.82 446.4,-471.41 451.94,-442.28"/>
<polygon fill="black" stroke="black" points="455.4,-442.85 454.03,-432.34 448.55,-441.41 455.4,-442.85"/>
</g>
<!-- OsiClp -->
<g id="node8" class="node">
<title>OsiClp</title>
<path fill="royalblue" stroke="black" d="M524.5,-358C524.5,-358 473.5,-358 473.5,-358 467.5,-358 461.5,-352 461.5,-346 461.5,-346 461.5,-332 461.5,-332 461.5,-326 467.5,-320 473.5,-320 473.5,-320 524.5,-320 524.5,-320 530.5,-320 536.5,-326 536.5,-332 536.5,-332 536.5,-346 536.5,-346 536.5,-352 530.5,-358 524.5,-358"/>
<text text-anchor="middle" x="499" y="-342.8" font-family="Times,serif" font-size="14.00">libOsiClp</text>
<text text-anchor="middle" x="499" y="-327.8" font-family="Times,serif" font-size="14.00">(autotools)</text>
</g>
<!-- CoinUtils&#45;&gt;OsiClp -->
<g id="edge4" class="edge">
<title>CoinUtils&#45;&gt;OsiClp</title>
<path fill="none" stroke="black" d="M559.27,-563.87C562.84,-559.06 566.09,-553.63 568,-548 578.97,-515.58 576.21,-504.22 568,-471 558.4,-432.16 534.96,-392.12 518.07,-366.7"/>
<polygon fill="black" stroke="black" points="520.91,-364.66 512.4,-358.35 515.12,-368.59 520.91,-364.66"/>
</g>
<!-- Cgl -->
<g id="node10" class="node">
<title>Cgl</title>
<path fill="royalblue" stroke="black" d="M542.5,-259C542.5,-259 491.5,-259 491.5,-259 485.5,-259 479.5,-253 479.5,-247 479.5,-247 479.5,-233 479.5,-233 479.5,-227 485.5,-221 491.5,-221 491.5,-221 542.5,-221 542.5,-221 548.5,-221 554.5,-227 554.5,-233 554.5,-233 554.5,-247 554.5,-247 554.5,-253 548.5,-259 542.5,-259"/>
<text text-anchor="middle" x="517" y="-243.8" font-family="Times,serif" font-size="14.00">libCgl</text>
<text text-anchor="middle" x="517" y="-228.8" font-family="Times,serif" font-size="14.00">(autotools)</text>
</g>
<!-- CoinUtils&#45;&gt;Cgl -->
<g id="edge8" class="edge">
<title>CoinUtils&#45;&gt;Cgl</title>
<path fill="none" stroke="black" d="M566.22,-563.64C570.6,-559.05 574.56,-553.77 577,-548 595.25,-504.82 566.57,-337.74 558,-312 552.86,-296.57 544.14,-280.77 536.06,-268"/>
<polygon fill="black" stroke="black" points="538.76,-265.73 530.35,-259.29 532.91,-269.57 538.76,-265.73"/>
</g>
<!-- CoinUtils&#45;&gt;Cbc -->
<g id="edge11" class="edge">
<title>CoinUtils&#45;&gt;Cbc</title>
<path fill="none" stroke="black" d="M500.33,-573.41C430.64,-556.33 298,-511.08 298,-414 298,-414 298,-414 298,-338 298,-282.1 295.59,-266.44 312,-213 315.15,-202.74 320.16,-192.16 325.19,-182.94"/>
<polygon fill="black" stroke="black" points="328.23,-184.66 330.15,-174.24 322.16,-181.19 328.23,-184.66"/>
</g>
<!-- OsiCbc -->
<g id="node12" class="node">
<title>OsiCbc</title>
<path fill="royalblue" stroke="black" d="M473.5,-100C473.5,-100 422.5,-100 422.5,-100 416.5,-100 410.5,-94 410.5,-88 410.5,-88 410.5,-74 410.5,-74 410.5,-68 416.5,-62 422.5,-62 422.5,-62 473.5,-62 473.5,-62 479.5,-62 485.5,-68 485.5,-74 485.5,-74 485.5,-88 485.5,-88 485.5,-94 479.5,-100 473.5,-100"/>
<text text-anchor="middle" x="448" y="-84.8" font-family="Times,serif" font-size="14.00">libOsiCbc</text>
<text text-anchor="middle" x="448" y="-69.8" font-family="Times,serif" font-size="14.00">(autotools)</text>
</g>
<!-- CoinUtils&#45;&gt;OsiCbc -->
<g id="edge15" class="edge">
<title>CoinUtils&#45;&gt;OsiCbc</title>
<path fill="none" stroke="black" d="M569.62,-563.92C575.28,-559.26 580.78,-553.87 585,-548 621.9,-496.62 633,-477.26 633,-414 633,-414 633,-414 633,-239 633,-181.05 607.47,-166.15 563,-129 543.46,-112.68 517.5,-101.41 495.18,-94.02"/>
<polygon fill="black" stroke="black" points="496.13,-90.65 485.55,-90.98 494.03,-97.32 496.13,-90.65"/>
</g>
<!-- Osi&#45;&gt;Clp -->
<g id="edge3" class="edge">
<title>Osi&#45;&gt;Clp</title>
<path fill="none" stroke="black" d="M503.63,-478.99C495.92,-467.76 485.85,-453.1 477.23,-440.55"/>
<polygon fill="black" stroke="black" points="480.09,-438.52 471.54,-432.26 474.32,-442.49 480.09,-438.52"/>
</g>
<!-- Osi&#45;&gt;OsiClp -->
<g id="edge5" class="edge">
<title>Osi&#45;&gt;OsiClp</title>
<path fill="none" stroke="black" d="M514.08,-478.76C511.9,-458.18 508.23,-423.68 505,-394 504.1,-385.78 503.12,-376.87 502.21,-368.69"/>
<polygon fill="black" stroke="black" points="505.66,-368.04 501.07,-358.49 498.7,-368.82 505.66,-368.04"/>
</g>
<!-- Osi&#45;&gt;Cgl -->
<g id="edge9" class="edge">
<title>Osi&#45;&gt;Cgl</title>
<path fill="none" stroke="black" d="M537.85,-478.7C541.99,-474.05 545.73,-468.73 548,-463 572.74,-400.62 561.72,-377.69 548,-312 544.87,-297 538.38,-281.28 532.15,-268.46"/>
<polygon fill="black" stroke="black" points="535.14,-266.62 527.49,-259.28 528.89,-269.78 535.14,-266.62"/>
</g>
<!-- Osi&#45;&gt;Cbc -->
<g id="edge12" class="edge">
<title>Osi&#45;&gt;Cbc</title>
<path fill="none" stroke="black" d="M478.33,-494.41C433.7,-490.53 363.11,-481.59 345,-463 306.09,-423.05 314.07,-268.05 323,-213 324.6,-203.17 327.64,-192.74 330.84,-183.53"/>
<polygon fill="black" stroke="black" points="334.14,-184.7 334.3,-174.1 327.57,-182.28 334.14,-184.7"/>
</g>
<!-- Osi&#45;&gt;OsiCbc -->
<g id="edge16" class="edge">
<title>Osi&#45;&gt;OsiCbc</title>
<path fill="none" stroke="black" d="M546.25,-478.64C551.81,-474.12 557.08,-468.86 561,-463 592.39,-416.04 593,-396.49 593,-340 593,-340 593,-340 593,-239 593,-178.73 534.61,-131.73 491.94,-105.43"/>
<polygon fill="black" stroke="black" points="493.48,-102.27 483.1,-100.13 489.88,-108.27 493.48,-102.27"/>
</g>
<!-- Clp&#45;&gt;OsiClp -->
<g id="edge6" class="edge">
<title>Clp&#45;&gt;OsiClp</title>
<path fill="none" stroke="black" d="M469.09,-393.83C473.56,-385.79 478.91,-376.17 483.84,-367.29"/>
<polygon fill="black" stroke="black" points="486.97,-368.85 488.77,-358.41 480.85,-365.46 486.97,-368.85"/>
</g>
<!-- ClpSolver -->
<g id="node9" class="node">
<title>ClpSolver</title>
<path fill="royalblue" stroke="black" d="M431,-358C431,-358 369,-358 369,-358 363,-358 357,-352 357,-346 357,-346 357,-332 357,-332 357,-326 363,-320 369,-320 369,-320 431,-320 431,-320 437,-320 443,-326 443,-332 443,-332 443,-346 443,-346 443,-352 437,-358 431,-358"/>
<text text-anchor="middle" x="400" y="-342.8" font-family="Times,serif" font-size="14.00">libClpSolver</text>
<text text-anchor="middle" x="400" y="-327.8" font-family="Times,serif" font-size="14.00">(autotools)</text>
</g>
<!-- Clp&#45;&gt;ClpSolver -->
<g id="edge7" class="edge">
<title>Clp&#45;&gt;ClpSolver</title>
<path fill="none" stroke="black" d="M444.11,-393.83C437.25,-385.45 428.97,-375.35 421.45,-366.17"/>
<polygon fill="black" stroke="black" points="424.13,-363.93 415.09,-358.41 418.72,-368.37 424.13,-363.93"/>
</g>
<!-- Clp&#45;&gt;Cbc -->
<g id="edge13" class="edge">
<title>Clp&#45;&gt;Cbc</title>
<path fill="none" stroke="black" d="M421.31,-404.31C395.96,-396.98 364.29,-383.2 348,-358 313.5,-304.62 324.82,-225.64 334.39,-184.02"/>
<polygon fill="black" stroke="black" points="337.8,-184.82 336.76,-174.28 330.99,-183.17 337.8,-184.82"/>
</g>
<!-- OsiClp&#45;&gt;Cgl -->
<g id="edge10" class="edge">
<title>OsiClp&#45;&gt;Cgl</title>
<path fill="none" stroke="black" d="M502.39,-319.76C505.03,-305.53 508.74,-285.52 511.76,-269.23"/>
<polygon fill="black" stroke="black" points="515.25,-269.63 513.63,-259.16 508.36,-268.36 515.25,-269.63"/>
</g>
<!-- Cgl&#45;&gt;Cbc -->
<g id="edge14" class="edge">
<title>Cgl&#45;&gt;Cbc</title>
<path fill="none" stroke="black" d="M479.46,-221.19C453.02,-208.66 417.43,-191.78 389.09,-178.33"/>
<polygon fill="black" stroke="black" points="390.32,-175.04 379.78,-173.92 387.32,-181.37 390.32,-175.04"/>
</g>
<!-- Cbc&#45;&gt;OsiCbc -->
<g id="edge17" class="edge">
<title>Cbc&#45;&gt;OsiCbc</title>
<path fill="none" stroke="black" d="M368.75,-135.83C382.06,-126.79 398.32,-115.75 412.64,-106.02"/>
<polygon fill="black" stroke="black" points="414.95,-108.68 421.26,-100.16 411.02,-102.89 414.95,-108.68"/>
</g>
<!-- CbcSolver -->
<g id="node13" class="node">
<title>CbcSolver</title>
<path fill="royalblue" stroke="black" d="M381,-100C381,-100 317,-100 317,-100 311,-100 305,-94 305,-88 305,-88 305,-74 305,-74 305,-68 311,-62 317,-62 317,-62 381,-62 381,-62 387,-62 393,-68 393,-74 393,-74 393,-88 393,-88 393,-94 387,-100 381,-100"/>
<text text-anchor="middle" x="349" y="-84.8" font-family="Times,serif" font-size="14.00">libCbcSolver</text>
<text text-anchor="middle" x="349" y="-69.8" font-family="Times,serif" font-size="14.00">(autotools)</text>
</g>
<!-- Cbc&#45;&gt;CbcSolver -->
<g id="edge18" class="edge">
<title>Cbc&#45;&gt;CbcSolver</title>
<path fill="none" stroke="black" d="M343.77,-135.83C344.52,-128.13 345.41,-118.97 346.24,-110.42"/>
<polygon fill="black" stroke="black" points="349.73,-110.71 347.21,-100.41 342.76,-110.03 349.73,-110.71"/>
</g>
<!-- SWIG_WIN -->
<g id="node14" class="node">
<title>SWIG_WIN</title>
<path fill="royalblue" stroke="chocolate" d="M715.5,-602C715.5,-602 662.5,-602 662.5,-602 656.5,-602 650.5,-596 650.5,-590 650.5,-590 650.5,-576 650.5,-576 650.5,-570 656.5,-564 662.5,-564 662.5,-564 715.5,-564 715.5,-564 721.5,-564 727.5,-570 727.5,-576 727.5,-576 727.5,-590 727.5,-590 727.5,-596 721.5,-602 715.5,-602"/>
<text text-anchor="middle" x="689" y="-586.8" font-family="Times,serif" font-size="14.00">Swigwin</text>
<text text-anchor="middle" x="689" y="-571.8" font-family="Times,serif" font-size="14.00">(Windows)</text>
</g>
<!-- CPLEX -->
<g id="node15" class="node">
<title>CPLEX</title>
<path fill="none" stroke="grey" stroke-dasharray="5,2" d="M836.5,-602C836.5,-602 757.5,-602 757.5,-602 751.5,-602 745.5,-596 745.5,-590 745.5,-590 745.5,-576 745.5,-576 745.5,-570 751.5,-564 757.5,-564 757.5,-564 836.5,-564 836.5,-564 842.5,-564 848.5,-570 848.5,-576 848.5,-576 848.5,-590 848.5,-590 848.5,-596 842.5,-602 836.5,-602"/>
<text text-anchor="middle" x="797" y="-586.8" font-family="Times,serif" font-size="14.00">Cplex Solver</text>
<text text-anchor="middle" x="797" y="-571.8" font-family="Times,serif" font-size="14.00">CPLEX_*_DIR</text>
</g>
<!-- GLPK -->
<g id="node16" class="node">
<title>GLPK</title>
<path fill="none" stroke="grey" stroke-dasharray="5,2" d="M832.5,-516C832.5,-516 761.5,-516 761.5,-516 755.5,-516 749.5,-510 749.5,-504 749.5,-504 749.5,-492 749.5,-492 749.5,-486 755.5,-480 761.5,-480 761.5,-480 832.5,-480 832.5,-480 838.5,-480 844.5,-486 844.5,-492 844.5,-492 844.5,-504 844.5,-504 844.5,-510 838.5,-516 832.5,-516"/>
<text text-anchor="middle" x="797" y="-494.3" font-family="Times,serif" font-size="14.00">GLPK_*_DIR</text>
</g>
<!-- CPLEX&#45;&gt;GLPK -->
<g id="edge22" class="edge">
<title>CPLEX&#45;&gt;GLPK</title>
</g>
<!-- GUROBI -->
<g id="node17" class="node">
<title>GUROBI</title>
<path fill="none" stroke="grey" stroke-dasharray="5,2" d="M841,-431C841,-431 753,-431 753,-431 747,-431 741,-425 741,-419 741,-419 741,-407 741,-407 741,-401 747,-395 753,-395 753,-395 841,-395 841,-395 847,-395 853,-401 853,-407 853,-407 853,-419 853,-419 853,-425 847,-431 841,-431"/>
<text text-anchor="middle" x="797" y="-409.3" font-family="Times,serif" font-size="14.00">GUROBI_*_DIR</text>
</g>
<!-- GLPK&#45;&gt;GUROBI -->
<g id="edge23" class="edge">
<title>GLPK&#45;&gt;GUROBI</title>
</g>
<!-- SCIP -->
<g id="node18" class="node">
<title>SCIP</title>
<path fill="none" stroke="grey" stroke-dasharray="5,2" d="M829.5,-357C829.5,-357 764.5,-357 764.5,-357 758.5,-357 752.5,-351 752.5,-345 752.5,-345 752.5,-333 752.5,-333 752.5,-327 758.5,-321 764.5,-321 764.5,-321 829.5,-321 829.5,-321 835.5,-321 841.5,-327 841.5,-333 841.5,-333 841.5,-345 841.5,-345 841.5,-351 835.5,-357 829.5,-357"/>
<text text-anchor="middle" x="797" y="-335.3" font-family="Times,serif" font-size="14.00">SCIP_*_DIR</text>
</g>
<!-- GUROBI&#45;&gt;SCIP -->
<g id="edge24" class="edge">
<title>GUROBI&#45;&gt;SCIP</title>
</g>
<!-- XPRESS -->
<g id="node19" class="node">
<title>XPRESS</title>
<path fill="none" stroke="grey" stroke-dasharray="5,2" d="M840,-258C840,-258 754,-258 754,-258 748,-258 742,-252 742,-246 742,-246 742,-234 742,-234 742,-228 748,-222 754,-222 754,-222 840,-222 840,-222 846,-222 852,-228 852,-234 852,-234 852,-246 852,-246 852,-252 846,-258 840,-258"/>
<text text-anchor="middle" x="797" y="-236.3" font-family="Times,serif" font-size="14.00">XPRESS_*_DIR</text>
</g>
<!-- SCIP&#45;&gt;XPRESS -->
<g id="edge25" class="edge">
<title>SCIP&#45;&gt;XPRESS</title>
</g>
</g>
</svg>
