<?xml version="1.0" encoding="UTF-8" standalone="no"?>
<!DOCTYPE svg PUBLIC "-//W3C//DTD SVG 1.1//EN"
 "http://www.w3.org/Graphics/SVG/1.1/DTD/svg11.dtd">
<!-- Generated by graphviz version 2.44.1 (0)
 -->
<!-- Title: DockerDeps Pages: 1 -->
<svg width="1606pt" height="818pt"
 viewBox="0.00 0.00 1606.01 817.50" xmlns="http://www.w3.org/2000/svg" xmlns:xlink="http://www.w3.org/1999/xlink">
<g id="graph0" class="graph" transform="scale(1 1) rotate(0) translate(4 813.5)">
<title>DockerDeps</title>
<polygon fill="white" stroke="transparent" points="-4,4 -4,-813.5 1602.01,-813.5 1602.01,4 -4,4"/>
<g id="clust1" class="cluster">
<title>clusterDockerfile</title>
<polygon fill="none" stroke="royalblue" points="1089.01,-550 1089.01,-730.5 1325.01,-730.5 1325.01,-550 1089.01,-550"/>
<text text-anchor="middle" x="1207.01" y="-715.3" font-family="Times,serif" font-size="14.00">docker/&lt;distro&gt;/Dockerfile</text>
</g>
<g id="clust2" class="cluster">
<title>clusterLang</title>
<polygon fill="none" stroke="royalblue" points="265.01,-116 265.01,-517 881.01,-517 881.01,-116 265.01,-116"/>
<text text-anchor="middle" x="573.01" y="-501.8" font-family="Times,serif" font-size="14.00">docker/&lt;distro&gt;/&lt;lang&gt;.Dockerfile</text>
</g>
<g id="clust3" class="cluster">
<title>clusterCache</title>
<polygon fill="none" stroke="royalblue" points="67.01,-8 67.01,-83 1428.01,-83 1428.01,-8 67.01,-8"/>
<text text-anchor="middle" x="747.51" y="-67.8" font-family="Times,serif" font-size="14.00">cache/&lt;distro&gt;/</text>
</g>
<!-- DISTRO_IMG -->
<g id="node1" class="node">
<title>DISTRO_IMG</title>
<path fill="royalblue" stroke="black" d="M1196.01,-805.23C1196.01,-807.03 1167.33,-808.5 1132.01,-808.5 1096.7,-808.5 1068.01,-807.03 1068.01,-805.23 1068.01,-805.23 1068.01,-775.77 1068.01,-775.77 1068.01,-773.97 1096.7,-772.5 1132.01,-772.5 1167.33,-772.5 1196.01,-773.97 1196.01,-775.77 1196.01,-775.77 1196.01,-805.23 1196.01,-805.23"/>
<path fill="none" stroke="black" d="M1196.01,-805.23C1196.01,-803.42 1167.33,-801.95 1132.01,-801.95 1096.7,-801.95 1068.01,-803.42 1068.01,-805.23"/>
<text text-anchor="middle" x="1132.01" y="-786.8" font-family="Times,serif" font-size="14.00">&lt;distro&gt;:latest</text>
</g>
<!-- BASE_IMG -->
<g id="node8" class="node">
<title>BASE_IMG</title>
<path fill="royalblue" stroke="black" d="M1316.51,-694.85C1316.51,-697.49 1267.43,-699.63 1207.01,-699.63 1146.59,-699.63 1097.51,-697.49 1097.51,-694.85 1097.51,-694.85 1097.51,-651.9 1097.51,-651.9 1097.51,-649.26 1146.59,-647.12 1207.01,-647.12 1267.43,-647.12 1316.51,-649.26 1316.51,-651.9 1316.51,-651.9 1316.51,-694.85 1316.51,-694.85"/>
<path fill="none" stroke="black" d="M1316.51,-694.85C1316.51,-692.22 1267.43,-690.08 1207.01,-690.08 1146.59,-690.08 1097.51,-692.22 1097.51,-694.85"/>
<text text-anchor="middle" x="1207.01" y="-677.17" font-family="Times,serif" font-size="14.00">ortools/make:&lt;distro&gt;_base</text>
<text text-anchor="middle" x="1207.01" y="-662.17" font-family="Times,serif" font-size="14.00">base</text>
</g>
<!-- DISTRO_IMG&#45;&gt;BASE_IMG -->
<g id="edge2" class="edge">
<title>DISTRO_IMG&#45;&gt;BASE_IMG</title>
<path fill="none" stroke="black" d="M1143.4,-772.01C1154.38,-755.17 1171.27,-729.24 1184.89,-708.34"/>
<polygon fill="black" stroke="black" points="1187.97,-710.02 1190.5,-699.73 1182.11,-706.19 1187.97,-710.02"/>
</g>
<!-- PKG -->
<g id="node2" class="node">
<title>PKG</title>
<polygon fill="royalblue" stroke="black" points="1349.51,-809.5 1218.51,-809.5 1214.51,-805.5 1214.51,-771.5 1345.51,-771.5 1349.51,-775.5 1349.51,-809.5"/>
<polyline fill="none" stroke="black" points="1345.51,-805.5 1214.51,-805.5 "/>
<polyline fill="none" stroke="black" points="1345.51,-805.5 1345.51,-771.5 "/>
<polyline fill="none" stroke="black" points="1345.51,-805.5 1349.51,-809.5 "/>
<text text-anchor="middle" x="1282.01" y="-794.3" font-family="Times,serif" font-size="14.00">Build packages</text>
<text text-anchor="middle" x="1282.01" y="-779.3" font-family="Times,serif" font-size="14.00">e.g. cmake, g++</text>
</g>
<!-- PKG&#45;&gt;BASE_IMG -->
<g id="edge3" class="edge">
<title>PKG&#45;&gt;BASE_IMG</title>
<path fill="none" stroke="black" stroke-dasharray="5,2" d="M1270.13,-771.26C1259.14,-754.39 1242.54,-728.9 1229.11,-708.3"/>
<polygon fill="black" stroke="black" points="1231.97,-706.28 1223.58,-699.81 1226.11,-710.1 1231.97,-706.28"/>
<text text-anchor="middle" x="1279.51" y="-742.3" font-family="Times,serif" font-size="14.00">install</text>
</g>
<!-- PYPKG -->
<g id="node3" class="node">
<title>PYPKG</title>
<polygon fill="gold" stroke="black" points="950.51,-603.12 817.51,-603.12 813.51,-599.12 813.51,-565.12 946.51,-565.12 950.51,-569.12 950.51,-603.12"/>
<polyline fill="none" stroke="black" points="946.51,-599.12 813.51,-599.12 "/>
<polyline fill="none" stroke="black" points="946.51,-599.12 946.51,-565.12 "/>
<polyline fill="none" stroke="black" points="946.51,-599.12 950.51,-603.12 "/>
<text text-anchor="middle" x="882.01" y="-587.92" font-family="Times,serif" font-size="14.00">Python packages</text>
<text text-anchor="middle" x="882.01" y="-572.92" font-family="Times,serif" font-size="14.00">e.g. python&#45;dev</text>
</g>
<!-- LANGENV_IMG -->
<g id="node10" class="node">
<title>LANGENV_IMG</title>
<path fill="royalblue" stroke="black" d="M872.51,-481.35C872.51,-483.99 811.33,-486.13 736.01,-486.13 660.7,-486.13 599.51,-483.99 599.51,-481.35 599.51,-481.35 599.51,-438.4 599.51,-438.4 599.51,-435.76 660.7,-433.62 736.01,-433.62 811.33,-433.62 872.51,-435.76 872.51,-438.4 872.51,-438.4 872.51,-481.35 872.51,-481.35"/>
<path fill="none" stroke="black" d="M872.51,-481.35C872.51,-478.72 811.33,-476.58 736.01,-476.58 660.7,-476.58 599.51,-478.72 599.51,-481.35"/>
<text text-anchor="middle" x="736.01" y="-463.68" font-family="Times,serif" font-size="14.00">ortools/make:&lt;distro&gt;_&lt;lang&gt;_env</text>
<text text-anchor="middle" x="736.01" y="-448.68" font-family="Times,serif" font-size="14.00">env</text>
</g>
<!-- PYPKG&#45;&gt;LANGENV_IMG -->
<g id="edge9" class="edge">
<title>PYPKG&#45;&gt;LANGENV_IMG</title>
<path fill="none" stroke="black" stroke-dasharray="5,2" d="M860.47,-565.09C837.8,-546.11 801.66,-515.84 774.15,-492.81"/>
<polygon fill="black" stroke="black" points="776.2,-489.96 766.28,-486.22 771.7,-495.32 776.2,-489.96"/>
<text text-anchor="middle" x="848.51" y="-528.8" font-family="Times,serif" font-size="14.00">install</text>
</g>
<!-- JAVAPKG -->
<g id="node4" class="node">
<title>JAVAPKG</title>
<polygon fill="crimson" stroke="black" points="658.51,-603.12 545.51,-603.12 541.51,-599.12 541.51,-565.12 654.51,-565.12 658.51,-569.12 658.51,-603.12"/>
<polyline fill="none" stroke="black" points="654.51,-599.12 541.51,-599.12 "/>
<polyline fill="none" stroke="black" points="654.51,-599.12 654.51,-565.12 "/>
<polyline fill="none" stroke="black" points="654.51,-599.12 658.51,-603.12 "/>
<text text-anchor="middle" x="600.01" y="-587.92" font-family="Times,serif" font-size="14.00">Java packages</text>
<text text-anchor="middle" x="600.01" y="-572.92" font-family="Times,serif" font-size="14.00">e.g. openjdk</text>
</g>
<!-- JAVAPKG&#45;&gt;LANGENV_IMG -->
<g id="edge10" class="edge">
<title>JAVAPKG&#45;&gt;LANGENV_IMG</title>
<path fill="none" stroke="black" stroke-dasharray="5,2" d="M620.08,-565.09C641.11,-546.19 674.57,-516.1 700.16,-493.11"/>
<polygon fill="black" stroke="black" points="702.72,-495.51 707.82,-486.22 698.04,-490.3 702.72,-495.51"/>
<text text-anchor="middle" x="685.51" y="-528.8" font-family="Times,serif" font-size="14.00">install</text>
</g>
<!-- DOTNETPKG -->
<g id="node5" class="node">
<title>DOTNETPKG</title>
<polygon fill="forestgreen" stroke="black" points="795.01,-603.12 681.01,-603.12 677.01,-599.12 677.01,-565.12 791.01,-565.12 795.01,-569.12 795.01,-603.12"/>
<polyline fill="none" stroke="black" points="791.01,-599.12 677.01,-599.12 "/>
<polyline fill="none" stroke="black" points="791.01,-599.12 791.01,-565.12 "/>
<polyline fill="none" stroke="black" points="791.01,-599.12 795.01,-603.12 "/>
<text text-anchor="middle" x="736.01" y="-587.92" font-family="Times,serif" font-size="14.00">.Net packages</text>
<text text-anchor="middle" x="736.01" y="-572.92" font-family="Times,serif" font-size="14.00">e.g. dotnet&#45;cli</text>
</g>
<!-- DOTNETPKG&#45;&gt;LANGENV_IMG -->
<g id="edge11" class="edge">
<title>DOTNETPKG&#45;&gt;LANGENV_IMG</title>
<path fill="none" stroke="black" stroke-dasharray="5,2" d="M736.01,-565.09C736.01,-547.08 736.01,-518.93 736.01,-496.43"/>
<polygon fill="black" stroke="black" points="739.51,-496.22 736.01,-486.22 732.51,-496.22 739.51,-496.22"/>
<text text-anchor="middle" x="758.51" y="-528.8" font-family="Times,serif" font-size="14.00">install</text>
</g>
<!-- SRC -->
<g id="node6" class="node">
<title>SRC</title>
<polygon fill="royalblue" stroke="black" points="1006.51,-477.88 1003.51,-481.88 982.51,-481.88 979.51,-477.88 933.51,-477.88 933.51,-441.88 1006.51,-441.88 1006.51,-477.88"/>
<text text-anchor="middle" x="970.01" y="-456.18" font-family="Times,serif" font-size="14.00">git repo</text>
</g>
<!-- LANGDEVEL_IMG -->
<g id="node11" class="node">
<title>LANGDEVEL_IMG</title>
<path fill="royalblue" stroke="black" d="M873.01,-378.1C873.01,-380.74 808.92,-382.88 730.01,-382.88 651.11,-382.88 587.01,-380.74 587.01,-378.1 587.01,-378.1 587.01,-335.15 587.01,-335.15 587.01,-332.51 651.11,-330.37 730.01,-330.37 808.92,-330.37 873.01,-332.51 873.01,-335.15 873.01,-335.15 873.01,-378.1 873.01,-378.1"/>
<path fill="none" stroke="black" d="M873.01,-378.1C873.01,-375.47 808.92,-373.33 730.01,-373.33 651.11,-373.33 587.01,-375.47 587.01,-378.1"/>
<text text-anchor="middle" x="730.01" y="-360.43" font-family="Times,serif" font-size="14.00">ortools/make:&lt;distro&gt;_&lt;lang&gt;_devel</text>
<text text-anchor="middle" x="730.01" y="-345.43" font-family="Times,serif" font-size="14.00">devel</text>
</g>
<!-- SRC&#45;&gt;LANGDEVEL_IMG -->
<g id="edge12" class="edge">
<title>SRC&#45;&gt;LANGDEVEL_IMG</title>
<path fill="none" stroke="black" stroke-dasharray="5,2" d="M933.3,-443.39C897.7,-428.37 842.81,-405.21 799.03,-386.74"/>
<polygon fill="black" stroke="black" points="800.16,-383.42 789.58,-382.76 797.44,-389.87 800.16,-383.42"/>
<text text-anchor="middle" x="881.01" y="-404.55" font-family="Times,serif" font-size="14.00">copy</text>
</g>
<!-- SAMPLE -->
<g id="node7" class="node">
<title>SAMPLE</title>
<polygon fill="royalblue" stroke="black" points="1436.01,-808.5 1433.01,-812.5 1412.01,-812.5 1409.01,-808.5 1368.01,-808.5 1368.01,-772.5 1436.01,-772.5 1436.01,-808.5"/>
<text text-anchor="middle" x="1402.01" y="-786.8" font-family="Times,serif" font-size="14.00">sample</text>
</g>
<!-- SWIG_IMG -->
<g id="node9" class="node">
<title>SWIG_IMG</title>
<path fill="royalblue" stroke="black" d="M1316.51,-605.6C1316.51,-608.24 1267.43,-610.38 1207.01,-610.38 1146.59,-610.38 1097.51,-608.24 1097.51,-605.6 1097.51,-605.6 1097.51,-562.65 1097.51,-562.65 1097.51,-560.01 1146.59,-557.87 1207.01,-557.87 1267.43,-557.87 1316.51,-560.01 1316.51,-562.65 1316.51,-562.65 1316.51,-605.6 1316.51,-605.6"/>
<path fill="none" stroke="black" d="M1316.51,-605.6C1316.51,-602.97 1267.43,-600.83 1207.01,-600.83 1146.59,-600.83 1097.51,-602.97 1097.51,-605.6"/>
<text text-anchor="middle" x="1207.01" y="-587.92" font-family="Times,serif" font-size="14.00">ortools/make:&lt;distro&gt;_swig</text>
<text text-anchor="middle" x="1207.01" y="-572.92" font-family="Times,serif" font-size="14.00">swig</text>
</g>
<!-- BASE_IMG&#45;&gt;SWIG_IMG -->
<g id="edge1" class="edge">
<title>BASE_IMG&#45;&gt;SWIG_IMG</title>
<path fill="none" stroke="black" d="M1207.01,-647.14C1207.01,-638.82 1207.01,-629.41 1207.01,-620.47"/>
<polygon fill="black" stroke="black" points="1210.51,-620.3 1207.01,-610.3 1203.51,-620.3 1210.51,-620.3"/>
</g>
<!-- BASE_TAR -->
<g id="node15" class="node">
<title>BASE_TAR</title>
<polygon fill="royalblue" stroke="black" points="1414.01,-52 1290.01,-52 1290.01,-16 1420.01,-16 1420.01,-46 1414.01,-52"/>
<polyline fill="none" stroke="black" points="1414.01,-52 1414.01,-46 "/>
<polyline fill="none" stroke="black" points="1420.01,-46 1414.01,-46 "/>
<text text-anchor="middle" x="1355.01" y="-30.3" font-family="Times,serif" font-size="14.00">docker_base.tar</text>
</g>
<!-- BASE_IMG&#45;&gt;BASE_TAR -->
<g id="edge13" class="edge">
<title>BASE_IMG&#45;&gt;BASE_TAR</title>
<path fill="none" stroke="red" d="M1316.54,-663.96C1364.48,-653.66 1410.01,-631.64 1410.01,-585.12 1410.01,-585.12 1410.01,-585.12 1410.01,-149.12 1410.01,-116.12 1391.11,-82.59 1375.47,-60.49"/>
<polygon fill="red" stroke="red" points="1378.21,-58.31 1369.46,-52.33 1372.57,-62.46 1378.21,-58.31"/>
<text text-anchor="middle" x="1504.01" y="-352.93" font-family="Times,serif" font-size="14.00">make save_&lt;distro&gt;_base</text>
</g>
<!-- SWIG_IMG&#45;&gt;LANGENV_IMG -->
<g id="edge8" class="edge">
<title>SWIG_IMG&#45;&gt;LANGENV_IMG</title>
<path fill="none" stroke="black" d="M1101.19,-559.85C1048.13,-547.79 982.97,-532.39 925.01,-517 892.77,-508.44 857.69,-498.26 826.6,-488.94"/>
<polygon fill="black" stroke="black" points="827.24,-485.48 816.66,-485.95 825.22,-492.18 827.24,-485.48"/>
</g>
<!-- SWIG_TAR -->
<g id="node16" class="node">
<title>SWIG_TAR</title>
<polygon fill="royalblue" stroke="black" points="1266.01,-52 1142.01,-52 1142.01,-16 1272.01,-16 1272.01,-46 1266.01,-52"/>
<polyline fill="none" stroke="black" points="1266.01,-52 1266.01,-46 "/>
<polyline fill="none" stroke="black" points="1272.01,-46 1266.01,-46 "/>
<text text-anchor="middle" x="1207.01" y="-30.3" font-family="Times,serif" font-size="14.00">docker_swig.tar</text>
</g>
<!-- SWIG_IMG&#45;&gt;SWIG_TAR -->
<g id="edge14" class="edge">
<title>SWIG_IMG&#45;&gt;SWIG_TAR</title>
<path fill="none" stroke="red" d="M1207.01,-557.84C1207.01,-533.12 1207.01,-494.41 1207.01,-460.88 1207.01,-460.88 1207.01,-460.88 1207.01,-149.12 1207.01,-119.36 1207.01,-85.24 1207.01,-62.11"/>
<polygon fill="red" stroke="red" points="1210.51,-62.01 1207.01,-52.01 1203.51,-62.02 1210.51,-62.01"/>
<text text-anchor="middle" x="1301.01" y="-301.3" font-family="Times,serif" font-size="14.00">make save_&lt;distro&gt;_swig</text>
</g>
<!-- LANGENV_IMG&#45;&gt;LANGDEVEL_IMG -->
<g id="edge4" class="edge">
<title>LANGENV_IMG&#45;&gt;LANGDEVEL_IMG</title>
<path fill="none" stroke="black" d="M734.52,-433.59C733.79,-421.38 732.91,-406.54 732.12,-393.22"/>
<polygon fill="black" stroke="black" points="735.6,-392.72 731.51,-382.94 728.61,-393.13 735.6,-392.72"/>
</g>
<!-- LANGENV_TAR -->
<g id="node17" class="node">
<title>LANGENV_TAR</title>
<polygon fill="royalblue" stroke="black" points="1118.01,-52 942.01,-52 942.01,-16 1124.01,-16 1124.01,-46 1118.01,-52"/>
<polyline fill="none" stroke="black" points="1118.01,-52 1118.01,-46 "/>
<polyline fill="none" stroke="black" points="1124.01,-46 1118.01,-46 "/>
<text text-anchor="middle" x="1033.01" y="-30.3" font-family="Times,serif" font-size="14.00">docker_&lt;lang&gt;_env.tar</text>
</g>
<!-- LANGENV_IMG&#45;&gt;LANGENV_TAR -->
<g id="edge15" class="edge">
<title>LANGENV_IMG&#45;&gt;LANGENV_TAR</title>
<path fill="none" stroke="red" d="M806.66,-433.68C832.95,-421.53 861.37,-404.74 882.01,-382.75 933.77,-327.63 894.65,-277.64 951.01,-227.25 970.82,-209.54 990.82,-229.51 1008.01,-209.25 1043.11,-167.89 1041.56,-100.13 1037.31,-62.45"/>
<polygon fill="red" stroke="red" points="1040.74,-61.7 1036,-52.23 1033.8,-62.59 1040.74,-61.7"/>
<text text-anchor="middle" x="1072.01" y="-249.68" font-family="Times,serif" font-size="14.00">make save_&lt;distro&gt;_&lt;lang&gt;_env</text>
</g>
<!-- LANGBUILD_IMG -->
<g id="node12" class="node">
<title>LANGBUILD_IMG</title>
<path fill="royalblue" stroke="black" d="M652.01,-274.85C652.01,-277.49 588.37,-279.63 510.01,-279.63 431.66,-279.63 368.01,-277.49 368.01,-274.85 368.01,-274.85 368.01,-231.9 368.01,-231.9 368.01,-229.26 431.66,-227.12 510.01,-227.12 588.37,-227.12 652.01,-229.26 652.01,-231.9 652.01,-231.9 652.01,-274.85 652.01,-274.85"/>
<path fill="none" stroke="black" d="M652.01,-274.85C652.01,-272.22 588.37,-270.08 510.01,-270.08 431.66,-270.08 368.01,-272.22 368.01,-274.85"/>
<text text-anchor="middle" x="510.01" y="-257.18" font-family="Times,serif" font-size="14.00">ortools/make:&lt;distro&gt;_&lt;lang&gt;_build</text>
<text text-anchor="middle" x="510.01" y="-242.18" font-family="Times,serif" font-size="14.00">build</text>
</g>
<!-- LANGDEVEL_IMG&#45;&gt;LANGBUILD_IMG -->
<g id="edge5" class="edge">
<title>LANGDEVEL_IMG&#45;&gt;LANGBUILD_IMG</title>
<path fill="none" stroke="black" d="M675.35,-330.47C644.66,-316.34 606.19,-298.64 574.09,-283.86"/>
<polygon fill="black" stroke="black" points="575.33,-280.58 564.78,-279.58 572.4,-286.94 575.33,-280.58"/>
</g>
<!-- LANGDEVEL_TAR -->
<g id="node18" class="node">
<title>LANGDEVEL_TAR</title>
<polygon fill="royalblue" stroke="black" points="917.51,-52 726.51,-52 726.51,-16 923.51,-16 923.51,-46 917.51,-52"/>
<polyline fill="none" stroke="black" points="917.51,-52 917.51,-46 "/>
<polyline fill="none" stroke="black" points="923.51,-46 917.51,-46 "/>
<text text-anchor="middle" x="825.01" y="-30.3" font-family="Times,serif" font-size="14.00">docker_&lt;lang&gt;_devel.tar</text>
</g>
<!-- LANGDEVEL_IMG&#45;&gt;LANGDEVEL_TAR -->
<g id="edge16" class="edge">
<title>LANGDEVEL_IMG&#45;&gt;LANGDEVEL_TAR</title>
<path fill="none" stroke="red" d="M725.27,-330.32C720.19,-294.66 717.14,-230.02 753.01,-194.25 794.01,-153.38 842.49,-218.54 882.01,-176.25 907.93,-148.52 902.42,-125.68 887.01,-91 881.38,-78.32 871.31,-67.31 860.89,-58.47"/>
<polygon fill="red" stroke="red" points="862.94,-55.63 852.93,-52.15 858.59,-61.11 862.94,-55.63"/>
<text text-anchor="middle" x="880.51" y="-198.05" font-family="Times,serif" font-size="14.00">make save_&lt;distro&gt;_&lt;lang&gt;_devel</text>
</g>
<!-- LANGTEST_IMG -->
<g id="node13" class="node">
<title>LANGTEST_IMG</title>
<path fill="royalblue" stroke="black" d="M548.51,-171.6C548.51,-174.24 486.88,-176.38 411.01,-176.38 335.14,-176.38 273.51,-174.24 273.51,-171.6 273.51,-171.6 273.51,-128.65 273.51,-128.65 273.51,-126.01 335.14,-123.87 411.01,-123.87 486.88,-123.87 548.51,-126.01 548.51,-128.65 548.51,-128.65 548.51,-171.6 548.51,-171.6"/>
<path fill="none" stroke="black" d="M548.51,-171.6C548.51,-168.97 486.88,-166.83 411.01,-166.83 335.14,-166.83 273.51,-168.97 273.51,-171.6"/>
<text text-anchor="middle" x="411.01" y="-153.93" font-family="Times,serif" font-size="14.00">ortools/make:&lt;distro&gt;_&lt;lang&gt;_test</text>
<text text-anchor="middle" x="411.01" y="-138.93" font-family="Times,serif" font-size="14.00">test</text>
</g>
<!-- LANGBUILD_IMG&#45;&gt;LANGTEST_IMG -->
<g id="edge6" class="edge">
<title>LANGBUILD_IMG&#45;&gt;LANGTEST_IMG</title>
<path fill="none" stroke="black" d="M485.29,-227.09C472.53,-214.04 456.82,-197.97 443.13,-183.97"/>
<polygon fill="black" stroke="black" points="445.26,-181.15 435.77,-176.44 440.26,-186.04 445.26,-181.15"/>
</g>
<!-- LANGPKG_IMG -->
<g id="node14" class="node">
<title>LANGPKG_IMG</title>
<path fill="royalblue" stroke="black" d="M873.01,-171.6C873.01,-174.24 804.44,-176.38 720.01,-176.38 635.59,-176.38 567.01,-174.24 567.01,-171.6 567.01,-171.6 567.01,-128.65 567.01,-128.65 567.01,-126.01 635.59,-123.87 720.01,-123.87 804.44,-123.87 873.01,-126.01 873.01,-128.65 873.01,-128.65 873.01,-171.6 873.01,-171.6"/>
<path fill="none" stroke="black" d="M873.01,-171.6C873.01,-168.97 804.44,-166.83 720.01,-166.83 635.59,-166.83 567.01,-168.97 567.01,-171.6"/>
<text text-anchor="middle" x="720.01" y="-153.93" font-family="Times,serif" font-size="14.00">ortools/make:&lt;distro&gt;_&lt;lang&gt;_package</text>
<text text-anchor="middle" x="720.01" y="-138.93" font-family="Times,serif" font-size="14.00">test</text>
</g>
<!-- LANGBUILD_IMG&#45;&gt;LANGPKG_IMG -->
<g id="edge7" class="edge">
<title>LANGBUILD_IMG&#45;&gt;LANGPKG_IMG</title>
<path fill="none" stroke="black" d="M562.19,-227.22C591.37,-213.15 627.89,-195.54 658.46,-180.8"/>
<polygon fill="black" stroke="black" points="660.25,-183.82 667.74,-176.33 657.21,-177.52 660.25,-183.82"/>
</g>
<!-- LANGBUILD_TAR -->
<g id="node19" class="node">
<title>LANGBUILD_TAR</title>
<polygon fill="royalblue" stroke="black" points="263.01,-52 75.01,-52 75.01,-16 269.01,-16 269.01,-46 263.01,-52"/>
<polyline fill="none" stroke="black" points="263.01,-52 263.01,-46 "/>
<polyline fill="none" stroke="black" points="269.01,-46 263.01,-46 "/>
<text text-anchor="middle" x="172.01" y="-30.3" font-family="Times,serif" font-size="14.00">docker_&lt;lang&gt;_build.tar</text>
</g>
<!-- LANGBUILD_IMG&#45;&gt;LANGBUILD_TAR -->
<g id="edge17" class="edge">
<title>LANGBUILD_IMG&#45;&gt;LANGBUILD_TAR</title>
<path fill="none" stroke="red" d="M367.98,-250.54C237.31,-245.49 57.17,-228.84 12.01,-176.25 -5.43,-155.93 -2.01,-138.81 12.01,-116 29.89,-86.91 61.81,-67.88 92.46,-55.63"/>
<polygon fill="red" stroke="red" points="93.81,-58.86 101.91,-52.04 91.32,-52.32 93.81,-58.86"/>
<text text-anchor="middle" x="138.51" y="-146.43" font-family="Times,serif" font-size="14.00">make save_&lt;distro&gt;_&lt;lang&gt;_build</text>
</g>
<!-- LANGTEST_TAR -->
<g id="node20" class="node">
<title>LANGTEST_TAR</title>
<polygon fill="royalblue" stroke="black" points="467.01,-52 287.01,-52 287.01,-16 473.01,-16 473.01,-46 467.01,-52"/>
<polyline fill="none" stroke="black" points="467.01,-52 467.01,-46 "/>
<polyline fill="none" stroke="black" points="473.01,-46 467.01,-46 "/>
<text text-anchor="middle" x="380.01" y="-30.3" font-family="Times,serif" font-size="14.00">docker_&lt;lang&gt;_test.tar</text>
</g>
<!-- LANGTEST_IMG&#45;&gt;LANGTEST_TAR -->
<g id="edge18" class="edge">
<title>LANGTEST_IMG&#45;&gt;LANGTEST_TAR</title>
<path fill="none" stroke="red" d="M360.1,-123.9C354.06,-118.81 348.73,-112.86 345.01,-106 336.89,-90.99 344.89,-73.83 355.28,-60.14"/>
<polygon fill="red" stroke="red" points="358.25,-62.04 361.94,-52.11 352.86,-57.58 358.25,-62.04"/>
<text text-anchor="middle" x="467.01" y="-94.8" font-family="Times,serif" font-size="14.00">make save_&lt;distro&gt;_&lt;lang&gt;_test</text>
</g>
<!-- LANGPKG_TAR -->
<g id="node21" class="node">
<title>LANGPKG_TAR</title>
<polygon fill="royalblue" stroke="black" points="702.51,-52 491.51,-52 491.51,-16 708.51,-16 708.51,-46 702.51,-52"/>
<polyline fill="none" stroke="black" points="702.51,-52 702.51,-46 "/>
<polyline fill="none" stroke="black" points="708.51,-46 702.51,-46 "/>
<text text-anchor="middle" x="600.01" y="-30.3" font-family="Times,serif" font-size="14.00">docker_&lt;lang&gt;_package.tar</text>
</g>
<!-- LANGPKG_IMG&#45;&gt;LANGPKG_TAR -->
<g id="edge19" class="edge">
<title>LANGPKG_IMG&#45;&gt;LANGPKG_TAR</title>
<path fill="none" stroke="red" d="M632.48,-123.94C624.76,-118.99 617.72,-113.07 612.01,-106 602.25,-93.91 599.14,-76.82 598.52,-62.43"/>
<polygon fill="red" stroke="red" points="602.02,-62.07 598.47,-52.09 595.02,-62.11 602.02,-62.07"/>
<text text-anchor="middle" x="749.51" y="-94.8" font-family="Times,serif" font-size="14.00">make save_&lt;distro&gt;_&lt;lang&gt;_package</text>
</g>
</g>
</svg>
